{"asset":{"version":"2.0","generator":"Veldren adapted asset recovery"},"scene":0,"scenes":[{"nodes":[0]}],"nodes":[{"name":"00146a75bfebb39a7ef1770f93e8b5697abd8ad0027da14e3075ff01e58c61de","mesh":0}],"meshes":[{"name":"00146a75bfebb39a7ef1770f93e8b5697abd8ad0027da14e3075ff01e58c61de","primitives":[{"attributes":{"POSITION":0,"NORMAL":1,"TEXCOORD_0":2,"COLOR_0":3,"_VELDREN_NORMAL":4,"_VELDREN_COLOR":5,"_VELDREN_FALLBACK":6,"_VELDREN_MATERIAL":7},"indices":8,"material":0,"extras":{"mixedAtlasFallback":false}}]}],"bufferViews":[{"buffer":0,"byteOffset":0,"byteLength":5616,"target":34962},{"buffer":0,"byteOffset":5616,"byteLength":5616,"target":34962},{"buffer":0,"byteOffset":11232,"byteLength":3744,"target":34962},{"buffer":0,"byteOffset":14976,"byteLength":5616,"target":34962},{"buffer":0,"byteOffset":20592,"byteLength":5616,"target":34962},{"buffer":0,"byteOffset":26208,"byteLength":5616,"target":34962},{"buffer":0,"byteOffset":31824,"byteLength":5616,"target":34962},{"buffer":0,"byteOffset":37440,"byteLength":1872,"target":34962},{"buffer":0,"byteOffset":39312,"byteLength":1872,"target":34963}],"accessors":[{"bufferView":0,"componentType":5126,"count":468,"type":"VEC3","min":[450.6000061035156,5.315631866455078,510.6000061035156],"max":[454.3999938964844,14.115632057189941,514.4000244140625]},{"bufferView":1,"componentType":5126,"count":468,"type":"VEC3"},{"bufferView":2,"componentType":5126,"count":468,"type":"VEC2"},{"bufferView":3,"componentType":5126,"count":468,"type":"VEC3"},{"bufferView":4,"componentType":5126,"count":468,"type":"VEC3"},{"bufferView":5,"componentType":5126,"count":468,"type":"VEC3"},{"bufferView":6,"componentType":5126,"count":468,"type":"VEC3"},{"bufferView":7,"componentType":5126,"count":468,"type":"SCALAR"},{"bufferView":8,"componentType":5125,"count":468,"type":"SCALAR"}],"materials":[{"name":"legacy-material-18","pbrMetallicRoughness":{"baseColorFactor":[1,1,1,1],"metallicFactor":0,"roughnessFactor":1},"doubleSided":true,"extras":{"legacyMaterial":18,"legacyShader":"dist/renderer-gl.js","limitation":"Browser procedural material not implemented by this glTF export; source/base attributes retained."}}],"extras":{"veldrenAssetId":"veldren:world-part:00146a75bfebb39a7ef1770f93e8b5697abd8ad0027da14e3075ff01e58c61de"},"buffers":[{"uri":"00146a75bfebb39a7ef1770f93e8b5697abd8ad0027da14e3075ff01e58c61de.bin","byteLength":41184}]}
