{"asset":{"version":"2.0","generator":"Veldren adapted asset recovery"},"scene":0,"scenes":[{"nodes":[0]}],"nodes":[{"name":"00ac4b3b2e0b9d43a14965f749e8c5eb9ff0121a38fc940c83e1f54688d31f3b","mesh":0}],"meshes":[{"name":"00ac4b3b2e0b9d43a14965f749e8c5eb9ff0121a38fc940c83e1f54688d31f3b","primitives":[{"attributes":{"POSITION":0,"NORMAL":1,"TEXCOORD_0":2,"COLOR_0":3,"_VELDREN_NORMAL":4,"_VELDREN_COLOR":5,"_VELDREN_FALLBACK":6,"_VELDREN_MATERIAL":7},"indices":8,"material":0,"extras":{"mixedAtlasFallback":false}},{"attributes":{"POSITION":0,"NORMAL":1,"TEXCOORD_0":2,"COLOR_0":3,"_VELDREN_NORMAL":4,"_VELDREN_COLOR":5,"_VELDREN_FALLBACK":6,"_VELDREN_MATERIAL":7},"indices":9,"material":1,"extras":{"mixedAtlasFallback":false}}]}],"bufferViews":[{"buffer":0,"byteOffset":0,"byteLength":3024,"target":34962},{"buffer":0,"byteOffset":3024,"byteLength":3024,"target":34962},{"buffer":0,"byteOffset":6048,"byteLength":2016,"target":34962},{"buffer":0,"byteOffset":8064,"byteLength":3024,"target":34962},{"buffer":0,"byteOffset":11088,"byteLength":3024,"target":34962},{"buffer":0,"byteOffset":14112,"byteLength":3024,"target":34962},{"buffer":0,"byteOffset":17136,"byteLength":3024,"target":34962},{"buffer":0,"byteOffset":20160,"byteLength":1008,"target":34962},{"buffer":0,"byteOffset":21168,"byteLength":864,"target":34963},{"buffer":0,"byteOffset":22032,"byteLength":144,"target":34963}],"accessors":[{"bufferView":0,"componentType":5126,"count":252,"type":"VEC3","min":[48.400001525878906,0.75,82.9800033569336],"max":[48.599998474121094,2.450000047683716,84.0199966430664]},{"bufferView":1,"componentType":5126,"count":252,"type":"VEC3"},{"bufferView":2,"componentType":5126,"count":252,"type":"VEC2"},{"bufferView":3,"componentType":5126,"count":252,"type":"VEC3"},{"bufferView":4,"componentType":5126,"count":252,"type":"VEC3"},{"bufferView":5,"componentType":5126,"count":252,"type":"VEC3"},{"bufferView":6,"componentType":5126,"count":252,"type":"VEC3"},{"bufferView":7,"componentType":5126,"count":252,"type":"SCALAR"},{"bufferView":8,"componentType":5125,"count":216,"type":"SCALAR"},{"bufferView":9,"componentType":5125,"count":36,"type":"SCALAR"}],"materials":[{"name":"legacy-material-5","pbrMetallicRoughness":{"baseColorFactor":[1,1,1,1],"metallicFactor":0,"roughnessFactor":1},"doubleSided":true,"extras":{"legacyMaterial":5,"legacyShader":"dist/renderer-gl.js","limitation":"Browser procedural material not implemented by this glTF export; source/base attributes retained."}},{"name":"legacy-material-20","pbrMetallicRoughness":{"baseColorFactor":[1,1,1,1],"metallicFactor":0,"roughnessFactor":1,"baseColorTexture":{"index":0}},"doubleSided":true,"extras":{"legacyMaterial":20,"legacyShader":"dist/renderer-gl.js"}}],"extras":{"veldrenAssetId":"veldren:world-part:00ac4b3b2e0b9d43a14965f749e8c5eb9ff0121a38fc940c83e1f54688d31f3b"},"images":[{"name":"atlas-00","uri":"../../textures/atlas/tile-00.png"}],"textures":[{"source":0,"sampler":0}],"samplers":[{"magFilter":9729,"minFilter":9729,"wrapS":10497,"wrapT":10497}],"buffers":[{"uri":"00ac4b3b2e0b9d43a14965f749e8c5eb9ff0121a38fc940c83e1f54688d31f3b.bin","byteLength":22176}]}
