{"asset":{"version":"2.0","generator":"Veldren adapted asset recovery"},"scene":0,"scenes":[{"nodes":[0]}],"nodes":[{"name":"02a8b6f73a4cc26453bfec807eeb77b730cf6b3e12d7105d31786701a0224668","mesh":0}],"meshes":[{"name":"02a8b6f73a4cc26453bfec807eeb77b730cf6b3e12d7105d31786701a0224668","primitives":[{"attributes":{"POSITION":0,"NORMAL":1,"TEXCOORD_0":2,"COLOR_0":3,"_VELDREN_NORMAL":4,"_VELDREN_COLOR":5,"_VELDREN_FALLBACK":6,"_VELDREN_MATERIAL":7},"indices":8,"material":0,"extras":{"mixedAtlasFallback":false}}]}],"bufferViews":[{"buffer":0,"byteOffset":0,"byteLength":4668,"target":34962},{"buffer":0,"byteOffset":4668,"byteLength":4668,"target":34962},{"buffer":0,"byteOffset":9336,"byteLength":3112,"target":34962},{"buffer":0,"byteOffset":12448,"byteLength":4668,"target":34962},{"buffer":0,"byteOffset":17116,"byteLength":4668,"target":34962},{"buffer":0,"byteOffset":21784,"byteLength":4668,"target":34962},{"buffer":0,"byteOffset":26452,"byteLength":4668,"target":34962},{"buffer":0,"byteOffset":31120,"byteLength":1556,"target":34962},{"buffer":0,"byteOffset":32676,"byteLength":5280,"target":34963}],"accessors":[{"bufferView":0,"componentType":5126,"count":389,"type":"VEC3","min":[-0.05693448707461357,-0.00039556194678880274,-0.05693448707461357],"max":[0.05693448707461357,0.13998661935329437,0.05693448707461357]},{"bufferView":1,"componentType":5126,"count":389,"type":"VEC3"},{"bufferView":2,"componentType":5126,"count":389,"type":"VEC2"},{"bufferView":3,"componentType":5126,"count":389,"type":"VEC3"},{"bufferView":4,"componentType":5126,"count":389,"type":"VEC3"},{"bufferView":5,"componentType":5126,"count":389,"type":"VEC3"},{"bufferView":6,"componentType":5126,"count":389,"type":"VEC3"},{"bufferView":7,"componentType":5126,"count":389,"type":"SCALAR"},{"bufferView":8,"componentType":5125,"count":1320,"type":"SCALAR"}],"materials":[{"name":"legacy-material-44","pbrMetallicRoughness":{"baseColorFactor":[1,1,1,1],"metallicFactor":0,"roughnessFactor":1,"baseColorTexture":{"index":0}},"doubleSided":true,"extras":{"legacyMaterial":44,"legacyShader":"dist/renderer-gl.js"}}],"extras":{"veldrenAssetId":"veldren:world-part:02a8b6f73a4cc26453bfec807eeb77b730cf6b3e12d7105d31786701a0224668"},"images":[{"name":"atlas-24","uri":"../../textures/atlas/tile-24.png"}],"textures":[{"source":0,"sampler":0}],"samplers":[{"magFilter":9729,"minFilter":9729,"wrapS":10497,"wrapT":10497}],"buffers":[{"uri":"02a8b6f73a4cc26453bfec807eeb77b730cf6b3e12d7105d31786701a0224668.bin","byteLength":37956}]}
