{"asset":{"version":"2.0","generator":"Veldren adapted asset recovery"},"scene":0,"scenes":[{"nodes":[0]}],"nodes":[{"name":"053226cef9c12e2f32435b3354a97e672dd6f63fcfd5bdde886452a2e01c2b42","mesh":0}],"meshes":[{"name":"053226cef9c12e2f32435b3354a97e672dd6f63fcfd5bdde886452a2e01c2b42","primitives":[{"attributes":{"POSITION":0,"NORMAL":1,"TEXCOORD_0":2,"COLOR_0":3,"_VELDREN_NORMAL":4,"_VELDREN_COLOR":5,"_VELDREN_FALLBACK":6,"_VELDREN_MATERIAL":7},"indices":8,"material":0,"extras":{"mixedAtlasFallback":false}},{"attributes":{"POSITION":0,"NORMAL":1,"TEXCOORD_0":2,"COLOR_0":3,"_VELDREN_NORMAL":4,"_VELDREN_COLOR":5,"_VELDREN_FALLBACK":6,"_VELDREN_MATERIAL":7},"indices":9,"material":1,"extras":{"mixedAtlasFallback":false}},{"attributes":{"POSITION":0,"NORMAL":1,"TEXCOORD_0":2,"COLOR_0":3,"_VELDREN_NORMAL":4,"_VELDREN_COLOR":5,"_VELDREN_FALLBACK":6,"_VELDREN_MATERIAL":7},"indices":10,"material":2,"extras":{"mixedAtlasFallback":false}},{"attributes":{"POSITION":0,"NORMAL":1,"TEXCOORD_0":2,"COLOR_0":3,"_VELDREN_NORMAL":4,"_VELDREN_COLOR":5,"_VELDREN_FALLBACK":6,"_VELDREN_MATERIAL":7},"indices":11,"material":3,"extras":{"mixedAtlasFallback":false}},{"attributes":{"POSITION":0,"NORMAL":1,"TEXCOORD_0":2,"COLOR_0":3,"_VELDREN_NORMAL":4,"_VELDREN_COLOR":5,"_VELDREN_FALLBACK":6,"_VELDREN_MATERIAL":7},"indices":12,"material":4,"extras":{"mixedAtlasFallback":false}}]}],"bufferViews":[{"buffer":0,"byteOffset":0,"byteLength":92232,"target":34962},{"buffer":0,"byteOffset":92232,"byteLength":92232,"target":34962},{"buffer":0,"byteOffset":184464,"byteLength":61488,"target":34962},{"buffer":0,"byteOffset":245952,"byteLength":92232,"target":34962},{"buffer":0,"byteOffset":338184,"byteLength":92232,"target":34962},{"buffer":0,"byteOffset":430416,"byteLength":92232,"target":34962},{"buffer":0,"byteOffset":522648,"byteLength":92232,"target":34962},{"buffer":0,"byteOffset":614880,"byteLength":30744,"target":34962},{"buffer":0,"byteOffset":645624,"byteLength":10032,"target":34963},{"buffer":0,"byteOffset":655656,"byteLength":192,"target":34963},{"buffer":0,"byteOffset":655848,"byteLength":17856,"target":34963},{"buffer":0,"byteOffset":673704,"byteLength":576,"target":34963},{"buffer":0,"byteOffset":674280,"byteLength":2088,"target":34963}],"accessors":[{"bufferView":0,"componentType":5126,"count":7686,"type":"VEC3","min":[410.489990234375,4.912835597991943,299.510009765625],"max":[424.510009765625,12.693863868713379,312.47760009765625]},{"bufferView":1,"componentType":5126,"count":7686,"type":"VEC3"},{"bufferView":2,"componentType":5126,"count":7686,"type":"VEC2"},{"bufferView":3,"componentType":5126,"count":7686,"type":"VEC3"},{"bufferView":4,"componentType":5126,"count":7686,"type":"VEC3"},{"bufferView":5,"componentType":5126,"count":7686,"type":"VEC3"},{"bufferView":6,"componentType":5126,"count":7686,"type":"VEC3"},{"bufferView":7,"componentType":5126,"count":7686,"type":"SCALAR"},{"bufferView":8,"componentType":5125,"count":2508,"type":"SCALAR"},{"bufferView":9,"componentType":5125,"count":48,"type":"SCALAR"},{"bufferView":10,"componentType":5125,"count":4464,"type":"SCALAR"},{"bufferView":11,"componentType":5125,"count":144,"type":"SCALAR"},{"bufferView":12,"componentType":5125,"count":522,"type":"SCALAR"}],"materials":[{"name":"legacy-material-5","pbrMetallicRoughness":{"baseColorFactor":[1,1,1,1],"metallicFactor":0,"roughnessFactor":1},"doubleSided":true,"extras":{"legacyMaterial":5,"legacyShader":"dist/renderer-gl.js","limitation":"Browser procedural material not implemented by this glTF export; source/base attributes retained."}},{"name":"legacy-material-13","pbrMetallicRoughness":{"baseColorFactor":[1,1,1,1],"metallicFactor":0,"roughnessFactor":1},"doubleSided":true,"extras":{"legacyMaterial":13,"legacyShader":"dist/renderer-gl.js","limitation":"Browser procedural material not implemented by this glTF export; source/base attributes retained."}},{"name":"legacy-material-17","pbrMetallicRoughness":{"baseColorFactor":[1,1,1,1],"metallicFactor":0,"roughnessFactor":1},"doubleSided":true,"extras":{"legacyMaterial":17,"legacyShader":"dist/renderer-gl.js","limitation":"Browser procedural material not implemented by this glTF export; source/base attributes retained."}},{"name":"legacy-material-6","pbrMetallicRoughness":{"baseColorFactor":[1,1,1,1],"metallicFactor":0,"roughnessFactor":1},"doubleSided":true,"extras":{"legacyMaterial":6,"legacyShader":"dist/renderer-gl.js","limitation":"Browser procedural material not implemented by this glTF export; source/base attributes retained."}},{"name":"legacy-material-7","pbrMetallicRoughness":{"baseColorFactor":[1,1,1,1],"metallicFactor":0,"roughnessFactor":1},"doubleSided":true,"extras":{"legacyMaterial":7,"legacyShader":"dist/renderer-gl.js","limitation":"Browser procedural material not implemented by this glTF export; source/base attributes retained."}}],"extras":{"veldrenAssetId":"veldren:world-part:053226cef9c12e2f32435b3354a97e672dd6f63fcfd5bdde886452a2e01c2b42"},"buffers":[{"uri":"053226cef9c12e2f32435b3354a97e672dd6f63fcfd5bdde886452a2e01c2b42.bin","byteLength":676368}]}
