{"asset":{"version":"2.0","generator":"Veldren adapted asset recovery"},"scene":0,"scenes":[{"nodes":[0]}],"nodes":[{"name":"05eeade98d12ba14d0340bdd323a713e91b73c1afff52438cf7b0e28d7676e78","mesh":0}],"meshes":[{"name":"05eeade98d12ba14d0340bdd323a713e91b73c1afff52438cf7b0e28d7676e78","primitives":[{"attributes":{"POSITION":0,"NORMAL":1,"TEXCOORD_0":2,"COLOR_0":3,"_VELDREN_NORMAL":4,"_VELDREN_COLOR":5,"_VELDREN_FALLBACK":6,"_VELDREN_MATERIAL":7},"indices":8,"material":0,"extras":{"mixedAtlasFallback":false}}]}],"bufferViews":[{"buffer":0,"byteOffset":0,"byteLength":5184,"target":34962},{"buffer":0,"byteOffset":5184,"byteLength":5184,"target":34962},{"buffer":0,"byteOffset":10368,"byteLength":3456,"target":34962},{"buffer":0,"byteOffset":13824,"byteLength":5184,"target":34962},{"buffer":0,"byteOffset":19008,"byteLength":5184,"target":34962},{"buffer":0,"byteOffset":24192,"byteLength":5184,"target":34962},{"buffer":0,"byteOffset":29376,"byteLength":5184,"target":34962},{"buffer":0,"byteOffset":34560,"byteLength":1728,"target":34962},{"buffer":0,"byteOffset":36288,"byteLength":1728,"target":34963}],"accessors":[{"bufferView":0,"componentType":5126,"count":432,"type":"VEC3","min":[26.899999618530273,0.8525000214576721,11.100000381469727],"max":[28.100000381469727,0.9003922939300537,11.899999618530273]},{"bufferView":1,"componentType":5126,"count":432,"type":"VEC3"},{"bufferView":2,"componentType":5126,"count":432,"type":"VEC2"},{"bufferView":3,"componentType":5126,"count":432,"type":"VEC3"},{"bufferView":4,"componentType":5126,"count":432,"type":"VEC3"},{"bufferView":5,"componentType":5126,"count":432,"type":"VEC3"},{"bufferView":6,"componentType":5126,"count":432,"type":"VEC3"},{"bufferView":7,"componentType":5126,"count":432,"type":"SCALAR"},{"bufferView":8,"componentType":5125,"count":432,"type":"SCALAR"}],"materials":[{"name":"legacy-material-20","pbrMetallicRoughness":{"baseColorFactor":[1,1,1,1],"metallicFactor":0,"roughnessFactor":1,"baseColorTexture":{"index":0}},"doubleSided":true,"extras":{"legacyMaterial":20,"legacyShader":"dist/renderer-gl.js"}}],"extras":{"veldrenAssetId":"veldren:world-part:05eeade98d12ba14d0340bdd323a713e91b73c1afff52438cf7b0e28d7676e78"},"images":[{"name":"atlas-00","uri":"../../textures/atlas/tile-00.png"}],"textures":[{"source":0,"sampler":0}],"samplers":[{"magFilter":9729,"minFilter":9729,"wrapS":10497,"wrapT":10497}],"buffers":[{"uri":"05eeade98d12ba14d0340bdd323a713e91b73c1afff52438cf7b0e28d7676e78.bin","byteLength":38016}]}
