{"asset":{"version":"2.0","generator":"Veldren adapted asset recovery"},"scene":0,"scenes":[{"nodes":[0]}],"nodes":[{"name":"06d925be56890b7398f2194cc88b3c173bbe8188dffdc321e0608349b6aa138f","mesh":0}],"meshes":[{"name":"06d925be56890b7398f2194cc88b3c173bbe8188dffdc321e0608349b6aa138f","primitives":[{"attributes":{"POSITION":0,"NORMAL":1,"TEXCOORD_0":2,"COLOR_0":3,"_VELDREN_NORMAL":4,"_VELDREN_COLOR":5,"_VELDREN_FALLBACK":6,"_VELDREN_MATERIAL":7},"indices":8,"material":0,"extras":{"mixedAtlasFallback":false}},{"attributes":{"POSITION":0,"NORMAL":1,"TEXCOORD_0":2,"COLOR_0":3,"_VELDREN_NORMAL":4,"_VELDREN_COLOR":5,"_VELDREN_FALLBACK":6,"_VELDREN_MATERIAL":7},"indices":9,"material":1,"extras":{"mixedAtlasFallback":false}}]}],"bufferViews":[{"buffer":0,"byteOffset":0,"byteLength":1656,"target":34962},{"buffer":0,"byteOffset":1656,"byteLength":1656,"target":34962},{"buffer":0,"byteOffset":3312,"byteLength":1104,"target":34962},{"buffer":0,"byteOffset":4416,"byteLength":1656,"target":34962},{"buffer":0,"byteOffset":6072,"byteLength":1656,"target":34962},{"buffer":0,"byteOffset":7728,"byteLength":1656,"target":34962},{"buffer":0,"byteOffset":9384,"byteLength":1656,"target":34962},{"buffer":0,"byteOffset":11040,"byteLength":552,"target":34962},{"buffer":0,"byteOffset":11592,"byteLength":240,"target":34963},{"buffer":0,"byteOffset":11832,"byteLength":312,"target":34963}],"accessors":[{"bufferView":0,"componentType":5126,"count":138,"type":"VEC3","min":[33.099998474121094,0.0,65.1535873413086],"max":[33.900001525878906,1.4249999523162842,65.8464126586914]},{"bufferView":1,"componentType":5126,"count":138,"type":"VEC3"},{"bufferView":2,"componentType":5126,"count":138,"type":"VEC2"},{"bufferView":3,"componentType":5126,"count":138,"type":"VEC3"},{"bufferView":4,"componentType":5126,"count":138,"type":"VEC3"},{"bufferView":5,"componentType":5126,"count":138,"type":"VEC3"},{"bufferView":6,"componentType":5126,"count":138,"type":"VEC3"},{"bufferView":7,"componentType":5126,"count":138,"type":"SCALAR"},{"bufferView":8,"componentType":5125,"count":60,"type":"SCALAR"},{"bufferView":9,"componentType":5125,"count":78,"type":"SCALAR"}],"materials":[{"name":"legacy-material-20","pbrMetallicRoughness":{"baseColorFactor":[1,1,1,1],"metallicFactor":0,"roughnessFactor":1,"baseColorTexture":{"index":0}},"doubleSided":true,"extras":{"legacyMaterial":20,"legacyShader":"dist/renderer-gl.js"}},{"name":"legacy-material-19","pbrMetallicRoughness":{"baseColorFactor":[1,1,1,1],"metallicFactor":0,"roughnessFactor":1},"doubleSided":true,"extras":{"legacyMaterial":19,"legacyShader":"dist/renderer-gl.js","limitation":"Browser procedural material not implemented by this glTF export; source/base attributes retained."}}],"extras":{"veldrenAssetId":"veldren:world-part:06d925be56890b7398f2194cc88b3c173bbe8188dffdc321e0608349b6aa138f"},"images":[{"name":"atlas-00","uri":"../../textures/atlas/tile-00.png"}],"textures":[{"source":0,"sampler":0}],"samplers":[{"magFilter":9729,"minFilter":9729,"wrapS":10497,"wrapT":10497}],"buffers":[{"uri":"06d925be56890b7398f2194cc88b3c173bbe8188dffdc321e0608349b6aa138f.bin","byteLength":12144}]}
