{"asset":{"version":"2.0","generator":"Veldren adapted asset recovery"},"scene":0,"scenes":[{"nodes":[0]}],"nodes":[{"name":"07f83272cd508b9654a4521d48dbf3e5ae515f8eca44fc3f7ff72f08aa404d3e","mesh":0}],"meshes":[{"name":"07f83272cd508b9654a4521d48dbf3e5ae515f8eca44fc3f7ff72f08aa404d3e","primitives":[{"attributes":{"POSITION":0,"NORMAL":1,"TEXCOORD_0":2,"COLOR_0":3,"_VELDREN_NORMAL":4,"_VELDREN_COLOR":5,"_VELDREN_FALLBACK":6,"_VELDREN_MATERIAL":7},"indices":8,"material":0,"extras":{"mixedAtlasFallback":false}}]}],"bufferViews":[{"buffer":0,"byteOffset":0,"byteLength":7824,"target":34962},{"buffer":0,"byteOffset":7824,"byteLength":7824,"target":34962},{"buffer":0,"byteOffset":15648,"byteLength":5216,"target":34962},{"buffer":0,"byteOffset":20864,"byteLength":7824,"target":34962},{"buffer":0,"byteOffset":28688,"byteLength":7824,"target":34962},{"buffer":0,"byteOffset":36512,"byteLength":7824,"target":34962},{"buffer":0,"byteOffset":44336,"byteLength":7824,"target":34962},{"buffer":0,"byteOffset":52160,"byteLength":2608,"target":34962},{"buffer":0,"byteOffset":54768,"byteLength":9312,"target":34963}],"accessors":[{"bufferView":0,"componentType":5126,"count":652,"type":"VEC3","min":[-0.4102936387062073,-0.49387088418006897,-0.06782905012369156],"max":[0.4025578796863556,0.7037505507469177,0.06782905012369156]},{"bufferView":1,"componentType":5126,"count":652,"type":"VEC3"},{"bufferView":2,"componentType":5126,"count":652,"type":"VEC2"},{"bufferView":3,"componentType":5126,"count":652,"type":"VEC3"},{"bufferView":4,"componentType":5126,"count":652,"type":"VEC3"},{"bufferView":5,"componentType":5126,"count":652,"type":"VEC3"},{"bufferView":6,"componentType":5126,"count":652,"type":"VEC3"},{"bufferView":7,"componentType":5126,"count":652,"type":"SCALAR"},{"bufferView":8,"componentType":5125,"count":2328,"type":"SCALAR"}],"materials":[{"name":"legacy-material-44","pbrMetallicRoughness":{"baseColorFactor":[1,1,1,1],"metallicFactor":0,"roughnessFactor":1,"baseColorTexture":{"index":0}},"doubleSided":true,"extras":{"legacyMaterial":44,"legacyShader":"dist/renderer-gl.js"}}],"extras":{"veldrenAssetId":"veldren:world-part:07f83272cd508b9654a4521d48dbf3e5ae515f8eca44fc3f7ff72f08aa404d3e"},"images":[{"name":"atlas-24","uri":"../../textures/atlas/tile-24.png"}],"textures":[{"source":0,"sampler":0}],"samplers":[{"magFilter":9729,"minFilter":9729,"wrapS":10497,"wrapT":10497}],"buffers":[{"uri":"07f83272cd508b9654a4521d48dbf3e5ae515f8eca44fc3f7ff72f08aa404d3e.bin","byteLength":64080}]}
