{"asset":{"version":"2.0","generator":"Veldren adapted asset recovery"},"scene":0,"scenes":[{"nodes":[0]}],"nodes":[{"name":"0c7026539c1c72e9e529dc4a3eedc9a747bd10edd8444844dfd1694a37b30d03","mesh":0}],"meshes":[{"name":"0c7026539c1c72e9e529dc4a3eedc9a747bd10edd8444844dfd1694a37b30d03","primitives":[{"attributes":{"POSITION":0,"NORMAL":1,"TEXCOORD_0":2,"COLOR_0":3,"_VELDREN_NORMAL":4,"_VELDREN_COLOR":5,"_VELDREN_FALLBACK":6,"_VELDREN_MATERIAL":7},"indices":8,"material":0,"extras":{"mixedAtlasFallback":false}},{"attributes":{"POSITION":0,"NORMAL":1,"TEXCOORD_0":2,"COLOR_0":3,"_VELDREN_NORMAL":4,"_VELDREN_COLOR":5,"_VELDREN_FALLBACK":6,"_VELDREN_MATERIAL":7},"indices":9,"material":1,"extras":{"mixedAtlasFallback":false}},{"attributes":{"POSITION":0,"NORMAL":1,"TEXCOORD_0":2,"COLOR_0":3,"_VELDREN_NORMAL":4,"_VELDREN_COLOR":5,"_VELDREN_FALLBACK":6,"_VELDREN_MATERIAL":7},"indices":10,"material":2,"extras":{"mixedAtlasFallback":false}},{"attributes":{"POSITION":0,"NORMAL":1,"TEXCOORD_0":2,"COLOR_0":3,"_VELDREN_NORMAL":4,"_VELDREN_COLOR":5,"_VELDREN_FALLBACK":6,"_VELDREN_MATERIAL":7},"indices":11,"material":3,"extras":{"mixedAtlasFallback":false}},{"attributes":{"POSITION":0,"NORMAL":1,"TEXCOORD_0":2,"COLOR_0":3,"_VELDREN_NORMAL":4,"_VELDREN_COLOR":5,"_VELDREN_FALLBACK":6,"_VELDREN_MATERIAL":7},"indices":12,"material":4,"extras":{"mixedAtlasFallback":false}},{"attributes":{"POSITION":0,"NORMAL":1,"TEXCOORD_0":2,"COLOR_0":3,"_VELDREN_NORMAL":4,"_VELDREN_COLOR":5,"_VELDREN_FALLBACK":6,"_VELDREN_MATERIAL":7},"indices":13,"material":5,"extras":{"mixedAtlasFallback":false}}]}],"bufferViews":[{"buffer":0,"byteOffset":0,"byteLength":8352,"target":34962},{"buffer":0,"byteOffset":8352,"byteLength":8352,"target":34962},{"buffer":0,"byteOffset":16704,"byteLength":5568,"target":34962},{"buffer":0,"byteOffset":22272,"byteLength":8352,"target":34962},{"buffer":0,"byteOffset":30624,"byteLength":8352,"target":34962},{"buffer":0,"byteOffset":38976,"byteLength":8352,"target":34962},{"buffer":0,"byteOffset":47328,"byteLength":8352,"target":34962},{"buffer":0,"byteOffset":55680,"byteLength":2784,"target":34962},{"buffer":0,"byteOffset":58464,"byteLength":2016,"target":34963},{"buffer":0,"byteOffset":60480,"byteLength":144,"target":34963},{"buffer":0,"byteOffset":60624,"byteLength":144,"target":34963},{"buffer":0,"byteOffset":60768,"byteLength":192,"target":34963},{"buffer":0,"byteOffset":60960,"byteLength":96,"target":34963},{"buffer":0,"byteOffset":61056,"byteLength":192,"target":34963}],"accessors":[{"bufferView":0,"componentType":5126,"count":696,"type":"VEC3","min":[61.36000061035156,0.75,52.792415618896484],"max":[62.84000015258789,3.2850000858306885,54.220001220703125]},{"bufferView":1,"componentType":5126,"count":696,"type":"VEC3"},{"bufferView":2,"componentType":5126,"count":696,"type":"VEC2"},{"bufferView":3,"componentType":5126,"count":696,"type":"VEC3"},{"bufferView":4,"componentType":5126,"count":696,"type":"VEC3"},{"bufferView":5,"componentType":5126,"count":696,"type":"VEC3"},{"bufferView":6,"componentType":5126,"count":696,"type":"VEC3"},{"bufferView":7,"componentType":5126,"count":696,"type":"SCALAR"},{"bufferView":8,"componentType":5125,"count":504,"type":"SCALAR"},{"bufferView":9,"componentType":5125,"count":36,"type":"SCALAR"},{"bufferView":10,"componentType":5125,"count":36,"type":"SCALAR"},{"bufferView":11,"componentType":5125,"count":48,"type":"SCALAR"},{"bufferView":12,"componentType":5125,"count":24,"type":"SCALAR"},{"bufferView":13,"componentType":5125,"count":48,"type":"SCALAR"}],"materials":[{"name":"legacy-material-5","pbrMetallicRoughness":{"baseColorFactor":[1,1,1,1],"metallicFactor":0,"roughnessFactor":1},"doubleSided":true,"extras":{"legacyMaterial":5,"legacyShader":"dist/renderer-gl.js","limitation":"Browser procedural material not implemented by this glTF export; source/base attributes retained."}},{"name":"legacy-material-20","pbrMetallicRoughness":{"baseColorFactor":[1,1,1,1],"metallicFactor":0,"roughnessFactor":1,"baseColorTexture":{"index":0}},"doubleSided":true,"extras":{"legacyMaterial":20,"legacyShader":"dist/renderer-gl.js"}},{"name":"legacy-material-19","pbrMetallicRoughness":{"baseColorFactor":[1,1,1,1],"metallicFactor":0,"roughnessFactor":1},"doubleSided":true,"extras":{"legacyMaterial":19,"legacyShader":"dist/renderer-gl.js","limitation":"Browser procedural material not implemented by this glTF export; source/base attributes retained."}},{"name":"legacy-material-17","pbrMetallicRoughness":{"baseColorFactor":[1,1,1,1],"metallicFactor":0,"roughnessFactor":1},"doubleSided":true,"extras":{"legacyMaterial":17,"legacyShader":"dist/renderer-gl.js","limitation":"Browser procedural material not implemented by this glTF export; source/base attributes retained."}},{"name":"legacy-material-7","pbrMetallicRoughness":{"baseColorFactor":[1,1,1,1],"metallicFactor":0,"roughnessFactor":1},"doubleSided":true,"extras":{"legacyMaterial":7,"legacyShader":"dist/renderer-gl.js","limitation":"Browser procedural material not implemented by this glTF export; source/base attributes retained."}},{"name":"legacy-material-6","pbrMetallicRoughness":{"baseColorFactor":[1,1,1,1],"metallicFactor":0,"roughnessFactor":1},"doubleSided":true,"extras":{"legacyMaterial":6,"legacyShader":"dist/renderer-gl.js","limitation":"Browser procedural material not implemented by this glTF export; source/base attributes retained."}}],"extras":{"veldrenAssetId":"veldren:world-part:0c7026539c1c72e9e529dc4a3eedc9a747bd10edd8444844dfd1694a37b30d03"},"images":[{"name":"atlas-00","uri":"../../textures/atlas/tile-00.png"}],"textures":[{"source":0,"sampler":0}],"samplers":[{"magFilter":9729,"minFilter":9729,"wrapS":10497,"wrapT":10497}],"buffers":[{"uri":"0c7026539c1c72e9e529dc4a3eedc9a747bd10edd8444844dfd1694a37b30d03.bin","byteLength":61248}]}
