{"asset":{"version":"2.0","generator":"Veldren adapted asset recovery"},"scene":0,"scenes":[{"nodes":[0]}],"nodes":[{"name":"0da49cf860396d5ba28cd6ac6876114bf08089b6353c453f3ebebb6d96249be4","mesh":0}],"meshes":[{"name":"0da49cf860396d5ba28cd6ac6876114bf08089b6353c453f3ebebb6d96249be4","primitives":[{"attributes":{"POSITION":0,"NORMAL":1,"TEXCOORD_0":2,"COLOR_0":3,"_VELDREN_NORMAL":4,"_VELDREN_COLOR":5,"_VELDREN_FALLBACK":6,"_VELDREN_MATERIAL":7},"indices":8,"material":0,"extras":{"mixedAtlasFallback":false}}]}],"bufferViews":[{"buffer":0,"byteOffset":0,"byteLength":3312,"target":34962},{"buffer":0,"byteOffset":3312,"byteLength":3312,"target":34962},{"buffer":0,"byteOffset":6624,"byteLength":2208,"target":34962},{"buffer":0,"byteOffset":8832,"byteLength":3312,"target":34962},{"buffer":0,"byteOffset":12144,"byteLength":3312,"target":34962},{"buffer":0,"byteOffset":15456,"byteLength":3312,"target":34962},{"buffer":0,"byteOffset":18768,"byteLength":3312,"target":34962},{"buffer":0,"byteOffset":22080,"byteLength":1104,"target":34962},{"buffer":0,"byteOffset":23184,"byteLength":1104,"target":34963}],"accessors":[{"bufferView":0,"componentType":5126,"count":276,"type":"VEC3","min":[383.45001220703125,4.85783576965332,335.45001220703125],"max":[385.54998779296875,8.057835578918457,337.54998779296875]},{"bufferView":1,"componentType":5126,"count":276,"type":"VEC3"},{"bufferView":2,"componentType":5126,"count":276,"type":"VEC2"},{"bufferView":3,"componentType":5126,"count":276,"type":"VEC3"},{"bufferView":4,"componentType":5126,"count":276,"type":"VEC3"},{"bufferView":5,"componentType":5126,"count":276,"type":"VEC3"},{"bufferView":6,"componentType":5126,"count":276,"type":"VEC3"},{"bufferView":7,"componentType":5126,"count":276,"type":"SCALAR"},{"bufferView":8,"componentType":5125,"count":276,"type":"SCALAR"}],"materials":[{"name":"legacy-material-18","pbrMetallicRoughness":{"baseColorFactor":[1,1,1,1],"metallicFactor":0,"roughnessFactor":1},"doubleSided":true,"extras":{"legacyMaterial":18,"legacyShader":"dist/renderer-gl.js","limitation":"Browser procedural material not implemented by this glTF export; source/base attributes retained."}}],"extras":{"veldrenAssetId":"veldren:world-part:0da49cf860396d5ba28cd6ac6876114bf08089b6353c453f3ebebb6d96249be4"},"buffers":[{"uri":"0da49cf860396d5ba28cd6ac6876114bf08089b6353c453f3ebebb6d96249be4.bin","byteLength":24288}]}
