{"asset":{"version":"2.0","generator":"Veldren adapted asset recovery"},"scene":0,"scenes":[{"nodes":[0]}],"nodes":[{"name":"10d8e0547b8a2c343b499591c54b6023695335d1640c6a9cec8f6b1a6761ecce","mesh":0}],"meshes":[{"name":"10d8e0547b8a2c343b499591c54b6023695335d1640c6a9cec8f6b1a6761ecce","primitives":[{"attributes":{"POSITION":0,"NORMAL":1,"TEXCOORD_0":2,"COLOR_0":3,"_VELDREN_NORMAL":4,"_VELDREN_COLOR":5,"_VELDREN_FALLBACK":6,"_VELDREN_MATERIAL":7},"indices":8,"material":0,"extras":{"mixedAtlasFallback":false}}]}],"bufferViews":[{"buffer":0,"byteOffset":0,"byteLength":1296,"target":34962},{"buffer":0,"byteOffset":1296,"byteLength":1296,"target":34962},{"buffer":0,"byteOffset":2592,"byteLength":864,"target":34962},{"buffer":0,"byteOffset":3456,"byteLength":1296,"target":34962},{"buffer":0,"byteOffset":4752,"byteLength":1296,"target":34962},{"buffer":0,"byteOffset":6048,"byteLength":1296,"target":34962},{"buffer":0,"byteOffset":7344,"byteLength":1296,"target":34962},{"buffer":0,"byteOffset":8640,"byteLength":432,"target":34962},{"buffer":0,"byteOffset":9072,"byteLength":432,"target":34963}],"accessors":[{"bufferView":0,"componentType":5126,"count":108,"type":"VEC3","min":[20.940000534057617,0.029999999329447746,128.3000030517578],"max":[21.899999618530273,0.07000000029802322,129.0]},{"bufferView":1,"componentType":5126,"count":108,"type":"VEC3"},{"bufferView":2,"componentType":5126,"count":108,"type":"VEC2"},{"bufferView":3,"componentType":5126,"count":108,"type":"VEC3"},{"bufferView":4,"componentType":5126,"count":108,"type":"VEC3"},{"bufferView":5,"componentType":5126,"count":108,"type":"VEC3"},{"bufferView":6,"componentType":5126,"count":108,"type":"VEC3"},{"bufferView":7,"componentType":5126,"count":108,"type":"SCALAR"},{"bufferView":8,"componentType":5125,"count":108,"type":"SCALAR"}],"materials":[{"name":"legacy-material-20","pbrMetallicRoughness":{"baseColorFactor":[1,1,1,1],"metallicFactor":0,"roughnessFactor":1,"baseColorTexture":{"index":0}},"doubleSided":true,"extras":{"legacyMaterial":20,"legacyShader":"dist/renderer-gl.js"}}],"extras":{"veldrenAssetId":"veldren:world-part:10d8e0547b8a2c343b499591c54b6023695335d1640c6a9cec8f6b1a6761ecce"},"images":[{"name":"atlas-00","uri":"../../textures/atlas/tile-00.png"}],"textures":[{"source":0,"sampler":0}],"samplers":[{"magFilter":9729,"minFilter":9729,"wrapS":10497,"wrapT":10497}],"buffers":[{"uri":"10d8e0547b8a2c343b499591c54b6023695335d1640c6a9cec8f6b1a6761ecce.bin","byteLength":9504}]}
