{"asset":{"version":"2.0","generator":"Veldren adapted asset recovery"},"scene":0,"scenes":[{"nodes":[0]}],"nodes":[{"name":"112598dcc74329592fc634d575caee351d4f3bbb2c2ff2e32e4e4f5ead0ba14a","mesh":0}],"meshes":[{"name":"112598dcc74329592fc634d575caee351d4f3bbb2c2ff2e32e4e4f5ead0ba14a","primitives":[{"attributes":{"POSITION":0,"NORMAL":1,"TEXCOORD_0":2,"COLOR_0":3,"_VELDREN_NORMAL":4,"_VELDREN_COLOR":5,"_VELDREN_FALLBACK":6,"_VELDREN_MATERIAL":7},"indices":8,"material":0,"extras":{"mixedAtlasFallback":false}},{"attributes":{"POSITION":0,"NORMAL":1,"TEXCOORD_0":2,"COLOR_0":3,"_VELDREN_NORMAL":4,"_VELDREN_COLOR":5,"_VELDREN_FALLBACK":6,"_VELDREN_MATERIAL":7},"indices":9,"material":1,"extras":{"mixedAtlasFallback":false}},{"attributes":{"POSITION":0,"NORMAL":1,"TEXCOORD_0":2,"COLOR_0":3,"_VELDREN_NORMAL":4,"_VELDREN_COLOR":5,"_VELDREN_FALLBACK":6,"_VELDREN_MATERIAL":7},"indices":10,"material":2,"extras":{"mixedAtlasFallback":false}},{"attributes":{"POSITION":0,"NORMAL":1,"TEXCOORD_0":2,"COLOR_0":3,"_VELDREN_NORMAL":4,"_VELDREN_COLOR":5,"_VELDREN_FALLBACK":6,"_VELDREN_MATERIAL":7},"indices":11,"material":3,"extras":{"mixedAtlasFallback":false}},{"attributes":{"POSITION":0,"NORMAL":1,"TEXCOORD_0":2,"COLOR_0":3,"_VELDREN_NORMAL":4,"_VELDREN_COLOR":5,"_VELDREN_FALLBACK":6,"_VELDREN_MATERIAL":7},"indices":12,"material":4,"extras":{"mixedAtlasFallback":false}},{"attributes":{"POSITION":0,"NORMAL":1,"TEXCOORD_0":2,"COLOR_0":3,"_VELDREN_NORMAL":4,"_VELDREN_COLOR":5,"_VELDREN_FALLBACK":6,"_VELDREN_MATERIAL":7},"indices":13,"material":5,"extras":{"mixedAtlasFallback":false}}]}],"bufferViews":[{"buffer":0,"byteOffset":0,"byteLength":108072,"target":34962},{"buffer":0,"byteOffset":108072,"byteLength":108072,"target":34962},{"buffer":0,"byteOffset":216144,"byteLength":72048,"target":34962},{"buffer":0,"byteOffset":288192,"byteLength":108072,"target":34962},{"buffer":0,"byteOffset":396264,"byteLength":108072,"target":34962},{"buffer":0,"byteOffset":504336,"byteLength":108072,"target":34962},{"buffer":0,"byteOffset":612408,"byteLength":108072,"target":34962},{"buffer":0,"byteOffset":720480,"byteLength":36024,"target":34962},{"buffer":0,"byteOffset":756504,"byteLength":16176,"target":34963},{"buffer":0,"byteOffset":772680,"byteLength":72,"target":34963},{"buffer":0,"byteOffset":772752,"byteLength":8640,"target":34963},{"buffer":0,"byteOffset":781392,"byteLength":10368,"target":34963},{"buffer":0,"byteOffset":791760,"byteLength":576,"target":34963},{"buffer":0,"byteOffset":792336,"byteLength":192,"target":34963}],"accessors":[{"bufferView":0,"componentType":5126,"count":9006,"type":"VEC3","min":[821.4342651367188,5.042717456817627,641.510009765625],"max":[835.5657348632812,10.88835620880127,654.4776000976562]},{"bufferView":1,"componentType":5126,"count":9006,"type":"VEC3"},{"bufferView":2,"componentType":5126,"count":9006,"type":"VEC2"},{"bufferView":3,"componentType":5126,"count":9006,"type":"VEC3"},{"bufferView":4,"componentType":5126,"count":9006,"type":"VEC3"},{"bufferView":5,"componentType":5126,"count":9006,"type":"VEC3"},{"bufferView":6,"componentType":5126,"count":9006,"type":"VEC3"},{"bufferView":7,"componentType":5126,"count":9006,"type":"SCALAR"},{"bufferView":8,"componentType":5125,"count":4044,"type":"SCALAR"},{"bufferView":9,"componentType":5125,"count":18,"type":"SCALAR"},{"bufferView":10,"componentType":5125,"count":2160,"type":"SCALAR"},{"bufferView":11,"componentType":5125,"count":2592,"type":"SCALAR"},{"bufferView":12,"componentType":5125,"count":144,"type":"SCALAR"},{"bufferView":13,"componentType":5125,"count":48,"type":"SCALAR"}],"materials":[{"name":"legacy-material-5","pbrMetallicRoughness":{"baseColorFactor":[1,1,1,1],"metallicFactor":0,"roughnessFactor":1},"doubleSided":true,"extras":{"legacyMaterial":5,"legacyShader":"dist/renderer-gl.js","limitation":"Browser procedural material not implemented by this glTF export; source/base attributes retained."}},{"name":"legacy-material-13","pbrMetallicRoughness":{"baseColorFactor":[1,1,1,1],"metallicFactor":0,"roughnessFactor":1},"doubleSided":true,"extras":{"legacyMaterial":13,"legacyShader":"dist/renderer-gl.js","limitation":"Browser procedural material not implemented by this glTF export; source/base attributes retained."}},{"name":"legacy-material-20","pbrMetallicRoughness":{"baseColorFactor":[1,1,1,1],"metallicFactor":0,"roughnessFactor":1,"baseColorTexture":{"index":0}},"doubleSided":true,"extras":{"legacyMaterial":20,"legacyShader":"dist/renderer-gl.js"}},{"name":"legacy-material-17","pbrMetallicRoughness":{"baseColorFactor":[1,1,1,1],"metallicFactor":0,"roughnessFactor":1},"doubleSided":true,"extras":{"legacyMaterial":17,"legacyShader":"dist/renderer-gl.js","limitation":"Browser procedural material not implemented by this glTF export; source/base attributes retained."}},{"name":"legacy-material-7","pbrMetallicRoughness":{"baseColorFactor":[1,1,1,1],"metallicFactor":0,"roughnessFactor":1},"doubleSided":true,"extras":{"legacyMaterial":7,"legacyShader":"dist/renderer-gl.js","limitation":"Browser procedural material not implemented by this glTF export; source/base attributes retained."}},{"name":"legacy-material-6","pbrMetallicRoughness":{"baseColorFactor":[1,1,1,1],"metallicFactor":0,"roughnessFactor":1},"doubleSided":true,"extras":{"legacyMaterial":6,"legacyShader":"dist/renderer-gl.js","limitation":"Browser procedural material not implemented by this glTF export; source/base attributes retained."}}],"extras":{"veldrenAssetId":"veldren:world-part:112598dcc74329592fc634d575caee351d4f3bbb2c2ff2e32e4e4f5ead0ba14a"},"images":[{"name":"atlas-00","uri":"../../textures/atlas/tile-00.png"}],"textures":[{"source":0,"sampler":0}],"samplers":[{"magFilter":9729,"minFilter":9729,"wrapS":10497,"wrapT":10497}],"buffers":[{"uri":"112598dcc74329592fc634d575caee351d4f3bbb2c2ff2e32e4e4f5ead0ba14a.bin","byteLength":792528}]}
