{"asset":{"version":"2.0","generator":"Veldren adapted asset recovery"},"scene":0,"scenes":[{"nodes":[0]}],"nodes":[{"name":"119518c625d3ef5be66e97c63a75e19d3ec20a2d4d9730cfa9474bcab7d1a856","mesh":0}],"meshes":[{"name":"119518c625d3ef5be66e97c63a75e19d3ec20a2d4d9730cfa9474bcab7d1a856","primitives":[{"attributes":{"POSITION":0,"NORMAL":1,"TEXCOORD_0":2,"COLOR_0":3,"_VELDREN_NORMAL":4,"_VELDREN_COLOR":5,"_VELDREN_FALLBACK":6,"_VELDREN_MATERIAL":7},"indices":8,"material":0,"extras":{"mixedAtlasFallback":false}},{"attributes":{"POSITION":0,"NORMAL":1,"TEXCOORD_0":2,"COLOR_0":3,"_VELDREN_NORMAL":4,"_VELDREN_COLOR":5,"_VELDREN_FALLBACK":6,"_VELDREN_MATERIAL":7},"indices":9,"material":1,"extras":{"mixedAtlasFallback":false}}]}],"bufferViews":[{"buffer":0,"byteOffset":0,"byteLength":3804,"target":34962},{"buffer":0,"byteOffset":3804,"byteLength":3804,"target":34962},{"buffer":0,"byteOffset":7608,"byteLength":2536,"target":34962},{"buffer":0,"byteOffset":10144,"byteLength":3804,"target":34962},{"buffer":0,"byteOffset":13948,"byteLength":3804,"target":34962},{"buffer":0,"byteOffset":17752,"byteLength":3804,"target":34962},{"buffer":0,"byteOffset":21556,"byteLength":3804,"target":34962},{"buffer":0,"byteOffset":25360,"byteLength":1268,"target":34962},{"buffer":0,"byteOffset":26628,"byteLength":1632,"target":34963},{"buffer":0,"byteOffset":28260,"byteLength":288,"target":34963}],"accessors":[{"bufferView":0,"componentType":5126,"count":317,"type":"VEC3","min":[-0.8041191101074219,0.94417804479599,-0.26658084988594055],"max":[0.8041172027587891,2.5242888927459717,0.4168574810028076]},{"bufferView":1,"componentType":5126,"count":317,"type":"VEC3"},{"bufferView":2,"componentType":5126,"count":317,"type":"VEC2"},{"bufferView":3,"componentType":5126,"count":317,"type":"VEC3"},{"bufferView":4,"componentType":5126,"count":317,"type":"VEC3"},{"bufferView":5,"componentType":5126,"count":317,"type":"VEC3"},{"bufferView":6,"componentType":5126,"count":317,"type":"VEC3"},{"bufferView":7,"componentType":5126,"count":317,"type":"SCALAR"},{"bufferView":8,"componentType":5125,"count":408,"type":"SCALAR"},{"bufferView":9,"componentType":5125,"count":72,"type":"SCALAR"}],"materials":[{"name":"legacy-material-21","pbrMetallicRoughness":{"baseColorFactor":[1,1,1,1],"metallicFactor":0,"roughnessFactor":1,"baseColorTexture":{"index":0}},"doubleSided":true,"extras":{"legacyMaterial":21,"legacyShader":"dist/renderer-gl.js"}},{"name":"legacy-material-20","pbrMetallicRoughness":{"baseColorFactor":[1,1,1,1],"metallicFactor":0,"roughnessFactor":1,"baseColorTexture":{"index":1}},"doubleSided":true,"extras":{"legacyMaterial":20,"legacyShader":"dist/renderer-gl.js"}}],"extras":{"veldrenAssetId":"veldren:world-part:119518c625d3ef5be66e97c63a75e19d3ec20a2d4d9730cfa9474bcab7d1a856"},"images":[{"name":"atlas-01","uri":"../../textures/atlas/tile-01.png"},{"name":"atlas-00","uri":"../../textures/atlas/tile-00.png"}],"textures":[{"source":0,"sampler":0},{"source":1,"sampler":0}],"samplers":[{"magFilter":9729,"minFilter":9729,"wrapS":10497,"wrapT":10497}],"buffers":[{"uri":"119518c625d3ef5be66e97c63a75e19d3ec20a2d4d9730cfa9474bcab7d1a856.bin","byteLength":28548}]}
