{"asset":{"version":"2.0","generator":"Veldren adapted asset recovery"},"scene":0,"scenes":[{"nodes":[0]}],"nodes":[{"name":"12a004dcc8bd2a26f8b76c3348a51e2cffabe21222c1584be8738c2e218d70d8","mesh":0}],"meshes":[{"name":"12a004dcc8bd2a26f8b76c3348a51e2cffabe21222c1584be8738c2e218d70d8","primitives":[{"attributes":{"POSITION":0,"NORMAL":1,"TEXCOORD_0":2,"COLOR_0":3,"_VELDREN_NORMAL":4,"_VELDREN_COLOR":5,"_VELDREN_FALLBACK":6,"_VELDREN_MATERIAL":7},"indices":8,"material":0,"extras":{"mixedAtlasFallback":false}}]}],"bufferViews":[{"buffer":0,"byteOffset":0,"byteLength":3024,"target":34962},{"buffer":0,"byteOffset":3024,"byteLength":3024,"target":34962},{"buffer":0,"byteOffset":6048,"byteLength":2016,"target":34962},{"buffer":0,"byteOffset":8064,"byteLength":3024,"target":34962},{"buffer":0,"byteOffset":11088,"byteLength":3024,"target":34962},{"buffer":0,"byteOffset":14112,"byteLength":3024,"target":34962},{"buffer":0,"byteOffset":17136,"byteLength":3024,"target":34962},{"buffer":0,"byteOffset":20160,"byteLength":1008,"target":34962},{"buffer":0,"byteOffset":21168,"byteLength":1008,"target":34963}],"accessors":[{"bufferView":0,"componentType":5126,"count":252,"type":"VEC3","min":[12.050000190734863,0.004999999888241291,57.150001525878906],"max":[12.949999809265137,0.42750000953674316,57.849998474121094]},{"bufferView":1,"componentType":5126,"count":252,"type":"VEC3"},{"bufferView":2,"componentType":5126,"count":252,"type":"VEC2"},{"bufferView":3,"componentType":5126,"count":252,"type":"VEC3"},{"bufferView":4,"componentType":5126,"count":252,"type":"VEC3"},{"bufferView":5,"componentType":5126,"count":252,"type":"VEC3"},{"bufferView":6,"componentType":5126,"count":252,"type":"VEC3"},{"bufferView":7,"componentType":5126,"count":252,"type":"SCALAR"},{"bufferView":8,"componentType":5125,"count":252,"type":"SCALAR"}],"materials":[{"name":"legacy-material-20","pbrMetallicRoughness":{"baseColorFactor":[1,1,1,1],"metallicFactor":0,"roughnessFactor":1,"baseColorTexture":{"index":0}},"doubleSided":true,"extras":{"legacyMaterial":20,"legacyShader":"dist/renderer-gl.js"}}],"extras":{"veldrenAssetId":"veldren:world-part:12a004dcc8bd2a26f8b76c3348a51e2cffabe21222c1584be8738c2e218d70d8"},"images":[{"name":"atlas-00","uri":"../../textures/atlas/tile-00.png"}],"textures":[{"source":0,"sampler":0}],"samplers":[{"magFilter":9729,"minFilter":9729,"wrapS":10497,"wrapT":10497}],"buffers":[{"uri":"12a004dcc8bd2a26f8b76c3348a51e2cffabe21222c1584be8738c2e218d70d8.bin","byteLength":22176}]}
