{"asset":{"version":"2.0","generator":"Veldren adapted asset recovery"},"scene":0,"scenes":[{"nodes":[0]}],"nodes":[{"name":"133dae8ce562dbc4cbf0d0d2cb7dc4cb2baafed83b6c58ebd4446a3657088e0f","mesh":0}],"meshes":[{"name":"133dae8ce562dbc4cbf0d0d2cb7dc4cb2baafed83b6c58ebd4446a3657088e0f","primitives":[{"attributes":{"POSITION":0,"NORMAL":1,"TEXCOORD_0":2,"COLOR_0":3,"_VELDREN_NORMAL":4,"_VELDREN_COLOR":5,"_VELDREN_FALLBACK":6,"_VELDREN_MATERIAL":7},"indices":8,"material":0,"extras":{"mixedAtlasFallback":false}},{"attributes":{"POSITION":0,"NORMAL":1,"TEXCOORD_0":2,"COLOR_0":3,"_VELDREN_NORMAL":4,"_VELDREN_COLOR":5,"_VELDREN_FALLBACK":6,"_VELDREN_MATERIAL":7},"indices":9,"material":1,"extras":{"mixedAtlasFallback":false}}]}],"bufferViews":[{"buffer":0,"byteOffset":0,"byteLength":21552,"target":34962},{"buffer":0,"byteOffset":21552,"byteLength":21552,"target":34962},{"buffer":0,"byteOffset":43104,"byteLength":14368,"target":34962},{"buffer":0,"byteOffset":57472,"byteLength":21552,"target":34962},{"buffer":0,"byteOffset":79024,"byteLength":21552,"target":34962},{"buffer":0,"byteOffset":100576,"byteLength":21552,"target":34962},{"buffer":0,"byteOffset":122128,"byteLength":21552,"target":34962},{"buffer":0,"byteOffset":143680,"byteLength":7184,"target":34962},{"buffer":0,"byteOffset":150864,"byteLength":17496,"target":34963},{"buffer":0,"byteOffset":168360,"byteLength":12384,"target":34963}],"accessors":[{"bufferView":0,"componentType":5126,"count":1796,"type":"VEC3","min":[-4.721841812133789,-0.0018220000201836228,-1.3137749433517456],"max":[4.035912990570068,10.293656349182129,3.0319550037384033]},{"bufferView":1,"componentType":5126,"count":1796,"type":"VEC3"},{"bufferView":2,"componentType":5126,"count":1796,"type":"VEC2"},{"bufferView":3,"componentType":5126,"count":1796,"type":"VEC3"},{"bufferView":4,"componentType":5126,"count":1796,"type":"VEC3"},{"bufferView":5,"componentType":5126,"count":1796,"type":"VEC3"},{"bufferView":6,"componentType":5126,"count":1796,"type":"VEC3"},{"bufferView":7,"componentType":5126,"count":1796,"type":"SCALAR"},{"bufferView":8,"componentType":5125,"count":4374,"type":"SCALAR"},{"bufferView":9,"componentType":5125,"count":3096,"type":"SCALAR"}],"materials":[{"name":"legacy-material-52","pbrMetallicRoughness":{"baseColorFactor":[1,1,1,1],"metallicFactor":0,"roughnessFactor":1,"baseColorTexture":{"index":0}},"doubleSided":true,"extras":{"legacyMaterial":52,"legacyShader":"dist/renderer-gl.js"}},{"name":"legacy-material-53","pbrMetallicRoughness":{"baseColorFactor":[1,1,1,1],"metallicFactor":0,"roughnessFactor":1,"baseColorTexture":{"index":1}},"doubleSided":true,"extras":{"legacyMaterial":53,"legacyShader":"dist/renderer-gl.js"},"alphaMode":"MASK","alphaCutoff":0.45}],"extras":{"veldrenAssetId":"veldren:world-part:133dae8ce562dbc4cbf0d0d2cb7dc4cb2baafed83b6c58ebd4446a3657088e0f"},"images":[{"name":"atlas-32","uri":"../../textures/atlas/tile-32.png"},{"name":"atlas-33","uri":"../../textures/atlas/tile-33.png"}],"textures":[{"source":0,"sampler":0},{"source":1,"sampler":0}],"samplers":[{"magFilter":9729,"minFilter":9729,"wrapS":10497,"wrapT":10497}],"buffers":[{"uri":"133dae8ce562dbc4cbf0d0d2cb7dc4cb2baafed83b6c58ebd4446a3657088e0f.bin","byteLength":180744}]}
