{"asset":{"version":"2.0","generator":"Veldren adapted asset recovery"},"scene":0,"scenes":[{"nodes":[0]}],"nodes":[{"name":"13e5304fcd821c527530ff2b10e84b3679d4bf8ef2563a87f4437f62c1e334e0","mesh":0}],"meshes":[{"name":"13e5304fcd821c527530ff2b10e84b3679d4bf8ef2563a87f4437f62c1e334e0","primitives":[{"attributes":{"POSITION":0,"NORMAL":1,"TEXCOORD_0":2,"COLOR_0":3,"_VELDREN_NORMAL":4,"_VELDREN_COLOR":5,"_VELDREN_FALLBACK":6,"_VELDREN_MATERIAL":7},"indices":8,"material":0,"extras":{"mixedAtlasFallback":false}},{"attributes":{"POSITION":0,"NORMAL":1,"TEXCOORD_0":2,"COLOR_0":3,"_VELDREN_NORMAL":4,"_VELDREN_COLOR":5,"_VELDREN_FALLBACK":6,"_VELDREN_MATERIAL":7},"indices":9,"material":1,"extras":{"mixedAtlasFallback":false}},{"attributes":{"POSITION":0,"NORMAL":1,"TEXCOORD_0":2,"COLOR_0":3,"_VELDREN_NORMAL":4,"_VELDREN_COLOR":5,"_VELDREN_FALLBACK":6,"_VELDREN_MATERIAL":7},"indices":10,"material":2,"extras":{"mixedAtlasFallback":false}},{"attributes":{"POSITION":0,"NORMAL":1,"TEXCOORD_0":2,"COLOR_0":3,"_VELDREN_NORMAL":4,"_VELDREN_COLOR":5,"_VELDREN_FALLBACK":6,"_VELDREN_MATERIAL":7},"indices":11,"material":3,"extras":{"mixedAtlasFallback":false}},{"attributes":{"POSITION":0,"NORMAL":1,"TEXCOORD_0":2,"COLOR_0":3,"_VELDREN_NORMAL":4,"_VELDREN_COLOR":5,"_VELDREN_FALLBACK":6,"_VELDREN_MATERIAL":7},"indices":12,"material":4,"extras":{"mixedAtlasFallback":false}},{"attributes":{"POSITION":0,"NORMAL":1,"TEXCOORD_0":2,"COLOR_0":3,"_VELDREN_NORMAL":4,"_VELDREN_COLOR":5,"_VELDREN_FALLBACK":6,"_VELDREN_MATERIAL":7},"indices":13,"material":5,"extras":{"mixedAtlasFallback":false}},{"attributes":{"POSITION":0,"NORMAL":1,"TEXCOORD_0":2,"COLOR_0":3,"_VELDREN_NORMAL":4,"_VELDREN_COLOR":5,"_VELDREN_FALLBACK":6,"_VELDREN_MATERIAL":7},"indices":14,"material":6,"extras":{"mixedAtlasFallback":false}}]}],"bufferViews":[{"buffer":0,"byteOffset":0,"byteLength":924120,"target":34962},{"buffer":0,"byteOffset":924120,"byteLength":924120,"target":34962},{"buffer":0,"byteOffset":1848240,"byteLength":616080,"target":34962},{"buffer":0,"byteOffset":2464320,"byteLength":924120,"target":34962},{"buffer":0,"byteOffset":3388440,"byteLength":924120,"target":34962},{"buffer":0,"byteOffset":4312560,"byteLength":924120,"target":34962},{"buffer":0,"byteOffset":5236680,"byteLength":924120,"target":34962},{"buffer":0,"byteOffset":6160800,"byteLength":308040,"target":34962},{"buffer":0,"byteOffset":6468840,"byteLength":158160,"target":34963},{"buffer":0,"byteOffset":6627000,"byteLength":4536,"target":34963},{"buffer":0,"byteOffset":6631536,"byteLength":3024,"target":34963},{"buffer":0,"byteOffset":6634560,"byteLength":140304,"target":34963},{"buffer":0,"byteOffset":6774864,"byteLength":1344,"target":34963},{"buffer":0,"byteOffset":6776208,"byteLength":576,"target":34963},{"buffer":0,"byteOffset":6776784,"byteLength":96,"target":34963}],"accessors":[{"bufferView":0,"componentType":5126,"count":77010,"type":"VEC3","min":[737.4840087890625,3.0535483360290527,38.48400115966797],"max":[787.5159912109375,15.018548011779785,78.9000015258789]},{"bufferView":1,"componentType":5126,"count":77010,"type":"VEC3"},{"bufferView":2,"componentType":5126,"count":77010,"type":"VEC2"},{"bufferView":3,"componentType":5126,"count":77010,"type":"VEC3"},{"bufferView":4,"componentType":5126,"count":77010,"type":"VEC3"},{"bufferView":5,"componentType":5126,"count":77010,"type":"VEC3"},{"bufferView":6,"componentType":5126,"count":77010,"type":"VEC3"},{"bufferView":7,"componentType":5126,"count":77010,"type":"SCALAR"},{"bufferView":8,"componentType":5125,"count":39540,"type":"SCALAR"},{"bufferView":9,"componentType":5125,"count":1134,"type":"SCALAR"},{"bufferView":10,"componentType":5125,"count":756,"type":"SCALAR"},{"bufferView":11,"componentType":5125,"count":35076,"type":"SCALAR"},{"bufferView":12,"componentType":5125,"count":336,"type":"SCALAR"},{"bufferView":13,"componentType":5125,"count":144,"type":"SCALAR"},{"bufferView":14,"componentType":5125,"count":24,"type":"SCALAR"}],"materials":[{"name":"legacy-material-18","pbrMetallicRoughness":{"baseColorFactor":[1,1,1,1],"metallicFactor":0,"roughnessFactor":1},"doubleSided":true,"extras":{"legacyMaterial":18,"legacyShader":"dist/renderer-gl.js","limitation":"Browser procedural material not implemented by this glTF export; source/base attributes retained."}},{"name":"legacy-material-5","pbrMetallicRoughness":{"baseColorFactor":[1,1,1,1],"metallicFactor":0,"roughnessFactor":1},"doubleSided":true,"extras":{"legacyMaterial":5,"legacyShader":"dist/renderer-gl.js","limitation":"Browser procedural material not implemented by this glTF export; source/base attributes retained."}},{"name":"legacy-material-7","pbrMetallicRoughness":{"baseColorFactor":[1,1,1,1],"metallicFactor":0,"roughnessFactor":1},"doubleSided":true,"extras":{"legacyMaterial":7,"legacyShader":"dist/renderer-gl.js","limitation":"Browser procedural material not implemented by this glTF export; source/base attributes retained."}},{"name":"legacy-material-17","pbrMetallicRoughness":{"baseColorFactor":[1,1,1,1],"metallicFactor":0,"roughnessFactor":1},"doubleSided":true,"extras":{"legacyMaterial":17,"legacyShader":"dist/renderer-gl.js","limitation":"Browser procedural material not implemented by this glTF export; source/base attributes retained."}},{"name":"legacy-material-6","pbrMetallicRoughness":{"baseColorFactor":[1,1,1,1],"metallicFactor":0,"roughnessFactor":1},"doubleSided":true,"extras":{"legacyMaterial":6,"legacyShader":"dist/renderer-gl.js","limitation":"Browser procedural material not implemented by this glTF export; source/base attributes retained."}},{"name":"legacy-material-20","pbrMetallicRoughness":{"baseColorFactor":[1,1,1,1],"metallicFactor":0,"roughnessFactor":1,"baseColorTexture":{"index":0}},"doubleSided":true,"extras":{"legacyMaterial":20,"legacyShader":"dist/renderer-gl.js"}},{"name":"legacy-material-13","pbrMetallicRoughness":{"baseColorFactor":[1,1,1,1],"metallicFactor":0,"roughnessFactor":1},"doubleSided":true,"extras":{"legacyMaterial":13,"legacyShader":"dist/renderer-gl.js","limitation":"Browser procedural material not implemented by this glTF export; source/base attributes retained."}}],"extras":{"veldrenAssetId":"veldren:world-part:13e5304fcd821c527530ff2b10e84b3679d4bf8ef2563a87f4437f62c1e334e0"},"images":[{"name":"atlas-00","uri":"../../textures/atlas/tile-00.png"}],"textures":[{"source":0,"sampler":0}],"samplers":[{"magFilter":9729,"minFilter":9729,"wrapS":10497,"wrapT":10497}],"buffers":[{"uri":"13e5304fcd821c527530ff2b10e84b3679d4bf8ef2563a87f4437f62c1e334e0.bin","byteLength":6776880}]}
