{"asset":{"version":"2.0","generator":"Veldren adapted asset recovery"},"scene":0,"scenes":[{"nodes":[0]}],"nodes":[{"name":"16524582eafb83d26d8f713d3d4bb17711a3d6a388a913eda17f0f140f1d798e","mesh":0}],"meshes":[{"name":"16524582eafb83d26d8f713d3d4bb17711a3d6a388a913eda17f0f140f1d798e","primitives":[{"attributes":{"POSITION":0,"NORMAL":1,"TEXCOORD_0":2,"COLOR_0":3,"_VELDREN_NORMAL":4,"_VELDREN_COLOR":5,"_VELDREN_FALLBACK":6,"_VELDREN_MATERIAL":7},"indices":8,"material":0,"extras":{"mixedAtlasFallback":false}},{"attributes":{"POSITION":0,"NORMAL":1,"TEXCOORD_0":2,"COLOR_0":3,"_VELDREN_NORMAL":4,"_VELDREN_COLOR":5,"_VELDREN_FALLBACK":6,"_VELDREN_MATERIAL":7},"indices":9,"material":1,"extras":{"mixedAtlasFallback":false}},{"attributes":{"POSITION":0,"NORMAL":1,"TEXCOORD_0":2,"COLOR_0":3,"_VELDREN_NORMAL":4,"_VELDREN_COLOR":5,"_VELDREN_FALLBACK":6,"_VELDREN_MATERIAL":7},"indices":10,"material":2,"extras":{"mixedAtlasFallback":false}},{"attributes":{"POSITION":0,"NORMAL":1,"TEXCOORD_0":2,"COLOR_0":3,"_VELDREN_NORMAL":4,"_VELDREN_COLOR":5,"_VELDREN_FALLBACK":6,"_VELDREN_MATERIAL":7},"indices":11,"material":3,"extras":{"mixedAtlasFallback":false}},{"attributes":{"POSITION":0,"NORMAL":1,"TEXCOORD_0":2,"COLOR_0":3,"_VELDREN_NORMAL":4,"_VELDREN_COLOR":5,"_VELDREN_FALLBACK":6,"_VELDREN_MATERIAL":7},"indices":12,"material":4,"extras":{"mixedAtlasFallback":false}},{"attributes":{"POSITION":0,"NORMAL":1,"TEXCOORD_0":2,"COLOR_0":3,"_VELDREN_NORMAL":4,"_VELDREN_COLOR":5,"_VELDREN_FALLBACK":6,"_VELDREN_MATERIAL":7},"indices":13,"material":5,"extras":{"mixedAtlasFallback":false}}]}],"bufferViews":[{"buffer":0,"byteOffset":0,"byteLength":100440,"target":34962},{"buffer":0,"byteOffset":100440,"byteLength":100440,"target":34962},{"buffer":0,"byteOffset":200880,"byteLength":66960,"target":34962},{"buffer":0,"byteOffset":267840,"byteLength":100440,"target":34962},{"buffer":0,"byteOffset":368280,"byteLength":100440,"target":34962},{"buffer":0,"byteOffset":468720,"byteLength":100440,"target":34962},{"buffer":0,"byteOffset":569160,"byteLength":100440,"target":34962},{"buffer":0,"byteOffset":669600,"byteLength":33480,"target":34962},{"buffer":0,"byteOffset":703080,"byteLength":15264,"target":34963},{"buffer":0,"byteOffset":718344,"byteLength":192,"target":34963},{"buffer":0,"byteOffset":718536,"byteLength":6048,"target":34963},{"buffer":0,"byteOffset":724584,"byteLength":8832,"target":34963},{"buffer":0,"byteOffset":733416,"byteLength":2568,"target":34963},{"buffer":0,"byteOffset":735984,"byteLength":576,"target":34963}],"accessors":[{"bufferView":0,"componentType":5126,"count":8370,"type":"VEC3","min":[288.489990234375,0.08500000089406967,312.510009765625],"max":[300.510009765625,7.699533462524414,323.47760009765625]},{"bufferView":1,"componentType":5126,"count":8370,"type":"VEC3"},{"bufferView":2,"componentType":5126,"count":8370,"type":"VEC2"},{"bufferView":3,"componentType":5126,"count":8370,"type":"VEC3"},{"bufferView":4,"componentType":5126,"count":8370,"type":"VEC3"},{"bufferView":5,"componentType":5126,"count":8370,"type":"VEC3"},{"bufferView":6,"componentType":5126,"count":8370,"type":"VEC3"},{"bufferView":7,"componentType":5126,"count":8370,"type":"SCALAR"},{"bufferView":8,"componentType":5125,"count":3816,"type":"SCALAR"},{"bufferView":9,"componentType":5125,"count":48,"type":"SCALAR"},{"bufferView":10,"componentType":5125,"count":1512,"type":"SCALAR"},{"bufferView":11,"componentType":5125,"count":2208,"type":"SCALAR"},{"bufferView":12,"componentType":5125,"count":642,"type":"SCALAR"},{"bufferView":13,"componentType":5125,"count":144,"type":"SCALAR"}],"materials":[{"name":"legacy-material-5","pbrMetallicRoughness":{"baseColorFactor":[1,1,1,1],"metallicFactor":0,"roughnessFactor":1},"doubleSided":true,"extras":{"legacyMaterial":5,"legacyShader":"dist/renderer-gl.js","limitation":"Browser procedural material not implemented by this glTF export; source/base attributes retained."}},{"name":"legacy-material-13","pbrMetallicRoughness":{"baseColorFactor":[1,1,1,1],"metallicFactor":0,"roughnessFactor":1},"doubleSided":true,"extras":{"legacyMaterial":13,"legacyShader":"dist/renderer-gl.js","limitation":"Browser procedural material not implemented by this glTF export; source/base attributes retained."}},{"name":"legacy-material-20","pbrMetallicRoughness":{"baseColorFactor":[1,1,1,1],"metallicFactor":0,"roughnessFactor":1,"baseColorTexture":{"index":0}},"doubleSided":true,"extras":{"legacyMaterial":20,"legacyShader":"dist/renderer-gl.js"}},{"name":"legacy-material-17","pbrMetallicRoughness":{"baseColorFactor":[1,1,1,1],"metallicFactor":0,"roughnessFactor":1},"doubleSided":true,"extras":{"legacyMaterial":17,"legacyShader":"dist/renderer-gl.js","limitation":"Browser procedural material not implemented by this glTF export; source/base attributes retained."}},{"name":"legacy-material-7","pbrMetallicRoughness":{"baseColorFactor":[1,1,1,1],"metallicFactor":0,"roughnessFactor":1},"doubleSided":true,"extras":{"legacyMaterial":7,"legacyShader":"dist/renderer-gl.js","limitation":"Browser procedural material not implemented by this glTF export; source/base attributes retained."}},{"name":"legacy-material-6","pbrMetallicRoughness":{"baseColorFactor":[1,1,1,1],"metallicFactor":0,"roughnessFactor":1},"doubleSided":true,"extras":{"legacyMaterial":6,"legacyShader":"dist/renderer-gl.js","limitation":"Browser procedural material not implemented by this glTF export; source/base attributes retained."}}],"extras":{"veldrenAssetId":"veldren:world-part:16524582eafb83d26d8f713d3d4bb17711a3d6a388a913eda17f0f140f1d798e"},"images":[{"name":"atlas-00","uri":"../../textures/atlas/tile-00.png"}],"textures":[{"source":0,"sampler":0}],"samplers":[{"magFilter":9729,"minFilter":9729,"wrapS":10497,"wrapT":10497}],"buffers":[{"uri":"16524582eafb83d26d8f713d3d4bb17711a3d6a388a913eda17f0f140f1d798e.bin","byteLength":736560}]}
