{"asset":{"version":"2.0","generator":"Veldren adapted asset recovery"},"scene":0,"scenes":[{"nodes":[0]}],"nodes":[{"name":"16f6f87bdd15425494638df809d6c24a0b5f614d7f769ac4d1b695d35e727aa9","mesh":0}],"meshes":[{"name":"16f6f87bdd15425494638df809d6c24a0b5f614d7f769ac4d1b695d35e727aa9","primitives":[{"attributes":{"POSITION":0,"NORMAL":1,"TEXCOORD_0":2,"COLOR_0":3,"_VELDREN_NORMAL":4,"_VELDREN_COLOR":5,"_VELDREN_FALLBACK":6,"_VELDREN_MATERIAL":7},"indices":8,"material":0,"extras":{"mixedAtlasFallback":false}},{"attributes":{"POSITION":0,"NORMAL":1,"TEXCOORD_0":2,"COLOR_0":3,"_VELDREN_NORMAL":4,"_VELDREN_COLOR":5,"_VELDREN_FALLBACK":6,"_VELDREN_MATERIAL":7},"indices":9,"material":1,"extras":{"mixedAtlasFallback":false}},{"attributes":{"POSITION":0,"NORMAL":1,"TEXCOORD_0":2,"COLOR_0":3,"_VELDREN_NORMAL":4,"_VELDREN_COLOR":5,"_VELDREN_FALLBACK":6,"_VELDREN_MATERIAL":7},"indices":10,"material":2,"extras":{"mixedAtlasFallback":false}},{"attributes":{"POSITION":0,"NORMAL":1,"TEXCOORD_0":2,"COLOR_0":3,"_VELDREN_NORMAL":4,"_VELDREN_COLOR":5,"_VELDREN_FALLBACK":6,"_VELDREN_MATERIAL":7},"indices":11,"material":3,"extras":{"mixedAtlasFallback":false}},{"attributes":{"POSITION":0,"NORMAL":1,"TEXCOORD_0":2,"COLOR_0":3,"_VELDREN_NORMAL":4,"_VELDREN_COLOR":5,"_VELDREN_FALLBACK":6,"_VELDREN_MATERIAL":7},"indices":12,"material":4,"extras":{"mixedAtlasFallback":false}},{"attributes":{"POSITION":0,"NORMAL":1,"TEXCOORD_0":2,"COLOR_0":3,"_VELDREN_NORMAL":4,"_VELDREN_COLOR":5,"_VELDREN_FALLBACK":6,"_VELDREN_MATERIAL":7},"indices":13,"material":5,"extras":{"mixedAtlasFallback":false}}]}],"bufferViews":[{"buffer":0,"byteOffset":0,"byteLength":55152,"target":34962},{"buffer":0,"byteOffset":55152,"byteLength":55152,"target":34962},{"buffer":0,"byteOffset":110304,"byteLength":36768,"target":34962},{"buffer":0,"byteOffset":147072,"byteLength":55152,"target":34962},{"buffer":0,"byteOffset":202224,"byteLength":55152,"target":34962},{"buffer":0,"byteOffset":257376,"byteLength":55152,"target":34962},{"buffer":0,"byteOffset":312528,"byteLength":55152,"target":34962},{"buffer":0,"byteOffset":367680,"byteLength":18384,"target":34962},{"buffer":0,"byteOffset":386064,"byteLength":3456,"target":34963},{"buffer":0,"byteOffset":389520,"byteLength":192,"target":34963},{"buffer":0,"byteOffset":389712,"byteLength":12240,"target":34963},{"buffer":0,"byteOffset":401952,"byteLength":192,"target":34963},{"buffer":0,"byteOffset":402144,"byteLength":576,"target":34963},{"buffer":0,"byteOffset":402720,"byteLength":1728,"target":34963}],"accessors":[{"bufferView":0,"componentType":5126,"count":4596,"type":"VEC3","min":[684.489990234375,6.096646308898926,291.510009765625],"max":[696.510009765625,12.801979064941406,302.47760009765625]},{"bufferView":1,"componentType":5126,"count":4596,"type":"VEC3"},{"bufferView":2,"componentType":5126,"count":4596,"type":"VEC2"},{"bufferView":3,"componentType":5126,"count":4596,"type":"VEC3"},{"bufferView":4,"componentType":5126,"count":4596,"type":"VEC3"},{"bufferView":5,"componentType":5126,"count":4596,"type":"VEC3"},{"bufferView":6,"componentType":5126,"count":4596,"type":"VEC3"},{"bufferView":7,"componentType":5126,"count":4596,"type":"SCALAR"},{"bufferView":8,"componentType":5125,"count":864,"type":"SCALAR"},{"bufferView":9,"componentType":5125,"count":48,"type":"SCALAR"},{"bufferView":10,"componentType":5125,"count":3060,"type":"SCALAR"},{"bufferView":11,"componentType":5125,"count":48,"type":"SCALAR"},{"bufferView":12,"componentType":5125,"count":144,"type":"SCALAR"},{"bufferView":13,"componentType":5125,"count":432,"type":"SCALAR"}],"materials":[{"name":"legacy-material-5","pbrMetallicRoughness":{"baseColorFactor":[1,1,1,1],"metallicFactor":0,"roughnessFactor":1},"doubleSided":true,"extras":{"legacyMaterial":5,"legacyShader":"dist/renderer-gl.js","limitation":"Browser procedural material not implemented by this glTF export; source/base attributes retained."}},{"name":"legacy-material-13","pbrMetallicRoughness":{"baseColorFactor":[1,1,1,1],"metallicFactor":0,"roughnessFactor":1},"doubleSided":true,"extras":{"legacyMaterial":13,"legacyShader":"dist/renderer-gl.js","limitation":"Browser procedural material not implemented by this glTF export; source/base attributes retained."}},{"name":"legacy-material-17","pbrMetallicRoughness":{"baseColorFactor":[1,1,1,1],"metallicFactor":0,"roughnessFactor":1},"doubleSided":true,"extras":{"legacyMaterial":17,"legacyShader":"dist/renderer-gl.js","limitation":"Browser procedural material not implemented by this glTF export; source/base attributes retained."}},{"name":"legacy-material-6","pbrMetallicRoughness":{"baseColorFactor":[1,1,1,1],"metallicFactor":0,"roughnessFactor":1},"doubleSided":true,"extras":{"legacyMaterial":6,"legacyShader":"dist/renderer-gl.js","limitation":"Browser procedural material not implemented by this glTF export; source/base attributes retained."}},{"name":"legacy-material-18","pbrMetallicRoughness":{"baseColorFactor":[1,1,1,1],"metallicFactor":0,"roughnessFactor":1},"doubleSided":true,"extras":{"legacyMaterial":18,"legacyShader":"dist/renderer-gl.js","limitation":"Browser procedural material not implemented by this glTF export; source/base attributes retained."}},{"name":"legacy-material-20","pbrMetallicRoughness":{"baseColorFactor":[1,1,1,1],"metallicFactor":0,"roughnessFactor":1,"baseColorTexture":{"index":0}},"doubleSided":true,"extras":{"legacyMaterial":20,"legacyShader":"dist/renderer-gl.js"}}],"extras":{"veldrenAssetId":"veldren:world-part:16f6f87bdd15425494638df809d6c24a0b5f614d7f769ac4d1b695d35e727aa9"},"images":[{"name":"atlas-00","uri":"../../textures/atlas/tile-00.png"}],"textures":[{"source":0,"sampler":0}],"samplers":[{"magFilter":9729,"minFilter":9729,"wrapS":10497,"wrapT":10497}],"buffers":[{"uri":"16f6f87bdd15425494638df809d6c24a0b5f614d7f769ac4d1b695d35e727aa9.bin","byteLength":404448}]}
