{"asset":{"version":"2.0","generator":"Veldren adapted asset recovery"},"scene":0,"scenes":[{"nodes":[0]}],"nodes":[{"name":"190836a5a05cd2db9b1c8844f8432f41f0403d878d66602a954f80a27c694e5e","mesh":0}],"meshes":[{"name":"190836a5a05cd2db9b1c8844f8432f41f0403d878d66602a954f80a27c694e5e","primitives":[{"attributes":{"POSITION":0,"NORMAL":1,"TEXCOORD_0":2,"COLOR_0":3,"_VELDREN_NORMAL":4,"_VELDREN_COLOR":5,"_VELDREN_FALLBACK":6,"_VELDREN_MATERIAL":7},"indices":8,"material":0,"extras":{"mixedAtlasFallback":false}}]}],"bufferViews":[{"buffer":0,"byteOffset":0,"byteLength":2484,"target":34962},{"buffer":0,"byteOffset":2484,"byteLength":2484,"target":34962},{"buffer":0,"byteOffset":4968,"byteLength":1656,"target":34962},{"buffer":0,"byteOffset":6624,"byteLength":2484,"target":34962},{"buffer":0,"byteOffset":9108,"byteLength":2484,"target":34962},{"buffer":0,"byteOffset":11592,"byteLength":2484,"target":34962},{"buffer":0,"byteOffset":14076,"byteLength":2484,"target":34962},{"buffer":0,"byteOffset":16560,"byteLength":828,"target":34962},{"buffer":0,"byteOffset":17388,"byteLength":828,"target":34963}],"accessors":[{"bufferView":0,"componentType":5126,"count":207,"type":"VEC3","min":[-0.5464262962341309,0.014999999664723873,-0.42896828055381775],"max":[0.5409427285194397,0.5899999737739563,0.42896828055381775]},{"bufferView":1,"componentType":5126,"count":207,"type":"VEC3"},{"bufferView":2,"componentType":5126,"count":207,"type":"VEC2"},{"bufferView":3,"componentType":5126,"count":207,"type":"VEC3"},{"bufferView":4,"componentType":5126,"count":207,"type":"VEC3"},{"bufferView":5,"componentType":5126,"count":207,"type":"VEC3"},{"bufferView":6,"componentType":5126,"count":207,"type":"VEC3"},{"bufferView":7,"componentType":5126,"count":207,"type":"SCALAR"},{"bufferView":8,"componentType":5125,"count":207,"type":"SCALAR"}],"materials":[{"name":"legacy-material-12","pbrMetallicRoughness":{"baseColorFactor":[1,1,1,1],"metallicFactor":0,"roughnessFactor":1},"doubleSided":true,"extras":{"legacyMaterial":12,"legacyShader":"dist/renderer-gl.js","limitation":"Browser procedural material not implemented by this glTF export; source/base attributes retained."}}],"extras":{"veldrenAssetId":"veldren:world-part:190836a5a05cd2db9b1c8844f8432f41f0403d878d66602a954f80a27c694e5e"},"buffers":[{"uri":"190836a5a05cd2db9b1c8844f8432f41f0403d878d66602a954f80a27c694e5e.bin","byteLength":18216}]}
