{"asset":{"version":"2.0","generator":"Veldren adapted asset recovery"},"scene":0,"scenes":[{"nodes":[0]}],"nodes":[{"name":"1a18c99bb8c96c97e3e58866b2154025b068b33e663422a73bca82cb5db5703f","mesh":0}],"meshes":[{"name":"1a18c99bb8c96c97e3e58866b2154025b068b33e663422a73bca82cb5db5703f","primitives":[{"attributes":{"POSITION":0,"NORMAL":1,"TEXCOORD_0":2,"COLOR_0":3,"_VELDREN_NORMAL":4,"_VELDREN_COLOR":5,"_VELDREN_FALLBACK":6,"_VELDREN_MATERIAL":7},"indices":8,"material":0,"extras":{"mixedAtlasFallback":false}},{"attributes":{"POSITION":0,"NORMAL":1,"TEXCOORD_0":2,"COLOR_0":3,"_VELDREN_NORMAL":4,"_VELDREN_COLOR":5,"_VELDREN_FALLBACK":6,"_VELDREN_MATERIAL":7},"indices":9,"material":1,"extras":{"mixedAtlasFallback":false}}]}],"bufferViews":[{"buffer":0,"byteOffset":0,"byteLength":9540,"target":34962},{"buffer":0,"byteOffset":9540,"byteLength":9540,"target":34962},{"buffer":0,"byteOffset":19080,"byteLength":6360,"target":34962},{"buffer":0,"byteOffset":25440,"byteLength":9540,"target":34962},{"buffer":0,"byteOffset":34980,"byteLength":9540,"target":34962},{"buffer":0,"byteOffset":44520,"byteLength":9540,"target":34962},{"buffer":0,"byteOffset":54060,"byteLength":9540,"target":34962},{"buffer":0,"byteOffset":63600,"byteLength":3180,"target":34962},{"buffer":0,"byteOffset":66780,"byteLength":2796,"target":34963},{"buffer":0,"byteOffset":69576,"byteLength":384,"target":34963}],"accessors":[{"bufferView":0,"componentType":5126,"count":795,"type":"VEC3","min":[16.17565155029297,0.0,58.18577194213867],"max":[16.860000610351562,1.25,58.80710220336914]},{"bufferView":1,"componentType":5126,"count":795,"type":"VEC3"},{"bufferView":2,"componentType":5126,"count":795,"type":"VEC2"},{"bufferView":3,"componentType":5126,"count":795,"type":"VEC3"},{"bufferView":4,"componentType":5126,"count":795,"type":"VEC3"},{"bufferView":5,"componentType":5126,"count":795,"type":"VEC3"},{"bufferView":6,"componentType":5126,"count":795,"type":"VEC3"},{"bufferView":7,"componentType":5126,"count":795,"type":"SCALAR"},{"bufferView":8,"componentType":5125,"count":699,"type":"SCALAR"},{"bufferView":9,"componentType":5125,"count":96,"type":"SCALAR"}],"materials":[{"name":"legacy-material-20","pbrMetallicRoughness":{"baseColorFactor":[1,1,1,1],"metallicFactor":0,"roughnessFactor":1,"baseColorTexture":{"index":0}},"doubleSided":true,"extras":{"legacyMaterial":20,"legacyShader":"dist/renderer-gl.js"}},{"name":"legacy-material-19","pbrMetallicRoughness":{"baseColorFactor":[1,1,1,1],"metallicFactor":0,"roughnessFactor":1},"doubleSided":true,"extras":{"legacyMaterial":19,"legacyShader":"dist/renderer-gl.js","limitation":"Browser procedural material not implemented by this glTF export; source/base attributes retained."}}],"extras":{"veldrenAssetId":"veldren:world-part:1a18c99bb8c96c97e3e58866b2154025b068b33e663422a73bca82cb5db5703f"},"images":[{"name":"atlas-00","uri":"../../textures/atlas/tile-00.png"}],"textures":[{"source":0,"sampler":0}],"samplers":[{"magFilter":9729,"minFilter":9729,"wrapS":10497,"wrapT":10497}],"buffers":[{"uri":"1a18c99bb8c96c97e3e58866b2154025b068b33e663422a73bca82cb5db5703f.bin","byteLength":69960}]}
