{"asset":{"version":"2.0","generator":"Veldren adapted asset recovery"},"scene":0,"scenes":[{"nodes":[0]}],"nodes":[{"name":"1baadcfcbf00e0b06154296be4bff518d0f1d751a7aae25922816476adf85ce8","mesh":0}],"meshes":[{"name":"1baadcfcbf00e0b06154296be4bff518d0f1d751a7aae25922816476adf85ce8","primitives":[{"attributes":{"POSITION":0,"NORMAL":1,"TEXCOORD_0":2,"COLOR_0":3,"_VELDREN_NORMAL":4,"_VELDREN_COLOR":5,"_VELDREN_FALLBACK":6,"_VELDREN_MATERIAL":7},"indices":8,"material":0,"extras":{"mixedAtlasFallback":false}},{"attributes":{"POSITION":0,"NORMAL":1,"TEXCOORD_0":2,"COLOR_0":3,"_VELDREN_NORMAL":4,"_VELDREN_COLOR":5,"_VELDREN_FALLBACK":6,"_VELDREN_MATERIAL":7},"indices":9,"material":1,"extras":{"mixedAtlasFallback":false}}]}],"bufferViews":[{"buffer":0,"byteOffset":0,"byteLength":16560,"target":34962},{"buffer":0,"byteOffset":16560,"byteLength":16560,"target":34962},{"buffer":0,"byteOffset":33120,"byteLength":11040,"target":34962},{"buffer":0,"byteOffset":44160,"byteLength":16560,"target":34962},{"buffer":0,"byteOffset":60720,"byteLength":16560,"target":34962},{"buffer":0,"byteOffset":77280,"byteLength":16560,"target":34962},{"buffer":0,"byteOffset":93840,"byteLength":16560,"target":34962},{"buffer":0,"byteOffset":110400,"byteLength":5520,"target":34962},{"buffer":0,"byteOffset":115920,"byteLength":1968,"target":34963},{"buffer":0,"byteOffset":117888,"byteLength":14448,"target":34963}],"accessors":[{"bufferView":0,"componentType":5126,"count":1380,"type":"VEC3","min":[-1.009548306465149,0.00017460077651776373,-0.5147912502288818],"max":[1.009548544883728,0.8948198556900024,0.5094448328018188]},{"bufferView":1,"componentType":5126,"count":1380,"type":"VEC3"},{"bufferView":2,"componentType":5126,"count":1380,"type":"VEC2"},{"bufferView":3,"componentType":5126,"count":1380,"type":"VEC3"},{"bufferView":4,"componentType":5126,"count":1380,"type":"VEC3"},{"bufferView":5,"componentType":5126,"count":1380,"type":"VEC3"},{"bufferView":6,"componentType":5126,"count":1380,"type":"VEC3"},{"bufferView":7,"componentType":5126,"count":1380,"type":"SCALAR"},{"bufferView":8,"componentType":5125,"count":492,"type":"SCALAR"},{"bufferView":9,"componentType":5125,"count":3612,"type":"SCALAR"}],"materials":[{"name":"legacy-material-43","pbrMetallicRoughness":{"baseColorFactor":[1,1,1,1],"metallicFactor":0,"roughnessFactor":1,"baseColorTexture":{"index":0}},"doubleSided":true,"extras":{"legacyMaterial":43,"legacyShader":"dist/renderer-gl.js"}},{"name":"legacy-material-42","pbrMetallicRoughness":{"baseColorFactor":[1,1,1,1],"metallicFactor":0,"roughnessFactor":1,"baseColorTexture":{"index":1}},"doubleSided":true,"extras":{"legacyMaterial":42,"legacyShader":"dist/renderer-gl.js"}}],"extras":{"veldrenAssetId":"veldren:world-part:1baadcfcbf00e0b06154296be4bff518d0f1d751a7aae25922816476adf85ce8"},"images":[{"name":"atlas-23","uri":"../../textures/atlas/tile-23.png"},{"name":"atlas-22","uri":"../../textures/atlas/tile-22.png"}],"textures":[{"source":0,"sampler":0},{"source":1,"sampler":0}],"samplers":[{"magFilter":9729,"minFilter":9729,"wrapS":10497,"wrapT":10497}],"buffers":[{"uri":"1baadcfcbf00e0b06154296be4bff518d0f1d751a7aae25922816476adf85ce8.bin","byteLength":132336}]}
