{"asset":{"version":"2.0","generator":"Veldren adapted asset recovery"},"scene":0,"scenes":[{"nodes":[0]}],"nodes":[{"name":"1bc13eb4c8470362bc2af76898641aac7a210513563cd135595760a8e3c4af6c","mesh":0}],"meshes":[{"name":"1bc13eb4c8470362bc2af76898641aac7a210513563cd135595760a8e3c4af6c","primitives":[{"attributes":{"POSITION":0,"NORMAL":1,"TEXCOORD_0":2,"COLOR_0":3,"_VELDREN_NORMAL":4,"_VELDREN_COLOR":5,"_VELDREN_FALLBACK":6,"_VELDREN_MATERIAL":7},"indices":8,"material":0,"extras":{"mixedAtlasFallback":false}}]}],"bufferViews":[{"buffer":0,"byteOffset":0,"byteLength":2736,"target":34962},{"buffer":0,"byteOffset":2736,"byteLength":2736,"target":34962},{"buffer":0,"byteOffset":5472,"byteLength":1824,"target":34962},{"buffer":0,"byteOffset":7296,"byteLength":2736,"target":34962},{"buffer":0,"byteOffset":10032,"byteLength":2736,"target":34962},{"buffer":0,"byteOffset":12768,"byteLength":2736,"target":34962},{"buffer":0,"byteOffset":15504,"byteLength":2736,"target":34962},{"buffer":0,"byteOffset":18240,"byteLength":912,"target":34962},{"buffer":0,"byteOffset":19152,"byteLength":912,"target":34963}],"accessors":[{"bufferView":0,"componentType":5126,"count":228,"type":"VEC3","min":[794.8250122070312,3.1921796798706055,83.11000061035156],"max":[796.1749877929688,4.0621795654296875,83.88999938964844]},{"bufferView":1,"componentType":5126,"count":228,"type":"VEC3"},{"bufferView":2,"componentType":5126,"count":228,"type":"VEC2"},{"bufferView":3,"componentType":5126,"count":228,"type":"VEC3"},{"bufferView":4,"componentType":5126,"count":228,"type":"VEC3"},{"bufferView":5,"componentType":5126,"count":228,"type":"VEC3"},{"bufferView":6,"componentType":5126,"count":228,"type":"VEC3"},{"bufferView":7,"componentType":5126,"count":228,"type":"SCALAR"},{"bufferView":8,"componentType":5125,"count":228,"type":"SCALAR"}],"materials":[{"name":"legacy-material-18","pbrMetallicRoughness":{"baseColorFactor":[1,1,1,1],"metallicFactor":0,"roughnessFactor":1},"doubleSided":true,"extras":{"legacyMaterial":18,"legacyShader":"dist/renderer-gl.js","limitation":"Browser procedural material not implemented by this glTF export; source/base attributes retained."}}],"extras":{"veldrenAssetId":"veldren:world-part:1bc13eb4c8470362bc2af76898641aac7a210513563cd135595760a8e3c4af6c"},"buffers":[{"uri":"1bc13eb4c8470362bc2af76898641aac7a210513563cd135595760a8e3c4af6c.bin","byteLength":20064}]}
