{"asset":{"version":"2.0","generator":"Veldren adapted asset recovery"},"scene":0,"scenes":[{"nodes":[0]}],"nodes":[{"name":"1c239deb1da902e8677f472f243168f026345d98405db7a5c71eb1affa6e120a","mesh":0}],"meshes":[{"name":"1c239deb1da902e8677f472f243168f026345d98405db7a5c71eb1affa6e120a","primitives":[{"attributes":{"POSITION":0,"NORMAL":1,"TEXCOORD_0":2,"COLOR_0":3,"_VELDREN_NORMAL":4,"_VELDREN_COLOR":5,"_VELDREN_FALLBACK":6,"_VELDREN_MATERIAL":7},"indices":8,"material":0,"extras":{"mixedAtlasFallback":false}},{"attributes":{"POSITION":0,"NORMAL":1,"TEXCOORD_0":2,"COLOR_0":3,"_VELDREN_NORMAL":4,"_VELDREN_COLOR":5,"_VELDREN_FALLBACK":6,"_VELDREN_MATERIAL":7},"indices":9,"material":1,"extras":{"mixedAtlasFallback":false}},{"attributes":{"POSITION":0,"NORMAL":1,"TEXCOORD_0":2,"COLOR_0":3,"_VELDREN_NORMAL":4,"_VELDREN_COLOR":5,"_VELDREN_FALLBACK":6,"_VELDREN_MATERIAL":7},"indices":10,"material":2,"extras":{"mixedAtlasFallback":false}},{"attributes":{"POSITION":0,"NORMAL":1,"TEXCOORD_0":2,"COLOR_0":3,"_VELDREN_NORMAL":4,"_VELDREN_COLOR":5,"_VELDREN_FALLBACK":6,"_VELDREN_MATERIAL":7},"indices":11,"material":3,"extras":{"mixedAtlasFallback":false}},{"attributes":{"POSITION":0,"NORMAL":1,"TEXCOORD_0":2,"COLOR_0":3,"_VELDREN_NORMAL":4,"_VELDREN_COLOR":5,"_VELDREN_FALLBACK":6,"_VELDREN_MATERIAL":7},"indices":12,"material":4,"extras":{"mixedAtlasFallback":false}},{"attributes":{"POSITION":0,"NORMAL":1,"TEXCOORD_0":2,"COLOR_0":3,"_VELDREN_NORMAL":4,"_VELDREN_COLOR":5,"_VELDREN_FALLBACK":6,"_VELDREN_MATERIAL":7},"indices":13,"material":5,"extras":{"mixedAtlasFallback":false}}]}],"bufferViews":[{"buffer":0,"byteOffset":0,"byteLength":121104,"target":34962},{"buffer":0,"byteOffset":121104,"byteLength":121104,"target":34962},{"buffer":0,"byteOffset":242208,"byteLength":80736,"target":34962},{"buffer":0,"byteOffset":322944,"byteLength":121104,"target":34962},{"buffer":0,"byteOffset":444048,"byteLength":121104,"target":34962},{"buffer":0,"byteOffset":565152,"byteLength":121104,"target":34962},{"buffer":0,"byteOffset":686256,"byteLength":121104,"target":34962},{"buffer":0,"byteOffset":807360,"byteLength":40368,"target":34962},{"buffer":0,"byteOffset":847728,"byteLength":17472,"target":34963},{"buffer":0,"byteOffset":865200,"byteLength":72,"target":34963},{"buffer":0,"byteOffset":865272,"byteLength":8064,"target":34963},{"buffer":0,"byteOffset":873336,"byteLength":11520,"target":34963},{"buffer":0,"byteOffset":884856,"byteLength":2664,"target":34963},{"buffer":0,"byteOffset":887520,"byteLength":576,"target":34963}],"accessors":[{"bufferView":0,"componentType":5126,"count":10092,"type":"VEC3","min":[362.510009765625,2.5762603282928467,161.49000549316406],"max":[375.47760009765625,7.8965744972229,175.50999450683594]},{"bufferView":1,"componentType":5126,"count":10092,"type":"VEC3"},{"bufferView":2,"componentType":5126,"count":10092,"type":"VEC2"},{"bufferView":3,"componentType":5126,"count":10092,"type":"VEC3"},{"bufferView":4,"componentType":5126,"count":10092,"type":"VEC3"},{"bufferView":5,"componentType":5126,"count":10092,"type":"VEC3"},{"bufferView":6,"componentType":5126,"count":10092,"type":"VEC3"},{"bufferView":7,"componentType":5126,"count":10092,"type":"SCALAR"},{"bufferView":8,"componentType":5125,"count":4368,"type":"SCALAR"},{"bufferView":9,"componentType":5125,"count":18,"type":"SCALAR"},{"bufferView":10,"componentType":5125,"count":2016,"type":"SCALAR"},{"bufferView":11,"componentType":5125,"count":2880,"type":"SCALAR"},{"bufferView":12,"componentType":5125,"count":666,"type":"SCALAR"},{"bufferView":13,"componentType":5125,"count":144,"type":"SCALAR"}],"materials":[{"name":"legacy-material-5","pbrMetallicRoughness":{"baseColorFactor":[1,1,1,1],"metallicFactor":0,"roughnessFactor":1},"doubleSided":true,"extras":{"legacyMaterial":5,"legacyShader":"dist/renderer-gl.js","limitation":"Browser procedural material not implemented by this glTF export; source/base attributes retained."}},{"name":"legacy-material-13","pbrMetallicRoughness":{"baseColorFactor":[1,1,1,1],"metallicFactor":0,"roughnessFactor":1},"doubleSided":true,"extras":{"legacyMaterial":13,"legacyShader":"dist/renderer-gl.js","limitation":"Browser procedural material not implemented by this glTF export; source/base attributes retained."}},{"name":"legacy-material-20","pbrMetallicRoughness":{"baseColorFactor":[1,1,1,1],"metallicFactor":0,"roughnessFactor":1,"baseColorTexture":{"index":0}},"doubleSided":true,"extras":{"legacyMaterial":20,"legacyShader":"dist/renderer-gl.js"}},{"name":"legacy-material-17","pbrMetallicRoughness":{"baseColorFactor":[1,1,1,1],"metallicFactor":0,"roughnessFactor":1},"doubleSided":true,"extras":{"legacyMaterial":17,"legacyShader":"dist/renderer-gl.js","limitation":"Browser procedural material not implemented by this glTF export; source/base attributes retained."}},{"name":"legacy-material-7","pbrMetallicRoughness":{"baseColorFactor":[1,1,1,1],"metallicFactor":0,"roughnessFactor":1},"doubleSided":true,"extras":{"legacyMaterial":7,"legacyShader":"dist/renderer-gl.js","limitation":"Browser procedural material not implemented by this glTF export; source/base attributes retained."}},{"name":"legacy-material-6","pbrMetallicRoughness":{"baseColorFactor":[1,1,1,1],"metallicFactor":0,"roughnessFactor":1},"doubleSided":true,"extras":{"legacyMaterial":6,"legacyShader":"dist/renderer-gl.js","limitation":"Browser procedural material not implemented by this glTF export; source/base attributes retained."}}],"extras":{"veldrenAssetId":"veldren:world-part:1c239deb1da902e8677f472f243168f026345d98405db7a5c71eb1affa6e120a"},"images":[{"name":"atlas-00","uri":"../../textures/atlas/tile-00.png"}],"textures":[{"source":0,"sampler":0}],"samplers":[{"magFilter":9729,"minFilter":9729,"wrapS":10497,"wrapT":10497}],"buffers":[{"uri":"1c239deb1da902e8677f472f243168f026345d98405db7a5c71eb1affa6e120a.bin","byteLength":888096}]}
