{"asset":{"version":"2.0","generator":"Veldren adapted asset recovery"},"scene":0,"scenes":[{"nodes":[0]}],"nodes":[{"name":"1f7416da9fb55b4744e69d48ce26911a903332abddb1946bc3f9f1cd1766d723","mesh":0}],"meshes":[{"name":"1f7416da9fb55b4744e69d48ce26911a903332abddb1946bc3f9f1cd1766d723","primitives":[{"attributes":{"POSITION":0,"NORMAL":1,"TEXCOORD_0":2,"COLOR_0":3,"_VELDREN_NORMAL":4,"_VELDREN_COLOR":5,"_VELDREN_FALLBACK":6,"_VELDREN_MATERIAL":7},"indices":8,"material":0,"extras":{"mixedAtlasFallback":false}}]}],"bufferViews":[{"buffer":0,"byteOffset":0,"byteLength":2160,"target":34962},{"buffer":0,"byteOffset":2160,"byteLength":2160,"target":34962},{"buffer":0,"byteOffset":4320,"byteLength":1440,"target":34962},{"buffer":0,"byteOffset":5760,"byteLength":2160,"target":34962},{"buffer":0,"byteOffset":7920,"byteLength":2160,"target":34962},{"buffer":0,"byteOffset":10080,"byteLength":2160,"target":34962},{"buffer":0,"byteOffset":12240,"byteLength":2160,"target":34962},{"buffer":0,"byteOffset":14400,"byteLength":720,"target":34962},{"buffer":0,"byteOffset":15120,"byteLength":2064,"target":34963}],"accessors":[{"bufferView":0,"componentType":5126,"count":180,"type":"VEC3","min":[-0.16652752459049225,-0.0007553889881819487,-0.16846604645252228],"max":[0.16675134003162384,0.01940305158495903,0.16846609115600586]},{"bufferView":1,"componentType":5126,"count":180,"type":"VEC3"},{"bufferView":2,"componentType":5126,"count":180,"type":"VEC2"},{"bufferView":3,"componentType":5126,"count":180,"type":"VEC3"},{"bufferView":4,"componentType":5126,"count":180,"type":"VEC3"},{"bufferView":5,"componentType":5126,"count":180,"type":"VEC3"},{"bufferView":6,"componentType":5126,"count":180,"type":"VEC3"},{"bufferView":7,"componentType":5126,"count":180,"type":"SCALAR"},{"bufferView":8,"componentType":5125,"count":516,"type":"SCALAR"}],"materials":[{"name":"legacy-material-42","pbrMetallicRoughness":{"baseColorFactor":[1,1,1,1],"metallicFactor":0,"roughnessFactor":1,"baseColorTexture":{"index":0}},"doubleSided":true,"extras":{"legacyMaterial":42,"legacyShader":"dist/renderer-gl.js"}}],"extras":{"veldrenAssetId":"veldren:world-part:1f7416da9fb55b4744e69d48ce26911a903332abddb1946bc3f9f1cd1766d723"},"images":[{"name":"atlas-22","uri":"../../textures/atlas/tile-22.png"}],"textures":[{"source":0,"sampler":0}],"samplers":[{"magFilter":9729,"minFilter":9729,"wrapS":10497,"wrapT":10497}],"buffers":[{"uri":"1f7416da9fb55b4744e69d48ce26911a903332abddb1946bc3f9f1cd1766d723.bin","byteLength":17184}]}
