{"asset":{"version":"2.0","generator":"Veldren adapted asset recovery"},"scene":0,"scenes":[{"nodes":[0]}],"nodes":[{"name":"232de22b86e0d741120a2716d6dd91ea9c654813604d9101308ca36257c4f68d","mesh":0}],"meshes":[{"name":"232de22b86e0d741120a2716d6dd91ea9c654813604d9101308ca36257c4f68d","primitives":[{"attributes":{"POSITION":0,"NORMAL":1,"TEXCOORD_0":2,"COLOR_0":3,"_VELDREN_NORMAL":4,"_VELDREN_COLOR":5,"_VELDREN_FALLBACK":6,"_VELDREN_MATERIAL":7},"indices":8,"material":0,"extras":{"mixedAtlasFallback":false}},{"attributes":{"POSITION":0,"NORMAL":1,"TEXCOORD_0":2,"COLOR_0":3,"_VELDREN_NORMAL":4,"_VELDREN_COLOR":5,"_VELDREN_FALLBACK":6,"_VELDREN_MATERIAL":7},"indices":9,"material":1,"extras":{"mixedAtlasFallback":false}},{"attributes":{"POSITION":0,"NORMAL":1,"TEXCOORD_0":2,"COLOR_0":3,"_VELDREN_NORMAL":4,"_VELDREN_COLOR":5,"_VELDREN_FALLBACK":6,"_VELDREN_MATERIAL":7},"indices":10,"material":2,"extras":{"mixedAtlasFallback":false}},{"attributes":{"POSITION":0,"NORMAL":1,"TEXCOORD_0":2,"COLOR_0":3,"_VELDREN_NORMAL":4,"_VELDREN_COLOR":5,"_VELDREN_FALLBACK":6,"_VELDREN_MATERIAL":7},"indices":11,"material":3,"extras":{"mixedAtlasFallback":false}},{"attributes":{"POSITION":0,"NORMAL":1,"TEXCOORD_0":2,"COLOR_0":3,"_VELDREN_NORMAL":4,"_VELDREN_COLOR":5,"_VELDREN_FALLBACK":6,"_VELDREN_MATERIAL":7},"indices":12,"material":4,"extras":{"mixedAtlasFallback":false}},{"attributes":{"POSITION":0,"NORMAL":1,"TEXCOORD_0":2,"COLOR_0":3,"_VELDREN_NORMAL":4,"_VELDREN_COLOR":5,"_VELDREN_FALLBACK":6,"_VELDREN_MATERIAL":7},"indices":13,"material":5,"extras":{"mixedAtlasFallback":false}}]}],"bufferViews":[{"buffer":0,"byteOffset":0,"byteLength":109296,"target":34962},{"buffer":0,"byteOffset":109296,"byteLength":109296,"target":34962},{"buffer":0,"byteOffset":218592,"byteLength":72864,"target":34962},{"buffer":0,"byteOffset":291456,"byteLength":109296,"target":34962},{"buffer":0,"byteOffset":400752,"byteLength":109296,"target":34962},{"buffer":0,"byteOffset":510048,"byteLength":109296,"target":34962},{"buffer":0,"byteOffset":619344,"byteLength":109296,"target":34962},{"buffer":0,"byteOffset":728640,"byteLength":36432,"target":34962},{"buffer":0,"byteOffset":765072,"byteLength":16464,"target":34963},{"buffer":0,"byteOffset":781536,"byteLength":192,"target":34963},{"buffer":0,"byteOffset":781728,"byteLength":8640,"target":34963},{"buffer":0,"byteOffset":790368,"byteLength":10368,"target":34963},{"buffer":0,"byteOffset":800736,"byteLength":576,"target":34963},{"buffer":0,"byteOffset":801312,"byteLength":192,"target":34963}],"accessors":[{"bufferView":0,"componentType":5126,"count":9108,"type":"VEC3","min":[338.43426513671875,5.591725826263428,581.510009765625],"max":[352.56573486328125,13.898067474365234,594.4776000976562]},{"bufferView":1,"componentType":5126,"count":9108,"type":"VEC3"},{"bufferView":2,"componentType":5126,"count":9108,"type":"VEC2"},{"bufferView":3,"componentType":5126,"count":9108,"type":"VEC3"},{"bufferView":4,"componentType":5126,"count":9108,"type":"VEC3"},{"bufferView":5,"componentType":5126,"count":9108,"type":"VEC3"},{"bufferView":6,"componentType":5126,"count":9108,"type":"VEC3"},{"bufferView":7,"componentType":5126,"count":9108,"type":"SCALAR"},{"bufferView":8,"componentType":5125,"count":4116,"type":"SCALAR"},{"bufferView":9,"componentType":5125,"count":48,"type":"SCALAR"},{"bufferView":10,"componentType":5125,"count":2160,"type":"SCALAR"},{"bufferView":11,"componentType":5125,"count":2592,"type":"SCALAR"},{"bufferView":12,"componentType":5125,"count":144,"type":"SCALAR"},{"bufferView":13,"componentType":5125,"count":48,"type":"SCALAR"}],"materials":[{"name":"legacy-material-5","pbrMetallicRoughness":{"baseColorFactor":[1,1,1,1],"metallicFactor":0,"roughnessFactor":1},"doubleSided":true,"extras":{"legacyMaterial":5,"legacyShader":"dist/renderer-gl.js","limitation":"Browser procedural material not implemented by this glTF export; source/base attributes retained."}},{"name":"legacy-material-13","pbrMetallicRoughness":{"baseColorFactor":[1,1,1,1],"metallicFactor":0,"roughnessFactor":1},"doubleSided":true,"extras":{"legacyMaterial":13,"legacyShader":"dist/renderer-gl.js","limitation":"Browser procedural material not implemented by this glTF export; source/base attributes retained."}},{"name":"legacy-material-20","pbrMetallicRoughness":{"baseColorFactor":[1,1,1,1],"metallicFactor":0,"roughnessFactor":1,"baseColorTexture":{"index":0}},"doubleSided":true,"extras":{"legacyMaterial":20,"legacyShader":"dist/renderer-gl.js"}},{"name":"legacy-material-17","pbrMetallicRoughness":{"baseColorFactor":[1,1,1,1],"metallicFactor":0,"roughnessFactor":1},"doubleSided":true,"extras":{"legacyMaterial":17,"legacyShader":"dist/renderer-gl.js","limitation":"Browser procedural material not implemented by this glTF export; source/base attributes retained."}},{"name":"legacy-material-7","pbrMetallicRoughness":{"baseColorFactor":[1,1,1,1],"metallicFactor":0,"roughnessFactor":1},"doubleSided":true,"extras":{"legacyMaterial":7,"legacyShader":"dist/renderer-gl.js","limitation":"Browser procedural material not implemented by this glTF export; source/base attributes retained."}},{"name":"legacy-material-6","pbrMetallicRoughness":{"baseColorFactor":[1,1,1,1],"metallicFactor":0,"roughnessFactor":1},"doubleSided":true,"extras":{"legacyMaterial":6,"legacyShader":"dist/renderer-gl.js","limitation":"Browser procedural material not implemented by this glTF export; source/base attributes retained."}}],"extras":{"veldrenAssetId":"veldren:world-part:232de22b86e0d741120a2716d6dd91ea9c654813604d9101308ca36257c4f68d"},"images":[{"name":"atlas-00","uri":"../../textures/atlas/tile-00.png"}],"textures":[{"source":0,"sampler":0}],"samplers":[{"magFilter":9729,"minFilter":9729,"wrapS":10497,"wrapT":10497}],"buffers":[{"uri":"232de22b86e0d741120a2716d6dd91ea9c654813604d9101308ca36257c4f68d.bin","byteLength":801504}]}
