{"asset":{"version":"2.0","generator":"Veldren adapted asset recovery"},"scene":0,"scenes":[{"nodes":[0]}],"nodes":[{"name":"23ca48fa34b878868129f22c7179e98fe7e93df16e82b48a649ee8e3a76ddc5e","mesh":0}],"meshes":[{"name":"23ca48fa34b878868129f22c7179e98fe7e93df16e82b48a649ee8e3a76ddc5e","primitives":[{"attributes":{"POSITION":0,"NORMAL":1,"TEXCOORD_0":2,"COLOR_0":3,"_VELDREN_NORMAL":4,"_VELDREN_COLOR":5,"_VELDREN_FALLBACK":6,"_VELDREN_MATERIAL":7},"indices":8,"material":0,"extras":{"mixedAtlasFallback":false}}]}],"bufferViews":[{"buffer":0,"byteOffset":0,"byteLength":864,"target":34962},{"buffer":0,"byteOffset":864,"byteLength":864,"target":34962},{"buffer":0,"byteOffset":1728,"byteLength":576,"target":34962},{"buffer":0,"byteOffset":2304,"byteLength":864,"target":34962},{"buffer":0,"byteOffset":3168,"byteLength":864,"target":34962},{"buffer":0,"byteOffset":4032,"byteLength":864,"target":34962},{"buffer":0,"byteOffset":4896,"byteLength":864,"target":34962},{"buffer":0,"byteOffset":5760,"byteLength":288,"target":34962},{"buffer":0,"byteOffset":6048,"byteLength":288,"target":34963}],"accessors":[{"bufferView":0,"componentType":5126,"count":72,"type":"VEC3","min":[717.1749877929688,3.9921796321868896,102.28500366210938],"max":[717.8250122070312,4.08467960357666,102.71499633789062]},{"bufferView":1,"componentType":5126,"count":72,"type":"VEC3"},{"bufferView":2,"componentType":5126,"count":72,"type":"VEC2"},{"bufferView":3,"componentType":5126,"count":72,"type":"VEC3"},{"bufferView":4,"componentType":5126,"count":72,"type":"VEC3"},{"bufferView":5,"componentType":5126,"count":72,"type":"VEC3"},{"bufferView":6,"componentType":5126,"count":72,"type":"VEC3"},{"bufferView":7,"componentType":5126,"count":72,"type":"SCALAR"},{"bufferView":8,"componentType":5125,"count":72,"type":"SCALAR"}],"materials":[{"name":"legacy-material-20","pbrMetallicRoughness":{"baseColorFactor":[1,1,1,1],"metallicFactor":0,"roughnessFactor":1,"baseColorTexture":{"index":0}},"doubleSided":true,"extras":{"legacyMaterial":20,"legacyShader":"dist/renderer-gl.js"}}],"extras":{"veldrenAssetId":"veldren:world-part:23ca48fa34b878868129f22c7179e98fe7e93df16e82b48a649ee8e3a76ddc5e"},"images":[{"name":"atlas-00","uri":"../../textures/atlas/tile-00.png"}],"textures":[{"source":0,"sampler":0}],"samplers":[{"magFilter":9729,"minFilter":9729,"wrapS":10497,"wrapT":10497}],"buffers":[{"uri":"23ca48fa34b878868129f22c7179e98fe7e93df16e82b48a649ee8e3a76ddc5e.bin","byteLength":6336}]}
