{"asset":{"version":"2.0","generator":"Veldren adapted asset recovery"},"scene":0,"scenes":[{"nodes":[0]}],"nodes":[{"name":"2506d93b76d310984001c5dabe16741967c5181ca1e7b8dff6ac2e880b200a9c","mesh":0}],"meshes":[{"name":"2506d93b76d310984001c5dabe16741967c5181ca1e7b8dff6ac2e880b200a9c","primitives":[{"attributes":{"POSITION":0,"NORMAL":1,"TEXCOORD_0":2,"COLOR_0":3,"_VELDREN_NORMAL":4,"_VELDREN_COLOR":5,"_VELDREN_FALLBACK":6,"_VELDREN_MATERIAL":7},"indices":8,"material":0,"extras":{"mixedAtlasFallback":false}}]}],"bufferViews":[{"buffer":0,"byteOffset":0,"byteLength":21600,"target":34962},{"buffer":0,"byteOffset":21600,"byteLength":21600,"target":34962},{"buffer":0,"byteOffset":43200,"byteLength":14400,"target":34962},{"buffer":0,"byteOffset":57600,"byteLength":21600,"target":34962},{"buffer":0,"byteOffset":79200,"byteLength":21600,"target":34962},{"buffer":0,"byteOffset":100800,"byteLength":21600,"target":34962},{"buffer":0,"byteOffset":122400,"byteLength":21600,"target":34962},{"buffer":0,"byteOffset":144000,"byteLength":7200,"target":34962},{"buffer":0,"byteOffset":151200,"byteLength":10800,"target":34963}],"accessors":[{"bufferView":0,"componentType":5126,"count":1800,"type":"VEC3","min":[-0.9234761595726013,-0.234694704413414,-0.9743891954421997],"max":[0.9913685917854309,1.3470909595489502,0.9907516837120056]},{"bufferView":1,"componentType":5126,"count":1800,"type":"VEC3"},{"bufferView":2,"componentType":5126,"count":1800,"type":"VEC2"},{"bufferView":3,"componentType":5126,"count":1800,"type":"VEC3"},{"bufferView":4,"componentType":5126,"count":1800,"type":"VEC3"},{"bufferView":5,"componentType":5126,"count":1800,"type":"VEC3"},{"bufferView":6,"componentType":5126,"count":1800,"type":"VEC3"},{"bufferView":7,"componentType":5126,"count":1800,"type":"SCALAR"},{"bufferView":8,"componentType":5125,"count":2700,"type":"SCALAR"}],"materials":[{"name":"legacy-material-31","pbrMetallicRoughness":{"baseColorFactor":[1,1,1,1],"metallicFactor":0,"roughnessFactor":1,"baseColorTexture":{"index":0}},"doubleSided":true,"extras":{"legacyMaterial":31,"legacyShader":"dist/renderer-gl.js"},"alphaMode":"MASK","alphaCutoff":0.45}],"extras":{"veldrenAssetId":"veldren:world-part:2506d93b76d310984001c5dabe16741967c5181ca1e7b8dff6ac2e880b200a9c"},"images":[{"name":"atlas-11","uri":"../../textures/atlas/tile-11.png"}],"textures":[{"source":0,"sampler":0}],"samplers":[{"magFilter":9729,"minFilter":9729,"wrapS":10497,"wrapT":10497}],"buffers":[{"uri":"2506d93b76d310984001c5dabe16741967c5181ca1e7b8dff6ac2e880b200a9c.bin","byteLength":162000}]}
