{"asset":{"version":"2.0","generator":"Veldren adapted asset recovery"},"scene":0,"scenes":[{"nodes":[0]}],"nodes":[{"name":"25b189168edb1e662f6ba175b66e516c59bfd6233edf54ef199a6ee663088e45","mesh":0}],"meshes":[{"name":"25b189168edb1e662f6ba175b66e516c59bfd6233edf54ef199a6ee663088e45","primitives":[{"attributes":{"POSITION":0,"NORMAL":1,"TEXCOORD_0":2,"COLOR_0":3,"_VELDREN_NORMAL":4,"_VELDREN_COLOR":5,"_VELDREN_FALLBACK":6,"_VELDREN_MATERIAL":7},"indices":8,"material":0,"extras":{"mixedAtlasFallback":false}}]}],"bufferViews":[{"buffer":0,"byteOffset":0,"byteLength":6048,"target":34962},{"buffer":0,"byteOffset":6048,"byteLength":6048,"target":34962},{"buffer":0,"byteOffset":12096,"byteLength":4032,"target":34962},{"buffer":0,"byteOffset":16128,"byteLength":6048,"target":34962},{"buffer":0,"byteOffset":22176,"byteLength":6048,"target":34962},{"buffer":0,"byteOffset":28224,"byteLength":6048,"target":34962},{"buffer":0,"byteOffset":34272,"byteLength":6048,"target":34962},{"buffer":0,"byteOffset":40320,"byteLength":2016,"target":34962},{"buffer":0,"byteOffset":42336,"byteLength":2016,"target":34963}],"accessors":[{"bufferView":0,"componentType":5126,"count":504,"type":"VEC3","min":[406.6449890136719,5.6016387939453125,637.2728271484375],"max":[408.3550109863281,8.040740013122559,639.627197265625]},{"bufferView":1,"componentType":5126,"count":504,"type":"VEC3"},{"bufferView":2,"componentType":5126,"count":504,"type":"VEC2"},{"bufferView":3,"componentType":5126,"count":504,"type":"VEC3"},{"bufferView":4,"componentType":5126,"count":504,"type":"VEC3"},{"bufferView":5,"componentType":5126,"count":504,"type":"VEC3"},{"bufferView":6,"componentType":5126,"count":504,"type":"VEC3"},{"bufferView":7,"componentType":5126,"count":504,"type":"SCALAR"},{"bufferView":8,"componentType":5125,"count":504,"type":"SCALAR"}],"materials":[{"name":"legacy-material-5","pbrMetallicRoughness":{"baseColorFactor":[1,1,1,1],"metallicFactor":0,"roughnessFactor":1},"doubleSided":true,"extras":{"legacyMaterial":5,"legacyShader":"dist/renderer-gl.js","limitation":"Browser procedural material not implemented by this glTF export; source/base attributes retained."}}],"extras":{"veldrenAssetId":"veldren:world-part:25b189168edb1e662f6ba175b66e516c59bfd6233edf54ef199a6ee663088e45"},"buffers":[{"uri":"25b189168edb1e662f6ba175b66e516c59bfd6233edf54ef199a6ee663088e45.bin","byteLength":44352}]}
