{"asset":{"version":"2.0","generator":"Veldren adapted asset recovery"},"scene":0,"scenes":[{"nodes":[0]}],"nodes":[{"name":"29a6328a075cdf31f5976d11092b2af55d69a458ad12fbe02216fb98e4706e2d","mesh":0}],"meshes":[{"name":"29a6328a075cdf31f5976d11092b2af55d69a458ad12fbe02216fb98e4706e2d","primitives":[{"attributes":{"POSITION":0,"NORMAL":1,"TEXCOORD_0":2,"COLOR_0":3,"_VELDREN_NORMAL":4,"_VELDREN_COLOR":5,"_VELDREN_FALLBACK":6,"_VELDREN_MATERIAL":7},"indices":8,"material":0,"extras":{"mixedAtlasFallback":false}},{"attributes":{"POSITION":0,"NORMAL":1,"TEXCOORD_0":2,"COLOR_0":3,"_VELDREN_NORMAL":4,"_VELDREN_COLOR":5,"_VELDREN_FALLBACK":6,"_VELDREN_MATERIAL":7},"indices":9,"material":1,"extras":{"mixedAtlasFallback":false}}]}],"bufferViews":[{"buffer":0,"byteOffset":0,"byteLength":11880,"target":34962},{"buffer":0,"byteOffset":11880,"byteLength":11880,"target":34962},{"buffer":0,"byteOffset":23760,"byteLength":7920,"target":34962},{"buffer":0,"byteOffset":31680,"byteLength":11880,"target":34962},{"buffer":0,"byteOffset":43560,"byteLength":11880,"target":34962},{"buffer":0,"byteOffset":55440,"byteLength":11880,"target":34962},{"buffer":0,"byteOffset":67320,"byteLength":11880,"target":34962},{"buffer":0,"byteOffset":79200,"byteLength":3960,"target":34962},{"buffer":0,"byteOffset":83160,"byteLength":672,"target":34963},{"buffer":0,"byteOffset":83832,"byteLength":3288,"target":34963}],"accessors":[{"bufferView":0,"componentType":5126,"count":990,"type":"VEC3","min":[398.8800048828125,4.608069896697998,551.3250122070312],"max":[400.1199951171875,6.371743202209473,551.8001098632812]},{"bufferView":1,"componentType":5126,"count":990,"type":"VEC3"},{"bufferView":2,"componentType":5126,"count":990,"type":"VEC2"},{"bufferView":3,"componentType":5126,"count":990,"type":"VEC3"},{"bufferView":4,"componentType":5126,"count":990,"type":"VEC3"},{"bufferView":5,"componentType":5126,"count":990,"type":"VEC3"},{"bufferView":6,"componentType":5126,"count":990,"type":"VEC3"},{"bufferView":7,"componentType":5126,"count":990,"type":"SCALAR"},{"bufferView":8,"componentType":5125,"count":168,"type":"SCALAR"},{"bufferView":9,"componentType":5125,"count":822,"type":"SCALAR"}],"materials":[{"name":"legacy-material-5","pbrMetallicRoughness":{"baseColorFactor":[1,1,1,1],"metallicFactor":0,"roughnessFactor":1},"doubleSided":true,"extras":{"legacyMaterial":5,"legacyShader":"dist/renderer-gl.js","limitation":"Browser procedural material not implemented by this glTF export; source/base attributes retained."}},{"name":"legacy-material-13","pbrMetallicRoughness":{"baseColorFactor":[1,1,1,1],"metallicFactor":0,"roughnessFactor":1},"doubleSided":true,"extras":{"legacyMaterial":13,"legacyShader":"dist/renderer-gl.js","limitation":"Browser procedural material not implemented by this glTF export; source/base attributes retained."}}],"extras":{"veldrenAssetId":"veldren:world-part:29a6328a075cdf31f5976d11092b2af55d69a458ad12fbe02216fb98e4706e2d"},"buffers":[{"uri":"29a6328a075cdf31f5976d11092b2af55d69a458ad12fbe02216fb98e4706e2d.bin","byteLength":87120}]}
