{"asset":{"version":"2.0","generator":"Veldren adapted asset recovery"},"scene":0,"scenes":[{"nodes":[0]}],"nodes":[{"name":"2bed24ed427da899c64f0c99a7488970d5ac0a3dd007e3dcf039fbfe4113db36","mesh":0}],"meshes":[{"name":"2bed24ed427da899c64f0c99a7488970d5ac0a3dd007e3dcf039fbfe4113db36","primitives":[{"attributes":{"POSITION":0,"NORMAL":1,"TEXCOORD_0":2,"COLOR_0":3,"_VELDREN_NORMAL":4,"_VELDREN_COLOR":5,"_VELDREN_FALLBACK":6,"_VELDREN_MATERIAL":7},"indices":8,"material":0,"extras":{"mixedAtlasFallback":false}},{"attributes":{"POSITION":0,"NORMAL":1,"TEXCOORD_0":2,"COLOR_0":3,"_VELDREN_NORMAL":4,"_VELDREN_COLOR":5,"_VELDREN_FALLBACK":6,"_VELDREN_MATERIAL":7},"indices":9,"material":1,"extras":{"mixedAtlasFallback":false}}]}],"bufferViews":[{"buffer":0,"byteOffset":0,"byteLength":4080,"target":34962},{"buffer":0,"byteOffset":4080,"byteLength":4080,"target":34962},{"buffer":0,"byteOffset":8160,"byteLength":2720,"target":34962},{"buffer":0,"byteOffset":10880,"byteLength":4080,"target":34962},{"buffer":0,"byteOffset":14960,"byteLength":4080,"target":34962},{"buffer":0,"byteOffset":19040,"byteLength":4080,"target":34962},{"buffer":0,"byteOffset":23120,"byteLength":4080,"target":34962},{"buffer":0,"byteOffset":27200,"byteLength":1360,"target":34962},{"buffer":0,"byteOffset":28560,"byteLength":1464,"target":34963},{"buffer":0,"byteOffset":30024,"byteLength":1752,"target":34963}],"accessors":[{"bufferView":0,"componentType":5126,"count":340,"type":"VEC3","min":[-0.07037083804607391,-0.004642794374376535,-0.07473406940698624],"max":[0.12171173840761185,0.1792401522397995,0.0720536932349205]},{"bufferView":1,"componentType":5126,"count":340,"type":"VEC3"},{"bufferView":2,"componentType":5126,"count":340,"type":"VEC2"},{"bufferView":3,"componentType":5126,"count":340,"type":"VEC3"},{"bufferView":4,"componentType":5126,"count":340,"type":"VEC3"},{"bufferView":5,"componentType":5126,"count":340,"type":"VEC3"},{"bufferView":6,"componentType":5126,"count":340,"type":"VEC3"},{"bufferView":7,"componentType":5126,"count":340,"type":"SCALAR"},{"bufferView":8,"componentType":5125,"count":366,"type":"SCALAR"},{"bufferView":9,"componentType":5125,"count":438,"type":"SCALAR"}],"materials":[{"name":"legacy-material-42","pbrMetallicRoughness":{"baseColorFactor":[1,1,1,1],"metallicFactor":0,"roughnessFactor":1,"baseColorTexture":{"index":0}},"doubleSided":true,"extras":{"legacyMaterial":42,"legacyShader":"dist/renderer-gl.js"}},{"name":"legacy-material-43","pbrMetallicRoughness":{"baseColorFactor":[1,1,1,1],"metallicFactor":0,"roughnessFactor":1,"baseColorTexture":{"index":1}},"doubleSided":true,"extras":{"legacyMaterial":43,"legacyShader":"dist/renderer-gl.js"}}],"extras":{"veldrenAssetId":"veldren:world-part:2bed24ed427da899c64f0c99a7488970d5ac0a3dd007e3dcf039fbfe4113db36"},"images":[{"name":"atlas-22","uri":"../../textures/atlas/tile-22.png"},{"name":"atlas-23","uri":"../../textures/atlas/tile-23.png"}],"textures":[{"source":0,"sampler":0},{"source":1,"sampler":0}],"samplers":[{"magFilter":9729,"minFilter":9729,"wrapS":10497,"wrapT":10497}],"buffers":[{"uri":"2bed24ed427da899c64f0c99a7488970d5ac0a3dd007e3dcf039fbfe4113db36.bin","byteLength":31776}]}
