{"asset":{"version":"2.0","generator":"Veldren adapted asset recovery"},"scene":0,"scenes":[{"nodes":[0]}],"nodes":[{"name":"2f733a41b4f9e989f2dbdede3a135d570deac9aa568fcdfb87bbf586d76d36ed","mesh":0}],"meshes":[{"name":"2f733a41b4f9e989f2dbdede3a135d570deac9aa568fcdfb87bbf586d76d36ed","primitives":[{"attributes":{"POSITION":0,"NORMAL":1,"TEXCOORD_0":2,"COLOR_0":3,"_VELDREN_NORMAL":4,"_VELDREN_COLOR":5,"_VELDREN_FALLBACK":6,"_VELDREN_MATERIAL":7},"indices":8,"material":0,"extras":{"mixedAtlasFallback":false}},{"attributes":{"POSITION":0,"NORMAL":1,"TEXCOORD_0":2,"COLOR_0":3,"_VELDREN_NORMAL":4,"_VELDREN_COLOR":5,"_VELDREN_FALLBACK":6,"_VELDREN_MATERIAL":7},"indices":9,"material":1,"extras":{"mixedAtlasFallback":false}},{"attributes":{"POSITION":0,"NORMAL":1,"TEXCOORD_0":2,"COLOR_0":3,"_VELDREN_NORMAL":4,"_VELDREN_COLOR":5,"_VELDREN_FALLBACK":6,"_VELDREN_MATERIAL":7},"indices":10,"material":2,"extras":{"mixedAtlasFallback":false}},{"attributes":{"POSITION":0,"NORMAL":1,"TEXCOORD_0":2,"COLOR_0":3,"_VELDREN_NORMAL":4,"_VELDREN_COLOR":5,"_VELDREN_FALLBACK":6,"_VELDREN_MATERIAL":7},"indices":11,"material":3,"extras":{"mixedAtlasFallback":false}},{"attributes":{"POSITION":0,"NORMAL":1,"TEXCOORD_0":2,"COLOR_0":3,"_VELDREN_NORMAL":4,"_VELDREN_COLOR":5,"_VELDREN_FALLBACK":6,"_VELDREN_MATERIAL":7},"indices":12,"material":4,"extras":{"mixedAtlasFallback":false}},{"attributes":{"POSITION":0,"NORMAL":1,"TEXCOORD_0":2,"COLOR_0":3,"_VELDREN_NORMAL":4,"_VELDREN_COLOR":5,"_VELDREN_FALLBACK":6,"_VELDREN_MATERIAL":7},"indices":13,"material":5,"extras":{"mixedAtlasFallback":false}}]}],"bufferViews":[{"buffer":0,"byteOffset":0,"byteLength":20952,"target":34962},{"buffer":0,"byteOffset":20952,"byteLength":20952,"target":34962},{"buffer":0,"byteOffset":41904,"byteLength":13968,"target":34962},{"buffer":0,"byteOffset":55872,"byteLength":20952,"target":34962},{"buffer":0,"byteOffset":76824,"byteLength":20952,"target":34962},{"buffer":0,"byteOffset":97776,"byteLength":20952,"target":34962},{"buffer":0,"byteOffset":118728,"byteLength":20952,"target":34962},{"buffer":0,"byteOffset":139680,"byteLength":6984,"target":34962},{"buffer":0,"byteOffset":146664,"byteLength":3456,"target":34963},{"buffer":0,"byteOffset":150120,"byteLength":1224,"target":34963},{"buffer":0,"byteOffset":151344,"byteLength":1296,"target":34963},{"buffer":0,"byteOffset":152640,"byteLength":120,"target":34963},{"buffer":0,"byteOffset":152760,"byteLength":864,"target":34963},{"buffer":0,"byteOffset":153624,"byteLength":24,"target":34963}],"accessors":[{"bufferView":0,"componentType":5126,"count":1746,"type":"VEC3","min":[372.12786865234375,2.5412604808807373,116.5999984741211],"max":[374.87213134765625,5.005183219909668,118.4000015258789]},{"bufferView":1,"componentType":5126,"count":1746,"type":"VEC3"},{"bufferView":2,"componentType":5126,"count":1746,"type":"VEC2"},{"bufferView":3,"componentType":5126,"count":1746,"type":"VEC3"},{"bufferView":4,"componentType":5126,"count":1746,"type":"VEC3"},{"bufferView":5,"componentType":5126,"count":1746,"type":"VEC3"},{"bufferView":6,"componentType":5126,"count":1746,"type":"VEC3"},{"bufferView":7,"componentType":5126,"count":1746,"type":"SCALAR"},{"bufferView":8,"componentType":5125,"count":864,"type":"SCALAR"},{"bufferView":9,"componentType":5125,"count":306,"type":"SCALAR"},{"bufferView":10,"componentType":5125,"count":324,"type":"SCALAR"},{"bufferView":11,"componentType":5125,"count":30,"type":"SCALAR"},{"bufferView":12,"componentType":5125,"count":216,"type":"SCALAR"},{"bufferView":13,"componentType":5125,"count":6,"type":"SCALAR"}],"materials":[{"name":"legacy-material-3","pbrMetallicRoughness":{"baseColorFactor":[1,1,1,1],"metallicFactor":0,"roughnessFactor":1},"doubleSided":true,"extras":{"legacyMaterial":3,"legacyShader":"dist/renderer-gl.js","limitation":"Browser procedural material not implemented by this glTF export; source/base attributes retained."}},{"name":"legacy-material-13","pbrMetallicRoughness":{"baseColorFactor":[1,1,1,1],"metallicFactor":0,"roughnessFactor":1},"doubleSided":true,"extras":{"legacyMaterial":13,"legacyShader":"dist/renderer-gl.js","limitation":"Browser procedural material not implemented by this glTF export; source/base attributes retained."}},{"name":"legacy-material-5","pbrMetallicRoughness":{"baseColorFactor":[1,1,1,1],"metallicFactor":0,"roughnessFactor":1},"doubleSided":true,"extras":{"legacyMaterial":5,"legacyShader":"dist/renderer-gl.js","limitation":"Browser procedural material not implemented by this glTF export; source/base attributes retained."}},{"name":"legacy-material-20","pbrMetallicRoughness":{"baseColorFactor":[1,1,1,1],"metallicFactor":0,"roughnessFactor":1,"baseColorTexture":{"index":0}},"doubleSided":true,"extras":{"legacyMaterial":20,"legacyShader":"dist/renderer-gl.js"}},{"name":"legacy-material-17","pbrMetallicRoughness":{"baseColorFactor":[1,1,1,1],"metallicFactor":0,"roughnessFactor":1},"doubleSided":true,"extras":{"legacyMaterial":17,"legacyShader":"dist/renderer-gl.js","limitation":"Browser procedural material not implemented by this glTF export; source/base attributes retained."}},{"name":"legacy-material-7","pbrMetallicRoughness":{"baseColorFactor":[1,1,1,1],"metallicFactor":0,"roughnessFactor":1},"doubleSided":true,"extras":{"legacyMaterial":7,"legacyShader":"dist/renderer-gl.js","limitation":"Browser procedural material not implemented by this glTF export; source/base attributes retained."}}],"extras":{"veldrenAssetId":"veldren:world-part:2f733a41b4f9e989f2dbdede3a135d570deac9aa568fcdfb87bbf586d76d36ed"},"images":[{"name":"atlas-00","uri":"../../textures/atlas/tile-00.png"}],"textures":[{"source":0,"sampler":0}],"samplers":[{"magFilter":9729,"minFilter":9729,"wrapS":10497,"wrapT":10497}],"buffers":[{"uri":"2f733a41b4f9e989f2dbdede3a135d570deac9aa568fcdfb87bbf586d76d36ed.bin","byteLength":153648}]}
