{"asset":{"version":"2.0","generator":"Veldren adapted asset recovery"},"scene":0,"scenes":[{"nodes":[0]}],"nodes":[{"name":"3214d29dd3febe572af7ce2abdb30f7f745e1ec7fcded661cad990a943aef9bd","mesh":0}],"meshes":[{"name":"3214d29dd3febe572af7ce2abdb30f7f745e1ec7fcded661cad990a943aef9bd","primitives":[{"attributes":{"POSITION":0,"NORMAL":1,"TEXCOORD_0":2,"COLOR_0":3,"_VELDREN_NORMAL":4,"_VELDREN_COLOR":5,"_VELDREN_FALLBACK":6,"_VELDREN_MATERIAL":7},"indices":8,"material":0,"extras":{"mixedAtlasFallback":false}},{"attributes":{"POSITION":0,"NORMAL":1,"TEXCOORD_0":2,"COLOR_0":3,"_VELDREN_NORMAL":4,"_VELDREN_COLOR":5,"_VELDREN_FALLBACK":6,"_VELDREN_MATERIAL":7},"indices":9,"material":1,"extras":{"mixedAtlasFallback":false}},{"attributes":{"POSITION":0,"NORMAL":1,"TEXCOORD_0":2,"COLOR_0":3,"_VELDREN_NORMAL":4,"_VELDREN_COLOR":5,"_VELDREN_FALLBACK":6,"_VELDREN_MATERIAL":7},"indices":10,"material":2,"extras":{"mixedAtlasFallback":false}},{"attributes":{"POSITION":0,"NORMAL":1,"TEXCOORD_0":2,"COLOR_0":3,"_VELDREN_NORMAL":4,"_VELDREN_COLOR":5,"_VELDREN_FALLBACK":6,"_VELDREN_MATERIAL":7},"indices":11,"material":3,"extras":{"mixedAtlasFallback":false}},{"attributes":{"POSITION":0,"NORMAL":1,"TEXCOORD_0":2,"COLOR_0":3,"_VELDREN_NORMAL":4,"_VELDREN_COLOR":5,"_VELDREN_FALLBACK":6,"_VELDREN_MATERIAL":7},"indices":12,"material":4,"extras":{"mixedAtlasFallback":false}},{"attributes":{"POSITION":0,"NORMAL":1,"TEXCOORD_0":2,"COLOR_0":3,"_VELDREN_NORMAL":4,"_VELDREN_COLOR":5,"_VELDREN_FALLBACK":6,"_VELDREN_MATERIAL":7},"indices":13,"material":5,"extras":{"mixedAtlasFallback":false}}]}],"bufferViews":[{"buffer":0,"byteOffset":0,"byteLength":71856,"target":34962},{"buffer":0,"byteOffset":71856,"byteLength":71856,"target":34962},{"buffer":0,"byteOffset":143712,"byteLength":47904,"target":34962},{"buffer":0,"byteOffset":191616,"byteLength":71856,"target":34962},{"buffer":0,"byteOffset":263472,"byteLength":71856,"target":34962},{"buffer":0,"byteOffset":335328,"byteLength":71856,"target":34962},{"buffer":0,"byteOffset":407184,"byteLength":71856,"target":34962},{"buffer":0,"byteOffset":479040,"byteLength":23952,"target":34962},{"buffer":0,"byteOffset":502992,"byteLength":4560,"target":34963},{"buffer":0,"byteOffset":507552,"byteLength":192,"target":34963},{"buffer":0,"byteOffset":507744,"byteLength":16704,"target":34963},{"buffer":0,"byteOffset":524448,"byteLength":192,"target":34963},{"buffer":0,"byteOffset":524640,"byteLength":576,"target":34963},{"buffer":0,"byteOffset":525216,"byteLength":1728,"target":34963}],"accessors":[{"bufferView":0,"componentType":5126,"count":5988,"type":"VEC3","min":[788.489990234375,3.1871798038482666,80.51000213623047],"max":[802.510009765625,10.10960865020752,93.47758483886719]},{"bufferView":1,"componentType":5126,"count":5988,"type":"VEC3"},{"bufferView":2,"componentType":5126,"count":5988,"type":"VEC2"},{"bufferView":3,"componentType":5126,"count":5988,"type":"VEC3"},{"bufferView":4,"componentType":5126,"count":5988,"type":"VEC3"},{"bufferView":5,"componentType":5126,"count":5988,"type":"VEC3"},{"bufferView":6,"componentType":5126,"count":5988,"type":"VEC3"},{"bufferView":7,"componentType":5126,"count":5988,"type":"SCALAR"},{"bufferView":8,"componentType":5125,"count":1140,"type":"SCALAR"},{"bufferView":9,"componentType":5125,"count":48,"type":"SCALAR"},{"bufferView":10,"componentType":5125,"count":4176,"type":"SCALAR"},{"bufferView":11,"componentType":5125,"count":48,"type":"SCALAR"},{"bufferView":12,"componentType":5125,"count":144,"type":"SCALAR"},{"bufferView":13,"componentType":5125,"count":432,"type":"SCALAR"}],"materials":[{"name":"legacy-material-5","pbrMetallicRoughness":{"baseColorFactor":[1,1,1,1],"metallicFactor":0,"roughnessFactor":1},"doubleSided":true,"extras":{"legacyMaterial":5,"legacyShader":"dist/renderer-gl.js","limitation":"Browser procedural material not implemented by this glTF export; source/base attributes retained."}},{"name":"legacy-material-13","pbrMetallicRoughness":{"baseColorFactor":[1,1,1,1],"metallicFactor":0,"roughnessFactor":1},"doubleSided":true,"extras":{"legacyMaterial":13,"legacyShader":"dist/renderer-gl.js","limitation":"Browser procedural material not implemented by this glTF export; source/base attributes retained."}},{"name":"legacy-material-17","pbrMetallicRoughness":{"baseColorFactor":[1,1,1,1],"metallicFactor":0,"roughnessFactor":1},"doubleSided":true,"extras":{"legacyMaterial":17,"legacyShader":"dist/renderer-gl.js","limitation":"Browser procedural material not implemented by this glTF export; source/base attributes retained."}},{"name":"legacy-material-6","pbrMetallicRoughness":{"baseColorFactor":[1,1,1,1],"metallicFactor":0,"roughnessFactor":1},"doubleSided":true,"extras":{"legacyMaterial":6,"legacyShader":"dist/renderer-gl.js","limitation":"Browser procedural material not implemented by this glTF export; source/base attributes retained."}},{"name":"legacy-material-18","pbrMetallicRoughness":{"baseColorFactor":[1,1,1,1],"metallicFactor":0,"roughnessFactor":1},"doubleSided":true,"extras":{"legacyMaterial":18,"legacyShader":"dist/renderer-gl.js","limitation":"Browser procedural material not implemented by this glTF export; source/base attributes retained."}},{"name":"legacy-material-20","pbrMetallicRoughness":{"baseColorFactor":[1,1,1,1],"metallicFactor":0,"roughnessFactor":1,"baseColorTexture":{"index":0}},"doubleSided":true,"extras":{"legacyMaterial":20,"legacyShader":"dist/renderer-gl.js"}}],"extras":{"veldrenAssetId":"veldren:world-part:3214d29dd3febe572af7ce2abdb30f7f745e1ec7fcded661cad990a943aef9bd"},"images":[{"name":"atlas-00","uri":"../../textures/atlas/tile-00.png"}],"textures":[{"source":0,"sampler":0}],"samplers":[{"magFilter":9729,"minFilter":9729,"wrapS":10497,"wrapT":10497}],"buffers":[{"uri":"3214d29dd3febe572af7ce2abdb30f7f745e1ec7fcded661cad990a943aef9bd.bin","byteLength":526944}]}
