{"asset":{"version":"2.0","generator":"Veldren adapted asset recovery"},"scene":0,"scenes":[{"nodes":[0]}],"nodes":[{"name":"33559f1873d19639ae047e21025593b71015a06490b6836d3fca4cc72d1a8dd4","mesh":0}],"meshes":[{"name":"33559f1873d19639ae047e21025593b71015a06490b6836d3fca4cc72d1a8dd4","primitives":[{"attributes":{"POSITION":0,"NORMAL":1,"TEXCOORD_0":2,"COLOR_0":3,"_VELDREN_NORMAL":4,"_VELDREN_COLOR":5,"_VELDREN_FALLBACK":6,"_VELDREN_MATERIAL":7},"indices":8,"material":0,"extras":{"mixedAtlasFallback":false}},{"attributes":{"POSITION":0,"NORMAL":1,"TEXCOORD_0":2,"COLOR_0":3,"_VELDREN_NORMAL":4,"_VELDREN_COLOR":5,"_VELDREN_FALLBACK":6,"_VELDREN_MATERIAL":7},"indices":9,"material":1,"extras":{"mixedAtlasFallback":false}},{"attributes":{"POSITION":0,"NORMAL":1,"TEXCOORD_0":2,"COLOR_0":3,"_VELDREN_NORMAL":4,"_VELDREN_COLOR":5,"_VELDREN_FALLBACK":6,"_VELDREN_MATERIAL":7},"indices":10,"material":2,"extras":{"mixedAtlasFallback":false}},{"attributes":{"POSITION":0,"NORMAL":1,"TEXCOORD_0":2,"COLOR_0":3,"_VELDREN_NORMAL":4,"_VELDREN_COLOR":5,"_VELDREN_FALLBACK":6,"_VELDREN_MATERIAL":7},"indices":11,"material":3,"extras":{"mixedAtlasFallback":false}},{"attributes":{"POSITION":0,"NORMAL":1,"TEXCOORD_0":2,"COLOR_0":3,"_VELDREN_NORMAL":4,"_VELDREN_COLOR":5,"_VELDREN_FALLBACK":6,"_VELDREN_MATERIAL":7},"indices":12,"material":4,"extras":{"mixedAtlasFallback":false}},{"attributes":{"POSITION":0,"NORMAL":1,"TEXCOORD_0":2,"COLOR_0":3,"_VELDREN_NORMAL":4,"_VELDREN_COLOR":5,"_VELDREN_FALLBACK":6,"_VELDREN_MATERIAL":7},"indices":13,"material":5,"extras":{"mixedAtlasFallback":false}}]}],"bufferViews":[{"buffer":0,"byteOffset":0,"byteLength":106632,"target":34962},{"buffer":0,"byteOffset":106632,"byteLength":106632,"target":34962},{"buffer":0,"byteOffset":213264,"byteLength":71088,"target":34962},{"buffer":0,"byteOffset":284352,"byteLength":106632,"target":34962},{"buffer":0,"byteOffset":390984,"byteLength":106632,"target":34962},{"buffer":0,"byteOffset":497616,"byteLength":106632,"target":34962},{"buffer":0,"byteOffset":604248,"byteLength":106632,"target":34962},{"buffer":0,"byteOffset":710880,"byteLength":35544,"target":34962},{"buffer":0,"byteOffset":746424,"byteLength":16800,"target":34963},{"buffer":0,"byteOffset":763224,"byteLength":72,"target":34963},{"buffer":0,"byteOffset":763296,"byteLength":6624,"target":34963},{"buffer":0,"byteOffset":769920,"byteLength":11232,"target":34963},{"buffer":0,"byteOffset":781152,"byteLength":624,"target":34963},{"buffer":0,"byteOffset":781776,"byteLength":192,"target":34963}],"accessors":[{"bufferView":0,"componentType":5126,"count":8886,"type":"VEC3","min":[419.43426513671875,5.591725826263428,563.510009765625],"max":[435.56573486328125,11.961013793945312,576.4776000976562]},{"bufferView":1,"componentType":5126,"count":8886,"type":"VEC3"},{"bufferView":2,"componentType":5126,"count":8886,"type":"VEC2"},{"bufferView":3,"componentType":5126,"count":8886,"type":"VEC3"},{"bufferView":4,"componentType":5126,"count":8886,"type":"VEC3"},{"bufferView":5,"componentType":5126,"count":8886,"type":"VEC3"},{"bufferView":6,"componentType":5126,"count":8886,"type":"VEC3"},{"bufferView":7,"componentType":5126,"count":8886,"type":"SCALAR"},{"bufferView":8,"componentType":5125,"count":4200,"type":"SCALAR"},{"bufferView":9,"componentType":5125,"count":18,"type":"SCALAR"},{"bufferView":10,"componentType":5125,"count":1656,"type":"SCALAR"},{"bufferView":11,"componentType":5125,"count":2808,"type":"SCALAR"},{"bufferView":12,"componentType":5125,"count":156,"type":"SCALAR"},{"bufferView":13,"componentType":5125,"count":48,"type":"SCALAR"}],"materials":[{"name":"legacy-material-5","pbrMetallicRoughness":{"baseColorFactor":[1,1,1,1],"metallicFactor":0,"roughnessFactor":1},"doubleSided":true,"extras":{"legacyMaterial":5,"legacyShader":"dist/renderer-gl.js","limitation":"Browser procedural material not implemented by this glTF export; source/base attributes retained."}},{"name":"legacy-material-13","pbrMetallicRoughness":{"baseColorFactor":[1,1,1,1],"metallicFactor":0,"roughnessFactor":1},"doubleSided":true,"extras":{"legacyMaterial":13,"legacyShader":"dist/renderer-gl.js","limitation":"Browser procedural material not implemented by this glTF export; source/base attributes retained."}},{"name":"legacy-material-20","pbrMetallicRoughness":{"baseColorFactor":[1,1,1,1],"metallicFactor":0,"roughnessFactor":1,"baseColorTexture":{"index":0}},"doubleSided":true,"extras":{"legacyMaterial":20,"legacyShader":"dist/renderer-gl.js"}},{"name":"legacy-material-17","pbrMetallicRoughness":{"baseColorFactor":[1,1,1,1],"metallicFactor":0,"roughnessFactor":1},"doubleSided":true,"extras":{"legacyMaterial":17,"legacyShader":"dist/renderer-gl.js","limitation":"Browser procedural material not implemented by this glTF export; source/base attributes retained."}},{"name":"legacy-material-7","pbrMetallicRoughness":{"baseColorFactor":[1,1,1,1],"metallicFactor":0,"roughnessFactor":1},"doubleSided":true,"extras":{"legacyMaterial":7,"legacyShader":"dist/renderer-gl.js","limitation":"Browser procedural material not implemented by this glTF export; source/base attributes retained."}},{"name":"legacy-material-6","pbrMetallicRoughness":{"baseColorFactor":[1,1,1,1],"metallicFactor":0,"roughnessFactor":1},"doubleSided":true,"extras":{"legacyMaterial":6,"legacyShader":"dist/renderer-gl.js","limitation":"Browser procedural material not implemented by this glTF export; source/base attributes retained."}}],"extras":{"veldrenAssetId":"veldren:world-part:33559f1873d19639ae047e21025593b71015a06490b6836d3fca4cc72d1a8dd4"},"images":[{"name":"atlas-00","uri":"../../textures/atlas/tile-00.png"}],"textures":[{"source":0,"sampler":0}],"samplers":[{"magFilter":9729,"minFilter":9729,"wrapS":10497,"wrapT":10497}],"buffers":[{"uri":"33559f1873d19639ae047e21025593b71015a06490b6836d3fca4cc72d1a8dd4.bin","byteLength":781968}]}
