{"asset":{"version":"2.0","generator":"Veldren adapted asset recovery"},"scene":0,"scenes":[{"nodes":[0]}],"nodes":[{"name":"358a48278ddc334e029cef302ed70b4a8363a4532682ba0fa57d1a0dda4135ee","mesh":0}],"meshes":[{"name":"358a48278ddc334e029cef302ed70b4a8363a4532682ba0fa57d1a0dda4135ee","primitives":[{"attributes":{"POSITION":0,"NORMAL":1,"TEXCOORD_0":2,"COLOR_0":3,"_VELDREN_NORMAL":4,"_VELDREN_COLOR":5,"_VELDREN_FALLBACK":6,"_VELDREN_MATERIAL":7},"indices":8,"material":0,"extras":{"mixedAtlasFallback":false}}]}],"bufferViews":[{"buffer":0,"byteOffset":0,"byteLength":1728,"target":34962},{"buffer":0,"byteOffset":1728,"byteLength":1728,"target":34962},{"buffer":0,"byteOffset":3456,"byteLength":1152,"target":34962},{"buffer":0,"byteOffset":4608,"byteLength":1728,"target":34962},{"buffer":0,"byteOffset":6336,"byteLength":1728,"target":34962},{"buffer":0,"byteOffset":8064,"byteLength":1728,"target":34962},{"buffer":0,"byteOffset":9792,"byteLength":1728,"target":34962},{"buffer":0,"byteOffset":11520,"byteLength":576,"target":34962},{"buffer":0,"byteOffset":12096,"byteLength":576,"target":34963}],"accessors":[{"bufferView":0,"componentType":5126,"count":144,"type":"VEC3","min":[172.10000610351562,5.061738967895508,139.4499969482422],"max":[172.89999389648438,6.301738739013672,139.55999755859375]},{"bufferView":1,"componentType":5126,"count":144,"type":"VEC3"},{"bufferView":2,"componentType":5126,"count":144,"type":"VEC2"},{"bufferView":3,"componentType":5126,"count":144,"type":"VEC3"},{"bufferView":4,"componentType":5126,"count":144,"type":"VEC3"},{"bufferView":5,"componentType":5126,"count":144,"type":"VEC3"},{"bufferView":6,"componentType":5126,"count":144,"type":"VEC3"},{"bufferView":7,"componentType":5126,"count":144,"type":"SCALAR"},{"bufferView":8,"componentType":5125,"count":144,"type":"SCALAR"}],"materials":[{"name":"legacy-material-20","pbrMetallicRoughness":{"baseColorFactor":[1,1,1,1],"metallicFactor":0,"roughnessFactor":1,"baseColorTexture":{"index":0}},"doubleSided":true,"extras":{"legacyMaterial":20,"legacyShader":"dist/renderer-gl.js"}}],"extras":{"veldrenAssetId":"veldren:world-part:358a48278ddc334e029cef302ed70b4a8363a4532682ba0fa57d1a0dda4135ee"},"images":[{"name":"atlas-00","uri":"../../textures/atlas/tile-00.png"}],"textures":[{"source":0,"sampler":0}],"samplers":[{"magFilter":9729,"minFilter":9729,"wrapS":10497,"wrapT":10497}],"buffers":[{"uri":"358a48278ddc334e029cef302ed70b4a8363a4532682ba0fa57d1a0dda4135ee.bin","byteLength":12672}]}
