{"asset":{"version":"2.0","generator":"Veldren adapted asset recovery"},"scene":0,"scenes":[{"nodes":[0]}],"nodes":[{"name":"36b975c85ddc816026f4d7396aa64a8dc013881b506208e38789e03a86fd7cdd","mesh":0}],"meshes":[{"name":"36b975c85ddc816026f4d7396aa64a8dc013881b506208e38789e03a86fd7cdd","primitives":[{"attributes":{"POSITION":0,"NORMAL":1,"TEXCOORD_0":2,"COLOR_0":3,"_VELDREN_NORMAL":4,"_VELDREN_COLOR":5,"_VELDREN_FALLBACK":6,"_VELDREN_MATERIAL":7},"indices":8,"material":0,"extras":{"mixedAtlasFallback":false}},{"attributes":{"POSITION":0,"NORMAL":1,"TEXCOORD_0":2,"COLOR_0":3,"_VELDREN_NORMAL":4,"_VELDREN_COLOR":5,"_VELDREN_FALLBACK":6,"_VELDREN_MATERIAL":7},"indices":9,"material":1,"extras":{"mixedAtlasFallback":false}}]}],"bufferViews":[{"buffer":0,"byteOffset":0,"byteLength":2412,"target":34962},{"buffer":0,"byteOffset":2412,"byteLength":2412,"target":34962},{"buffer":0,"byteOffset":4824,"byteLength":1608,"target":34962},{"buffer":0,"byteOffset":6432,"byteLength":2412,"target":34962},{"buffer":0,"byteOffset":8844,"byteLength":2412,"target":34962},{"buffer":0,"byteOffset":11256,"byteLength":2412,"target":34962},{"buffer":0,"byteOffset":13668,"byteLength":2412,"target":34962},{"buffer":0,"byteOffset":16080,"byteLength":804,"target":34962},{"buffer":0,"byteOffset":16884,"byteLength":84,"target":34963},{"buffer":0,"byteOffset":16968,"byteLength":720,"target":34963}],"accessors":[{"bufferView":0,"componentType":5126,"count":201,"type":"VEC3","min":[30.440000534057617,-0.05196152254939079,98.9000015258789],"max":[34.560001373291016,2.577942371368408,102.0999984741211]},{"bufferView":1,"componentType":5126,"count":201,"type":"VEC3"},{"bufferView":2,"componentType":5126,"count":201,"type":"VEC2"},{"bufferView":3,"componentType":5126,"count":201,"type":"VEC3"},{"bufferView":4,"componentType":5126,"count":201,"type":"VEC3"},{"bufferView":5,"componentType":5126,"count":201,"type":"VEC3"},{"bufferView":6,"componentType":5126,"count":201,"type":"VEC3"},{"bufferView":7,"componentType":5126,"count":201,"type":"SCALAR"},{"bufferView":8,"componentType":5125,"count":21,"type":"SCALAR"},{"bufferView":9,"componentType":5125,"count":180,"type":"SCALAR"}],"materials":[{"name":"legacy-material-13","pbrMetallicRoughness":{"baseColorFactor":[1,1,1,1],"metallicFactor":0,"roughnessFactor":1},"doubleSided":true,"extras":{"legacyMaterial":13,"legacyShader":"dist/renderer-gl.js","limitation":"Browser procedural material not implemented by this glTF export; source/base attributes retained."}},{"name":"legacy-material-20","pbrMetallicRoughness":{"baseColorFactor":[1,1,1,1],"metallicFactor":0,"roughnessFactor":1,"baseColorTexture":{"index":0}},"doubleSided":true,"extras":{"legacyMaterial":20,"legacyShader":"dist/renderer-gl.js"}}],"extras":{"veldrenAssetId":"veldren:world-part:36b975c85ddc816026f4d7396aa64a8dc013881b506208e38789e03a86fd7cdd"},"images":[{"name":"atlas-00","uri":"../../textures/atlas/tile-00.png"}],"textures":[{"source":0,"sampler":0}],"samplers":[{"magFilter":9729,"minFilter":9729,"wrapS":10497,"wrapT":10497}],"buffers":[{"uri":"36b975c85ddc816026f4d7396aa64a8dc013881b506208e38789e03a86fd7cdd.bin","byteLength":17688}]}
