{"asset":{"version":"2.0","generator":"Veldren adapted asset recovery"},"scene":0,"scenes":[{"nodes":[0]}],"nodes":[{"name":"386cffd659dcf99b15c3427e1ca3d37b9e54ee49bb2412df51642a6f71af9443","mesh":0}],"meshes":[{"name":"386cffd659dcf99b15c3427e1ca3d37b9e54ee49bb2412df51642a6f71af9443","primitives":[{"attributes":{"POSITION":0,"NORMAL":1,"TEXCOORD_0":2,"COLOR_0":3,"_VELDREN_NORMAL":4,"_VELDREN_COLOR":5,"_VELDREN_FALLBACK":6,"_VELDREN_MATERIAL":7},"indices":8,"material":0,"extras":{"mixedAtlasFallback":false}},{"attributes":{"POSITION":0,"NORMAL":1,"TEXCOORD_0":2,"COLOR_0":3,"_VELDREN_NORMAL":4,"_VELDREN_COLOR":5,"_VELDREN_FALLBACK":6,"_VELDREN_MATERIAL":7},"indices":9,"material":1,"extras":{"mixedAtlasFallback":false}},{"attributes":{"POSITION":0,"NORMAL":1,"TEXCOORD_0":2,"COLOR_0":3,"_VELDREN_NORMAL":4,"_VELDREN_COLOR":5,"_VELDREN_FALLBACK":6,"_VELDREN_MATERIAL":7},"indices":10,"material":2,"extras":{"mixedAtlasFallback":false}}]}],"bufferViews":[{"buffer":0,"byteOffset":0,"byteLength":912,"target":34962},{"buffer":0,"byteOffset":912,"byteLength":912,"target":34962},{"buffer":0,"byteOffset":1824,"byteLength":608,"target":34962},{"buffer":0,"byteOffset":2432,"byteLength":912,"target":34962},{"buffer":0,"byteOffset":3344,"byteLength":912,"target":34962},{"buffer":0,"byteOffset":4256,"byteLength":912,"target":34962},{"buffer":0,"byteOffset":5168,"byteLength":912,"target":34962},{"buffer":0,"byteOffset":6080,"byteLength":304,"target":34962},{"buffer":0,"byteOffset":6384,"byteLength":600,"target":34963},{"buffer":0,"byteOffset":6984,"byteLength":24,"target":34963},{"buffer":0,"byteOffset":7008,"byteLength":48,"target":34963}],"accessors":[{"bufferView":0,"componentType":5126,"count":76,"type":"VEC3","min":[-1.0000001192092896,0.0,-0.3140353262424469],"max":[1.0,3.1226887702941895,0.09244640171527863]},{"bufferView":1,"componentType":5126,"count":76,"type":"VEC3"},{"bufferView":2,"componentType":5126,"count":76,"type":"VEC2"},{"bufferView":3,"componentType":5126,"count":76,"type":"VEC3"},{"bufferView":4,"componentType":5126,"count":76,"type":"VEC3"},{"bufferView":5,"componentType":5126,"count":76,"type":"VEC3"},{"bufferView":6,"componentType":5126,"count":76,"type":"VEC3"},{"bufferView":7,"componentType":5126,"count":76,"type":"SCALAR"},{"bufferView":8,"componentType":5125,"count":150,"type":"SCALAR"},{"bufferView":9,"componentType":5125,"count":6,"type":"SCALAR"},{"bufferView":10,"componentType":5125,"count":12,"type":"SCALAR"}],"materials":[{"name":"legacy-material-21","pbrMetallicRoughness":{"baseColorFactor":[1,1,1,1],"metallicFactor":0,"roughnessFactor":1,"baseColorTexture":{"index":0}},"doubleSided":true,"extras":{"legacyMaterial":21,"legacyShader":"dist/renderer-gl.js"}},{"name":"legacy-material-22","pbrMetallicRoughness":{"baseColorFactor":[1,1,1,1],"metallicFactor":0,"roughnessFactor":1,"baseColorTexture":{"index":1}},"doubleSided":true,"extras":{"legacyMaterial":22,"legacyShader":"dist/renderer-gl.js"}},{"name":"legacy-material-25","pbrMetallicRoughness":{"baseColorFactor":[1,1,1,1],"metallicFactor":0,"roughnessFactor":1,"baseColorTexture":{"index":2}},"doubleSided":true,"extras":{"legacyMaterial":25,"legacyShader":"dist/renderer-gl.js"}}],"extras":{"veldrenAssetId":"veldren:world-part:386cffd659dcf99b15c3427e1ca3d37b9e54ee49bb2412df51642a6f71af9443"},"images":[{"name":"atlas-01","uri":"../../textures/atlas/tile-01.png"},{"name":"atlas-02","uri":"../../textures/atlas/tile-02.png"},{"name":"atlas-05","uri":"../../textures/atlas/tile-05.png"}],"textures":[{"source":0,"sampler":0},{"source":1,"sampler":0},{"source":2,"sampler":0}],"samplers":[{"magFilter":9729,"minFilter":9729,"wrapS":10497,"wrapT":10497}],"buffers":[{"uri":"386cffd659dcf99b15c3427e1ca3d37b9e54ee49bb2412df51642a6f71af9443.bin","byteLength":7056}]}
