{"asset":{"version":"2.0","generator":"Veldren adapted asset recovery"},"scene":0,"scenes":[{"nodes":[0]}],"nodes":[{"name":"3936e48889930ca1a2bce826f2a5a58f5a10a082635e66bfb01f55abd3761348","mesh":0}],"meshes":[{"name":"3936e48889930ca1a2bce826f2a5a58f5a10a082635e66bfb01f55abd3761348","primitives":[{"attributes":{"POSITION":0,"NORMAL":1,"TEXCOORD_0":2,"COLOR_0":3,"_VELDREN_NORMAL":4,"_VELDREN_COLOR":5,"_VELDREN_FALLBACK":6,"_VELDREN_MATERIAL":7},"indices":8,"material":0,"extras":{"mixedAtlasFallback":false}},{"attributes":{"POSITION":0,"NORMAL":1,"TEXCOORD_0":2,"COLOR_0":3,"_VELDREN_NORMAL":4,"_VELDREN_COLOR":5,"_VELDREN_FALLBACK":6,"_VELDREN_MATERIAL":7},"indices":9,"material":1,"extras":{"mixedAtlasFallback":false}},{"attributes":{"POSITION":0,"NORMAL":1,"TEXCOORD_0":2,"COLOR_0":3,"_VELDREN_NORMAL":4,"_VELDREN_COLOR":5,"_VELDREN_FALLBACK":6,"_VELDREN_MATERIAL":7},"indices":10,"material":2,"extras":{"mixedAtlasFallback":false}},{"attributes":{"POSITION":0,"NORMAL":1,"TEXCOORD_0":2,"COLOR_0":3,"_VELDREN_NORMAL":4,"_VELDREN_COLOR":5,"_VELDREN_FALLBACK":6,"_VELDREN_MATERIAL":7},"indices":11,"material":3,"extras":{"mixedAtlasFallback":false}},{"attributes":{"POSITION":0,"NORMAL":1,"TEXCOORD_0":2,"COLOR_0":3,"_VELDREN_NORMAL":4,"_VELDREN_COLOR":5,"_VELDREN_FALLBACK":6,"_VELDREN_MATERIAL":7},"indices":12,"material":4,"extras":{"mixedAtlasFallback":false}},{"attributes":{"POSITION":0,"NORMAL":1,"TEXCOORD_0":2,"COLOR_0":3,"_VELDREN_NORMAL":4,"_VELDREN_COLOR":5,"_VELDREN_FALLBACK":6,"_VELDREN_MATERIAL":7},"indices":13,"material":5,"extras":{"mixedAtlasFallback":false}}]}],"bufferViews":[{"buffer":0,"byteOffset":0,"byteLength":121680,"target":34962},{"buffer":0,"byteOffset":121680,"byteLength":121680,"target":34962},{"buffer":0,"byteOffset":243360,"byteLength":81120,"target":34962},{"buffer":0,"byteOffset":324480,"byteLength":121680,"target":34962},{"buffer":0,"byteOffset":446160,"byteLength":121680,"target":34962},{"buffer":0,"byteOffset":567840,"byteLength":121680,"target":34962},{"buffer":0,"byteOffset":689520,"byteLength":121680,"target":34962},{"buffer":0,"byteOffset":811200,"byteLength":40560,"target":34962},{"buffer":0,"byteOffset":851760,"byteLength":18384,"target":34963},{"buffer":0,"byteOffset":870144,"byteLength":456,"target":34963},{"buffer":0,"byteOffset":870600,"byteLength":6048,"target":34963},{"buffer":0,"byteOffset":876648,"byteLength":12384,"target":34963},{"buffer":0,"byteOffset":889032,"byteLength":2712,"target":34963},{"buffer":0,"byteOffset":891744,"byteLength":576,"target":34963}],"accessors":[{"bufferView":0,"componentType":5126,"count":10140,"type":"VEC3","min":[326.489990234375,2.5762603282928467,77.51000213623047],"max":[342.510009765625,10.515010833740234,91.48711395263672]},{"bufferView":1,"componentType":5126,"count":10140,"type":"VEC3"},{"bufferView":2,"componentType":5126,"count":10140,"type":"VEC2"},{"bufferView":3,"componentType":5126,"count":10140,"type":"VEC3"},{"bufferView":4,"componentType":5126,"count":10140,"type":"VEC3"},{"bufferView":5,"componentType":5126,"count":10140,"type":"VEC3"},{"bufferView":6,"componentType":5126,"count":10140,"type":"VEC3"},{"bufferView":7,"componentType":5126,"count":10140,"type":"SCALAR"},{"bufferView":8,"componentType":5125,"count":4596,"type":"SCALAR"},{"bufferView":9,"componentType":5125,"count":114,"type":"SCALAR"},{"bufferView":10,"componentType":5125,"count":1512,"type":"SCALAR"},{"bufferView":11,"componentType":5125,"count":3096,"type":"SCALAR"},{"bufferView":12,"componentType":5125,"count":678,"type":"SCALAR"},{"bufferView":13,"componentType":5125,"count":144,"type":"SCALAR"}],"materials":[{"name":"legacy-material-5","pbrMetallicRoughness":{"baseColorFactor":[1,1,1,1],"metallicFactor":0,"roughnessFactor":1},"doubleSided":true,"extras":{"legacyMaterial":5,"legacyShader":"dist/renderer-gl.js","limitation":"Browser procedural material not implemented by this glTF export; source/base attributes retained."}},{"name":"legacy-material-13","pbrMetallicRoughness":{"baseColorFactor":[1,1,1,1],"metallicFactor":0,"roughnessFactor":1},"doubleSided":true,"extras":{"legacyMaterial":13,"legacyShader":"dist/renderer-gl.js","limitation":"Browser procedural material not implemented by this glTF export; source/base attributes retained."}},{"name":"legacy-material-20","pbrMetallicRoughness":{"baseColorFactor":[1,1,1,1],"metallicFactor":0,"roughnessFactor":1,"baseColorTexture":{"index":0}},"doubleSided":true,"extras":{"legacyMaterial":20,"legacyShader":"dist/renderer-gl.js"}},{"name":"legacy-material-17","pbrMetallicRoughness":{"baseColorFactor":[1,1,1,1],"metallicFactor":0,"roughnessFactor":1},"doubleSided":true,"extras":{"legacyMaterial":17,"legacyShader":"dist/renderer-gl.js","limitation":"Browser procedural material not implemented by this glTF export; source/base attributes retained."}},{"name":"legacy-material-7","pbrMetallicRoughness":{"baseColorFactor":[1,1,1,1],"metallicFactor":0,"roughnessFactor":1},"doubleSided":true,"extras":{"legacyMaterial":7,"legacyShader":"dist/renderer-gl.js","limitation":"Browser procedural material not implemented by this glTF export; source/base attributes retained."}},{"name":"legacy-material-6","pbrMetallicRoughness":{"baseColorFactor":[1,1,1,1],"metallicFactor":0,"roughnessFactor":1},"doubleSided":true,"extras":{"legacyMaterial":6,"legacyShader":"dist/renderer-gl.js","limitation":"Browser procedural material not implemented by this glTF export; source/base attributes retained."}}],"extras":{"veldrenAssetId":"veldren:world-part:3936e48889930ca1a2bce826f2a5a58f5a10a082635e66bfb01f55abd3761348"},"images":[{"name":"atlas-00","uri":"../../textures/atlas/tile-00.png"}],"textures":[{"source":0,"sampler":0}],"samplers":[{"magFilter":9729,"minFilter":9729,"wrapS":10497,"wrapT":10497}],"buffers":[{"uri":"3936e48889930ca1a2bce826f2a5a58f5a10a082635e66bfb01f55abd3761348.bin","byteLength":892320}]}
