{"asset":{"version":"2.0","generator":"Veldren adapted asset recovery"},"scene":0,"scenes":[{"nodes":[0]}],"nodes":[{"name":"3e1c8116b55b325e8d3c1c1cc3f6e9d44a93184bf11eefdda255cf64740e08cd","mesh":0}],"meshes":[{"name":"3e1c8116b55b325e8d3c1c1cc3f6e9d44a93184bf11eefdda255cf64740e08cd","primitives":[{"attributes":{"POSITION":0,"NORMAL":1,"TEXCOORD_0":2,"COLOR_0":3,"_VELDREN_NORMAL":4,"_VELDREN_COLOR":5,"_VELDREN_FALLBACK":6,"_VELDREN_MATERIAL":7},"indices":8,"material":0,"extras":{"mixedAtlasFallback":false}},{"attributes":{"POSITION":0,"NORMAL":1,"TEXCOORD_0":2,"COLOR_0":3,"_VELDREN_NORMAL":4,"_VELDREN_COLOR":5,"_VELDREN_FALLBACK":6,"_VELDREN_MATERIAL":7},"indices":9,"material":1,"extras":{"mixedAtlasFallback":false}},{"attributes":{"POSITION":0,"NORMAL":1,"TEXCOORD_0":2,"COLOR_0":3,"_VELDREN_NORMAL":4,"_VELDREN_COLOR":5,"_VELDREN_FALLBACK":6,"_VELDREN_MATERIAL":7},"indices":10,"material":2,"extras":{"mixedAtlasFallback":false}},{"attributes":{"POSITION":0,"NORMAL":1,"TEXCOORD_0":2,"COLOR_0":3,"_VELDREN_NORMAL":4,"_VELDREN_COLOR":5,"_VELDREN_FALLBACK":6,"_VELDREN_MATERIAL":7},"indices":11,"material":3,"extras":{"mixedAtlasFallback":false}},{"attributes":{"POSITION":0,"NORMAL":1,"TEXCOORD_0":2,"COLOR_0":3,"_VELDREN_NORMAL":4,"_VELDREN_COLOR":5,"_VELDREN_FALLBACK":6,"_VELDREN_MATERIAL":7},"indices":12,"material":4,"extras":{"mixedAtlasFallback":false}},{"attributes":{"POSITION":0,"NORMAL":1,"TEXCOORD_0":2,"COLOR_0":3,"_VELDREN_NORMAL":4,"_VELDREN_COLOR":5,"_VELDREN_FALLBACK":6,"_VELDREN_MATERIAL":7},"indices":13,"material":5,"extras":{"mixedAtlasFallback":false}}]}],"bufferViews":[{"buffer":0,"byteOffset":0,"byteLength":120384,"target":34962},{"buffer":0,"byteOffset":120384,"byteLength":120384,"target":34962},{"buffer":0,"byteOffset":240768,"byteLength":80256,"target":34962},{"buffer":0,"byteOffset":321024,"byteLength":120384,"target":34962},{"buffer":0,"byteOffset":441408,"byteLength":120384,"target":34962},{"buffer":0,"byteOffset":561792,"byteLength":120384,"target":34962},{"buffer":0,"byteOffset":682176,"byteLength":120384,"target":34962},{"buffer":0,"byteOffset":802560,"byteLength":40128,"target":34962},{"buffer":0,"byteOffset":842688,"byteLength":11472,"target":34963},{"buffer":0,"byteOffset":854160,"byteLength":72,"target":34963},{"buffer":0,"byteOffset":854232,"byteLength":8064,"target":34963},{"buffer":0,"byteOffset":862296,"byteLength":17856,"target":34963},{"buffer":0,"byteOffset":880152,"byteLength":576,"target":34963},{"buffer":0,"byteOffset":880728,"byteLength":2088,"target":34963}],"accessors":[{"bufferView":0,"componentType":5126,"count":10032,"type":"VEC3","min":[404.489990234375,2.2345757484436035,161.50999450683594],"max":[418.510009765625,7.554890155792236,174.4775848388672]},{"bufferView":1,"componentType":5126,"count":10032,"type":"VEC3"},{"bufferView":2,"componentType":5126,"count":10032,"type":"VEC2"},{"bufferView":3,"componentType":5126,"count":10032,"type":"VEC3"},{"bufferView":4,"componentType":5126,"count":10032,"type":"VEC3"},{"bufferView":5,"componentType":5126,"count":10032,"type":"VEC3"},{"bufferView":6,"componentType":5126,"count":10032,"type":"VEC3"},{"bufferView":7,"componentType":5126,"count":10032,"type":"SCALAR"},{"bufferView":8,"componentType":5125,"count":2868,"type":"SCALAR"},{"bufferView":9,"componentType":5125,"count":18,"type":"SCALAR"},{"bufferView":10,"componentType":5125,"count":2016,"type":"SCALAR"},{"bufferView":11,"componentType":5125,"count":4464,"type":"SCALAR"},{"bufferView":12,"componentType":5125,"count":144,"type":"SCALAR"},{"bufferView":13,"componentType":5125,"count":522,"type":"SCALAR"}],"materials":[{"name":"legacy-material-5","pbrMetallicRoughness":{"baseColorFactor":[1,1,1,1],"metallicFactor":0,"roughnessFactor":1},"doubleSided":true,"extras":{"legacyMaterial":5,"legacyShader":"dist/renderer-gl.js","limitation":"Browser procedural material not implemented by this glTF export; source/base attributes retained."}},{"name":"legacy-material-13","pbrMetallicRoughness":{"baseColorFactor":[1,1,1,1],"metallicFactor":0,"roughnessFactor":1},"doubleSided":true,"extras":{"legacyMaterial":13,"legacyShader":"dist/renderer-gl.js","limitation":"Browser procedural material not implemented by this glTF export; source/base attributes retained."}},{"name":"legacy-material-20","pbrMetallicRoughness":{"baseColorFactor":[1,1,1,1],"metallicFactor":0,"roughnessFactor":1,"baseColorTexture":{"index":0}},"doubleSided":true,"extras":{"legacyMaterial":20,"legacyShader":"dist/renderer-gl.js"}},{"name":"legacy-material-17","pbrMetallicRoughness":{"baseColorFactor":[1,1,1,1],"metallicFactor":0,"roughnessFactor":1},"doubleSided":true,"extras":{"legacyMaterial":17,"legacyShader":"dist/renderer-gl.js","limitation":"Browser procedural material not implemented by this glTF export; source/base attributes retained."}},{"name":"legacy-material-6","pbrMetallicRoughness":{"baseColorFactor":[1,1,1,1],"metallicFactor":0,"roughnessFactor":1},"doubleSided":true,"extras":{"legacyMaterial":6,"legacyShader":"dist/renderer-gl.js","limitation":"Browser procedural material not implemented by this glTF export; source/base attributes retained."}},{"name":"legacy-material-7","pbrMetallicRoughness":{"baseColorFactor":[1,1,1,1],"metallicFactor":0,"roughnessFactor":1},"doubleSided":true,"extras":{"legacyMaterial":7,"legacyShader":"dist/renderer-gl.js","limitation":"Browser procedural material not implemented by this glTF export; source/base attributes retained."}}],"extras":{"veldrenAssetId":"veldren:world-part:3e1c8116b55b325e8d3c1c1cc3f6e9d44a93184bf11eefdda255cf64740e08cd"},"images":[{"name":"atlas-00","uri":"../../textures/atlas/tile-00.png"}],"textures":[{"source":0,"sampler":0}],"samplers":[{"magFilter":9729,"minFilter":9729,"wrapS":10497,"wrapT":10497}],"buffers":[{"uri":"3e1c8116b55b325e8d3c1c1cc3f6e9d44a93184bf11eefdda255cf64740e08cd.bin","byteLength":882816}]}
