{"asset":{"version":"2.0","generator":"Veldren adapted asset recovery"},"scene":0,"scenes":[{"nodes":[0]}],"nodes":[{"name":"4160ad8e90aee2551c771bb00a530287c32e3bd849f24ec108afa3e9340b3a07","mesh":0}],"meshes":[{"name":"4160ad8e90aee2551c771bb00a530287c32e3bd849f24ec108afa3e9340b3a07","primitives":[{"attributes":{"POSITION":0,"NORMAL":1,"TEXCOORD_0":2,"COLOR_0":3,"_VELDREN_NORMAL":4,"_VELDREN_COLOR":5,"_VELDREN_FALLBACK":6,"_VELDREN_MATERIAL":7},"indices":8,"material":0,"extras":{"mixedAtlasFallback":false}}]}],"bufferViews":[{"buffer":0,"byteOffset":0,"byteLength":6480,"target":34962},{"buffer":0,"byteOffset":6480,"byteLength":6480,"target":34962},{"buffer":0,"byteOffset":12960,"byteLength":4320,"target":34962},{"buffer":0,"byteOffset":17280,"byteLength":6480,"target":34962},{"buffer":0,"byteOffset":23760,"byteLength":6480,"target":34962},{"buffer":0,"byteOffset":30240,"byteLength":6480,"target":34962},{"buffer":0,"byteOffset":36720,"byteLength":6480,"target":34962},{"buffer":0,"byteOffset":43200,"byteLength":2160,"target":34962},{"buffer":0,"byteOffset":45360,"byteLength":2160,"target":34963}],"accessors":[{"bufferView":0,"componentType":5126,"count":540,"type":"VEC3","min":[625.0250244140625,7.367687225341797,213.8459930419922],"max":[625.9749755859375,7.9325151443481445,215.1540069580078]},{"bufferView":1,"componentType":5126,"count":540,"type":"VEC3"},{"bufferView":2,"componentType":5126,"count":540,"type":"VEC2"},{"bufferView":3,"componentType":5126,"count":540,"type":"VEC3"},{"bufferView":4,"componentType":5126,"count":540,"type":"VEC3"},{"bufferView":5,"componentType":5126,"count":540,"type":"VEC3"},{"bufferView":6,"componentType":5126,"count":540,"type":"VEC3"},{"bufferView":7,"componentType":5126,"count":540,"type":"SCALAR"},{"bufferView":8,"componentType":5125,"count":540,"type":"SCALAR"}],"materials":[{"name":"legacy-material-5","pbrMetallicRoughness":{"baseColorFactor":[1,1,1,1],"metallicFactor":0,"roughnessFactor":1},"doubleSided":true,"extras":{"legacyMaterial":5,"legacyShader":"dist/renderer-gl.js","limitation":"Browser procedural material not implemented by this glTF export; source/base attributes retained."}}],"extras":{"veldrenAssetId":"veldren:world-part:4160ad8e90aee2551c771bb00a530287c32e3bd849f24ec108afa3e9340b3a07"},"buffers":[{"uri":"4160ad8e90aee2551c771bb00a530287c32e3bd849f24ec108afa3e9340b3a07.bin","byteLength":47520}]}
