{"asset":{"version":"2.0","generator":"Veldren adapted asset recovery"},"scene":0,"scenes":[{"nodes":[0]}],"nodes":[{"name":"41a0ea4834ebc597b74c322625d4b3fb4d4337c8b31ded8edc607916fcb69662","mesh":0}],"meshes":[{"name":"41a0ea4834ebc597b74c322625d4b3fb4d4337c8b31ded8edc607916fcb69662","primitives":[{"attributes":{"POSITION":0,"NORMAL":1,"TEXCOORD_0":2,"COLOR_0":3,"_VELDREN_NORMAL":4,"_VELDREN_COLOR":5,"_VELDREN_FALLBACK":6,"_VELDREN_MATERIAL":7},"indices":8,"material":0,"extras":{"mixedAtlasFallback":false}}]}],"bufferViews":[{"buffer":0,"byteOffset":0,"byteLength":1764,"target":34962},{"buffer":0,"byteOffset":1764,"byteLength":1764,"target":34962},{"buffer":0,"byteOffset":3528,"byteLength":1176,"target":34962},{"buffer":0,"byteOffset":4704,"byteLength":1764,"target":34962},{"buffer":0,"byteOffset":6468,"byteLength":1764,"target":34962},{"buffer":0,"byteOffset":8232,"byteLength":1764,"target":34962},{"buffer":0,"byteOffset":9996,"byteLength":1764,"target":34962},{"buffer":0,"byteOffset":11760,"byteLength":588,"target":34962},{"buffer":0,"byteOffset":12348,"byteLength":588,"target":34963}],"accessors":[{"bufferView":0,"componentType":5126,"count":147,"type":"VEC3","min":[-0.4207952618598938,0.014999999664723873,-0.29482752084732056],"max":[0.519493579864502,0.9599999785423279,0.3897172808647156]},{"bufferView":1,"componentType":5126,"count":147,"type":"VEC3"},{"bufferView":2,"componentType":5126,"count":147,"type":"VEC2"},{"bufferView":3,"componentType":5126,"count":147,"type":"VEC3"},{"bufferView":4,"componentType":5126,"count":147,"type":"VEC3"},{"bufferView":5,"componentType":5126,"count":147,"type":"VEC3"},{"bufferView":6,"componentType":5126,"count":147,"type":"VEC3"},{"bufferView":7,"componentType":5126,"count":147,"type":"SCALAR"},{"bufferView":8,"componentType":5125,"count":147,"type":"SCALAR"}],"materials":[{"name":"legacy-material-12","pbrMetallicRoughness":{"baseColorFactor":[1,1,1,1],"metallicFactor":0,"roughnessFactor":1},"doubleSided":true,"extras":{"legacyMaterial":12,"legacyShader":"dist/renderer-gl.js","limitation":"Browser procedural material not implemented by this glTF export; source/base attributes retained."}}],"extras":{"veldrenAssetId":"veldren:world-part:41a0ea4834ebc597b74c322625d4b3fb4d4337c8b31ded8edc607916fcb69662"},"buffers":[{"uri":"41a0ea4834ebc597b74c322625d4b3fb4d4337c8b31ded8edc607916fcb69662.bin","byteLength":12936}]}
