{"asset":{"version":"2.0","generator":"Veldren adapted asset recovery"},"scene":0,"scenes":[{"nodes":[0]}],"nodes":[{"name":"42a4131a7f9fe484a70590f8dd3499998303718cfb71bec957ec5894fb0867bf","mesh":0}],"meshes":[{"name":"42a4131a7f9fe484a70590f8dd3499998303718cfb71bec957ec5894fb0867bf","primitives":[{"attributes":{"POSITION":0,"NORMAL":1,"TEXCOORD_0":2,"COLOR_0":3,"_VELDREN_NORMAL":4,"_VELDREN_COLOR":5,"_VELDREN_FALLBACK":6,"_VELDREN_MATERIAL":7},"indices":8,"material":0,"extras":{"mixedAtlasFallback":false}}]}],"bufferViews":[{"buffer":0,"byteOffset":0,"byteLength":6396,"target":34962},{"buffer":0,"byteOffset":6396,"byteLength":6396,"target":34962},{"buffer":0,"byteOffset":12792,"byteLength":4264,"target":34962},{"buffer":0,"byteOffset":17056,"byteLength":6396,"target":34962},{"buffer":0,"byteOffset":23452,"byteLength":6396,"target":34962},{"buffer":0,"byteOffset":29848,"byteLength":6396,"target":34962},{"buffer":0,"byteOffset":36244,"byteLength":6396,"target":34962},{"buffer":0,"byteOffset":42640,"byteLength":2132,"target":34962},{"buffer":0,"byteOffset":44772,"byteLength":8760,"target":34963}],"accessors":[{"bufferView":0,"componentType":5126,"count":533,"type":"VEC3","min":[-0.1762866973876953,0.0014611477963626385,-0.0896759033203125],"max":[0.08463096618652344,0.15667979419231415,0.0896759033203125]},{"bufferView":1,"componentType":5126,"count":533,"type":"VEC3"},{"bufferView":2,"componentType":5126,"count":533,"type":"VEC2"},{"bufferView":3,"componentType":5126,"count":533,"type":"VEC3"},{"bufferView":4,"componentType":5126,"count":533,"type":"VEC3"},{"bufferView":5,"componentType":5126,"count":533,"type":"VEC3"},{"bufferView":6,"componentType":5126,"count":533,"type":"VEC3"},{"bufferView":7,"componentType":5126,"count":533,"type":"SCALAR"},{"bufferView":8,"componentType":5125,"count":2190,"type":"SCALAR"}],"materials":[{"name":"legacy-material-42","pbrMetallicRoughness":{"baseColorFactor":[1,1,1,1],"metallicFactor":0,"roughnessFactor":1,"baseColorTexture":{"index":0}},"doubleSided":true,"extras":{"legacyMaterial":42,"legacyShader":"dist/renderer-gl.js"}}],"extras":{"veldrenAssetId":"veldren:world-part:42a4131a7f9fe484a70590f8dd3499998303718cfb71bec957ec5894fb0867bf"},"images":[{"name":"atlas-22","uri":"../../textures/atlas/tile-22.png"}],"textures":[{"source":0,"sampler":0}],"samplers":[{"magFilter":9729,"minFilter":9729,"wrapS":10497,"wrapT":10497}],"buffers":[{"uri":"42a4131a7f9fe484a70590f8dd3499998303718cfb71bec957ec5894fb0867bf.bin","byteLength":53532}]}
