{"asset":{"version":"2.0","generator":"Veldren adapted asset recovery"},"scene":0,"scenes":[{"nodes":[0]}],"nodes":[{"name":"42b5a2a15ff96ad19086144f7f607fd67a147f0496367cc1adab0a616605ac74","mesh":0}],"meshes":[{"name":"42b5a2a15ff96ad19086144f7f607fd67a147f0496367cc1adab0a616605ac74","primitives":[{"attributes":{"POSITION":0,"NORMAL":1,"TEXCOORD_0":2,"COLOR_0":3,"_VELDREN_NORMAL":4,"_VELDREN_COLOR":5,"_VELDREN_FALLBACK":6,"_VELDREN_MATERIAL":7},"indices":8,"material":0,"extras":{"mixedAtlasFallback":false}}]}],"bufferViews":[{"buffer":0,"byteOffset":0,"byteLength":31104,"target":34962},{"buffer":0,"byteOffset":31104,"byteLength":31104,"target":34962},{"buffer":0,"byteOffset":62208,"byteLength":20736,"target":34962},{"buffer":0,"byteOffset":82944,"byteLength":31104,"target":34962},{"buffer":0,"byteOffset":114048,"byteLength":31104,"target":34962},{"buffer":0,"byteOffset":145152,"byteLength":31104,"target":34962},{"buffer":0,"byteOffset":176256,"byteLength":31104,"target":34962},{"buffer":0,"byteOffset":207360,"byteLength":10368,"target":34962},{"buffer":0,"byteOffset":217728,"byteLength":10368,"target":34963}],"accessors":[{"bufferView":0,"componentType":5126,"count":2592,"type":"VEC3","min":[163.98500061035156,3.745900869369507,142.10499572753906],"max":[166.8000030517578,3.795400857925415,142.89500427246094]},{"bufferView":1,"componentType":5126,"count":2592,"type":"VEC3"},{"bufferView":2,"componentType":5126,"count":2592,"type":"VEC2"},{"bufferView":3,"componentType":5126,"count":2592,"type":"VEC3"},{"bufferView":4,"componentType":5126,"count":2592,"type":"VEC3"},{"bufferView":5,"componentType":5126,"count":2592,"type":"VEC3"},{"bufferView":6,"componentType":5126,"count":2592,"type":"VEC3"},{"bufferView":7,"componentType":5126,"count":2592,"type":"SCALAR"},{"bufferView":8,"componentType":5125,"count":2592,"type":"SCALAR"}],"materials":[{"name":"legacy-material-20","pbrMetallicRoughness":{"baseColorFactor":[1,1,1,1],"metallicFactor":0,"roughnessFactor":1,"baseColorTexture":{"index":0}},"doubleSided":true,"extras":{"legacyMaterial":20,"legacyShader":"dist/renderer-gl.js"}}],"extras":{"veldrenAssetId":"veldren:world-part:42b5a2a15ff96ad19086144f7f607fd67a147f0496367cc1adab0a616605ac74"},"images":[{"name":"atlas-00","uri":"../../textures/atlas/tile-00.png"}],"textures":[{"source":0,"sampler":0}],"samplers":[{"magFilter":9729,"minFilter":9729,"wrapS":10497,"wrapT":10497}],"buffers":[{"uri":"42b5a2a15ff96ad19086144f7f607fd67a147f0496367cc1adab0a616605ac74.bin","byteLength":228096}]}
