{"asset":{"version":"2.0","generator":"Veldren adapted asset recovery"},"scene":0,"scenes":[{"nodes":[0]}],"nodes":[{"name":"43920fc5291a0182db91a0b8239996d652f1ff5221d9f79c61130664995675c1","mesh":0}],"meshes":[{"name":"43920fc5291a0182db91a0b8239996d652f1ff5221d9f79c61130664995675c1","primitives":[{"attributes":{"POSITION":0,"NORMAL":1,"TEXCOORD_0":2,"COLOR_0":3,"_VELDREN_NORMAL":4,"_VELDREN_COLOR":5,"_VELDREN_FALLBACK":6,"_VELDREN_MATERIAL":7},"indices":8,"material":0,"extras":{"mixedAtlasFallback":false}},{"attributes":{"POSITION":0,"NORMAL":1,"TEXCOORD_0":2,"COLOR_0":3,"_VELDREN_NORMAL":4,"_VELDREN_COLOR":5,"_VELDREN_FALLBACK":6,"_VELDREN_MATERIAL":7},"indices":9,"material":1,"extras":{"mixedAtlasFallback":false}},{"attributes":{"POSITION":0,"NORMAL":1,"TEXCOORD_0":2,"COLOR_0":3,"_VELDREN_NORMAL":4,"_VELDREN_COLOR":5,"_VELDREN_FALLBACK":6,"_VELDREN_MATERIAL":7},"indices":10,"material":2,"extras":{"mixedAtlasFallback":false}},{"attributes":{"POSITION":0,"NORMAL":1,"TEXCOORD_0":2,"COLOR_0":3,"_VELDREN_NORMAL":4,"_VELDREN_COLOR":5,"_VELDREN_FALLBACK":6,"_VELDREN_MATERIAL":7},"indices":11,"material":3,"extras":{"mixedAtlasFallback":false}},{"attributes":{"POSITION":0,"NORMAL":1,"TEXCOORD_0":2,"COLOR_0":3,"_VELDREN_NORMAL":4,"_VELDREN_COLOR":5,"_VELDREN_FALLBACK":6,"_VELDREN_MATERIAL":7},"indices":12,"material":4,"extras":{"mixedAtlasFallback":false}},{"attributes":{"POSITION":0,"NORMAL":1,"TEXCOORD_0":2,"COLOR_0":3,"_VELDREN_NORMAL":4,"_VELDREN_COLOR":5,"_VELDREN_FALLBACK":6,"_VELDREN_MATERIAL":7},"indices":13,"material":5,"extras":{"mixedAtlasFallback":false}}]}],"bufferViews":[{"buffer":0,"byteOffset":0,"byteLength":77904,"target":34962},{"buffer":0,"byteOffset":77904,"byteLength":77904,"target":34962},{"buffer":0,"byteOffset":155808,"byteLength":51936,"target":34962},{"buffer":0,"byteOffset":207744,"byteLength":77904,"target":34962},{"buffer":0,"byteOffset":285648,"byteLength":77904,"target":34962},{"buffer":0,"byteOffset":363552,"byteLength":77904,"target":34962},{"buffer":0,"byteOffset":441456,"byteLength":77904,"target":34962},{"buffer":0,"byteOffset":519360,"byteLength":25968,"target":34962},{"buffer":0,"byteOffset":545328,"byteLength":12672,"target":34963},{"buffer":0,"byteOffset":558000,"byteLength":72,"target":34963},{"buffer":0,"byteOffset":558072,"byteLength":4032,"target":34963},{"buffer":0,"byteOffset":562104,"byteLength":6144,"target":34963},{"buffer":0,"byteOffset":568248,"byteLength":2472,"target":34963},{"buffer":0,"byteOffset":570720,"byteLength":576,"target":34963}],"accessors":[{"bufferView":0,"componentType":5126,"count":6492,"type":"VEC3","min":[38.5099983215332,0.8050000071525574,73.48999786376953],"max":[47.47758483886719,5.842800140380859,83.51000213623047]},{"bufferView":1,"componentType":5126,"count":6492,"type":"VEC3"},{"bufferView":2,"componentType":5126,"count":6492,"type":"VEC2"},{"bufferView":3,"componentType":5126,"count":6492,"type":"VEC3"},{"bufferView":4,"componentType":5126,"count":6492,"type":"VEC3"},{"bufferView":5,"componentType":5126,"count":6492,"type":"VEC3"},{"bufferView":6,"componentType":5126,"count":6492,"type":"VEC3"},{"bufferView":7,"componentType":5126,"count":6492,"type":"SCALAR"},{"bufferView":8,"componentType":5125,"count":3168,"type":"SCALAR"},{"bufferView":9,"componentType":5125,"count":18,"type":"SCALAR"},{"bufferView":10,"componentType":5125,"count":1008,"type":"SCALAR"},{"bufferView":11,"componentType":5125,"count":1536,"type":"SCALAR"},{"bufferView":12,"componentType":5125,"count":618,"type":"SCALAR"},{"bufferView":13,"componentType":5125,"count":144,"type":"SCALAR"}],"materials":[{"name":"legacy-material-5","pbrMetallicRoughness":{"baseColorFactor":[1,1,1,1],"metallicFactor":0,"roughnessFactor":1},"doubleSided":true,"extras":{"legacyMaterial":5,"legacyShader":"dist/renderer-gl.js","limitation":"Browser procedural material not implemented by this glTF export; source/base attributes retained."}},{"name":"legacy-material-13","pbrMetallicRoughness":{"baseColorFactor":[1,1,1,1],"metallicFactor":0,"roughnessFactor":1},"doubleSided":true,"extras":{"legacyMaterial":13,"legacyShader":"dist/renderer-gl.js","limitation":"Browser procedural material not implemented by this glTF export; source/base attributes retained."}},{"name":"legacy-material-20","pbrMetallicRoughness":{"baseColorFactor":[1,1,1,1],"metallicFactor":0,"roughnessFactor":1,"baseColorTexture":{"index":0}},"doubleSided":true,"extras":{"legacyMaterial":20,"legacyShader":"dist/renderer-gl.js"}},{"name":"legacy-material-17","pbrMetallicRoughness":{"baseColorFactor":[1,1,1,1],"metallicFactor":0,"roughnessFactor":1},"doubleSided":true,"extras":{"legacyMaterial":17,"legacyShader":"dist/renderer-gl.js","limitation":"Browser procedural material not implemented by this glTF export; source/base attributes retained."}},{"name":"legacy-material-7","pbrMetallicRoughness":{"baseColorFactor":[1,1,1,1],"metallicFactor":0,"roughnessFactor":1},"doubleSided":true,"extras":{"legacyMaterial":7,"legacyShader":"dist/renderer-gl.js","limitation":"Browser procedural material not implemented by this glTF export; source/base attributes retained."}},{"name":"legacy-material-6","pbrMetallicRoughness":{"baseColorFactor":[1,1,1,1],"metallicFactor":0,"roughnessFactor":1},"doubleSided":true,"extras":{"legacyMaterial":6,"legacyShader":"dist/renderer-gl.js","limitation":"Browser procedural material not implemented by this glTF export; source/base attributes retained."}}],"extras":{"veldrenAssetId":"veldren:world-part:43920fc5291a0182db91a0b8239996d652f1ff5221d9f79c61130664995675c1"},"images":[{"name":"atlas-00","uri":"../../textures/atlas/tile-00.png"}],"textures":[{"source":0,"sampler":0}],"samplers":[{"magFilter":9729,"minFilter":9729,"wrapS":10497,"wrapT":10497}],"buffers":[{"uri":"43920fc5291a0182db91a0b8239996d652f1ff5221d9f79c61130664995675c1.bin","byteLength":571296}]}
