{"asset":{"version":"2.0","generator":"Veldren adapted asset recovery"},"scene":0,"scenes":[{"nodes":[0]}],"nodes":[{"name":"4553b941d38103213f650d600e24369aafe2337a9ec0c4530ac17aeb107b111c","mesh":0}],"meshes":[{"name":"4553b941d38103213f650d600e24369aafe2337a9ec0c4530ac17aeb107b111c","primitives":[{"attributes":{"POSITION":0,"NORMAL":1,"TEXCOORD_0":2,"COLOR_0":3,"_VELDREN_NORMAL":4,"_VELDREN_COLOR":5,"_VELDREN_FALLBACK":6,"_VELDREN_MATERIAL":7},"indices":8,"material":0,"extras":{"mixedAtlasFallback":false}},{"attributes":{"POSITION":0,"NORMAL":1,"TEXCOORD_0":2,"COLOR_0":3,"_VELDREN_NORMAL":4,"_VELDREN_COLOR":5,"_VELDREN_FALLBACK":6,"_VELDREN_MATERIAL":7},"indices":9,"material":1,"extras":{"mixedAtlasFallback":false}},{"attributes":{"POSITION":0,"NORMAL":1,"TEXCOORD_0":2,"COLOR_0":3,"_VELDREN_NORMAL":4,"_VELDREN_COLOR":5,"_VELDREN_FALLBACK":6,"_VELDREN_MATERIAL":7},"indices":10,"material":2,"extras":{"mixedAtlasFallback":false}}]}],"bufferViews":[{"buffer":0,"byteOffset":0,"byteLength":3456,"target":34962},{"buffer":0,"byteOffset":3456,"byteLength":3456,"target":34962},{"buffer":0,"byteOffset":6912,"byteLength":2304,"target":34962},{"buffer":0,"byteOffset":9216,"byteLength":3456,"target":34962},{"buffer":0,"byteOffset":12672,"byteLength":3456,"target":34962},{"buffer":0,"byteOffset":16128,"byteLength":3456,"target":34962},{"buffer":0,"byteOffset":19584,"byteLength":3456,"target":34962},{"buffer":0,"byteOffset":23040,"byteLength":1152,"target":34962},{"buffer":0,"byteOffset":24192,"byteLength":864,"target":34963},{"buffer":0,"byteOffset":25056,"byteLength":144,"target":34963},{"buffer":0,"byteOffset":25200,"byteLength":144,"target":34963}],"accessors":[{"bufferView":0,"componentType":5126,"count":288,"type":"VEC3","min":[370.7749938964844,4.85783576965332,297.8475036621094],"max":[372.2250061035156,7.707835674285889,299.1000061035156]},{"bufferView":1,"componentType":5126,"count":288,"type":"VEC3"},{"bufferView":2,"componentType":5126,"count":288,"type":"VEC2"},{"bufferView":3,"componentType":5126,"count":288,"type":"VEC3"},{"bufferView":4,"componentType":5126,"count":288,"type":"VEC3"},{"bufferView":5,"componentType":5126,"count":288,"type":"VEC3"},{"bufferView":6,"componentType":5126,"count":288,"type":"VEC3"},{"bufferView":7,"componentType":5126,"count":288,"type":"SCALAR"},{"bufferView":8,"componentType":5125,"count":216,"type":"SCALAR"},{"bufferView":9,"componentType":5125,"count":36,"type":"SCALAR"},{"bufferView":10,"componentType":5125,"count":36,"type":"SCALAR"}],"materials":[{"name":"legacy-material-18","pbrMetallicRoughness":{"baseColorFactor":[1,1,1,1],"metallicFactor":0,"roughnessFactor":1},"doubleSided":true,"extras":{"legacyMaterial":18,"legacyShader":"dist/renderer-gl.js","limitation":"Browser procedural material not implemented by this glTF export; source/base attributes retained."}},{"name":"legacy-material-20","pbrMetallicRoughness":{"baseColorFactor":[1,1,1,1],"metallicFactor":0,"roughnessFactor":1,"baseColorTexture":{"index":0}},"doubleSided":true,"extras":{"legacyMaterial":20,"legacyShader":"dist/renderer-gl.js"}},{"name":"legacy-material-19","pbrMetallicRoughness":{"baseColorFactor":[1,1,1,1],"metallicFactor":0,"roughnessFactor":1},"doubleSided":true,"extras":{"legacyMaterial":19,"legacyShader":"dist/renderer-gl.js","limitation":"Browser procedural material not implemented by this glTF export; source/base attributes retained."}}],"extras":{"veldrenAssetId":"veldren:world-part:4553b941d38103213f650d600e24369aafe2337a9ec0c4530ac17aeb107b111c"},"images":[{"name":"atlas-00","uri":"../../textures/atlas/tile-00.png"}],"textures":[{"source":0,"sampler":0}],"samplers":[{"magFilter":9729,"minFilter":9729,"wrapS":10497,"wrapT":10497}],"buffers":[{"uri":"4553b941d38103213f650d600e24369aafe2337a9ec0c4530ac17aeb107b111c.bin","byteLength":25344}]}
