{"asset":{"version":"2.0","generator":"Veldren adapted asset recovery"},"scene":0,"scenes":[{"nodes":[0]}],"nodes":[{"name":"46095a6d9a398d015e8ec56b3a5409580794b1dafbc2f8a3efb6970a817fe113","mesh":0}],"meshes":[{"name":"46095a6d9a398d015e8ec56b3a5409580794b1dafbc2f8a3efb6970a817fe113","primitives":[{"attributes":{"POSITION":0,"NORMAL":1,"TEXCOORD_0":2,"COLOR_0":3,"_VELDREN_NORMAL":4,"_VELDREN_COLOR":5,"_VELDREN_FALLBACK":6,"_VELDREN_MATERIAL":7},"indices":8,"material":0,"extras":{"mixedAtlasFallback":false}},{"attributes":{"POSITION":0,"NORMAL":1,"TEXCOORD_0":2,"COLOR_0":3,"_VELDREN_NORMAL":4,"_VELDREN_COLOR":5,"_VELDREN_FALLBACK":6,"_VELDREN_MATERIAL":7},"indices":9,"material":1,"extras":{"mixedAtlasFallback":false}},{"attributes":{"POSITION":0,"NORMAL":1,"TEXCOORD_0":2,"COLOR_0":3,"_VELDREN_NORMAL":4,"_VELDREN_COLOR":5,"_VELDREN_FALLBACK":6,"_VELDREN_MATERIAL":7},"indices":10,"material":2,"extras":{"mixedAtlasFallback":false}},{"attributes":{"POSITION":0,"NORMAL":1,"TEXCOORD_0":2,"COLOR_0":3,"_VELDREN_NORMAL":4,"_VELDREN_COLOR":5,"_VELDREN_FALLBACK":6,"_VELDREN_MATERIAL":7},"indices":11,"material":3,"extras":{"mixedAtlasFallback":false}},{"attributes":{"POSITION":0,"NORMAL":1,"TEXCOORD_0":2,"COLOR_0":3,"_VELDREN_NORMAL":4,"_VELDREN_COLOR":5,"_VELDREN_FALLBACK":6,"_VELDREN_MATERIAL":7},"indices":12,"material":4,"extras":{"mixedAtlasFallback":false}},{"attributes":{"POSITION":0,"NORMAL":1,"TEXCOORD_0":2,"COLOR_0":3,"_VELDREN_NORMAL":4,"_VELDREN_COLOR":5,"_VELDREN_FALLBACK":6,"_VELDREN_MATERIAL":7},"indices":13,"material":5,"extras":{"mixedAtlasFallback":false}}]}],"bufferViews":[{"buffer":0,"byteOffset":0,"byteLength":79128,"target":34962},{"buffer":0,"byteOffset":79128,"byteLength":79128,"target":34962},{"buffer":0,"byteOffset":158256,"byteLength":52752,"target":34962},{"buffer":0,"byteOffset":211008,"byteLength":79128,"target":34962},{"buffer":0,"byteOffset":290136,"byteLength":79128,"target":34962},{"buffer":0,"byteOffset":369264,"byteLength":79128,"target":34962},{"buffer":0,"byteOffset":448392,"byteLength":79128,"target":34962},{"buffer":0,"byteOffset":527520,"byteLength":26376,"target":34962},{"buffer":0,"byteOffset":553896,"byteLength":4848,"target":34963},{"buffer":0,"byteOffset":558744,"byteLength":72,"target":34963},{"buffer":0,"byteOffset":558816,"byteLength":18960,"target":34963},{"buffer":0,"byteOffset":577776,"byteLength":192,"target":34963},{"buffer":0,"byteOffset":577968,"byteLength":576,"target":34963},{"buffer":0,"byteOffset":578544,"byteLength":1728,"target":34963}],"accessors":[{"bufferView":0,"componentType":5126,"count":6594,"type":"VEC3","min":[836.489990234375,9.407509803771973,317.510009765625],"max":[852.510009765625,14.046884536743164,330.47760009765625]},{"bufferView":1,"componentType":5126,"count":6594,"type":"VEC3"},{"bufferView":2,"componentType":5126,"count":6594,"type":"VEC2"},{"bufferView":3,"componentType":5126,"count":6594,"type":"VEC3"},{"bufferView":4,"componentType":5126,"count":6594,"type":"VEC3"},{"bufferView":5,"componentType":5126,"count":6594,"type":"VEC3"},{"bufferView":6,"componentType":5126,"count":6594,"type":"VEC3"},{"bufferView":7,"componentType":5126,"count":6594,"type":"SCALAR"},{"bufferView":8,"componentType":5125,"count":1212,"type":"SCALAR"},{"bufferView":9,"componentType":5125,"count":18,"type":"SCALAR"},{"bufferView":10,"componentType":5125,"count":4740,"type":"SCALAR"},{"bufferView":11,"componentType":5125,"count":48,"type":"SCALAR"},{"bufferView":12,"componentType":5125,"count":144,"type":"SCALAR"},{"bufferView":13,"componentType":5125,"count":432,"type":"SCALAR"}],"materials":[{"name":"legacy-material-5","pbrMetallicRoughness":{"baseColorFactor":[1,1,1,1],"metallicFactor":0,"roughnessFactor":1},"doubleSided":true,"extras":{"legacyMaterial":5,"legacyShader":"dist/renderer-gl.js","limitation":"Browser procedural material not implemented by this glTF export; source/base attributes retained."}},{"name":"legacy-material-13","pbrMetallicRoughness":{"baseColorFactor":[1,1,1,1],"metallicFactor":0,"roughnessFactor":1},"doubleSided":true,"extras":{"legacyMaterial":13,"legacyShader":"dist/renderer-gl.js","limitation":"Browser procedural material not implemented by this glTF export; source/base attributes retained."}},{"name":"legacy-material-17","pbrMetallicRoughness":{"baseColorFactor":[1,1,1,1],"metallicFactor":0,"roughnessFactor":1},"doubleSided":true,"extras":{"legacyMaterial":17,"legacyShader":"dist/renderer-gl.js","limitation":"Browser procedural material not implemented by this glTF export; source/base attributes retained."}},{"name":"legacy-material-6","pbrMetallicRoughness":{"baseColorFactor":[1,1,1,1],"metallicFactor":0,"roughnessFactor":1},"doubleSided":true,"extras":{"legacyMaterial":6,"legacyShader":"dist/renderer-gl.js","limitation":"Browser procedural material not implemented by this glTF export; source/base attributes retained."}},{"name":"legacy-material-18","pbrMetallicRoughness":{"baseColorFactor":[1,1,1,1],"metallicFactor":0,"roughnessFactor":1},"doubleSided":true,"extras":{"legacyMaterial":18,"legacyShader":"dist/renderer-gl.js","limitation":"Browser procedural material not implemented by this glTF export; source/base attributes retained."}},{"name":"legacy-material-20","pbrMetallicRoughness":{"baseColorFactor":[1,1,1,1],"metallicFactor":0,"roughnessFactor":1,"baseColorTexture":{"index":0}},"doubleSided":true,"extras":{"legacyMaterial":20,"legacyShader":"dist/renderer-gl.js"}}],"extras":{"veldrenAssetId":"veldren:world-part:46095a6d9a398d015e8ec56b3a5409580794b1dafbc2f8a3efb6970a817fe113"},"images":[{"name":"atlas-00","uri":"../../textures/atlas/tile-00.png"}],"textures":[{"source":0,"sampler":0}],"samplers":[{"magFilter":9729,"minFilter":9729,"wrapS":10497,"wrapT":10497}],"buffers":[{"uri":"46095a6d9a398d015e8ec56b3a5409580794b1dafbc2f8a3efb6970a817fe113.bin","byteLength":580272}]}
