{"asset":{"version":"2.0","generator":"Veldren adapted asset recovery"},"scene":0,"scenes":[{"nodes":[0]}],"nodes":[{"name":"46a95bea45060e9f266c58ae5127c0d9178a5565383ee3df045a4f86278b0f50","mesh":0}],"meshes":[{"name":"46a95bea45060e9f266c58ae5127c0d9178a5565383ee3df045a4f86278b0f50","primitives":[{"attributes":{"POSITION":0,"NORMAL":1,"TEXCOORD_0":2,"COLOR_0":3,"_VELDREN_NORMAL":4,"_VELDREN_COLOR":5,"_VELDREN_FALLBACK":6,"_VELDREN_MATERIAL":7},"indices":8,"material":0,"extras":{"mixedAtlasFallback":false}},{"attributes":{"POSITION":0,"NORMAL":1,"TEXCOORD_0":2,"COLOR_0":3,"_VELDREN_NORMAL":4,"_VELDREN_COLOR":5,"_VELDREN_FALLBACK":6,"_VELDREN_MATERIAL":7},"indices":9,"material":1,"extras":{"mixedAtlasFallback":false}}]}],"bufferViews":[{"buffer":0,"byteOffset":0,"byteLength":10512,"target":34962},{"buffer":0,"byteOffset":10512,"byteLength":10512,"target":34962},{"buffer":0,"byteOffset":21024,"byteLength":7008,"target":34962},{"buffer":0,"byteOffset":28032,"byteLength":10512,"target":34962},{"buffer":0,"byteOffset":38544,"byteLength":10512,"target":34962},{"buffer":0,"byteOffset":49056,"byteLength":10512,"target":34962},{"buffer":0,"byteOffset":59568,"byteLength":10512,"target":34962},{"buffer":0,"byteOffset":70080,"byteLength":3504,"target":34962},{"buffer":0,"byteOffset":73584,"byteLength":1200,"target":34963},{"buffer":0,"byteOffset":74784,"byteLength":2304,"target":34963}],"accessors":[{"bufferView":0,"componentType":5126,"count":876,"type":"VEC3","min":[361.0,5.6016387939453125,636.597900390625],"max":[370.0,13.05163860321045,640.402099609375]},{"bufferView":1,"componentType":5126,"count":876,"type":"VEC3"},{"bufferView":2,"componentType":5126,"count":876,"type":"VEC2"},{"bufferView":3,"componentType":5126,"count":876,"type":"VEC3"},{"bufferView":4,"componentType":5126,"count":876,"type":"VEC3"},{"bufferView":5,"componentType":5126,"count":876,"type":"VEC3"},{"bufferView":6,"componentType":5126,"count":876,"type":"VEC3"},{"bufferView":7,"componentType":5126,"count":876,"type":"SCALAR"},{"bufferView":8,"componentType":5125,"count":300,"type":"SCALAR"},{"bufferView":9,"componentType":5125,"count":576,"type":"SCALAR"}],"materials":[{"name":"legacy-material-5","pbrMetallicRoughness":{"baseColorFactor":[1,1,1,1],"metallicFactor":0,"roughnessFactor":1},"doubleSided":true,"extras":{"legacyMaterial":5,"legacyShader":"dist/renderer-gl.js","limitation":"Browser procedural material not implemented by this glTF export; source/base attributes retained."}},{"name":"legacy-material-20","pbrMetallicRoughness":{"baseColorFactor":[1,1,1,1],"metallicFactor":0,"roughnessFactor":1,"baseColorTexture":{"index":0}},"doubleSided":true,"extras":{"legacyMaterial":20,"legacyShader":"dist/renderer-gl.js"}}],"extras":{"veldrenAssetId":"veldren:world-part:46a95bea45060e9f266c58ae5127c0d9178a5565383ee3df045a4f86278b0f50"},"images":[{"name":"atlas-00","uri":"../../textures/atlas/tile-00.png"}],"textures":[{"source":0,"sampler":0}],"samplers":[{"magFilter":9729,"minFilter":9729,"wrapS":10497,"wrapT":10497}],"buffers":[{"uri":"46a95bea45060e9f266c58ae5127c0d9178a5565383ee3df045a4f86278b0f50.bin","byteLength":77088}]}
