{"asset":{"version":"2.0","generator":"Veldren adapted asset recovery"},"scene":0,"scenes":[{"nodes":[0]}],"nodes":[{"name":"477d90cdce3f46aaae82dbfd5180619c34807cf6d80b2732da8b8e819f29dbf9","mesh":0}],"meshes":[{"name":"477d90cdce3f46aaae82dbfd5180619c34807cf6d80b2732da8b8e819f29dbf9","primitives":[{"attributes":{"POSITION":0,"NORMAL":1,"TEXCOORD_0":2,"COLOR_0":3,"_VELDREN_NORMAL":4,"_VELDREN_COLOR":5,"_VELDREN_FALLBACK":6,"_VELDREN_MATERIAL":7},"indices":8,"material":0,"extras":{"mixedAtlasFallback":false}}]}],"bufferViews":[{"buffer":0,"byteOffset":0,"byteLength":31968,"target":34962},{"buffer":0,"byteOffset":31968,"byteLength":31968,"target":34962},{"buffer":0,"byteOffset":63936,"byteLength":21312,"target":34962},{"buffer":0,"byteOffset":85248,"byteLength":31968,"target":34962},{"buffer":0,"byteOffset":117216,"byteLength":31968,"target":34962},{"buffer":0,"byteOffset":149184,"byteLength":31968,"target":34962},{"buffer":0,"byteOffset":181152,"byteLength":31968,"target":34962},{"buffer":0,"byteOffset":213120,"byteLength":10656,"target":34962},{"buffer":0,"byteOffset":223776,"byteLength":10656,"target":34963}],"accessors":[{"bufferView":0,"componentType":5126,"count":2664,"type":"VEC3","min":[156.77499389648438,1.831676959991455,142.89999389648438],"max":[158.61590576171875,2.78513765335083,144.10000610351562]},{"bufferView":1,"componentType":5126,"count":2664,"type":"VEC3"},{"bufferView":2,"componentType":5126,"count":2664,"type":"VEC2"},{"bufferView":3,"componentType":5126,"count":2664,"type":"VEC3"},{"bufferView":4,"componentType":5126,"count":2664,"type":"VEC3"},{"bufferView":5,"componentType":5126,"count":2664,"type":"VEC3"},{"bufferView":6,"componentType":5126,"count":2664,"type":"VEC3"},{"bufferView":7,"componentType":5126,"count":2664,"type":"SCALAR"},{"bufferView":8,"componentType":5125,"count":2664,"type":"SCALAR"}],"materials":[{"name":"legacy-material-20","pbrMetallicRoughness":{"baseColorFactor":[1,1,1,1],"metallicFactor":0,"roughnessFactor":1,"baseColorTexture":{"index":0}},"doubleSided":true,"extras":{"legacyMaterial":20,"legacyShader":"dist/renderer-gl.js"}}],"extras":{"veldrenAssetId":"veldren:world-part:477d90cdce3f46aaae82dbfd5180619c34807cf6d80b2732da8b8e819f29dbf9"},"images":[{"name":"atlas-00","uri":"../../textures/atlas/tile-00.png"}],"textures":[{"source":0,"sampler":0}],"samplers":[{"magFilter":9729,"minFilter":9729,"wrapS":10497,"wrapT":10497}],"buffers":[{"uri":"477d90cdce3f46aaae82dbfd5180619c34807cf6d80b2732da8b8e819f29dbf9.bin","byteLength":234432}]}
