{"asset":{"version":"2.0","generator":"Veldren adapted asset recovery"},"scene":0,"scenes":[{"nodes":[0]}],"nodes":[{"name":"477e3b89b7e07f6de6c8a32c3cc6f4da399911f7cd12778b35e4243d4c9f81b0","mesh":0}],"meshes":[{"name":"477e3b89b7e07f6de6c8a32c3cc6f4da399911f7cd12778b35e4243d4c9f81b0","primitives":[{"attributes":{"POSITION":0,"NORMAL":1,"TEXCOORD_0":2,"COLOR_0":3,"_VELDREN_NORMAL":4,"_VELDREN_COLOR":5,"_VELDREN_FALLBACK":6,"_VELDREN_MATERIAL":7},"indices":8,"material":0,"extras":{"mixedAtlasFallback":false}}]}],"bufferViews":[{"buffer":0,"byteOffset":0,"byteLength":2880,"target":34962},{"buffer":0,"byteOffset":2880,"byteLength":2880,"target":34962},{"buffer":0,"byteOffset":5760,"byteLength":1920,"target":34962},{"buffer":0,"byteOffset":7680,"byteLength":2880,"target":34962},{"buffer":0,"byteOffset":10560,"byteLength":2880,"target":34962},{"buffer":0,"byteOffset":13440,"byteLength":2880,"target":34962},{"buffer":0,"byteOffset":16320,"byteLength":2880,"target":34962},{"buffer":0,"byteOffset":19200,"byteLength":960,"target":34962},{"buffer":0,"byteOffset":20160,"byteLength":960,"target":34963}],"accessors":[{"bufferView":0,"componentType":5126,"count":240,"type":"VEC3","min":[227.2899932861328,7.29360818862915,143.3350067138672],"max":[227.7100067138672,7.5936079025268555,143.6649932861328]},{"bufferView":1,"componentType":5126,"count":240,"type":"VEC3"},{"bufferView":2,"componentType":5126,"count":240,"type":"VEC2"},{"bufferView":3,"componentType":5126,"count":240,"type":"VEC3"},{"bufferView":4,"componentType":5126,"count":240,"type":"VEC3"},{"bufferView":5,"componentType":5126,"count":240,"type":"VEC3"},{"bufferView":6,"componentType":5126,"count":240,"type":"VEC3"},{"bufferView":7,"componentType":5126,"count":240,"type":"SCALAR"},{"bufferView":8,"componentType":5125,"count":240,"type":"SCALAR"}],"materials":[{"name":"legacy-material-20","pbrMetallicRoughness":{"baseColorFactor":[1,1,1,1],"metallicFactor":0,"roughnessFactor":1,"baseColorTexture":{"index":0}},"doubleSided":true,"extras":{"legacyMaterial":20,"legacyShader":"dist/renderer-gl.js"}}],"extras":{"veldrenAssetId":"veldren:world-part:477e3b89b7e07f6de6c8a32c3cc6f4da399911f7cd12778b35e4243d4c9f81b0"},"images":[{"name":"atlas-00","uri":"../../textures/atlas/tile-00.png"}],"textures":[{"source":0,"sampler":0}],"samplers":[{"magFilter":9729,"minFilter":9729,"wrapS":10497,"wrapT":10497}],"buffers":[{"uri":"477e3b89b7e07f6de6c8a32c3cc6f4da399911f7cd12778b35e4243d4c9f81b0.bin","byteLength":21120}]}
