{"asset":{"version":"2.0","generator":"Veldren adapted asset recovery"},"scene":0,"scenes":[{"nodes":[0]}],"nodes":[{"name":"4e33f3b62383e13f1a6c863d0a2dcc2ca393bd77fb320532e6d87143a33c492e","mesh":0}],"meshes":[{"name":"4e33f3b62383e13f1a6c863d0a2dcc2ca393bd77fb320532e6d87143a33c492e","primitives":[{"attributes":{"POSITION":0,"NORMAL":1,"TEXCOORD_0":2,"COLOR_0":3,"_VELDREN_NORMAL":4,"_VELDREN_COLOR":5,"_VELDREN_FALLBACK":6,"_VELDREN_MATERIAL":7},"indices":8,"material":0,"extras":{"mixedAtlasFallback":false}}]}],"bufferViews":[{"buffer":0,"byteOffset":0,"byteLength":2592,"target":34962},{"buffer":0,"byteOffset":2592,"byteLength":2592,"target":34962},{"buffer":0,"byteOffset":5184,"byteLength":1728,"target":34962},{"buffer":0,"byteOffset":6912,"byteLength":2592,"target":34962},{"buffer":0,"byteOffset":9504,"byteLength":2592,"target":34962},{"buffer":0,"byteOffset":12096,"byteLength":2592,"target":34962},{"buffer":0,"byteOffset":14688,"byteLength":2592,"target":34962},{"buffer":0,"byteOffset":17280,"byteLength":864,"target":34962},{"buffer":0,"byteOffset":18144,"byteLength":864,"target":34963}],"accessors":[{"bufferView":0,"componentType":5126,"count":216,"type":"VEC3","min":[869.875,9.402990341186523,167.85000610351562],"max":[871.7750244140625,10.402990341186523,169.14999389648438]},{"bufferView":1,"componentType":5126,"count":216,"type":"VEC3"},{"bufferView":2,"componentType":5126,"count":216,"type":"VEC2"},{"bufferView":3,"componentType":5126,"count":216,"type":"VEC3"},{"bufferView":4,"componentType":5126,"count":216,"type":"VEC3"},{"bufferView":5,"componentType":5126,"count":216,"type":"VEC3"},{"bufferView":6,"componentType":5126,"count":216,"type":"VEC3"},{"bufferView":7,"componentType":5126,"count":216,"type":"SCALAR"},{"bufferView":8,"componentType":5125,"count":216,"type":"SCALAR"}],"materials":[{"name":"legacy-material-18","pbrMetallicRoughness":{"baseColorFactor":[1,1,1,1],"metallicFactor":0,"roughnessFactor":1},"doubleSided":true,"extras":{"legacyMaterial":18,"legacyShader":"dist/renderer-gl.js","limitation":"Browser procedural material not implemented by this glTF export; source/base attributes retained."}}],"extras":{"veldrenAssetId":"veldren:world-part:4e33f3b62383e13f1a6c863d0a2dcc2ca393bd77fb320532e6d87143a33c492e"},"buffers":[{"uri":"4e33f3b62383e13f1a6c863d0a2dcc2ca393bd77fb320532e6d87143a33c492e.bin","byteLength":19008}]}
