{"asset":{"version":"2.0","generator":"Veldren adapted asset recovery"},"scene":0,"scenes":[{"nodes":[0]}],"nodes":[{"name":"4ea6659737f6de8284e4e3f73cdefeefe4bdd530aeee68b26a371cec89194c2b","mesh":0}],"meshes":[{"name":"4ea6659737f6de8284e4e3f73cdefeefe4bdd530aeee68b26a371cec89194c2b","primitives":[{"attributes":{"POSITION":0,"NORMAL":1,"TEXCOORD_0":2,"COLOR_0":3,"_VELDREN_NORMAL":4,"_VELDREN_COLOR":5,"_VELDREN_FALLBACK":6,"_VELDREN_MATERIAL":7},"indices":8,"material":0,"extras":{"mixedAtlasFallback":false}},{"attributes":{"POSITION":0,"NORMAL":1,"TEXCOORD_0":2,"COLOR_0":3,"_VELDREN_NORMAL":4,"_VELDREN_COLOR":5,"_VELDREN_FALLBACK":6,"_VELDREN_MATERIAL":7},"indices":9,"material":1,"extras":{"mixedAtlasFallback":false}}]}],"bufferViews":[{"buffer":0,"byteOffset":0,"byteLength":1368,"target":34962},{"buffer":0,"byteOffset":1368,"byteLength":1368,"target":34962},{"buffer":0,"byteOffset":2736,"byteLength":912,"target":34962},{"buffer":0,"byteOffset":3648,"byteLength":1368,"target":34962},{"buffer":0,"byteOffset":5016,"byteLength":1368,"target":34962},{"buffer":0,"byteOffset":6384,"byteLength":1368,"target":34962},{"buffer":0,"byteOffset":7752,"byteLength":1368,"target":34962},{"buffer":0,"byteOffset":9120,"byteLength":456,"target":34962},{"buffer":0,"byteOffset":9576,"byteLength":24,"target":34963},{"buffer":0,"byteOffset":9600,"byteLength":432,"target":34963}],"accessors":[{"bufferView":0,"componentType":5126,"count":114,"type":"VEC3","min":[943.7999877929688,8.823949813842773,386.0],"max":[947.2000122070312,11.87983512878418,386.3800048828125]},{"bufferView":1,"componentType":5126,"count":114,"type":"VEC3"},{"bufferView":2,"componentType":5126,"count":114,"type":"VEC2"},{"bufferView":3,"componentType":5126,"count":114,"type":"VEC3"},{"bufferView":4,"componentType":5126,"count":114,"type":"VEC3"},{"bufferView":5,"componentType":5126,"count":114,"type":"VEC3"},{"bufferView":6,"componentType":5126,"count":114,"type":"VEC3"},{"bufferView":7,"componentType":5126,"count":114,"type":"SCALAR"},{"bufferView":8,"componentType":5125,"count":6,"type":"SCALAR"},{"bufferView":9,"componentType":5125,"count":108,"type":"SCALAR"}],"materials":[{"name":"legacy-material-7","pbrMetallicRoughness":{"baseColorFactor":[1,1,1,1],"metallicFactor":0,"roughnessFactor":1},"doubleSided":true,"extras":{"legacyMaterial":7,"legacyShader":"dist/renderer-gl.js","limitation":"Browser procedural material not implemented by this glTF export; source/base attributes retained."}},{"name":"legacy-material-20","pbrMetallicRoughness":{"baseColorFactor":[1,1,1,1],"metallicFactor":0,"roughnessFactor":1,"baseColorTexture":{"index":0}},"doubleSided":true,"extras":{"legacyMaterial":20,"legacyShader":"dist/renderer-gl.js"}}],"extras":{"veldrenAssetId":"veldren:world-part:4ea6659737f6de8284e4e3f73cdefeefe4bdd530aeee68b26a371cec89194c2b"},"images":[{"name":"atlas-00","uri":"../../textures/atlas/tile-00.png"}],"textures":[{"source":0,"sampler":0}],"samplers":[{"magFilter":9729,"minFilter":9729,"wrapS":10497,"wrapT":10497}],"buffers":[{"uri":"4ea6659737f6de8284e4e3f73cdefeefe4bdd530aeee68b26a371cec89194c2b.bin","byteLength":10032}]}
