{"asset":{"version":"2.0","generator":"Veldren adapted asset recovery"},"scene":0,"scenes":[{"nodes":[0]}],"nodes":[{"name":"4ff83e716184c976be4b944d540e3959a4b3e3cf7698025d9f44a230f81ce41b","mesh":0}],"meshes":[{"name":"4ff83e716184c976be4b944d540e3959a4b3e3cf7698025d9f44a230f81ce41b","primitives":[{"attributes":{"POSITION":0,"NORMAL":1,"TEXCOORD_0":2,"COLOR_0":3,"_VELDREN_NORMAL":4,"_VELDREN_COLOR":5,"_VELDREN_FALLBACK":6,"_VELDREN_MATERIAL":7},"indices":8,"material":0,"extras":{"mixedAtlasFallback":false}}]}],"bufferViews":[{"buffer":0,"byteOffset":0,"byteLength":2160,"target":34962},{"buffer":0,"byteOffset":2160,"byteLength":2160,"target":34962},{"buffer":0,"byteOffset":4320,"byteLength":1440,"target":34962},{"buffer":0,"byteOffset":5760,"byteLength":2160,"target":34962},{"buffer":0,"byteOffset":7920,"byteLength":2160,"target":34962},{"buffer":0,"byteOffset":10080,"byteLength":2160,"target":34962},{"buffer":0,"byteOffset":12240,"byteLength":2160,"target":34962},{"buffer":0,"byteOffset":14400,"byteLength":720,"target":34962},{"buffer":0,"byteOffset":15120,"byteLength":720,"target":34963}],"accessors":[{"bufferView":0,"componentType":5126,"count":180,"type":"VEC3","min":[290.7858581542969,7.913397312164307,292.60101318359375],"max":[292.2141418457031,8.56660270690918,294.7989807128906]},{"bufferView":1,"componentType":5126,"count":180,"type":"VEC3"},{"bufferView":2,"componentType":5126,"count":180,"type":"VEC2"},{"bufferView":3,"componentType":5126,"count":180,"type":"VEC3"},{"bufferView":4,"componentType":5126,"count":180,"type":"VEC3"},{"bufferView":5,"componentType":5126,"count":180,"type":"VEC3"},{"bufferView":6,"componentType":5126,"count":180,"type":"VEC3"},{"bufferView":7,"componentType":5126,"count":180,"type":"SCALAR"},{"bufferView":8,"componentType":5125,"count":180,"type":"SCALAR"}],"materials":[{"name":"legacy-material-5","pbrMetallicRoughness":{"baseColorFactor":[1,1,1,1],"metallicFactor":0,"roughnessFactor":1},"doubleSided":true,"extras":{"legacyMaterial":5,"legacyShader":"dist/renderer-gl.js","limitation":"Browser procedural material not implemented by this glTF export; source/base attributes retained."}}],"extras":{"veldrenAssetId":"veldren:world-part:4ff83e716184c976be4b944d540e3959a4b3e3cf7698025d9f44a230f81ce41b"},"buffers":[{"uri":"4ff83e716184c976be4b944d540e3959a4b3e3cf7698025d9f44a230f81ce41b.bin","byteLength":15840}]}
