{"asset":{"version":"2.0","generator":"Veldren adapted asset recovery"},"scene":0,"scenes":[{"nodes":[0]}],"nodes":[{"name":"5289fbfa3dc040489b756ff457298fed8cbdc81bc0eaf946d5b240c059b7e28d","mesh":0}],"meshes":[{"name":"5289fbfa3dc040489b756ff457298fed8cbdc81bc0eaf946d5b240c059b7e28d","primitives":[{"attributes":{"POSITION":0,"NORMAL":1,"TEXCOORD_0":2,"COLOR_0":3,"_VELDREN_NORMAL":4,"_VELDREN_COLOR":5,"_VELDREN_FALLBACK":6,"_VELDREN_MATERIAL":7},"indices":8,"material":0,"extras":{"mixedAtlasFallback":false}},{"attributes":{"POSITION":0,"NORMAL":1,"TEXCOORD_0":2,"COLOR_0":3,"_VELDREN_NORMAL":4,"_VELDREN_COLOR":5,"_VELDREN_FALLBACK":6,"_VELDREN_MATERIAL":7},"indices":9,"material":1,"extras":{"mixedAtlasFallback":false}},{"attributes":{"POSITION":0,"NORMAL":1,"TEXCOORD_0":2,"COLOR_0":3,"_VELDREN_NORMAL":4,"_VELDREN_COLOR":5,"_VELDREN_FALLBACK":6,"_VELDREN_MATERIAL":7},"indices":10,"material":2,"extras":{"mixedAtlasFallback":false}}]}],"bufferViews":[{"buffer":0,"byteOffset":0,"byteLength":7416,"target":34962},{"buffer":0,"byteOffset":7416,"byteLength":7416,"target":34962},{"buffer":0,"byteOffset":14832,"byteLength":4944,"target":34962},{"buffer":0,"byteOffset":19776,"byteLength":7416,"target":34962},{"buffer":0,"byteOffset":27192,"byteLength":7416,"target":34962},{"buffer":0,"byteOffset":34608,"byteLength":7416,"target":34962},{"buffer":0,"byteOffset":42024,"byteLength":7416,"target":34962},{"buffer":0,"byteOffset":49440,"byteLength":2472,"target":34962},{"buffer":0,"byteOffset":51912,"byteLength":432,"target":34963},{"buffer":0,"byteOffset":52344,"byteLength":24,"target":34963},{"buffer":0,"byteOffset":52368,"byteLength":2016,"target":34963}],"accessors":[{"bufferView":0,"componentType":5126,"count":618,"type":"VEC3","min":[13.149999618530273,-0.021243557333946228,22.89836311340332],"max":[15.850000381469727,4.105000019073486,25.024999618530273]},{"bufferView":1,"componentType":5126,"count":618,"type":"VEC3"},{"bufferView":2,"componentType":5126,"count":618,"type":"VEC2"},{"bufferView":3,"componentType":5126,"count":618,"type":"VEC3"},{"bufferView":4,"componentType":5126,"count":618,"type":"VEC3"},{"bufferView":5,"componentType":5126,"count":618,"type":"VEC3"},{"bufferView":6,"componentType":5126,"count":618,"type":"VEC3"},{"bufferView":7,"componentType":5126,"count":618,"type":"SCALAR"},{"bufferView":8,"componentType":5125,"count":108,"type":"SCALAR"},{"bufferView":9,"componentType":5125,"count":6,"type":"SCALAR"},{"bufferView":10,"componentType":5125,"count":504,"type":"SCALAR"}],"materials":[{"name":"legacy-material-18","pbrMetallicRoughness":{"baseColorFactor":[1,1,1,1],"metallicFactor":0,"roughnessFactor":1},"doubleSided":true,"extras":{"legacyMaterial":18,"legacyShader":"dist/renderer-gl.js","limitation":"Browser procedural material not implemented by this glTF export; source/base attributes retained."}},{"name":"legacy-material-7","pbrMetallicRoughness":{"baseColorFactor":[1,1,1,1],"metallicFactor":0,"roughnessFactor":1},"doubleSided":true,"extras":{"legacyMaterial":7,"legacyShader":"dist/renderer-gl.js","limitation":"Browser procedural material not implemented by this glTF export; source/base attributes retained."}},{"name":"legacy-material-20","pbrMetallicRoughness":{"baseColorFactor":[1,1,1,1],"metallicFactor":0,"roughnessFactor":1,"baseColorTexture":{"index":0}},"doubleSided":true,"extras":{"legacyMaterial":20,"legacyShader":"dist/renderer-gl.js"}}],"extras":{"veldrenAssetId":"veldren:world-part:5289fbfa3dc040489b756ff457298fed8cbdc81bc0eaf946d5b240c059b7e28d"},"images":[{"name":"atlas-00","uri":"../../textures/atlas/tile-00.png"}],"textures":[{"source":0,"sampler":0}],"samplers":[{"magFilter":9729,"minFilter":9729,"wrapS":10497,"wrapT":10497}],"buffers":[{"uri":"5289fbfa3dc040489b756ff457298fed8cbdc81bc0eaf946d5b240c059b7e28d.bin","byteLength":54384}]}
