{"asset":{"version":"2.0","generator":"Veldren adapted asset recovery"},"scene":0,"scenes":[{"nodes":[0]}],"nodes":[{"name":"5d00fe1c318c064f8eadf12c0a4ea41af37ba51aff7421936323a8dd5d9256db","mesh":0}],"meshes":[{"name":"5d00fe1c318c064f8eadf12c0a4ea41af37ba51aff7421936323a8dd5d9256db","primitives":[{"attributes":{"POSITION":0,"NORMAL":1,"TEXCOORD_0":2,"COLOR_0":3,"_VELDREN_NORMAL":4,"_VELDREN_COLOR":5,"_VELDREN_FALLBACK":6,"_VELDREN_MATERIAL":7},"indices":8,"material":0,"extras":{"mixedAtlasFallback":false}}]}],"bufferViews":[{"buffer":0,"byteOffset":0,"byteLength":2160,"target":34962},{"buffer":0,"byteOffset":2160,"byteLength":2160,"target":34962},{"buffer":0,"byteOffset":4320,"byteLength":1440,"target":34962},{"buffer":0,"byteOffset":5760,"byteLength":2160,"target":34962},{"buffer":0,"byteOffset":7920,"byteLength":2160,"target":34962},{"buffer":0,"byteOffset":10080,"byteLength":2160,"target":34962},{"buffer":0,"byteOffset":12240,"byteLength":2160,"target":34962},{"buffer":0,"byteOffset":14400,"byteLength":720,"target":34962},{"buffer":0,"byteOffset":15120,"byteLength":720,"target":34963}],"accessors":[{"bufferView":0,"componentType":5126,"count":180,"type":"VEC3","min":[24.22930335998535,-0.0367826372385025,106.36000061035156],"max":[26.77069664001465,2.5212435722351074,106.87023162841797]},{"bufferView":1,"componentType":5126,"count":180,"type":"VEC3"},{"bufferView":2,"componentType":5126,"count":180,"type":"VEC2"},{"bufferView":3,"componentType":5126,"count":180,"type":"VEC3"},{"bufferView":4,"componentType":5126,"count":180,"type":"VEC3"},{"bufferView":5,"componentType":5126,"count":180,"type":"VEC3"},{"bufferView":6,"componentType":5126,"count":180,"type":"VEC3"},{"bufferView":7,"componentType":5126,"count":180,"type":"SCALAR"},{"bufferView":8,"componentType":5125,"count":180,"type":"SCALAR"}],"materials":[{"name":"legacy-material-20","pbrMetallicRoughness":{"baseColorFactor":[1,1,1,1],"metallicFactor":0,"roughnessFactor":1,"baseColorTexture":{"index":0}},"doubleSided":true,"extras":{"legacyMaterial":20,"legacyShader":"dist/renderer-gl.js"}}],"extras":{"veldrenAssetId":"veldren:world-part:5d00fe1c318c064f8eadf12c0a4ea41af37ba51aff7421936323a8dd5d9256db"},"images":[{"name":"atlas-00","uri":"../../textures/atlas/tile-00.png"}],"textures":[{"source":0,"sampler":0}],"samplers":[{"magFilter":9729,"minFilter":9729,"wrapS":10497,"wrapT":10497}],"buffers":[{"uri":"5d00fe1c318c064f8eadf12c0a4ea41af37ba51aff7421936323a8dd5d9256db.bin","byteLength":15840}]}
