{"asset":{"version":"2.0","generator":"Veldren adapted asset recovery"},"scene":0,"scenes":[{"nodes":[0]}],"nodes":[{"name":"629e78b439d8b314fb62411e16a47eeeaf0f6f78bb3f3150468167c9e9d3eef3","mesh":0}],"meshes":[{"name":"629e78b439d8b314fb62411e16a47eeeaf0f6f78bb3f3150468167c9e9d3eef3","primitives":[{"attributes":{"POSITION":0,"NORMAL":1,"TEXCOORD_0":2,"COLOR_0":3,"_VELDREN_NORMAL":4,"_VELDREN_COLOR":5,"_VELDREN_FALLBACK":6,"_VELDREN_MATERIAL":7},"indices":8,"material":0,"extras":{"mixedAtlasFallback":false}},{"attributes":{"POSITION":0,"NORMAL":1,"TEXCOORD_0":2,"COLOR_0":3,"_VELDREN_NORMAL":4,"_VELDREN_COLOR":5,"_VELDREN_FALLBACK":6,"_VELDREN_MATERIAL":7},"indices":9,"material":1,"extras":{"mixedAtlasFallback":false}}]}],"bufferViews":[{"buffer":0,"byteOffset":0,"byteLength":10956,"target":34962},{"buffer":0,"byteOffset":10956,"byteLength":10956,"target":34962},{"buffer":0,"byteOffset":21912,"byteLength":7304,"target":34962},{"buffer":0,"byteOffset":29216,"byteLength":10956,"target":34962},{"buffer":0,"byteOffset":40172,"byteLength":10956,"target":34962},{"buffer":0,"byteOffset":51128,"byteLength":10956,"target":34962},{"buffer":0,"byteOffset":62084,"byteLength":10956,"target":34962},{"buffer":0,"byteOffset":73040,"byteLength":3652,"target":34962},{"buffer":0,"byteOffset":76692,"byteLength":8112,"target":34963},{"buffer":0,"byteOffset":84804,"byteLength":7200,"target":34963}],"accessors":[{"bufferView":0,"componentType":5126,"count":913,"type":"VEC3","min":[-2.969912052154541,-0.0013800000306218863,-2.3520750999450684],"max":[3.394526958465576,5.491145133972168,2.5843169689178467]},{"bufferView":1,"componentType":5126,"count":913,"type":"VEC3"},{"bufferView":2,"componentType":5126,"count":913,"type":"VEC2"},{"bufferView":3,"componentType":5126,"count":913,"type":"VEC3"},{"bufferView":4,"componentType":5126,"count":913,"type":"VEC3"},{"bufferView":5,"componentType":5126,"count":913,"type":"VEC3"},{"bufferView":6,"componentType":5126,"count":913,"type":"VEC3"},{"bufferView":7,"componentType":5126,"count":913,"type":"SCALAR"},{"bufferView":8,"componentType":5125,"count":2028,"type":"SCALAR"},{"bufferView":9,"componentType":5125,"count":1800,"type":"SCALAR"}],"materials":[{"name":"legacy-material-49","pbrMetallicRoughness":{"baseColorFactor":[1,1,1,1],"metallicFactor":0,"roughnessFactor":1,"baseColorTexture":{"index":0}},"doubleSided":true,"extras":{"legacyMaterial":49,"legacyShader":"dist/renderer-gl.js"}},{"name":"legacy-material-51","pbrMetallicRoughness":{"baseColorFactor":[1,1,1,1],"metallicFactor":0,"roughnessFactor":1,"baseColorTexture":{"index":1}},"doubleSided":true,"extras":{"legacyMaterial":51,"legacyShader":"dist/renderer-gl.js"},"alphaMode":"MASK","alphaCutoff":0.45}],"extras":{"veldrenAssetId":"veldren:world-part:629e78b439d8b314fb62411e16a47eeeaf0f6f78bb3f3150468167c9e9d3eef3"},"images":[{"name":"atlas-29","uri":"../../textures/atlas/tile-29.png"},{"name":"atlas-31","uri":"../../textures/atlas/tile-31.png"}],"textures":[{"source":0,"sampler":0},{"source":1,"sampler":0}],"samplers":[{"magFilter":9729,"minFilter":9729,"wrapS":10497,"wrapT":10497}],"buffers":[{"uri":"629e78b439d8b314fb62411e16a47eeeaf0f6f78bb3f3150468167c9e9d3eef3.bin","byteLength":92004}]}
