{"asset":{"version":"2.0","generator":"Veldren adapted asset recovery"},"scene":0,"scenes":[{"nodes":[0]}],"nodes":[{"name":"648e433676be74cc6aaaed85013f21c5cf09379f41f0557500f82967230e9f93","mesh":0}],"meshes":[{"name":"648e433676be74cc6aaaed85013f21c5cf09379f41f0557500f82967230e9f93","primitives":[{"attributes":{"POSITION":0,"NORMAL":1,"TEXCOORD_0":2,"COLOR_0":3,"_VELDREN_NORMAL":4,"_VELDREN_COLOR":5,"_VELDREN_FALLBACK":6,"_VELDREN_MATERIAL":7},"indices":8,"material":0,"extras":{"mixedAtlasFallback":false}},{"attributes":{"POSITION":0,"NORMAL":1,"TEXCOORD_0":2,"COLOR_0":3,"_VELDREN_NORMAL":4,"_VELDREN_COLOR":5,"_VELDREN_FALLBACK":6,"_VELDREN_MATERIAL":7},"indices":9,"material":1,"extras":{"mixedAtlasFallback":false}},{"attributes":{"POSITION":0,"NORMAL":1,"TEXCOORD_0":2,"COLOR_0":3,"_VELDREN_NORMAL":4,"_VELDREN_COLOR":5,"_VELDREN_FALLBACK":6,"_VELDREN_MATERIAL":7},"indices":10,"material":2,"extras":{"mixedAtlasFallback":false}},{"attributes":{"POSITION":0,"NORMAL":1,"TEXCOORD_0":2,"COLOR_0":3,"_VELDREN_NORMAL":4,"_VELDREN_COLOR":5,"_VELDREN_FALLBACK":6,"_VELDREN_MATERIAL":7},"indices":11,"material":3,"extras":{"mixedAtlasFallback":false}},{"attributes":{"POSITION":0,"NORMAL":1,"TEXCOORD_0":2,"COLOR_0":3,"_VELDREN_NORMAL":4,"_VELDREN_COLOR":5,"_VELDREN_FALLBACK":6,"_VELDREN_MATERIAL":7},"indices":12,"material":4,"extras":{"mixedAtlasFallback":false}},{"attributes":{"POSITION":0,"NORMAL":1,"TEXCOORD_0":2,"COLOR_0":3,"_VELDREN_NORMAL":4,"_VELDREN_COLOR":5,"_VELDREN_FALLBACK":6,"_VELDREN_MATERIAL":7},"indices":13,"material":5,"extras":{"mixedAtlasFallback":false}}]}],"bufferViews":[{"buffer":0,"byteOffset":0,"byteLength":88272,"target":34962},{"buffer":0,"byteOffset":88272,"byteLength":88272,"target":34962},{"buffer":0,"byteOffset":176544,"byteLength":58848,"target":34962},{"buffer":0,"byteOffset":235392,"byteLength":88272,"target":34962},{"buffer":0,"byteOffset":323664,"byteLength":88272,"target":34962},{"buffer":0,"byteOffset":411936,"byteLength":88272,"target":34962},{"buffer":0,"byteOffset":500208,"byteLength":88272,"target":34962},{"buffer":0,"byteOffset":588480,"byteLength":29424,"target":34962},{"buffer":0,"byteOffset":617904,"byteLength":13824,"target":34963},{"buffer":0,"byteOffset":631728,"byteLength":456,"target":34963},{"buffer":0,"byteOffset":632184,"byteLength":4032,"target":34963},{"buffer":0,"byteOffset":636216,"byteLength":8064,"target":34963},{"buffer":0,"byteOffset":644280,"byteLength":2472,"target":34963},{"buffer":0,"byteOffset":646752,"byteLength":576,"target":34963}],"accessors":[{"bufferView":0,"componentType":5126,"count":7356,"type":"VEC3","min":[146.49000549316406,5.759219169616699,59.5099983215332],"max":[156.50999450683594,13.182019233703613,73.48711395263672]},{"bufferView":1,"componentType":5126,"count":7356,"type":"VEC3"},{"bufferView":2,"componentType":5126,"count":7356,"type":"VEC2"},{"bufferView":3,"componentType":5126,"count":7356,"type":"VEC3"},{"bufferView":4,"componentType":5126,"count":7356,"type":"VEC3"},{"bufferView":5,"componentType":5126,"count":7356,"type":"VEC3"},{"bufferView":6,"componentType":5126,"count":7356,"type":"VEC3"},{"bufferView":7,"componentType":5126,"count":7356,"type":"SCALAR"},{"bufferView":8,"componentType":5125,"count":3456,"type":"SCALAR"},{"bufferView":9,"componentType":5125,"count":114,"type":"SCALAR"},{"bufferView":10,"componentType":5125,"count":1008,"type":"SCALAR"},{"bufferView":11,"componentType":5125,"count":2016,"type":"SCALAR"},{"bufferView":12,"componentType":5125,"count":618,"type":"SCALAR"},{"bufferView":13,"componentType":5125,"count":144,"type":"SCALAR"}],"materials":[{"name":"legacy-material-5","pbrMetallicRoughness":{"baseColorFactor":[1,1,1,1],"metallicFactor":0,"roughnessFactor":1},"doubleSided":true,"extras":{"legacyMaterial":5,"legacyShader":"dist/renderer-gl.js","limitation":"Browser procedural material not implemented by this glTF export; source/base attributes retained."}},{"name":"legacy-material-13","pbrMetallicRoughness":{"baseColorFactor":[1,1,1,1],"metallicFactor":0,"roughnessFactor":1},"doubleSided":true,"extras":{"legacyMaterial":13,"legacyShader":"dist/renderer-gl.js","limitation":"Browser procedural material not implemented by this glTF export; source/base attributes retained."}},{"name":"legacy-material-20","pbrMetallicRoughness":{"baseColorFactor":[1,1,1,1],"metallicFactor":0,"roughnessFactor":1,"baseColorTexture":{"index":0}},"doubleSided":true,"extras":{"legacyMaterial":20,"legacyShader":"dist/renderer-gl.js"}},{"name":"legacy-material-17","pbrMetallicRoughness":{"baseColorFactor":[1,1,1,1],"metallicFactor":0,"roughnessFactor":1},"doubleSided":true,"extras":{"legacyMaterial":17,"legacyShader":"dist/renderer-gl.js","limitation":"Browser procedural material not implemented by this glTF export; source/base attributes retained."}},{"name":"legacy-material-7","pbrMetallicRoughness":{"baseColorFactor":[1,1,1,1],"metallicFactor":0,"roughnessFactor":1},"doubleSided":true,"extras":{"legacyMaterial":7,"legacyShader":"dist/renderer-gl.js","limitation":"Browser procedural material not implemented by this glTF export; source/base attributes retained."}},{"name":"legacy-material-6","pbrMetallicRoughness":{"baseColorFactor":[1,1,1,1],"metallicFactor":0,"roughnessFactor":1},"doubleSided":true,"extras":{"legacyMaterial":6,"legacyShader":"dist/renderer-gl.js","limitation":"Browser procedural material not implemented by this glTF export; source/base attributes retained."}}],"extras":{"veldrenAssetId":"veldren:world-part:648e433676be74cc6aaaed85013f21c5cf09379f41f0557500f82967230e9f93"},"images":[{"name":"atlas-00","uri":"../../textures/atlas/tile-00.png"}],"textures":[{"source":0,"sampler":0}],"samplers":[{"magFilter":9729,"minFilter":9729,"wrapS":10497,"wrapT":10497}],"buffers":[{"uri":"648e433676be74cc6aaaed85013f21c5cf09379f41f0557500f82967230e9f93.bin","byteLength":647328}]}
