{"asset":{"version":"2.0","generator":"Veldren adapted asset recovery"},"scene":0,"scenes":[{"nodes":[0]}],"nodes":[{"name":"65618c815c3bd61d939fa2d128f6dd14e5f631651b6cb2d71470c1277463a5f3","mesh":0}],"meshes":[{"name":"65618c815c3bd61d939fa2d128f6dd14e5f631651b6cb2d71470c1277463a5f3","primitives":[{"attributes":{"POSITION":0,"NORMAL":1,"TEXCOORD_0":2,"COLOR_0":3,"_VELDREN_NORMAL":4,"_VELDREN_COLOR":5,"_VELDREN_FALLBACK":6,"_VELDREN_MATERIAL":7},"indices":8,"material":0,"extras":{"mixedAtlasFallback":false}},{"attributes":{"POSITION":0,"NORMAL":1,"TEXCOORD_0":2,"COLOR_0":3,"_VELDREN_NORMAL":4,"_VELDREN_COLOR":5,"_VELDREN_FALLBACK":6,"_VELDREN_MATERIAL":7},"indices":9,"material":1,"extras":{"mixedAtlasFallback":false}},{"attributes":{"POSITION":0,"NORMAL":1,"TEXCOORD_0":2,"COLOR_0":3,"_VELDREN_NORMAL":4,"_VELDREN_COLOR":5,"_VELDREN_FALLBACK":6,"_VELDREN_MATERIAL":7},"indices":10,"material":2,"extras":{"mixedAtlasFallback":false}}]}],"bufferViews":[{"buffer":0,"byteOffset":0,"byteLength":33096,"target":34962},{"buffer":0,"byteOffset":33096,"byteLength":33096,"target":34962},{"buffer":0,"byteOffset":66192,"byteLength":22064,"target":34962},{"buffer":0,"byteOffset":88256,"byteLength":33096,"target":34962},{"buffer":0,"byteOffset":121352,"byteLength":33096,"target":34962},{"buffer":0,"byteOffset":154448,"byteLength":33096,"target":34962},{"buffer":0,"byteOffset":187544,"byteLength":33096,"target":34962},{"buffer":0,"byteOffset":220640,"byteLength":11032,"target":34962},{"buffer":0,"byteOffset":231672,"byteLength":6432,"target":34963},{"buffer":0,"byteOffset":238104,"byteLength":5472,"target":34963},{"buffer":0,"byteOffset":243576,"byteLength":36432,"target":34963}],"accessors":[{"bufferView":0,"componentType":5126,"count":2758,"type":"VEC3","min":[-0.35689881443977356,-0.01598539389669895,-0.20708000659942627],"max":[0.35689881443977356,0.227791890501976,0.20708000659942627]},{"bufferView":1,"componentType":5126,"count":2758,"type":"VEC3"},{"bufferView":2,"componentType":5126,"count":2758,"type":"VEC2"},{"bufferView":3,"componentType":5126,"count":2758,"type":"VEC3"},{"bufferView":4,"componentType":5126,"count":2758,"type":"VEC3"},{"bufferView":5,"componentType":5126,"count":2758,"type":"VEC3"},{"bufferView":6,"componentType":5126,"count":2758,"type":"VEC3"},{"bufferView":7,"componentType":5126,"count":2758,"type":"SCALAR"},{"bufferView":8,"componentType":5125,"count":1608,"type":"SCALAR"},{"bufferView":9,"componentType":5125,"count":1368,"type":"SCALAR"},{"bufferView":10,"componentType":5125,"count":9108,"type":"SCALAR"}],"materials":[{"name":"legacy-material-43","pbrMetallicRoughness":{"baseColorFactor":[1,1,1,1],"metallicFactor":0,"roughnessFactor":1,"baseColorTexture":{"index":0}},"doubleSided":true,"extras":{"legacyMaterial":43,"legacyShader":"dist/renderer-gl.js"}},{"name":"legacy-material-42","pbrMetallicRoughness":{"baseColorFactor":[1,1,1,1],"metallicFactor":0,"roughnessFactor":1,"baseColorTexture":{"index":1}},"doubleSided":true,"extras":{"legacyMaterial":42,"legacyShader":"dist/renderer-gl.js"}},{"name":"legacy-material-44","pbrMetallicRoughness":{"baseColorFactor":[1,1,1,1],"metallicFactor":0,"roughnessFactor":1,"baseColorTexture":{"index":2}},"doubleSided":true,"extras":{"legacyMaterial":44,"legacyShader":"dist/renderer-gl.js"}}],"extras":{"veldrenAssetId":"veldren:world-part:65618c815c3bd61d939fa2d128f6dd14e5f631651b6cb2d71470c1277463a5f3"},"images":[{"name":"atlas-23","uri":"../../textures/atlas/tile-23.png"},{"name":"atlas-22","uri":"../../textures/atlas/tile-22.png"},{"name":"atlas-24","uri":"../../textures/atlas/tile-24.png"}],"textures":[{"source":0,"sampler":0},{"source":1,"sampler":0},{"source":2,"sampler":0}],"samplers":[{"magFilter":9729,"minFilter":9729,"wrapS":10497,"wrapT":10497}],"buffers":[{"uri":"65618c815c3bd61d939fa2d128f6dd14e5f631651b6cb2d71470c1277463a5f3.bin","byteLength":280008}]}
