{"asset":{"version":"2.0","generator":"Veldren adapted asset recovery"},"scene":0,"scenes":[{"nodes":[0]}],"nodes":[{"name":"67758b1f0748cbdb45b42e10bccadf195f8079ef103f99a2f281d4aa30994c2c","mesh":0}],"meshes":[{"name":"67758b1f0748cbdb45b42e10bccadf195f8079ef103f99a2f281d4aa30994c2c","primitives":[{"attributes":{"POSITION":0,"NORMAL":1,"TEXCOORD_0":2,"COLOR_0":3,"_VELDREN_NORMAL":4,"_VELDREN_COLOR":5,"_VELDREN_FALLBACK":6,"_VELDREN_MATERIAL":7},"indices":8,"material":0,"extras":{"mixedAtlasFallback":false}}]}],"bufferViews":[{"buffer":0,"byteOffset":0,"byteLength":1440,"target":34962},{"buffer":0,"byteOffset":1440,"byteLength":1440,"target":34962},{"buffer":0,"byteOffset":2880,"byteLength":960,"target":34962},{"buffer":0,"byteOffset":3840,"byteLength":1440,"target":34962},{"buffer":0,"byteOffset":5280,"byteLength":1440,"target":34962},{"buffer":0,"byteOffset":6720,"byteLength":1440,"target":34962},{"buffer":0,"byteOffset":8160,"byteLength":1440,"target":34962},{"buffer":0,"byteOffset":9600,"byteLength":480,"target":34962},{"buffer":0,"byteOffset":10080,"byteLength":480,"target":34963}],"accessors":[{"bufferView":0,"componentType":5126,"count":120,"type":"VEC3","min":[761.4500122070312,3.1871798038482666,116.44999694824219],"max":[763.5499877929688,6.162179946899414,118.55000305175781]},{"bufferView":1,"componentType":5126,"count":120,"type":"VEC3"},{"bufferView":2,"componentType":5126,"count":120,"type":"VEC2"},{"bufferView":3,"componentType":5126,"count":120,"type":"VEC3"},{"bufferView":4,"componentType":5126,"count":120,"type":"VEC3"},{"bufferView":5,"componentType":5126,"count":120,"type":"VEC3"},{"bufferView":6,"componentType":5126,"count":120,"type":"VEC3"},{"bufferView":7,"componentType":5126,"count":120,"type":"SCALAR"},{"bufferView":8,"componentType":5125,"count":120,"type":"SCALAR"}],"materials":[{"name":"legacy-material-18","pbrMetallicRoughness":{"baseColorFactor":[1,1,1,1],"metallicFactor":0,"roughnessFactor":1},"doubleSided":true,"extras":{"legacyMaterial":18,"legacyShader":"dist/renderer-gl.js","limitation":"Browser procedural material not implemented by this glTF export; source/base attributes retained."}}],"extras":{"veldrenAssetId":"veldren:world-part:67758b1f0748cbdb45b42e10bccadf195f8079ef103f99a2f281d4aa30994c2c"},"buffers":[{"uri":"67758b1f0748cbdb45b42e10bccadf195f8079ef103f99a2f281d4aa30994c2c.bin","byteLength":10560}]}
