{"asset":{"version":"2.0","generator":"Veldren adapted asset recovery"},"scene":0,"scenes":[{"nodes":[0]}],"nodes":[{"name":"69182dcdd79abb9f31d6effadc0db5af6bc121cabf739173ac1a38652039fcd3","mesh":0}],"meshes":[{"name":"69182dcdd79abb9f31d6effadc0db5af6bc121cabf739173ac1a38652039fcd3","primitives":[{"attributes":{"POSITION":0,"NORMAL":1,"TEXCOORD_0":2,"COLOR_0":3,"_VELDREN_NORMAL":4,"_VELDREN_COLOR":5,"_VELDREN_FALLBACK":6,"_VELDREN_MATERIAL":7},"indices":8,"material":0,"extras":{"mixedAtlasFallback":false}},{"attributes":{"POSITION":0,"NORMAL":1,"TEXCOORD_0":2,"COLOR_0":3,"_VELDREN_NORMAL":4,"_VELDREN_COLOR":5,"_VELDREN_FALLBACK":6,"_VELDREN_MATERIAL":7},"indices":9,"material":1,"extras":{"mixedAtlasFallback":false}},{"attributes":{"POSITION":0,"NORMAL":1,"TEXCOORD_0":2,"COLOR_0":3,"_VELDREN_NORMAL":4,"_VELDREN_COLOR":5,"_VELDREN_FALLBACK":6,"_VELDREN_MATERIAL":7},"indices":10,"material":2,"extras":{"mixedAtlasFallback":false}},{"attributes":{"POSITION":0,"NORMAL":1,"TEXCOORD_0":2,"COLOR_0":3,"_VELDREN_NORMAL":4,"_VELDREN_COLOR":5,"_VELDREN_FALLBACK":6,"_VELDREN_MATERIAL":7},"indices":11,"material":3,"extras":{"mixedAtlasFallback":false}},{"attributes":{"POSITION":0,"NORMAL":1,"TEXCOORD_0":2,"COLOR_0":3,"_VELDREN_NORMAL":4,"_VELDREN_COLOR":5,"_VELDREN_FALLBACK":6,"_VELDREN_MATERIAL":7},"indices":12,"material":4,"extras":{"mixedAtlasFallback":false}},{"attributes":{"POSITION":0,"NORMAL":1,"TEXCOORD_0":2,"COLOR_0":3,"_VELDREN_NORMAL":4,"_VELDREN_COLOR":5,"_VELDREN_FALLBACK":6,"_VELDREN_MATERIAL":7},"indices":13,"material":5,"extras":{"mixedAtlasFallback":false}}]}],"bufferViews":[{"buffer":0,"byteOffset":0,"byteLength":79920,"target":34962},{"buffer":0,"byteOffset":79920,"byteLength":79920,"target":34962},{"buffer":0,"byteOffset":159840,"byteLength":53280,"target":34962},{"buffer":0,"byteOffset":213120,"byteLength":79920,"target":34962},{"buffer":0,"byteOffset":293040,"byteLength":79920,"target":34962},{"buffer":0,"byteOffset":372960,"byteLength":79920,"target":34962},{"buffer":0,"byteOffset":452880,"byteLength":79920,"target":34962},{"buffer":0,"byteOffset":532800,"byteLength":26640,"target":34962},{"buffer":0,"byteOffset":559440,"byteLength":14736,"target":34963},{"buffer":0,"byteOffset":574176,"byteLength":192,"target":34963},{"buffer":0,"byteOffset":574368,"byteLength":10368,"target":34963},{"buffer":0,"byteOffset":584736,"byteLength":576,"target":34963},{"buffer":0,"byteOffset":585312,"byteLength":192,"target":34963},{"buffer":0,"byteOffset":585504,"byteLength":576,"target":34963}],"accessors":[{"bufferView":0,"componentType":5126,"count":6660,"type":"VEC3","min":[758.4342651367188,5.048057556152344,587.510009765625],"max":[772.5657348632812,13.354399681091309,600.4776000976562]},{"bufferView":1,"componentType":5126,"count":6660,"type":"VEC3"},{"bufferView":2,"componentType":5126,"count":6660,"type":"VEC2"},{"bufferView":3,"componentType":5126,"count":6660,"type":"VEC3"},{"bufferView":4,"componentType":5126,"count":6660,"type":"VEC3"},{"bufferView":5,"componentType":5126,"count":6660,"type":"VEC3"},{"bufferView":6,"componentType":5126,"count":6660,"type":"VEC3"},{"bufferView":7,"componentType":5126,"count":6660,"type":"SCALAR"},{"bufferView":8,"componentType":5125,"count":3684,"type":"SCALAR"},{"bufferView":9,"componentType":5125,"count":48,"type":"SCALAR"},{"bufferView":10,"componentType":5125,"count":2592,"type":"SCALAR"},{"bufferView":11,"componentType":5125,"count":144,"type":"SCALAR"},{"bufferView":12,"componentType":5125,"count":48,"type":"SCALAR"},{"bufferView":13,"componentType":5125,"count":144,"type":"SCALAR"}],"materials":[{"name":"legacy-material-5","pbrMetallicRoughness":{"baseColorFactor":[1,1,1,1],"metallicFactor":0,"roughnessFactor":1},"doubleSided":true,"extras":{"legacyMaterial":5,"legacyShader":"dist/renderer-gl.js","limitation":"Browser procedural material not implemented by this glTF export; source/base attributes retained."}},{"name":"legacy-material-13","pbrMetallicRoughness":{"baseColorFactor":[1,1,1,1],"metallicFactor":0,"roughnessFactor":1},"doubleSided":true,"extras":{"legacyMaterial":13,"legacyShader":"dist/renderer-gl.js","limitation":"Browser procedural material not implemented by this glTF export; source/base attributes retained."}},{"name":"legacy-material-17","pbrMetallicRoughness":{"baseColorFactor":[1,1,1,1],"metallicFactor":0,"roughnessFactor":1},"doubleSided":true,"extras":{"legacyMaterial":17,"legacyShader":"dist/renderer-gl.js","limitation":"Browser procedural material not implemented by this glTF export; source/base attributes retained."}},{"name":"legacy-material-7","pbrMetallicRoughness":{"baseColorFactor":[1,1,1,1],"metallicFactor":0,"roughnessFactor":1},"doubleSided":true,"extras":{"legacyMaterial":7,"legacyShader":"dist/renderer-gl.js","limitation":"Browser procedural material not implemented by this glTF export; source/base attributes retained."}},{"name":"legacy-material-6","pbrMetallicRoughness":{"baseColorFactor":[1,1,1,1],"metallicFactor":0,"roughnessFactor":1},"doubleSided":true,"extras":{"legacyMaterial":6,"legacyShader":"dist/renderer-gl.js","limitation":"Browser procedural material not implemented by this glTF export; source/base attributes retained."}},{"name":"legacy-material-20","pbrMetallicRoughness":{"baseColorFactor":[1,1,1,1],"metallicFactor":0,"roughnessFactor":1,"baseColorTexture":{"index":0}},"doubleSided":true,"extras":{"legacyMaterial":20,"legacyShader":"dist/renderer-gl.js"}}],"extras":{"veldrenAssetId":"veldren:world-part:69182dcdd79abb9f31d6effadc0db5af6bc121cabf739173ac1a38652039fcd3"},"images":[{"name":"atlas-00","uri":"../../textures/atlas/tile-00.png"}],"textures":[{"source":0,"sampler":0}],"samplers":[{"magFilter":9729,"minFilter":9729,"wrapS":10497,"wrapT":10497}],"buffers":[{"uri":"69182dcdd79abb9f31d6effadc0db5af6bc121cabf739173ac1a38652039fcd3.bin","byteLength":586080}]}
