{"asset":{"version":"2.0","generator":"Veldren adapted asset recovery"},"scene":0,"scenes":[{"nodes":[0]}],"nodes":[{"name":"6a3924d97e4c1a9c89e29118967d89c158e52052d1b46cdb3ca7423f560edddb","mesh":0}],"meshes":[{"name":"6a3924d97e4c1a9c89e29118967d89c158e52052d1b46cdb3ca7423f560edddb","primitives":[{"attributes":{"POSITION":0,"NORMAL":1,"TEXCOORD_0":2,"COLOR_0":3,"_VELDREN_NORMAL":4,"_VELDREN_COLOR":5,"_VELDREN_FALLBACK":6,"_VELDREN_MATERIAL":7},"indices":8,"material":0,"extras":{"mixedAtlasFallback":false}}]}],"bufferViews":[{"buffer":0,"byteOffset":0,"byteLength":2736,"target":34962},{"buffer":0,"byteOffset":2736,"byteLength":2736,"target":34962},{"buffer":0,"byteOffset":5472,"byteLength":1824,"target":34962},{"buffer":0,"byteOffset":7296,"byteLength":2736,"target":34962},{"buffer":0,"byteOffset":10032,"byteLength":2736,"target":34962},{"buffer":0,"byteOffset":12768,"byteLength":2736,"target":34962},{"buffer":0,"byteOffset":15504,"byteLength":2736,"target":34962},{"buffer":0,"byteOffset":18240,"byteLength":912,"target":34962},{"buffer":0,"byteOffset":19152,"byteLength":912,"target":34963}],"accessors":[{"bufferView":0,"componentType":5126,"count":228,"type":"VEC3","min":[23.825000762939453,0.004999999888241291,22.110000610351562],"max":[25.174999237060547,0.875,22.889999389648438]},{"bufferView":1,"componentType":5126,"count":228,"type":"VEC3"},{"bufferView":2,"componentType":5126,"count":228,"type":"VEC2"},{"bufferView":3,"componentType":5126,"count":228,"type":"VEC3"},{"bufferView":4,"componentType":5126,"count":228,"type":"VEC3"},{"bufferView":5,"componentType":5126,"count":228,"type":"VEC3"},{"bufferView":6,"componentType":5126,"count":228,"type":"VEC3"},{"bufferView":7,"componentType":5126,"count":228,"type":"SCALAR"},{"bufferView":8,"componentType":5125,"count":228,"type":"SCALAR"}],"materials":[{"name":"legacy-material-18","pbrMetallicRoughness":{"baseColorFactor":[1,1,1,1],"metallicFactor":0,"roughnessFactor":1},"doubleSided":true,"extras":{"legacyMaterial":18,"legacyShader":"dist/renderer-gl.js","limitation":"Browser procedural material not implemented by this glTF export; source/base attributes retained."}}],"extras":{"veldrenAssetId":"veldren:world-part:6a3924d97e4c1a9c89e29118967d89c158e52052d1b46cdb3ca7423f560edddb"},"buffers":[{"uri":"6a3924d97e4c1a9c89e29118967d89c158e52052d1b46cdb3ca7423f560edddb.bin","byteLength":20064}]}
