{"asset":{"version":"2.0","generator":"Veldren adapted asset recovery"},"scene":0,"scenes":[{"nodes":[0]}],"nodes":[{"name":"6aca5b4e30698e7731f1cef234d540465884224c3f7a64c212ea77d4b31c24e2","mesh":0}],"meshes":[{"name":"6aca5b4e30698e7731f1cef234d540465884224c3f7a64c212ea77d4b31c24e2","primitives":[{"attributes":{"POSITION":0,"NORMAL":1,"TEXCOORD_0":2,"COLOR_0":3,"_VELDREN_NORMAL":4,"_VELDREN_COLOR":5,"_VELDREN_FALLBACK":6,"_VELDREN_MATERIAL":7},"indices":8,"material":0,"extras":{"mixedAtlasFallback":false}},{"attributes":{"POSITION":0,"NORMAL":1,"TEXCOORD_0":2,"COLOR_0":3,"_VELDREN_NORMAL":4,"_VELDREN_COLOR":5,"_VELDREN_FALLBACK":6,"_VELDREN_MATERIAL":7},"indices":9,"material":1,"extras":{"mixedAtlasFallback":false}}]}],"bufferViews":[{"buffer":0,"byteOffset":0,"byteLength":103968,"target":34962},{"buffer":0,"byteOffset":103968,"byteLength":103968,"target":34962},{"buffer":0,"byteOffset":207936,"byteLength":69312,"target":34962},{"buffer":0,"byteOffset":277248,"byteLength":103968,"target":34962},{"buffer":0,"byteOffset":381216,"byteLength":103968,"target":34962},{"buffer":0,"byteOffset":485184,"byteLength":103968,"target":34962},{"buffer":0,"byteOffset":589152,"byteLength":103968,"target":34962},{"buffer":0,"byteOffset":693120,"byteLength":34656,"target":34962},{"buffer":0,"byteOffset":727776,"byteLength":34320,"target":34963},{"buffer":0,"byteOffset":762096,"byteLength":336,"target":34963}],"accessors":[{"bufferView":0,"componentType":5126,"count":8664,"type":"VEC3","min":[34.900001525878906,0.0,87.9000015258789],"max":[36.099998474121094,2.192631721496582,89.0999984741211]},{"bufferView":1,"componentType":5126,"count":8664,"type":"VEC3"},{"bufferView":2,"componentType":5126,"count":8664,"type":"VEC2"},{"bufferView":3,"componentType":5126,"count":8664,"type":"VEC3"},{"bufferView":4,"componentType":5126,"count":8664,"type":"VEC3"},{"bufferView":5,"componentType":5126,"count":8664,"type":"VEC3"},{"bufferView":6,"componentType":5126,"count":8664,"type":"VEC3"},{"bufferView":7,"componentType":5126,"count":8664,"type":"SCALAR"},{"bufferView":8,"componentType":5125,"count":8580,"type":"SCALAR"},{"bufferView":9,"componentType":5125,"count":84,"type":"SCALAR"}],"materials":[{"name":"legacy-material-12","pbrMetallicRoughness":{"baseColorFactor":[1,1,1,1],"metallicFactor":0,"roughnessFactor":1},"doubleSided":true,"extras":{"legacyMaterial":12,"legacyShader":"dist/renderer-gl.js","limitation":"Browser procedural material not implemented by this glTF export; source/base attributes retained."}},{"name":"legacy-material-20","pbrMetallicRoughness":{"baseColorFactor":[1,1,1,1],"metallicFactor":0,"roughnessFactor":1,"baseColorTexture":{"index":0}},"doubleSided":true,"extras":{"legacyMaterial":20,"legacyShader":"dist/renderer-gl.js"}}],"extras":{"veldrenAssetId":"veldren:world-part:6aca5b4e30698e7731f1cef234d540465884224c3f7a64c212ea77d4b31c24e2"},"images":[{"name":"atlas-00","uri":"../../textures/atlas/tile-00.png"}],"textures":[{"source":0,"sampler":0}],"samplers":[{"magFilter":9729,"minFilter":9729,"wrapS":10497,"wrapT":10497}],"buffers":[{"uri":"6aca5b4e30698e7731f1cef234d540465884224c3f7a64c212ea77d4b31c24e2.bin","byteLength":762432}]}
