{"asset":{"version":"2.0","generator":"Veldren adapted asset recovery"},"scene":0,"scenes":[{"nodes":[0]}],"nodes":[{"name":"6bb207f5ccf41a479b3149444d79f5b24100eaae2596fd8bffff12f001b75354","mesh":0}],"meshes":[{"name":"6bb207f5ccf41a479b3149444d79f5b24100eaae2596fd8bffff12f001b75354","primitives":[{"attributes":{"POSITION":0,"NORMAL":1,"TEXCOORD_0":2,"COLOR_0":3,"_VELDREN_NORMAL":4,"_VELDREN_COLOR":5,"_VELDREN_FALLBACK":6,"_VELDREN_MATERIAL":7},"indices":8,"material":0,"extras":{"mixedAtlasFallback":false}},{"attributes":{"POSITION":0,"NORMAL":1,"TEXCOORD_0":2,"COLOR_0":3,"_VELDREN_NORMAL":4,"_VELDREN_COLOR":5,"_VELDREN_FALLBACK":6,"_VELDREN_MATERIAL":7},"indices":9,"material":1,"extras":{"mixedAtlasFallback":false}}]}],"bufferViews":[{"buffer":0,"byteOffset":0,"byteLength":7056,"target":34962},{"buffer":0,"byteOffset":7056,"byteLength":7056,"target":34962},{"buffer":0,"byteOffset":14112,"byteLength":4704,"target":34962},{"buffer":0,"byteOffset":18816,"byteLength":7056,"target":34962},{"buffer":0,"byteOffset":25872,"byteLength":7056,"target":34962},{"buffer":0,"byteOffset":32928,"byteLength":7056,"target":34962},{"buffer":0,"byteOffset":39984,"byteLength":7056,"target":34962},{"buffer":0,"byteOffset":47040,"byteLength":2352,"target":34962},{"buffer":0,"byteOffset":49392,"byteLength":288,"target":34963},{"buffer":0,"byteOffset":49680,"byteLength":2064,"target":34963}],"accessors":[{"bufferView":0,"componentType":5126,"count":588,"type":"VEC3","min":[81.64999389648438,0.75,68.69000244140625],"max":[82.739990234375,3.375,70.30999755859375]},{"bufferView":1,"componentType":5126,"count":588,"type":"VEC3"},{"bufferView":2,"componentType":5126,"count":588,"type":"VEC2"},{"bufferView":3,"componentType":5126,"count":588,"type":"VEC3"},{"bufferView":4,"componentType":5126,"count":588,"type":"VEC3"},{"bufferView":5,"componentType":5126,"count":588,"type":"VEC3"},{"bufferView":6,"componentType":5126,"count":588,"type":"VEC3"},{"bufferView":7,"componentType":5126,"count":588,"type":"SCALAR"},{"bufferView":8,"componentType":5125,"count":72,"type":"SCALAR"},{"bufferView":9,"componentType":5125,"count":516,"type":"SCALAR"}],"materials":[{"name":"legacy-material-18","pbrMetallicRoughness":{"baseColorFactor":[1,1,1,1],"metallicFactor":0,"roughnessFactor":1},"doubleSided":true,"extras":{"legacyMaterial":18,"legacyShader":"dist/renderer-gl.js","limitation":"Browser procedural material not implemented by this glTF export; source/base attributes retained."}},{"name":"legacy-material-20","pbrMetallicRoughness":{"baseColorFactor":[1,1,1,1],"metallicFactor":0,"roughnessFactor":1,"baseColorTexture":{"index":0}},"doubleSided":true,"extras":{"legacyMaterial":20,"legacyShader":"dist/renderer-gl.js"}}],"extras":{"veldrenAssetId":"veldren:world-part:6bb207f5ccf41a479b3149444d79f5b24100eaae2596fd8bffff12f001b75354"},"images":[{"name":"atlas-00","uri":"../../textures/atlas/tile-00.png"}],"textures":[{"source":0,"sampler":0}],"samplers":[{"magFilter":9729,"minFilter":9729,"wrapS":10497,"wrapT":10497}],"buffers":[{"uri":"6bb207f5ccf41a479b3149444d79f5b24100eaae2596fd8bffff12f001b75354.bin","byteLength":51744}]}
