{"asset":{"version":"2.0","generator":"Veldren adapted asset recovery"},"scene":0,"scenes":[{"nodes":[0]}],"nodes":[{"name":"6ceb99c11081cd28a643097210b589ab131137f235c665e694963c4aba9f5a20","mesh":0}],"meshes":[{"name":"6ceb99c11081cd28a643097210b589ab131137f235c665e694963c4aba9f5a20","primitives":[{"attributes":{"POSITION":0,"NORMAL":1,"TEXCOORD_0":2,"COLOR_0":3,"_VELDREN_NORMAL":4,"_VELDREN_COLOR":5,"_VELDREN_FALLBACK":6,"_VELDREN_MATERIAL":7},"indices":8,"material":0,"extras":{"mixedAtlasFallback":false}},{"attributes":{"POSITION":0,"NORMAL":1,"TEXCOORD_0":2,"COLOR_0":3,"_VELDREN_NORMAL":4,"_VELDREN_COLOR":5,"_VELDREN_FALLBACK":6,"_VELDREN_MATERIAL":7},"indices":9,"material":1,"extras":{"mixedAtlasFallback":false}}]}],"bufferViews":[{"buffer":0,"byteOffset":0,"byteLength":1608,"target":34962},{"buffer":0,"byteOffset":1608,"byteLength":1608,"target":34962},{"buffer":0,"byteOffset":3216,"byteLength":1072,"target":34962},{"buffer":0,"byteOffset":4288,"byteLength":1608,"target":34962},{"buffer":0,"byteOffset":5896,"byteLength":1608,"target":34962},{"buffer":0,"byteOffset":7504,"byteLength":1608,"target":34962},{"buffer":0,"byteOffset":9112,"byteLength":1608,"target":34962},{"buffer":0,"byteOffset":10720,"byteLength":536,"target":34962},{"buffer":0,"byteOffset":11256,"byteLength":960,"target":34963},{"buffer":0,"byteOffset":12216,"byteLength":72,"target":34963}],"accessors":[{"bufferView":0,"componentType":5126,"count":134,"type":"VEC3","min":[-1.0000001192092896,-0.0020958781242370605,-0.3140353262424469],"max":[1.0,3.1226887702941895,0.0924467146396637]},{"bufferView":1,"componentType":5126,"count":134,"type":"VEC3"},{"bufferView":2,"componentType":5126,"count":134,"type":"VEC2"},{"bufferView":3,"componentType":5126,"count":134,"type":"VEC3"},{"bufferView":4,"componentType":5126,"count":134,"type":"VEC3"},{"bufferView":5,"componentType":5126,"count":134,"type":"VEC3"},{"bufferView":6,"componentType":5126,"count":134,"type":"VEC3"},{"bufferView":7,"componentType":5126,"count":134,"type":"SCALAR"},{"bufferView":8,"componentType":5125,"count":240,"type":"SCALAR"},{"bufferView":9,"componentType":5125,"count":18,"type":"SCALAR"}],"materials":[{"name":"legacy-material-21","pbrMetallicRoughness":{"baseColorFactor":[1,1,1,1],"metallicFactor":0,"roughnessFactor":1,"baseColorTexture":{"index":0}},"doubleSided":true,"extras":{"legacyMaterial":21,"legacyShader":"dist/renderer-gl.js"}},{"name":"legacy-material-22","pbrMetallicRoughness":{"baseColorFactor":[1,1,1,1],"metallicFactor":0,"roughnessFactor":1,"baseColorTexture":{"index":1}},"doubleSided":true,"extras":{"legacyMaterial":22,"legacyShader":"dist/renderer-gl.js"}}],"extras":{"veldrenAssetId":"veldren:world-part:6ceb99c11081cd28a643097210b589ab131137f235c665e694963c4aba9f5a20"},"images":[{"name":"atlas-01","uri":"../../textures/atlas/tile-01.png"},{"name":"atlas-02","uri":"../../textures/atlas/tile-02.png"}],"textures":[{"source":0,"sampler":0},{"source":1,"sampler":0}],"samplers":[{"magFilter":9729,"minFilter":9729,"wrapS":10497,"wrapT":10497}],"buffers":[{"uri":"6ceb99c11081cd28a643097210b589ab131137f235c665e694963c4aba9f5a20.bin","byteLength":12288}]}
