{"asset":{"version":"2.0","generator":"Veldren adapted asset recovery"},"scene":0,"scenes":[{"nodes":[0]}],"nodes":[{"name":"6e7a78fefe8b1ec13814c6a4fe3d4679cd75303169320668a37ea0941417eb0d","mesh":0}],"meshes":[{"name":"6e7a78fefe8b1ec13814c6a4fe3d4679cd75303169320668a37ea0941417eb0d","primitives":[{"attributes":{"POSITION":0,"NORMAL":1,"TEXCOORD_0":2,"COLOR_0":3,"_VELDREN_NORMAL":4,"_VELDREN_COLOR":5,"_VELDREN_FALLBACK":6,"_VELDREN_MATERIAL":7},"indices":8,"material":0,"extras":{"mixedAtlasFallback":false}}]}],"bufferViews":[{"buffer":0,"byteOffset":0,"byteLength":3456,"target":34962},{"buffer":0,"byteOffset":3456,"byteLength":3456,"target":34962},{"buffer":0,"byteOffset":6912,"byteLength":2304,"target":34962},{"buffer":0,"byteOffset":9216,"byteLength":3456,"target":34962},{"buffer":0,"byteOffset":12672,"byteLength":3456,"target":34962},{"buffer":0,"byteOffset":16128,"byteLength":3456,"target":34962},{"buffer":0,"byteOffset":19584,"byteLength":3456,"target":34962},{"buffer":0,"byteOffset":23040,"byteLength":1152,"target":34962},{"buffer":0,"byteOffset":24192,"byteLength":1152,"target":34963}],"accessors":[{"bufferView":0,"componentType":5126,"count":288,"type":"VEC3","min":[757.7100219726562,3.1871798038482666,137.36143493652344],"max":[759.2899780273438,4.287179946899414,137.6999969482422]},{"bufferView":1,"componentType":5126,"count":288,"type":"VEC3"},{"bufferView":2,"componentType":5126,"count":288,"type":"VEC2"},{"bufferView":3,"componentType":5126,"count":288,"type":"VEC3"},{"bufferView":4,"componentType":5126,"count":288,"type":"VEC3"},{"bufferView":5,"componentType":5126,"count":288,"type":"VEC3"},{"bufferView":6,"componentType":5126,"count":288,"type":"VEC3"},{"bufferView":7,"componentType":5126,"count":288,"type":"SCALAR"},{"bufferView":8,"componentType":5125,"count":288,"type":"SCALAR"}],"materials":[{"name":"legacy-material-20","pbrMetallicRoughness":{"baseColorFactor":[1,1,1,1],"metallicFactor":0,"roughnessFactor":1,"baseColorTexture":{"index":0}},"doubleSided":true,"extras":{"legacyMaterial":20,"legacyShader":"dist/renderer-gl.js"}}],"extras":{"veldrenAssetId":"veldren:world-part:6e7a78fefe8b1ec13814c6a4fe3d4679cd75303169320668a37ea0941417eb0d"},"images":[{"name":"atlas-00","uri":"../../textures/atlas/tile-00.png"}],"textures":[{"source":0,"sampler":0}],"samplers":[{"magFilter":9729,"minFilter":9729,"wrapS":10497,"wrapT":10497}],"buffers":[{"uri":"6e7a78fefe8b1ec13814c6a4fe3d4679cd75303169320668a37ea0941417eb0d.bin","byteLength":25344}]}
