{"asset":{"version":"2.0","generator":"Veldren adapted asset recovery"},"scene":0,"scenes":[{"nodes":[0]}],"nodes":[{"name":"71361f5f0e3651cbf9e718aa09a4ed053c36007d4373acffa9b28be748bc7f9b","mesh":0}],"meshes":[{"name":"71361f5f0e3651cbf9e718aa09a4ed053c36007d4373acffa9b28be748bc7f9b","primitives":[{"attributes":{"POSITION":0,"NORMAL":1,"TEXCOORD_0":2,"COLOR_0":3,"_VELDREN_NORMAL":4,"_VELDREN_COLOR":5,"_VELDREN_FALLBACK":6,"_VELDREN_MATERIAL":7},"indices":8,"material":0,"extras":{"mixedAtlasFallback":false}},{"attributes":{"POSITION":0,"NORMAL":1,"TEXCOORD_0":2,"COLOR_0":3,"_VELDREN_NORMAL":4,"_VELDREN_COLOR":5,"_VELDREN_FALLBACK":6,"_VELDREN_MATERIAL":7},"indices":9,"material":1,"extras":{"mixedAtlasFallback":false}}]}],"bufferViews":[{"buffer":0,"byteOffset":0,"byteLength":23928,"target":34962},{"buffer":0,"byteOffset":23928,"byteLength":23928,"target":34962},{"buffer":0,"byteOffset":47856,"byteLength":15952,"target":34962},{"buffer":0,"byteOffset":63808,"byteLength":23928,"target":34962},{"buffer":0,"byteOffset":87736,"byteLength":23928,"target":34962},{"buffer":0,"byteOffset":111664,"byteLength":23928,"target":34962},{"buffer":0,"byteOffset":135592,"byteLength":23928,"target":34962},{"buffer":0,"byteOffset":159520,"byteLength":7976,"target":34962},{"buffer":0,"byteOffset":167496,"byteLength":11472,"target":34963},{"buffer":0,"byteOffset":178968,"byteLength":13536,"target":34963}],"accessors":[{"bufferView":0,"componentType":5126,"count":1994,"type":"VEC3","min":[-0.6930983662605286,-0.0033770801965147257,-0.49469810724258423],"max":[0.6930983662605286,1.1059458255767822,0.488442987203598]},{"bufferView":1,"componentType":5126,"count":1994,"type":"VEC3"},{"bufferView":2,"componentType":5126,"count":1994,"type":"VEC2"},{"bufferView":3,"componentType":5126,"count":1994,"type":"VEC3"},{"bufferView":4,"componentType":5126,"count":1994,"type":"VEC3"},{"bufferView":5,"componentType":5126,"count":1994,"type":"VEC3"},{"bufferView":6,"componentType":5126,"count":1994,"type":"VEC3"},{"bufferView":7,"componentType":5126,"count":1994,"type":"SCALAR"},{"bufferView":8,"componentType":5125,"count":2868,"type":"SCALAR"},{"bufferView":9,"componentType":5125,"count":3384,"type":"SCALAR"}],"materials":[{"name":"legacy-material-43","pbrMetallicRoughness":{"baseColorFactor":[1,1,1,1],"metallicFactor":0,"roughnessFactor":1,"baseColorTexture":{"index":0}},"doubleSided":true,"extras":{"legacyMaterial":43,"legacyShader":"dist/renderer-gl.js"}},{"name":"legacy-material-42","pbrMetallicRoughness":{"baseColorFactor":[1,1,1,1],"metallicFactor":0,"roughnessFactor":1,"baseColorTexture":{"index":1}},"doubleSided":true,"extras":{"legacyMaterial":42,"legacyShader":"dist/renderer-gl.js"}}],"extras":{"veldrenAssetId":"veldren:world-part:71361f5f0e3651cbf9e718aa09a4ed053c36007d4373acffa9b28be748bc7f9b"},"images":[{"name":"atlas-23","uri":"../../textures/atlas/tile-23.png"},{"name":"atlas-22","uri":"../../textures/atlas/tile-22.png"}],"textures":[{"source":0,"sampler":0},{"source":1,"sampler":0}],"samplers":[{"magFilter":9729,"minFilter":9729,"wrapS":10497,"wrapT":10497}],"buffers":[{"uri":"71361f5f0e3651cbf9e718aa09a4ed053c36007d4373acffa9b28be748bc7f9b.bin","byteLength":192504}]}
