{"asset":{"version":"2.0","generator":"Veldren adapted asset recovery"},"scene":0,"scenes":[{"nodes":[0]}],"nodes":[{"name":"73a564ec6fac421850c369c2ad56075889a84e400bdd16a4a48fc595dbcaac6f","mesh":0}],"meshes":[{"name":"73a564ec6fac421850c369c2ad56075889a84e400bdd16a4a48fc595dbcaac6f","primitives":[{"attributes":{"POSITION":0,"NORMAL":1,"TEXCOORD_0":2,"COLOR_0":3,"_VELDREN_NORMAL":4,"_VELDREN_COLOR":5,"_VELDREN_FALLBACK":6,"_VELDREN_MATERIAL":7},"indices":8,"material":0,"extras":{"mixedAtlasFallback":false}},{"attributes":{"POSITION":0,"NORMAL":1,"TEXCOORD_0":2,"COLOR_0":3,"_VELDREN_NORMAL":4,"_VELDREN_COLOR":5,"_VELDREN_FALLBACK":6,"_VELDREN_MATERIAL":7},"indices":9,"material":1,"extras":{"mixedAtlasFallback":false}},{"attributes":{"POSITION":0,"NORMAL":1,"TEXCOORD_0":2,"COLOR_0":3,"_VELDREN_NORMAL":4,"_VELDREN_COLOR":5,"_VELDREN_FALLBACK":6,"_VELDREN_MATERIAL":7},"indices":10,"material":2,"extras":{"mixedAtlasFallback":false}}]}],"bufferViews":[{"buffer":0,"byteOffset":0,"byteLength":2412,"target":34962},{"buffer":0,"byteOffset":2412,"byteLength":2412,"target":34962},{"buffer":0,"byteOffset":4824,"byteLength":1608,"target":34962},{"buffer":0,"byteOffset":6432,"byteLength":2412,"target":34962},{"buffer":0,"byteOffset":8844,"byteLength":2412,"target":34962},{"buffer":0,"byteOffset":11256,"byteLength":2412,"target":34962},{"buffer":0,"byteOffset":13668,"byteLength":2412,"target":34962},{"buffer":0,"byteOffset":16080,"byteLength":804,"target":34962},{"buffer":0,"byteOffset":16884,"byteLength":816,"target":34963},{"buffer":0,"byteOffset":17700,"byteLength":780,"target":34963},{"buffer":0,"byteOffset":18480,"byteLength":48,"target":34963}],"accessors":[{"bufferView":0,"componentType":5126,"count":201,"type":"VEC3","min":[-1.0000001192092896,0.0,-0.3140353262424469],"max":[1.0,3.1226887702941895,0.0924467146396637]},{"bufferView":1,"componentType":5126,"count":201,"type":"VEC3"},{"bufferView":2,"componentType":5126,"count":201,"type":"VEC2"},{"bufferView":3,"componentType":5126,"count":201,"type":"VEC3"},{"bufferView":4,"componentType":5126,"count":201,"type":"VEC3"},{"bufferView":5,"componentType":5126,"count":201,"type":"VEC3"},{"bufferView":6,"componentType":5126,"count":201,"type":"VEC3"},{"bufferView":7,"componentType":5126,"count":201,"type":"SCALAR"},{"bufferView":8,"componentType":5125,"count":204,"type":"SCALAR"},{"bufferView":9,"componentType":5125,"count":195,"type":"SCALAR"},{"bufferView":10,"componentType":5125,"count":12,"type":"SCALAR"}],"materials":[{"name":"legacy-material-21","pbrMetallicRoughness":{"baseColorFactor":[1,1,1,1],"metallicFactor":0,"roughnessFactor":1,"baseColorTexture":{"index":0}},"doubleSided":true,"extras":{"legacyMaterial":21,"legacyShader":"dist/renderer-gl.js"}},{"name":"legacy-material-22","pbrMetallicRoughness":{"baseColorFactor":[1,1,1,1],"metallicFactor":0,"roughnessFactor":1,"baseColorTexture":{"index":1}},"doubleSided":true,"extras":{"legacyMaterial":22,"legacyShader":"dist/renderer-gl.js"}},{"name":"legacy-material-24","pbrMetallicRoughness":{"baseColorFactor":[1,1,1,1],"metallicFactor":0,"roughnessFactor":1,"baseColorTexture":{"index":2}},"doubleSided":true,"extras":{"legacyMaterial":24,"legacyShader":"dist/renderer-gl.js"}}],"extras":{"veldrenAssetId":"veldren:world-part:73a564ec6fac421850c369c2ad56075889a84e400bdd16a4a48fc595dbcaac6f"},"images":[{"name":"atlas-01","uri":"../../textures/atlas/tile-01.png"},{"name":"atlas-02","uri":"../../textures/atlas/tile-02.png"},{"name":"atlas-04","uri":"../../textures/atlas/tile-04.png"}],"textures":[{"source":0,"sampler":0},{"source":1,"sampler":0},{"source":2,"sampler":0}],"samplers":[{"magFilter":9729,"minFilter":9729,"wrapS":10497,"wrapT":10497}],"buffers":[{"uri":"73a564ec6fac421850c369c2ad56075889a84e400bdd16a4a48fc595dbcaac6f.bin","byteLength":18528}]}
