{"asset":{"version":"2.0","generator":"Veldren adapted asset recovery"},"scene":0,"scenes":[{"nodes":[0]}],"nodes":[{"name":"74009865807e4ce8cc332a7a091d5f55106ae6e43d3a0e6f2ddc38f44b9fec6a","mesh":0}],"meshes":[{"name":"74009865807e4ce8cc332a7a091d5f55106ae6e43d3a0e6f2ddc38f44b9fec6a","primitives":[{"attributes":{"POSITION":0,"NORMAL":1,"TEXCOORD_0":2,"COLOR_0":3,"_VELDREN_NORMAL":4,"_VELDREN_COLOR":5,"_VELDREN_FALLBACK":6,"_VELDREN_MATERIAL":7},"indices":8,"material":0,"extras":{"mixedAtlasFallback":false}},{"attributes":{"POSITION":0,"NORMAL":1,"TEXCOORD_0":2,"COLOR_0":3,"_VELDREN_NORMAL":4,"_VELDREN_COLOR":5,"_VELDREN_FALLBACK":6,"_VELDREN_MATERIAL":7},"indices":9,"material":1,"extras":{"mixedAtlasFallback":false}}]}],"bufferViews":[{"buffer":0,"byteOffset":0,"byteLength":17112,"target":34962},{"buffer":0,"byteOffset":17112,"byteLength":17112,"target":34962},{"buffer":0,"byteOffset":34224,"byteLength":11408,"target":34962},{"buffer":0,"byteOffset":45632,"byteLength":17112,"target":34962},{"buffer":0,"byteOffset":62744,"byteLength":17112,"target":34962},{"buffer":0,"byteOffset":79856,"byteLength":17112,"target":34962},{"buffer":0,"byteOffset":96968,"byteLength":17112,"target":34962},{"buffer":0,"byteOffset":114080,"byteLength":5704,"target":34962},{"buffer":0,"byteOffset":119784,"byteLength":3936,"target":34963},{"buffer":0,"byteOffset":123720,"byteLength":14976,"target":34963}],"accessors":[{"bufferView":0,"componentType":5126,"count":1426,"type":"VEC3","min":[-0.42584478855133057,-0.05243159085512161,-0.4541466534137726],"max":[0.4164137542247772,0.8784963488578796,0.4541466534137726]},{"bufferView":1,"componentType":5126,"count":1426,"type":"VEC3"},{"bufferView":2,"componentType":5126,"count":1426,"type":"VEC2"},{"bufferView":3,"componentType":5126,"count":1426,"type":"VEC3"},{"bufferView":4,"componentType":5126,"count":1426,"type":"VEC3"},{"bufferView":5,"componentType":5126,"count":1426,"type":"VEC3"},{"bufferView":6,"componentType":5126,"count":1426,"type":"VEC3"},{"bufferView":7,"componentType":5126,"count":1426,"type":"SCALAR"},{"bufferView":8,"componentType":5125,"count":984,"type":"SCALAR"},{"bufferView":9,"componentType":5125,"count":3744,"type":"SCALAR"}],"materials":[{"name":"legacy-material-43","pbrMetallicRoughness":{"baseColorFactor":[1,1,1,1],"metallicFactor":0,"roughnessFactor":1,"baseColorTexture":{"index":0}},"doubleSided":true,"extras":{"legacyMaterial":43,"legacyShader":"dist/renderer-gl.js"}},{"name":"legacy-material-42","pbrMetallicRoughness":{"baseColorFactor":[1,1,1,1],"metallicFactor":0,"roughnessFactor":1,"baseColorTexture":{"index":1}},"doubleSided":true,"extras":{"legacyMaterial":42,"legacyShader":"dist/renderer-gl.js"}}],"extras":{"veldrenAssetId":"veldren:world-part:74009865807e4ce8cc332a7a091d5f55106ae6e43d3a0e6f2ddc38f44b9fec6a"},"images":[{"name":"atlas-23","uri":"../../textures/atlas/tile-23.png"},{"name":"atlas-22","uri":"../../textures/atlas/tile-22.png"}],"textures":[{"source":0,"sampler":0},{"source":1,"sampler":0}],"samplers":[{"magFilter":9729,"minFilter":9729,"wrapS":10497,"wrapT":10497}],"buffers":[{"uri":"74009865807e4ce8cc332a7a091d5f55106ae6e43d3a0e6f2ddc38f44b9fec6a.bin","byteLength":138696}]}
