{"asset":{"version":"2.0","generator":"Veldren adapted asset recovery"},"scene":0,"scenes":[{"nodes":[0]}],"nodes":[{"name":"78db525a718b93747dbae265b16b2d6fb0efee8549a862f63542db8a4145dc35","mesh":0}],"meshes":[{"name":"78db525a718b93747dbae265b16b2d6fb0efee8549a862f63542db8a4145dc35","primitives":[{"attributes":{"POSITION":0,"NORMAL":1,"TEXCOORD_0":2,"COLOR_0":3,"_VELDREN_NORMAL":4,"_VELDREN_COLOR":5,"_VELDREN_FALLBACK":6,"_VELDREN_MATERIAL":7},"indices":8,"material":0,"extras":{"mixedAtlasFallback":false}}]}],"bufferViews":[{"buffer":0,"byteOffset":0,"byteLength":2916,"target":34962},{"buffer":0,"byteOffset":2916,"byteLength":2916,"target":34962},{"buffer":0,"byteOffset":5832,"byteLength":1944,"target":34962},{"buffer":0,"byteOffset":7776,"byteLength":2916,"target":34962},{"buffer":0,"byteOffset":10692,"byteLength":2916,"target":34962},{"buffer":0,"byteOffset":13608,"byteLength":2916,"target":34962},{"buffer":0,"byteOffset":16524,"byteLength":2916,"target":34962},{"buffer":0,"byteOffset":19440,"byteLength":972,"target":34962},{"buffer":0,"byteOffset":20412,"byteLength":3456,"target":34963}],"accessors":[{"bufferView":0,"componentType":5126,"count":243,"type":"VEC3","min":[-1.381242275238037,-0.0773344337940216,-1.278536081314087],"max":[1.4456915855407715,0.7629088163375854,1.373783826828003]},{"bufferView":1,"componentType":5126,"count":243,"type":"VEC3"},{"bufferView":2,"componentType":5126,"count":243,"type":"VEC2"},{"bufferView":3,"componentType":5126,"count":243,"type":"VEC3"},{"bufferView":4,"componentType":5126,"count":243,"type":"VEC3"},{"bufferView":5,"componentType":5126,"count":243,"type":"VEC3"},{"bufferView":6,"componentType":5126,"count":243,"type":"VEC3"},{"bufferView":7,"componentType":5126,"count":243,"type":"SCALAR"},{"bufferView":8,"componentType":5125,"count":864,"type":"SCALAR"}],"materials":[{"name":"legacy-material-34","pbrMetallicRoughness":{"baseColorFactor":[1,1,1,1],"metallicFactor":0,"roughnessFactor":1,"baseColorTexture":{"index":0}},"doubleSided":true,"extras":{"legacyMaterial":34,"legacyShader":"dist/renderer-gl.js"},"alphaMode":"MASK","alphaCutoff":0.45}],"extras":{"veldrenAssetId":"veldren:world-part:78db525a718b93747dbae265b16b2d6fb0efee8549a862f63542db8a4145dc35"},"images":[{"name":"atlas-14","uri":"../../textures/atlas/tile-14.png"}],"textures":[{"source":0,"sampler":0}],"samplers":[{"magFilter":9729,"minFilter":9729,"wrapS":10497,"wrapT":10497}],"buffers":[{"uri":"78db525a718b93747dbae265b16b2d6fb0efee8549a862f63542db8a4145dc35.bin","byteLength":23868}]}
