{"asset":{"version":"2.0","generator":"Veldren adapted asset recovery"},"scene":0,"scenes":[{"nodes":[0]}],"nodes":[{"name":"7a9061d76f3ab40b7f72440897cd2b4af35b852877faedff08abd14bd93504b2","mesh":0}],"meshes":[{"name":"7a9061d76f3ab40b7f72440897cd2b4af35b852877faedff08abd14bd93504b2","primitives":[{"attributes":{"POSITION":0,"NORMAL":1,"TEXCOORD_0":2,"COLOR_0":3,"_VELDREN_NORMAL":4,"_VELDREN_COLOR":5,"_VELDREN_FALLBACK":6,"_VELDREN_MATERIAL":7},"indices":8,"material":0,"extras":{"mixedAtlasFallback":false}},{"attributes":{"POSITION":0,"NORMAL":1,"TEXCOORD_0":2,"COLOR_0":3,"_VELDREN_NORMAL":4,"_VELDREN_COLOR":5,"_VELDREN_FALLBACK":6,"_VELDREN_MATERIAL":7},"indices":9,"material":1,"extras":{"mixedAtlasFallback":false}},{"attributes":{"POSITION":0,"NORMAL":1,"TEXCOORD_0":2,"COLOR_0":3,"_VELDREN_NORMAL":4,"_VELDREN_COLOR":5,"_VELDREN_FALLBACK":6,"_VELDREN_MATERIAL":7},"indices":10,"material":2,"extras":{"mixedAtlasFallback":false}}]}],"bufferViews":[{"buffer":0,"byteOffset":0,"byteLength":3744,"target":34962},{"buffer":0,"byteOffset":3744,"byteLength":3744,"target":34962},{"buffer":0,"byteOffset":7488,"byteLength":2496,"target":34962},{"buffer":0,"byteOffset":9984,"byteLength":3744,"target":34962},{"buffer":0,"byteOffset":13728,"byteLength":3744,"target":34962},{"buffer":0,"byteOffset":17472,"byteLength":3744,"target":34962},{"buffer":0,"byteOffset":21216,"byteLength":3744,"target":34962},{"buffer":0,"byteOffset":24960,"byteLength":1248,"target":34962},{"buffer":0,"byteOffset":26208,"byteLength":960,"target":34963},{"buffer":0,"byteOffset":27168,"byteLength":144,"target":34963},{"buffer":0,"byteOffset":27312,"byteLength":144,"target":34963}],"accessors":[{"bufferView":0,"componentType":5126,"count":312,"type":"VEC3","min":[965.6199951171875,7.979725360870361,380.0],"max":[971.2999877929688,13.080362319946289,382.0440979003906]},{"bufferView":1,"componentType":5126,"count":312,"type":"VEC3"},{"bufferView":2,"componentType":5126,"count":312,"type":"VEC2"},{"bufferView":3,"componentType":5126,"count":312,"type":"VEC3"},{"bufferView":4,"componentType":5126,"count":312,"type":"VEC3"},{"bufferView":5,"componentType":5126,"count":312,"type":"VEC3"},{"bufferView":6,"componentType":5126,"count":312,"type":"VEC3"},{"bufferView":7,"componentType":5126,"count":312,"type":"SCALAR"},{"bufferView":8,"componentType":5125,"count":240,"type":"SCALAR"},{"bufferView":9,"componentType":5125,"count":36,"type":"SCALAR"},{"bufferView":10,"componentType":5125,"count":36,"type":"SCALAR"}],"materials":[{"name":"legacy-material-5","pbrMetallicRoughness":{"baseColorFactor":[1,1,1,1],"metallicFactor":0,"roughnessFactor":1},"doubleSided":true,"extras":{"legacyMaterial":5,"legacyShader":"dist/renderer-gl.js","limitation":"Browser procedural material not implemented by this glTF export; source/base attributes retained."}},{"name":"legacy-material-20","pbrMetallicRoughness":{"baseColorFactor":[1,1,1,1],"metallicFactor":0,"roughnessFactor":1,"baseColorTexture":{"index":0}},"doubleSided":true,"extras":{"legacyMaterial":20,"legacyShader":"dist/renderer-gl.js"}},{"name":"legacy-material-18","pbrMetallicRoughness":{"baseColorFactor":[1,1,1,1],"metallicFactor":0,"roughnessFactor":1},"doubleSided":true,"extras":{"legacyMaterial":18,"legacyShader":"dist/renderer-gl.js","limitation":"Browser procedural material not implemented by this glTF export; source/base attributes retained."}}],"extras":{"veldrenAssetId":"veldren:world-part:7a9061d76f3ab40b7f72440897cd2b4af35b852877faedff08abd14bd93504b2"},"images":[{"name":"atlas-00","uri":"../../textures/atlas/tile-00.png"}],"textures":[{"source":0,"sampler":0}],"samplers":[{"magFilter":9729,"minFilter":9729,"wrapS":10497,"wrapT":10497}],"buffers":[{"uri":"7a9061d76f3ab40b7f72440897cd2b4af35b852877faedff08abd14bd93504b2.bin","byteLength":27456}]}
