{"asset":{"version":"2.0","generator":"Veldren adapted asset recovery"},"scene":0,"scenes":[{"nodes":[0]}],"nodes":[{"name":"7b736989a9d32b5db756fb602d3ca9c33530e8a92dd725353b3b3096e9fc93ba","mesh":0}],"meshes":[{"name":"7b736989a9d32b5db756fb602d3ca9c33530e8a92dd725353b3b3096e9fc93ba","primitives":[{"attributes":{"POSITION":0,"NORMAL":1,"TEXCOORD_0":2,"COLOR_0":3,"_VELDREN_NORMAL":4,"_VELDREN_COLOR":5,"_VELDREN_FALLBACK":6,"_VELDREN_MATERIAL":7},"indices":8,"material":0,"extras":{"mixedAtlasFallback":false}}]}],"bufferViews":[{"buffer":0,"byteOffset":0,"byteLength":7344,"target":34962},{"buffer":0,"byteOffset":7344,"byteLength":7344,"target":34962},{"buffer":0,"byteOffset":14688,"byteLength":4896,"target":34962},{"buffer":0,"byteOffset":19584,"byteLength":7344,"target":34962},{"buffer":0,"byteOffset":26928,"byteLength":7344,"target":34962},{"buffer":0,"byteOffset":34272,"byteLength":7344,"target":34962},{"buffer":0,"byteOffset":41616,"byteLength":7344,"target":34962},{"buffer":0,"byteOffset":48960,"byteLength":2448,"target":34962},{"buffer":0,"byteOffset":51408,"byteLength":2448,"target":34963}],"accessors":[{"bufferView":0,"componentType":5126,"count":612,"type":"VEC3","min":[780.6649780273438,0.3535483479499817,45.0],"max":[782.3350219726562,3.7535483837127686,48.0]},{"bufferView":1,"componentType":5126,"count":612,"type":"VEC3"},{"bufferView":2,"componentType":5126,"count":612,"type":"VEC2"},{"bufferView":3,"componentType":5126,"count":612,"type":"VEC3"},{"bufferView":4,"componentType":5126,"count":612,"type":"VEC3"},{"bufferView":5,"componentType":5126,"count":612,"type":"VEC3"},{"bufferView":6,"componentType":5126,"count":612,"type":"VEC3"},{"bufferView":7,"componentType":5126,"count":612,"type":"SCALAR"},{"bufferView":8,"componentType":5125,"count":612,"type":"SCALAR"}],"materials":[{"name":"legacy-material-18","pbrMetallicRoughness":{"baseColorFactor":[1,1,1,1],"metallicFactor":0,"roughnessFactor":1},"doubleSided":true,"extras":{"legacyMaterial":18,"legacyShader":"dist/renderer-gl.js","limitation":"Browser procedural material not implemented by this glTF export; source/base attributes retained."}}],"extras":{"veldrenAssetId":"veldren:world-part:7b736989a9d32b5db756fb602d3ca9c33530e8a92dd725353b3b3096e9fc93ba"},"buffers":[{"uri":"7b736989a9d32b5db756fb602d3ca9c33530e8a92dd725353b3b3096e9fc93ba.bin","byteLength":53856}]}
