{"asset":{"version":"2.0","generator":"Veldren adapted asset recovery"},"scene":0,"scenes":[{"nodes":[0]}],"nodes":[{"name":"7c10b865fd10ec89e9df75568f9af20ead6f6bde8a168cdf15eba679b4163f8d","mesh":0}],"meshes":[{"name":"7c10b865fd10ec89e9df75568f9af20ead6f6bde8a168cdf15eba679b4163f8d","primitives":[{"attributes":{"POSITION":0,"NORMAL":1,"TEXCOORD_0":2,"COLOR_0":3,"_VELDREN_NORMAL":4,"_VELDREN_COLOR":5,"_VELDREN_FALLBACK":6,"_VELDREN_MATERIAL":7},"indices":8,"material":0,"extras":{"mixedAtlasFallback":false}},{"attributes":{"POSITION":0,"NORMAL":1,"TEXCOORD_0":2,"COLOR_0":3,"_VELDREN_NORMAL":4,"_VELDREN_COLOR":5,"_VELDREN_FALLBACK":6,"_VELDREN_MATERIAL":7},"indices":9,"material":1,"extras":{"mixedAtlasFallback":false}}]}],"bufferViews":[{"buffer":0,"byteOffset":0,"byteLength":504,"target":34962},{"buffer":0,"byteOffset":504,"byteLength":504,"target":34962},{"buffer":0,"byteOffset":1008,"byteLength":336,"target":34962},{"buffer":0,"byteOffset":1344,"byteLength":504,"target":34962},{"buffer":0,"byteOffset":1848,"byteLength":504,"target":34962},{"buffer":0,"byteOffset":2352,"byteLength":504,"target":34962},{"buffer":0,"byteOffset":2856,"byteLength":504,"target":34962},{"buffer":0,"byteOffset":3360,"byteLength":168,"target":34962},{"buffer":0,"byteOffset":3528,"byteLength":24,"target":34963},{"buffer":0,"byteOffset":3552,"byteLength":144,"target":34963}],"accessors":[{"bufferView":0,"componentType":5126,"count":42,"type":"VEC3","min":[20.799999237060547,0.0,136.6199951171875],"max":[24.200000762939453,3.055884599685669,137.0]},{"bufferView":1,"componentType":5126,"count":42,"type":"VEC3"},{"bufferView":2,"componentType":5126,"count":42,"type":"VEC2"},{"bufferView":3,"componentType":5126,"count":42,"type":"VEC3"},{"bufferView":4,"componentType":5126,"count":42,"type":"VEC3"},{"bufferView":5,"componentType":5126,"count":42,"type":"VEC3"},{"bufferView":6,"componentType":5126,"count":42,"type":"VEC3"},{"bufferView":7,"componentType":5126,"count":42,"type":"SCALAR"},{"bufferView":8,"componentType":5125,"count":6,"type":"SCALAR"},{"bufferView":9,"componentType":5125,"count":36,"type":"SCALAR"}],"materials":[{"name":"legacy-material-7","pbrMetallicRoughness":{"baseColorFactor":[1,1,1,1],"metallicFactor":0,"roughnessFactor":1},"doubleSided":true,"extras":{"legacyMaterial":7,"legacyShader":"dist/renderer-gl.js","limitation":"Browser procedural material not implemented by this glTF export; source/base attributes retained."}},{"name":"legacy-material-20","pbrMetallicRoughness":{"baseColorFactor":[1,1,1,1],"metallicFactor":0,"roughnessFactor":1,"baseColorTexture":{"index":0}},"doubleSided":true,"extras":{"legacyMaterial":20,"legacyShader":"dist/renderer-gl.js"}}],"extras":{"veldrenAssetId":"veldren:world-part:7c10b865fd10ec89e9df75568f9af20ead6f6bde8a168cdf15eba679b4163f8d"},"images":[{"name":"atlas-00","uri":"../../textures/atlas/tile-00.png"}],"textures":[{"source":0,"sampler":0}],"samplers":[{"magFilter":9729,"minFilter":9729,"wrapS":10497,"wrapT":10497}],"buffers":[{"uri":"7c10b865fd10ec89e9df75568f9af20ead6f6bde8a168cdf15eba679b4163f8d.bin","byteLength":3696}]}
