{"asset":{"version":"2.0","generator":"Veldren adapted asset recovery"},"scene":0,"scenes":[{"nodes":[0]}],"nodes":[{"name":"7da78c727df2807d2573e67c57fb1a964aafe0b0bfa7d7d2a52af11f535af89c","mesh":0}],"meshes":[{"name":"7da78c727df2807d2573e67c57fb1a964aafe0b0bfa7d7d2a52af11f535af89c","primitives":[{"attributes":{"POSITION":0,"NORMAL":1,"TEXCOORD_0":2,"COLOR_0":3,"_VELDREN_NORMAL":4,"_VELDREN_COLOR":5,"_VELDREN_FALLBACK":6,"_VELDREN_MATERIAL":7},"indices":8,"material":0,"extras":{"mixedAtlasFallback":false}}]}],"bufferViews":[{"buffer":0,"byteOffset":0,"byteLength":8784,"target":34962},{"buffer":0,"byteOffset":8784,"byteLength":8784,"target":34962},{"buffer":0,"byteOffset":17568,"byteLength":5856,"target":34962},{"buffer":0,"byteOffset":23424,"byteLength":8784,"target":34962},{"buffer":0,"byteOffset":32208,"byteLength":8784,"target":34962},{"buffer":0,"byteOffset":40992,"byteLength":8784,"target":34962},{"buffer":0,"byteOffset":49776,"byteLength":8784,"target":34962},{"buffer":0,"byteOffset":58560,"byteLength":2928,"target":34962},{"buffer":0,"byteOffset":61488,"byteLength":2928,"target":34963}],"accessors":[{"bufferView":0,"componentType":5126,"count":732,"type":"VEC3","min":[261.67498779296875,3.1699059009552,200.1750030517578],"max":[269.32501220703125,11.919905662536621,207.8249969482422]},{"bufferView":1,"componentType":5126,"count":732,"type":"VEC3"},{"bufferView":2,"componentType":5126,"count":732,"type":"VEC2"},{"bufferView":3,"componentType":5126,"count":732,"type":"VEC3"},{"bufferView":4,"componentType":5126,"count":732,"type":"VEC3"},{"bufferView":5,"componentType":5126,"count":732,"type":"VEC3"},{"bufferView":6,"componentType":5126,"count":732,"type":"VEC3"},{"bufferView":7,"componentType":5126,"count":732,"type":"SCALAR"},{"bufferView":8,"componentType":5125,"count":732,"type":"SCALAR"}],"materials":[{"name":"legacy-material-20","pbrMetallicRoughness":{"baseColorFactor":[1,1,1,1],"metallicFactor":0,"roughnessFactor":1,"baseColorTexture":{"index":0}},"doubleSided":true,"extras":{"legacyMaterial":20,"legacyShader":"dist/renderer-gl.js"}}],"extras":{"veldrenAssetId":"veldren:world-part:7da78c727df2807d2573e67c57fb1a964aafe0b0bfa7d7d2a52af11f535af89c"},"images":[{"name":"atlas-00","uri":"../../textures/atlas/tile-00.png"}],"textures":[{"source":0,"sampler":0}],"samplers":[{"magFilter":9729,"minFilter":9729,"wrapS":10497,"wrapT":10497}],"buffers":[{"uri":"7da78c727df2807d2573e67c57fb1a964aafe0b0bfa7d7d2a52af11f535af89c.bin","byteLength":64416}]}
