{"asset":{"version":"2.0","generator":"Veldren adapted asset recovery"},"scene":0,"scenes":[{"nodes":[0]}],"nodes":[{"name":"7e2e11a73c6c1f6b77c7c18c44a87655900818e94c168e7a92bb0a48cc87a1c1","mesh":0}],"meshes":[{"name":"7e2e11a73c6c1f6b77c7c18c44a87655900818e94c168e7a92bb0a48cc87a1c1","primitives":[{"attributes":{"POSITION":0,"NORMAL":1,"TEXCOORD_0":2,"COLOR_0":3,"_VELDREN_NORMAL":4,"_VELDREN_COLOR":5,"_VELDREN_FALLBACK":6,"_VELDREN_MATERIAL":7},"indices":8,"material":0,"extras":{"mixedAtlasFallback":false}},{"attributes":{"POSITION":0,"NORMAL":1,"TEXCOORD_0":2,"COLOR_0":3,"_VELDREN_NORMAL":4,"_VELDREN_COLOR":5,"_VELDREN_FALLBACK":6,"_VELDREN_MATERIAL":7},"indices":9,"material":1,"extras":{"mixedAtlasFallback":false}}]}],"bufferViews":[{"buffer":0,"byteOffset":0,"byteLength":5784,"target":34962},{"buffer":0,"byteOffset":5784,"byteLength":5784,"target":34962},{"buffer":0,"byteOffset":11568,"byteLength":3856,"target":34962},{"buffer":0,"byteOffset":15424,"byteLength":5784,"target":34962},{"buffer":0,"byteOffset":21208,"byteLength":5784,"target":34962},{"buffer":0,"byteOffset":26992,"byteLength":5784,"target":34962},{"buffer":0,"byteOffset":32776,"byteLength":5784,"target":34962},{"buffer":0,"byteOffset":38560,"byteLength":1928,"target":34962},{"buffer":0,"byteOffset":40488,"byteLength":1776,"target":34963},{"buffer":0,"byteOffset":42264,"byteLength":4608,"target":34963}],"accessors":[{"bufferView":0,"componentType":5126,"count":482,"type":"VEC3","min":[-3.7659718990325928,-0.07409700006246567,-3.4778990745544434],"max":[3.116921901702881,8.022987365722656,3.8158159255981445]},{"bufferView":1,"componentType":5126,"count":482,"type":"VEC3"},{"bufferView":2,"componentType":5126,"count":482,"type":"VEC2"},{"bufferView":3,"componentType":5126,"count":482,"type":"VEC3"},{"bufferView":4,"componentType":5126,"count":482,"type":"VEC3"},{"bufferView":5,"componentType":5126,"count":482,"type":"VEC3"},{"bufferView":6,"componentType":5126,"count":482,"type":"VEC3"},{"bufferView":7,"componentType":5126,"count":482,"type":"SCALAR"},{"bufferView":8,"componentType":5125,"count":444,"type":"SCALAR"},{"bufferView":9,"componentType":5125,"count":1152,"type":"SCALAR"}],"materials":[{"name":"legacy-material-49","pbrMetallicRoughness":{"baseColorFactor":[1,1,1,1],"metallicFactor":0,"roughnessFactor":1,"baseColorTexture":{"index":0}},"doubleSided":true,"extras":{"legacyMaterial":49,"legacyShader":"dist/renderer-gl.js"}},{"name":"legacy-material-54","pbrMetallicRoughness":{"baseColorFactor":[1,1,1,1],"metallicFactor":0,"roughnessFactor":1,"baseColorTexture":{"index":1}},"doubleSided":true,"extras":{"legacyMaterial":54,"legacyShader":"dist/renderer-gl.js"},"alphaMode":"MASK","alphaCutoff":0.45}],"extras":{"veldrenAssetId":"veldren:world-part:7e2e11a73c6c1f6b77c7c18c44a87655900818e94c168e7a92bb0a48cc87a1c1"},"images":[{"name":"atlas-29","uri":"../../textures/atlas/tile-29.png"},{"name":"atlas-34","uri":"../../textures/atlas/tile-34.png"}],"textures":[{"source":0,"sampler":0},{"source":1,"sampler":0}],"samplers":[{"magFilter":9729,"minFilter":9729,"wrapS":10497,"wrapT":10497}],"buffers":[{"uri":"7e2e11a73c6c1f6b77c7c18c44a87655900818e94c168e7a92bb0a48cc87a1c1.bin","byteLength":46872}]}
