{"asset":{"version":"2.0","generator":"Veldren adapted asset recovery"},"scene":0,"scenes":[{"nodes":[0]}],"nodes":[{"name":"7eef385146bbb448b43b47514a7506c2ad2b16dabff296246f08405dbbe9a2b7","mesh":0}],"meshes":[{"name":"7eef385146bbb448b43b47514a7506c2ad2b16dabff296246f08405dbbe9a2b7","primitives":[{"attributes":{"POSITION":0,"NORMAL":1,"TEXCOORD_0":2,"COLOR_0":3,"_VELDREN_NORMAL":4,"_VELDREN_COLOR":5,"_VELDREN_FALLBACK":6,"_VELDREN_MATERIAL":7},"indices":8,"material":0,"extras":{"mixedAtlasFallback":false}}]}],"bufferViews":[{"buffer":0,"byteOffset":0,"byteLength":2160,"target":34962},{"buffer":0,"byteOffset":2160,"byteLength":2160,"target":34962},{"buffer":0,"byteOffset":4320,"byteLength":1440,"target":34962},{"buffer":0,"byteOffset":5760,"byteLength":2160,"target":34962},{"buffer":0,"byteOffset":7920,"byteLength":2160,"target":34962},{"buffer":0,"byteOffset":10080,"byteLength":2160,"target":34962},{"buffer":0,"byteOffset":12240,"byteLength":2160,"target":34962},{"buffer":0,"byteOffset":14400,"byteLength":720,"target":34962},{"buffer":0,"byteOffset":15120,"byteLength":720,"target":34963}],"accessors":[{"bufferView":0,"componentType":5126,"count":180,"type":"VEC3","min":[-0.4000000059604645,0.014999999664723873,-0.3464101552963257],"max":[0.49202960729599,0.6499999761581421,0.3929634690284729]},{"bufferView":1,"componentType":5126,"count":180,"type":"VEC3"},{"bufferView":2,"componentType":5126,"count":180,"type":"VEC2"},{"bufferView":3,"componentType":5126,"count":180,"type":"VEC3"},{"bufferView":4,"componentType":5126,"count":180,"type":"VEC3"},{"bufferView":5,"componentType":5126,"count":180,"type":"VEC3"},{"bufferView":6,"componentType":5126,"count":180,"type":"VEC3"},{"bufferView":7,"componentType":5126,"count":180,"type":"SCALAR"},{"bufferView":8,"componentType":5125,"count":180,"type":"SCALAR"}],"materials":[{"name":"legacy-material-12","pbrMetallicRoughness":{"baseColorFactor":[1,1,1,1],"metallicFactor":0,"roughnessFactor":1},"doubleSided":true,"extras":{"legacyMaterial":12,"legacyShader":"dist/renderer-gl.js","limitation":"Browser procedural material not implemented by this glTF export; source/base attributes retained."}}],"extras":{"veldrenAssetId":"veldren:world-part:7eef385146bbb448b43b47514a7506c2ad2b16dabff296246f08405dbbe9a2b7"},"buffers":[{"uri":"7eef385146bbb448b43b47514a7506c2ad2b16dabff296246f08405dbbe9a2b7.bin","byteLength":15840}]}
