{"asset":{"version":"2.0","generator":"Veldren adapted asset recovery"},"scene":0,"scenes":[{"nodes":[0]}],"nodes":[{"name":"808fd5c41983b9f83a909094468f5d007a25e97b9a570c95194c20f799468121","mesh":0}],"meshes":[{"name":"808fd5c41983b9f83a909094468f5d007a25e97b9a570c95194c20f799468121","primitives":[{"attributes":{"POSITION":0,"NORMAL":1,"TEXCOORD_0":2,"COLOR_0":3,"_VELDREN_NORMAL":4,"_VELDREN_COLOR":5,"_VELDREN_FALLBACK":6,"_VELDREN_MATERIAL":7},"indices":8,"material":0,"extras":{"mixedAtlasFallback":false}},{"attributes":{"POSITION":0,"NORMAL":1,"TEXCOORD_0":2,"COLOR_0":3,"_VELDREN_NORMAL":4,"_VELDREN_COLOR":5,"_VELDREN_FALLBACK":6,"_VELDREN_MATERIAL":7},"indices":9,"material":1,"extras":{"mixedAtlasFallback":false}}]}],"bufferViews":[{"buffer":0,"byteOffset":0,"byteLength":5064,"target":34962},{"buffer":0,"byteOffset":5064,"byteLength":5064,"target":34962},{"buffer":0,"byteOffset":10128,"byteLength":3376,"target":34962},{"buffer":0,"byteOffset":13504,"byteLength":5064,"target":34962},{"buffer":0,"byteOffset":18568,"byteLength":5064,"target":34962},{"buffer":0,"byteOffset":23632,"byteLength":5064,"target":34962},{"buffer":0,"byteOffset":28696,"byteLength":5064,"target":34962},{"buffer":0,"byteOffset":33760,"byteLength":1688,"target":34962},{"buffer":0,"byteOffset":35448,"byteLength":3024,"target":34963},{"buffer":0,"byteOffset":38472,"byteLength":1824,"target":34963}],"accessors":[{"bufferView":0,"componentType":5126,"count":422,"type":"VEC3","min":[-1.3883408308029175,-0.007262172643095255,-0.2621202766895294],"max":[1.3883408308029175,0.525951623916626,0.2721467912197113]},{"bufferView":1,"componentType":5126,"count":422,"type":"VEC3"},{"bufferView":2,"componentType":5126,"count":422,"type":"VEC2"},{"bufferView":3,"componentType":5126,"count":422,"type":"VEC3"},{"bufferView":4,"componentType":5126,"count":422,"type":"VEC3"},{"bufferView":5,"componentType":5126,"count":422,"type":"VEC3"},{"bufferView":6,"componentType":5126,"count":422,"type":"VEC3"},{"bufferView":7,"componentType":5126,"count":422,"type":"SCALAR"},{"bufferView":8,"componentType":5125,"count":756,"type":"SCALAR"},{"bufferView":9,"componentType":5125,"count":456,"type":"SCALAR"}],"materials":[{"name":"legacy-material-43","pbrMetallicRoughness":{"baseColorFactor":[1,1,1,1],"metallicFactor":0,"roughnessFactor":1,"baseColorTexture":{"index":0}},"doubleSided":true,"extras":{"legacyMaterial":43,"legacyShader":"dist/renderer-gl.js"}},{"name":"legacy-material-42","pbrMetallicRoughness":{"baseColorFactor":[1,1,1,1],"metallicFactor":0,"roughnessFactor":1,"baseColorTexture":{"index":1}},"doubleSided":true,"extras":{"legacyMaterial":42,"legacyShader":"dist/renderer-gl.js"}}],"extras":{"veldrenAssetId":"veldren:world-part:808fd5c41983b9f83a909094468f5d007a25e97b9a570c95194c20f799468121"},"images":[{"name":"atlas-23","uri":"../../textures/atlas/tile-23.png"},{"name":"atlas-22","uri":"../../textures/atlas/tile-22.png"}],"textures":[{"source":0,"sampler":0},{"source":1,"sampler":0}],"samplers":[{"magFilter":9729,"minFilter":9729,"wrapS":10497,"wrapT":10497}],"buffers":[{"uri":"808fd5c41983b9f83a909094468f5d007a25e97b9a570c95194c20f799468121.bin","byteLength":40296}]}
