{"asset":{"version":"2.0","generator":"Veldren adapted asset recovery"},"scene":0,"scenes":[{"nodes":[0]}],"nodes":[{"name":"809a3d0da12723a71b8daaeeb2251a98798ae8aad98be46462ce4dd0351d2363","mesh":0}],"meshes":[{"name":"809a3d0da12723a71b8daaeeb2251a98798ae8aad98be46462ce4dd0351d2363","primitives":[{"attributes":{"POSITION":0,"NORMAL":1,"TEXCOORD_0":2,"COLOR_0":3,"_VELDREN_NORMAL":4,"_VELDREN_COLOR":5,"_VELDREN_FALLBACK":6,"_VELDREN_MATERIAL":7},"indices":8,"material":0,"extras":{"mixedAtlasFallback":false}}]}],"bufferViews":[{"buffer":0,"byteOffset":0,"byteLength":5616,"target":34962},{"buffer":0,"byteOffset":5616,"byteLength":5616,"target":34962},{"buffer":0,"byteOffset":11232,"byteLength":3744,"target":34962},{"buffer":0,"byteOffset":14976,"byteLength":5616,"target":34962},{"buffer":0,"byteOffset":20592,"byteLength":5616,"target":34962},{"buffer":0,"byteOffset":26208,"byteLength":5616,"target":34962},{"buffer":0,"byteOffset":31824,"byteLength":5616,"target":34962},{"buffer":0,"byteOffset":37440,"byteLength":1872,"target":34962},{"buffer":0,"byteOffset":39312,"byteLength":1872,"target":34963}],"accessors":[{"bufferView":0,"componentType":5126,"count":468,"type":"VEC3","min":[332.6000061035156,4.549721717834473,510.6000061035156],"max":[336.3999938964844,13.349721908569336,514.4000244140625]},{"bufferView":1,"componentType":5126,"count":468,"type":"VEC3"},{"bufferView":2,"componentType":5126,"count":468,"type":"VEC2"},{"bufferView":3,"componentType":5126,"count":468,"type":"VEC3"},{"bufferView":4,"componentType":5126,"count":468,"type":"VEC3"},{"bufferView":5,"componentType":5126,"count":468,"type":"VEC3"},{"bufferView":6,"componentType":5126,"count":468,"type":"VEC3"},{"bufferView":7,"componentType":5126,"count":468,"type":"SCALAR"},{"bufferView":8,"componentType":5125,"count":468,"type":"SCALAR"}],"materials":[{"name":"legacy-material-18","pbrMetallicRoughness":{"baseColorFactor":[1,1,1,1],"metallicFactor":0,"roughnessFactor":1},"doubleSided":true,"extras":{"legacyMaterial":18,"legacyShader":"dist/renderer-gl.js","limitation":"Browser procedural material not implemented by this glTF export; source/base attributes retained."}}],"extras":{"veldrenAssetId":"veldren:world-part:809a3d0da12723a71b8daaeeb2251a98798ae8aad98be46462ce4dd0351d2363"},"buffers":[{"uri":"809a3d0da12723a71b8daaeeb2251a98798ae8aad98be46462ce4dd0351d2363.bin","byteLength":41184}]}
