{"asset":{"version":"2.0","generator":"Veldren adapted asset recovery"},"scene":0,"scenes":[{"nodes":[0]}],"nodes":[{"name":"8480a643e36c0194bf11e79cbc019e38e5ff72b8bc295b144212e5f7a5b37347","mesh":0}],"meshes":[{"name":"8480a643e36c0194bf11e79cbc019e38e5ff72b8bc295b144212e5f7a5b37347","primitives":[{"attributes":{"POSITION":0,"NORMAL":1,"TEXCOORD_0":2,"COLOR_0":3,"_VELDREN_NORMAL":4,"_VELDREN_COLOR":5,"_VELDREN_FALLBACK":6,"_VELDREN_MATERIAL":7},"indices":8,"material":0,"extras":{"mixedAtlasFallback":false}},{"attributes":{"POSITION":0,"NORMAL":1,"TEXCOORD_0":2,"COLOR_0":3,"_VELDREN_NORMAL":4,"_VELDREN_COLOR":5,"_VELDREN_FALLBACK":6,"_VELDREN_MATERIAL":7},"indices":9,"material":1,"extras":{"mixedAtlasFallback":false}}]}],"bufferViews":[{"buffer":0,"byteOffset":0,"byteLength":7860,"target":34962},{"buffer":0,"byteOffset":7860,"byteLength":7860,"target":34962},{"buffer":0,"byteOffset":15720,"byteLength":5240,"target":34962},{"buffer":0,"byteOffset":20960,"byteLength":7860,"target":34962},{"buffer":0,"byteOffset":28820,"byteLength":7860,"target":34962},{"buffer":0,"byteOffset":36680,"byteLength":7860,"target":34962},{"buffer":0,"byteOffset":44540,"byteLength":7860,"target":34962},{"buffer":0,"byteOffset":52400,"byteLength":2620,"target":34962},{"buffer":0,"byteOffset":55020,"byteLength":5328,"target":34963},{"buffer":0,"byteOffset":60348,"byteLength":4320,"target":34963}],"accessors":[{"bufferView":0,"componentType":5126,"count":655,"type":"VEC3","min":[-2.3328819274902344,0.011172999627888203,-2.0712060928344727],"max":[1.805098056793213,5.555437088012695,2.05914306640625]},{"bufferView":1,"componentType":5126,"count":655,"type":"VEC3"},{"bufferView":2,"componentType":5126,"count":655,"type":"VEC2"},{"bufferView":3,"componentType":5126,"count":655,"type":"VEC3"},{"bufferView":4,"componentType":5126,"count":655,"type":"VEC3"},{"bufferView":5,"componentType":5126,"count":655,"type":"VEC3"},{"bufferView":6,"componentType":5126,"count":655,"type":"VEC3"},{"bufferView":7,"componentType":5126,"count":655,"type":"SCALAR"},{"bufferView":8,"componentType":5125,"count":1332,"type":"SCALAR"},{"bufferView":9,"componentType":5125,"count":1080,"type":"SCALAR"}],"materials":[{"name":"legacy-material-49","pbrMetallicRoughness":{"baseColorFactor":[1,1,1,1],"metallicFactor":0,"roughnessFactor":1,"baseColorTexture":{"index":0}},"doubleSided":true,"extras":{"legacyMaterial":49,"legacyShader":"dist/renderer-gl.js"}},{"name":"legacy-material-50","pbrMetallicRoughness":{"baseColorFactor":[1,1,1,1],"metallicFactor":0,"roughnessFactor":1,"baseColorTexture":{"index":1}},"doubleSided":true,"extras":{"legacyMaterial":50,"legacyShader":"dist/renderer-gl.js"},"alphaMode":"MASK","alphaCutoff":0.45}],"extras":{"veldrenAssetId":"veldren:world-part:8480a643e36c0194bf11e79cbc019e38e5ff72b8bc295b144212e5f7a5b37347"},"images":[{"name":"atlas-29","uri":"../../textures/atlas/tile-29.png"},{"name":"atlas-30","uri":"../../textures/atlas/tile-30.png"}],"textures":[{"source":0,"sampler":0},{"source":1,"sampler":0}],"samplers":[{"magFilter":9729,"minFilter":9729,"wrapS":10497,"wrapT":10497}],"buffers":[{"uri":"8480a643e36c0194bf11e79cbc019e38e5ff72b8bc295b144212e5f7a5b37347.bin","byteLength":64668}]}
