{"asset":{"version":"2.0","generator":"Veldren adapted asset recovery"},"scene":0,"scenes":[{"nodes":[0]}],"nodes":[{"name":"87c9bf68b51143e8207ddf1f5ad10fc484e56399ced9c853ba8fdbc4cdf3d6fa","mesh":0}],"meshes":[{"name":"87c9bf68b51143e8207ddf1f5ad10fc484e56399ced9c853ba8fdbc4cdf3d6fa","primitives":[{"attributes":{"POSITION":0,"NORMAL":1,"TEXCOORD_0":2,"COLOR_0":3,"_VELDREN_NORMAL":4,"_VELDREN_COLOR":5,"_VELDREN_FALLBACK":6,"_VELDREN_MATERIAL":7},"indices":8,"material":0,"extras":{"mixedAtlasFallback":false}}]}],"bufferViews":[{"buffer":0,"byteOffset":0,"byteLength":5400,"target":34962},{"buffer":0,"byteOffset":5400,"byteLength":5400,"target":34962},{"buffer":0,"byteOffset":10800,"byteLength":3600,"target":34962},{"buffer":0,"byteOffset":14400,"byteLength":5400,"target":34962},{"buffer":0,"byteOffset":19800,"byteLength":5400,"target":34962},{"buffer":0,"byteOffset":25200,"byteLength":5400,"target":34962},{"buffer":0,"byteOffset":30600,"byteLength":5400,"target":34962},{"buffer":0,"byteOffset":36000,"byteLength":1800,"target":34962},{"buffer":0,"byteOffset":37800,"byteLength":1800,"target":34963}],"accessors":[{"bufferView":0,"componentType":5126,"count":450,"type":"VEC3","min":[229.5,7.3274617195129395,129.3573455810547],"max":[231.5,9.497461318969727,129.7166290283203]},{"bufferView":1,"componentType":5126,"count":450,"type":"VEC3"},{"bufferView":2,"componentType":5126,"count":450,"type":"VEC2"},{"bufferView":3,"componentType":5126,"count":450,"type":"VEC3"},{"bufferView":4,"componentType":5126,"count":450,"type":"VEC3"},{"bufferView":5,"componentType":5126,"count":450,"type":"VEC3"},{"bufferView":6,"componentType":5126,"count":450,"type":"VEC3"},{"bufferView":7,"componentType":5126,"count":450,"type":"SCALAR"},{"bufferView":8,"componentType":5125,"count":450,"type":"SCALAR"}],"materials":[{"name":"legacy-material-20","pbrMetallicRoughness":{"baseColorFactor":[1,1,1,1],"metallicFactor":0,"roughnessFactor":1,"baseColorTexture":{"index":0}},"doubleSided":true,"extras":{"legacyMaterial":20,"legacyShader":"dist/renderer-gl.js"}}],"extras":{"veldrenAssetId":"veldren:world-part:87c9bf68b51143e8207ddf1f5ad10fc484e56399ced9c853ba8fdbc4cdf3d6fa"},"images":[{"name":"atlas-00","uri":"../../textures/atlas/tile-00.png"}],"textures":[{"source":0,"sampler":0}],"samplers":[{"magFilter":9729,"minFilter":9729,"wrapS":10497,"wrapT":10497}],"buffers":[{"uri":"87c9bf68b51143e8207ddf1f5ad10fc484e56399ced9c853ba8fdbc4cdf3d6fa.bin","byteLength":39600}]}
