{"asset":{"version":"2.0","generator":"Veldren adapted asset recovery"},"scene":0,"scenes":[{"nodes":[0]}],"nodes":[{"name":"883bf022a4c95c0b0a24ce14e7511dc7b18eb62759134961097aa30193af8da4","mesh":0}],"meshes":[{"name":"883bf022a4c95c0b0a24ce14e7511dc7b18eb62759134961097aa30193af8da4","primitives":[{"attributes":{"POSITION":0,"NORMAL":1,"TEXCOORD_0":2,"COLOR_0":3,"_VELDREN_NORMAL":4,"_VELDREN_COLOR":5,"_VELDREN_FALLBACK":6,"_VELDREN_MATERIAL":7},"indices":8,"material":0,"extras":{"mixedAtlasFallback":false}},{"attributes":{"POSITION":0,"NORMAL":1,"TEXCOORD_0":2,"COLOR_0":3,"_VELDREN_NORMAL":4,"_VELDREN_COLOR":5,"_VELDREN_FALLBACK":6,"_VELDREN_MATERIAL":7},"indices":9,"material":1,"extras":{"mixedAtlasFallback":false}}]}],"bufferViews":[{"buffer":0,"byteOffset":0,"byteLength":10260,"target":34962},{"buffer":0,"byteOffset":10260,"byteLength":10260,"target":34962},{"buffer":0,"byteOffset":20520,"byteLength":6840,"target":34962},{"buffer":0,"byteOffset":27360,"byteLength":10260,"target":34962},{"buffer":0,"byteOffset":37620,"byteLength":10260,"target":34962},{"buffer":0,"byteOffset":47880,"byteLength":10260,"target":34962},{"buffer":0,"byteOffset":58140,"byteLength":10260,"target":34962},{"buffer":0,"byteOffset":68400,"byteLength":3420,"target":34962},{"buffer":0,"byteOffset":71820,"byteLength":9072,"target":34963},{"buffer":0,"byteOffset":80892,"byteLength":5472,"target":34963}],"accessors":[{"bufferView":0,"componentType":5126,"count":855,"type":"VEC3","min":[-3.2856340408325195,-0.0013800000306218863,-2.3520750999450684],"max":[0.9950600266456604,4.346673011779785,1.6284259557724]},{"bufferView":1,"componentType":5126,"count":855,"type":"VEC3"},{"bufferView":2,"componentType":5126,"count":855,"type":"VEC2"},{"bufferView":3,"componentType":5126,"count":855,"type":"VEC3"},{"bufferView":4,"componentType":5126,"count":855,"type":"VEC3"},{"bufferView":5,"componentType":5126,"count":855,"type":"VEC3"},{"bufferView":6,"componentType":5126,"count":855,"type":"VEC3"},{"bufferView":7,"componentType":5126,"count":855,"type":"SCALAR"},{"bufferView":8,"componentType":5125,"count":2268,"type":"SCALAR"},{"bufferView":9,"componentType":5125,"count":1368,"type":"SCALAR"}],"materials":[{"name":"legacy-material-49","pbrMetallicRoughness":{"baseColorFactor":[1,1,1,1],"metallicFactor":0,"roughnessFactor":1,"baseColorTexture":{"index":0}},"doubleSided":true,"extras":{"legacyMaterial":49,"legacyShader":"dist/renderer-gl.js"}},{"name":"legacy-material-55","pbrMetallicRoughness":{"baseColorFactor":[1,1,1,1],"metallicFactor":0,"roughnessFactor":1,"baseColorTexture":{"index":1}},"doubleSided":true,"extras":{"legacyMaterial":55,"legacyShader":"dist/renderer-gl.js"},"alphaMode":"MASK","alphaCutoff":0.45}],"extras":{"veldrenAssetId":"veldren:world-part:883bf022a4c95c0b0a24ce14e7511dc7b18eb62759134961097aa30193af8da4"},"images":[{"name":"atlas-29","uri":"../../textures/atlas/tile-29.png"},{"name":"atlas-35","uri":"../../textures/atlas/tile-35.png"}],"textures":[{"source":0,"sampler":0},{"source":1,"sampler":0}],"samplers":[{"magFilter":9729,"minFilter":9729,"wrapS":10497,"wrapT":10497}],"buffers":[{"uri":"883bf022a4c95c0b0a24ce14e7511dc7b18eb62759134961097aa30193af8da4.bin","byteLength":86364}]}
