{"asset":{"version":"2.0","generator":"Veldren adapted asset recovery"},"scene":0,"scenes":[{"nodes":[0]}],"nodes":[{"name":"88dee427851866b1e2f4dac79bd7ce20e6be69ba4d7f8f5945437de1fcfa9c5f","mesh":0}],"meshes":[{"name":"88dee427851866b1e2f4dac79bd7ce20e6be69ba4d7f8f5945437de1fcfa9c5f","primitives":[{"attributes":{"POSITION":0,"NORMAL":1,"TEXCOORD_0":2,"COLOR_0":3,"_VELDREN_NORMAL":4,"_VELDREN_COLOR":5,"_VELDREN_FALLBACK":6,"_VELDREN_MATERIAL":7},"indices":8,"material":0,"extras":{"mixedAtlasFallback":false}}]}],"bufferViews":[{"buffer":0,"byteOffset":0,"byteLength":6048,"target":34962},{"buffer":0,"byteOffset":6048,"byteLength":6048,"target":34962},{"buffer":0,"byteOffset":12096,"byteLength":4032,"target":34962},{"buffer":0,"byteOffset":16128,"byteLength":6048,"target":34962},{"buffer":0,"byteOffset":22176,"byteLength":6048,"target":34962},{"buffer":0,"byteOffset":28224,"byteLength":6048,"target":34962},{"buffer":0,"byteOffset":34272,"byteLength":6048,"target":34962},{"buffer":0,"byteOffset":40320,"byteLength":2016,"target":34962},{"buffer":0,"byteOffset":42336,"byteLength":2016,"target":34963}],"accessors":[{"bufferView":0,"componentType":5126,"count":504,"type":"VEC3","min":[874.2349853515625,9.528371810913086,183.2479705810547],"max":[874.7650146484375,10.252829551696777,183.7520294189453]},{"bufferView":1,"componentType":5126,"count":504,"type":"VEC3"},{"bufferView":2,"componentType":5126,"count":504,"type":"VEC2"},{"bufferView":3,"componentType":5126,"count":504,"type":"VEC3"},{"bufferView":4,"componentType":5126,"count":504,"type":"VEC3"},{"bufferView":5,"componentType":5126,"count":504,"type":"VEC3"},{"bufferView":6,"componentType":5126,"count":504,"type":"VEC3"},{"bufferView":7,"componentType":5126,"count":504,"type":"SCALAR"},{"bufferView":8,"componentType":5125,"count":504,"type":"SCALAR"}],"materials":[{"name":"legacy-material-20","pbrMetallicRoughness":{"baseColorFactor":[1,1,1,1],"metallicFactor":0,"roughnessFactor":1,"baseColorTexture":{"index":0}},"doubleSided":true,"extras":{"legacyMaterial":20,"legacyShader":"dist/renderer-gl.js"}}],"extras":{"veldrenAssetId":"veldren:world-part:88dee427851866b1e2f4dac79bd7ce20e6be69ba4d7f8f5945437de1fcfa9c5f"},"images":[{"name":"atlas-00","uri":"../../textures/atlas/tile-00.png"}],"textures":[{"source":0,"sampler":0}],"samplers":[{"magFilter":9729,"minFilter":9729,"wrapS":10497,"wrapT":10497}],"buffers":[{"uri":"88dee427851866b1e2f4dac79bd7ce20e6be69ba4d7f8f5945437de1fcfa9c5f.bin","byteLength":44352}]}
