{"asset":{"version":"2.0","generator":"Veldren adapted asset recovery"},"scene":0,"scenes":[{"nodes":[0]}],"nodes":[{"name":"88e29fbf688d2c8759566a3532b40cd4a890fcf7c730f0909b96b28bad12c693","mesh":0}],"meshes":[{"name":"88e29fbf688d2c8759566a3532b40cd4a890fcf7c730f0909b96b28bad12c693","primitives":[{"attributes":{"POSITION":0,"NORMAL":1,"TEXCOORD_0":2,"COLOR_0":3,"_VELDREN_NORMAL":4,"_VELDREN_COLOR":5,"_VELDREN_FALLBACK":6,"_VELDREN_MATERIAL":7},"indices":8,"material":0,"extras":{"mixedAtlasFallback":false}}]}],"bufferViews":[{"buffer":0,"byteOffset":0,"byteLength":12384,"target":34962},{"buffer":0,"byteOffset":12384,"byteLength":12384,"target":34962},{"buffer":0,"byteOffset":24768,"byteLength":8256,"target":34962},{"buffer":0,"byteOffset":33024,"byteLength":12384,"target":34962},{"buffer":0,"byteOffset":45408,"byteLength":12384,"target":34962},{"buffer":0,"byteOffset":57792,"byteLength":12384,"target":34962},{"buffer":0,"byteOffset":70176,"byteLength":12384,"target":34962},{"buffer":0,"byteOffset":82560,"byteLength":4128,"target":34962},{"buffer":0,"byteOffset":86688,"byteLength":4128,"target":34963}],"accessors":[{"bufferView":0,"componentType":5126,"count":1032,"type":"VEC3","min":[25.86400032043457,0.75,88.1804428100586],"max":[31.13599967956543,4.999703407287598,88.8195571899414]},{"bufferView":1,"componentType":5126,"count":1032,"type":"VEC3"},{"bufferView":2,"componentType":5126,"count":1032,"type":"VEC2"},{"bufferView":3,"componentType":5126,"count":1032,"type":"VEC3"},{"bufferView":4,"componentType":5126,"count":1032,"type":"VEC3"},{"bufferView":5,"componentType":5126,"count":1032,"type":"VEC3"},{"bufferView":6,"componentType":5126,"count":1032,"type":"VEC3"},{"bufferView":7,"componentType":5126,"count":1032,"type":"SCALAR"},{"bufferView":8,"componentType":5125,"count":1032,"type":"SCALAR"}],"materials":[{"name":"legacy-material-18","pbrMetallicRoughness":{"baseColorFactor":[1,1,1,1],"metallicFactor":0,"roughnessFactor":1},"doubleSided":true,"extras":{"legacyMaterial":18,"legacyShader":"dist/renderer-gl.js","limitation":"Browser procedural material not implemented by this glTF export; source/base attributes retained."}}],"extras":{"veldrenAssetId":"veldren:world-part:88e29fbf688d2c8759566a3532b40cd4a890fcf7c730f0909b96b28bad12c693"},"buffers":[{"uri":"88e29fbf688d2c8759566a3532b40cd4a890fcf7c730f0909b96b28bad12c693.bin","byteLength":90816}]}
