{"asset":{"version":"2.0","generator":"Veldren adapted asset recovery"},"scene":0,"scenes":[{"nodes":[0]}],"nodes":[{"name":"8b49f1e246f7128ea5cc85fbcf3f8da7ba982d0065df3868a3c7d2f560701be2","mesh":0}],"meshes":[{"name":"8b49f1e246f7128ea5cc85fbcf3f8da7ba982d0065df3868a3c7d2f560701be2","primitives":[{"attributes":{"POSITION":0,"NORMAL":1,"TEXCOORD_0":2,"COLOR_0":3,"_VELDREN_NORMAL":4,"_VELDREN_COLOR":5,"_VELDREN_FALLBACK":6,"_VELDREN_MATERIAL":7},"indices":8,"material":0,"extras":{"mixedAtlasFallback":false}}]}],"bufferViews":[{"buffer":0,"byteOffset":0,"byteLength":4368,"target":34962},{"buffer":0,"byteOffset":4368,"byteLength":4368,"target":34962},{"buffer":0,"byteOffset":8736,"byteLength":2912,"target":34962},{"buffer":0,"byteOffset":11648,"byteLength":4368,"target":34962},{"buffer":0,"byteOffset":16016,"byteLength":4368,"target":34962},{"buffer":0,"byteOffset":20384,"byteLength":4368,"target":34962},{"buffer":0,"byteOffset":24752,"byteLength":4368,"target":34962},{"buffer":0,"byteOffset":29120,"byteLength":1456,"target":34962},{"buffer":0,"byteOffset":30576,"byteLength":3840,"target":34963}],"accessors":[{"bufferView":0,"componentType":5126,"count":364,"type":"VEC3","min":[-0.7034929394721985,-0.008544921875,-0.24002820253372192],"max":[0.7034913897514343,2.5548486709594727,0.29893577098846436]},{"bufferView":1,"componentType":5126,"count":364,"type":"VEC3"},{"bufferView":2,"componentType":5126,"count":364,"type":"VEC2"},{"bufferView":3,"componentType":5126,"count":364,"type":"VEC3"},{"bufferView":4,"componentType":5126,"count":364,"type":"VEC3"},{"bufferView":5,"componentType":5126,"count":364,"type":"VEC3"},{"bufferView":6,"componentType":5126,"count":364,"type":"VEC3"},{"bufferView":7,"componentType":5126,"count":364,"type":"SCALAR"},{"bufferView":8,"componentType":5125,"count":960,"type":"SCALAR"}],"materials":[{"name":"legacy-material-21","pbrMetallicRoughness":{"baseColorFactor":[1,1,1,1],"metallicFactor":0,"roughnessFactor":1,"baseColorTexture":{"index":0}},"doubleSided":true,"extras":{"legacyMaterial":21,"legacyShader":"dist/renderer-gl.js"}}],"extras":{"veldrenAssetId":"veldren:world-part:8b49f1e246f7128ea5cc85fbcf3f8da7ba982d0065df3868a3c7d2f560701be2"},"images":[{"name":"atlas-01","uri":"../../textures/atlas/tile-01.png"}],"textures":[{"source":0,"sampler":0}],"samplers":[{"magFilter":9729,"minFilter":9729,"wrapS":10497,"wrapT":10497}],"buffers":[{"uri":"8b49f1e246f7128ea5cc85fbcf3f8da7ba982d0065df3868a3c7d2f560701be2.bin","byteLength":34416}]}
