{"asset":{"version":"2.0","generator":"Veldren adapted asset recovery"},"scene":0,"scenes":[{"nodes":[0]}],"nodes":[{"name":"8c0cfc352ffdf60c63d9f57c73375a0306ec46a5873d8ba5f3e46cb211154c08","mesh":0}],"meshes":[{"name":"8c0cfc352ffdf60c63d9f57c73375a0306ec46a5873d8ba5f3e46cb211154c08","primitives":[{"attributes":{"POSITION":0,"NORMAL":1,"TEXCOORD_0":2,"COLOR_0":3,"_VELDREN_NORMAL":4,"_VELDREN_COLOR":5,"_VELDREN_FALLBACK":6,"_VELDREN_MATERIAL":7},"indices":8,"material":0,"extras":{"mixedAtlasFallback":false}},{"attributes":{"POSITION":0,"NORMAL":1,"TEXCOORD_0":2,"COLOR_0":3,"_VELDREN_NORMAL":4,"_VELDREN_COLOR":5,"_VELDREN_FALLBACK":6,"_VELDREN_MATERIAL":7},"indices":9,"material":1,"extras":{"mixedAtlasFallback":false}}]}],"bufferViews":[{"buffer":0,"byteOffset":0,"byteLength":9540,"target":34962},{"buffer":0,"byteOffset":9540,"byteLength":9540,"target":34962},{"buffer":0,"byteOffset":19080,"byteLength":6360,"target":34962},{"buffer":0,"byteOffset":25440,"byteLength":9540,"target":34962},{"buffer":0,"byteOffset":34980,"byteLength":9540,"target":34962},{"buffer":0,"byteOffset":44520,"byteLength":9540,"target":34962},{"buffer":0,"byteOffset":54060,"byteLength":9540,"target":34962},{"buffer":0,"byteOffset":63600,"byteLength":3180,"target":34962},{"buffer":0,"byteOffset":66780,"byteLength":2796,"target":34963},{"buffer":0,"byteOffset":69576,"byteLength":384,"target":34963}],"accessors":[{"bufferView":0,"componentType":5126,"count":795,"type":"VEC3","min":[577.1756591796875,7.578151226043701,297.1857604980469],"max":[577.8599853515625,8.82815170288086,297.8070983886719]},{"bufferView":1,"componentType":5126,"count":795,"type":"VEC3"},{"bufferView":2,"componentType":5126,"count":795,"type":"VEC2"},{"bufferView":3,"componentType":5126,"count":795,"type":"VEC3"},{"bufferView":4,"componentType":5126,"count":795,"type":"VEC3"},{"bufferView":5,"componentType":5126,"count":795,"type":"VEC3"},{"bufferView":6,"componentType":5126,"count":795,"type":"VEC3"},{"bufferView":7,"componentType":5126,"count":795,"type":"SCALAR"},{"bufferView":8,"componentType":5125,"count":699,"type":"SCALAR"},{"bufferView":9,"componentType":5125,"count":96,"type":"SCALAR"}],"materials":[{"name":"legacy-material-20","pbrMetallicRoughness":{"baseColorFactor":[1,1,1,1],"metallicFactor":0,"roughnessFactor":1,"baseColorTexture":{"index":0}},"doubleSided":true,"extras":{"legacyMaterial":20,"legacyShader":"dist/renderer-gl.js"}},{"name":"legacy-material-19","pbrMetallicRoughness":{"baseColorFactor":[1,1,1,1],"metallicFactor":0,"roughnessFactor":1},"doubleSided":true,"extras":{"legacyMaterial":19,"legacyShader":"dist/renderer-gl.js","limitation":"Browser procedural material not implemented by this glTF export; source/base attributes retained."}}],"extras":{"veldrenAssetId":"veldren:world-part:8c0cfc352ffdf60c63d9f57c73375a0306ec46a5873d8ba5f3e46cb211154c08"},"images":[{"name":"atlas-00","uri":"../../textures/atlas/tile-00.png"}],"textures":[{"source":0,"sampler":0}],"samplers":[{"magFilter":9729,"minFilter":9729,"wrapS":10497,"wrapT":10497}],"buffers":[{"uri":"8c0cfc352ffdf60c63d9f57c73375a0306ec46a5873d8ba5f3e46cb211154c08.bin","byteLength":69960}]}
