{"asset":{"version":"2.0","generator":"Veldren adapted asset recovery"},"scene":0,"scenes":[{"nodes":[0]}],"nodes":[{"name":"8c397fca3422103013e5cc7bcd0d8d3f9aa752372d4cb83a64ceddc9ca4e06f3","mesh":0}],"meshes":[{"name":"8c397fca3422103013e5cc7bcd0d8d3f9aa752372d4cb83a64ceddc9ca4e06f3","primitives":[{"attributes":{"POSITION":0,"NORMAL":1,"TEXCOORD_0":2,"COLOR_0":3,"_VELDREN_NORMAL":4,"_VELDREN_COLOR":5,"_VELDREN_FALLBACK":6,"_VELDREN_MATERIAL":7},"indices":8,"material":0,"extras":{"mixedAtlasFallback":false}},{"attributes":{"POSITION":0,"NORMAL":1,"TEXCOORD_0":2,"COLOR_0":3,"_VELDREN_NORMAL":4,"_VELDREN_COLOR":5,"_VELDREN_FALLBACK":6,"_VELDREN_MATERIAL":7},"indices":9,"material":1,"extras":{"mixedAtlasFallback":false}},{"attributes":{"POSITION":0,"NORMAL":1,"TEXCOORD_0":2,"COLOR_0":3,"_VELDREN_NORMAL":4,"_VELDREN_COLOR":5,"_VELDREN_FALLBACK":6,"_VELDREN_MATERIAL":7},"indices":10,"material":2,"extras":{"mixedAtlasFallback":false}},{"attributes":{"POSITION":0,"NORMAL":1,"TEXCOORD_0":2,"COLOR_0":3,"_VELDREN_NORMAL":4,"_VELDREN_COLOR":5,"_VELDREN_FALLBACK":6,"_VELDREN_MATERIAL":7},"indices":11,"material":3,"extras":{"mixedAtlasFallback":false}}]}],"bufferViews":[{"buffer":0,"byteOffset":0,"byteLength":16992,"target":34962},{"buffer":0,"byteOffset":16992,"byteLength":16992,"target":34962},{"buffer":0,"byteOffset":33984,"byteLength":11328,"target":34962},{"buffer":0,"byteOffset":45312,"byteLength":16992,"target":34962},{"buffer":0,"byteOffset":62304,"byteLength":16992,"target":34962},{"buffer":0,"byteOffset":79296,"byteLength":16992,"target":34962},{"buffer":0,"byteOffset":96288,"byteLength":16992,"target":34962},{"buffer":0,"byteOffset":113280,"byteLength":5664,"target":34962},{"buffer":0,"byteOffset":118944,"byteLength":4032,"target":34963},{"buffer":0,"byteOffset":122976,"byteLength":1200,"target":34963},{"buffer":0,"byteOffset":124176,"byteLength":240,"target":34963},{"buffer":0,"byteOffset":124416,"byteLength":192,"target":34963}],"accessors":[{"bufferView":0,"componentType":5126,"count":1416,"type":"VEC3","min":[76.48999786376953,0.75,43.15999984741211],"max":[82.51000213623047,4.664999961853027,46.82758712768555]},{"bufferView":1,"componentType":5126,"count":1416,"type":"VEC3"},{"bufferView":2,"componentType":5126,"count":1416,"type":"VEC2"},{"bufferView":3,"componentType":5126,"count":1416,"type":"VEC3"},{"bufferView":4,"componentType":5126,"count":1416,"type":"VEC3"},{"bufferView":5,"componentType":5126,"count":1416,"type":"VEC3"},{"bufferView":6,"componentType":5126,"count":1416,"type":"VEC3"},{"bufferView":7,"componentType":5126,"count":1416,"type":"SCALAR"},{"bufferView":8,"componentType":5125,"count":1008,"type":"SCALAR"},{"bufferView":9,"componentType":5125,"count":300,"type":"SCALAR"},{"bufferView":10,"componentType":5125,"count":60,"type":"SCALAR"},{"bufferView":11,"componentType":5125,"count":48,"type":"SCALAR"}],"materials":[{"name":"legacy-material-5","pbrMetallicRoughness":{"baseColorFactor":[1,1,1,1],"metallicFactor":0,"roughnessFactor":1},"doubleSided":true,"extras":{"legacyMaterial":5,"legacyShader":"dist/renderer-gl.js","limitation":"Browser procedural material not implemented by this glTF export; source/base attributes retained."}},{"name":"legacy-material-17","pbrMetallicRoughness":{"baseColorFactor":[1,1,1,1],"metallicFactor":0,"roughnessFactor":1},"doubleSided":true,"extras":{"legacyMaterial":17,"legacyShader":"dist/renderer-gl.js","limitation":"Browser procedural material not implemented by this glTF export; source/base attributes retained."}},{"name":"legacy-material-7","pbrMetallicRoughness":{"baseColorFactor":[1,1,1,1],"metallicFactor":0,"roughnessFactor":1},"doubleSided":true,"extras":{"legacyMaterial":7,"legacyShader":"dist/renderer-gl.js","limitation":"Browser procedural material not implemented by this glTF export; source/base attributes retained."}},{"name":"legacy-material-6","pbrMetallicRoughness":{"baseColorFactor":[1,1,1,1],"metallicFactor":0,"roughnessFactor":1},"doubleSided":true,"extras":{"legacyMaterial":6,"legacyShader":"dist/renderer-gl.js","limitation":"Browser procedural material not implemented by this glTF export; source/base attributes retained."}}],"extras":{"veldrenAssetId":"veldren:world-part:8c397fca3422103013e5cc7bcd0d8d3f9aa752372d4cb83a64ceddc9ca4e06f3"},"buffers":[{"uri":"8c397fca3422103013e5cc7bcd0d8d3f9aa752372d4cb83a64ceddc9ca4e06f3.bin","byteLength":124608}]}
