{"asset":{"version":"2.0","generator":"Veldren adapted asset recovery"},"scene":0,"scenes":[{"nodes":[0]}],"nodes":[{"name":"8c606c767d7974315c7bb6356ec371eba10870d54f739fa0df01dc9a7e966490","mesh":0}],"meshes":[{"name":"8c606c767d7974315c7bb6356ec371eba10870d54f739fa0df01dc9a7e966490","primitives":[{"attributes":{"POSITION":0,"NORMAL":1,"TEXCOORD_0":2,"COLOR_0":3,"_VELDREN_NORMAL":4,"_VELDREN_COLOR":5,"_VELDREN_FALLBACK":6,"_VELDREN_MATERIAL":7},"indices":8,"material":0,"extras":{"mixedAtlasFallback":false}}]}],"bufferViews":[{"buffer":0,"byteOffset":0,"byteLength":19824,"target":34962},{"buffer":0,"byteOffset":19824,"byteLength":19824,"target":34962},{"buffer":0,"byteOffset":39648,"byteLength":13216,"target":34962},{"buffer":0,"byteOffset":52864,"byteLength":19824,"target":34962},{"buffer":0,"byteOffset":72688,"byteLength":19824,"target":34962},{"buffer":0,"byteOffset":92512,"byteLength":19824,"target":34962},{"buffer":0,"byteOffset":112336,"byteLength":19824,"target":34962},{"buffer":0,"byteOffset":132160,"byteLength":6608,"target":34962},{"buffer":0,"byteOffset":138768,"byteLength":18312,"target":34963}],"accessors":[{"bufferView":0,"componentType":5126,"count":1652,"type":"VEC3","min":[-0.2534816861152649,-0.00249952613376081,-0.2555173337459564],"max":[0.25363287329673767,1.444292664527893,0.2556697130203247]},{"bufferView":1,"componentType":5126,"count":1652,"type":"VEC3"},{"bufferView":2,"componentType":5126,"count":1652,"type":"VEC2"},{"bufferView":3,"componentType":5126,"count":1652,"type":"VEC3"},{"bufferView":4,"componentType":5126,"count":1652,"type":"VEC3"},{"bufferView":5,"componentType":5126,"count":1652,"type":"VEC3"},{"bufferView":6,"componentType":5126,"count":1652,"type":"VEC3"},{"bufferView":7,"componentType":5126,"count":1652,"type":"SCALAR"},{"bufferView":8,"componentType":5125,"count":4578,"type":"SCALAR"}],"materials":[{"name":"legacy-material-43","pbrMetallicRoughness":{"baseColorFactor":[1,1,1,1],"metallicFactor":0,"roughnessFactor":1,"baseColorTexture":{"index":0}},"doubleSided":true,"extras":{"legacyMaterial":43,"legacyShader":"dist/renderer-gl.js"}}],"extras":{"veldrenAssetId":"veldren:world-part:8c606c767d7974315c7bb6356ec371eba10870d54f739fa0df01dc9a7e966490"},"images":[{"name":"atlas-23","uri":"../../textures/atlas/tile-23.png"}],"textures":[{"source":0,"sampler":0}],"samplers":[{"magFilter":9729,"minFilter":9729,"wrapS":10497,"wrapT":10497}],"buffers":[{"uri":"8c606c767d7974315c7bb6356ec371eba10870d54f739fa0df01dc9a7e966490.bin","byteLength":157080}]}
