{"asset":{"version":"2.0","generator":"Veldren adapted asset recovery"},"scene":0,"scenes":[{"nodes":[0]}],"nodes":[{"name":"901171515319fdd4449f12258f25713d7ebe9d9f3a1222cc8870012884a47574","mesh":0}],"meshes":[{"name":"901171515319fdd4449f12258f25713d7ebe9d9f3a1222cc8870012884a47574","primitives":[{"attributes":{"POSITION":0,"NORMAL":1,"TEXCOORD_0":2,"COLOR_0":3,"_VELDREN_NORMAL":4,"_VELDREN_COLOR":5,"_VELDREN_FALLBACK":6,"_VELDREN_MATERIAL":7},"indices":8,"material":0,"extras":{"mixedAtlasFallback":false}}]}],"bufferViews":[{"buffer":0,"byteOffset":0,"byteLength":864,"target":34962},{"buffer":0,"byteOffset":864,"byteLength":864,"target":34962},{"buffer":0,"byteOffset":1728,"byteLength":576,"target":34962},{"buffer":0,"byteOffset":2304,"byteLength":864,"target":34962},{"buffer":0,"byteOffset":3168,"byteLength":864,"target":34962},{"buffer":0,"byteOffset":4032,"byteLength":864,"target":34962},{"buffer":0,"byteOffset":4896,"byteLength":864,"target":34962},{"buffer":0,"byteOffset":5760,"byteLength":288,"target":34962},{"buffer":0,"byteOffset":6048,"byteLength":288,"target":34963}],"accessors":[{"bufferView":0,"componentType":5126,"count":72,"type":"VEC3","min":[44.17499923706055,0.8050000071525574,34.28499984741211],"max":[44.82500076293945,0.8974999785423279,34.71500015258789]},{"bufferView":1,"componentType":5126,"count":72,"type":"VEC3"},{"bufferView":2,"componentType":5126,"count":72,"type":"VEC2"},{"bufferView":3,"componentType":5126,"count":72,"type":"VEC3"},{"bufferView":4,"componentType":5126,"count":72,"type":"VEC3"},{"bufferView":5,"componentType":5126,"count":72,"type":"VEC3"},{"bufferView":6,"componentType":5126,"count":72,"type":"VEC3"},{"bufferView":7,"componentType":5126,"count":72,"type":"SCALAR"},{"bufferView":8,"componentType":5125,"count":72,"type":"SCALAR"}],"materials":[{"name":"legacy-material-20","pbrMetallicRoughness":{"baseColorFactor":[1,1,1,1],"metallicFactor":0,"roughnessFactor":1,"baseColorTexture":{"index":0}},"doubleSided":true,"extras":{"legacyMaterial":20,"legacyShader":"dist/renderer-gl.js"}}],"extras":{"veldrenAssetId":"veldren:world-part:901171515319fdd4449f12258f25713d7ebe9d9f3a1222cc8870012884a47574"},"images":[{"name":"atlas-00","uri":"../../textures/atlas/tile-00.png"}],"textures":[{"source":0,"sampler":0}],"samplers":[{"magFilter":9729,"minFilter":9729,"wrapS":10497,"wrapT":10497}],"buffers":[{"uri":"901171515319fdd4449f12258f25713d7ebe9d9f3a1222cc8870012884a47574.bin","byteLength":6336}]}
