{"asset":{"version":"2.0","generator":"Veldren adapted asset recovery"},"scene":0,"scenes":[{"nodes":[0]}],"nodes":[{"name":"945c10e33683e4b3baa7557ff260c79730a9992e0e5a23b5d9307a2c40355ae1","mesh":0}],"meshes":[{"name":"945c10e33683e4b3baa7557ff260c79730a9992e0e5a23b5d9307a2c40355ae1","primitives":[{"attributes":{"POSITION":0,"NORMAL":1,"TEXCOORD_0":2,"COLOR_0":3,"_VELDREN_NORMAL":4,"_VELDREN_COLOR":5,"_VELDREN_FALLBACK":6,"_VELDREN_MATERIAL":7},"indices":8,"material":0,"extras":{"mixedAtlasFallback":false}}]}],"bufferViews":[{"buffer":0,"byteOffset":0,"byteLength":6372,"target":34962},{"buffer":0,"byteOffset":6372,"byteLength":6372,"target":34962},{"buffer":0,"byteOffset":12744,"byteLength":4248,"target":34962},{"buffer":0,"byteOffset":16992,"byteLength":6372,"target":34962},{"buffer":0,"byteOffset":23364,"byteLength":6372,"target":34962},{"buffer":0,"byteOffset":29736,"byteLength":6372,"target":34962},{"buffer":0,"byteOffset":36108,"byteLength":6372,"target":34962},{"buffer":0,"byteOffset":42480,"byteLength":2124,"target":34962},{"buffer":0,"byteOffset":44604,"byteLength":6264,"target":34963}],"accessors":[{"bufferView":0,"componentType":5126,"count":531,"type":"VEC3","min":[-1.8242793083190918,-0.31564441323280334,-0.8904620409011841],"max":[1.5958054065704346,2.000638246536255,2.5856480598449707]},{"bufferView":1,"componentType":5126,"count":531,"type":"VEC3"},{"bufferView":2,"componentType":5126,"count":531,"type":"VEC2"},{"bufferView":3,"componentType":5126,"count":531,"type":"VEC3"},{"bufferView":4,"componentType":5126,"count":531,"type":"VEC3"},{"bufferView":5,"componentType":5126,"count":531,"type":"VEC3"},{"bufferView":6,"componentType":5126,"count":531,"type":"VEC3"},{"bufferView":7,"componentType":5126,"count":531,"type":"SCALAR"},{"bufferView":8,"componentType":5125,"count":1566,"type":"SCALAR"}],"materials":[{"name":"legacy-material-33","pbrMetallicRoughness":{"baseColorFactor":[1,1,1,1],"metallicFactor":0,"roughnessFactor":1,"baseColorTexture":{"index":0}},"doubleSided":true,"extras":{"legacyMaterial":33,"legacyShader":"dist/renderer-gl.js"}}],"extras":{"veldrenAssetId":"veldren:world-part:945c10e33683e4b3baa7557ff260c79730a9992e0e5a23b5d9307a2c40355ae1"},"images":[{"name":"atlas-13","uri":"../../textures/atlas/tile-13.png"}],"textures":[{"source":0,"sampler":0}],"samplers":[{"magFilter":9729,"minFilter":9729,"wrapS":10497,"wrapT":10497}],"buffers":[{"uri":"945c10e33683e4b3baa7557ff260c79730a9992e0e5a23b5d9307a2c40355ae1.bin","byteLength":50868}]}
