{"asset":{"version":"2.0","generator":"Veldren adapted asset recovery"},"scene":0,"scenes":[{"nodes":[0]}],"nodes":[{"name":"9524bf1d8517f0dad6a6e17029e18ba329ff28b7315574accc9d30a0a1b8e920","mesh":0}],"meshes":[{"name":"9524bf1d8517f0dad6a6e17029e18ba329ff28b7315574accc9d30a0a1b8e920","primitives":[{"attributes":{"POSITION":0,"NORMAL":1,"TEXCOORD_0":2,"COLOR_0":3,"_VELDREN_NORMAL":4,"_VELDREN_COLOR":5,"_VELDREN_FALLBACK":6,"_VELDREN_MATERIAL":7},"indices":8,"material":0,"extras":{"mixedAtlasFallback":false}},{"attributes":{"POSITION":0,"NORMAL":1,"TEXCOORD_0":2,"COLOR_0":3,"_VELDREN_NORMAL":4,"_VELDREN_COLOR":5,"_VELDREN_FALLBACK":6,"_VELDREN_MATERIAL":7},"indices":9,"material":1,"extras":{"mixedAtlasFallback":false}},{"attributes":{"POSITION":0,"NORMAL":1,"TEXCOORD_0":2,"COLOR_0":3,"_VELDREN_NORMAL":4,"_VELDREN_COLOR":5,"_VELDREN_FALLBACK":6,"_VELDREN_MATERIAL":7},"indices":10,"material":2,"extras":{"mixedAtlasFallback":false}},{"attributes":{"POSITION":0,"NORMAL":1,"TEXCOORD_0":2,"COLOR_0":3,"_VELDREN_NORMAL":4,"_VELDREN_COLOR":5,"_VELDREN_FALLBACK":6,"_VELDREN_MATERIAL":7},"indices":11,"material":3,"extras":{"mixedAtlasFallback":false}},{"attributes":{"POSITION":0,"NORMAL":1,"TEXCOORD_0":2,"COLOR_0":3,"_VELDREN_NORMAL":4,"_VELDREN_COLOR":5,"_VELDREN_FALLBACK":6,"_VELDREN_MATERIAL":7},"indices":12,"material":4,"extras":{"mixedAtlasFallback":false}},{"attributes":{"POSITION":0,"NORMAL":1,"TEXCOORD_0":2,"COLOR_0":3,"_VELDREN_NORMAL":4,"_VELDREN_COLOR":5,"_VELDREN_FALLBACK":6,"_VELDREN_MATERIAL":7},"indices":13,"material":5,"extras":{"mixedAtlasFallback":false}}]}],"bufferViews":[{"buffer":0,"byteOffset":0,"byteLength":122328,"target":34962},{"buffer":0,"byteOffset":122328,"byteLength":122328,"target":34962},{"buffer":0,"byteOffset":244656,"byteLength":81552,"target":34962},{"buffer":0,"byteOffset":326208,"byteLength":122328,"target":34962},{"buffer":0,"byteOffset":448536,"byteLength":122328,"target":34962},{"buffer":0,"byteOffset":570864,"byteLength":122328,"target":34962},{"buffer":0,"byteOffset":693192,"byteLength":122328,"target":34962},{"buffer":0,"byteOffset":815520,"byteLength":40776,"target":34962},{"buffer":0,"byteOffset":856296,"byteLength":17760,"target":34963},{"buffer":0,"byteOffset":874056,"byteLength":192,"target":34963},{"buffer":0,"byteOffset":874248,"byteLength":8064,"target":34963},{"buffer":0,"byteOffset":882312,"byteLength":11520,"target":34963},{"buffer":0,"byteOffset":893832,"byteLength":2664,"target":34963},{"buffer":0,"byteOffset":896496,"byteLength":576,"target":34963}],"accessors":[{"bufferView":0,"componentType":5126,"count":10194,"type":"VEC3","min":[392.489990234375,4.912835597991943,299.510009765625],"max":[406.510009765625,12.693863868713379,312.47760009765625]},{"bufferView":1,"componentType":5126,"count":10194,"type":"VEC3"},{"bufferView":2,"componentType":5126,"count":10194,"type":"VEC2"},{"bufferView":3,"componentType":5126,"count":10194,"type":"VEC3"},{"bufferView":4,"componentType":5126,"count":10194,"type":"VEC3"},{"bufferView":5,"componentType":5126,"count":10194,"type":"VEC3"},{"bufferView":6,"componentType":5126,"count":10194,"type":"VEC3"},{"bufferView":7,"componentType":5126,"count":10194,"type":"SCALAR"},{"bufferView":8,"componentType":5125,"count":4440,"type":"SCALAR"},{"bufferView":9,"componentType":5125,"count":48,"type":"SCALAR"},{"bufferView":10,"componentType":5125,"count":2016,"type":"SCALAR"},{"bufferView":11,"componentType":5125,"count":2880,"type":"SCALAR"},{"bufferView":12,"componentType":5125,"count":666,"type":"SCALAR"},{"bufferView":13,"componentType":5125,"count":144,"type":"SCALAR"}],"materials":[{"name":"legacy-material-5","pbrMetallicRoughness":{"baseColorFactor":[1,1,1,1],"metallicFactor":0,"roughnessFactor":1},"doubleSided":true,"extras":{"legacyMaterial":5,"legacyShader":"dist/renderer-gl.js","limitation":"Browser procedural material not implemented by this glTF export; source/base attributes retained."}},{"name":"legacy-material-13","pbrMetallicRoughness":{"baseColorFactor":[1,1,1,1],"metallicFactor":0,"roughnessFactor":1},"doubleSided":true,"extras":{"legacyMaterial":13,"legacyShader":"dist/renderer-gl.js","limitation":"Browser procedural material not implemented by this glTF export; source/base attributes retained."}},{"name":"legacy-material-20","pbrMetallicRoughness":{"baseColorFactor":[1,1,1,1],"metallicFactor":0,"roughnessFactor":1,"baseColorTexture":{"index":0}},"doubleSided":true,"extras":{"legacyMaterial":20,"legacyShader":"dist/renderer-gl.js"}},{"name":"legacy-material-17","pbrMetallicRoughness":{"baseColorFactor":[1,1,1,1],"metallicFactor":0,"roughnessFactor":1},"doubleSided":true,"extras":{"legacyMaterial":17,"legacyShader":"dist/renderer-gl.js","limitation":"Browser procedural material not implemented by this glTF export; source/base attributes retained."}},{"name":"legacy-material-7","pbrMetallicRoughness":{"baseColorFactor":[1,1,1,1],"metallicFactor":0,"roughnessFactor":1},"doubleSided":true,"extras":{"legacyMaterial":7,"legacyShader":"dist/renderer-gl.js","limitation":"Browser procedural material not implemented by this glTF export; source/base attributes retained."}},{"name":"legacy-material-6","pbrMetallicRoughness":{"baseColorFactor":[1,1,1,1],"metallicFactor":0,"roughnessFactor":1},"doubleSided":true,"extras":{"legacyMaterial":6,"legacyShader":"dist/renderer-gl.js","limitation":"Browser procedural material not implemented by this glTF export; source/base attributes retained."}}],"extras":{"veldrenAssetId":"veldren:world-part:9524bf1d8517f0dad6a6e17029e18ba329ff28b7315574accc9d30a0a1b8e920"},"images":[{"name":"atlas-00","uri":"../../textures/atlas/tile-00.png"}],"textures":[{"source":0,"sampler":0}],"samplers":[{"magFilter":9729,"minFilter":9729,"wrapS":10497,"wrapT":10497}],"buffers":[{"uri":"9524bf1d8517f0dad6a6e17029e18ba329ff28b7315574accc9d30a0a1b8e920.bin","byteLength":897072}]}
