{"asset":{"version":"2.0","generator":"Veldren adapted asset recovery"},"scene":0,"scenes":[{"nodes":[0]}],"nodes":[{"name":"9660beac76ad04acc39932a408299b45743a1469c3a5c2d0925f917ec099b9cb","mesh":0}],"meshes":[{"name":"9660beac76ad04acc39932a408299b45743a1469c3a5c2d0925f917ec099b9cb","primitives":[{"attributes":{"POSITION":0,"NORMAL":1,"TEXCOORD_0":2,"COLOR_0":3,"_VELDREN_NORMAL":4,"_VELDREN_COLOR":5,"_VELDREN_FALLBACK":6,"_VELDREN_MATERIAL":7},"indices":8,"material":0,"extras":{"mixedAtlasFallback":false}}]}],"bufferViews":[{"buffer":0,"byteOffset":0,"byteLength":5616,"target":34962},{"buffer":0,"byteOffset":5616,"byteLength":5616,"target":34962},{"buffer":0,"byteOffset":11232,"byteLength":3744,"target":34962},{"buffer":0,"byteOffset":14976,"byteLength":5616,"target":34962},{"buffer":0,"byteOffset":20592,"byteLength":5616,"target":34962},{"buffer":0,"byteOffset":26208,"byteLength":5616,"target":34962},{"buffer":0,"byteOffset":31824,"byteLength":5616,"target":34962},{"buffer":0,"byteOffset":37440,"byteLength":1872,"target":34962},{"buffer":0,"byteOffset":39312,"byteLength":1872,"target":34963}],"accessors":[{"bufferView":0,"componentType":5126,"count":468,"type":"VEC3","min":[819.5999755859375,1.8800257444381714,30.600000381469727],"max":[823.4000244140625,10.680026054382324,34.400001525878906]},{"bufferView":1,"componentType":5126,"count":468,"type":"VEC3"},{"bufferView":2,"componentType":5126,"count":468,"type":"VEC2"},{"bufferView":3,"componentType":5126,"count":468,"type":"VEC3"},{"bufferView":4,"componentType":5126,"count":468,"type":"VEC3"},{"bufferView":5,"componentType":5126,"count":468,"type":"VEC3"},{"bufferView":6,"componentType":5126,"count":468,"type":"VEC3"},{"bufferView":7,"componentType":5126,"count":468,"type":"SCALAR"},{"bufferView":8,"componentType":5125,"count":468,"type":"SCALAR"}],"materials":[{"name":"legacy-material-18","pbrMetallicRoughness":{"baseColorFactor":[1,1,1,1],"metallicFactor":0,"roughnessFactor":1},"doubleSided":true,"extras":{"legacyMaterial":18,"legacyShader":"dist/renderer-gl.js","limitation":"Browser procedural material not implemented by this glTF export; source/base attributes retained."}}],"extras":{"veldrenAssetId":"veldren:world-part:9660beac76ad04acc39932a408299b45743a1469c3a5c2d0925f917ec099b9cb"},"buffers":[{"uri":"9660beac76ad04acc39932a408299b45743a1469c3a5c2d0925f917ec099b9cb.bin","byteLength":41184}]}
