{"asset":{"version":"2.0","generator":"Veldren adapted asset recovery"},"scene":0,"scenes":[{"nodes":[0]}],"nodes":[{"name":"9678504fb056fd99a119b012077afeaec4811155a0f2843867f669fbe6c27e26","mesh":0}],"meshes":[{"name":"9678504fb056fd99a119b012077afeaec4811155a0f2843867f669fbe6c27e26","primitives":[{"attributes":{"POSITION":0,"NORMAL":1,"TEXCOORD_0":2,"COLOR_0":3,"_VELDREN_NORMAL":4,"_VELDREN_COLOR":5,"_VELDREN_FALLBACK":6,"_VELDREN_MATERIAL":7},"indices":8,"material":0,"extras":{"mixedAtlasFallback":false}}]}],"bufferViews":[{"buffer":0,"byteOffset":0,"byteLength":4212,"target":34962},{"buffer":0,"byteOffset":4212,"byteLength":4212,"target":34962},{"buffer":0,"byteOffset":8424,"byteLength":2808,"target":34962},{"buffer":0,"byteOffset":11232,"byteLength":4212,"target":34962},{"buffer":0,"byteOffset":15444,"byteLength":4212,"target":34962},{"buffer":0,"byteOffset":19656,"byteLength":4212,"target":34962},{"buffer":0,"byteOffset":23868,"byteLength":4212,"target":34962},{"buffer":0,"byteOffset":28080,"byteLength":1404,"target":34962},{"buffer":0,"byteOffset":29484,"byteLength":4104,"target":34963}],"accessors":[{"bufferView":0,"componentType":5126,"count":351,"type":"VEC3","min":[-1.7272872924804688,-0.27113133668899536,-1.1498832702636719],"max":[1.4978611469268799,1.988665223121643,1.8392531871795654]},{"bufferView":1,"componentType":5126,"count":351,"type":"VEC3"},{"bufferView":2,"componentType":5126,"count":351,"type":"VEC2"},{"bufferView":3,"componentType":5126,"count":351,"type":"VEC3"},{"bufferView":4,"componentType":5126,"count":351,"type":"VEC3"},{"bufferView":5,"componentType":5126,"count":351,"type":"VEC3"},{"bufferView":6,"componentType":5126,"count":351,"type":"VEC3"},{"bufferView":7,"componentType":5126,"count":351,"type":"SCALAR"},{"bufferView":8,"componentType":5125,"count":1026,"type":"SCALAR"}],"materials":[{"name":"legacy-material-33","pbrMetallicRoughness":{"baseColorFactor":[1,1,1,1],"metallicFactor":0,"roughnessFactor":1,"baseColorTexture":{"index":0}},"doubleSided":true,"extras":{"legacyMaterial":33,"legacyShader":"dist/renderer-gl.js"}}],"extras":{"veldrenAssetId":"veldren:world-part:9678504fb056fd99a119b012077afeaec4811155a0f2843867f669fbe6c27e26"},"images":[{"name":"atlas-13","uri":"../../textures/atlas/tile-13.png"}],"textures":[{"source":0,"sampler":0}],"samplers":[{"magFilter":9729,"minFilter":9729,"wrapS":10497,"wrapT":10497}],"buffers":[{"uri":"9678504fb056fd99a119b012077afeaec4811155a0f2843867f669fbe6c27e26.bin","byteLength":33588}]}
