{"asset":{"version":"2.0","generator":"Veldren adapted asset recovery"},"scene":0,"scenes":[{"nodes":[0]}],"nodes":[{"name":"9739110581abc4c0a20f78470d64aa16eeeef93d1e01e06eeddc3a69038e0771","mesh":0}],"meshes":[{"name":"9739110581abc4c0a20f78470d64aa16eeeef93d1e01e06eeddc3a69038e0771","primitives":[{"attributes":{"POSITION":0,"NORMAL":1,"TEXCOORD_0":2,"COLOR_0":3,"_VELDREN_NORMAL":4,"_VELDREN_COLOR":5,"_VELDREN_FALLBACK":6,"_VELDREN_MATERIAL":7},"indices":8,"material":0,"extras":{"mixedAtlasFallback":false}},{"attributes":{"POSITION":0,"NORMAL":1,"TEXCOORD_0":2,"COLOR_0":3,"_VELDREN_NORMAL":4,"_VELDREN_COLOR":5,"_VELDREN_FALLBACK":6,"_VELDREN_MATERIAL":7},"indices":9,"material":1,"extras":{"mixedAtlasFallback":false}},{"attributes":{"POSITION":0,"NORMAL":1,"TEXCOORD_0":2,"COLOR_0":3,"_VELDREN_NORMAL":4,"_VELDREN_COLOR":5,"_VELDREN_FALLBACK":6,"_VELDREN_MATERIAL":7},"indices":10,"material":2,"extras":{"mixedAtlasFallback":false}},{"attributes":{"POSITION":0,"NORMAL":1,"TEXCOORD_0":2,"COLOR_0":3,"_VELDREN_NORMAL":4,"_VELDREN_COLOR":5,"_VELDREN_FALLBACK":6,"_VELDREN_MATERIAL":7},"indices":11,"material":3,"extras":{"mixedAtlasFallback":false}},{"attributes":{"POSITION":0,"NORMAL":1,"TEXCOORD_0":2,"COLOR_0":3,"_VELDREN_NORMAL":4,"_VELDREN_COLOR":5,"_VELDREN_FALLBACK":6,"_VELDREN_MATERIAL":7},"indices":12,"material":4,"extras":{"mixedAtlasFallback":false}},{"attributes":{"POSITION":0,"NORMAL":1,"TEXCOORD_0":2,"COLOR_0":3,"_VELDREN_NORMAL":4,"_VELDREN_COLOR":5,"_VELDREN_FALLBACK":6,"_VELDREN_MATERIAL":7},"indices":13,"material":5,"extras":{"mixedAtlasFallback":false}},{"attributes":{"POSITION":0,"NORMAL":1,"TEXCOORD_0":2,"COLOR_0":3,"_VELDREN_NORMAL":4,"_VELDREN_COLOR":5,"_VELDREN_FALLBACK":6,"_VELDREN_MATERIAL":7},"indices":14,"material":6,"extras":{"mixedAtlasFallback":false}}]}],"bufferViews":[{"buffer":0,"byteOffset":0,"byteLength":913032,"target":34962},{"buffer":0,"byteOffset":913032,"byteLength":913032,"target":34962},{"buffer":0,"byteOffset":1826064,"byteLength":608688,"target":34962},{"buffer":0,"byteOffset":2434752,"byteLength":913032,"target":34962},{"buffer":0,"byteOffset":3347784,"byteLength":913032,"target":34962},{"buffer":0,"byteOffset":4260816,"byteLength":913032,"target":34962},{"buffer":0,"byteOffset":5173848,"byteLength":913032,"target":34962},{"buffer":0,"byteOffset":6086880,"byteLength":304344,"target":34962},{"buffer":0,"byteOffset":6391224,"byteLength":159552,"target":34963},{"buffer":0,"byteOffset":6550776,"byteLength":50856,"target":34963},{"buffer":0,"byteOffset":6601632,"byteLength":7488,"target":34963},{"buffer":0,"byteOffset":6609120,"byteLength":84432,"target":34963},{"buffer":0,"byteOffset":6693552,"byteLength":1344,"target":34963},{"buffer":0,"byteOffset":6694896,"byteLength":576,"target":34963},{"buffer":0,"byteOffset":6695472,"byteLength":96,"target":34963}],"accessors":[{"bufferView":0,"componentType":5126,"count":76086,"type":"VEC3","min":[368.4840087890625,4.626742839813232,518.4840087890625],"max":[418.5159912109375,16.59174346923828,558.9000244140625]},{"bufferView":1,"componentType":5126,"count":76086,"type":"VEC3"},{"bufferView":2,"componentType":5126,"count":76086,"type":"VEC2"},{"bufferView":3,"componentType":5126,"count":76086,"type":"VEC3"},{"bufferView":4,"componentType":5126,"count":76086,"type":"VEC3"},{"bufferView":5,"componentType":5126,"count":76086,"type":"VEC3"},{"bufferView":6,"componentType":5126,"count":76086,"type":"VEC3"},{"bufferView":7,"componentType":5126,"count":76086,"type":"SCALAR"},{"bufferView":8,"componentType":5125,"count":39888,"type":"SCALAR"},{"bufferView":9,"componentType":5125,"count":12714,"type":"SCALAR"},{"bufferView":10,"componentType":5125,"count":1872,"type":"SCALAR"},{"bufferView":11,"componentType":5125,"count":21108,"type":"SCALAR"},{"bufferView":12,"componentType":5125,"count":336,"type":"SCALAR"},{"bufferView":13,"componentType":5125,"count":144,"type":"SCALAR"},{"bufferView":14,"componentType":5125,"count":24,"type":"SCALAR"}],"materials":[{"name":"legacy-material-18","pbrMetallicRoughness":{"baseColorFactor":[1,1,1,1],"metallicFactor":0,"roughnessFactor":1},"doubleSided":true,"extras":{"legacyMaterial":18,"legacyShader":"dist/renderer-gl.js","limitation":"Browser procedural material not implemented by this glTF export; source/base attributes retained."}},{"name":"legacy-material-5","pbrMetallicRoughness":{"baseColorFactor":[1,1,1,1],"metallicFactor":0,"roughnessFactor":1},"doubleSided":true,"extras":{"legacyMaterial":5,"legacyShader":"dist/renderer-gl.js","limitation":"Browser procedural material not implemented by this glTF export; source/base attributes retained."}},{"name":"legacy-material-7","pbrMetallicRoughness":{"baseColorFactor":[1,1,1,1],"metallicFactor":0,"roughnessFactor":1},"doubleSided":true,"extras":{"legacyMaterial":7,"legacyShader":"dist/renderer-gl.js","limitation":"Browser procedural material not implemented by this glTF export; source/base attributes retained."}},{"name":"legacy-material-17","pbrMetallicRoughness":{"baseColorFactor":[1,1,1,1],"metallicFactor":0,"roughnessFactor":1},"doubleSided":true,"extras":{"legacyMaterial":17,"legacyShader":"dist/renderer-gl.js","limitation":"Browser procedural material not implemented by this glTF export; source/base attributes retained."}},{"name":"legacy-material-6","pbrMetallicRoughness":{"baseColorFactor":[1,1,1,1],"metallicFactor":0,"roughnessFactor":1},"doubleSided":true,"extras":{"legacyMaterial":6,"legacyShader":"dist/renderer-gl.js","limitation":"Browser procedural material not implemented by this glTF export; source/base attributes retained."}},{"name":"legacy-material-20","pbrMetallicRoughness":{"baseColorFactor":[1,1,1,1],"metallicFactor":0,"roughnessFactor":1,"baseColorTexture":{"index":0}},"doubleSided":true,"extras":{"legacyMaterial":20,"legacyShader":"dist/renderer-gl.js"}},{"name":"legacy-material-13","pbrMetallicRoughness":{"baseColorFactor":[1,1,1,1],"metallicFactor":0,"roughnessFactor":1},"doubleSided":true,"extras":{"legacyMaterial":13,"legacyShader":"dist/renderer-gl.js","limitation":"Browser procedural material not implemented by this glTF export; source/base attributes retained."}}],"extras":{"veldrenAssetId":"veldren:world-part:9739110581abc4c0a20f78470d64aa16eeeef93d1e01e06eeddc3a69038e0771"},"images":[{"name":"atlas-00","uri":"../../textures/atlas/tile-00.png"}],"textures":[{"source":0,"sampler":0}],"samplers":[{"magFilter":9729,"minFilter":9729,"wrapS":10497,"wrapT":10497}],"buffers":[{"uri":"9739110581abc4c0a20f78470d64aa16eeeef93d1e01e06eeddc3a69038e0771.bin","byteLength":6695568}]}
