{"asset":{"version":"2.0","generator":"Veldren adapted asset recovery"},"scene":0,"scenes":[{"nodes":[0]}],"nodes":[{"name":"974a21d8ae8e0859926ffd9e6f304d80a7c46e7e5ee3150935a76e128408bac6","mesh":0}],"meshes":[{"name":"974a21d8ae8e0859926ffd9e6f304d80a7c46e7e5ee3150935a76e128408bac6","primitives":[{"attributes":{"POSITION":0,"NORMAL":1,"TEXCOORD_0":2,"COLOR_0":3,"_VELDREN_NORMAL":4,"_VELDREN_COLOR":5,"_VELDREN_FALLBACK":6,"_VELDREN_MATERIAL":7},"indices":8,"material":0,"extras":{"mixedAtlasFallback":false}},{"attributes":{"POSITION":0,"NORMAL":1,"TEXCOORD_0":2,"COLOR_0":3,"_VELDREN_NORMAL":4,"_VELDREN_COLOR":5,"_VELDREN_FALLBACK":6,"_VELDREN_MATERIAL":7},"indices":9,"material":1,"extras":{"mixedAtlasFallback":false}}]}],"bufferViews":[{"buffer":0,"byteOffset":0,"byteLength":38400,"target":34962},{"buffer":0,"byteOffset":38400,"byteLength":38400,"target":34962},{"buffer":0,"byteOffset":76800,"byteLength":25600,"target":34962},{"buffer":0,"byteOffset":102400,"byteLength":38400,"target":34962},{"buffer":0,"byteOffset":140800,"byteLength":38400,"target":34962},{"buffer":0,"byteOffset":179200,"byteLength":38400,"target":34962},{"buffer":0,"byteOffset":217600,"byteLength":38400,"target":34962},{"buffer":0,"byteOffset":256000,"byteLength":12800,"target":34962},{"buffer":0,"byteOffset":268800,"byteLength":4416,"target":34963},{"buffer":0,"byteOffset":273216,"byteLength":26136,"target":34963}],"accessors":[{"bufferView":0,"componentType":5126,"count":3200,"type":"VEC3","min":[-0.638446033000946,-0.022696882486343384,-0.3777054250240326],"max":[0.6376006007194519,0.6925303339958191,0.3777054250240326]},{"bufferView":1,"componentType":5126,"count":3200,"type":"VEC3"},{"bufferView":2,"componentType":5126,"count":3200,"type":"VEC2"},{"bufferView":3,"componentType":5126,"count":3200,"type":"VEC3"},{"bufferView":4,"componentType":5126,"count":3200,"type":"VEC3"},{"bufferView":5,"componentType":5126,"count":3200,"type":"VEC3"},{"bufferView":6,"componentType":5126,"count":3200,"type":"VEC3"},{"bufferView":7,"componentType":5126,"count":3200,"type":"SCALAR"},{"bufferView":8,"componentType":5125,"count":1104,"type":"SCALAR"},{"bufferView":9,"componentType":5125,"count":6534,"type":"SCALAR"}],"materials":[{"name":"legacy-material-43","pbrMetallicRoughness":{"baseColorFactor":[1,1,1,1],"metallicFactor":0,"roughnessFactor":1,"baseColorTexture":{"index":0}},"doubleSided":true,"extras":{"legacyMaterial":43,"legacyShader":"dist/renderer-gl.js"}},{"name":"legacy-material-42","pbrMetallicRoughness":{"baseColorFactor":[1,1,1,1],"metallicFactor":0,"roughnessFactor":1,"baseColorTexture":{"index":1}},"doubleSided":true,"extras":{"legacyMaterial":42,"legacyShader":"dist/renderer-gl.js"}}],"extras":{"veldrenAssetId":"veldren:world-part:974a21d8ae8e0859926ffd9e6f304d80a7c46e7e5ee3150935a76e128408bac6"},"images":[{"name":"atlas-23","uri":"../../textures/atlas/tile-23.png"},{"name":"atlas-22","uri":"../../textures/atlas/tile-22.png"}],"textures":[{"source":0,"sampler":0},{"source":1,"sampler":0}],"samplers":[{"magFilter":9729,"minFilter":9729,"wrapS":10497,"wrapT":10497}],"buffers":[{"uri":"974a21d8ae8e0859926ffd9e6f304d80a7c46e7e5ee3150935a76e128408bac6.bin","byteLength":299352}]}
