{"asset":{"version":"2.0","generator":"Veldren adapted asset recovery"},"scene":0,"scenes":[{"nodes":[0]}],"nodes":[{"name":"97b572cfd05e0559c95c7e67899165415d1e3e33a1cc8fdf2ea5b973ce33d6cf","mesh":0}],"meshes":[{"name":"97b572cfd05e0559c95c7e67899165415d1e3e33a1cc8fdf2ea5b973ce33d6cf","primitives":[{"attributes":{"POSITION":0,"NORMAL":1,"TEXCOORD_0":2,"COLOR_0":3,"_VELDREN_NORMAL":4,"_VELDREN_COLOR":5,"_VELDREN_FALLBACK":6,"_VELDREN_MATERIAL":7},"indices":8,"material":0,"extras":{"mixedAtlasFallback":false}},{"attributes":{"POSITION":0,"NORMAL":1,"TEXCOORD_0":2,"COLOR_0":3,"_VELDREN_NORMAL":4,"_VELDREN_COLOR":5,"_VELDREN_FALLBACK":6,"_VELDREN_MATERIAL":7},"indices":9,"material":1,"extras":{"mixedAtlasFallback":false}},{"attributes":{"POSITION":0,"NORMAL":1,"TEXCOORD_0":2,"COLOR_0":3,"_VELDREN_NORMAL":4,"_VELDREN_COLOR":5,"_VELDREN_FALLBACK":6,"_VELDREN_MATERIAL":7},"indices":10,"material":2,"extras":{"mixedAtlasFallback":false}}]}],"bufferViews":[{"buffer":0,"byteOffset":0,"byteLength":1404,"target":34962},{"buffer":0,"byteOffset":1404,"byteLength":1404,"target":34962},{"buffer":0,"byteOffset":2808,"byteLength":936,"target":34962},{"buffer":0,"byteOffset":3744,"byteLength":1404,"target":34962},{"buffer":0,"byteOffset":5148,"byteLength":1404,"target":34962},{"buffer":0,"byteOffset":6552,"byteLength":1404,"target":34962},{"buffer":0,"byteOffset":7956,"byteLength":1404,"target":34962},{"buffer":0,"byteOffset":9360,"byteLength":468,"target":34962},{"buffer":0,"byteOffset":9828,"byteLength":144,"target":34963},{"buffer":0,"byteOffset":9972,"byteLength":36,"target":34963},{"buffer":0,"byteOffset":10008,"byteLength":288,"target":34963}],"accessors":[{"bufferView":0,"componentType":5126,"count":117,"type":"VEC3","min":[393.0950012207031,5.346743106842041,522.2000122070312],"max":[393.9049987792969,6.586742877960205,522.3602905273438]},{"bufferView":1,"componentType":5126,"count":117,"type":"VEC3"},{"bufferView":2,"componentType":5126,"count":117,"type":"VEC2"},{"bufferView":3,"componentType":5126,"count":117,"type":"VEC3"},{"bufferView":4,"componentType":5126,"count":117,"type":"VEC3"},{"bufferView":5,"componentType":5126,"count":117,"type":"VEC3"},{"bufferView":6,"componentType":5126,"count":117,"type":"VEC3"},{"bufferView":7,"componentType":5126,"count":117,"type":"SCALAR"},{"bufferView":8,"componentType":5125,"count":36,"type":"SCALAR"},{"bufferView":9,"componentType":5125,"count":9,"type":"SCALAR"},{"bufferView":10,"componentType":5125,"count":72,"type":"SCALAR"}],"materials":[{"name":"legacy-material-5","pbrMetallicRoughness":{"baseColorFactor":[1,1,1,1],"metallicFactor":0,"roughnessFactor":1},"doubleSided":true,"extras":{"legacyMaterial":5,"legacyShader":"dist/renderer-gl.js","limitation":"Browser procedural material not implemented by this glTF export; source/base attributes retained."}},{"name":"legacy-material-13","pbrMetallicRoughness":{"baseColorFactor":[1,1,1,1],"metallicFactor":0,"roughnessFactor":1},"doubleSided":true,"extras":{"legacyMaterial":13,"legacyShader":"dist/renderer-gl.js","limitation":"Browser procedural material not implemented by this glTF export; source/base attributes retained."}},{"name":"legacy-material-20","pbrMetallicRoughness":{"baseColorFactor":[1,1,1,1],"metallicFactor":0,"roughnessFactor":1,"baseColorTexture":{"index":0}},"doubleSided":true,"extras":{"legacyMaterial":20,"legacyShader":"dist/renderer-gl.js"}}],"extras":{"veldrenAssetId":"veldren:world-part:97b572cfd05e0559c95c7e67899165415d1e3e33a1cc8fdf2ea5b973ce33d6cf"},"images":[{"name":"atlas-00","uri":"../../textures/atlas/tile-00.png"}],"textures":[{"source":0,"sampler":0}],"samplers":[{"magFilter":9729,"minFilter":9729,"wrapS":10497,"wrapT":10497}],"buffers":[{"uri":"97b572cfd05e0559c95c7e67899165415d1e3e33a1cc8fdf2ea5b973ce33d6cf.bin","byteLength":10296}]}
