{"asset":{"version":"2.0","generator":"Veldren adapted asset recovery"},"scene":0,"scenes":[{"nodes":[0]}],"nodes":[{"name":"986cb9932d085116411a89bb303f625d7397189fdcf23efc5cc386d4f2d26464","mesh":0}],"meshes":[{"name":"986cb9932d085116411a89bb303f625d7397189fdcf23efc5cc386d4f2d26464","primitives":[{"attributes":{"POSITION":0,"NORMAL":1,"TEXCOORD_0":2,"COLOR_0":3,"_VELDREN_NORMAL":4,"_VELDREN_COLOR":5,"_VELDREN_FALLBACK":6,"_VELDREN_MATERIAL":7},"indices":8,"material":0,"extras":{"mixedAtlasFallback":false}}]}],"bufferViews":[{"buffer":0,"byteOffset":0,"byteLength":1656,"target":34962},{"buffer":0,"byteOffset":1656,"byteLength":1656,"target":34962},{"buffer":0,"byteOffset":3312,"byteLength":1104,"target":34962},{"buffer":0,"byteOffset":4416,"byteLength":1656,"target":34962},{"buffer":0,"byteOffset":6072,"byteLength":1656,"target":34962},{"buffer":0,"byteOffset":7728,"byteLength":1656,"target":34962},{"buffer":0,"byteOffset":9384,"byteLength":1656,"target":34962},{"buffer":0,"byteOffset":11040,"byteLength":552,"target":34962},{"buffer":0,"byteOffset":11592,"byteLength":552,"target":34963}],"accessors":[{"bufferView":0,"componentType":5126,"count":138,"type":"VEC3","min":[22.850000381469727,0.0,114.93708038330078],"max":[24.149999618530273,2.5,116.06291961669922]},{"bufferView":1,"componentType":5126,"count":138,"type":"VEC3"},{"bufferView":2,"componentType":5126,"count":138,"type":"VEC2"},{"bufferView":3,"componentType":5126,"count":138,"type":"VEC3"},{"bufferView":4,"componentType":5126,"count":138,"type":"VEC3"},{"bufferView":5,"componentType":5126,"count":138,"type":"VEC3"},{"bufferView":6,"componentType":5126,"count":138,"type":"VEC3"},{"bufferView":7,"componentType":5126,"count":138,"type":"SCALAR"},{"bufferView":8,"componentType":5125,"count":138,"type":"SCALAR"}],"materials":[{"name":"legacy-material-20","pbrMetallicRoughness":{"baseColorFactor":[1,1,1,1],"metallicFactor":0,"roughnessFactor":1,"baseColorTexture":{"index":0}},"doubleSided":true,"extras":{"legacyMaterial":20,"legacyShader":"dist/renderer-gl.js"}}],"extras":{"veldrenAssetId":"veldren:world-part:986cb9932d085116411a89bb303f625d7397189fdcf23efc5cc386d4f2d26464"},"images":[{"name":"atlas-00","uri":"../../textures/atlas/tile-00.png"}],"textures":[{"source":0,"sampler":0}],"samplers":[{"magFilter":9729,"minFilter":9729,"wrapS":10497,"wrapT":10497}],"buffers":[{"uri":"986cb9932d085116411a89bb303f625d7397189fdcf23efc5cc386d4f2d26464.bin","byteLength":12144}]}
