{"asset":{"version":"2.0","generator":"Veldren adapted asset recovery"},"scene":0,"scenes":[{"nodes":[0]}],"nodes":[{"name":"9a2512b436b63bb7ea06e287302379ec7cd545afa3634b62d51eac88505a4bb8","mesh":0}],"meshes":[{"name":"9a2512b436b63bb7ea06e287302379ec7cd545afa3634b62d51eac88505a4bb8","primitives":[{"attributes":{"POSITION":0,"NORMAL":1,"TEXCOORD_0":2,"COLOR_0":3,"_VELDREN_NORMAL":4,"_VELDREN_COLOR":5,"_VELDREN_FALLBACK":6,"_VELDREN_MATERIAL":7},"indices":8,"material":0,"extras":{"mixedAtlasFallback":false}},{"attributes":{"POSITION":0,"NORMAL":1,"TEXCOORD_0":2,"COLOR_0":3,"_VELDREN_NORMAL":4,"_VELDREN_COLOR":5,"_VELDREN_FALLBACK":6,"_VELDREN_MATERIAL":7},"indices":9,"material":1,"extras":{"mixedAtlasFallback":false}},{"attributes":{"POSITION":0,"NORMAL":1,"TEXCOORD_0":2,"COLOR_0":3,"_VELDREN_NORMAL":4,"_VELDREN_COLOR":5,"_VELDREN_FALLBACK":6,"_VELDREN_MATERIAL":7},"indices":10,"material":2,"extras":{"mixedAtlasFallback":false}}]}],"bufferViews":[{"buffer":0,"byteOffset":0,"byteLength":20328,"target":34962},{"buffer":0,"byteOffset":20328,"byteLength":20328,"target":34962},{"buffer":0,"byteOffset":40656,"byteLength":13552,"target":34962},{"buffer":0,"byteOffset":54208,"byteLength":20328,"target":34962},{"buffer":0,"byteOffset":74536,"byteLength":20328,"target":34962},{"buffer":0,"byteOffset":94864,"byteLength":20328,"target":34962},{"buffer":0,"byteOffset":115192,"byteLength":20328,"target":34962},{"buffer":0,"byteOffset":135520,"byteLength":6776,"target":34962},{"buffer":0,"byteOffset":142296,"byteLength":11952,"target":34963},{"buffer":0,"byteOffset":154248,"byteLength":2112,"target":34963},{"buffer":0,"byteOffset":156360,"byteLength":5136,"target":34963}],"accessors":[{"bufferView":0,"componentType":5126,"count":1694,"type":"VEC3","min":[-0.9378617405891418,0.0004533232713583857,-1.205949068069458],"max":[0.9378617405891418,0.8055568933486938,1.205949068069458]},{"bufferView":1,"componentType":5126,"count":1694,"type":"VEC3"},{"bufferView":2,"componentType":5126,"count":1694,"type":"VEC2"},{"bufferView":3,"componentType":5126,"count":1694,"type":"VEC3"},{"bufferView":4,"componentType":5126,"count":1694,"type":"VEC3"},{"bufferView":5,"componentType":5126,"count":1694,"type":"VEC3"},{"bufferView":6,"componentType":5126,"count":1694,"type":"VEC3"},{"bufferView":7,"componentType":5126,"count":1694,"type":"SCALAR"},{"bufferView":8,"componentType":5125,"count":2988,"type":"SCALAR"},{"bufferView":9,"componentType":5125,"count":528,"type":"SCALAR"},{"bufferView":10,"componentType":5125,"count":1284,"type":"SCALAR"}],"materials":[{"name":"legacy-material-43","pbrMetallicRoughness":{"baseColorFactor":[1,1,1,1],"metallicFactor":0,"roughnessFactor":1,"baseColorTexture":{"index":0}},"doubleSided":true,"extras":{"legacyMaterial":43,"legacyShader":"dist/renderer-gl.js"}},{"name":"legacy-material-42","pbrMetallicRoughness":{"baseColorFactor":[1,1,1,1],"metallicFactor":0,"roughnessFactor":1,"baseColorTexture":{"index":1}},"doubleSided":true,"extras":{"legacyMaterial":42,"legacyShader":"dist/renderer-gl.js"}},{"name":"legacy-material-45","pbrMetallicRoughness":{"baseColorFactor":[1,1,1,1],"metallicFactor":0,"roughnessFactor":1,"baseColorTexture":{"index":2}},"doubleSided":true,"extras":{"legacyMaterial":45,"legacyShader":"dist/renderer-gl.js"}}],"extras":{"veldrenAssetId":"veldren:world-part:9a2512b436b63bb7ea06e287302379ec7cd545afa3634b62d51eac88505a4bb8"},"images":[{"name":"atlas-23","uri":"../../textures/atlas/tile-23.png"},{"name":"atlas-22","uri":"../../textures/atlas/tile-22.png"},{"name":"atlas-25","uri":"../../textures/atlas/tile-25.png"}],"textures":[{"source":0,"sampler":0},{"source":1,"sampler":0},{"source":2,"sampler":0}],"samplers":[{"magFilter":9729,"minFilter":9729,"wrapS":10497,"wrapT":10497}],"buffers":[{"uri":"9a2512b436b63bb7ea06e287302379ec7cd545afa3634b62d51eac88505a4bb8.bin","byteLength":161496}]}
