{"asset":{"version":"2.0","generator":"Veldren adapted asset recovery"},"scene":0,"scenes":[{"nodes":[0]}],"nodes":[{"name":"9e417f8a31493ebc5f04240e9e4919f67c7c6fd9d7d0105ec8349264d7ee9488","mesh":0}],"meshes":[{"name":"9e417f8a31493ebc5f04240e9e4919f67c7c6fd9d7d0105ec8349264d7ee9488","primitives":[{"attributes":{"POSITION":0,"NORMAL":1,"TEXCOORD_0":2,"COLOR_0":3,"_VELDREN_NORMAL":4,"_VELDREN_COLOR":5,"_VELDREN_FALLBACK":6,"_VELDREN_MATERIAL":7},"indices":8,"material":0,"extras":{"mixedAtlasFallback":false}},{"attributes":{"POSITION":0,"NORMAL":1,"TEXCOORD_0":2,"COLOR_0":3,"_VELDREN_NORMAL":4,"_VELDREN_COLOR":5,"_VELDREN_FALLBACK":6,"_VELDREN_MATERIAL":7},"indices":9,"material":1,"extras":{"mixedAtlasFallback":false}}]}],"bufferViews":[{"buffer":0,"byteOffset":0,"byteLength":10008,"target":34962},{"buffer":0,"byteOffset":10008,"byteLength":10008,"target":34962},{"buffer":0,"byteOffset":20016,"byteLength":6672,"target":34962},{"buffer":0,"byteOffset":26688,"byteLength":10008,"target":34962},{"buffer":0,"byteOffset":36696,"byteLength":10008,"target":34962},{"buffer":0,"byteOffset":46704,"byteLength":10008,"target":34962},{"buffer":0,"byteOffset":56712,"byteLength":10008,"target":34962},{"buffer":0,"byteOffset":66720,"byteLength":3336,"target":34962},{"buffer":0,"byteOffset":70056,"byteLength":7728,"target":34963},{"buffer":0,"byteOffset":77784,"byteLength":3984,"target":34963}],"accessors":[{"bufferView":0,"componentType":5126,"count":834,"type":"VEC3","min":[-0.2159692943096161,0.0007063584635034204,-0.19943936169147491],"max":[0.21795988082885742,0.2934951186180115,0.18401481211185455]},{"bufferView":1,"componentType":5126,"count":834,"type":"VEC3"},{"bufferView":2,"componentType":5126,"count":834,"type":"VEC2"},{"bufferView":3,"componentType":5126,"count":834,"type":"VEC3"},{"bufferView":4,"componentType":5126,"count":834,"type":"VEC3"},{"bufferView":5,"componentType":5126,"count":834,"type":"VEC3"},{"bufferView":6,"componentType":5126,"count":834,"type":"VEC3"},{"bufferView":7,"componentType":5126,"count":834,"type":"SCALAR"},{"bufferView":8,"componentType":5125,"count":1932,"type":"SCALAR"},{"bufferView":9,"componentType":5125,"count":996,"type":"SCALAR"}],"materials":[{"name":"legacy-material-43","pbrMetallicRoughness":{"baseColorFactor":[1,1,1,1],"metallicFactor":0,"roughnessFactor":1,"baseColorTexture":{"index":0}},"doubleSided":true,"extras":{"legacyMaterial":43,"legacyShader":"dist/renderer-gl.js"}},{"name":"legacy-material-42","pbrMetallicRoughness":{"baseColorFactor":[1,1,1,1],"metallicFactor":0,"roughnessFactor":1,"baseColorTexture":{"index":1}},"doubleSided":true,"extras":{"legacyMaterial":42,"legacyShader":"dist/renderer-gl.js"}}],"extras":{"veldrenAssetId":"veldren:world-part:9e417f8a31493ebc5f04240e9e4919f67c7c6fd9d7d0105ec8349264d7ee9488"},"images":[{"name":"atlas-23","uri":"../../textures/atlas/tile-23.png"},{"name":"atlas-22","uri":"../../textures/atlas/tile-22.png"}],"textures":[{"source":0,"sampler":0},{"source":1,"sampler":0}],"samplers":[{"magFilter":9729,"minFilter":9729,"wrapS":10497,"wrapT":10497}],"buffers":[{"uri":"9e417f8a31493ebc5f04240e9e4919f67c7c6fd9d7d0105ec8349264d7ee9488.bin","byteLength":81768}]}
