{"asset":{"version":"2.0","generator":"Veldren adapted asset recovery"},"scene":0,"scenes":[{"nodes":[0]}],"nodes":[{"name":"9e9214a3afa74a101f8b62fec6b39113a7c76f2c88eed63f38a4fc4442bef757","mesh":0}],"meshes":[{"name":"9e9214a3afa74a101f8b62fec6b39113a7c76f2c88eed63f38a4fc4442bef757","primitives":[{"attributes":{"POSITION":0,"NORMAL":1,"TEXCOORD_0":2,"COLOR_0":3,"_VELDREN_NORMAL":4,"_VELDREN_COLOR":5,"_VELDREN_FALLBACK":6,"_VELDREN_MATERIAL":7},"indices":8,"material":0,"extras":{"mixedAtlasFallback":false}}]}],"bufferViews":[{"buffer":0,"byteOffset":0,"byteLength":2016,"target":34962},{"buffer":0,"byteOffset":2016,"byteLength":2016,"target":34962},{"buffer":0,"byteOffset":4032,"byteLength":1344,"target":34962},{"buffer":0,"byteOffset":5376,"byteLength":2016,"target":34962},{"buffer":0,"byteOffset":7392,"byteLength":2016,"target":34962},{"buffer":0,"byteOffset":9408,"byteLength":2016,"target":34962},{"buffer":0,"byteOffset":11424,"byteLength":2016,"target":34962},{"buffer":0,"byteOffset":13440,"byteLength":672,"target":34962},{"buffer":0,"byteOffset":14112,"byteLength":672,"target":34963}],"accessors":[{"bufferView":0,"componentType":5126,"count":168,"type":"VEC3","min":[377.45001220703125,2.5212602615356445,113.44999694824219],"max":[379.54998779296875,6.821260452270508,115.55000305175781]},{"bufferView":1,"componentType":5126,"count":168,"type":"VEC3"},{"bufferView":2,"componentType":5126,"count":168,"type":"VEC2"},{"bufferView":3,"componentType":5126,"count":168,"type":"VEC3"},{"bufferView":4,"componentType":5126,"count":168,"type":"VEC3"},{"bufferView":5,"componentType":5126,"count":168,"type":"VEC3"},{"bufferView":6,"componentType":5126,"count":168,"type":"VEC3"},{"bufferView":7,"componentType":5126,"count":168,"type":"SCALAR"},{"bufferView":8,"componentType":5125,"count":168,"type":"SCALAR"}],"materials":[{"name":"legacy-material-18","pbrMetallicRoughness":{"baseColorFactor":[1,1,1,1],"metallicFactor":0,"roughnessFactor":1},"doubleSided":true,"extras":{"legacyMaterial":18,"legacyShader":"dist/renderer-gl.js","limitation":"Browser procedural material not implemented by this glTF export; source/base attributes retained."}}],"extras":{"veldrenAssetId":"veldren:world-part:9e9214a3afa74a101f8b62fec6b39113a7c76f2c88eed63f38a4fc4442bef757"},"buffers":[{"uri":"9e9214a3afa74a101f8b62fec6b39113a7c76f2c88eed63f38a4fc4442bef757.bin","byteLength":14784}]}
