{"asset":{"version":"2.0","generator":"Veldren adapted asset recovery"},"scene":0,"scenes":[{"nodes":[0]}],"nodes":[{"name":"9fc18883fbbb6e6c076af12dc2e7cd07bcbc9d050222fea57bc1994aca0bd012","mesh":0}],"meshes":[{"name":"9fc18883fbbb6e6c076af12dc2e7cd07bcbc9d050222fea57bc1994aca0bd012","primitives":[{"attributes":{"POSITION":0,"NORMAL":1,"TEXCOORD_0":2,"COLOR_0":3,"_VELDREN_NORMAL":4,"_VELDREN_COLOR":5,"_VELDREN_FALLBACK":6,"_VELDREN_MATERIAL":7},"indices":8,"material":0,"extras":{"mixedAtlasFallback":false}},{"attributes":{"POSITION":0,"NORMAL":1,"TEXCOORD_0":2,"COLOR_0":3,"_VELDREN_NORMAL":4,"_VELDREN_COLOR":5,"_VELDREN_FALLBACK":6,"_VELDREN_MATERIAL":7},"indices":9,"material":1,"extras":{"mixedAtlasFallback":false}}]}],"bufferViews":[{"buffer":0,"byteOffset":0,"byteLength":6972,"target":34962},{"buffer":0,"byteOffset":6972,"byteLength":6972,"target":34962},{"buffer":0,"byteOffset":13944,"byteLength":4648,"target":34962},{"buffer":0,"byteOffset":18592,"byteLength":6972,"target":34962},{"buffer":0,"byteOffset":25564,"byteLength":6972,"target":34962},{"buffer":0,"byteOffset":32536,"byteLength":6972,"target":34962},{"buffer":0,"byteOffset":39508,"byteLength":6972,"target":34962},{"buffer":0,"byteOffset":46480,"byteLength":2324,"target":34962},{"buffer":0,"byteOffset":48804,"byteLength":8520,"target":34963},{"buffer":0,"byteOffset":57324,"byteLength":540,"target":34963}],"accessors":[{"bufferView":0,"componentType":5126,"count":581,"type":"VEC3","min":[-0.6136013269424438,-0.03458359092473984,-0.8017617464065552],"max":[0.8748752474784851,2.020251512527466,0.789365291595459]},{"bufferView":1,"componentType":5126,"count":581,"type":"VEC3"},{"bufferView":2,"componentType":5126,"count":581,"type":"VEC2"},{"bufferView":3,"componentType":5126,"count":581,"type":"VEC3"},{"bufferView":4,"componentType":5126,"count":581,"type":"VEC3"},{"bufferView":5,"componentType":5126,"count":581,"type":"VEC3"},{"bufferView":6,"componentType":5126,"count":581,"type":"VEC3"},{"bufferView":7,"componentType":5126,"count":581,"type":"SCALAR"},{"bufferView":8,"componentType":5125,"count":2130,"type":"SCALAR"},{"bufferView":9,"componentType":5125,"count":135,"type":"SCALAR"}],"materials":[{"name":"legacy-material-34","pbrMetallicRoughness":{"baseColorFactor":[1,1,1,1],"metallicFactor":0,"roughnessFactor":1,"baseColorTexture":{"index":0}},"doubleSided":true,"extras":{"legacyMaterial":34,"legacyShader":"dist/renderer-gl.js"},"alphaMode":"MASK","alphaCutoff":0.45},{"name":"legacy-material-36","pbrMetallicRoughness":{"baseColorFactor":[1,1,1,1],"metallicFactor":0,"roughnessFactor":1,"baseColorTexture":{"index":1}},"doubleSided":true,"extras":{"legacyMaterial":36,"legacyShader":"dist/renderer-gl.js"},"alphaMode":"MASK","alphaCutoff":0.45}],"extras":{"veldrenAssetId":"veldren:world-part:9fc18883fbbb6e6c076af12dc2e7cd07bcbc9d050222fea57bc1994aca0bd012"},"images":[{"name":"atlas-14","uri":"../../textures/atlas/tile-14.png"},{"name":"atlas-16","uri":"../../textures/atlas/tile-16.png"}],"textures":[{"source":0,"sampler":0},{"source":1,"sampler":0}],"samplers":[{"magFilter":9729,"minFilter":9729,"wrapS":10497,"wrapT":10497}],"buffers":[{"uri":"9fc18883fbbb6e6c076af12dc2e7cd07bcbc9d050222fea57bc1994aca0bd012.bin","byteLength":57864}]}
