{"asset":{"version":"2.0","generator":"Veldren adapted asset recovery"},"scene":0,"scenes":[{"nodes":[0]}],"nodes":[{"name":"a1de374861d6bf085aaf997964f1e94b0f1483d7fb97451aaa577e372a88a577","mesh":0}],"meshes":[{"name":"a1de374861d6bf085aaf997964f1e94b0f1483d7fb97451aaa577e372a88a577","primitives":[{"attributes":{"POSITION":0,"NORMAL":1,"TEXCOORD_0":2,"COLOR_0":3,"_VELDREN_NORMAL":4,"_VELDREN_COLOR":5,"_VELDREN_FALLBACK":6,"_VELDREN_MATERIAL":7},"indices":8,"material":0,"extras":{"mixedAtlasFallback":false}},{"attributes":{"POSITION":0,"NORMAL":1,"TEXCOORD_0":2,"COLOR_0":3,"_VELDREN_NORMAL":4,"_VELDREN_COLOR":5,"_VELDREN_FALLBACK":6,"_VELDREN_MATERIAL":7},"indices":9,"material":1,"extras":{"mixedAtlasFallback":false}},{"attributes":{"POSITION":0,"NORMAL":1,"TEXCOORD_0":2,"COLOR_0":3,"_VELDREN_NORMAL":4,"_VELDREN_COLOR":5,"_VELDREN_FALLBACK":6,"_VELDREN_MATERIAL":7},"indices":10,"material":2,"extras":{"mixedAtlasFallback":false}},{"attributes":{"POSITION":0,"NORMAL":1,"TEXCOORD_0":2,"COLOR_0":3,"_VELDREN_NORMAL":4,"_VELDREN_COLOR":5,"_VELDREN_FALLBACK":6,"_VELDREN_MATERIAL":7},"indices":11,"material":3,"extras":{"mixedAtlasFallback":false}},{"attributes":{"POSITION":0,"NORMAL":1,"TEXCOORD_0":2,"COLOR_0":3,"_VELDREN_NORMAL":4,"_VELDREN_COLOR":5,"_VELDREN_FALLBACK":6,"_VELDREN_MATERIAL":7},"indices":12,"material":4,"extras":{"mixedAtlasFallback":false}},{"attributes":{"POSITION":0,"NORMAL":1,"TEXCOORD_0":2,"COLOR_0":3,"_VELDREN_NORMAL":4,"_VELDREN_COLOR":5,"_VELDREN_FALLBACK":6,"_VELDREN_MATERIAL":7},"indices":13,"material":5,"extras":{"mixedAtlasFallback":false}}]}],"bufferViews":[{"buffer":0,"byteOffset":0,"byteLength":81144,"target":34962},{"buffer":0,"byteOffset":81144,"byteLength":81144,"target":34962},{"buffer":0,"byteOffset":162288,"byteLength":54096,"target":34962},{"buffer":0,"byteOffset":216384,"byteLength":81144,"target":34962},{"buffer":0,"byteOffset":297528,"byteLength":81144,"target":34962},{"buffer":0,"byteOffset":378672,"byteLength":81144,"target":34962},{"buffer":0,"byteOffset":459816,"byteLength":81144,"target":34962},{"buffer":0,"byteOffset":540960,"byteLength":27048,"target":34962},{"buffer":0,"byteOffset":568008,"byteLength":5136,"target":34963},{"buffer":0,"byteOffset":573144,"byteLength":456,"target":34963},{"buffer":0,"byteOffset":573600,"byteLength":18960,"target":34963},{"buffer":0,"byteOffset":592560,"byteLength":192,"target":34963},{"buffer":0,"byteOffset":592752,"byteLength":576,"target":34963},{"buffer":0,"byteOffset":593328,"byteLength":1728,"target":34963}],"accessors":[{"bufferView":0,"componentType":5126,"count":6762,"type":"VEC3","min":[578.489990234375,7.325101375579834,215.50999450683594],"max":[594.510009765625,14.448851585388184,229.48712158203125]},{"bufferView":1,"componentType":5126,"count":6762,"type":"VEC3"},{"bufferView":2,"componentType":5126,"count":6762,"type":"VEC2"},{"bufferView":3,"componentType":5126,"count":6762,"type":"VEC3"},{"bufferView":4,"componentType":5126,"count":6762,"type":"VEC3"},{"bufferView":5,"componentType":5126,"count":6762,"type":"VEC3"},{"bufferView":6,"componentType":5126,"count":6762,"type":"VEC3"},{"bufferView":7,"componentType":5126,"count":6762,"type":"SCALAR"},{"bufferView":8,"componentType":5125,"count":1284,"type":"SCALAR"},{"bufferView":9,"componentType":5125,"count":114,"type":"SCALAR"},{"bufferView":10,"componentType":5125,"count":4740,"type":"SCALAR"},{"bufferView":11,"componentType":5125,"count":48,"type":"SCALAR"},{"bufferView":12,"componentType":5125,"count":144,"type":"SCALAR"},{"bufferView":13,"componentType":5125,"count":432,"type":"SCALAR"}],"materials":[{"name":"legacy-material-5","pbrMetallicRoughness":{"baseColorFactor":[1,1,1,1],"metallicFactor":0,"roughnessFactor":1},"doubleSided":true,"extras":{"legacyMaterial":5,"legacyShader":"dist/renderer-gl.js","limitation":"Browser procedural material not implemented by this glTF export; source/base attributes retained."}},{"name":"legacy-material-13","pbrMetallicRoughness":{"baseColorFactor":[1,1,1,1],"metallicFactor":0,"roughnessFactor":1},"doubleSided":true,"extras":{"legacyMaterial":13,"legacyShader":"dist/renderer-gl.js","limitation":"Browser procedural material not implemented by this glTF export; source/base attributes retained."}},{"name":"legacy-material-17","pbrMetallicRoughness":{"baseColorFactor":[1,1,1,1],"metallicFactor":0,"roughnessFactor":1},"doubleSided":true,"extras":{"legacyMaterial":17,"legacyShader":"dist/renderer-gl.js","limitation":"Browser procedural material not implemented by this glTF export; source/base attributes retained."}},{"name":"legacy-material-6","pbrMetallicRoughness":{"baseColorFactor":[1,1,1,1],"metallicFactor":0,"roughnessFactor":1},"doubleSided":true,"extras":{"legacyMaterial":6,"legacyShader":"dist/renderer-gl.js","limitation":"Browser procedural material not implemented by this glTF export; source/base attributes retained."}},{"name":"legacy-material-18","pbrMetallicRoughness":{"baseColorFactor":[1,1,1,1],"metallicFactor":0,"roughnessFactor":1},"doubleSided":true,"extras":{"legacyMaterial":18,"legacyShader":"dist/renderer-gl.js","limitation":"Browser procedural material not implemented by this glTF export; source/base attributes retained."}},{"name":"legacy-material-20","pbrMetallicRoughness":{"baseColorFactor":[1,1,1,1],"metallicFactor":0,"roughnessFactor":1,"baseColorTexture":{"index":0}},"doubleSided":true,"extras":{"legacyMaterial":20,"legacyShader":"dist/renderer-gl.js"}}],"extras":{"veldrenAssetId":"veldren:world-part:a1de374861d6bf085aaf997964f1e94b0f1483d7fb97451aaa577e372a88a577"},"images":[{"name":"atlas-00","uri":"../../textures/atlas/tile-00.png"}],"textures":[{"source":0,"sampler":0}],"samplers":[{"magFilter":9729,"minFilter":9729,"wrapS":10497,"wrapT":10497}],"buffers":[{"uri":"a1de374861d6bf085aaf997964f1e94b0f1483d7fb97451aaa577e372a88a577.bin","byteLength":595056}]}
