{"asset":{"version":"2.0","generator":"Veldren adapted asset recovery"},"scene":0,"scenes":[{"nodes":[0]}],"nodes":[{"name":"a868b19bc2858dd2a7d2e71e8a588c8494b46154ad3cad9397d8dab7dbddc978","mesh":0}],"meshes":[{"name":"a868b19bc2858dd2a7d2e71e8a588c8494b46154ad3cad9397d8dab7dbddc978","primitives":[{"attributes":{"POSITION":0,"NORMAL":1,"TEXCOORD_0":2,"COLOR_0":3,"_VELDREN_NORMAL":4,"_VELDREN_COLOR":5,"_VELDREN_FALLBACK":6,"_VELDREN_MATERIAL":7},"indices":8,"material":0,"extras":{"mixedAtlasFallback":false}}]}],"bufferViews":[{"buffer":0,"byteOffset":0,"byteLength":13824,"target":34962},{"buffer":0,"byteOffset":13824,"byteLength":13824,"target":34962},{"buffer":0,"byteOffset":27648,"byteLength":9216,"target":34962},{"buffer":0,"byteOffset":36864,"byteLength":13824,"target":34962},{"buffer":0,"byteOffset":50688,"byteLength":13824,"target":34962},{"buffer":0,"byteOffset":64512,"byteLength":13824,"target":34962},{"buffer":0,"byteOffset":78336,"byteLength":13824,"target":34962},{"buffer":0,"byteOffset":92160,"byteLength":4608,"target":34962},{"buffer":0,"byteOffset":96768,"byteLength":4608,"target":34963}],"accessors":[{"bufferView":0,"componentType":5126,"count":1152,"type":"VEC3","min":[24.700000762939453,0.0,65.05680847167969],"max":[26.5,2.369999885559082,65.88999938964844]},{"bufferView":1,"componentType":5126,"count":1152,"type":"VEC3"},{"bufferView":2,"componentType":5126,"count":1152,"type":"VEC2"},{"bufferView":3,"componentType":5126,"count":1152,"type":"VEC3"},{"bufferView":4,"componentType":5126,"count":1152,"type":"VEC3"},{"bufferView":5,"componentType":5126,"count":1152,"type":"VEC3"},{"bufferView":6,"componentType":5126,"count":1152,"type":"VEC3"},{"bufferView":7,"componentType":5126,"count":1152,"type":"SCALAR"},{"bufferView":8,"componentType":5125,"count":1152,"type":"SCALAR"}],"materials":[{"name":"legacy-material-20","pbrMetallicRoughness":{"baseColorFactor":[1,1,1,1],"metallicFactor":0,"roughnessFactor":1,"baseColorTexture":{"index":0}},"doubleSided":true,"extras":{"legacyMaterial":20,"legacyShader":"dist/renderer-gl.js"}}],"extras":{"veldrenAssetId":"veldren:world-part:a868b19bc2858dd2a7d2e71e8a588c8494b46154ad3cad9397d8dab7dbddc978"},"images":[{"name":"atlas-00","uri":"../../textures/atlas/tile-00.png"}],"textures":[{"source":0,"sampler":0}],"samplers":[{"magFilter":9729,"minFilter":9729,"wrapS":10497,"wrapT":10497}],"buffers":[{"uri":"a868b19bc2858dd2a7d2e71e8a588c8494b46154ad3cad9397d8dab7dbddc978.bin","byteLength":101376}]}
