{"asset":{"version":"2.0","generator":"Veldren adapted asset recovery"},"scene":0,"scenes":[{"nodes":[0]}],"nodes":[{"name":"aef43d747b940a61a66b8cdb31e089b75cca16015ba9341835a175cd2edb8f40","mesh":0}],"meshes":[{"name":"aef43d747b940a61a66b8cdb31e089b75cca16015ba9341835a175cd2edb8f40","primitives":[{"attributes":{"POSITION":0,"NORMAL":1,"TEXCOORD_0":2,"COLOR_0":3,"_VELDREN_NORMAL":4,"_VELDREN_COLOR":5,"_VELDREN_FALLBACK":6,"_VELDREN_MATERIAL":7},"indices":8,"material":0,"extras":{"mixedAtlasFallback":false}}]}],"bufferViews":[{"buffer":0,"byteOffset":0,"byteLength":5472,"target":34962},{"buffer":0,"byteOffset":5472,"byteLength":5472,"target":34962},{"buffer":0,"byteOffset":10944,"byteLength":3648,"target":34962},{"buffer":0,"byteOffset":14592,"byteLength":5472,"target":34962},{"buffer":0,"byteOffset":20064,"byteLength":5472,"target":34962},{"buffer":0,"byteOffset":25536,"byteLength":5472,"target":34962},{"buffer":0,"byteOffset":31008,"byteLength":5472,"target":34962},{"buffer":0,"byteOffset":36480,"byteLength":1824,"target":34962},{"buffer":0,"byteOffset":38304,"byteLength":1824,"target":34963}],"accessors":[{"bufferView":0,"componentType":5126,"count":456,"type":"VEC3","min":[81.5,0.7503643035888672,85.5],"max":[83.5,3.666938304901123,87.5]},{"bufferView":1,"componentType":5126,"count":456,"type":"VEC3"},{"bufferView":2,"componentType":5126,"count":456,"type":"VEC2"},{"bufferView":3,"componentType":5126,"count":456,"type":"VEC3"},{"bufferView":4,"componentType":5126,"count":456,"type":"VEC3"},{"bufferView":5,"componentType":5126,"count":456,"type":"VEC3"},{"bufferView":6,"componentType":5126,"count":456,"type":"VEC3"},{"bufferView":7,"componentType":5126,"count":456,"type":"SCALAR"},{"bufferView":8,"componentType":5125,"count":456,"type":"SCALAR"}],"materials":[{"name":"legacy-material-5","pbrMetallicRoughness":{"baseColorFactor":[1,1,1,1],"metallicFactor":0,"roughnessFactor":1},"doubleSided":true,"extras":{"legacyMaterial":5,"legacyShader":"dist/renderer-gl.js","limitation":"Browser procedural material not implemented by this glTF export; source/base attributes retained."}}],"extras":{"veldrenAssetId":"veldren:world-part:aef43d747b940a61a66b8cdb31e089b75cca16015ba9341835a175cd2edb8f40"},"buffers":[{"uri":"aef43d747b940a61a66b8cdb31e089b75cca16015ba9341835a175cd2edb8f40.bin","byteLength":40128}]}
