{"asset":{"version":"2.0","generator":"Veldren adapted asset recovery"},"scene":0,"scenes":[{"nodes":[0]}],"nodes":[{"name":"b4811c76011353dcb6670df44990e1f9e28ab5be134b9663aa2776e86f28edcd","mesh":0}],"meshes":[{"name":"b4811c76011353dcb6670df44990e1f9e28ab5be134b9663aa2776e86f28edcd","primitives":[{"attributes":{"POSITION":0,"NORMAL":1,"TEXCOORD_0":2,"COLOR_0":3,"_VELDREN_NORMAL":4,"_VELDREN_COLOR":5,"_VELDREN_FALLBACK":6,"_VELDREN_MATERIAL":7},"indices":8,"material":0,"extras":{"mixedAtlasFallback":false}}]}],"bufferViews":[{"buffer":0,"byteOffset":0,"byteLength":3120,"target":34962},{"buffer":0,"byteOffset":3120,"byteLength":3120,"target":34962},{"buffer":0,"byteOffset":6240,"byteLength":2080,"target":34962},{"buffer":0,"byteOffset":8320,"byteLength":3120,"target":34962},{"buffer":0,"byteOffset":11440,"byteLength":3120,"target":34962},{"buffer":0,"byteOffset":14560,"byteLength":3120,"target":34962},{"buffer":0,"byteOffset":17680,"byteLength":3120,"target":34962},{"buffer":0,"byteOffset":20800,"byteLength":1040,"target":34962},{"buffer":0,"byteOffset":21840,"byteLength":2352,"target":34963}],"accessors":[{"bufferView":0,"componentType":5126,"count":260,"type":"VEC3","min":[-1.0,-1.1920928955078125e-07,-3.725290298461914e-08],"max":[1.0,3.0,0.06404569000005722]},{"bufferView":1,"componentType":5126,"count":260,"type":"VEC3"},{"bufferView":2,"componentType":5126,"count":260,"type":"VEC2"},{"bufferView":3,"componentType":5126,"count":260,"type":"VEC3"},{"bufferView":4,"componentType":5126,"count":260,"type":"VEC3"},{"bufferView":5,"componentType":5126,"count":260,"type":"VEC3"},{"bufferView":6,"componentType":5126,"count":260,"type":"VEC3"},{"bufferView":7,"componentType":5126,"count":260,"type":"SCALAR"},{"bufferView":8,"componentType":5125,"count":588,"type":"SCALAR"}],"materials":[{"name":"legacy-material-21","pbrMetallicRoughness":{"baseColorFactor":[1,1,1,1],"metallicFactor":0,"roughnessFactor":1,"baseColorTexture":{"index":0}},"doubleSided":true,"extras":{"legacyMaterial":21,"legacyShader":"dist/renderer-gl.js"}}],"extras":{"veldrenAssetId":"veldren:world-part:b4811c76011353dcb6670df44990e1f9e28ab5be134b9663aa2776e86f28edcd"},"images":[{"name":"atlas-01","uri":"../../textures/atlas/tile-01.png"}],"textures":[{"source":0,"sampler":0}],"samplers":[{"magFilter":9729,"minFilter":9729,"wrapS":10497,"wrapT":10497}],"buffers":[{"uri":"b4811c76011353dcb6670df44990e1f9e28ab5be134b9663aa2776e86f28edcd.bin","byteLength":24192}]}
