{"asset":{"version":"2.0","generator":"Veldren adapted asset recovery"},"scene":0,"scenes":[{"nodes":[0]}],"nodes":[{"name":"b7e1f3c480d365573cb99253e0b1e7ee9b26e4c36b6d7ffdde8a82f703c7bf8b","mesh":0}],"meshes":[{"name":"b7e1f3c480d365573cb99253e0b1e7ee9b26e4c36b6d7ffdde8a82f703c7bf8b","primitives":[{"attributes":{"POSITION":0,"NORMAL":1,"TEXCOORD_0":2,"COLOR_0":3,"_VELDREN_NORMAL":4,"_VELDREN_COLOR":5,"_VELDREN_FALLBACK":6,"_VELDREN_MATERIAL":7},"indices":8,"material":0,"extras":{"mixedAtlasFallback":false}},{"attributes":{"POSITION":0,"NORMAL":1,"TEXCOORD_0":2,"COLOR_0":3,"_VELDREN_NORMAL":4,"_VELDREN_COLOR":5,"_VELDREN_FALLBACK":6,"_VELDREN_MATERIAL":7},"indices":9,"material":1,"extras":{"mixedAtlasFallback":false}},{"attributes":{"POSITION":0,"NORMAL":1,"TEXCOORD_0":2,"COLOR_0":3,"_VELDREN_NORMAL":4,"_VELDREN_COLOR":5,"_VELDREN_FALLBACK":6,"_VELDREN_MATERIAL":7},"indices":10,"material":2,"extras":{"mixedAtlasFallback":false}}]}],"bufferViews":[{"buffer":0,"byteOffset":0,"byteLength":40512,"target":34962},{"buffer":0,"byteOffset":40512,"byteLength":40512,"target":34962},{"buffer":0,"byteOffset":81024,"byteLength":27008,"target":34962},{"buffer":0,"byteOffset":108032,"byteLength":40512,"target":34962},{"buffer":0,"byteOffset":148544,"byteLength":40512,"target":34962},{"buffer":0,"byteOffset":189056,"byteLength":40512,"target":34962},{"buffer":0,"byteOffset":229568,"byteLength":40512,"target":34962},{"buffer":0,"byteOffset":270080,"byteLength":13504,"target":34962},{"buffer":0,"byteOffset":283584,"byteLength":1104,"target":34963},{"buffer":0,"byteOffset":284688,"byteLength":17352,"target":34963},{"buffer":0,"byteOffset":302040,"byteLength":27240,"target":34963}],"accessors":[{"bufferView":0,"componentType":5126,"count":3376,"type":"VEC3","min":[-0.41191795468330383,0.0014315724838525057,-0.3469201326370239],"max":[0.5173688530921936,1.0748099088668823,0.4744724631309509]},{"bufferView":1,"componentType":5126,"count":3376,"type":"VEC3"},{"bufferView":2,"componentType":5126,"count":3376,"type":"VEC2"},{"bufferView":3,"componentType":5126,"count":3376,"type":"VEC3"},{"bufferView":4,"componentType":5126,"count":3376,"type":"VEC3"},{"bufferView":5,"componentType":5126,"count":3376,"type":"VEC3"},{"bufferView":6,"componentType":5126,"count":3376,"type":"VEC3"},{"bufferView":7,"componentType":5126,"count":3376,"type":"SCALAR"},{"bufferView":8,"componentType":5125,"count":276,"type":"SCALAR"},{"bufferView":9,"componentType":5125,"count":4338,"type":"SCALAR"},{"bufferView":10,"componentType":5125,"count":6810,"type":"SCALAR"}],"materials":[{"name":"legacy-material-43","pbrMetallicRoughness":{"baseColorFactor":[1,1,1,1],"metallicFactor":0,"roughnessFactor":1,"baseColorTexture":{"index":0}},"doubleSided":true,"extras":{"legacyMaterial":43,"legacyShader":"dist/renderer-gl.js"}},{"name":"legacy-material-42","pbrMetallicRoughness":{"baseColorFactor":[1,1,1,1],"metallicFactor":0,"roughnessFactor":1,"baseColorTexture":{"index":1}},"doubleSided":true,"extras":{"legacyMaterial":42,"legacyShader":"dist/renderer-gl.js"}},{"name":"legacy-material-44","pbrMetallicRoughness":{"baseColorFactor":[1,1,1,1],"metallicFactor":0,"roughnessFactor":1,"baseColorTexture":{"index":2}},"doubleSided":true,"extras":{"legacyMaterial":44,"legacyShader":"dist/renderer-gl.js"}}],"extras":{"veldrenAssetId":"veldren:world-part:b7e1f3c480d365573cb99253e0b1e7ee9b26e4c36b6d7ffdde8a82f703c7bf8b"},"images":[{"name":"atlas-23","uri":"../../textures/atlas/tile-23.png"},{"name":"atlas-22","uri":"../../textures/atlas/tile-22.png"},{"name":"atlas-24","uri":"../../textures/atlas/tile-24.png"}],"textures":[{"source":0,"sampler":0},{"source":1,"sampler":0},{"source":2,"sampler":0}],"samplers":[{"magFilter":9729,"minFilter":9729,"wrapS":10497,"wrapT":10497}],"buffers":[{"uri":"b7e1f3c480d365573cb99253e0b1e7ee9b26e4c36b6d7ffdde8a82f703c7bf8b.bin","byteLength":329280}]}
