{"asset":{"version":"2.0","generator":"Veldren adapted asset recovery"},"scene":0,"scenes":[{"nodes":[0]}],"nodes":[{"name":"b89a083efd3fe172f8a31f7f4d4bd4d81c5b5fe9fdd4da544a6bc1878ab9dce8","mesh":0}],"meshes":[{"name":"b89a083efd3fe172f8a31f7f4d4bd4d81c5b5fe9fdd4da544a6bc1878ab9dce8","primitives":[{"attributes":{"POSITION":0,"NORMAL":1,"TEXCOORD_0":2,"COLOR_0":3,"_VELDREN_NORMAL":4,"_VELDREN_COLOR":5,"_VELDREN_FALLBACK":6,"_VELDREN_MATERIAL":7},"indices":8,"material":0,"extras":{"mixedAtlasFallback":false}},{"attributes":{"POSITION":0,"NORMAL":1,"TEXCOORD_0":2,"COLOR_0":3,"_VELDREN_NORMAL":4,"_VELDREN_COLOR":5,"_VELDREN_FALLBACK":6,"_VELDREN_MATERIAL":7},"indices":9,"material":1,"extras":{"mixedAtlasFallback":false}},{"attributes":{"POSITION":0,"NORMAL":1,"TEXCOORD_0":2,"COLOR_0":3,"_VELDREN_NORMAL":4,"_VELDREN_COLOR":5,"_VELDREN_FALLBACK":6,"_VELDREN_MATERIAL":7},"indices":10,"material":2,"extras":{"mixedAtlasFallback":false}},{"attributes":{"POSITION":0,"NORMAL":1,"TEXCOORD_0":2,"COLOR_0":3,"_VELDREN_NORMAL":4,"_VELDREN_COLOR":5,"_VELDREN_FALLBACK":6,"_VELDREN_MATERIAL":7},"indices":11,"material":3,"extras":{"mixedAtlasFallback":false}},{"attributes":{"POSITION":0,"NORMAL":1,"TEXCOORD_0":2,"COLOR_0":3,"_VELDREN_NORMAL":4,"_VELDREN_COLOR":5,"_VELDREN_FALLBACK":6,"_VELDREN_MATERIAL":7},"indices":12,"material":4,"extras":{"mixedAtlasFallback":false}},{"attributes":{"POSITION":0,"NORMAL":1,"TEXCOORD_0":2,"COLOR_0":3,"_VELDREN_NORMAL":4,"_VELDREN_COLOR":5,"_VELDREN_FALLBACK":6,"_VELDREN_MATERIAL":7},"indices":13,"material":5,"extras":{"mixedAtlasFallback":false}},{"attributes":{"POSITION":0,"NORMAL":1,"TEXCOORD_0":2,"COLOR_0":3,"_VELDREN_NORMAL":4,"_VELDREN_COLOR":5,"_VELDREN_FALLBACK":6,"_VELDREN_MATERIAL":7},"indices":14,"material":6,"extras":{"mixedAtlasFallback":false}}]}],"bufferViews":[{"buffer":0,"byteOffset":0,"byteLength":72432,"target":34962},{"buffer":0,"byteOffset":72432,"byteLength":72432,"target":34962},{"buffer":0,"byteOffset":144864,"byteLength":48288,"target":34962},{"buffer":0,"byteOffset":193152,"byteLength":72432,"target":34962},{"buffer":0,"byteOffset":265584,"byteLength":72432,"target":34962},{"buffer":0,"byteOffset":338016,"byteLength":72432,"target":34962},{"buffer":0,"byteOffset":410448,"byteLength":72432,"target":34962},{"buffer":0,"byteOffset":482880,"byteLength":24144,"target":34962},{"buffer":0,"byteOffset":507024,"byteLength":3744,"target":34963},{"buffer":0,"byteOffset":510768,"byteLength":384,"target":34963},{"buffer":0,"byteOffset":511152,"byteLength":816,"target":34963},{"buffer":0,"byteOffset":511968,"byteLength":16704,"target":34963},{"buffer":0,"byteOffset":528672,"byteLength":192,"target":34963},{"buffer":0,"byteOffset":528864,"byteLength":576,"target":34963},{"buffer":0,"byteOffset":529440,"byteLength":1728,"target":34963}],"accessors":[{"bufferView":0,"componentType":5126,"count":6036,"type":"VEC3","min":[1040.489990234375,8.61241626739502,149.50999450683594],"max":[1054.510009765625,13.07413101196289,163.14146423339844]},{"bufferView":1,"componentType":5126,"count":6036,"type":"VEC3"},{"bufferView":2,"componentType":5126,"count":6036,"type":"VEC2"},{"bufferView":3,"componentType":5126,"count":6036,"type":"VEC3"},{"bufferView":4,"componentType":5126,"count":6036,"type":"VEC3"},{"bufferView":5,"componentType":5126,"count":6036,"type":"VEC3"},{"bufferView":6,"componentType":5126,"count":6036,"type":"VEC3"},{"bufferView":7,"componentType":5126,"count":6036,"type":"SCALAR"},{"bufferView":8,"componentType":5125,"count":936,"type":"SCALAR"},{"bufferView":9,"componentType":5125,"count":96,"type":"SCALAR"},{"bufferView":10,"componentType":5125,"count":204,"type":"SCALAR"},{"bufferView":11,"componentType":5125,"count":4176,"type":"SCALAR"},{"bufferView":12,"componentType":5125,"count":48,"type":"SCALAR"},{"bufferView":13,"componentType":5125,"count":144,"type":"SCALAR"},{"bufferView":14,"componentType":5125,"count":432,"type":"SCALAR"}],"materials":[{"name":"legacy-material-3","pbrMetallicRoughness":{"baseColorFactor":[1,1,1,1],"metallicFactor":0,"roughnessFactor":1},"doubleSided":true,"extras":{"legacyMaterial":3,"legacyShader":"dist/renderer-gl.js","limitation":"Browser procedural material not implemented by this glTF export; source/base attributes retained."}},{"name":"legacy-material-13","pbrMetallicRoughness":{"baseColorFactor":[1,1,1,1],"metallicFactor":0,"roughnessFactor":1},"doubleSided":true,"extras":{"legacyMaterial":13,"legacyShader":"dist/renderer-gl.js","limitation":"Browser procedural material not implemented by this glTF export; source/base attributes retained."}},{"name":"legacy-material-5","pbrMetallicRoughness":{"baseColorFactor":[1,1,1,1],"metallicFactor":0,"roughnessFactor":1},"doubleSided":true,"extras":{"legacyMaterial":5,"legacyShader":"dist/renderer-gl.js","limitation":"Browser procedural material not implemented by this glTF export; source/base attributes retained."}},{"name":"legacy-material-17","pbrMetallicRoughness":{"baseColorFactor":[1,1,1,1],"metallicFactor":0,"roughnessFactor":1},"doubleSided":true,"extras":{"legacyMaterial":17,"legacyShader":"dist/renderer-gl.js","limitation":"Browser procedural material not implemented by this glTF export; source/base attributes retained."}},{"name":"legacy-material-6","pbrMetallicRoughness":{"baseColorFactor":[1,1,1,1],"metallicFactor":0,"roughnessFactor":1},"doubleSided":true,"extras":{"legacyMaterial":6,"legacyShader":"dist/renderer-gl.js","limitation":"Browser procedural material not implemented by this glTF export; source/base attributes retained."}},{"name":"legacy-material-18","pbrMetallicRoughness":{"baseColorFactor":[1,1,1,1],"metallicFactor":0,"roughnessFactor":1},"doubleSided":true,"extras":{"legacyMaterial":18,"legacyShader":"dist/renderer-gl.js","limitation":"Browser procedural material not implemented by this glTF export; source/base attributes retained."}},{"name":"legacy-material-20","pbrMetallicRoughness":{"baseColorFactor":[1,1,1,1],"metallicFactor":0,"roughnessFactor":1,"baseColorTexture":{"index":0}},"doubleSided":true,"extras":{"legacyMaterial":20,"legacyShader":"dist/renderer-gl.js"}}],"extras":{"veldrenAssetId":"veldren:world-part:b89a083efd3fe172f8a31f7f4d4bd4d81c5b5fe9fdd4da544a6bc1878ab9dce8"},"images":[{"name":"atlas-00","uri":"../../textures/atlas/tile-00.png"}],"textures":[{"source":0,"sampler":0}],"samplers":[{"magFilter":9729,"minFilter":9729,"wrapS":10497,"wrapT":10497}],"buffers":[{"uri":"b89a083efd3fe172f8a31f7f4d4bd4d81c5b5fe9fdd4da544a6bc1878ab9dce8.bin","byteLength":531168}]}
