{"asset":{"version":"2.0","generator":"Veldren adapted asset recovery"},"scene":0,"scenes":[{"nodes":[0]}],"nodes":[{"name":"b932791e2e642917e7b6c7fe9f891673e9680c5f2345e784416e4144e1ee92cd","mesh":0}],"meshes":[{"name":"b932791e2e642917e7b6c7fe9f891673e9680c5f2345e784416e4144e1ee92cd","primitives":[{"attributes":{"POSITION":0,"NORMAL":1,"TEXCOORD_0":2,"COLOR_0":3,"_VELDREN_NORMAL":4,"_VELDREN_COLOR":5,"_VELDREN_FALLBACK":6,"_VELDREN_MATERIAL":7},"indices":8,"material":0,"extras":{"mixedAtlasFallback":false}}]}],"bufferViews":[{"buffer":0,"byteOffset":0,"byteLength":432,"target":34962},{"buffer":0,"byteOffset":432,"byteLength":432,"target":34962},{"buffer":0,"byteOffset":864,"byteLength":288,"target":34962},{"buffer":0,"byteOffset":1152,"byteLength":432,"target":34962},{"buffer":0,"byteOffset":1584,"byteLength":432,"target":34962},{"buffer":0,"byteOffset":2016,"byteLength":432,"target":34962},{"buffer":0,"byteOffset":2448,"byteLength":432,"target":34962},{"buffer":0,"byteOffset":2880,"byteLength":144,"target":34962},{"buffer":0,"byteOffset":3024,"byteLength":144,"target":34963}],"accessors":[{"bufferView":0,"componentType":5126,"count":36,"type":"VEC3","min":[8.100000381469727,0.0,12.225000381469727],"max":[8.899999618530273,0.05000000074505806,12.774999618530273]},{"bufferView":1,"componentType":5126,"count":36,"type":"VEC3"},{"bufferView":2,"componentType":5126,"count":36,"type":"VEC2"},{"bufferView":3,"componentType":5126,"count":36,"type":"VEC3"},{"bufferView":4,"componentType":5126,"count":36,"type":"VEC3"},{"bufferView":5,"componentType":5126,"count":36,"type":"VEC3"},{"bufferView":6,"componentType":5126,"count":36,"type":"VEC3"},{"bufferView":7,"componentType":5126,"count":36,"type":"SCALAR"},{"bufferView":8,"componentType":5125,"count":36,"type":"SCALAR"}],"materials":[{"name":"legacy-material-20","pbrMetallicRoughness":{"baseColorFactor":[1,1,1,1],"metallicFactor":0,"roughnessFactor":1,"baseColorTexture":{"index":0}},"doubleSided":true,"extras":{"legacyMaterial":20,"legacyShader":"dist/renderer-gl.js"}}],"extras":{"veldrenAssetId":"veldren:world-part:b932791e2e642917e7b6c7fe9f891673e9680c5f2345e784416e4144e1ee92cd"},"images":[{"name":"atlas-00","uri":"../../textures/atlas/tile-00.png"}],"textures":[{"source":0,"sampler":0}],"samplers":[{"magFilter":9729,"minFilter":9729,"wrapS":10497,"wrapT":10497}],"buffers":[{"uri":"b932791e2e642917e7b6c7fe9f891673e9680c5f2345e784416e4144e1ee92cd.bin","byteLength":3168}]}
