{"asset":{"version":"2.0","generator":"Veldren adapted asset recovery"},"scene":0,"scenes":[{"nodes":[0]}],"nodes":[{"name":"ba052974397863280631f73acca27157dbf6729e5080867f2f2ba99faffd8c7f","mesh":0}],"meshes":[{"name":"ba052974397863280631f73acca27157dbf6729e5080867f2f2ba99faffd8c7f","primitives":[{"attributes":{"POSITION":0,"NORMAL":1,"TEXCOORD_0":2,"COLOR_0":3,"_VELDREN_NORMAL":4,"_VELDREN_COLOR":5,"_VELDREN_FALLBACK":6,"_VELDREN_MATERIAL":7},"indices":8,"material":0,"extras":{"mixedAtlasFallback":false}},{"attributes":{"POSITION":0,"NORMAL":1,"TEXCOORD_0":2,"COLOR_0":3,"_VELDREN_NORMAL":4,"_VELDREN_COLOR":5,"_VELDREN_FALLBACK":6,"_VELDREN_MATERIAL":7},"indices":9,"material":1,"extras":{"mixedAtlasFallback":false}}]}],"bufferViews":[{"buffer":0,"byteOffset":0,"byteLength":5256,"target":34962},{"buffer":0,"byteOffset":5256,"byteLength":5256,"target":34962},{"buffer":0,"byteOffset":10512,"byteLength":3504,"target":34962},{"buffer":0,"byteOffset":14016,"byteLength":5256,"target":34962},{"buffer":0,"byteOffset":19272,"byteLength":5256,"target":34962},{"buffer":0,"byteOffset":24528,"byteLength":5256,"target":34962},{"buffer":0,"byteOffset":29784,"byteLength":5256,"target":34962},{"buffer":0,"byteOffset":35040,"byteLength":1752,"target":34962},{"buffer":0,"byteOffset":36792,"byteLength":24,"target":34963},{"buffer":0,"byteOffset":36816,"byteLength":1728,"target":34963}],"accessors":[{"bufferView":0,"componentType":5126,"count":438,"type":"VEC3","min":[812.3499755859375,2.1550066471099854,92.44999694824219],"max":[814.6500244140625,4.3693528175354,94.55000305175781]},{"bufferView":1,"componentType":5126,"count":438,"type":"VEC3"},{"bufferView":2,"componentType":5126,"count":438,"type":"VEC2"},{"bufferView":3,"componentType":5126,"count":438,"type":"VEC3"},{"bufferView":4,"componentType":5126,"count":438,"type":"VEC3"},{"bufferView":5,"componentType":5126,"count":438,"type":"VEC3"},{"bufferView":6,"componentType":5126,"count":438,"type":"VEC3"},{"bufferView":7,"componentType":5126,"count":438,"type":"SCALAR"},{"bufferView":8,"componentType":5125,"count":6,"type":"SCALAR"},{"bufferView":9,"componentType":5125,"count":432,"type":"SCALAR"}],"materials":[{"name":"legacy-material-7","pbrMetallicRoughness":{"baseColorFactor":[1,1,1,1],"metallicFactor":0,"roughnessFactor":1},"doubleSided":true,"extras":{"legacyMaterial":7,"legacyShader":"dist/renderer-gl.js","limitation":"Browser procedural material not implemented by this glTF export; source/base attributes retained."}},{"name":"legacy-material-20","pbrMetallicRoughness":{"baseColorFactor":[1,1,1,1],"metallicFactor":0,"roughnessFactor":1,"baseColorTexture":{"index":0}},"doubleSided":true,"extras":{"legacyMaterial":20,"legacyShader":"dist/renderer-gl.js"}}],"extras":{"veldrenAssetId":"veldren:world-part:ba052974397863280631f73acca27157dbf6729e5080867f2f2ba99faffd8c7f"},"images":[{"name":"atlas-00","uri":"../../textures/atlas/tile-00.png"}],"textures":[{"source":0,"sampler":0}],"samplers":[{"magFilter":9729,"minFilter":9729,"wrapS":10497,"wrapT":10497}],"buffers":[{"uri":"ba052974397863280631f73acca27157dbf6729e5080867f2f2ba99faffd8c7f.bin","byteLength":38544}]}
