{"asset":{"version":"2.0","generator":"Veldren adapted asset recovery"},"scene":0,"scenes":[{"nodes":[0]}],"nodes":[{"name":"ba7ce6883896f5c7a646854bc127c117fecb5af4a9b93b5ca747b8a06856c81f","mesh":0}],"meshes":[{"name":"ba7ce6883896f5c7a646854bc127c117fecb5af4a9b93b5ca747b8a06856c81f","primitives":[{"attributes":{"POSITION":0,"NORMAL":1,"TEXCOORD_0":2,"COLOR_0":3,"_VELDREN_NORMAL":4,"_VELDREN_COLOR":5,"_VELDREN_FALLBACK":6,"_VELDREN_MATERIAL":7},"indices":8,"material":0,"extras":{"mixedAtlasFallback":false}}]}],"bufferViews":[{"buffer":0,"byteOffset":0,"byteLength":3456,"target":34962},{"buffer":0,"byteOffset":3456,"byteLength":3456,"target":34962},{"buffer":0,"byteOffset":6912,"byteLength":2304,"target":34962},{"buffer":0,"byteOffset":9216,"byteLength":3456,"target":34962},{"buffer":0,"byteOffset":12672,"byteLength":3456,"target":34962},{"buffer":0,"byteOffset":16128,"byteLength":3456,"target":34962},{"buffer":0,"byteOffset":19584,"byteLength":3456,"target":34962},{"buffer":0,"byteOffset":23040,"byteLength":1152,"target":34962},{"buffer":0,"byteOffset":24192,"byteLength":1152,"target":34963}],"accessors":[{"bufferView":0,"componentType":5126,"count":288,"type":"VEC3","min":[17.709999084472656,0.0,35.36143493652344],"max":[19.290000915527344,1.100000023841858,35.70000076293945]},{"bufferView":1,"componentType":5126,"count":288,"type":"VEC3"},{"bufferView":2,"componentType":5126,"count":288,"type":"VEC2"},{"bufferView":3,"componentType":5126,"count":288,"type":"VEC3"},{"bufferView":4,"componentType":5126,"count":288,"type":"VEC3"},{"bufferView":5,"componentType":5126,"count":288,"type":"VEC3"},{"bufferView":6,"componentType":5126,"count":288,"type":"VEC3"},{"bufferView":7,"componentType":5126,"count":288,"type":"SCALAR"},{"bufferView":8,"componentType":5125,"count":288,"type":"SCALAR"}],"materials":[{"name":"legacy-material-20","pbrMetallicRoughness":{"baseColorFactor":[1,1,1,1],"metallicFactor":0,"roughnessFactor":1,"baseColorTexture":{"index":0}},"doubleSided":true,"extras":{"legacyMaterial":20,"legacyShader":"dist/renderer-gl.js"}}],"extras":{"veldrenAssetId":"veldren:world-part:ba7ce6883896f5c7a646854bc127c117fecb5af4a9b93b5ca747b8a06856c81f"},"images":[{"name":"atlas-00","uri":"../../textures/atlas/tile-00.png"}],"textures":[{"source":0,"sampler":0}],"samplers":[{"magFilter":9729,"minFilter":9729,"wrapS":10497,"wrapT":10497}],"buffers":[{"uri":"ba7ce6883896f5c7a646854bc127c117fecb5af4a9b93b5ca747b8a06856c81f.bin","byteLength":25344}]}
