{"asset":{"version":"2.0","generator":"Veldren adapted asset recovery"},"scene":0,"scenes":[{"nodes":[0]}],"nodes":[{"name":"be40a1fc05b5ec87c5f2ec90169f0e5c3e988d959ed6fc891d07c380221ab1ef","mesh":0}],"meshes":[{"name":"be40a1fc05b5ec87c5f2ec90169f0e5c3e988d959ed6fc891d07c380221ab1ef","primitives":[{"attributes":{"POSITION":0,"NORMAL":1,"TEXCOORD_0":2,"COLOR_0":3,"_VELDREN_NORMAL":4,"_VELDREN_COLOR":5,"_VELDREN_FALLBACK":6,"_VELDREN_MATERIAL":7},"indices":8,"material":0,"extras":{"mixedAtlasFallback":false}}]}],"bufferViews":[{"buffer":0,"byteOffset":0,"byteLength":5040,"target":34962},{"buffer":0,"byteOffset":5040,"byteLength":5040,"target":34962},{"buffer":0,"byteOffset":10080,"byteLength":3360,"target":34962},{"buffer":0,"byteOffset":13440,"byteLength":5040,"target":34962},{"buffer":0,"byteOffset":18480,"byteLength":5040,"target":34962},{"buffer":0,"byteOffset":23520,"byteLength":5040,"target":34962},{"buffer":0,"byteOffset":28560,"byteLength":5040,"target":34962},{"buffer":0,"byteOffset":33600,"byteLength":1680,"target":34962},{"buffer":0,"byteOffset":35280,"byteLength":1680,"target":34963}],"accessors":[{"bufferView":0,"componentType":5126,"count":420,"type":"VEC3","min":[20.043750762939453,0.0,16.043750762939453],"max":[20.956249237060547,3.0,16.956249237060547]},{"bufferView":1,"componentType":5126,"count":420,"type":"VEC3"},{"bufferView":2,"componentType":5126,"count":420,"type":"VEC2"},{"bufferView":3,"componentType":5126,"count":420,"type":"VEC3"},{"bufferView":4,"componentType":5126,"count":420,"type":"VEC3"},{"bufferView":5,"componentType":5126,"count":420,"type":"VEC3"},{"bufferView":6,"componentType":5126,"count":420,"type":"VEC3"},{"bufferView":7,"componentType":5126,"count":420,"type":"SCALAR"},{"bufferView":8,"componentType":5125,"count":420,"type":"SCALAR"}],"materials":[{"name":"legacy-material-18","pbrMetallicRoughness":{"baseColorFactor":[1,1,1,1],"metallicFactor":0,"roughnessFactor":1},"doubleSided":true,"extras":{"legacyMaterial":18,"legacyShader":"dist/renderer-gl.js","limitation":"Browser procedural material not implemented by this glTF export; source/base attributes retained."}}],"extras":{"veldrenAssetId":"veldren:world-part:be40a1fc05b5ec87c5f2ec90169f0e5c3e988d959ed6fc891d07c380221ab1ef"},"buffers":[{"uri":"be40a1fc05b5ec87c5f2ec90169f0e5c3e988d959ed6fc891d07c380221ab1ef.bin","byteLength":36960}]}
