{"asset":{"version":"2.0","generator":"Veldren adapted asset recovery"},"scene":0,"scenes":[{"nodes":[0]}],"nodes":[{"name":"c1b76821c4773e51e4bdc533564582fd4b454233da54daea64ba76a8f975a4e5","mesh":0}],"meshes":[{"name":"c1b76821c4773e51e4bdc533564582fd4b454233da54daea64ba76a8f975a4e5","primitives":[{"attributes":{"POSITION":0,"NORMAL":1,"TEXCOORD_0":2,"COLOR_0":3,"_VELDREN_NORMAL":4,"_VELDREN_COLOR":5,"_VELDREN_FALLBACK":6,"_VELDREN_MATERIAL":7},"indices":8,"material":0,"extras":{"mixedAtlasFallback":false}}]}],"bufferViews":[{"buffer":0,"byteOffset":0,"byteLength":6048,"target":34962},{"buffer":0,"byteOffset":6048,"byteLength":6048,"target":34962},{"buffer":0,"byteOffset":12096,"byteLength":4032,"target":34962},{"buffer":0,"byteOffset":16128,"byteLength":6048,"target":34962},{"buffer":0,"byteOffset":22176,"byteLength":6048,"target":34962},{"buffer":0,"byteOffset":28224,"byteLength":6048,"target":34962},{"buffer":0,"byteOffset":34272,"byteLength":6048,"target":34962},{"buffer":0,"byteOffset":40320,"byteLength":2016,"target":34962},{"buffer":0,"byteOffset":42336,"byteLength":2016,"target":34963}],"accessors":[{"bufferView":0,"componentType":5126,"count":504,"type":"VEC3","min":[816.64501953125,3.1871798038482666,100.27279663085938],"max":[818.35498046875,5.626280784606934,102.627197265625]},{"bufferView":1,"componentType":5126,"count":504,"type":"VEC3"},{"bufferView":2,"componentType":5126,"count":504,"type":"VEC2"},{"bufferView":3,"componentType":5126,"count":504,"type":"VEC3"},{"bufferView":4,"componentType":5126,"count":504,"type":"VEC3"},{"bufferView":5,"componentType":5126,"count":504,"type":"VEC3"},{"bufferView":6,"componentType":5126,"count":504,"type":"VEC3"},{"bufferView":7,"componentType":5126,"count":504,"type":"SCALAR"},{"bufferView":8,"componentType":5125,"count":504,"type":"SCALAR"}],"materials":[{"name":"legacy-material-5","pbrMetallicRoughness":{"baseColorFactor":[1,1,1,1],"metallicFactor":0,"roughnessFactor":1},"doubleSided":true,"extras":{"legacyMaterial":5,"legacyShader":"dist/renderer-gl.js","limitation":"Browser procedural material not implemented by this glTF export; source/base attributes retained."}}],"extras":{"veldrenAssetId":"veldren:world-part:c1b76821c4773e51e4bdc533564582fd4b454233da54daea64ba76a8f975a4e5"},"buffers":[{"uri":"c1b76821c4773e51e4bdc533564582fd4b454233da54daea64ba76a8f975a4e5.bin","byteLength":44352}]}
