{"asset":{"version":"2.0","generator":"Veldren adapted asset recovery"},"scene":0,"scenes":[{"nodes":[0]}],"nodes":[{"name":"c2aed5034ba5f51bdb576228378f3ed398ae44286e052003113e28233abde943","mesh":0}],"meshes":[{"name":"c2aed5034ba5f51bdb576228378f3ed398ae44286e052003113e28233abde943","primitives":[{"attributes":{"POSITION":0,"NORMAL":1,"TEXCOORD_0":2,"COLOR_0":3,"_VELDREN_NORMAL":4,"_VELDREN_COLOR":5,"_VELDREN_FALLBACK":6,"_VELDREN_MATERIAL":7},"indices":8,"material":0,"extras":{"mixedAtlasFallback":false}}]}],"bufferViews":[{"buffer":0,"byteOffset":0,"byteLength":1152,"target":34962},{"buffer":0,"byteOffset":1152,"byteLength":1152,"target":34962},{"buffer":0,"byteOffset":2304,"byteLength":768,"target":34962},{"buffer":0,"byteOffset":3072,"byteLength":1152,"target":34962},{"buffer":0,"byteOffset":4224,"byteLength":1152,"target":34962},{"buffer":0,"byteOffset":5376,"byteLength":1152,"target":34962},{"buffer":0,"byteOffset":6528,"byteLength":1152,"target":34962},{"buffer":0,"byteOffset":7680,"byteLength":384,"target":34962},{"buffer":0,"byteOffset":8064,"byteLength":384,"target":34963}],"accessors":[{"bufferView":0,"componentType":5126,"count":96,"type":"VEC3","min":[226.1750030517578,7.2836079597473145,135.6999969482422],"max":[226.8249969482422,7.648608207702637,137.3000030517578]},{"bufferView":1,"componentType":5126,"count":96,"type":"VEC3"},{"bufferView":2,"componentType":5126,"count":96,"type":"VEC2"},{"bufferView":3,"componentType":5126,"count":96,"type":"VEC3"},{"bufferView":4,"componentType":5126,"count":96,"type":"VEC3"},{"bufferView":5,"componentType":5126,"count":96,"type":"VEC3"},{"bufferView":6,"componentType":5126,"count":96,"type":"VEC3"},{"bufferView":7,"componentType":5126,"count":96,"type":"SCALAR"},{"bufferView":8,"componentType":5125,"count":96,"type":"SCALAR"}],"materials":[{"name":"legacy-material-20","pbrMetallicRoughness":{"baseColorFactor":[1,1,1,1],"metallicFactor":0,"roughnessFactor":1,"baseColorTexture":{"index":0}},"doubleSided":true,"extras":{"legacyMaterial":20,"legacyShader":"dist/renderer-gl.js"}}],"extras":{"veldrenAssetId":"veldren:world-part:c2aed5034ba5f51bdb576228378f3ed398ae44286e052003113e28233abde943"},"images":[{"name":"atlas-00","uri":"../../textures/atlas/tile-00.png"}],"textures":[{"source":0,"sampler":0}],"samplers":[{"magFilter":9729,"minFilter":9729,"wrapS":10497,"wrapT":10497}],"buffers":[{"uri":"c2aed5034ba5f51bdb576228378f3ed398ae44286e052003113e28233abde943.bin","byteLength":8448}]}
