{"asset":{"version":"2.0","generator":"Veldren adapted asset recovery"},"scene":0,"scenes":[{"nodes":[0]}],"nodes":[{"name":"c2f99fb65c8e764f8a2546544009dc024b5346effe67d789fc80594bcf5ea2c0","mesh":0}],"meshes":[{"name":"c2f99fb65c8e764f8a2546544009dc024b5346effe67d789fc80594bcf5ea2c0","primitives":[{"attributes":{"POSITION":0,"NORMAL":1,"TEXCOORD_0":2,"COLOR_0":3,"_VELDREN_NORMAL":4,"_VELDREN_COLOR":5,"_VELDREN_FALLBACK":6,"_VELDREN_MATERIAL":7},"indices":8,"material":0,"extras":{"mixedAtlasFallback":false}}]}],"bufferViews":[{"buffer":0,"byteOffset":0,"byteLength":2484,"target":34962},{"buffer":0,"byteOffset":2484,"byteLength":2484,"target":34962},{"buffer":0,"byteOffset":4968,"byteLength":1656,"target":34962},{"buffer":0,"byteOffset":6624,"byteLength":2484,"target":34962},{"buffer":0,"byteOffset":9108,"byteLength":2484,"target":34962},{"buffer":0,"byteOffset":11592,"byteLength":2484,"target":34962},{"buffer":0,"byteOffset":14076,"byteLength":2484,"target":34962},{"buffer":0,"byteOffset":16560,"byteLength":828,"target":34962},{"buffer":0,"byteOffset":17388,"byteLength":828,"target":34963}],"accessors":[{"bufferView":0,"componentType":5126,"count":207,"type":"VEC3","min":[-0.4144456684589386,0.014999999664723873,-0.44846683740615845],"max":[0.5123918652534485,0.6399999856948853,0.44846683740615845]},{"bufferView":1,"componentType":5126,"count":207,"type":"VEC3"},{"bufferView":2,"componentType":5126,"count":207,"type":"VEC2"},{"bufferView":3,"componentType":5126,"count":207,"type":"VEC3"},{"bufferView":4,"componentType":5126,"count":207,"type":"VEC3"},{"bufferView":5,"componentType":5126,"count":207,"type":"VEC3"},{"bufferView":6,"componentType":5126,"count":207,"type":"VEC3"},{"bufferView":7,"componentType":5126,"count":207,"type":"SCALAR"},{"bufferView":8,"componentType":5125,"count":207,"type":"SCALAR"}],"materials":[{"name":"legacy-material-12","pbrMetallicRoughness":{"baseColorFactor":[1,1,1,1],"metallicFactor":0,"roughnessFactor":1},"doubleSided":true,"extras":{"legacyMaterial":12,"legacyShader":"dist/renderer-gl.js","limitation":"Browser procedural material not implemented by this glTF export; source/base attributes retained."}}],"extras":{"veldrenAssetId":"veldren:world-part:c2f99fb65c8e764f8a2546544009dc024b5346effe67d789fc80594bcf5ea2c0"},"buffers":[{"uri":"c2f99fb65c8e764f8a2546544009dc024b5346effe67d789fc80594bcf5ea2c0.bin","byteLength":18216}]}
