{"asset":{"version":"2.0","generator":"Veldren adapted asset recovery"},"scene":0,"scenes":[{"nodes":[0]}],"nodes":[{"name":"c3b148dce88246dcb8fb5797063a6e88d22d9b07849bdf6ce3b985f310360205","mesh":0}],"meshes":[{"name":"c3b148dce88246dcb8fb5797063a6e88d22d9b07849bdf6ce3b985f310360205","primitives":[{"attributes":{"POSITION":0,"NORMAL":1,"TEXCOORD_0":2,"COLOR_0":3,"_VELDREN_NORMAL":4,"_VELDREN_COLOR":5,"_VELDREN_FALLBACK":6,"_VELDREN_MATERIAL":7},"indices":8,"material":0,"extras":{"mixedAtlasFallback":false}}]}],"bufferViews":[{"buffer":0,"byteOffset":0,"byteLength":103392,"target":34962},{"buffer":0,"byteOffset":103392,"byteLength":103392,"target":34962},{"buffer":0,"byteOffset":206784,"byteLength":68928,"target":34962},{"buffer":0,"byteOffset":275712,"byteLength":103392,"target":34962},{"buffer":0,"byteOffset":379104,"byteLength":103392,"target":34962},{"buffer":0,"byteOffset":482496,"byteLength":103392,"target":34962},{"buffer":0,"byteOffset":585888,"byteLength":103392,"target":34962},{"buffer":0,"byteOffset":689280,"byteLength":34464,"target":34962},{"buffer":0,"byteOffset":723744,"byteLength":34464,"target":34963}],"accessors":[{"bufferView":0,"componentType":5126,"count":8616,"type":"VEC3","min":[155.19752502441406,0.6992537379264832,140.0500030517578],"max":[155.840087890625,1.3112467527389526,142.14447021484375]},{"bufferView":1,"componentType":5126,"count":8616,"type":"VEC3"},{"bufferView":2,"componentType":5126,"count":8616,"type":"VEC2"},{"bufferView":3,"componentType":5126,"count":8616,"type":"VEC3"},{"bufferView":4,"componentType":5126,"count":8616,"type":"VEC3"},{"bufferView":5,"componentType":5126,"count":8616,"type":"VEC3"},{"bufferView":6,"componentType":5126,"count":8616,"type":"VEC3"},{"bufferView":7,"componentType":5126,"count":8616,"type":"SCALAR"},{"bufferView":8,"componentType":5125,"count":8616,"type":"SCALAR"}],"materials":[{"name":"legacy-material-20","pbrMetallicRoughness":{"baseColorFactor":[1,1,1,1],"metallicFactor":0,"roughnessFactor":1,"baseColorTexture":{"index":0}},"doubleSided":true,"extras":{"legacyMaterial":20,"legacyShader":"dist/renderer-gl.js"}}],"extras":{"veldrenAssetId":"veldren:world-part:c3b148dce88246dcb8fb5797063a6e88d22d9b07849bdf6ce3b985f310360205"},"images":[{"name":"atlas-00","uri":"../../textures/atlas/tile-00.png"}],"textures":[{"source":0,"sampler":0}],"samplers":[{"magFilter":9729,"minFilter":9729,"wrapS":10497,"wrapT":10497}],"buffers":[{"uri":"c3b148dce88246dcb8fb5797063a6e88d22d9b07849bdf6ce3b985f310360205.bin","byteLength":758208}]}
