{"asset":{"version":"2.0","generator":"Veldren adapted asset recovery"},"scene":0,"scenes":[{"nodes":[0]}],"nodes":[{"name":"c90543d012034decd8e0204aaaf6280caef26ccc35b965c1f9b38517bc11852d","mesh":0}],"meshes":[{"name":"c90543d012034decd8e0204aaaf6280caef26ccc35b965c1f9b38517bc11852d","primitives":[{"attributes":{"POSITION":0,"NORMAL":1,"TEXCOORD_0":2,"COLOR_0":3,"_VELDREN_NORMAL":4,"_VELDREN_COLOR":5,"_VELDREN_FALLBACK":6,"_VELDREN_MATERIAL":7},"indices":8,"material":0,"extras":{"mixedAtlasFallback":false}}]}],"bufferViews":[{"buffer":0,"byteOffset":0,"byteLength":5040,"target":34962},{"buffer":0,"byteOffset":5040,"byteLength":5040,"target":34962},{"buffer":0,"byteOffset":10080,"byteLength":3360,"target":34962},{"buffer":0,"byteOffset":13440,"byteLength":5040,"target":34962},{"buffer":0,"byteOffset":18480,"byteLength":5040,"target":34962},{"buffer":0,"byteOffset":23520,"byteLength":5040,"target":34962},{"buffer":0,"byteOffset":28560,"byteLength":5040,"target":34962},{"buffer":0,"byteOffset":33600,"byteLength":1680,"target":34962},{"buffer":0,"byteOffset":35280,"byteLength":1680,"target":34963}],"accessors":[{"bufferView":0,"componentType":5126,"count":420,"type":"VEC3","min":[3.043750047683716,0.0,4.043749809265137],"max":[3.956249952316284,3.0,4.956250190734863]},{"bufferView":1,"componentType":5126,"count":420,"type":"VEC3"},{"bufferView":2,"componentType":5126,"count":420,"type":"VEC2"},{"bufferView":3,"componentType":5126,"count":420,"type":"VEC3"},{"bufferView":4,"componentType":5126,"count":420,"type":"VEC3"},{"bufferView":5,"componentType":5126,"count":420,"type":"VEC3"},{"bufferView":6,"componentType":5126,"count":420,"type":"VEC3"},{"bufferView":7,"componentType":5126,"count":420,"type":"SCALAR"},{"bufferView":8,"componentType":5125,"count":420,"type":"SCALAR"}],"materials":[{"name":"legacy-material-18","pbrMetallicRoughness":{"baseColorFactor":[1,1,1,1],"metallicFactor":0,"roughnessFactor":1},"doubleSided":true,"extras":{"legacyMaterial":18,"legacyShader":"dist/renderer-gl.js","limitation":"Browser procedural material not implemented by this glTF export; source/base attributes retained."}}],"extras":{"veldrenAssetId":"veldren:world-part:c90543d012034decd8e0204aaaf6280caef26ccc35b965c1f9b38517bc11852d"},"buffers":[{"uri":"c90543d012034decd8e0204aaaf6280caef26ccc35b965c1f9b38517bc11852d.bin","byteLength":36960}]}
