{"asset":{"version":"2.0","generator":"Veldren adapted asset recovery"},"scene":0,"scenes":[{"nodes":[0]}],"nodes":[{"name":"ca4a51d4233f27cfa2ca7e02b5c565fda6dec8c15d58f6473c8e824a225c3847","mesh":0}],"meshes":[{"name":"ca4a51d4233f27cfa2ca7e02b5c565fda6dec8c15d58f6473c8e824a225c3847","primitives":[{"attributes":{"POSITION":0,"NORMAL":1,"TEXCOORD_0":2,"COLOR_0":3,"_VELDREN_NORMAL":4,"_VELDREN_COLOR":5,"_VELDREN_FALLBACK":6,"_VELDREN_MATERIAL":7},"indices":8,"material":0,"extras":{"mixedAtlasFallback":false}},{"attributes":{"POSITION":0,"NORMAL":1,"TEXCOORD_0":2,"COLOR_0":3,"_VELDREN_NORMAL":4,"_VELDREN_COLOR":5,"_VELDREN_FALLBACK":6,"_VELDREN_MATERIAL":7},"indices":9,"material":1,"extras":{"mixedAtlasFallback":false}}]}],"bufferViews":[{"buffer":0,"byteOffset":0,"byteLength":3168,"target":34962},{"buffer":0,"byteOffset":3168,"byteLength":3168,"target":34962},{"buffer":0,"byteOffset":6336,"byteLength":2112,"target":34962},{"buffer":0,"byteOffset":8448,"byteLength":3168,"target":34962},{"buffer":0,"byteOffset":11616,"byteLength":3168,"target":34962},{"buffer":0,"byteOffset":14784,"byteLength":3168,"target":34962},{"buffer":0,"byteOffset":17952,"byteLength":3168,"target":34962},{"buffer":0,"byteOffset":21120,"byteLength":1056,"target":34962},{"buffer":0,"byteOffset":22176,"byteLength":1008,"target":34963},{"buffer":0,"byteOffset":23184,"byteLength":48,"target":34963}],"accessors":[{"bufferView":0,"componentType":5126,"count":264,"type":"VEC3","min":[757.0999755859375,3.187162160873413,183.0],"max":[767.9000244140625,9.987162590026855,186.0500030517578]},{"bufferView":1,"componentType":5126,"count":264,"type":"VEC3"},{"bufferView":2,"componentType":5126,"count":264,"type":"VEC2"},{"bufferView":3,"componentType":5126,"count":264,"type":"VEC3"},{"bufferView":4,"componentType":5126,"count":264,"type":"VEC3"},{"bufferView":5,"componentType":5126,"count":264,"type":"VEC3"},{"bufferView":6,"componentType":5126,"count":264,"type":"VEC3"},{"bufferView":7,"componentType":5126,"count":264,"type":"SCALAR"},{"bufferView":8,"componentType":5125,"count":252,"type":"SCALAR"},{"bufferView":9,"componentType":5125,"count":12,"type":"SCALAR"}],"materials":[{"name":"legacy-material-18","pbrMetallicRoughness":{"baseColorFactor":[1,1,1,1],"metallicFactor":0,"roughnessFactor":1},"doubleSided":true,"extras":{"legacyMaterial":18,"legacyShader":"dist/renderer-gl.js","limitation":"Browser procedural material not implemented by this glTF export; source/base attributes retained."}},{"name":"legacy-material-13","pbrMetallicRoughness":{"baseColorFactor":[1,1,1,1],"metallicFactor":0,"roughnessFactor":1},"doubleSided":true,"extras":{"legacyMaterial":13,"legacyShader":"dist/renderer-gl.js","limitation":"Browser procedural material not implemented by this glTF export; source/base attributes retained."}}],"extras":{"veldrenAssetId":"veldren:world-part:ca4a51d4233f27cfa2ca7e02b5c565fda6dec8c15d58f6473c8e824a225c3847"},"buffers":[{"uri":"ca4a51d4233f27cfa2ca7e02b5c565fda6dec8c15d58f6473c8e824a225c3847.bin","byteLength":23232}]}
