{"asset":{"version":"2.0","generator":"Veldren adapted asset recovery"},"scene":0,"scenes":[{"nodes":[0]}],"nodes":[{"name":"cb838b04c4e2e3816f2b5f88d3a30aa7b815e9d6405649836ac2ec640dcf8755","mesh":0}],"meshes":[{"name":"cb838b04c4e2e3816f2b5f88d3a30aa7b815e9d6405649836ac2ec640dcf8755","primitives":[{"attributes":{"POSITION":0,"NORMAL":1,"TEXCOORD_0":2,"COLOR_0":3,"_VELDREN_NORMAL":4,"_VELDREN_COLOR":5,"_VELDREN_FALLBACK":6,"_VELDREN_MATERIAL":7},"indices":8,"material":0,"extras":{"mixedAtlasFallback":false}}]}],"bufferViews":[{"buffer":0,"byteOffset":0,"byteLength":1584,"target":34962},{"buffer":0,"byteOffset":1584,"byteLength":1584,"target":34962},{"buffer":0,"byteOffset":3168,"byteLength":1056,"target":34962},{"buffer":0,"byteOffset":4224,"byteLength":1584,"target":34962},{"buffer":0,"byteOffset":5808,"byteLength":1584,"target":34962},{"buffer":0,"byteOffset":7392,"byteLength":1584,"target":34962},{"buffer":0,"byteOffset":8976,"byteLength":1584,"target":34962},{"buffer":0,"byteOffset":10560,"byteLength":528,"target":34962},{"buffer":0,"byteOffset":11088,"byteLength":528,"target":34963}],"accessors":[{"bufferView":0,"componentType":5126,"count":132,"type":"VEC3","min":[23.600000381469727,0.75,42.435001373291016],"max":[25.399999618530273,1.850000023841858,42.564998626708984]},{"bufferView":1,"componentType":5126,"count":132,"type":"VEC3"},{"bufferView":2,"componentType":5126,"count":132,"type":"VEC2"},{"bufferView":3,"componentType":5126,"count":132,"type":"VEC3"},{"bufferView":4,"componentType":5126,"count":132,"type":"VEC3"},{"bufferView":5,"componentType":5126,"count":132,"type":"VEC3"},{"bufferView":6,"componentType":5126,"count":132,"type":"VEC3"},{"bufferView":7,"componentType":5126,"count":132,"type":"SCALAR"},{"bufferView":8,"componentType":5125,"count":132,"type":"SCALAR"}],"materials":[{"name":"legacy-material-5","pbrMetallicRoughness":{"baseColorFactor":[1,1,1,1],"metallicFactor":0,"roughnessFactor":1},"doubleSided":true,"extras":{"legacyMaterial":5,"legacyShader":"dist/renderer-gl.js","limitation":"Browser procedural material not implemented by this glTF export; source/base attributes retained."}}],"extras":{"veldrenAssetId":"veldren:world-part:cb838b04c4e2e3816f2b5f88d3a30aa7b815e9d6405649836ac2ec640dcf8755"},"buffers":[{"uri":"cb838b04c4e2e3816f2b5f88d3a30aa7b815e9d6405649836ac2ec640dcf8755.bin","byteLength":11616}]}
