{"asset":{"version":"2.0","generator":"Veldren adapted asset recovery"},"scene":0,"scenes":[{"nodes":[0]}],"nodes":[{"name":"cb9df46869a74c2b21acdc562e58e1fd0bcaa177f7275e87e50e477c73f4776f","mesh":0}],"meshes":[{"name":"cb9df46869a74c2b21acdc562e58e1fd0bcaa177f7275e87e50e477c73f4776f","primitives":[{"attributes":{"POSITION":0,"NORMAL":1,"TEXCOORD_0":2,"COLOR_0":3,"_VELDREN_NORMAL":4,"_VELDREN_COLOR":5,"_VELDREN_FALLBACK":6,"_VELDREN_MATERIAL":7},"indices":8,"material":0,"extras":{"mixedAtlasFallback":false}},{"attributes":{"POSITION":0,"NORMAL":1,"TEXCOORD_0":2,"COLOR_0":3,"_VELDREN_NORMAL":4,"_VELDREN_COLOR":5,"_VELDREN_FALLBACK":6,"_VELDREN_MATERIAL":7},"indices":9,"material":1,"extras":{"mixedAtlasFallback":false}}]}],"bufferViews":[{"buffer":0,"byteOffset":0,"byteLength":24024,"target":34962},{"buffer":0,"byteOffset":24024,"byteLength":24024,"target":34962},{"buffer":0,"byteOffset":48048,"byteLength":16016,"target":34962},{"buffer":0,"byteOffset":64064,"byteLength":24024,"target":34962},{"buffer":0,"byteOffset":88088,"byteLength":24024,"target":34962},{"buffer":0,"byteOffset":112112,"byteLength":24024,"target":34962},{"buffer":0,"byteOffset":136136,"byteLength":24024,"target":34962},{"buffer":0,"byteOffset":160160,"byteLength":8008,"target":34962},{"buffer":0,"byteOffset":168168,"byteLength":5712,"target":34963},{"buffer":0,"byteOffset":173880,"byteLength":20064,"target":34963}],"accessors":[{"bufferView":0,"componentType":5126,"count":2002,"type":"VEC3","min":[-0.7306193113327026,-0.017383012920618057,-0.21449044346809387],"max":[0.7306193113327026,2.5274698734283447,0.2144896239042282]},{"bufferView":1,"componentType":5126,"count":2002,"type":"VEC3"},{"bufferView":2,"componentType":5126,"count":2002,"type":"VEC2"},{"bufferView":3,"componentType":5126,"count":2002,"type":"VEC3"},{"bufferView":4,"componentType":5126,"count":2002,"type":"VEC3"},{"bufferView":5,"componentType":5126,"count":2002,"type":"VEC3"},{"bufferView":6,"componentType":5126,"count":2002,"type":"VEC3"},{"bufferView":7,"componentType":5126,"count":2002,"type":"SCALAR"},{"bufferView":8,"componentType":5125,"count":1428,"type":"SCALAR"},{"bufferView":9,"componentType":5125,"count":5016,"type":"SCALAR"}],"materials":[{"name":"legacy-material-43","pbrMetallicRoughness":{"baseColorFactor":[1,1,1,1],"metallicFactor":0,"roughnessFactor":1,"baseColorTexture":{"index":0}},"doubleSided":true,"extras":{"legacyMaterial":43,"legacyShader":"dist/renderer-gl.js"}},{"name":"legacy-material-42","pbrMetallicRoughness":{"baseColorFactor":[1,1,1,1],"metallicFactor":0,"roughnessFactor":1,"baseColorTexture":{"index":1}},"doubleSided":true,"extras":{"legacyMaterial":42,"legacyShader":"dist/renderer-gl.js"}}],"extras":{"veldrenAssetId":"veldren:world-part:cb9df46869a74c2b21acdc562e58e1fd0bcaa177f7275e87e50e477c73f4776f"},"images":[{"name":"atlas-23","uri":"../../textures/atlas/tile-23.png"},{"name":"atlas-22","uri":"../../textures/atlas/tile-22.png"}],"textures":[{"source":0,"sampler":0},{"source":1,"sampler":0}],"samplers":[{"magFilter":9729,"minFilter":9729,"wrapS":10497,"wrapT":10497}],"buffers":[{"uri":"cb9df46869a74c2b21acdc562e58e1fd0bcaa177f7275e87e50e477c73f4776f.bin","byteLength":193944}]}
