{"asset":{"version":"2.0","generator":"Veldren adapted asset recovery"},"scene":0,"scenes":[{"nodes":[0]}],"nodes":[{"name":"cbcb4c91e2ed186a7cd229eb22d2e3cb2a69405c2707316b21cc5b9759e7a898","mesh":0}],"meshes":[{"name":"cbcb4c91e2ed186a7cd229eb22d2e3cb2a69405c2707316b21cc5b9759e7a898","primitives":[{"attributes":{"POSITION":0,"NORMAL":1,"TEXCOORD_0":2,"COLOR_0":3,"_VELDREN_NORMAL":4,"_VELDREN_COLOR":5,"_VELDREN_FALLBACK":6,"_VELDREN_MATERIAL":7},"indices":8,"material":0,"extras":{"mixedAtlasFallback":false}}]}],"bufferViews":[{"buffer":0,"byteOffset":0,"byteLength":5328,"target":34962},{"buffer":0,"byteOffset":5328,"byteLength":5328,"target":34962},{"buffer":0,"byteOffset":10656,"byteLength":3552,"target":34962},{"buffer":0,"byteOffset":14208,"byteLength":5328,"target":34962},{"buffer":0,"byteOffset":19536,"byteLength":5328,"target":34962},{"buffer":0,"byteOffset":24864,"byteLength":5328,"target":34962},{"buffer":0,"byteOffset":30192,"byteLength":5328,"target":34962},{"buffer":0,"byteOffset":35520,"byteLength":1776,"target":34962},{"buffer":0,"byteOffset":37296,"byteLength":1776,"target":34963}],"accessors":[{"bufferView":0,"componentType":5126,"count":444,"type":"VEC3","min":[5.605504035949707,0.0,10.612358093261719],"max":[7.400000095367432,2.4000000953674316,12.398622512817383]},{"bufferView":1,"componentType":5126,"count":444,"type":"VEC3"},{"bufferView":2,"componentType":5126,"count":444,"type":"VEC2"},{"bufferView":3,"componentType":5126,"count":444,"type":"VEC3"},{"bufferView":4,"componentType":5126,"count":444,"type":"VEC3"},{"bufferView":5,"componentType":5126,"count":444,"type":"VEC3"},{"bufferView":6,"componentType":5126,"count":444,"type":"VEC3"},{"bufferView":7,"componentType":5126,"count":444,"type":"SCALAR"},{"bufferView":8,"componentType":5125,"count":444,"type":"SCALAR"}],"materials":[{"name":"legacy-material-18","pbrMetallicRoughness":{"baseColorFactor":[1,1,1,1],"metallicFactor":0,"roughnessFactor":1},"doubleSided":true,"extras":{"legacyMaterial":18,"legacyShader":"dist/renderer-gl.js","limitation":"Browser procedural material not implemented by this glTF export; source/base attributes retained."}}],"extras":{"veldrenAssetId":"veldren:world-part:cbcb4c91e2ed186a7cd229eb22d2e3cb2a69405c2707316b21cc5b9759e7a898"},"buffers":[{"uri":"cbcb4c91e2ed186a7cd229eb22d2e3cb2a69405c2707316b21cc5b9759e7a898.bin","byteLength":39072}]}
