{"asset":{"version":"2.0","generator":"Veldren adapted asset recovery"},"scene":0,"scenes":[{"nodes":[0]}],"nodes":[{"name":"cdc8562c54bbedbd18d4cbf21b9269c35a182a7243b3d087df5152ad350788ec","mesh":0}],"meshes":[{"name":"cdc8562c54bbedbd18d4cbf21b9269c35a182a7243b3d087df5152ad350788ec","primitives":[{"attributes":{"POSITION":0,"NORMAL":1,"TEXCOORD_0":2,"COLOR_0":3,"_VELDREN_NORMAL":4,"_VELDREN_COLOR":5,"_VELDREN_FALLBACK":6,"_VELDREN_MATERIAL":7},"indices":8,"material":0,"extras":{"mixedAtlasFallback":false}}]}],"bufferViews":[{"buffer":0,"byteOffset":0,"byteLength":1584,"target":34962},{"buffer":0,"byteOffset":1584,"byteLength":1584,"target":34962},{"buffer":0,"byteOffset":3168,"byteLength":1056,"target":34962},{"buffer":0,"byteOffset":4224,"byteLength":1584,"target":34962},{"buffer":0,"byteOffset":5808,"byteLength":1584,"target":34962},{"buffer":0,"byteOffset":7392,"byteLength":1584,"target":34962},{"buffer":0,"byteOffset":8976,"byteLength":1584,"target":34962},{"buffer":0,"byteOffset":10560,"byteLength":528,"target":34962},{"buffer":0,"byteOffset":11088,"byteLength":528,"target":34963}],"accessors":[{"bufferView":0,"componentType":5126,"count":132,"type":"VEC3","min":[19.434999465942383,0.75,44.599998474121094],"max":[19.565000534057617,1.850000023841858,46.400001525878906]},{"bufferView":1,"componentType":5126,"count":132,"type":"VEC3"},{"bufferView":2,"componentType":5126,"count":132,"type":"VEC2"},{"bufferView":3,"componentType":5126,"count":132,"type":"VEC3"},{"bufferView":4,"componentType":5126,"count":132,"type":"VEC3"},{"bufferView":5,"componentType":5126,"count":132,"type":"VEC3"},{"bufferView":6,"componentType":5126,"count":132,"type":"VEC3"},{"bufferView":7,"componentType":5126,"count":132,"type":"SCALAR"},{"bufferView":8,"componentType":5125,"count":132,"type":"SCALAR"}],"materials":[{"name":"legacy-material-5","pbrMetallicRoughness":{"baseColorFactor":[1,1,1,1],"metallicFactor":0,"roughnessFactor":1},"doubleSided":true,"extras":{"legacyMaterial":5,"legacyShader":"dist/renderer-gl.js","limitation":"Browser procedural material not implemented by this glTF export; source/base attributes retained."}}],"extras":{"veldrenAssetId":"veldren:world-part:cdc8562c54bbedbd18d4cbf21b9269c35a182a7243b3d087df5152ad350788ec"},"buffers":[{"uri":"cdc8562c54bbedbd18d4cbf21b9269c35a182a7243b3d087df5152ad350788ec.bin","byteLength":11616}]}
