{"asset":{"version":"2.0","generator":"Veldren adapted asset recovery"},"scene":0,"scenes":[{"nodes":[0]}],"nodes":[{"name":"cf4033cb853c44a487397970d48170db13d9e081d1dc04f79877a0a818a9063c","mesh":0}],"meshes":[{"name":"cf4033cb853c44a487397970d48170db13d9e081d1dc04f79877a0a818a9063c","primitives":[{"attributes":{"POSITION":0,"NORMAL":1,"TEXCOORD_0":2,"COLOR_0":3,"_VELDREN_NORMAL":4,"_VELDREN_COLOR":5,"_VELDREN_FALLBACK":6,"_VELDREN_MATERIAL":7},"indices":8,"material":0,"extras":{"mixedAtlasFallback":false}},{"attributes":{"POSITION":0,"NORMAL":1,"TEXCOORD_0":2,"COLOR_0":3,"_VELDREN_NORMAL":4,"_VELDREN_COLOR":5,"_VELDREN_FALLBACK":6,"_VELDREN_MATERIAL":7},"indices":9,"material":1,"extras":{"mixedAtlasFallback":false}}]}],"bufferViews":[{"buffer":0,"byteOffset":0,"byteLength":15660,"target":34962},{"buffer":0,"byteOffset":15660,"byteLength":15660,"target":34962},{"buffer":0,"byteOffset":31320,"byteLength":10440,"target":34962},{"buffer":0,"byteOffset":41760,"byteLength":15660,"target":34962},{"buffer":0,"byteOffset":57420,"byteLength":15660,"target":34962},{"buffer":0,"byteOffset":73080,"byteLength":15660,"target":34962},{"buffer":0,"byteOffset":88740,"byteLength":15660,"target":34962},{"buffer":0,"byteOffset":104400,"byteLength":5220,"target":34962},{"buffer":0,"byteOffset":109620,"byteLength":4704,"target":34963},{"buffer":0,"byteOffset":114324,"byteLength":5184,"target":34963}],"accessors":[{"bufferView":0,"componentType":5126,"count":1305,"type":"VEC3","min":[-0.34901556372642517,0.003436744213104248,-0.349015474319458],"max":[0.3490154445171356,0.9013950824737549,0.3490155041217804]},{"bufferView":1,"componentType":5126,"count":1305,"type":"VEC3"},{"bufferView":2,"componentType":5126,"count":1305,"type":"VEC2"},{"bufferView":3,"componentType":5126,"count":1305,"type":"VEC3"},{"bufferView":4,"componentType":5126,"count":1305,"type":"VEC3"},{"bufferView":5,"componentType":5126,"count":1305,"type":"VEC3"},{"bufferView":6,"componentType":5126,"count":1305,"type":"VEC3"},{"bufferView":7,"componentType":5126,"count":1305,"type":"SCALAR"},{"bufferView":8,"componentType":5125,"count":1176,"type":"SCALAR"},{"bufferView":9,"componentType":5125,"count":1296,"type":"SCALAR"}],"materials":[{"name":"legacy-material-43","pbrMetallicRoughness":{"baseColorFactor":[1,1,1,1],"metallicFactor":0,"roughnessFactor":1,"baseColorTexture":{"index":0}},"doubleSided":true,"extras":{"legacyMaterial":43,"legacyShader":"dist/renderer-gl.js"}},{"name":"legacy-material-42","pbrMetallicRoughness":{"baseColorFactor":[1,1,1,1],"metallicFactor":0,"roughnessFactor":1,"baseColorTexture":{"index":1}},"doubleSided":true,"extras":{"legacyMaterial":42,"legacyShader":"dist/renderer-gl.js"}}],"extras":{"veldrenAssetId":"veldren:world-part:cf4033cb853c44a487397970d48170db13d9e081d1dc04f79877a0a818a9063c"},"images":[{"name":"atlas-23","uri":"../../textures/atlas/tile-23.png"},{"name":"atlas-22","uri":"../../textures/atlas/tile-22.png"}],"textures":[{"source":0,"sampler":0},{"source":1,"sampler":0}],"samplers":[{"magFilter":9729,"minFilter":9729,"wrapS":10497,"wrapT":10497}],"buffers":[{"uri":"cf4033cb853c44a487397970d48170db13d9e081d1dc04f79877a0a818a9063c.bin","byteLength":119508}]}
