{"asset":{"version":"2.0","generator":"Veldren adapted asset recovery"},"scene":0,"scenes":[{"nodes":[0]}],"nodes":[{"name":"cf73d73e4a52b629e942c4cf3ba67a960257f3fda86af0eadf8051aa3c1f7c97","mesh":0}],"meshes":[{"name":"cf73d73e4a52b629e942c4cf3ba67a960257f3fda86af0eadf8051aa3c1f7c97","primitives":[{"attributes":{"POSITION":0,"NORMAL":1,"TEXCOORD_0":2,"COLOR_0":3,"_VELDREN_NORMAL":4,"_VELDREN_COLOR":5,"_VELDREN_FALLBACK":6,"_VELDREN_MATERIAL":7},"indices":8,"material":0,"extras":{"mixedAtlasFallback":false}},{"attributes":{"POSITION":0,"NORMAL":1,"TEXCOORD_0":2,"COLOR_0":3,"_VELDREN_NORMAL":4,"_VELDREN_COLOR":5,"_VELDREN_FALLBACK":6,"_VELDREN_MATERIAL":7},"indices":9,"material":1,"extras":{"mixedAtlasFallback":false}}]}],"bufferViews":[{"buffer":0,"byteOffset":0,"byteLength":15912,"target":34962},{"buffer":0,"byteOffset":15912,"byteLength":15912,"target":34962},{"buffer":0,"byteOffset":31824,"byteLength":10608,"target":34962},{"buffer":0,"byteOffset":42432,"byteLength":15912,"target":34962},{"buffer":0,"byteOffset":58344,"byteLength":15912,"target":34962},{"buffer":0,"byteOffset":74256,"byteLength":15912,"target":34962},{"buffer":0,"byteOffset":90168,"byteLength":15912,"target":34962},{"buffer":0,"byteOffset":106080,"byteLength":5304,"target":34962},{"buffer":0,"byteOffset":111384,"byteLength":10464,"target":34963},{"buffer":0,"byteOffset":121848,"byteLength":11808,"target":34963}],"accessors":[{"bufferView":0,"componentType":5126,"count":1326,"type":"VEC3","min":[-3.6411149501800537,0.011172999627888203,-2.5864460468292236],"max":[3.095597982406616,6.3706889152526855,2.3982579708099365]},{"bufferView":1,"componentType":5126,"count":1326,"type":"VEC3"},{"bufferView":2,"componentType":5126,"count":1326,"type":"VEC2"},{"bufferView":3,"componentType":5126,"count":1326,"type":"VEC3"},{"bufferView":4,"componentType":5126,"count":1326,"type":"VEC3"},{"bufferView":5,"componentType":5126,"count":1326,"type":"VEC3"},{"bufferView":6,"componentType":5126,"count":1326,"type":"VEC3"},{"bufferView":7,"componentType":5126,"count":1326,"type":"SCALAR"},{"bufferView":8,"componentType":5125,"count":2616,"type":"SCALAR"},{"bufferView":9,"componentType":5125,"count":2952,"type":"SCALAR"}],"materials":[{"name":"legacy-material-49","pbrMetallicRoughness":{"baseColorFactor":[1,1,1,1],"metallicFactor":0,"roughnessFactor":1,"baseColorTexture":{"index":0}},"doubleSided":true,"extras":{"legacyMaterial":49,"legacyShader":"dist/renderer-gl.js"}},{"name":"legacy-material-50","pbrMetallicRoughness":{"baseColorFactor":[1,1,1,1],"metallicFactor":0,"roughnessFactor":1,"baseColorTexture":{"index":1}},"doubleSided":true,"extras":{"legacyMaterial":50,"legacyShader":"dist/renderer-gl.js"},"alphaMode":"MASK","alphaCutoff":0.45}],"extras":{"veldrenAssetId":"veldren:world-part:cf73d73e4a52b629e942c4cf3ba67a960257f3fda86af0eadf8051aa3c1f7c97"},"images":[{"name":"atlas-29","uri":"../../textures/atlas/tile-29.png"},{"name":"atlas-30","uri":"../../textures/atlas/tile-30.png"}],"textures":[{"source":0,"sampler":0},{"source":1,"sampler":0}],"samplers":[{"magFilter":9729,"minFilter":9729,"wrapS":10497,"wrapT":10497}],"buffers":[{"uri":"cf73d73e4a52b629e942c4cf3ba67a960257f3fda86af0eadf8051aa3c1f7c97.bin","byteLength":133656}]}
