{"asset":{"version":"2.0","generator":"Veldren adapted asset recovery"},"scene":0,"scenes":[{"nodes":[0]}],"nodes":[{"name":"cf9ad392e101321c07c22b1f639255b1bf04202620d2e6bfdfa9b754a99db64e","mesh":0}],"meshes":[{"name":"cf9ad392e101321c07c22b1f639255b1bf04202620d2e6bfdfa9b754a99db64e","primitives":[{"attributes":{"POSITION":0,"NORMAL":1,"TEXCOORD_0":2,"COLOR_0":3,"_VELDREN_NORMAL":4,"_VELDREN_COLOR":5,"_VELDREN_FALLBACK":6,"_VELDREN_MATERIAL":7},"indices":8,"material":0,"extras":{"mixedAtlasFallback":false}},{"attributes":{"POSITION":0,"NORMAL":1,"TEXCOORD_0":2,"COLOR_0":3,"_VELDREN_NORMAL":4,"_VELDREN_COLOR":5,"_VELDREN_FALLBACK":6,"_VELDREN_MATERIAL":7},"indices":9,"material":1,"extras":{"mixedAtlasFallback":false}},{"attributes":{"POSITION":0,"NORMAL":1,"TEXCOORD_0":2,"COLOR_0":3,"_VELDREN_NORMAL":4,"_VELDREN_COLOR":5,"_VELDREN_FALLBACK":6,"_VELDREN_MATERIAL":7},"indices":10,"material":2,"extras":{"mixedAtlasFallback":false}},{"attributes":{"POSITION":0,"NORMAL":1,"TEXCOORD_0":2,"COLOR_0":3,"_VELDREN_NORMAL":4,"_VELDREN_COLOR":5,"_VELDREN_FALLBACK":6,"_VELDREN_MATERIAL":7},"indices":11,"material":3,"extras":{"mixedAtlasFallback":false}},{"attributes":{"POSITION":0,"NORMAL":1,"TEXCOORD_0":2,"COLOR_0":3,"_VELDREN_NORMAL":4,"_VELDREN_COLOR":5,"_VELDREN_FALLBACK":6,"_VELDREN_MATERIAL":7},"indices":12,"material":4,"extras":{"mixedAtlasFallback":false}},{"attributes":{"POSITION":0,"NORMAL":1,"TEXCOORD_0":2,"COLOR_0":3,"_VELDREN_NORMAL":4,"_VELDREN_COLOR":5,"_VELDREN_FALLBACK":6,"_VELDREN_MATERIAL":7},"indices":13,"material":5,"extras":{"mixedAtlasFallback":false}}]}],"bufferViews":[{"buffer":0,"byteOffset":0,"byteLength":70920,"target":34962},{"buffer":0,"byteOffset":70920,"byteLength":70920,"target":34962},{"buffer":0,"byteOffset":141840,"byteLength":47280,"target":34962},{"buffer":0,"byteOffset":189120,"byteLength":70920,"target":34962},{"buffer":0,"byteOffset":260040,"byteLength":70920,"target":34962},{"buffer":0,"byteOffset":330960,"byteLength":70920,"target":34962},{"buffer":0,"byteOffset":401880,"byteLength":70920,"target":34962},{"buffer":0,"byteOffset":472800,"byteLength":23640,"target":34962},{"buffer":0,"byteOffset":496440,"byteLength":8376,"target":34963},{"buffer":0,"byteOffset":504816,"byteLength":72,"target":34963},{"buffer":0,"byteOffset":504888,"byteLength":4032,"target":34963},{"buffer":0,"byteOffset":508920,"byteLength":8496,"target":34963},{"buffer":0,"byteOffset":517416,"byteLength":576,"target":34963},{"buffer":0,"byteOffset":517992,"byteLength":2088,"target":34963}],"accessors":[{"bufferView":0,"componentType":5126,"count":5910,"type":"VEC3","min":[51.4900016784668,0.8050000071525574,32.5099983215332],"max":[61.5099983215332,5.842800140380859,40.47758483886719]},{"bufferView":1,"componentType":5126,"count":5910,"type":"VEC3"},{"bufferView":2,"componentType":5126,"count":5910,"type":"VEC2"},{"bufferView":3,"componentType":5126,"count":5910,"type":"VEC3"},{"bufferView":4,"componentType":5126,"count":5910,"type":"VEC3"},{"bufferView":5,"componentType":5126,"count":5910,"type":"VEC3"},{"bufferView":6,"componentType":5126,"count":5910,"type":"VEC3"},{"bufferView":7,"componentType":5126,"count":5910,"type":"SCALAR"},{"bufferView":8,"componentType":5125,"count":2094,"type":"SCALAR"},{"bufferView":9,"componentType":5125,"count":18,"type":"SCALAR"},{"bufferView":10,"componentType":5125,"count":1008,"type":"SCALAR"},{"bufferView":11,"componentType":5125,"count":2124,"type":"SCALAR"},{"bufferView":12,"componentType":5125,"count":144,"type":"SCALAR"},{"bufferView":13,"componentType":5125,"count":522,"type":"SCALAR"}],"materials":[{"name":"legacy-material-5","pbrMetallicRoughness":{"baseColorFactor":[1,1,1,1],"metallicFactor":0,"roughnessFactor":1},"doubleSided":true,"extras":{"legacyMaterial":5,"legacyShader":"dist/renderer-gl.js","limitation":"Browser procedural material not implemented by this glTF export; source/base attributes retained."}},{"name":"legacy-material-13","pbrMetallicRoughness":{"baseColorFactor":[1,1,1,1],"metallicFactor":0,"roughnessFactor":1},"doubleSided":true,"extras":{"legacyMaterial":13,"legacyShader":"dist/renderer-gl.js","limitation":"Browser procedural material not implemented by this glTF export; source/base attributes retained."}},{"name":"legacy-material-20","pbrMetallicRoughness":{"baseColorFactor":[1,1,1,1],"metallicFactor":0,"roughnessFactor":1,"baseColorTexture":{"index":0}},"doubleSided":true,"extras":{"legacyMaterial":20,"legacyShader":"dist/renderer-gl.js"}},{"name":"legacy-material-17","pbrMetallicRoughness":{"baseColorFactor":[1,1,1,1],"metallicFactor":0,"roughnessFactor":1},"doubleSided":true,"extras":{"legacyMaterial":17,"legacyShader":"dist/renderer-gl.js","limitation":"Browser procedural material not implemented by this glTF export; source/base attributes retained."}},{"name":"legacy-material-6","pbrMetallicRoughness":{"baseColorFactor":[1,1,1,1],"metallicFactor":0,"roughnessFactor":1},"doubleSided":true,"extras":{"legacyMaterial":6,"legacyShader":"dist/renderer-gl.js","limitation":"Browser procedural material not implemented by this glTF export; source/base attributes retained."}},{"name":"legacy-material-7","pbrMetallicRoughness":{"baseColorFactor":[1,1,1,1],"metallicFactor":0,"roughnessFactor":1},"doubleSided":true,"extras":{"legacyMaterial":7,"legacyShader":"dist/renderer-gl.js","limitation":"Browser procedural material not implemented by this glTF export; source/base attributes retained."}}],"extras":{"veldrenAssetId":"veldren:world-part:cf9ad392e101321c07c22b1f639255b1bf04202620d2e6bfdfa9b754a99db64e"},"images":[{"name":"atlas-00","uri":"../../textures/atlas/tile-00.png"}],"textures":[{"source":0,"sampler":0}],"samplers":[{"magFilter":9729,"minFilter":9729,"wrapS":10497,"wrapT":10497}],"buffers":[{"uri":"cf9ad392e101321c07c22b1f639255b1bf04202620d2e6bfdfa9b754a99db64e.bin","byteLength":520080}]}
