{"asset":{"version":"2.0","generator":"Veldren adapted asset recovery"},"scene":0,"scenes":[{"nodes":[0]}],"nodes":[{"name":"d00b912fe2b35b35972162c4997f79c4032594d2e3a4f08f541d3f054583ce2e","mesh":0}],"meshes":[{"name":"d00b912fe2b35b35972162c4997f79c4032594d2e3a4f08f541d3f054583ce2e","primitives":[{"attributes":{"POSITION":0,"NORMAL":1,"TEXCOORD_0":2,"COLOR_0":3,"_VELDREN_NORMAL":4,"_VELDREN_COLOR":5,"_VELDREN_FALLBACK":6,"_VELDREN_MATERIAL":7},"indices":8,"material":0,"extras":{"mixedAtlasFallback":false}},{"attributes":{"POSITION":0,"NORMAL":1,"TEXCOORD_0":2,"COLOR_0":3,"_VELDREN_NORMAL":4,"_VELDREN_COLOR":5,"_VELDREN_FALLBACK":6,"_VELDREN_MATERIAL":7},"indices":9,"material":1,"extras":{"mixedAtlasFallback":false}}]}],"bufferViews":[{"buffer":0,"byteOffset":0,"byteLength":6288,"target":34962},{"buffer":0,"byteOffset":6288,"byteLength":6288,"target":34962},{"buffer":0,"byteOffset":12576,"byteLength":4192,"target":34962},{"buffer":0,"byteOffset":16768,"byteLength":6288,"target":34962},{"buffer":0,"byteOffset":23056,"byteLength":6288,"target":34962},{"buffer":0,"byteOffset":29344,"byteLength":6288,"target":34962},{"buffer":0,"byteOffset":35632,"byteLength":6288,"target":34962},{"buffer":0,"byteOffset":41920,"byteLength":2096,"target":34962},{"buffer":0,"byteOffset":44016,"byteLength":7320,"target":34963},{"buffer":0,"byteOffset":51336,"byteLength":96,"target":34963}],"accessors":[{"bufferView":0,"componentType":5126,"count":524,"type":"VEC3","min":[-0.5000000596046448,5.960464477539063e-08,-0.5000000596046448],"max":[0.4457784593105316,3.177875280380249,0.5000000596046448]},{"bufferView":1,"componentType":5126,"count":524,"type":"VEC3"},{"bufferView":2,"componentType":5126,"count":524,"type":"VEC2"},{"bufferView":3,"componentType":5126,"count":524,"type":"VEC3"},{"bufferView":4,"componentType":5126,"count":524,"type":"VEC3"},{"bufferView":5,"componentType":5126,"count":524,"type":"VEC3"},{"bufferView":6,"componentType":5126,"count":524,"type":"VEC3"},{"bufferView":7,"componentType":5126,"count":524,"type":"SCALAR"},{"bufferView":8,"componentType":5125,"count":1830,"type":"SCALAR"},{"bufferView":9,"componentType":5125,"count":24,"type":"SCALAR"}],"materials":[{"name":"legacy-material-24","pbrMetallicRoughness":{"baseColorFactor":[1,1,1,1],"metallicFactor":0,"roughnessFactor":1,"baseColorTexture":{"index":0}},"doubleSided":true,"extras":{"legacyMaterial":24,"legacyShader":"dist/renderer-gl.js"}},{"name":"legacy-material-23","pbrMetallicRoughness":{"baseColorFactor":[1,1,1,1],"metallicFactor":0,"roughnessFactor":1,"baseColorTexture":{"index":1}},"doubleSided":true,"extras":{"legacyMaterial":23,"legacyShader":"dist/renderer-gl.js"}}],"extras":{"veldrenAssetId":"veldren:world-part:d00b912fe2b35b35972162c4997f79c4032594d2e3a4f08f541d3f054583ce2e"},"images":[{"name":"atlas-04","uri":"../../textures/atlas/tile-04.png"},{"name":"atlas-03","uri":"../../textures/atlas/tile-03.png"}],"textures":[{"source":0,"sampler":0},{"source":1,"sampler":0}],"samplers":[{"magFilter":9729,"minFilter":9729,"wrapS":10497,"wrapT":10497}],"buffers":[{"uri":"d00b912fe2b35b35972162c4997f79c4032594d2e3a4f08f541d3f054583ce2e.bin","byteLength":51432}]}
