{"asset":{"version":"2.0","generator":"Veldren adapted asset recovery"},"scene":0,"scenes":[{"nodes":[0]}],"nodes":[{"name":"d1a6a77ace8c3542d4eb2bc12676ee78b040f6fdf70388d298927ed479c69732","mesh":0}],"meshes":[{"name":"d1a6a77ace8c3542d4eb2bc12676ee78b040f6fdf70388d298927ed479c69732","primitives":[{"attributes":{"POSITION":0,"NORMAL":1,"TEXCOORD_0":2,"COLOR_0":3,"_VELDREN_NORMAL":4,"_VELDREN_COLOR":5,"_VELDREN_FALLBACK":6,"_VELDREN_MATERIAL":7},"indices":8,"material":0,"extras":{"mixedAtlasFallback":false}},{"attributes":{"POSITION":0,"NORMAL":1,"TEXCOORD_0":2,"COLOR_0":3,"_VELDREN_NORMAL":4,"_VELDREN_COLOR":5,"_VELDREN_FALLBACK":6,"_VELDREN_MATERIAL":7},"indices":9,"material":1,"extras":{"mixedAtlasFallback":false}}]}],"bufferViews":[{"buffer":0,"byteOffset":0,"byteLength":9252,"target":34962},{"buffer":0,"byteOffset":9252,"byteLength":9252,"target":34962},{"buffer":0,"byteOffset":18504,"byteLength":6168,"target":34962},{"buffer":0,"byteOffset":24672,"byteLength":9252,"target":34962},{"buffer":0,"byteOffset":33924,"byteLength":9252,"target":34962},{"buffer":0,"byteOffset":43176,"byteLength":9252,"target":34962},{"buffer":0,"byteOffset":52428,"byteLength":9252,"target":34962},{"buffer":0,"byteOffset":61680,"byteLength":3084,"target":34962},{"buffer":0,"byteOffset":64764,"byteLength":2796,"target":34963},{"buffer":0,"byteOffset":67560,"byteLength":288,"target":34963}],"accessors":[{"bufferView":0,"componentType":5126,"count":771,"type":"VEC3","min":[44.17565155029297,0.0,28.185771942138672],"max":[44.86000061035156,1.25,28.80710220336914]},{"bufferView":1,"componentType":5126,"count":771,"type":"VEC3"},{"bufferView":2,"componentType":5126,"count":771,"type":"VEC2"},{"bufferView":3,"componentType":5126,"count":771,"type":"VEC3"},{"bufferView":4,"componentType":5126,"count":771,"type":"VEC3"},{"bufferView":5,"componentType":5126,"count":771,"type":"VEC3"},{"bufferView":6,"componentType":5126,"count":771,"type":"VEC3"},{"bufferView":7,"componentType":5126,"count":771,"type":"SCALAR"},{"bufferView":8,"componentType":5125,"count":699,"type":"SCALAR"},{"bufferView":9,"componentType":5125,"count":72,"type":"SCALAR"}],"materials":[{"name":"legacy-material-20","pbrMetallicRoughness":{"baseColorFactor":[1,1,1,1],"metallicFactor":0,"roughnessFactor":1,"baseColorTexture":{"index":0}},"doubleSided":true,"extras":{"legacyMaterial":20,"legacyShader":"dist/renderer-gl.js"}},{"name":"legacy-material-19","pbrMetallicRoughness":{"baseColorFactor":[1,1,1,1],"metallicFactor":0,"roughnessFactor":1},"doubleSided":true,"extras":{"legacyMaterial":19,"legacyShader":"dist/renderer-gl.js","limitation":"Browser procedural material not implemented by this glTF export; source/base attributes retained."}}],"extras":{"veldrenAssetId":"veldren:world-part:d1a6a77ace8c3542d4eb2bc12676ee78b040f6fdf70388d298927ed479c69732"},"images":[{"name":"atlas-00","uri":"../../textures/atlas/tile-00.png"}],"textures":[{"source":0,"sampler":0}],"samplers":[{"magFilter":9729,"minFilter":9729,"wrapS":10497,"wrapT":10497}],"buffers":[{"uri":"d1a6a77ace8c3542d4eb2bc12676ee78b040f6fdf70388d298927ed479c69732.bin","byteLength":67848}]}
