{"asset":{"version":"2.0","generator":"Veldren adapted asset recovery"},"scene":0,"scenes":[{"nodes":[0]}],"nodes":[{"name":"d21440f5cfd440ab3828857438d8ebd3f2389d1f6fa0afde17090745e908eef4","mesh":0}],"meshes":[{"name":"d21440f5cfd440ab3828857438d8ebd3f2389d1f6fa0afde17090745e908eef4","primitives":[{"attributes":{"POSITION":0,"NORMAL":1,"TEXCOORD_0":2,"COLOR_0":3,"_VELDREN_NORMAL":4,"_VELDREN_COLOR":5,"_VELDREN_FALLBACK":6,"_VELDREN_MATERIAL":7},"indices":8,"material":0,"extras":{"mixedAtlasFallback":false}}]}],"bufferViews":[{"buffer":0,"byteOffset":0,"byteLength":1296,"target":34962},{"buffer":0,"byteOffset":1296,"byteLength":1296,"target":34962},{"buffer":0,"byteOffset":2592,"byteLength":864,"target":34962},{"buffer":0,"byteOffset":3456,"byteLength":1296,"target":34962},{"buffer":0,"byteOffset":4752,"byteLength":1296,"target":34962},{"buffer":0,"byteOffset":6048,"byteLength":1296,"target":34962},{"buffer":0,"byteOffset":7344,"byteLength":1296,"target":34962},{"buffer":0,"byteOffset":8640,"byteLength":432,"target":34962},{"buffer":0,"byteOffset":9072,"byteLength":432,"target":34963}],"accessors":[{"bufferView":0,"componentType":5126,"count":108,"type":"VEC3","min":[869.4500122070312,9.407509803771973,335.45001220703125],"max":[871.5499877929688,11.20750904083252,337.54998779296875]},{"bufferView":1,"componentType":5126,"count":108,"type":"VEC3"},{"bufferView":2,"componentType":5126,"count":108,"type":"VEC2"},{"bufferView":3,"componentType":5126,"count":108,"type":"VEC3"},{"bufferView":4,"componentType":5126,"count":108,"type":"VEC3"},{"bufferView":5,"componentType":5126,"count":108,"type":"VEC3"},{"bufferView":6,"componentType":5126,"count":108,"type":"VEC3"},{"bufferView":7,"componentType":5126,"count":108,"type":"SCALAR"},{"bufferView":8,"componentType":5125,"count":108,"type":"SCALAR"}],"materials":[{"name":"legacy-material-18","pbrMetallicRoughness":{"baseColorFactor":[1,1,1,1],"metallicFactor":0,"roughnessFactor":1},"doubleSided":true,"extras":{"legacyMaterial":18,"legacyShader":"dist/renderer-gl.js","limitation":"Browser procedural material not implemented by this glTF export; source/base attributes retained."}}],"extras":{"veldrenAssetId":"veldren:world-part:d21440f5cfd440ab3828857438d8ebd3f2389d1f6fa0afde17090745e908eef4"},"buffers":[{"uri":"d21440f5cfd440ab3828857438d8ebd3f2389d1f6fa0afde17090745e908eef4.bin","byteLength":9504}]}
