{"asset":{"version":"2.0","generator":"Veldren adapted asset recovery"},"scene":0,"scenes":[{"nodes":[0]}],"nodes":[{"name":"d227a3f78a179960cd821228cef496b8afbbb17208d9ceda0bf167fa9b434190","mesh":0}],"meshes":[{"name":"d227a3f78a179960cd821228cef496b8afbbb17208d9ceda0bf167fa9b434190","primitives":[{"attributes":{"POSITION":0,"NORMAL":1,"TEXCOORD_0":2,"COLOR_0":3,"_VELDREN_NORMAL":4,"_VELDREN_COLOR":5,"_VELDREN_FALLBACK":6,"_VELDREN_MATERIAL":7},"indices":8,"material":0,"extras":{"mixedAtlasFallback":false}}]}],"bufferViews":[{"buffer":0,"byteOffset":0,"byteLength":1464,"target":34962},{"buffer":0,"byteOffset":1464,"byteLength":1464,"target":34962},{"buffer":0,"byteOffset":2928,"byteLength":976,"target":34962},{"buffer":0,"byteOffset":3904,"byteLength":1464,"target":34962},{"buffer":0,"byteOffset":5368,"byteLength":1464,"target":34962},{"buffer":0,"byteOffset":6832,"byteLength":1464,"target":34962},{"buffer":0,"byteOffset":8296,"byteLength":1464,"target":34962},{"buffer":0,"byteOffset":9760,"byteLength":488,"target":34962},{"buffer":0,"byteOffset":10248,"byteLength":1560,"target":34963}],"accessors":[{"bufferView":0,"componentType":5126,"count":122,"type":"VEC3","min":[-0.5000000596046448,5.820766091346741e-08,-0.49400854110717773],"max":[0.4457784593105316,3.0,0.4940085709095001]},{"bufferView":1,"componentType":5126,"count":122,"type":"VEC3"},{"bufferView":2,"componentType":5126,"count":122,"type":"VEC2"},{"bufferView":3,"componentType":5126,"count":122,"type":"VEC3"},{"bufferView":4,"componentType":5126,"count":122,"type":"VEC3"},{"bufferView":5,"componentType":5126,"count":122,"type":"VEC3"},{"bufferView":6,"componentType":5126,"count":122,"type":"VEC3"},{"bufferView":7,"componentType":5126,"count":122,"type":"SCALAR"},{"bufferView":8,"componentType":5125,"count":390,"type":"SCALAR"}],"materials":[{"name":"legacy-material-25","pbrMetallicRoughness":{"baseColorFactor":[1,1,1,1],"metallicFactor":0,"roughnessFactor":1,"baseColorTexture":{"index":0}},"doubleSided":true,"extras":{"legacyMaterial":25,"legacyShader":"dist/renderer-gl.js"}}],"extras":{"veldrenAssetId":"veldren:world-part:d227a3f78a179960cd821228cef496b8afbbb17208d9ceda0bf167fa9b434190"},"images":[{"name":"atlas-05","uri":"../../textures/atlas/tile-05.png"}],"textures":[{"source":0,"sampler":0}],"samplers":[{"magFilter":9729,"minFilter":9729,"wrapS":10497,"wrapT":10497}],"buffers":[{"uri":"d227a3f78a179960cd821228cef496b8afbbb17208d9ceda0bf167fa9b434190.bin","byteLength":11808}]}
