{"asset":{"version":"2.0","generator":"Veldren adapted asset recovery"},"scene":0,"scenes":[{"nodes":[0]}],"nodes":[{"name":"d4ea86745bbaf351e667f5f79b7c5701d74bf810e76650e9b3606b269c9ad45c","mesh":0}],"meshes":[{"name":"d4ea86745bbaf351e667f5f79b7c5701d74bf810e76650e9b3606b269c9ad45c","primitives":[{"attributes":{"POSITION":0,"NORMAL":1,"TEXCOORD_0":2,"COLOR_0":3,"_VELDREN_NORMAL":4,"_VELDREN_COLOR":5,"_VELDREN_FALLBACK":6,"_VELDREN_MATERIAL":7},"indices":8,"material":0,"extras":{"mixedAtlasFallback":false}},{"attributes":{"POSITION":0,"NORMAL":1,"TEXCOORD_0":2,"COLOR_0":3,"_VELDREN_NORMAL":4,"_VELDREN_COLOR":5,"_VELDREN_FALLBACK":6,"_VELDREN_MATERIAL":7},"indices":9,"material":1,"extras":{"mixedAtlasFallback":false}}]}],"bufferViews":[{"buffer":0,"byteOffset":0,"byteLength":4320,"target":34962},{"buffer":0,"byteOffset":4320,"byteLength":4320,"target":34962},{"buffer":0,"byteOffset":8640,"byteLength":2880,"target":34962},{"buffer":0,"byteOffset":11520,"byteLength":4320,"target":34962},{"buffer":0,"byteOffset":15840,"byteLength":4320,"target":34962},{"buffer":0,"byteOffset":20160,"byteLength":4320,"target":34962},{"buffer":0,"byteOffset":24480,"byteLength":4320,"target":34962},{"buffer":0,"byteOffset":28800,"byteLength":1440,"target":34962},{"buffer":0,"byteOffset":30240,"byteLength":1296,"target":34963},{"buffer":0,"byteOffset":31536,"byteLength":144,"target":34963}],"accessors":[{"bufferView":0,"componentType":5126,"count":360,"type":"VEC3","min":[47.97999954223633,0.75,87.9800033569336],"max":[49.02000045776367,2.450000047683716,88.5999984741211]},{"bufferView":1,"componentType":5126,"count":360,"type":"VEC3"},{"bufferView":2,"componentType":5126,"count":360,"type":"VEC2"},{"bufferView":3,"componentType":5126,"count":360,"type":"VEC3"},{"bufferView":4,"componentType":5126,"count":360,"type":"VEC3"},{"bufferView":5,"componentType":5126,"count":360,"type":"VEC3"},{"bufferView":6,"componentType":5126,"count":360,"type":"VEC3"},{"bufferView":7,"componentType":5126,"count":360,"type":"SCALAR"},{"bufferView":8,"componentType":5125,"count":324,"type":"SCALAR"},{"bufferView":9,"componentType":5125,"count":36,"type":"SCALAR"}],"materials":[{"name":"legacy-material-5","pbrMetallicRoughness":{"baseColorFactor":[1,1,1,1],"metallicFactor":0,"roughnessFactor":1},"doubleSided":true,"extras":{"legacyMaterial":5,"legacyShader":"dist/renderer-gl.js","limitation":"Browser procedural material not implemented by this glTF export; source/base attributes retained."}},{"name":"legacy-material-20","pbrMetallicRoughness":{"baseColorFactor":[1,1,1,1],"metallicFactor":0,"roughnessFactor":1,"baseColorTexture":{"index":0}},"doubleSided":true,"extras":{"legacyMaterial":20,"legacyShader":"dist/renderer-gl.js"}}],"extras":{"veldrenAssetId":"veldren:world-part:d4ea86745bbaf351e667f5f79b7c5701d74bf810e76650e9b3606b269c9ad45c"},"images":[{"name":"atlas-00","uri":"../../textures/atlas/tile-00.png"}],"textures":[{"source":0,"sampler":0}],"samplers":[{"magFilter":9729,"minFilter":9729,"wrapS":10497,"wrapT":10497}],"buffers":[{"uri":"d4ea86745bbaf351e667f5f79b7c5701d74bf810e76650e9b3606b269c9ad45c.bin","byteLength":31680}]}
