{"asset":{"version":"2.0","generator":"Veldren adapted asset recovery"},"scene":0,"scenes":[{"nodes":[0]}],"nodes":[{"name":"d508ee8c7122e08a9818b3a3bee37751bf40104e2d84b393740769e2eaafb7f4","mesh":0}],"meshes":[{"name":"d508ee8c7122e08a9818b3a3bee37751bf40104e2d84b393740769e2eaafb7f4","primitives":[{"attributes":{"POSITION":0,"NORMAL":1,"TEXCOORD_0":2,"COLOR_0":3,"_VELDREN_NORMAL":4,"_VELDREN_COLOR":5,"_VELDREN_FALLBACK":6,"_VELDREN_MATERIAL":7},"indices":8,"material":0,"extras":{"mixedAtlasFallback":false}}]}],"bufferViews":[{"buffer":0,"byteOffset":0,"byteLength":960,"target":34962},{"buffer":0,"byteOffset":960,"byteLength":960,"target":34962},{"buffer":0,"byteOffset":1920,"byteLength":640,"target":34962},{"buffer":0,"byteOffset":2560,"byteLength":960,"target":34962},{"buffer":0,"byteOffset":3520,"byteLength":960,"target":34962},{"buffer":0,"byteOffset":4480,"byteLength":960,"target":34962},{"buffer":0,"byteOffset":5440,"byteLength":960,"target":34962},{"buffer":0,"byteOffset":6400,"byteLength":320,"target":34962},{"buffer":0,"byteOffset":6720,"byteLength":480,"target":34963}],"accessors":[{"bufferView":0,"componentType":5126,"count":80,"type":"VEC3","min":[-1.0314507484436035,-0.02825251966714859,-0.059909969568252563],"max":[1.0326489210128784,0.8098565340042114,0.059910036623477936]},{"bufferView":1,"componentType":5126,"count":80,"type":"VEC3"},{"bufferView":2,"componentType":5126,"count":80,"type":"VEC2"},{"bufferView":3,"componentType":5126,"count":80,"type":"VEC3"},{"bufferView":4,"componentType":5126,"count":80,"type":"VEC3"},{"bufferView":5,"componentType":5126,"count":80,"type":"VEC3"},{"bufferView":6,"componentType":5126,"count":80,"type":"VEC3"},{"bufferView":7,"componentType":5126,"count":80,"type":"SCALAR"},{"bufferView":8,"componentType":5125,"count":120,"type":"SCALAR"}],"materials":[{"name":"legacy-material-21","pbrMetallicRoughness":{"baseColorFactor":[1,1,1,1],"metallicFactor":0,"roughnessFactor":1,"baseColorTexture":{"index":0}},"doubleSided":true,"extras":{"legacyMaterial":21,"legacyShader":"dist/renderer-gl.js"}}],"extras":{"veldrenAssetId":"veldren:world-part:d508ee8c7122e08a9818b3a3bee37751bf40104e2d84b393740769e2eaafb7f4"},"images":[{"name":"atlas-01","uri":"../../textures/atlas/tile-01.png"}],"textures":[{"source":0,"sampler":0}],"samplers":[{"magFilter":9729,"minFilter":9729,"wrapS":10497,"wrapT":10497}],"buffers":[{"uri":"d508ee8c7122e08a9818b3a3bee37751bf40104e2d84b393740769e2eaafb7f4.bin","byteLength":7200}]}
