{"asset":{"version":"2.0","generator":"Veldren adapted asset recovery"},"scene":0,"scenes":[{"nodes":[0]}],"nodes":[{"name":"d9e9251dcf0e00db8148228fa53c0409384de6a49cb8a46bd6eb5c39cb872180","mesh":0}],"meshes":[{"name":"d9e9251dcf0e00db8148228fa53c0409384de6a49cb8a46bd6eb5c39cb872180","primitives":[{"attributes":{"POSITION":0,"NORMAL":1,"TEXCOORD_0":2,"COLOR_0":3,"_VELDREN_NORMAL":4,"_VELDREN_COLOR":5,"_VELDREN_FALLBACK":6,"_VELDREN_MATERIAL":7},"indices":8,"material":0,"extras":{"mixedAtlasFallback":false}},{"attributes":{"POSITION":0,"NORMAL":1,"TEXCOORD_0":2,"COLOR_0":3,"_VELDREN_NORMAL":4,"_VELDREN_COLOR":5,"_VELDREN_FALLBACK":6,"_VELDREN_MATERIAL":7},"indices":9,"material":1,"extras":{"mixedAtlasFallback":false}}]}],"bufferViews":[{"buffer":0,"byteOffset":0,"byteLength":15300,"target":34962},{"buffer":0,"byteOffset":15300,"byteLength":15300,"target":34962},{"buffer":0,"byteOffset":30600,"byteLength":10200,"target":34962},{"buffer":0,"byteOffset":40800,"byteLength":15300,"target":34962},{"buffer":0,"byteOffset":56100,"byteLength":15300,"target":34962},{"buffer":0,"byteOffset":71400,"byteLength":15300,"target":34962},{"buffer":0,"byteOffset":86700,"byteLength":15300,"target":34962},{"buffer":0,"byteOffset":102000,"byteLength":5100,"target":34962},{"buffer":0,"byteOffset":107100,"byteLength":3180,"target":34963},{"buffer":0,"byteOffset":110280,"byteLength":1920,"target":34963}],"accessors":[{"bufferView":0,"componentType":5126,"count":1275,"type":"VEC3","min":[26.76673698425293,0.0,10.850000381469727],"max":[28.260000228881836,1.4500000476837158,12.149999618530273]},{"bufferView":1,"componentType":5126,"count":1275,"type":"VEC3"},{"bufferView":2,"componentType":5126,"count":1275,"type":"VEC2"},{"bufferView":3,"componentType":5126,"count":1275,"type":"VEC3"},{"bufferView":4,"componentType":5126,"count":1275,"type":"VEC3"},{"bufferView":5,"componentType":5126,"count":1275,"type":"VEC3"},{"bufferView":6,"componentType":5126,"count":1275,"type":"VEC3"},{"bufferView":7,"componentType":5126,"count":1275,"type":"SCALAR"},{"bufferView":8,"componentType":5125,"count":795,"type":"SCALAR"},{"bufferView":9,"componentType":5125,"count":480,"type":"SCALAR"}],"materials":[{"name":"legacy-material-20","pbrMetallicRoughness":{"baseColorFactor":[1,1,1,1],"metallicFactor":0,"roughnessFactor":1,"baseColorTexture":{"index":0}},"doubleSided":true,"extras":{"legacyMaterial":20,"legacyShader":"dist/renderer-gl.js"}},{"name":"legacy-material-19","pbrMetallicRoughness":{"baseColorFactor":[1,1,1,1],"metallicFactor":0,"roughnessFactor":1},"doubleSided":true,"extras":{"legacyMaterial":19,"legacyShader":"dist/renderer-gl.js","limitation":"Browser procedural material not implemented by this glTF export; source/base attributes retained."}}],"extras":{"veldrenAssetId":"veldren:world-part:d9e9251dcf0e00db8148228fa53c0409384de6a49cb8a46bd6eb5c39cb872180"},"images":[{"name":"atlas-00","uri":"../../textures/atlas/tile-00.png"}],"textures":[{"source":0,"sampler":0}],"samplers":[{"magFilter":9729,"minFilter":9729,"wrapS":10497,"wrapT":10497}],"buffers":[{"uri":"d9e9251dcf0e00db8148228fa53c0409384de6a49cb8a46bd6eb5c39cb872180.bin","byteLength":112200}]}
