{"asset":{"version":"2.0","generator":"Veldren adapted asset recovery"},"scene":0,"scenes":[{"nodes":[0]}],"nodes":[{"name":"da2fb9db6b6baee6a54f6ee0fb5386748b604523d892797e7684ad850bd18eb9","mesh":0}],"meshes":[{"name":"da2fb9db6b6baee6a54f6ee0fb5386748b604523d892797e7684ad850bd18eb9","primitives":[{"attributes":{"POSITION":0,"NORMAL":1,"TEXCOORD_0":2,"COLOR_0":3,"_VELDREN_NORMAL":4,"_VELDREN_COLOR":5,"_VELDREN_FALLBACK":6,"_VELDREN_MATERIAL":7},"indices":8,"material":0,"extras":{"mixedAtlasFallback":false}},{"attributes":{"POSITION":0,"NORMAL":1,"TEXCOORD_0":2,"COLOR_0":3,"_VELDREN_NORMAL":4,"_VELDREN_COLOR":5,"_VELDREN_FALLBACK":6,"_VELDREN_MATERIAL":7},"indices":9,"material":1,"extras":{"mixedAtlasFallback":false}},{"attributes":{"POSITION":0,"NORMAL":1,"TEXCOORD_0":2,"COLOR_0":3,"_VELDREN_NORMAL":4,"_VELDREN_COLOR":5,"_VELDREN_FALLBACK":6,"_VELDREN_MATERIAL":7},"indices":10,"material":2,"extras":{"mixedAtlasFallback":false}},{"attributes":{"POSITION":0,"NORMAL":1,"TEXCOORD_0":2,"COLOR_0":3,"_VELDREN_NORMAL":4,"_VELDREN_COLOR":5,"_VELDREN_FALLBACK":6,"_VELDREN_MATERIAL":7},"indices":11,"material":3,"extras":{"mixedAtlasFallback":false}},{"attributes":{"POSITION":0,"NORMAL":1,"TEXCOORD_0":2,"COLOR_0":3,"_VELDREN_NORMAL":4,"_VELDREN_COLOR":5,"_VELDREN_FALLBACK":6,"_VELDREN_MATERIAL":7},"indices":12,"material":4,"extras":{"mixedAtlasFallback":false}},{"attributes":{"POSITION":0,"NORMAL":1,"TEXCOORD_0":2,"COLOR_0":3,"_VELDREN_NORMAL":4,"_VELDREN_COLOR":5,"_VELDREN_FALLBACK":6,"_VELDREN_MATERIAL":7},"indices":13,"material":5,"extras":{"mixedAtlasFallback":false}}]}],"bufferViews":[{"buffer":0,"byteOffset":0,"byteLength":99216,"target":34962},{"buffer":0,"byteOffset":99216,"byteLength":99216,"target":34962},{"buffer":0,"byteOffset":198432,"byteLength":66144,"target":34962},{"buffer":0,"byteOffset":264576,"byteLength":99216,"target":34962},{"buffer":0,"byteOffset":363792,"byteLength":99216,"target":34962},{"buffer":0,"byteOffset":463008,"byteLength":99216,"target":34962},{"buffer":0,"byteOffset":562224,"byteLength":99216,"target":34962},{"buffer":0,"byteOffset":661440,"byteLength":33072,"target":34962},{"buffer":0,"byteOffset":694512,"byteLength":14976,"target":34963},{"buffer":0,"byteOffset":709488,"byteLength":72,"target":34963},{"buffer":0,"byteOffset":709560,"byteLength":6048,"target":34963},{"buffer":0,"byteOffset":715608,"byteLength":8832,"target":34963},{"buffer":0,"byteOffset":724440,"byteLength":2568,"target":34963},{"buffer":0,"byteOffset":727008,"byteLength":576,"target":34963}],"accessors":[{"bufferView":0,"componentType":5126,"count":8268,"type":"VEC3","min":[153.49000549316406,5.759219169616699,37.5099983215332],"max":[165.50999450683594,10.944585800170898,48.47758483886719]},{"bufferView":1,"componentType":5126,"count":8268,"type":"VEC3"},{"bufferView":2,"componentType":5126,"count":8268,"type":"VEC2"},{"bufferView":3,"componentType":5126,"count":8268,"type":"VEC3"},{"bufferView":4,"componentType":5126,"count":8268,"type":"VEC3"},{"bufferView":5,"componentType":5126,"count":8268,"type":"VEC3"},{"bufferView":6,"componentType":5126,"count":8268,"type":"VEC3"},{"bufferView":7,"componentType":5126,"count":8268,"type":"SCALAR"},{"bufferView":8,"componentType":5125,"count":3744,"type":"SCALAR"},{"bufferView":9,"componentType":5125,"count":18,"type":"SCALAR"},{"bufferView":10,"componentType":5125,"count":1512,"type":"SCALAR"},{"bufferView":11,"componentType":5125,"count":2208,"type":"SCALAR"},{"bufferView":12,"componentType":5125,"count":642,"type":"SCALAR"},{"bufferView":13,"componentType":5125,"count":144,"type":"SCALAR"}],"materials":[{"name":"legacy-material-5","pbrMetallicRoughness":{"baseColorFactor":[1,1,1,1],"metallicFactor":0,"roughnessFactor":1},"doubleSided":true,"extras":{"legacyMaterial":5,"legacyShader":"dist/renderer-gl.js","limitation":"Browser procedural material not implemented by this glTF export; source/base attributes retained."}},{"name":"legacy-material-13","pbrMetallicRoughness":{"baseColorFactor":[1,1,1,1],"metallicFactor":0,"roughnessFactor":1},"doubleSided":true,"extras":{"legacyMaterial":13,"legacyShader":"dist/renderer-gl.js","limitation":"Browser procedural material not implemented by this glTF export; source/base attributes retained."}},{"name":"legacy-material-20","pbrMetallicRoughness":{"baseColorFactor":[1,1,1,1],"metallicFactor":0,"roughnessFactor":1,"baseColorTexture":{"index":0}},"doubleSided":true,"extras":{"legacyMaterial":20,"legacyShader":"dist/renderer-gl.js"}},{"name":"legacy-material-17","pbrMetallicRoughness":{"baseColorFactor":[1,1,1,1],"metallicFactor":0,"roughnessFactor":1},"doubleSided":true,"extras":{"legacyMaterial":17,"legacyShader":"dist/renderer-gl.js","limitation":"Browser procedural material not implemented by this glTF export; source/base attributes retained."}},{"name":"legacy-material-7","pbrMetallicRoughness":{"baseColorFactor":[1,1,1,1],"metallicFactor":0,"roughnessFactor":1},"doubleSided":true,"extras":{"legacyMaterial":7,"legacyShader":"dist/renderer-gl.js","limitation":"Browser procedural material not implemented by this glTF export; source/base attributes retained."}},{"name":"legacy-material-6","pbrMetallicRoughness":{"baseColorFactor":[1,1,1,1],"metallicFactor":0,"roughnessFactor":1},"doubleSided":true,"extras":{"legacyMaterial":6,"legacyShader":"dist/renderer-gl.js","limitation":"Browser procedural material not implemented by this glTF export; source/base attributes retained."}}],"extras":{"veldrenAssetId":"veldren:world-part:da2fb9db6b6baee6a54f6ee0fb5386748b604523d892797e7684ad850bd18eb9"},"images":[{"name":"atlas-00","uri":"../../textures/atlas/tile-00.png"}],"textures":[{"source":0,"sampler":0}],"samplers":[{"magFilter":9729,"minFilter":9729,"wrapS":10497,"wrapT":10497}],"buffers":[{"uri":"da2fb9db6b6baee6a54f6ee0fb5386748b604523d892797e7684ad850bd18eb9.bin","byteLength":727584}]}
