{"asset":{"version":"2.0","generator":"Veldren adapted asset recovery"},"scene":0,"scenes":[{"nodes":[0]}],"nodes":[{"name":"da53ad6b011baf1b325d66115a05765e353bcc1b17574a84aedf0d88b3c7ad3d","mesh":0}],"meshes":[{"name":"da53ad6b011baf1b325d66115a05765e353bcc1b17574a84aedf0d88b3c7ad3d","primitives":[{"attributes":{"POSITION":0,"NORMAL":1,"TEXCOORD_0":2,"COLOR_0":3,"_VELDREN_NORMAL":4,"_VELDREN_COLOR":5,"_VELDREN_FALLBACK":6,"_VELDREN_MATERIAL":7},"indices":8,"material":0,"extras":{"mixedAtlasFallback":false}}]}],"bufferViews":[{"buffer":0,"byteOffset":0,"byteLength":1404,"target":34962},{"buffer":0,"byteOffset":1404,"byteLength":1404,"target":34962},{"buffer":0,"byteOffset":2808,"byteLength":936,"target":34962},{"buffer":0,"byteOffset":3744,"byteLength":1404,"target":34962},{"buffer":0,"byteOffset":5148,"byteLength":1404,"target":34962},{"buffer":0,"byteOffset":6552,"byteLength":1404,"target":34962},{"buffer":0,"byteOffset":7956,"byteLength":1404,"target":34962},{"buffer":0,"byteOffset":9360,"byteLength":468,"target":34962},{"buffer":0,"byteOffset":9828,"byteLength":468,"target":34963}],"accessors":[{"bufferView":0,"componentType":5126,"count":117,"type":"VEC3","min":[-0.5400000214576721,0.014999999664723873,-0.41999998688697815],"max":[0.530580461025238,0.6800000071525574,0.41999998688697815]},{"bufferView":1,"componentType":5126,"count":117,"type":"VEC3"},{"bufferView":2,"componentType":5126,"count":117,"type":"VEC2"},{"bufferView":3,"componentType":5126,"count":117,"type":"VEC3"},{"bufferView":4,"componentType":5126,"count":117,"type":"VEC3"},{"bufferView":5,"componentType":5126,"count":117,"type":"VEC3"},{"bufferView":6,"componentType":5126,"count":117,"type":"VEC3"},{"bufferView":7,"componentType":5126,"count":117,"type":"SCALAR"},{"bufferView":8,"componentType":5125,"count":117,"type":"SCALAR"}],"materials":[{"name":"legacy-material-12","pbrMetallicRoughness":{"baseColorFactor":[1,1,1,1],"metallicFactor":0,"roughnessFactor":1},"doubleSided":true,"extras":{"legacyMaterial":12,"legacyShader":"dist/renderer-gl.js","limitation":"Browser procedural material not implemented by this glTF export; source/base attributes retained."}}],"extras":{"veldrenAssetId":"veldren:world-part:da53ad6b011baf1b325d66115a05765e353bcc1b17574a84aedf0d88b3c7ad3d"},"buffers":[{"uri":"da53ad6b011baf1b325d66115a05765e353bcc1b17574a84aedf0d88b3c7ad3d.bin","byteLength":10296}]}
