{"asset":{"version":"2.0","generator":"Veldren adapted asset recovery"},"scene":0,"scenes":[{"nodes":[0]}],"nodes":[{"name":"dc5eeebb37498c60e3aa0d89e27a3b54bb82f38c37e50bb1ebbaf4994ce50fa2","mesh":0}],"meshes":[{"name":"dc5eeebb37498c60e3aa0d89e27a3b54bb82f38c37e50bb1ebbaf4994ce50fa2","primitives":[{"attributes":{"POSITION":0,"NORMAL":1,"TEXCOORD_0":2,"COLOR_0":3,"_VELDREN_NORMAL":4,"_VELDREN_COLOR":5,"_VELDREN_FALLBACK":6,"_VELDREN_MATERIAL":7},"indices":8,"material":0,"extras":{"mixedAtlasFallback":false}},{"attributes":{"POSITION":0,"NORMAL":1,"TEXCOORD_0":2,"COLOR_0":3,"_VELDREN_NORMAL":4,"_VELDREN_COLOR":5,"_VELDREN_FALLBACK":6,"_VELDREN_MATERIAL":7},"indices":9,"material":1,"extras":{"mixedAtlasFallback":false}},{"attributes":{"POSITION":0,"NORMAL":1,"TEXCOORD_0":2,"COLOR_0":3,"_VELDREN_NORMAL":4,"_VELDREN_COLOR":5,"_VELDREN_FALLBACK":6,"_VELDREN_MATERIAL":7},"indices":10,"material":2,"extras":{"mixedAtlasFallback":false}},{"attributes":{"POSITION":0,"NORMAL":1,"TEXCOORD_0":2,"COLOR_0":3,"_VELDREN_NORMAL":4,"_VELDREN_COLOR":5,"_VELDREN_FALLBACK":6,"_VELDREN_MATERIAL":7},"indices":11,"material":3,"extras":{"mixedAtlasFallback":false}},{"attributes":{"POSITION":0,"NORMAL":1,"TEXCOORD_0":2,"COLOR_0":3,"_VELDREN_NORMAL":4,"_VELDREN_COLOR":5,"_VELDREN_FALLBACK":6,"_VELDREN_MATERIAL":7},"indices":12,"material":4,"extras":{"mixedAtlasFallback":false}},{"attributes":{"POSITION":0,"NORMAL":1,"TEXCOORD_0":2,"COLOR_0":3,"_VELDREN_NORMAL":4,"_VELDREN_COLOR":5,"_VELDREN_FALLBACK":6,"_VELDREN_MATERIAL":7},"indices":13,"material":5,"extras":{"mixedAtlasFallback":false}}]}],"bufferViews":[{"buffer":0,"byteOffset":0,"byteLength":101232,"target":34962},{"buffer":0,"byteOffset":101232,"byteLength":101232,"target":34962},{"buffer":0,"byteOffset":202464,"byteLength":67488,"target":34962},{"buffer":0,"byteOffset":269952,"byteLength":101232,"target":34962},{"buffer":0,"byteOffset":371184,"byteLength":101232,"target":34962},{"buffer":0,"byteOffset":472416,"byteLength":101232,"target":34962},{"buffer":0,"byteOffset":573648,"byteLength":101232,"target":34962},{"buffer":0,"byteOffset":674880,"byteLength":33744,"target":34962},{"buffer":0,"byteOffset":708624,"byteLength":15264,"target":34963},{"buffer":0,"byteOffset":723888,"byteLength":456,"target":34963},{"buffer":0,"byteOffset":724344,"byteLength":6048,"target":34963},{"buffer":0,"byteOffset":730392,"byteLength":8832,"target":34963},{"buffer":0,"byteOffset":739224,"byteLength":2568,"target":34963},{"buffer":0,"byteOffset":741792,"byteLength":576,"target":34963}],"accessors":[{"bufferView":0,"componentType":5126,"count":8436,"type":"VEC3","min":[34.4900016784668,0.8050000071525574,39.5099983215332],"max":[46.5099983215332,8.419533729553223,51.487117767333984]},{"bufferView":1,"componentType":5126,"count":8436,"type":"VEC3"},{"bufferView":2,"componentType":5126,"count":8436,"type":"VEC2"},{"bufferView":3,"componentType":5126,"count":8436,"type":"VEC3"},{"bufferView":4,"componentType":5126,"count":8436,"type":"VEC3"},{"bufferView":5,"componentType":5126,"count":8436,"type":"VEC3"},{"bufferView":6,"componentType":5126,"count":8436,"type":"VEC3"},{"bufferView":7,"componentType":5126,"count":8436,"type":"SCALAR"},{"bufferView":8,"componentType":5125,"count":3816,"type":"SCALAR"},{"bufferView":9,"componentType":5125,"count":114,"type":"SCALAR"},{"bufferView":10,"componentType":5125,"count":1512,"type":"SCALAR"},{"bufferView":11,"componentType":5125,"count":2208,"type":"SCALAR"},{"bufferView":12,"componentType":5125,"count":642,"type":"SCALAR"},{"bufferView":13,"componentType":5125,"count":144,"type":"SCALAR"}],"materials":[{"name":"legacy-material-5","pbrMetallicRoughness":{"baseColorFactor":[1,1,1,1],"metallicFactor":0,"roughnessFactor":1},"doubleSided":true,"extras":{"legacyMaterial":5,"legacyShader":"dist/renderer-gl.js","limitation":"Browser procedural material not implemented by this glTF export; source/base attributes retained."}},{"name":"legacy-material-13","pbrMetallicRoughness":{"baseColorFactor":[1,1,1,1],"metallicFactor":0,"roughnessFactor":1},"doubleSided":true,"extras":{"legacyMaterial":13,"legacyShader":"dist/renderer-gl.js","limitation":"Browser procedural material not implemented by this glTF export; source/base attributes retained."}},{"name":"legacy-material-20","pbrMetallicRoughness":{"baseColorFactor":[1,1,1,1],"metallicFactor":0,"roughnessFactor":1,"baseColorTexture":{"index":0}},"doubleSided":true,"extras":{"legacyMaterial":20,"legacyShader":"dist/renderer-gl.js"}},{"name":"legacy-material-17","pbrMetallicRoughness":{"baseColorFactor":[1,1,1,1],"metallicFactor":0,"roughnessFactor":1},"doubleSided":true,"extras":{"legacyMaterial":17,"legacyShader":"dist/renderer-gl.js","limitation":"Browser procedural material not implemented by this glTF export; source/base attributes retained."}},{"name":"legacy-material-7","pbrMetallicRoughness":{"baseColorFactor":[1,1,1,1],"metallicFactor":0,"roughnessFactor":1},"doubleSided":true,"extras":{"legacyMaterial":7,"legacyShader":"dist/renderer-gl.js","limitation":"Browser procedural material not implemented by this glTF export; source/base attributes retained."}},{"name":"legacy-material-6","pbrMetallicRoughness":{"baseColorFactor":[1,1,1,1],"metallicFactor":0,"roughnessFactor":1},"doubleSided":true,"extras":{"legacyMaterial":6,"legacyShader":"dist/renderer-gl.js","limitation":"Browser procedural material not implemented by this glTF export; source/base attributes retained."}}],"extras":{"veldrenAssetId":"veldren:world-part:dc5eeebb37498c60e3aa0d89e27a3b54bb82f38c37e50bb1ebbaf4994ce50fa2"},"images":[{"name":"atlas-00","uri":"../../textures/atlas/tile-00.png"}],"textures":[{"source":0,"sampler":0}],"samplers":[{"magFilter":9729,"minFilter":9729,"wrapS":10497,"wrapT":10497}],"buffers":[{"uri":"dc5eeebb37498c60e3aa0d89e27a3b54bb82f38c37e50bb1ebbaf4994ce50fa2.bin","byteLength":742368}]}
