{"asset":{"version":"2.0","generator":"Veldren adapted asset recovery"},"scene":0,"scenes":[{"nodes":[0]}],"nodes":[{"name":"ddcc3d6e1ffba2575a9ad5c6e02f5f299d918638f3e83151b75ace5729ff5966","mesh":0}],"meshes":[{"name":"ddcc3d6e1ffba2575a9ad5c6e02f5f299d918638f3e83151b75ace5729ff5966","primitives":[{"attributes":{"POSITION":0,"NORMAL":1,"TEXCOORD_0":2,"COLOR_0":3,"_VELDREN_NORMAL":4,"_VELDREN_COLOR":5,"_VELDREN_FALLBACK":6,"_VELDREN_MATERIAL":7},"indices":8,"material":0,"extras":{"mixedAtlasFallback":false}},{"attributes":{"POSITION":0,"NORMAL":1,"TEXCOORD_0":2,"COLOR_0":3,"_VELDREN_NORMAL":4,"_VELDREN_COLOR":5,"_VELDREN_FALLBACK":6,"_VELDREN_MATERIAL":7},"indices":9,"material":1,"extras":{"mixedAtlasFallback":false}}]}],"bufferViews":[{"buffer":0,"byteOffset":0,"byteLength":7536,"target":34962},{"buffer":0,"byteOffset":7536,"byteLength":7536,"target":34962},{"buffer":0,"byteOffset":15072,"byteLength":5024,"target":34962},{"buffer":0,"byteOffset":20096,"byteLength":7536,"target":34962},{"buffer":0,"byteOffset":27632,"byteLength":7536,"target":34962},{"buffer":0,"byteOffset":35168,"byteLength":7536,"target":34962},{"buffer":0,"byteOffset":42704,"byteLength":7536,"target":34962},{"buffer":0,"byteOffset":50240,"byteLength":2512,"target":34962},{"buffer":0,"byteOffset":52752,"byteLength":4368,"target":34963},{"buffer":0,"byteOffset":57120,"byteLength":1584,"target":34963}],"accessors":[{"bufferView":0,"componentType":5126,"count":628,"type":"VEC3","min":[-0.29025912284851074,-0.0027060508728027344,-0.29154688119888306],"max":[0.29025912284851074,1.1205782890319824,0.25739121437072754]},{"bufferView":1,"componentType":5126,"count":628,"type":"VEC3"},{"bufferView":2,"componentType":5126,"count":628,"type":"VEC2"},{"bufferView":3,"componentType":5126,"count":628,"type":"VEC3"},{"bufferView":4,"componentType":5126,"count":628,"type":"VEC3"},{"bufferView":5,"componentType":5126,"count":628,"type":"VEC3"},{"bufferView":6,"componentType":5126,"count":628,"type":"VEC3"},{"bufferView":7,"componentType":5126,"count":628,"type":"SCALAR"},{"bufferView":8,"componentType":5125,"count":1092,"type":"SCALAR"},{"bufferView":9,"componentType":5125,"count":396,"type":"SCALAR"}],"materials":[{"name":"legacy-material-43","pbrMetallicRoughness":{"baseColorFactor":[1,1,1,1],"metallicFactor":0,"roughnessFactor":1,"baseColorTexture":{"index":0}},"doubleSided":true,"extras":{"legacyMaterial":43,"legacyShader":"dist/renderer-gl.js"}},{"name":"legacy-material-42","pbrMetallicRoughness":{"baseColorFactor":[1,1,1,1],"metallicFactor":0,"roughnessFactor":1,"baseColorTexture":{"index":1}},"doubleSided":true,"extras":{"legacyMaterial":42,"legacyShader":"dist/renderer-gl.js"}}],"extras":{"veldrenAssetId":"veldren:world-part:ddcc3d6e1ffba2575a9ad5c6e02f5f299d918638f3e83151b75ace5729ff5966"},"images":[{"name":"atlas-23","uri":"../../textures/atlas/tile-23.png"},{"name":"atlas-22","uri":"../../textures/atlas/tile-22.png"}],"textures":[{"source":0,"sampler":0},{"source":1,"sampler":0}],"samplers":[{"magFilter":9729,"minFilter":9729,"wrapS":10497,"wrapT":10497}],"buffers":[{"uri":"ddcc3d6e1ffba2575a9ad5c6e02f5f299d918638f3e83151b75ace5729ff5966.bin","byteLength":58704}]}
