{"asset":{"version":"2.0","generator":"Veldren adapted asset recovery"},"scene":0,"scenes":[{"nodes":[0]}],"nodes":[{"name":"ddeaff8b70527d0dd15bc8e0ff602e3e705d4014b6f40cb36fa47aade313617c","mesh":0}],"meshes":[{"name":"ddeaff8b70527d0dd15bc8e0ff602e3e705d4014b6f40cb36fa47aade313617c","primitives":[{"attributes":{"POSITION":0,"NORMAL":1,"TEXCOORD_0":2,"COLOR_0":3,"_VELDREN_NORMAL":4,"_VELDREN_COLOR":5,"_VELDREN_FALLBACK":6,"_VELDREN_MATERIAL":7},"indices":8,"material":0,"extras":{"mixedAtlasFallback":false}},{"attributes":{"POSITION":0,"NORMAL":1,"TEXCOORD_0":2,"COLOR_0":3,"_VELDREN_NORMAL":4,"_VELDREN_COLOR":5,"_VELDREN_FALLBACK":6,"_VELDREN_MATERIAL":7},"indices":9,"material":1,"extras":{"mixedAtlasFallback":false}},{"attributes":{"POSITION":0,"NORMAL":1,"TEXCOORD_0":2,"COLOR_0":3,"_VELDREN_NORMAL":4,"_VELDREN_COLOR":5,"_VELDREN_FALLBACK":6,"_VELDREN_MATERIAL":7},"indices":10,"material":2,"extras":{"mixedAtlasFallback":false}},{"attributes":{"POSITION":0,"NORMAL":1,"TEXCOORD_0":2,"COLOR_0":3,"_VELDREN_NORMAL":4,"_VELDREN_COLOR":5,"_VELDREN_FALLBACK":6,"_VELDREN_MATERIAL":7},"indices":11,"material":3,"extras":{"mixedAtlasFallback":false}},{"attributes":{"POSITION":0,"NORMAL":1,"TEXCOORD_0":2,"COLOR_0":3,"_VELDREN_NORMAL":4,"_VELDREN_COLOR":5,"_VELDREN_FALLBACK":6,"_VELDREN_MATERIAL":7},"indices":12,"material":4,"extras":{"mixedAtlasFallback":false}}]}],"bufferViews":[{"buffer":0,"byteOffset":0,"byteLength":92232,"target":34962},{"buffer":0,"byteOffset":92232,"byteLength":92232,"target":34962},{"buffer":0,"byteOffset":184464,"byteLength":61488,"target":34962},{"buffer":0,"byteOffset":245952,"byteLength":92232,"target":34962},{"buffer":0,"byteOffset":338184,"byteLength":92232,"target":34962},{"buffer":0,"byteOffset":430416,"byteLength":92232,"target":34962},{"buffer":0,"byteOffset":522648,"byteLength":92232,"target":34962},{"buffer":0,"byteOffset":614880,"byteLength":30744,"target":34962},{"buffer":0,"byteOffset":645624,"byteLength":10032,"target":34963},{"buffer":0,"byteOffset":655656,"byteLength":192,"target":34963},{"buffer":0,"byteOffset":655848,"byteLength":17856,"target":34963},{"buffer":0,"byteOffset":673704,"byteLength":576,"target":34963},{"buffer":0,"byteOffset":674280,"byteLength":2088,"target":34963}],"accessors":[{"bufferView":0,"componentType":5126,"count":7686,"type":"VEC3","min":[404.489990234375,2.5762603282928467,77.51000213623047],"max":[418.510009765625,10.35728931427002,90.47758483886719]},{"bufferView":1,"componentType":5126,"count":7686,"type":"VEC3"},{"bufferView":2,"componentType":5126,"count":7686,"type":"VEC2"},{"bufferView":3,"componentType":5126,"count":7686,"type":"VEC3"},{"bufferView":4,"componentType":5126,"count":7686,"type":"VEC3"},{"bufferView":5,"componentType":5126,"count":7686,"type":"VEC3"},{"bufferView":6,"componentType":5126,"count":7686,"type":"VEC3"},{"bufferView":7,"componentType":5126,"count":7686,"type":"SCALAR"},{"bufferView":8,"componentType":5125,"count":2508,"type":"SCALAR"},{"bufferView":9,"componentType":5125,"count":48,"type":"SCALAR"},{"bufferView":10,"componentType":5125,"count":4464,"type":"SCALAR"},{"bufferView":11,"componentType":5125,"count":144,"type":"SCALAR"},{"bufferView":12,"componentType":5125,"count":522,"type":"SCALAR"}],"materials":[{"name":"legacy-material-5","pbrMetallicRoughness":{"baseColorFactor":[1,1,1,1],"metallicFactor":0,"roughnessFactor":1},"doubleSided":true,"extras":{"legacyMaterial":5,"legacyShader":"dist/renderer-gl.js","limitation":"Browser procedural material not implemented by this glTF export; source/base attributes retained."}},{"name":"legacy-material-13","pbrMetallicRoughness":{"baseColorFactor":[1,1,1,1],"metallicFactor":0,"roughnessFactor":1},"doubleSided":true,"extras":{"legacyMaterial":13,"legacyShader":"dist/renderer-gl.js","limitation":"Browser procedural material not implemented by this glTF export; source/base attributes retained."}},{"name":"legacy-material-17","pbrMetallicRoughness":{"baseColorFactor":[1,1,1,1],"metallicFactor":0,"roughnessFactor":1},"doubleSided":true,"extras":{"legacyMaterial":17,"legacyShader":"dist/renderer-gl.js","limitation":"Browser procedural material not implemented by this glTF export; source/base attributes retained."}},{"name":"legacy-material-6","pbrMetallicRoughness":{"baseColorFactor":[1,1,1,1],"metallicFactor":0,"roughnessFactor":1},"doubleSided":true,"extras":{"legacyMaterial":6,"legacyShader":"dist/renderer-gl.js","limitation":"Browser procedural material not implemented by this glTF export; source/base attributes retained."}},{"name":"legacy-material-7","pbrMetallicRoughness":{"baseColorFactor":[1,1,1,1],"metallicFactor":0,"roughnessFactor":1},"doubleSided":true,"extras":{"legacyMaterial":7,"legacyShader":"dist/renderer-gl.js","limitation":"Browser procedural material not implemented by this glTF export; source/base attributes retained."}}],"extras":{"veldrenAssetId":"veldren:world-part:ddeaff8b70527d0dd15bc8e0ff602e3e705d4014b6f40cb36fa47aade313617c"},"buffers":[{"uri":"ddeaff8b70527d0dd15bc8e0ff602e3e705d4014b6f40cb36fa47aade313617c.bin","byteLength":676368}]}
