{"asset":{"version":"2.0","generator":"Veldren adapted asset recovery"},"scene":0,"scenes":[{"nodes":[0]}],"nodes":[{"name":"de82ae84d81cb92c0908028b9d8964edda5c643caf313b31c9d8fa15f4b24df9","mesh":0}],"meshes":[{"name":"de82ae84d81cb92c0908028b9d8964edda5c643caf313b31c9d8fa15f4b24df9","primitives":[{"attributes":{"POSITION":0,"NORMAL":1,"TEXCOORD_0":2,"COLOR_0":3,"_VELDREN_NORMAL":4,"_VELDREN_COLOR":5,"_VELDREN_FALLBACK":6,"_VELDREN_MATERIAL":7},"indices":8,"material":0,"extras":{"mixedAtlasFallback":false}},{"attributes":{"POSITION":0,"NORMAL":1,"TEXCOORD_0":2,"COLOR_0":3,"_VELDREN_NORMAL":4,"_VELDREN_COLOR":5,"_VELDREN_FALLBACK":6,"_VELDREN_MATERIAL":7},"indices":9,"material":1,"extras":{"mixedAtlasFallback":false}},{"attributes":{"POSITION":0,"NORMAL":1,"TEXCOORD_0":2,"COLOR_0":3,"_VELDREN_NORMAL":4,"_VELDREN_COLOR":5,"_VELDREN_FALLBACK":6,"_VELDREN_MATERIAL":7},"indices":10,"material":2,"extras":{"mixedAtlasFallback":false}},{"attributes":{"POSITION":0,"NORMAL":1,"TEXCOORD_0":2,"COLOR_0":3,"_VELDREN_NORMAL":4,"_VELDREN_COLOR":5,"_VELDREN_FALLBACK":6,"_VELDREN_MATERIAL":7},"indices":11,"material":3,"extras":{"mixedAtlasFallback":false}},{"attributes":{"POSITION":0,"NORMAL":1,"TEXCOORD_0":2,"COLOR_0":3,"_VELDREN_NORMAL":4,"_VELDREN_COLOR":5,"_VELDREN_FALLBACK":6,"_VELDREN_MATERIAL":7},"indices":12,"material":4,"extras":{"mixedAtlasFallback":false}},{"attributes":{"POSITION":0,"NORMAL":1,"TEXCOORD_0":2,"COLOR_0":3,"_VELDREN_NORMAL":4,"_VELDREN_COLOR":5,"_VELDREN_FALLBACK":6,"_VELDREN_MATERIAL":7},"indices":13,"material":5,"extras":{"mixedAtlasFallback":false}},{"attributes":{"POSITION":0,"NORMAL":1,"TEXCOORD_0":2,"COLOR_0":3,"_VELDREN_NORMAL":4,"_VELDREN_COLOR":5,"_VELDREN_FALLBACK":6,"_VELDREN_MATERIAL":7},"indices":14,"material":6,"extras":{"mixedAtlasFallback":false}}]}],"bufferViews":[{"buffer":0,"byteOffset":0,"byteLength":101016,"target":34962},{"buffer":0,"byteOffset":101016,"byteLength":101016,"target":34962},{"buffer":0,"byteOffset":202032,"byteLength":67344,"target":34962},{"buffer":0,"byteOffset":269376,"byteLength":101016,"target":34962},{"buffer":0,"byteOffset":370392,"byteLength":101016,"target":34962},{"buffer":0,"byteOffset":471408,"byteLength":101016,"target":34962},{"buffer":0,"byteOffset":572424,"byteLength":101016,"target":34962},{"buffer":0,"byteOffset":673440,"byteLength":33672,"target":34962},{"buffer":0,"byteOffset":707112,"byteLength":2640,"target":34963},{"buffer":0,"byteOffset":709752,"byteLength":384,"target":34963},{"buffer":0,"byteOffset":710136,"byteLength":12624,"target":34963},{"buffer":0,"byteOffset":722760,"byteLength":6048,"target":34963},{"buffer":0,"byteOffset":728808,"byteLength":8832,"target":34963},{"buffer":0,"byteOffset":737640,"byteLength":2568,"target":34963},{"buffer":0,"byteOffset":740208,"byteLength":576,"target":34963}],"accessors":[{"bufferView":0,"componentType":5126,"count":8418,"type":"VEC3","min":[73.85853576660156,0.8050000071525574,31.489999771118164],"max":[85.48999786376953,5.990366458892822,43.5099983215332]},{"bufferView":1,"componentType":5126,"count":8418,"type":"VEC3"},{"bufferView":2,"componentType":5126,"count":8418,"type":"VEC2"},{"bufferView":3,"componentType":5126,"count":8418,"type":"VEC3"},{"bufferView":4,"componentType":5126,"count":8418,"type":"VEC3"},{"bufferView":5,"componentType":5126,"count":8418,"type":"VEC3"},{"bufferView":6,"componentType":5126,"count":8418,"type":"VEC3"},{"bufferView":7,"componentType":5126,"count":8418,"type":"SCALAR"},{"bufferView":8,"componentType":5125,"count":660,"type":"SCALAR"},{"bufferView":9,"componentType":5125,"count":96,"type":"SCALAR"},{"bufferView":10,"componentType":5125,"count":3156,"type":"SCALAR"},{"bufferView":11,"componentType":5125,"count":1512,"type":"SCALAR"},{"bufferView":12,"componentType":5125,"count":2208,"type":"SCALAR"},{"bufferView":13,"componentType":5125,"count":642,"type":"SCALAR"},{"bufferView":14,"componentType":5125,"count":144,"type":"SCALAR"}],"materials":[{"name":"legacy-material-3","pbrMetallicRoughness":{"baseColorFactor":[1,1,1,1],"metallicFactor":0,"roughnessFactor":1},"doubleSided":true,"extras":{"legacyMaterial":3,"legacyShader":"dist/renderer-gl.js","limitation":"Browser procedural material not implemented by this glTF export; source/base attributes retained."}},{"name":"legacy-material-13","pbrMetallicRoughness":{"baseColorFactor":[1,1,1,1],"metallicFactor":0,"roughnessFactor":1},"doubleSided":true,"extras":{"legacyMaterial":13,"legacyShader":"dist/renderer-gl.js","limitation":"Browser procedural material not implemented by this glTF export; source/base attributes retained."}},{"name":"legacy-material-5","pbrMetallicRoughness":{"baseColorFactor":[1,1,1,1],"metallicFactor":0,"roughnessFactor":1},"doubleSided":true,"extras":{"legacyMaterial":5,"legacyShader":"dist/renderer-gl.js","limitation":"Browser procedural material not implemented by this glTF export; source/base attributes retained."}},{"name":"legacy-material-20","pbrMetallicRoughness":{"baseColorFactor":[1,1,1,1],"metallicFactor":0,"roughnessFactor":1,"baseColorTexture":{"index":0}},"doubleSided":true,"extras":{"legacyMaterial":20,"legacyShader":"dist/renderer-gl.js"}},{"name":"legacy-material-17","pbrMetallicRoughness":{"baseColorFactor":[1,1,1,1],"metallicFactor":0,"roughnessFactor":1},"doubleSided":true,"extras":{"legacyMaterial":17,"legacyShader":"dist/renderer-gl.js","limitation":"Browser procedural material not implemented by this glTF export; source/base attributes retained."}},{"name":"legacy-material-7","pbrMetallicRoughness":{"baseColorFactor":[1,1,1,1],"metallicFactor":0,"roughnessFactor":1},"doubleSided":true,"extras":{"legacyMaterial":7,"legacyShader":"dist/renderer-gl.js","limitation":"Browser procedural material not implemented by this glTF export; source/base attributes retained."}},{"name":"legacy-material-6","pbrMetallicRoughness":{"baseColorFactor":[1,1,1,1],"metallicFactor":0,"roughnessFactor":1},"doubleSided":true,"extras":{"legacyMaterial":6,"legacyShader":"dist/renderer-gl.js","limitation":"Browser procedural material not implemented by this glTF export; source/base attributes retained."}}],"extras":{"veldrenAssetId":"veldren:world-part:de82ae84d81cb92c0908028b9d8964edda5c643caf313b31c9d8fa15f4b24df9"},"images":[{"name":"atlas-00","uri":"../../textures/atlas/tile-00.png"}],"textures":[{"source":0,"sampler":0}],"samplers":[{"magFilter":9729,"minFilter":9729,"wrapS":10497,"wrapT":10497}],"buffers":[{"uri":"de82ae84d81cb92c0908028b9d8964edda5c643caf313b31c9d8fa15f4b24df9.bin","byteLength":740784}]}
