{"asset":{"version":"2.0","generator":"Veldren adapted asset recovery"},"scene":0,"scenes":[{"nodes":[0]}],"nodes":[{"name":"dfc2d3640a47c923e6a59922d2eca7d02e24b0ae45b9d239f852617660cebe02","mesh":0}],"meshes":[{"name":"dfc2d3640a47c923e6a59922d2eca7d02e24b0ae45b9d239f852617660cebe02","primitives":[{"attributes":{"POSITION":0,"NORMAL":1,"TEXCOORD_0":2,"COLOR_0":3,"_VELDREN_NORMAL":4,"_VELDREN_COLOR":5,"_VELDREN_FALLBACK":6,"_VELDREN_MATERIAL":7},"indices":8,"material":0,"extras":{"mixedAtlasFallback":false}},{"attributes":{"POSITION":0,"NORMAL":1,"TEXCOORD_0":2,"COLOR_0":3,"_VELDREN_NORMAL":4,"_VELDREN_COLOR":5,"_VELDREN_FALLBACK":6,"_VELDREN_MATERIAL":7},"indices":9,"material":1,"extras":{"mixedAtlasFallback":false}},{"attributes":{"POSITION":0,"NORMAL":1,"TEXCOORD_0":2,"COLOR_0":3,"_VELDREN_NORMAL":4,"_VELDREN_COLOR":5,"_VELDREN_FALLBACK":6,"_VELDREN_MATERIAL":7},"indices":10,"material":2,"extras":{"mixedAtlasFallback":false}},{"attributes":{"POSITION":0,"NORMAL":1,"TEXCOORD_0":2,"COLOR_0":3,"_VELDREN_NORMAL":4,"_VELDREN_COLOR":5,"_VELDREN_FALLBACK":6,"_VELDREN_MATERIAL":7},"indices":11,"material":3,"extras":{"mixedAtlasFallback":false}},{"attributes":{"POSITION":0,"NORMAL":1,"TEXCOORD_0":2,"COLOR_0":3,"_VELDREN_NORMAL":4,"_VELDREN_COLOR":5,"_VELDREN_FALLBACK":6,"_VELDREN_MATERIAL":7},"indices":12,"material":4,"extras":{"mixedAtlasFallback":false}},{"attributes":{"POSITION":0,"NORMAL":1,"TEXCOORD_0":2,"COLOR_0":3,"_VELDREN_NORMAL":4,"_VELDREN_COLOR":5,"_VELDREN_FALLBACK":6,"_VELDREN_MATERIAL":7},"indices":13,"material":5,"extras":{"mixedAtlasFallback":false}}]}],"bufferViews":[{"buffer":0,"byteOffset":0,"byteLength":96336,"target":34962},{"buffer":0,"byteOffset":96336,"byteLength":96336,"target":34962},{"buffer":0,"byteOffset":192672,"byteLength":64224,"target":34962},{"buffer":0,"byteOffset":256896,"byteLength":96336,"target":34962},{"buffer":0,"byteOffset":353232,"byteLength":96336,"target":34962},{"buffer":0,"byteOffset":449568,"byteLength":96336,"target":34962},{"buffer":0,"byteOffset":545904,"byteLength":96336,"target":34962},{"buffer":0,"byteOffset":642240,"byteLength":32112,"target":34962},{"buffer":0,"byteOffset":674352,"byteLength":9936,"target":34963},{"buffer":0,"byteOffset":684288,"byteLength":72,"target":34963},{"buffer":0,"byteOffset":684360,"byteLength":6048,"target":34963},{"buffer":0,"byteOffset":690408,"byteLength":13392,"target":34963},{"buffer":0,"byteOffset":703800,"byteLength":576,"target":34963},{"buffer":0,"byteOffset":704376,"byteLength":2088,"target":34963}],"accessors":[{"bufferView":0,"componentType":5126,"count":8028,"type":"VEC3","min":[191.49000549316406,5.759219169616699,75.51000213623047],"max":[203.50999450683594,10.944585800170898,86.47758483886719]},{"bufferView":1,"componentType":5126,"count":8028,"type":"VEC3"},{"bufferView":2,"componentType":5126,"count":8028,"type":"VEC2"},{"bufferView":3,"componentType":5126,"count":8028,"type":"VEC3"},{"bufferView":4,"componentType":5126,"count":8028,"type":"VEC3"},{"bufferView":5,"componentType":5126,"count":8028,"type":"VEC3"},{"bufferView":6,"componentType":5126,"count":8028,"type":"VEC3"},{"bufferView":7,"componentType":5126,"count":8028,"type":"SCALAR"},{"bufferView":8,"componentType":5125,"count":2484,"type":"SCALAR"},{"bufferView":9,"componentType":5125,"count":18,"type":"SCALAR"},{"bufferView":10,"componentType":5125,"count":1512,"type":"SCALAR"},{"bufferView":11,"componentType":5125,"count":3348,"type":"SCALAR"},{"bufferView":12,"componentType":5125,"count":144,"type":"SCALAR"},{"bufferView":13,"componentType":5125,"count":522,"type":"SCALAR"}],"materials":[{"name":"legacy-material-5","pbrMetallicRoughness":{"baseColorFactor":[1,1,1,1],"metallicFactor":0,"roughnessFactor":1},"doubleSided":true,"extras":{"legacyMaterial":5,"legacyShader":"dist/renderer-gl.js","limitation":"Browser procedural material not implemented by this glTF export; source/base attributes retained."}},{"name":"legacy-material-13","pbrMetallicRoughness":{"baseColorFactor":[1,1,1,1],"metallicFactor":0,"roughnessFactor":1},"doubleSided":true,"extras":{"legacyMaterial":13,"legacyShader":"dist/renderer-gl.js","limitation":"Browser procedural material not implemented by this glTF export; source/base attributes retained."}},{"name":"legacy-material-20","pbrMetallicRoughness":{"baseColorFactor":[1,1,1,1],"metallicFactor":0,"roughnessFactor":1,"baseColorTexture":{"index":0}},"doubleSided":true,"extras":{"legacyMaterial":20,"legacyShader":"dist/renderer-gl.js"}},{"name":"legacy-material-17","pbrMetallicRoughness":{"baseColorFactor":[1,1,1,1],"metallicFactor":0,"roughnessFactor":1},"doubleSided":true,"extras":{"legacyMaterial":17,"legacyShader":"dist/renderer-gl.js","limitation":"Browser procedural material not implemented by this glTF export; source/base attributes retained."}},{"name":"legacy-material-6","pbrMetallicRoughness":{"baseColorFactor":[1,1,1,1],"metallicFactor":0,"roughnessFactor":1},"doubleSided":true,"extras":{"legacyMaterial":6,"legacyShader":"dist/renderer-gl.js","limitation":"Browser procedural material not implemented by this glTF export; source/base attributes retained."}},{"name":"legacy-material-7","pbrMetallicRoughness":{"baseColorFactor":[1,1,1,1],"metallicFactor":0,"roughnessFactor":1},"doubleSided":true,"extras":{"legacyMaterial":7,"legacyShader":"dist/renderer-gl.js","limitation":"Browser procedural material not implemented by this glTF export; source/base attributes retained."}}],"extras":{"veldrenAssetId":"veldren:world-part:dfc2d3640a47c923e6a59922d2eca7d02e24b0ae45b9d239f852617660cebe02"},"images":[{"name":"atlas-00","uri":"../../textures/atlas/tile-00.png"}],"textures":[{"source":0,"sampler":0}],"samplers":[{"magFilter":9729,"minFilter":9729,"wrapS":10497,"wrapT":10497}],"buffers":[{"uri":"dfc2d3640a47c923e6a59922d2eca7d02e24b0ae45b9d239f852617660cebe02.bin","byteLength":706464}]}
