{"asset":{"version":"2.0","generator":"Veldren adapted asset recovery"},"scene":0,"scenes":[{"nodes":[0]}],"nodes":[{"name":"e1d11f27d15a4514ec26bc3d87d03a340765cec252bf421fb8d5b48bd996c1b2","mesh":0}],"meshes":[{"name":"e1d11f27d15a4514ec26bc3d87d03a340765cec252bf421fb8d5b48bd996c1b2","primitives":[{"attributes":{"POSITION":0,"NORMAL":1,"TEXCOORD_0":2,"COLOR_0":3,"_VELDREN_NORMAL":4,"_VELDREN_COLOR":5,"_VELDREN_FALLBACK":6,"_VELDREN_MATERIAL":7},"indices":8,"material":0,"extras":{"mixedAtlasFallback":false}},{"attributes":{"POSITION":0,"NORMAL":1,"TEXCOORD_0":2,"COLOR_0":3,"_VELDREN_NORMAL":4,"_VELDREN_COLOR":5,"_VELDREN_FALLBACK":6,"_VELDREN_MATERIAL":7},"indices":9,"material":1,"extras":{"mixedAtlasFallback":false}}]}],"bufferViews":[{"buffer":0,"byteOffset":0,"byteLength":11880,"target":34962},{"buffer":0,"byteOffset":11880,"byteLength":11880,"target":34962},{"buffer":0,"byteOffset":23760,"byteLength":7920,"target":34962},{"buffer":0,"byteOffset":31680,"byteLength":11880,"target":34962},{"buffer":0,"byteOffset":43560,"byteLength":11880,"target":34962},{"buffer":0,"byteOffset":55440,"byteLength":11880,"target":34962},{"buffer":0,"byteOffset":67320,"byteLength":11880,"target":34962},{"buffer":0,"byteOffset":79200,"byteLength":3960,"target":34962},{"buffer":0,"byteOffset":83160,"byteLength":672,"target":34963},{"buffer":0,"byteOffset":83832,"byteLength":3288,"target":34963}],"accessors":[{"bufferView":0,"componentType":5126,"count":990,"type":"VEC3","min":[767.8800048828125,3.0348751544952393,71.32499694824219],"max":[769.1199951171875,4.798548221588135,71.80012512207031]},{"bufferView":1,"componentType":5126,"count":990,"type":"VEC3"},{"bufferView":2,"componentType":5126,"count":990,"type":"VEC2"},{"bufferView":3,"componentType":5126,"count":990,"type":"VEC3"},{"bufferView":4,"componentType":5126,"count":990,"type":"VEC3"},{"bufferView":5,"componentType":5126,"count":990,"type":"VEC3"},{"bufferView":6,"componentType":5126,"count":990,"type":"VEC3"},{"bufferView":7,"componentType":5126,"count":990,"type":"SCALAR"},{"bufferView":8,"componentType":5125,"count":168,"type":"SCALAR"},{"bufferView":9,"componentType":5125,"count":822,"type":"SCALAR"}],"materials":[{"name":"legacy-material-5","pbrMetallicRoughness":{"baseColorFactor":[1,1,1,1],"metallicFactor":0,"roughnessFactor":1},"doubleSided":true,"extras":{"legacyMaterial":5,"legacyShader":"dist/renderer-gl.js","limitation":"Browser procedural material not implemented by this glTF export; source/base attributes retained."}},{"name":"legacy-material-13","pbrMetallicRoughness":{"baseColorFactor":[1,1,1,1],"metallicFactor":0,"roughnessFactor":1},"doubleSided":true,"extras":{"legacyMaterial":13,"legacyShader":"dist/renderer-gl.js","limitation":"Browser procedural material not implemented by this glTF export; source/base attributes retained."}}],"extras":{"veldrenAssetId":"veldren:world-part:e1d11f27d15a4514ec26bc3d87d03a340765cec252bf421fb8d5b48bd996c1b2"},"buffers":[{"uri":"e1d11f27d15a4514ec26bc3d87d03a340765cec252bf421fb8d5b48bd996c1b2.bin","byteLength":87120}]}
