{"asset":{"version":"2.0","generator":"Veldren adapted asset recovery"},"scene":0,"scenes":[{"nodes":[0]}],"nodes":[{"name":"e2e52851fd1568f877878feb2738395cd33b52b1e9ef985ff3aa899c642fd6e5","mesh":0}],"meshes":[{"name":"e2e52851fd1568f877878feb2738395cd33b52b1e9ef985ff3aa899c642fd6e5","primitives":[{"attributes":{"POSITION":0,"NORMAL":1,"TEXCOORD_0":2,"COLOR_0":3,"_VELDREN_NORMAL":4,"_VELDREN_COLOR":5,"_VELDREN_FALLBACK":6,"_VELDREN_MATERIAL":7},"indices":8,"material":0,"extras":{"mixedAtlasFallback":false}},{"attributes":{"POSITION":0,"NORMAL":1,"TEXCOORD_0":2,"COLOR_0":3,"_VELDREN_NORMAL":4,"_VELDREN_COLOR":5,"_VELDREN_FALLBACK":6,"_VELDREN_MATERIAL":7},"indices":9,"material":1,"extras":{"mixedAtlasFallback":false}}]}],"bufferViews":[{"buffer":0,"byteOffset":0,"byteLength":1692,"target":34962},{"buffer":0,"byteOffset":1692,"byteLength":1692,"target":34962},{"buffer":0,"byteOffset":3384,"byteLength":1128,"target":34962},{"buffer":0,"byteOffset":4512,"byteLength":1692,"target":34962},{"buffer":0,"byteOffset":6204,"byteLength":1692,"target":34962},{"buffer":0,"byteOffset":7896,"byteLength":1692,"target":34962},{"buffer":0,"byteOffset":9588,"byteLength":1692,"target":34962},{"buffer":0,"byteOffset":11280,"byteLength":564,"target":34962},{"buffer":0,"byteOffset":11844,"byteLength":528,"target":34963},{"buffer":0,"byteOffset":12372,"byteLength":36,"target":34963}],"accessors":[{"bufferView":0,"componentType":5126,"count":141,"type":"VEC3","min":[208.4149932861328,7.273608207702637,138.4263916015625],"max":[209.5,10.373607635498047,138.5736083984375]},{"bufferView":1,"componentType":5126,"count":141,"type":"VEC3"},{"bufferView":2,"componentType":5126,"count":141,"type":"VEC2"},{"bufferView":3,"componentType":5126,"count":141,"type":"VEC3"},{"bufferView":4,"componentType":5126,"count":141,"type":"VEC3"},{"bufferView":5,"componentType":5126,"count":141,"type":"VEC3"},{"bufferView":6,"componentType":5126,"count":141,"type":"VEC3"},{"bufferView":7,"componentType":5126,"count":141,"type":"SCALAR"},{"bufferView":8,"componentType":5125,"count":132,"type":"SCALAR"},{"bufferView":9,"componentType":5125,"count":9,"type":"SCALAR"}],"materials":[{"name":"legacy-material-20","pbrMetallicRoughness":{"baseColorFactor":[1,1,1,1],"metallicFactor":0,"roughnessFactor":1,"baseColorTexture":{"index":0}},"doubleSided":true,"extras":{"legacyMaterial":20,"legacyShader":"dist/renderer-gl.js"}},{"name":"legacy-material-13","pbrMetallicRoughness":{"baseColorFactor":[1,1,1,1],"metallicFactor":0,"roughnessFactor":1},"doubleSided":true,"extras":{"legacyMaterial":13,"legacyShader":"dist/renderer-gl.js","limitation":"Browser procedural material not implemented by this glTF export; source/base attributes retained."}}],"extras":{"veldrenAssetId":"veldren:world-part:e2e52851fd1568f877878feb2738395cd33b52b1e9ef985ff3aa899c642fd6e5"},"images":[{"name":"atlas-00","uri":"../../textures/atlas/tile-00.png"}],"textures":[{"source":0,"sampler":0}],"samplers":[{"magFilter":9729,"minFilter":9729,"wrapS":10497,"wrapT":10497}],"buffers":[{"uri":"e2e52851fd1568f877878feb2738395cd33b52b1e9ef985ff3aa899c642fd6e5.bin","byteLength":12408}]}
