{"asset":{"version":"2.0","generator":"Veldren adapted asset recovery"},"scene":0,"scenes":[{"nodes":[0]}],"nodes":[{"name":"e3fe9d3b5f93801ba8b4803d19258d72148059742439f7cfdaa7a1ddfd143e37","mesh":0}],"meshes":[{"name":"e3fe9d3b5f93801ba8b4803d19258d72148059742439f7cfdaa7a1ddfd143e37","primitives":[{"attributes":{"POSITION":0,"NORMAL":1,"TEXCOORD_0":2,"COLOR_0":3,"_VELDREN_NORMAL":4,"_VELDREN_COLOR":5,"_VELDREN_FALLBACK":6,"_VELDREN_MATERIAL":7},"indices":8,"material":0,"extras":{"mixedAtlasFallback":false}}]}],"bufferViews":[{"buffer":0,"byteOffset":0,"byteLength":6048,"target":34962},{"buffer":0,"byteOffset":6048,"byteLength":6048,"target":34962},{"buffer":0,"byteOffset":12096,"byteLength":4032,"target":34962},{"buffer":0,"byteOffset":16128,"byteLength":6048,"target":34962},{"buffer":0,"byteOffset":22176,"byteLength":6048,"target":34962},{"buffer":0,"byteOffset":28224,"byteLength":6048,"target":34962},{"buffer":0,"byteOffset":34272,"byteLength":6048,"target":34962},{"buffer":0,"byteOffset":40320,"byteLength":2016,"target":34962},{"buffer":0,"byteOffset":42336,"byteLength":2016,"target":34963}],"accessors":[{"bufferView":0,"componentType":5126,"count":504,"type":"VEC3","min":[1.965000033378601,0.30000001192092896,15.944999694824219],"max":[11.03499984741211,2.5999999046325684,16.05500030517578]},{"bufferView":1,"componentType":5126,"count":504,"type":"VEC3"},{"bufferView":2,"componentType":5126,"count":504,"type":"VEC2"},{"bufferView":3,"componentType":5126,"count":504,"type":"VEC3"},{"bufferView":4,"componentType":5126,"count":504,"type":"VEC3"},{"bufferView":5,"componentType":5126,"count":504,"type":"VEC3"},{"bufferView":6,"componentType":5126,"count":504,"type":"VEC3"},{"bufferView":7,"componentType":5126,"count":504,"type":"SCALAR"},{"bufferView":8,"componentType":5125,"count":504,"type":"SCALAR"}],"materials":[{"name":"legacy-material-20","pbrMetallicRoughness":{"baseColorFactor":[1,1,1,1],"metallicFactor":0,"roughnessFactor":1,"baseColorTexture":{"index":0}},"doubleSided":true,"extras":{"legacyMaterial":20,"legacyShader":"dist/renderer-gl.js"}}],"extras":{"veldrenAssetId":"veldren:world-part:e3fe9d3b5f93801ba8b4803d19258d72148059742439f7cfdaa7a1ddfd143e37"},"images":[{"name":"atlas-00","uri":"../../textures/atlas/tile-00.png"}],"textures":[{"source":0,"sampler":0}],"samplers":[{"magFilter":9729,"minFilter":9729,"wrapS":10497,"wrapT":10497}],"buffers":[{"uri":"e3fe9d3b5f93801ba8b4803d19258d72148059742439f7cfdaa7a1ddfd143e37.bin","byteLength":44352}]}
