{"asset":{"version":"2.0","generator":"Veldren adapted asset recovery"},"scene":0,"scenes":[{"nodes":[0]}],"nodes":[{"name":"e4dc610fffc501d01867c917520dacc50e33609a5adea42e0a048b65b19b8a0b","mesh":0}],"meshes":[{"name":"e4dc610fffc501d01867c917520dacc50e33609a5adea42e0a048b65b19b8a0b","primitives":[{"attributes":{"POSITION":0,"NORMAL":1,"TEXCOORD_0":2,"COLOR_0":3,"_VELDREN_NORMAL":4,"_VELDREN_COLOR":5,"_VELDREN_FALLBACK":6,"_VELDREN_MATERIAL":7},"indices":8,"material":0,"extras":{"mixedAtlasFallback":false}}]}],"bufferViews":[{"buffer":0,"byteOffset":0,"byteLength":2736,"target":34962},{"buffer":0,"byteOffset":2736,"byteLength":2736,"target":34962},{"buffer":0,"byteOffset":5472,"byteLength":1824,"target":34962},{"buffer":0,"byteOffset":7296,"byteLength":2736,"target":34962},{"buffer":0,"byteOffset":10032,"byteLength":2736,"target":34962},{"buffer":0,"byteOffset":12768,"byteLength":2736,"target":34962},{"buffer":0,"byteOffset":15504,"byteLength":2736,"target":34962},{"buffer":0,"byteOffset":18240,"byteLength":912,"target":34962},{"buffer":0,"byteOffset":19152,"byteLength":912,"target":34963}],"accessors":[{"bufferView":0,"componentType":5126,"count":228,"type":"VEC3","min":[410.82501220703125,2.5262603759765625,80.11000061035156],"max":[412.17498779296875,3.3962602615356445,80.88999938964844]},{"bufferView":1,"componentType":5126,"count":228,"type":"VEC3"},{"bufferView":2,"componentType":5126,"count":228,"type":"VEC2"},{"bufferView":3,"componentType":5126,"count":228,"type":"VEC3"},{"bufferView":4,"componentType":5126,"count":228,"type":"VEC3"},{"bufferView":5,"componentType":5126,"count":228,"type":"VEC3"},{"bufferView":6,"componentType":5126,"count":228,"type":"VEC3"},{"bufferView":7,"componentType":5126,"count":228,"type":"SCALAR"},{"bufferView":8,"componentType":5125,"count":228,"type":"SCALAR"}],"materials":[{"name":"legacy-material-18","pbrMetallicRoughness":{"baseColorFactor":[1,1,1,1],"metallicFactor":0,"roughnessFactor":1},"doubleSided":true,"extras":{"legacyMaterial":18,"legacyShader":"dist/renderer-gl.js","limitation":"Browser procedural material not implemented by this glTF export; source/base attributes retained."}}],"extras":{"veldrenAssetId":"veldren:world-part:e4dc610fffc501d01867c917520dacc50e33609a5adea42e0a048b65b19b8a0b"},"buffers":[{"uri":"e4dc610fffc501d01867c917520dacc50e33609a5adea42e0a048b65b19b8a0b.bin","byteLength":20064}]}
