{"asset":{"version":"2.0","generator":"Veldren adapted asset recovery"},"scene":0,"scenes":[{"nodes":[0]}],"nodes":[{"name":"efb473aa7aecb0049d2cde527f5bafefbf767e2e3b1f9a010b89c7d2e83e003c","mesh":0}],"meshes":[{"name":"efb473aa7aecb0049d2cde527f5bafefbf767e2e3b1f9a010b89c7d2e83e003c","primitives":[{"attributes":{"POSITION":0,"NORMAL":1,"TEXCOORD_0":2,"COLOR_0":3,"_VELDREN_NORMAL":4,"_VELDREN_COLOR":5,"_VELDREN_FALLBACK":6,"_VELDREN_MATERIAL":7},"indices":8,"material":0,"extras":{"mixedAtlasFallback":false}},{"attributes":{"POSITION":0,"NORMAL":1,"TEXCOORD_0":2,"COLOR_0":3,"_VELDREN_NORMAL":4,"_VELDREN_COLOR":5,"_VELDREN_FALLBACK":6,"_VELDREN_MATERIAL":7},"indices":9,"material":1,"extras":{"mixedAtlasFallback":false}}]}],"bufferViews":[{"buffer":0,"byteOffset":0,"byteLength":4248,"target":34962},{"buffer":0,"byteOffset":4248,"byteLength":4248,"target":34962},{"buffer":0,"byteOffset":8496,"byteLength":2832,"target":34962},{"buffer":0,"byteOffset":11328,"byteLength":4248,"target":34962},{"buffer":0,"byteOffset":15576,"byteLength":4248,"target":34962},{"buffer":0,"byteOffset":19824,"byteLength":4248,"target":34962},{"buffer":0,"byteOffset":24072,"byteLength":4248,"target":34962},{"buffer":0,"byteOffset":28320,"byteLength":1416,"target":34962},{"buffer":0,"byteOffset":29736,"byteLength":1272,"target":34963},{"buffer":0,"byteOffset":31008,"byteLength":144,"target":34963}],"accessors":[{"bufferView":0,"componentType":5126,"count":354,"type":"VEC3","min":[228.07000732421875,5.902018070220947,211.07000732421875],"max":[228.92999267578125,9.704459190368652,211.92999267578125]},{"bufferView":1,"componentType":5126,"count":354,"type":"VEC3"},{"bufferView":2,"componentType":5126,"count":354,"type":"VEC2"},{"bufferView":3,"componentType":5126,"count":354,"type":"VEC3"},{"bufferView":4,"componentType":5126,"count":354,"type":"VEC3"},{"bufferView":5,"componentType":5126,"count":354,"type":"VEC3"},{"bufferView":6,"componentType":5126,"count":354,"type":"VEC3"},{"bufferView":7,"componentType":5126,"count":354,"type":"SCALAR"},{"bufferView":8,"componentType":5125,"count":318,"type":"SCALAR"},{"bufferView":9,"componentType":5125,"count":36,"type":"SCALAR"}],"materials":[{"name":"legacy-material-20","pbrMetallicRoughness":{"baseColorFactor":[1,1,1,1],"metallicFactor":0,"roughnessFactor":1,"baseColorTexture":{"index":0}},"doubleSided":true,"extras":{"legacyMaterial":20,"legacyShader":"dist/renderer-gl.js"}},{"name":"legacy-material-19","pbrMetallicRoughness":{"baseColorFactor":[1,1,1,1],"metallicFactor":0,"roughnessFactor":1},"doubleSided":true,"extras":{"legacyMaterial":19,"legacyShader":"dist/renderer-gl.js","limitation":"Browser procedural material not implemented by this glTF export; source/base attributes retained."}}],"extras":{"veldrenAssetId":"veldren:world-part:efb473aa7aecb0049d2cde527f5bafefbf767e2e3b1f9a010b89c7d2e83e003c"},"images":[{"name":"atlas-00","uri":"../../textures/atlas/tile-00.png"}],"textures":[{"source":0,"sampler":0}],"samplers":[{"magFilter":9729,"minFilter":9729,"wrapS":10497,"wrapT":10497}],"buffers":[{"uri":"efb473aa7aecb0049d2cde527f5bafefbf767e2e3b1f9a010b89c7d2e83e003c.bin","byteLength":31152}]}
