{"asset":{"version":"2.0","generator":"Veldren adapted asset recovery"},"scene":0,"scenes":[{"nodes":[0]}],"nodes":[{"name":"efb8fc6a55dfb4788f1e410a0058e301ee77655db49607a1380180d27a5da744","mesh":0}],"meshes":[{"name":"efb8fc6a55dfb4788f1e410a0058e301ee77655db49607a1380180d27a5da744","primitives":[{"attributes":{"POSITION":0,"NORMAL":1,"TEXCOORD_0":2,"COLOR_0":3,"_VELDREN_NORMAL":4,"_VELDREN_COLOR":5,"_VELDREN_FALLBACK":6,"_VELDREN_MATERIAL":7},"indices":8,"material":0,"extras":{"mixedAtlasFallback":false}},{"attributes":{"POSITION":0,"NORMAL":1,"TEXCOORD_0":2,"COLOR_0":3,"_VELDREN_NORMAL":4,"_VELDREN_COLOR":5,"_VELDREN_FALLBACK":6,"_VELDREN_MATERIAL":7},"indices":9,"material":1,"extras":{"mixedAtlasFallback":false}},{"attributes":{"POSITION":0,"NORMAL":1,"TEXCOORD_0":2,"COLOR_0":3,"_VELDREN_NORMAL":4,"_VELDREN_COLOR":5,"_VELDREN_FALLBACK":6,"_VELDREN_MATERIAL":7},"indices":10,"material":2,"extras":{"mixedAtlasFallback":false}},{"attributes":{"POSITION":0,"NORMAL":1,"TEXCOORD_0":2,"COLOR_0":3,"_VELDREN_NORMAL":4,"_VELDREN_COLOR":5,"_VELDREN_FALLBACK":6,"_VELDREN_MATERIAL":7},"indices":11,"material":3,"extras":{"mixedAtlasFallback":false}},{"attributes":{"POSITION":0,"NORMAL":1,"TEXCOORD_0":2,"COLOR_0":3,"_VELDREN_NORMAL":4,"_VELDREN_COLOR":5,"_VELDREN_FALLBACK":6,"_VELDREN_MATERIAL":7},"indices":12,"material":4,"extras":{"mixedAtlasFallback":false}},{"attributes":{"POSITION":0,"NORMAL":1,"TEXCOORD_0":2,"COLOR_0":3,"_VELDREN_NORMAL":4,"_VELDREN_COLOR":5,"_VELDREN_FALLBACK":6,"_VELDREN_MATERIAL":7},"indices":13,"material":5,"extras":{"mixedAtlasFallback":false}}]}],"bufferViews":[{"buffer":0,"byteOffset":0,"byteLength":79704,"target":34962},{"buffer":0,"byteOffset":79704,"byteLength":79704,"target":34962},{"buffer":0,"byteOffset":159408,"byteLength":53136,"target":34962},{"buffer":0,"byteOffset":212544,"byteLength":79704,"target":34962},{"buffer":0,"byteOffset":292248,"byteLength":79704,"target":34962},{"buffer":0,"byteOffset":371952,"byteLength":79704,"target":34962},{"buffer":0,"byteOffset":451656,"byteLength":79704,"target":34962},{"buffer":0,"byteOffset":531360,"byteLength":26568,"target":34962},{"buffer":0,"byteOffset":557928,"byteLength":12960,"target":34963},{"buffer":0,"byteOffset":570888,"byteLength":384,"target":34963},{"buffer":0,"byteOffset":571272,"byteLength":4032,"target":34963},{"buffer":0,"byteOffset":575304,"byteLength":6144,"target":34963},{"buffer":0,"byteOffset":581448,"byteLength":2472,"target":34963},{"buffer":0,"byteOffset":583920,"byteLength":576,"target":34963}],"accessors":[{"bufferView":0,"componentType":5126,"count":6642,"type":"VEC3","min":[63.512882232666016,0.8050000071525574,51.4900016784668],"max":[73.48999786376953,5.842800140380859,61.5099983215332]},{"bufferView":1,"componentType":5126,"count":6642,"type":"VEC3"},{"bufferView":2,"componentType":5126,"count":6642,"type":"VEC2"},{"bufferView":3,"componentType":5126,"count":6642,"type":"VEC3"},{"bufferView":4,"componentType":5126,"count":6642,"type":"VEC3"},{"bufferView":5,"componentType":5126,"count":6642,"type":"VEC3"},{"bufferView":6,"componentType":5126,"count":6642,"type":"VEC3"},{"bufferView":7,"componentType":5126,"count":6642,"type":"SCALAR"},{"bufferView":8,"componentType":5125,"count":3240,"type":"SCALAR"},{"bufferView":9,"componentType":5125,"count":96,"type":"SCALAR"},{"bufferView":10,"componentType":5125,"count":1008,"type":"SCALAR"},{"bufferView":11,"componentType":5125,"count":1536,"type":"SCALAR"},{"bufferView":12,"componentType":5125,"count":618,"type":"SCALAR"},{"bufferView":13,"componentType":5125,"count":144,"type":"SCALAR"}],"materials":[{"name":"legacy-material-5","pbrMetallicRoughness":{"baseColorFactor":[1,1,1,1],"metallicFactor":0,"roughnessFactor":1},"doubleSided":true,"extras":{"legacyMaterial":5,"legacyShader":"dist/renderer-gl.js","limitation":"Browser procedural material not implemented by this glTF export; source/base attributes retained."}},{"name":"legacy-material-13","pbrMetallicRoughness":{"baseColorFactor":[1,1,1,1],"metallicFactor":0,"roughnessFactor":1},"doubleSided":true,"extras":{"legacyMaterial":13,"legacyShader":"dist/renderer-gl.js","limitation":"Browser procedural material not implemented by this glTF export; source/base attributes retained."}},{"name":"legacy-material-20","pbrMetallicRoughness":{"baseColorFactor":[1,1,1,1],"metallicFactor":0,"roughnessFactor":1,"baseColorTexture":{"index":0}},"doubleSided":true,"extras":{"legacyMaterial":20,"legacyShader":"dist/renderer-gl.js"}},{"name":"legacy-material-17","pbrMetallicRoughness":{"baseColorFactor":[1,1,1,1],"metallicFactor":0,"roughnessFactor":1},"doubleSided":true,"extras":{"legacyMaterial":17,"legacyShader":"dist/renderer-gl.js","limitation":"Browser procedural material not implemented by this glTF export; source/base attributes retained."}},{"name":"legacy-material-7","pbrMetallicRoughness":{"baseColorFactor":[1,1,1,1],"metallicFactor":0,"roughnessFactor":1},"doubleSided":true,"extras":{"legacyMaterial":7,"legacyShader":"dist/renderer-gl.js","limitation":"Browser procedural material not implemented by this glTF export; source/base attributes retained."}},{"name":"legacy-material-6","pbrMetallicRoughness":{"baseColorFactor":[1,1,1,1],"metallicFactor":0,"roughnessFactor":1},"doubleSided":true,"extras":{"legacyMaterial":6,"legacyShader":"dist/renderer-gl.js","limitation":"Browser procedural material not implemented by this glTF export; source/base attributes retained."}}],"extras":{"veldrenAssetId":"veldren:world-part:efb8fc6a55dfb4788f1e410a0058e301ee77655db49607a1380180d27a5da744"},"images":[{"name":"atlas-00","uri":"../../textures/atlas/tile-00.png"}],"textures":[{"source":0,"sampler":0}],"samplers":[{"magFilter":9729,"minFilter":9729,"wrapS":10497,"wrapT":10497}],"buffers":[{"uri":"efb8fc6a55dfb4788f1e410a0058e301ee77655db49607a1380180d27a5da744.bin","byteLength":584496}]}
