{"asset":{"version":"2.0","generator":"Veldren adapted asset recovery"},"scene":0,"scenes":[{"nodes":[0]}],"nodes":[{"name":"f32ab7cfadf6aa36986bff416baf3e8ae141727ebe59abad63e16f3c51c55cc3","mesh":0}],"meshes":[{"name":"f32ab7cfadf6aa36986bff416baf3e8ae141727ebe59abad63e16f3c51c55cc3","primitives":[{"attributes":{"POSITION":0,"NORMAL":1,"TEXCOORD_0":2,"COLOR_0":3,"_VELDREN_NORMAL":4,"_VELDREN_COLOR":5,"_VELDREN_FALLBACK":6,"_VELDREN_MATERIAL":7},"indices":8,"material":0,"extras":{"mixedAtlasFallback":false}},{"attributes":{"POSITION":0,"NORMAL":1,"TEXCOORD_0":2,"COLOR_0":3,"_VELDREN_NORMAL":4,"_VELDREN_COLOR":5,"_VELDREN_FALLBACK":6,"_VELDREN_MATERIAL":7},"indices":9,"material":1,"extras":{"mixedAtlasFallback":false}},{"attributes":{"POSITION":0,"NORMAL":1,"TEXCOORD_0":2,"COLOR_0":3,"_VELDREN_NORMAL":4,"_VELDREN_COLOR":5,"_VELDREN_FALLBACK":6,"_VELDREN_MATERIAL":7},"indices":10,"material":2,"extras":{"mixedAtlasFallback":false}}]}],"bufferViews":[{"buffer":0,"byteOffset":0,"byteLength":1224,"target":34962},{"buffer":0,"byteOffset":1224,"byteLength":1224,"target":34962},{"buffer":0,"byteOffset":2448,"byteLength":816,"target":34962},{"buffer":0,"byteOffset":3264,"byteLength":1224,"target":34962},{"buffer":0,"byteOffset":4488,"byteLength":1224,"target":34962},{"buffer":0,"byteOffset":5712,"byteLength":1224,"target":34962},{"buffer":0,"byteOffset":6936,"byteLength":1224,"target":34962},{"buffer":0,"byteOffset":8160,"byteLength":408,"target":34962},{"buffer":0,"byteOffset":8568,"byteLength":600,"target":34963},{"buffer":0,"byteOffset":9168,"byteLength":192,"target":34963},{"buffer":0,"byteOffset":9360,"byteLength":264,"target":34963}],"accessors":[{"bufferView":0,"componentType":5126,"count":102,"type":"VEC3","min":[-1.0000001192092896,0.0,-0.3140353262424469],"max":[1.0,3.1226887702941895,0.09244640171527863]},{"bufferView":1,"componentType":5126,"count":102,"type":"VEC3"},{"bufferView":2,"componentType":5126,"count":102,"type":"VEC2"},{"bufferView":3,"componentType":5126,"count":102,"type":"VEC3"},{"bufferView":4,"componentType":5126,"count":102,"type":"VEC3"},{"bufferView":5,"componentType":5126,"count":102,"type":"VEC3"},{"bufferView":6,"componentType":5126,"count":102,"type":"VEC3"},{"bufferView":7,"componentType":5126,"count":102,"type":"SCALAR"},{"bufferView":8,"componentType":5125,"count":150,"type":"SCALAR"},{"bufferView":9,"componentType":5125,"count":48,"type":"SCALAR"},{"bufferView":10,"componentType":5125,"count":66,"type":"SCALAR"}],"materials":[{"name":"legacy-material-21","pbrMetallicRoughness":{"baseColorFactor":[1,1,1,1],"metallicFactor":0,"roughnessFactor":1,"baseColorTexture":{"index":0}},"doubleSided":true,"extras":{"legacyMaterial":21,"legacyShader":"dist/renderer-gl.js"}},{"name":"legacy-material-22","pbrMetallicRoughness":{"baseColorFactor":[1,1,1,1],"metallicFactor":0,"roughnessFactor":1,"baseColorTexture":{"index":1}},"doubleSided":true,"extras":{"legacyMaterial":22,"legacyShader":"dist/renderer-gl.js"}},{"name":"legacy-material-25","pbrMetallicRoughness":{"baseColorFactor":[1,1,1,1],"metallicFactor":0,"roughnessFactor":1,"baseColorTexture":{"index":2}},"doubleSided":true,"extras":{"legacyMaterial":25,"legacyShader":"dist/renderer-gl.js"}}],"extras":{"veldrenAssetId":"veldren:world-part:f32ab7cfadf6aa36986bff416baf3e8ae141727ebe59abad63e16f3c51c55cc3"},"images":[{"name":"atlas-01","uri":"../../textures/atlas/tile-01.png"},{"name":"atlas-02","uri":"../../textures/atlas/tile-02.png"},{"name":"atlas-05","uri":"../../textures/atlas/tile-05.png"}],"textures":[{"source":0,"sampler":0},{"source":1,"sampler":0},{"source":2,"sampler":0}],"samplers":[{"magFilter":9729,"minFilter":9729,"wrapS":10497,"wrapT":10497}],"buffers":[{"uri":"f32ab7cfadf6aa36986bff416baf3e8ae141727ebe59abad63e16f3c51c55cc3.bin","byteLength":9624}]}
