{"asset":{"version":"2.0","generator":"Veldren adapted asset recovery"},"scene":0,"scenes":[{"nodes":[0]}],"nodes":[{"name":"f46d4f9a7cb161b4134ed943fb6b42e37ba6b4a8988b8be4e585ae8e6e836bfc","mesh":0}],"meshes":[{"name":"f46d4f9a7cb161b4134ed943fb6b42e37ba6b4a8988b8be4e585ae8e6e836bfc","primitives":[{"attributes":{"POSITION":0,"NORMAL":1,"TEXCOORD_0":2,"COLOR_0":3,"_VELDREN_NORMAL":4,"_VELDREN_COLOR":5,"_VELDREN_FALLBACK":6,"_VELDREN_MATERIAL":7},"indices":8,"material":0,"extras":{"mixedAtlasFallback":false}}]}],"bufferViews":[{"buffer":0,"byteOffset":0,"byteLength":38664,"target":34962},{"buffer":0,"byteOffset":38664,"byteLength":38664,"target":34962},{"buffer":0,"byteOffset":77328,"byteLength":25776,"target":34962},{"buffer":0,"byteOffset":103104,"byteLength":38664,"target":34962},{"buffer":0,"byteOffset":141768,"byteLength":38664,"target":34962},{"buffer":0,"byteOffset":180432,"byteLength":38664,"target":34962},{"buffer":0,"byteOffset":219096,"byteLength":38664,"target":34962},{"buffer":0,"byteOffset":257760,"byteLength":12888,"target":34962},{"buffer":0,"byteOffset":270648,"byteLength":33864,"target":34963}],"accessors":[{"bufferView":0,"componentType":5126,"count":3222,"type":"VEC3","min":[-0.1786707192659378,0.08183755725622177,-0.05097728595137596],"max":[0.178670734167099,1.4188451766967773,1.2513371706008911]},{"bufferView":1,"componentType":5126,"count":3222,"type":"VEC3"},{"bufferView":2,"componentType":5126,"count":3222,"type":"VEC2"},{"bufferView":3,"componentType":5126,"count":3222,"type":"VEC3"},{"bufferView":4,"componentType":5126,"count":3222,"type":"VEC3"},{"bufferView":5,"componentType":5126,"count":3222,"type":"VEC3"},{"bufferView":6,"componentType":5126,"count":3222,"type":"VEC3"},{"bufferView":7,"componentType":5126,"count":3222,"type":"SCALAR"},{"bufferView":8,"componentType":5125,"count":8466,"type":"SCALAR"}],"materials":[{"name":"legacy-material-42","pbrMetallicRoughness":{"baseColorFactor":[1,1,1,1],"metallicFactor":0,"roughnessFactor":1,"baseColorTexture":{"index":0}},"doubleSided":true,"extras":{"legacyMaterial":42,"legacyShader":"dist/renderer-gl.js"}}],"extras":{"veldrenAssetId":"veldren:world-part:f46d4f9a7cb161b4134ed943fb6b42e37ba6b4a8988b8be4e585ae8e6e836bfc"},"images":[{"name":"atlas-22","uri":"../../textures/atlas/tile-22.png"}],"textures":[{"source":0,"sampler":0}],"samplers":[{"magFilter":9729,"minFilter":9729,"wrapS":10497,"wrapT":10497}],"buffers":[{"uri":"f46d4f9a7cb161b4134ed943fb6b42e37ba6b4a8988b8be4e585ae8e6e836bfc.bin","byteLength":304512}]}
