{"asset":{"version":"2.0","generator":"Veldren adapted asset recovery"},"scene":0,"scenes":[{"nodes":[0]}],"nodes":[{"name":"f4b04e3619cf212187b96076e7e940da50275113f8897ecbcd59f59213422623","mesh":0}],"meshes":[{"name":"f4b04e3619cf212187b96076e7e940da50275113f8897ecbcd59f59213422623","primitives":[{"attributes":{"POSITION":0,"NORMAL":1,"TEXCOORD_0":2,"COLOR_0":3,"_VELDREN_NORMAL":4,"_VELDREN_COLOR":5,"_VELDREN_FALLBACK":6,"_VELDREN_MATERIAL":7},"indices":8,"material":0,"extras":{"mixedAtlasFallback":false}},{"attributes":{"POSITION":0,"NORMAL":1,"TEXCOORD_0":2,"COLOR_0":3,"_VELDREN_NORMAL":4,"_VELDREN_COLOR":5,"_VELDREN_FALLBACK":6,"_VELDREN_MATERIAL":7},"indices":9,"material":1,"extras":{"mixedAtlasFallback":false}}]}],"bufferViews":[{"buffer":0,"byteOffset":0,"byteLength":15144,"target":34962},{"buffer":0,"byteOffset":15144,"byteLength":15144,"target":34962},{"buffer":0,"byteOffset":30288,"byteLength":10096,"target":34962},{"buffer":0,"byteOffset":40384,"byteLength":15144,"target":34962},{"buffer":0,"byteOffset":55528,"byteLength":15144,"target":34962},{"buffer":0,"byteOffset":70672,"byteLength":15144,"target":34962},{"buffer":0,"byteOffset":85816,"byteLength":15144,"target":34962},{"buffer":0,"byteOffset":100960,"byteLength":5048,"target":34962},{"buffer":0,"byteOffset":106008,"byteLength":11352,"target":34963},{"buffer":0,"byteOffset":117360,"byteLength":480,"target":34963}],"accessors":[{"bufferView":0,"componentType":5126,"count":1262,"type":"VEC3","min":[-1.4242464303970337,0.001262865960597992,-0.5419855713844299],"max":[1.4242464303970337,0.8147094249725342,0.5546767711639404]},{"bufferView":1,"componentType":5126,"count":1262,"type":"VEC3"},{"bufferView":2,"componentType":5126,"count":1262,"type":"VEC2"},{"bufferView":3,"componentType":5126,"count":1262,"type":"VEC3"},{"bufferView":4,"componentType":5126,"count":1262,"type":"VEC3"},{"bufferView":5,"componentType":5126,"count":1262,"type":"VEC3"},{"bufferView":6,"componentType":5126,"count":1262,"type":"VEC3"},{"bufferView":7,"componentType":5126,"count":1262,"type":"SCALAR"},{"bufferView":8,"componentType":5125,"count":2838,"type":"SCALAR"},{"bufferView":9,"componentType":5125,"count":120,"type":"SCALAR"}],"materials":[{"name":"legacy-material-43","pbrMetallicRoughness":{"baseColorFactor":[1,1,1,1],"metallicFactor":0,"roughnessFactor":1,"baseColorTexture":{"index":0}},"doubleSided":true,"extras":{"legacyMaterial":43,"legacyShader":"dist/renderer-gl.js"}},{"name":"legacy-material-42","pbrMetallicRoughness":{"baseColorFactor":[1,1,1,1],"metallicFactor":0,"roughnessFactor":1,"baseColorTexture":{"index":1}},"doubleSided":true,"extras":{"legacyMaterial":42,"legacyShader":"dist/renderer-gl.js"}}],"extras":{"veldrenAssetId":"veldren:world-part:f4b04e3619cf212187b96076e7e940da50275113f8897ecbcd59f59213422623"},"images":[{"name":"atlas-23","uri":"../../textures/atlas/tile-23.png"},{"name":"atlas-22","uri":"../../textures/atlas/tile-22.png"}],"textures":[{"source":0,"sampler":0},{"source":1,"sampler":0}],"samplers":[{"magFilter":9729,"minFilter":9729,"wrapS":10497,"wrapT":10497}],"buffers":[{"uri":"f4b04e3619cf212187b96076e7e940da50275113f8897ecbcd59f59213422623.bin","byteLength":117840}]}
