{"asset":{"version":"2.0","generator":"Veldren adapted asset recovery"},"scene":0,"scenes":[{"nodes":[0]}],"nodes":[{"name":"f52aa0036ce251ef1eb08d3699186b9705c3883af59782ac743cf0836182a57c","mesh":0}],"meshes":[{"name":"f52aa0036ce251ef1eb08d3699186b9705c3883af59782ac743cf0836182a57c","primitives":[{"attributes":{"POSITION":0,"NORMAL":1,"TEXCOORD_0":2,"COLOR_0":3,"_VELDREN_NORMAL":4,"_VELDREN_COLOR":5,"_VELDREN_FALLBACK":6,"_VELDREN_MATERIAL":7},"indices":8,"material":0,"extras":{"mixedAtlasFallback":false}}]}],"bufferViews":[{"buffer":0,"byteOffset":0,"byteLength":6912,"target":34962},{"buffer":0,"byteOffset":6912,"byteLength":6912,"target":34962},{"buffer":0,"byteOffset":13824,"byteLength":4608,"target":34962},{"buffer":0,"byteOffset":18432,"byteLength":6912,"target":34962},{"buffer":0,"byteOffset":25344,"byteLength":6912,"target":34962},{"buffer":0,"byteOffset":32256,"byteLength":6912,"target":34962},{"buffer":0,"byteOffset":39168,"byteLength":6912,"target":34962},{"buffer":0,"byteOffset":46080,"byteLength":2304,"target":34962},{"buffer":0,"byteOffset":48384,"byteLength":4992,"target":34963}],"accessors":[{"bufferView":0,"componentType":5126,"count":576,"type":"VEC3","min":[-0.5429158210754395,-0.003822582308202982,-0.15765345096588135],"max":[0.5197001099586487,0.2944376766681671,0.0898323655128479]},{"bufferView":1,"componentType":5126,"count":576,"type":"VEC3"},{"bufferView":2,"componentType":5126,"count":576,"type":"VEC2"},{"bufferView":3,"componentType":5126,"count":576,"type":"VEC3"},{"bufferView":4,"componentType":5126,"count":576,"type":"VEC3"},{"bufferView":5,"componentType":5126,"count":576,"type":"VEC3"},{"bufferView":6,"componentType":5126,"count":576,"type":"VEC3"},{"bufferView":7,"componentType":5126,"count":576,"type":"SCALAR"},{"bufferView":8,"componentType":5125,"count":1248,"type":"SCALAR"}],"materials":[{"name":"legacy-material-44","pbrMetallicRoughness":{"baseColorFactor":[1,1,1,1],"metallicFactor":0,"roughnessFactor":1,"baseColorTexture":{"index":0}},"doubleSided":true,"extras":{"legacyMaterial":44,"legacyShader":"dist/renderer-gl.js"}}],"extras":{"veldrenAssetId":"veldren:world-part:f52aa0036ce251ef1eb08d3699186b9705c3883af59782ac743cf0836182a57c"},"images":[{"name":"atlas-24","uri":"../../textures/atlas/tile-24.png"}],"textures":[{"source":0,"sampler":0}],"samplers":[{"magFilter":9729,"minFilter":9729,"wrapS":10497,"wrapT":10497}],"buffers":[{"uri":"f52aa0036ce251ef1eb08d3699186b9705c3883af59782ac743cf0836182a57c.bin","byteLength":53376}]}
