{"asset":{"version":"2.0","generator":"Veldren adapted asset recovery"},"scene":0,"scenes":[{"nodes":[0]}],"nodes":[{"name":"f6b042f38420c83a0f9135a3c0bd8966158a653ab48b8a911339e012939fa968","mesh":0}],"meshes":[{"name":"f6b042f38420c83a0f9135a3c0bd8966158a653ab48b8a911339e012939fa968","primitives":[{"attributes":{"POSITION":0,"NORMAL":1,"TEXCOORD_0":2,"COLOR_0":3,"_VELDREN_NORMAL":4,"_VELDREN_COLOR":5,"_VELDREN_FALLBACK":6,"_VELDREN_MATERIAL":7},"indices":8,"material":0,"extras":{"mixedAtlasFallback":false}},{"attributes":{"POSITION":0,"NORMAL":1,"TEXCOORD_0":2,"COLOR_0":3,"_VELDREN_NORMAL":4,"_VELDREN_COLOR":5,"_VELDREN_FALLBACK":6,"_VELDREN_MATERIAL":7},"indices":9,"material":1,"extras":{"mixedAtlasFallback":false}},{"attributes":{"POSITION":0,"NORMAL":1,"TEXCOORD_0":2,"COLOR_0":3,"_VELDREN_NORMAL":4,"_VELDREN_COLOR":5,"_VELDREN_FALLBACK":6,"_VELDREN_MATERIAL":7},"indices":10,"material":2,"extras":{"mixedAtlasFallback":false}},{"attributes":{"POSITION":0,"NORMAL":1,"TEXCOORD_0":2,"COLOR_0":3,"_VELDREN_NORMAL":4,"_VELDREN_COLOR":5,"_VELDREN_FALLBACK":6,"_VELDREN_MATERIAL":7},"indices":11,"material":3,"extras":{"mixedAtlasFallback":false}},{"attributes":{"POSITION":0,"NORMAL":1,"TEXCOORD_0":2,"COLOR_0":3,"_VELDREN_NORMAL":4,"_VELDREN_COLOR":5,"_VELDREN_FALLBACK":6,"_VELDREN_MATERIAL":7},"indices":12,"material":4,"extras":{"mixedAtlasFallback":false}},{"attributes":{"POSITION":0,"NORMAL":1,"TEXCOORD_0":2,"COLOR_0":3,"_VELDREN_NORMAL":4,"_VELDREN_COLOR":5,"_VELDREN_FALLBACK":6,"_VELDREN_MATERIAL":7},"indices":13,"material":5,"extras":{"mixedAtlasFallback":false}}]}],"bufferViews":[{"buffer":0,"byteOffset":0,"byteLength":70632,"target":34962},{"buffer":0,"byteOffset":70632,"byteLength":70632,"target":34962},{"buffer":0,"byteOffset":141264,"byteLength":47088,"target":34962},{"buffer":0,"byteOffset":188352,"byteLength":70632,"target":34962},{"buffer":0,"byteOffset":258984,"byteLength":70632,"target":34962},{"buffer":0,"byteOffset":329616,"byteLength":70632,"target":34962},{"buffer":0,"byteOffset":400248,"byteLength":70632,"target":34962},{"buffer":0,"byteOffset":470880,"byteLength":23544,"target":34962},{"buffer":0,"byteOffset":494424,"byteLength":4272,"target":34963},{"buffer":0,"byteOffset":498696,"byteLength":72,"target":34963},{"buffer":0,"byteOffset":498768,"byteLength":16704,"target":34963},{"buffer":0,"byteOffset":515472,"byteLength":192,"target":34963},{"buffer":0,"byteOffset":515664,"byteLength":576,"target":34963},{"buffer":0,"byteOffset":516240,"byteLength":1728,"target":34963}],"accessors":[{"bufferView":0,"componentType":5126,"count":5886,"type":"VEC3","min":[818.489990234375,8.40293025970459,383.510009765625],"max":[832.510009765625,12.864645004272461,396.47760009765625]},{"bufferView":1,"componentType":5126,"count":5886,"type":"VEC3"},{"bufferView":2,"componentType":5126,"count":5886,"type":"VEC2"},{"bufferView":3,"componentType":5126,"count":5886,"type":"VEC3"},{"bufferView":4,"componentType":5126,"count":5886,"type":"VEC3"},{"bufferView":5,"componentType":5126,"count":5886,"type":"VEC3"},{"bufferView":6,"componentType":5126,"count":5886,"type":"VEC3"},{"bufferView":7,"componentType":5126,"count":5886,"type":"SCALAR"},{"bufferView":8,"componentType":5125,"count":1068,"type":"SCALAR"},{"bufferView":9,"componentType":5125,"count":18,"type":"SCALAR"},{"bufferView":10,"componentType":5125,"count":4176,"type":"SCALAR"},{"bufferView":11,"componentType":5125,"count":48,"type":"SCALAR"},{"bufferView":12,"componentType":5125,"count":144,"type":"SCALAR"},{"bufferView":13,"componentType":5125,"count":432,"type":"SCALAR"}],"materials":[{"name":"legacy-material-5","pbrMetallicRoughness":{"baseColorFactor":[1,1,1,1],"metallicFactor":0,"roughnessFactor":1},"doubleSided":true,"extras":{"legacyMaterial":5,"legacyShader":"dist/renderer-gl.js","limitation":"Browser procedural material not implemented by this glTF export; source/base attributes retained."}},{"name":"legacy-material-13","pbrMetallicRoughness":{"baseColorFactor":[1,1,1,1],"metallicFactor":0,"roughnessFactor":1},"doubleSided":true,"extras":{"legacyMaterial":13,"legacyShader":"dist/renderer-gl.js","limitation":"Browser procedural material not implemented by this glTF export; source/base attributes retained."}},{"name":"legacy-material-17","pbrMetallicRoughness":{"baseColorFactor":[1,1,1,1],"metallicFactor":0,"roughnessFactor":1},"doubleSided":true,"extras":{"legacyMaterial":17,"legacyShader":"dist/renderer-gl.js","limitation":"Browser procedural material not implemented by this glTF export; source/base attributes retained."}},{"name":"legacy-material-6","pbrMetallicRoughness":{"baseColorFactor":[1,1,1,1],"metallicFactor":0,"roughnessFactor":1},"doubleSided":true,"extras":{"legacyMaterial":6,"legacyShader":"dist/renderer-gl.js","limitation":"Browser procedural material not implemented by this glTF export; source/base attributes retained."}},{"name":"legacy-material-18","pbrMetallicRoughness":{"baseColorFactor":[1,1,1,1],"metallicFactor":0,"roughnessFactor":1},"doubleSided":true,"extras":{"legacyMaterial":18,"legacyShader":"dist/renderer-gl.js","limitation":"Browser procedural material not implemented by this glTF export; source/base attributes retained."}},{"name":"legacy-material-20","pbrMetallicRoughness":{"baseColorFactor":[1,1,1,1],"metallicFactor":0,"roughnessFactor":1,"baseColorTexture":{"index":0}},"doubleSided":true,"extras":{"legacyMaterial":20,"legacyShader":"dist/renderer-gl.js"}}],"extras":{"veldrenAssetId":"veldren:world-part:f6b042f38420c83a0f9135a3c0bd8966158a653ab48b8a911339e012939fa968"},"images":[{"name":"atlas-00","uri":"../../textures/atlas/tile-00.png"}],"textures":[{"source":0,"sampler":0}],"samplers":[{"magFilter":9729,"minFilter":9729,"wrapS":10497,"wrapT":10497}],"buffers":[{"uri":"f6b042f38420c83a0f9135a3c0bd8966158a653ab48b8a911339e012939fa968.bin","byteLength":517968}]}
