{"asset":{"version":"2.0","generator":"Veldren adapted asset recovery"},"scene":0,"scenes":[{"nodes":[0]}],"nodes":[{"name":"f7a887972abbd68bffa32bceaca28c0920e2de74fd20465825e1b69eaacbc926","mesh":0}],"meshes":[{"name":"f7a887972abbd68bffa32bceaca28c0920e2de74fd20465825e1b69eaacbc926","primitives":[{"attributes":{"POSITION":0,"NORMAL":1,"TEXCOORD_0":2,"COLOR_0":3,"_VELDREN_NORMAL":4,"_VELDREN_COLOR":5,"_VELDREN_FALLBACK":6,"_VELDREN_MATERIAL":7},"indices":8,"material":0,"extras":{"mixedAtlasFallback":false}}]}],"bufferViews":[{"buffer":0,"byteOffset":0,"byteLength":1152,"target":34962},{"buffer":0,"byteOffset":1152,"byteLength":1152,"target":34962},{"buffer":0,"byteOffset":2304,"byteLength":768,"target":34962},{"buffer":0,"byteOffset":3072,"byteLength":1152,"target":34962},{"buffer":0,"byteOffset":4224,"byteLength":1152,"target":34962},{"buffer":0,"byteOffset":5376,"byteLength":1152,"target":34962},{"buffer":0,"byteOffset":6528,"byteLength":1152,"target":34962},{"buffer":0,"byteOffset":7680,"byteLength":384,"target":34962},{"buffer":0,"byteOffset":8064,"byteLength":384,"target":34963}],"accessors":[{"bufferView":0,"componentType":5126,"count":96,"type":"VEC3","min":[25.174999237060547,0.009999999776482582,89.69999694824219],"max":[25.825000762939453,0.375,91.30000305175781]},{"bufferView":1,"componentType":5126,"count":96,"type":"VEC3"},{"bufferView":2,"componentType":5126,"count":96,"type":"VEC2"},{"bufferView":3,"componentType":5126,"count":96,"type":"VEC3"},{"bufferView":4,"componentType":5126,"count":96,"type":"VEC3"},{"bufferView":5,"componentType":5126,"count":96,"type":"VEC3"},{"bufferView":6,"componentType":5126,"count":96,"type":"VEC3"},{"bufferView":7,"componentType":5126,"count":96,"type":"SCALAR"},{"bufferView":8,"componentType":5125,"count":96,"type":"SCALAR"}],"materials":[{"name":"legacy-material-20","pbrMetallicRoughness":{"baseColorFactor":[1,1,1,1],"metallicFactor":0,"roughnessFactor":1,"baseColorTexture":{"index":0}},"doubleSided":true,"extras":{"legacyMaterial":20,"legacyShader":"dist/renderer-gl.js"}}],"extras":{"veldrenAssetId":"veldren:world-part:f7a887972abbd68bffa32bceaca28c0920e2de74fd20465825e1b69eaacbc926"},"images":[{"name":"atlas-00","uri":"../../textures/atlas/tile-00.png"}],"textures":[{"source":0,"sampler":0}],"samplers":[{"magFilter":9729,"minFilter":9729,"wrapS":10497,"wrapT":10497}],"buffers":[{"uri":"f7a887972abbd68bffa32bceaca28c0920e2de74fd20465825e1b69eaacbc926.bin","byteLength":8448}]}
