{"asset":{"version":"2.0","generator":"Veldren adapted asset recovery"},"scene":0,"scenes":[{"nodes":[0]}],"nodes":[{"name":"f83b9e325f7eb846d9dc44120af0f2f403f5af8cbe4ef3c854eff5955270caf6","mesh":0}],"meshes":[{"name":"f83b9e325f7eb846d9dc44120af0f2f403f5af8cbe4ef3c854eff5955270caf6","primitives":[{"attributes":{"POSITION":0,"NORMAL":1,"TEXCOORD_0":2,"COLOR_0":3,"_VELDREN_NORMAL":4,"_VELDREN_COLOR":5,"_VELDREN_FALLBACK":6,"_VELDREN_MATERIAL":7},"indices":8,"material":0,"extras":{"mixedAtlasFallback":false}},{"attributes":{"POSITION":0,"NORMAL":1,"TEXCOORD_0":2,"COLOR_0":3,"_VELDREN_NORMAL":4,"_VELDREN_COLOR":5,"_VELDREN_FALLBACK":6,"_VELDREN_MATERIAL":7},"indices":9,"material":1,"extras":{"mixedAtlasFallback":false}},{"attributes":{"POSITION":0,"NORMAL":1,"TEXCOORD_0":2,"COLOR_0":3,"_VELDREN_NORMAL":4,"_VELDREN_COLOR":5,"_VELDREN_FALLBACK":6,"_VELDREN_MATERIAL":7},"indices":10,"material":2,"extras":{"mixedAtlasFallback":false}},{"attributes":{"POSITION":0,"NORMAL":1,"TEXCOORD_0":2,"COLOR_0":3,"_VELDREN_NORMAL":4,"_VELDREN_COLOR":5,"_VELDREN_FALLBACK":6,"_VELDREN_MATERIAL":7},"indices":11,"material":3,"extras":{"mixedAtlasFallback":false}},{"attributes":{"POSITION":0,"NORMAL":1,"TEXCOORD_0":2,"COLOR_0":3,"_VELDREN_NORMAL":4,"_VELDREN_COLOR":5,"_VELDREN_FALLBACK":6,"_VELDREN_MATERIAL":7},"indices":12,"material":4,"extras":{"mixedAtlasFallback":false}},{"attributes":{"POSITION":0,"NORMAL":1,"TEXCOORD_0":2,"COLOR_0":3,"_VELDREN_NORMAL":4,"_VELDREN_COLOR":5,"_VELDREN_FALLBACK":6,"_VELDREN_MATERIAL":7},"indices":13,"material":5,"extras":{"mixedAtlasFallback":false}}]}],"bufferViews":[{"buffer":0,"byteOffset":0,"byteLength":78192,"target":34962},{"buffer":0,"byteOffset":78192,"byteLength":78192,"target":34962},{"buffer":0,"byteOffset":156384,"byteLength":52128,"target":34962},{"buffer":0,"byteOffset":208512,"byteLength":78192,"target":34962},{"buffer":0,"byteOffset":286704,"byteLength":78192,"target":34962},{"buffer":0,"byteOffset":364896,"byteLength":78192,"target":34962},{"buffer":0,"byteOffset":443088,"byteLength":78192,"target":34962},{"buffer":0,"byteOffset":521280,"byteLength":26064,"target":34962},{"buffer":0,"byteOffset":547344,"byteLength":12672,"target":34963},{"buffer":0,"byteOffset":560016,"byteLength":168,"target":34963},{"buffer":0,"byteOffset":560184,"byteLength":4032,"target":34963},{"buffer":0,"byteOffset":564216,"byteLength":6144,"target":34963},{"buffer":0,"byteOffset":570360,"byteLength":2472,"target":34963},{"buffer":0,"byteOffset":572832,"byteLength":576,"target":34963}],"accessors":[{"bufferView":0,"componentType":5126,"count":6516,"type":"VEC3","min":[70.48999786376953,0.8050000071525574,76.52241516113281],"max":[80.51000213623047,8.227800369262695,85.48999786376953]},{"bufferView":1,"componentType":5126,"count":6516,"type":"VEC3"},{"bufferView":2,"componentType":5126,"count":6516,"type":"VEC2"},{"bufferView":3,"componentType":5126,"count":6516,"type":"VEC3"},{"bufferView":4,"componentType":5126,"count":6516,"type":"VEC3"},{"bufferView":5,"componentType":5126,"count":6516,"type":"VEC3"},{"bufferView":6,"componentType":5126,"count":6516,"type":"VEC3"},{"bufferView":7,"componentType":5126,"count":6516,"type":"SCALAR"},{"bufferView":8,"componentType":5125,"count":3168,"type":"SCALAR"},{"bufferView":9,"componentType":5125,"count":42,"type":"SCALAR"},{"bufferView":10,"componentType":5125,"count":1008,"type":"SCALAR"},{"bufferView":11,"componentType":5125,"count":1536,"type":"SCALAR"},{"bufferView":12,"componentType":5125,"count":618,"type":"SCALAR"},{"bufferView":13,"componentType":5125,"count":144,"type":"SCALAR"}],"materials":[{"name":"legacy-material-5","pbrMetallicRoughness":{"baseColorFactor":[1,1,1,1],"metallicFactor":0,"roughnessFactor":1},"doubleSided":true,"extras":{"legacyMaterial":5,"legacyShader":"dist/renderer-gl.js","limitation":"Browser procedural material not implemented by this glTF export; source/base attributes retained."}},{"name":"legacy-material-13","pbrMetallicRoughness":{"baseColorFactor":[1,1,1,1],"metallicFactor":0,"roughnessFactor":1},"doubleSided":true,"extras":{"legacyMaterial":13,"legacyShader":"dist/renderer-gl.js","limitation":"Browser procedural material not implemented by this glTF export; source/base attributes retained."}},{"name":"legacy-material-20","pbrMetallicRoughness":{"baseColorFactor":[1,1,1,1],"metallicFactor":0,"roughnessFactor":1,"baseColorTexture":{"index":0}},"doubleSided":true,"extras":{"legacyMaterial":20,"legacyShader":"dist/renderer-gl.js"}},{"name":"legacy-material-17","pbrMetallicRoughness":{"baseColorFactor":[1,1,1,1],"metallicFactor":0,"roughnessFactor":1},"doubleSided":true,"extras":{"legacyMaterial":17,"legacyShader":"dist/renderer-gl.js","limitation":"Browser procedural material not implemented by this glTF export; source/base attributes retained."}},{"name":"legacy-material-7","pbrMetallicRoughness":{"baseColorFactor":[1,1,1,1],"metallicFactor":0,"roughnessFactor":1},"doubleSided":true,"extras":{"legacyMaterial":7,"legacyShader":"dist/renderer-gl.js","limitation":"Browser procedural material not implemented by this glTF export; source/base attributes retained."}},{"name":"legacy-material-6","pbrMetallicRoughness":{"baseColorFactor":[1,1,1,1],"metallicFactor":0,"roughnessFactor":1},"doubleSided":true,"extras":{"legacyMaterial":6,"legacyShader":"dist/renderer-gl.js","limitation":"Browser procedural material not implemented by this glTF export; source/base attributes retained."}}],"extras":{"veldrenAssetId":"veldren:world-part:f83b9e325f7eb846d9dc44120af0f2f403f5af8cbe4ef3c854eff5955270caf6"},"images":[{"name":"atlas-00","uri":"../../textures/atlas/tile-00.png"}],"textures":[{"source":0,"sampler":0}],"samplers":[{"magFilter":9729,"minFilter":9729,"wrapS":10497,"wrapT":10497}],"buffers":[{"uri":"f83b9e325f7eb846d9dc44120af0f2f403f5af8cbe4ef3c854eff5955270caf6.bin","byteLength":573408}]}
