{"asset":{"version":"2.0","generator":"Veldren adapted asset recovery"},"scene":0,"scenes":[{"nodes":[0]}],"nodes":[{"name":"f8547e62fd3990b0a17590b45c34f3b8f1488b0c85139cc3a570a7849054fe57","mesh":0}],"meshes":[{"name":"f8547e62fd3990b0a17590b45c34f3b8f1488b0c85139cc3a570a7849054fe57","primitives":[{"attributes":{"POSITION":0,"NORMAL":1,"TEXCOORD_0":2,"COLOR_0":3,"_VELDREN_NORMAL":4,"_VELDREN_COLOR":5,"_VELDREN_FALLBACK":6,"_VELDREN_MATERIAL":7},"indices":8,"material":0,"extras":{"mixedAtlasFallback":false}},{"attributes":{"POSITION":0,"NORMAL":1,"TEXCOORD_0":2,"COLOR_0":3,"_VELDREN_NORMAL":4,"_VELDREN_COLOR":5,"_VELDREN_FALLBACK":6,"_VELDREN_MATERIAL":7},"indices":9,"material":1,"extras":{"mixedAtlasFallback":false}},{"attributes":{"POSITION":0,"NORMAL":1,"TEXCOORD_0":2,"COLOR_0":3,"_VELDREN_NORMAL":4,"_VELDREN_COLOR":5,"_VELDREN_FALLBACK":6,"_VELDREN_MATERIAL":7},"indices":10,"material":2,"extras":{"mixedAtlasFallback":false}}]}],"bufferViews":[{"buffer":0,"byteOffset":0,"byteLength":53412,"target":34962},{"buffer":0,"byteOffset":53412,"byteLength":53412,"target":34962},{"buffer":0,"byteOffset":106824,"byteLength":35608,"target":34962},{"buffer":0,"byteOffset":142432,"byteLength":53412,"target":34962},{"buffer":0,"byteOffset":195844,"byteLength":53412,"target":34962},{"buffer":0,"byteOffset":249256,"byteLength":53412,"target":34962},{"buffer":0,"byteOffset":302668,"byteLength":53412,"target":34962},{"buffer":0,"byteOffset":356080,"byteLength":17804,"target":34962},{"buffer":0,"byteOffset":373884,"byteLength":26616,"target":34963},{"buffer":0,"byteOffset":400500,"byteLength":15528,"target":34963},{"buffer":0,"byteOffset":416028,"byteLength":5088,"target":34963}],"accessors":[{"bufferView":0,"componentType":5126,"count":4451,"type":"VEC3","min":[-2.1067893505096436,-0.0038988939486443996,-0.5298508405685425],"max":[0.9137552380561829,2.627926826477051,0.5298508405685425]},{"bufferView":1,"componentType":5126,"count":4451,"type":"VEC3"},{"bufferView":2,"componentType":5126,"count":4451,"type":"VEC2"},{"bufferView":3,"componentType":5126,"count":4451,"type":"VEC3"},{"bufferView":4,"componentType":5126,"count":4451,"type":"VEC3"},{"bufferView":5,"componentType":5126,"count":4451,"type":"VEC3"},{"bufferView":6,"componentType":5126,"count":4451,"type":"VEC3"},{"bufferView":7,"componentType":5126,"count":4451,"type":"SCALAR"},{"bufferView":8,"componentType":5125,"count":6654,"type":"SCALAR"},{"bufferView":9,"componentType":5125,"count":3882,"type":"SCALAR"},{"bufferView":10,"componentType":5125,"count":1272,"type":"SCALAR"}],"materials":[{"name":"legacy-material-42","pbrMetallicRoughness":{"baseColorFactor":[1,1,1,1],"metallicFactor":0,"roughnessFactor":1,"baseColorTexture":{"index":0}},"doubleSided":true,"extras":{"legacyMaterial":42,"legacyShader":"dist/renderer-gl.js"}},{"name":"legacy-material-43","pbrMetallicRoughness":{"baseColorFactor":[1,1,1,1],"metallicFactor":0,"roughnessFactor":1,"baseColorTexture":{"index":1}},"doubleSided":true,"extras":{"legacyMaterial":43,"legacyShader":"dist/renderer-gl.js"}},{"name":"legacy-material-45","pbrMetallicRoughness":{"baseColorFactor":[1,1,1,1],"metallicFactor":0,"roughnessFactor":1,"baseColorTexture":{"index":2}},"doubleSided":true,"extras":{"legacyMaterial":45,"legacyShader":"dist/renderer-gl.js"}}],"extras":{"veldrenAssetId":"veldren:world-part:f8547e62fd3990b0a17590b45c34f3b8f1488b0c85139cc3a570a7849054fe57"},"images":[{"name":"atlas-22","uri":"../../textures/atlas/tile-22.png"},{"name":"atlas-23","uri":"../../textures/atlas/tile-23.png"},{"name":"atlas-25","uri":"../../textures/atlas/tile-25.png"}],"textures":[{"source":0,"sampler":0},{"source":1,"sampler":0},{"source":2,"sampler":0}],"samplers":[{"magFilter":9729,"minFilter":9729,"wrapS":10497,"wrapT":10497}],"buffers":[{"uri":"f8547e62fd3990b0a17590b45c34f3b8f1488b0c85139cc3a570a7849054fe57.bin","byteLength":421116}]}
