{"asset":{"version":"2.0","generator":"Veldren adapted asset recovery"},"scene":0,"scenes":[{"nodes":[0]}],"nodes":[{"name":"fc73c0bcf3d0a6d0f5d976e4478f328dc8617e8dd84d94206d6def879f8dcab1","mesh":0}],"meshes":[{"name":"fc73c0bcf3d0a6d0f5d976e4478f328dc8617e8dd84d94206d6def879f8dcab1","primitives":[{"attributes":{"POSITION":0,"NORMAL":1,"TEXCOORD_0":2,"COLOR_0":3,"_VELDREN_NORMAL":4,"_VELDREN_COLOR":5,"_VELDREN_FALLBACK":6,"_VELDREN_MATERIAL":7},"indices":8,"material":0,"extras":{"mixedAtlasFallback":false}}]}],"bufferViews":[{"buffer":0,"byteOffset":0,"byteLength":1152,"target":34962},{"buffer":0,"byteOffset":1152,"byteLength":1152,"target":34962},{"buffer":0,"byteOffset":2304,"byteLength":768,"target":34962},{"buffer":0,"byteOffset":3072,"byteLength":1152,"target":34962},{"buffer":0,"byteOffset":4224,"byteLength":1152,"target":34962},{"buffer":0,"byteOffset":5376,"byteLength":1152,"target":34962},{"buffer":0,"byteOffset":6528,"byteLength":1152,"target":34962},{"buffer":0,"byteOffset":7680,"byteLength":384,"target":34962},{"buffer":0,"byteOffset":8064,"byteLength":384,"target":34963}],"accessors":[{"bufferView":0,"componentType":5126,"count":96,"type":"VEC3","min":[10.175000190734863,0.009999999776482582,30.700000762939453],"max":[10.824999809265137,0.375,32.29999923706055]},{"bufferView":1,"componentType":5126,"count":96,"type":"VEC3"},{"bufferView":2,"componentType":5126,"count":96,"type":"VEC2"},{"bufferView":3,"componentType":5126,"count":96,"type":"VEC3"},{"bufferView":4,"componentType":5126,"count":96,"type":"VEC3"},{"bufferView":5,"componentType":5126,"count":96,"type":"VEC3"},{"bufferView":6,"componentType":5126,"count":96,"type":"VEC3"},{"bufferView":7,"componentType":5126,"count":96,"type":"SCALAR"},{"bufferView":8,"componentType":5125,"count":96,"type":"SCALAR"}],"materials":[{"name":"legacy-material-20","pbrMetallicRoughness":{"baseColorFactor":[1,1,1,1],"metallicFactor":0,"roughnessFactor":1,"baseColorTexture":{"index":0}},"doubleSided":true,"extras":{"legacyMaterial":20,"legacyShader":"dist/renderer-gl.js"}}],"extras":{"veldrenAssetId":"veldren:world-part:fc73c0bcf3d0a6d0f5d976e4478f328dc8617e8dd84d94206d6def879f8dcab1"},"images":[{"name":"atlas-00","uri":"../../textures/atlas/tile-00.png"}],"textures":[{"source":0,"sampler":0}],"samplers":[{"magFilter":9729,"minFilter":9729,"wrapS":10497,"wrapT":10497}],"buffers":[{"uri":"fc73c0bcf3d0a6d0f5d976e4478f328dc8617e8dd84d94206d6def879f8dcab1.bin","byteLength":8448}]}
