{"asset":{"version":"2.0","generator":"Veldren adapted asset recovery"},"scene":0,"scenes":[{"nodes":[0]}],"nodes":[{"name":"fe8261f125e74729bc4a635fb4049785edba4d3779c5d74961e1098dd8b5b7bf","mesh":0}],"meshes":[{"name":"fe8261f125e74729bc4a635fb4049785edba4d3779c5d74961e1098dd8b5b7bf","primitives":[{"attributes":{"POSITION":0,"NORMAL":1,"TEXCOORD_0":2,"COLOR_0":3,"_VELDREN_NORMAL":4,"_VELDREN_COLOR":5,"_VELDREN_FALLBACK":6,"_VELDREN_MATERIAL":7},"indices":8,"material":0,"extras":{"mixedAtlasFallback":false}},{"attributes":{"POSITION":0,"NORMAL":1,"TEXCOORD_0":2,"COLOR_0":3,"_VELDREN_NORMAL":4,"_VELDREN_COLOR":5,"_VELDREN_FALLBACK":6,"_VELDREN_MATERIAL":7},"indices":9,"material":1,"extras":{"mixedAtlasFallback":false}},{"attributes":{"POSITION":0,"NORMAL":1,"TEXCOORD_0":2,"COLOR_0":3,"_VELDREN_NORMAL":4,"_VELDREN_COLOR":5,"_VELDREN_FALLBACK":6,"_VELDREN_MATERIAL":7},"indices":10,"material":2,"extras":{"mixedAtlasFallback":false}}]}],"bufferViews":[{"buffer":0,"byteOffset":0,"byteLength":3744,"target":34962},{"buffer":0,"byteOffset":3744,"byteLength":3744,"target":34962},{"buffer":0,"byteOffset":7488,"byteLength":2496,"target":34962},{"buffer":0,"byteOffset":9984,"byteLength":3744,"target":34962},{"buffer":0,"byteOffset":13728,"byteLength":3744,"target":34962},{"buffer":0,"byteOffset":17472,"byteLength":3744,"target":34962},{"buffer":0,"byteOffset":21216,"byteLength":3744,"target":34962},{"buffer":0,"byteOffset":24960,"byteLength":1248,"target":34962},{"buffer":0,"byteOffset":26208,"byteLength":960,"target":34963},{"buffer":0,"byteOffset":27168,"byteLength":144,"target":34963},{"buffer":0,"byteOffset":27312,"byteLength":144,"target":34963}],"accessors":[{"bufferView":0,"componentType":5126,"count":312,"type":"VEC3","min":[285.9559020996094,3.902702569961548,300.6199951171875],"max":[288.0,12.40697956085205,306.29998779296875]},{"bufferView":1,"componentType":5126,"count":312,"type":"VEC3"},{"bufferView":2,"componentType":5126,"count":312,"type":"VEC2"},{"bufferView":3,"componentType":5126,"count":312,"type":"VEC3"},{"bufferView":4,"componentType":5126,"count":312,"type":"VEC3"},{"bufferView":5,"componentType":5126,"count":312,"type":"VEC3"},{"bufferView":6,"componentType":5126,"count":312,"type":"VEC3"},{"bufferView":7,"componentType":5126,"count":312,"type":"SCALAR"},{"bufferView":8,"componentType":5125,"count":240,"type":"SCALAR"},{"bufferView":9,"componentType":5125,"count":36,"type":"SCALAR"},{"bufferView":10,"componentType":5125,"count":36,"type":"SCALAR"}],"materials":[{"name":"legacy-material-5","pbrMetallicRoughness":{"baseColorFactor":[1,1,1,1],"metallicFactor":0,"roughnessFactor":1},"doubleSided":true,"extras":{"legacyMaterial":5,"legacyShader":"dist/renderer-gl.js","limitation":"Browser procedural material not implemented by this glTF export; source/base attributes retained."}},{"name":"legacy-material-20","pbrMetallicRoughness":{"baseColorFactor":[1,1,1,1],"metallicFactor":0,"roughnessFactor":1,"baseColorTexture":{"index":0}},"doubleSided":true,"extras":{"legacyMaterial":20,"legacyShader":"dist/renderer-gl.js"}},{"name":"legacy-material-18","pbrMetallicRoughness":{"baseColorFactor":[1,1,1,1],"metallicFactor":0,"roughnessFactor":1},"doubleSided":true,"extras":{"legacyMaterial":18,"legacyShader":"dist/renderer-gl.js","limitation":"Browser procedural material not implemented by this glTF export; source/base attributes retained."}}],"extras":{"veldrenAssetId":"veldren:world-part:fe8261f125e74729bc4a635fb4049785edba4d3779c5d74961e1098dd8b5b7bf"},"images":[{"name":"atlas-00","uri":"../../textures/atlas/tile-00.png"}],"textures":[{"source":0,"sampler":0}],"samplers":[{"magFilter":9729,"minFilter":9729,"wrapS":10497,"wrapT":10497}],"buffers":[{"uri":"fe8261f125e74729bc4a635fb4049785edba4d3779c5d74961e1098dd8b5b7bf.bin","byteLength":27456}]}
