{"asset":{"version":"2.0","generator":"Veldren adapted asset recovery"},"scene":0,"scenes":[{"nodes":[0]}],"nodes":[{"name":"ff9402a31eec401e852dc0f56ad9f1d86cf7611085ab9ce32c18834c0147eff5","mesh":0}],"meshes":[{"name":"ff9402a31eec401e852dc0f56ad9f1d86cf7611085ab9ce32c18834c0147eff5","primitives":[{"attributes":{"POSITION":0,"NORMAL":1,"TEXCOORD_0":2,"COLOR_0":3,"_VELDREN_NORMAL":4,"_VELDREN_COLOR":5,"_VELDREN_FALLBACK":6,"_VELDREN_MATERIAL":7},"indices":8,"material":0,"extras":{"mixedAtlasFallback":false}},{"attributes":{"POSITION":0,"NORMAL":1,"TEXCOORD_0":2,"COLOR_0":3,"_VELDREN_NORMAL":4,"_VELDREN_COLOR":5,"_VELDREN_FALLBACK":6,"_VELDREN_MATERIAL":7},"indices":9,"material":1,"extras":{"mixedAtlasFallback":false}},{"attributes":{"POSITION":0,"NORMAL":1,"TEXCOORD_0":2,"COLOR_0":3,"_VELDREN_NORMAL":4,"_VELDREN_COLOR":5,"_VELDREN_FALLBACK":6,"_VELDREN_MATERIAL":7},"indices":10,"material":2,"extras":{"mixedAtlasFallback":false}},{"attributes":{"POSITION":0,"NORMAL":1,"TEXCOORD_0":2,"COLOR_0":3,"_VELDREN_NORMAL":4,"_VELDREN_COLOR":5,"_VELDREN_FALLBACK":6,"_VELDREN_MATERIAL":7},"indices":11,"material":3,"extras":{"mixedAtlasFallback":false}}]}],"bufferViews":[{"buffer":0,"byteOffset":0,"byteLength":11088,"target":34962},{"buffer":0,"byteOffset":11088,"byteLength":11088,"target":34962},{"buffer":0,"byteOffset":22176,"byteLength":7392,"target":34962},{"buffer":0,"byteOffset":29568,"byteLength":11088,"target":34962},{"buffer":0,"byteOffset":40656,"byteLength":11088,"target":34962},{"buffer":0,"byteOffset":51744,"byteLength":11088,"target":34962},{"buffer":0,"byteOffset":62832,"byteLength":11088,"target":34962},{"buffer":0,"byteOffset":73920,"byteLength":3696,"target":34962},{"buffer":0,"byteOffset":77616,"byteLength":2784,"target":34963},{"buffer":0,"byteOffset":80400,"byteLength":576,"target":34963},{"buffer":0,"byteOffset":80976,"byteLength":144,"target":34963},{"buffer":0,"byteOffset":81120,"byteLength":192,"target":34963}],"accessors":[{"bufferView":0,"componentType":5126,"count":924,"type":"VEC3","min":[768.6400146484375,3.1871798038482666,108.26000213623047],"max":[772.3599853515625,6.2521796226501465,111.1275863647461]},{"bufferView":1,"componentType":5126,"count":924,"type":"VEC3"},{"bufferView":2,"componentType":5126,"count":924,"type":"VEC2"},{"bufferView":3,"componentType":5126,"count":924,"type":"VEC3"},{"bufferView":4,"componentType":5126,"count":924,"type":"VEC3"},{"bufferView":5,"componentType":5126,"count":924,"type":"VEC3"},{"bufferView":6,"componentType":5126,"count":924,"type":"VEC3"},{"bufferView":7,"componentType":5126,"count":924,"type":"SCALAR"},{"bufferView":8,"componentType":5125,"count":696,"type":"SCALAR"},{"bufferView":9,"componentType":5125,"count":144,"type":"SCALAR"},{"bufferView":10,"componentType":5125,"count":36,"type":"SCALAR"},{"bufferView":11,"componentType":5125,"count":48,"type":"SCALAR"}],"materials":[{"name":"legacy-material-5","pbrMetallicRoughness":{"baseColorFactor":[1,1,1,1],"metallicFactor":0,"roughnessFactor":1},"doubleSided":true,"extras":{"legacyMaterial":5,"legacyShader":"dist/renderer-gl.js","limitation":"Browser procedural material not implemented by this glTF export; source/base attributes retained."}},{"name":"legacy-material-17","pbrMetallicRoughness":{"baseColorFactor":[1,1,1,1],"metallicFactor":0,"roughnessFactor":1},"doubleSided":true,"extras":{"legacyMaterial":17,"legacyShader":"dist/renderer-gl.js","limitation":"Browser procedural material not implemented by this glTF export; source/base attributes retained."}},{"name":"legacy-material-7","pbrMetallicRoughness":{"baseColorFactor":[1,1,1,1],"metallicFactor":0,"roughnessFactor":1},"doubleSided":true,"extras":{"legacyMaterial":7,"legacyShader":"dist/renderer-gl.js","limitation":"Browser procedural material not implemented by this glTF export; source/base attributes retained."}},{"name":"legacy-material-6","pbrMetallicRoughness":{"baseColorFactor":[1,1,1,1],"metallicFactor":0,"roughnessFactor":1},"doubleSided":true,"extras":{"legacyMaterial":6,"legacyShader":"dist/renderer-gl.js","limitation":"Browser procedural material not implemented by this glTF export; source/base attributes retained."}}],"extras":{"veldrenAssetId":"veldren:world-part:ff9402a31eec401e852dc0f56ad9f1d86cf7611085ab9ce32c18834c0147eff5"},"buffers":[{"uri":"ff9402a31eec401e852dc0f56ad9f1d86cf7611085ab9ce32c18834c0147eff5.bin","byteLength":81312}]}
