{"asset":{"version":"2.0","generator":"Veldren static world recovery"},"scene":0,"scenes":[{"nodes":[0,2,7]}],"extras":{"sourceScene":"coastal_beacon_roof","notVervesisScene":true,"gameplayIdentityExternal":true,"limitations":["Terrain stored separately.","Dynamic actors, fires, gates, crops, fish, effects and ground cover are not baked.","Roofs are closed; browser procedural materials require native support."]},"nodes":[{"name":"Weapon rack","children":[1],"extras":{"veldrenEntityKey":"coastal_beacon_roof:object:7401533"}},{"mesh":0,"matrix":[1.1718860155454773,0.0,0.0,0.0,0.0,1.1718860155454773,0.0,0.0,0.0,0.0,1.1718860155454773,0.0,3.5,0.003957553055671179,2.713665143849623,1.0]},{"name":"Guard duty table","children":[3,4,5,6],"extras":{"veldrenEntityKey":"coastal_beacon_roof:object:7401534"}},{"mesh":1,"matrix":[0.9588829055315417,0.0,0.0,0.0,0.0,0.9588829055315417,0.0,0.0,0.0,0.0,0.9588829055315417,0.0,4.5,-0.001210940581595084,8.493915312740372,1.0]},{"mesh":2,"matrix":[0.8903870142199419,0.0,0.0,0.0,0.0,0.8903870142199419,0.0,0.0,0.0,0.0,0.8903870142199419,0.0,4.159900358818818,0.7806725885457619,8.4999999800983,1.0]},{"mesh":3,"matrix":[0.9245011738728264,0.0,0.0,0.0,0.0,0.9245011738728264,0.0,0.0,0.0,0.0,0.9245011738728264,0.0,4.776267638674035,0.7842922688491613,8.381239005458749,1.0]},{"mesh":4,"matrix":[1.8683322315556792,0.0,0.0,0.0,0.0,1.8683322315556792,0.0,0.0,0.0,0.0,1.8683322315556792,0.0,4.585621678404976,0.7772700904769891,8.5,1.0]},{"name":"Spiral stairs down to Watch barracks","children":[8],"extras":{"veldrenEntityKey":"coastal_beacon_roof:object:7401535"}},{"mesh":5,"matrix":[1.0,0.0,0.0,0.0,0.0,1.0,0.0,0.0,0.0,0.0,1.0,0.0,0.0,0.0,0.0,1.0]}],"buffers":[{"uri":"../world-parts/71361f5f0e3651cbf9e718aa09a4ed053c36007d4373acffa9b28be748bc7f9b.bin","byteLength":192504},{"uri":"../world-parts/f4b04e3619cf212187b96076e7e940da50275113f8897ecbcd59f59213422623.bin","byteLength":117840},{"uri":"../world-parts/1f7416da9fb55b4744e69d48ce26911a903332abddb1946bc3f9f1cd1766d723.bin","byteLength":17184},{"uri":"../world-parts/2bed24ed427da899c64f0c99a7488970d5ac0a3dd007e3dcf039fbfe4113db36.bin","byteLength":31776},{"uri":"../world-parts/42a4131a7f9fe484a70590f8dd3499998303718cfb71bec957ec5894fb0867bf.bin","byteLength":53532},{"uri":"../world-parts/fdaaf720662177919f20f07373ee553a37f0e579d9c44ff8a4237ecab9fac5a2.bin","byteLength":53856}],"bufferViews":[{"buffer":0,"byteOffset":0,"byteLength":23928,"target":34962},{"buffer":0,"byteOffset":23928,"byteLength":23928,"target":34962},{"buffer":0,"byteOffset":47856,"byteLength":15952,"target":34962},{"buffer":0,"byteOffset":63808,"byteLength":23928,"target":34962},{"buffer":0,"byteOffset":87736,"byteLength":23928,"target":34962},{"buffer":0,"byteOffset":111664,"byteLength":23928,"target":34962},{"buffer":0,"byteOffset":135592,"byteLength":23928,"target":34962},{"buffer":0,"byteOffset":159520,"byteLength":7976,"target":34962},{"buffer":0,"byteOffset":167496,"byteLength":11472,"target":34963},{"buffer":0,"byteOffset":178968,"byteLength":13536,"target":34963},{"buffer":1,"byteOffset":0,"byteLength":15144,"target":34962},{"buffer":1,"byteOffset":15144,"byteLength":15144,"target":34962},{"buffer":1,"byteOffset":30288,"byteLength":10096,"target":34962},{"buffer":1,"byteOffset":40384,"byteLength":15144,"target":34962},{"buffer":1,"byteOffset":55528,"byteLength":15144,"target":34962},{"buffer":1,"byteOffset":70672,"byteLength":15144,"target":34962},{"buffer":1,"byteOffset":85816,"byteLength":15144,"target":34962},{"buffer":1,"byteOffset":100960,"byteLength":5048,"target":34962},{"buffer":1,"byteOffset":106008,"byteLength":11352,"target":34963},{"buffer":1,"byteOffset":117360,"byteLength":480,"target":34963},{"buffer":2,"byteOffset":0,"byteLength":2160,"target":34962},{"buffer":2,"byteOffset":2160,"byteLength":2160,"target":34962},{"buffer":2,"byteOffset":4320,"byteLength":1440,"target":34962},{"buffer":2,"byteOffset":5760,"byteLength":2160,"target":34962},{"buffer":2,"byteOffset":7920,"byteLength":2160,"target":34962},{"buffer":2,"byteOffset":10080,"byteLength":2160,"target":34962},{"buffer":2,"byteOffset":12240,"byteLength":2160,"target":34962},{"buffer":2,"byteOffset":14400,"byteLength":720,"target":34962},{"buffer":2,"byteOffset":15120,"byteLength":2064,"target":34963},{"buffer":3,"byteOffset":0,"byteLength":4080,"target":34962},{"buffer":3,"byteOffset":4080,"byteLength":4080,"target":34962},{"buffer":3,"byteOffset":8160,"byteLength":2720,"target":34962},{"buffer":3,"byteOffset":10880,"byteLength":4080,"target":34962},{"buffer":3,"byteOffset":14960,"byteLength":4080,"target":34962},{"buffer":3,"byteOffset":19040,"byteLength":4080,"target":34962},{"buffer":3,"byteOffset":23120,"byteLength":4080,"target":34962},{"buffer":3,"byteOffset":27200,"byteLength":1360,"target":34962},{"buffer":3,"byteOffset":28560,"byteLength":1464,"target":34963},{"buffer":3,"byteOffset":30024,"byteLength":1752,"target":34963},{"buffer":4,"byteOffset":0,"byteLength":6396,"target":34962},{"buffer":4,"byteOffset":6396,"byteLength":6396,"target":34962},{"buffer":4,"byteOffset":12792,"byteLength":4264,"target":34962},{"buffer":4,"byteOffset":17056,"byteLength":6396,"target":34962},{"buffer":4,"byteOffset":23452,"byteLength":6396,"target":34962},{"buffer":4,"byteOffset":29848,"byteLength":6396,"target":34962},{"buffer":4,"byteOffset":36244,"byteLength":6396,"target":34962},{"buffer":4,"byteOffset":42640,"byteLength":2132,"target":34962},{"buffer":4,"byteOffset":44772,"byteLength":8760,"target":34963},{"buffer":5,"byteOffset":0,"byteLength":7344,"target":34962},{"buffer":5,"byteOffset":7344,"byteLength":7344,"target":34962},{"buffer":5,"byteOffset":14688,"byteLength":4896,"target":34962},{"buffer":5,"byteOffset":19584,"byteLength":7344,"target":34962},{"buffer":5,"byteOffset":26928,"byteLength":7344,"target":34962},{"buffer":5,"byteOffset":34272,"byteLength":7344,"target":34962},{"buffer":5,"byteOffset":41616,"byteLength":7344,"target":34962},{"buffer":5,"byteOffset":48960,"byteLength":2448,"target":34962},{"buffer":5,"byteOffset":51408,"byteLength":2448,"target":34963}],"accessors":[{"bufferView":0,"componentType":5126,"count":1994,"type":"VEC3","min":[-0.6930983662605286,-0.0033770801965147257,-0.49469810724258423],"max":[0.6930983662605286,1.1059458255767822,0.488442987203598]},{"bufferView":1,"componentType":5126,"count":1994,"type":"VEC3"},{"bufferView":2,"componentType":5126,"count":1994,"type":"VEC2"},{"bufferView":3,"componentType":5126,"count":1994,"type":"VEC3"},{"bufferView":4,"componentType":5126,"count":1994,"type":"VEC3"},{"bufferView":5,"componentType":5126,"count":1994,"type":"VEC3"},{"bufferView":6,"componentType":5126,"count":1994,"type":"VEC3"},{"bufferView":7,"componentType":5126,"count":1994,"type":"SCALAR"},{"bufferView":8,"componentType":5125,"count":2868,"type":"SCALAR"},{"bufferView":9,"componentType":5125,"count":3384,"type":"SCALAR"},{"bufferView":10,"componentType":5126,"count":1262,"type":"VEC3","min":[-1.4242464303970337,0.001262865960597992,-0.5419855713844299],"max":[1.4242464303970337,0.8147094249725342,0.5546767711639404]},{"bufferView":11,"componentType":5126,"count":1262,"type":"VEC3"},{"bufferView":12,"componentType":5126,"count":1262,"type":"VEC2"},{"bufferView":13,"componentType":5126,"count":1262,"type":"VEC3"},{"bufferView":14,"componentType":5126,"count":1262,"type":"VEC3"},{"bufferView":15,"componentType":5126,"count":1262,"type":"VEC3"},{"bufferView":16,"componentType":5126,"count":1262,"type":"VEC3"},{"bufferView":17,"componentType":5126,"count":1262,"type":"SCALAR"},{"bufferView":18,"componentType":5125,"count":2838,"type":"SCALAR"},{"bufferView":19,"componentType":5125,"count":120,"type":"SCALAR"},{"bufferView":20,"componentType":5126,"count":180,"type":"VEC3","min":[-0.16652752459049225,-0.0007553889881819487,-0.16846604645252228],"max":[0.16675134003162384,0.01940305158495903,0.16846609115600586]},{"bufferView":21,"componentType":5126,"count":180,"type":"VEC3"},{"bufferView":22,"componentType":5126,"count":180,"type":"VEC2"},{"bufferView":23,"componentType":5126,"count":180,"type":"VEC3"},{"bufferView":24,"componentType":5126,"count":180,"type":"VEC3"},{"bufferView":25,"componentType":5126,"count":180,"type":"VEC3"},{"bufferView":26,"componentType":5126,"count":180,"type":"VEC3"},{"bufferView":27,"componentType":5126,"count":180,"type":"SCALAR"},{"bufferView":28,"componentType":5125,"count":516,"type":"SCALAR"},{"bufferView":29,"componentType":5126,"count":340,"type":"VEC3","min":[-0.07037083804607391,-0.004642794374376535,-0.07473406940698624],"max":[0.12171173840761185,0.1792401522397995,0.0720536932349205]},{"bufferView":30,"componentType":5126,"count":340,"type":"VEC3"},{"bufferView":31,"componentType":5126,"count":340,"type":"VEC2"},{"bufferView":32,"componentType":5126,"count":340,"type":"VEC3"},{"bufferView":33,"componentType":5126,"count":340,"type":"VEC3"},{"bufferView":34,"componentType":5126,"count":340,"type":"VEC3"},{"bufferView":35,"componentType":5126,"count":340,"type":"VEC3"},{"bufferView":36,"componentType":5126,"count":340,"type":"SCALAR"},{"bufferView":37,"componentType":5125,"count":366,"type":"SCALAR"},{"bufferView":38,"componentType":5125,"count":438,"type":"SCALAR"},{"bufferView":39,"componentType":5126,"count":533,"type":"VEC3","min":[-0.1762866973876953,0.0014611477963626385,-0.0896759033203125],"max":[0.08463096618652344,0.15667979419231415,0.0896759033203125]},{"bufferView":40,"componentType":5126,"count":533,"type":"VEC3"},{"bufferView":41,"componentType":5126,"count":533,"type":"VEC2"},{"bufferView":42,"componentType":5126,"count":533,"type":"VEC3"},{"bufferView":43,"componentType":5126,"count":533,"type":"VEC3"},{"bufferView":44,"componentType":5126,"count":533,"type":"VEC3"},{"bufferView":45,"componentType":5126,"count":533,"type":"VEC3"},{"bufferView":46,"componentType":5126,"count":533,"type":"SCALAR"},{"bufferView":47,"componentType":5125,"count":2190,"type":"SCALAR"},{"bufferView":48,"componentType":5126,"count":612,"type":"VEC3","min":[6.664999961853027,-2.700000047683716,12.0],"max":[8.335000038146973,0.699999988079071,15.0]},{"bufferView":49,"componentType":5126,"count":612,"type":"VEC3"},{"bufferView":50,"componentType":5126,"count":612,"type":"VEC2"},{"bufferView":51,"componentType":5126,"count":612,"type":"VEC3"},{"bufferView":52,"componentType":5126,"count":612,"type":"VEC3"},{"bufferView":53,"componentType":5126,"count":612,"type":"VEC3"},{"bufferView":54,"componentType":5126,"count":612,"type":"VEC3"},{"bufferView":55,"componentType":5126,"count":612,"type":"SCALAR"},{"bufferView":56,"componentType":5125,"count":612,"type":"SCALAR"}],"meshes":[{"name":"71361f5f0e3651cbf9e718aa09a4ed053c36007d4373acffa9b28be748bc7f9b","primitives":[{"attributes":{"POSITION":0,"NORMAL":1,"TEXCOORD_0":2,"COLOR_0":3,"_VELDREN_NORMAL":4,"_VELDREN_COLOR":5,"_VELDREN_FALLBACK":6,"_VELDREN_MATERIAL":7},"indices":8,"material":0,"extras":{"mixedAtlasFallback":false}},{"attributes":{"POSITION":0,"NORMAL":1,"TEXCOORD_0":2,"COLOR_0":3,"_VELDREN_NORMAL":4,"_VELDREN_COLOR":5,"_VELDREN_FALLBACK":6,"_VELDREN_MATERIAL":7},"indices":9,"material":1,"extras":{"mixedAtlasFallback":false}}]},{"name":"f4b04e3619cf212187b96076e7e940da50275113f8897ecbcd59f59213422623","primitives":[{"attributes":{"POSITION":10,"NORMAL":11,"TEXCOORD_0":12,"COLOR_0":13,"_VELDREN_NORMAL":14,"_VELDREN_COLOR":15,"_VELDREN_FALLBACK":16,"_VELDREN_MATERIAL":17},"indices":18,"material":2,"extras":{"mixedAtlasFallback":false}},{"attributes":{"POSITION":10,"NORMAL":11,"TEXCOORD_0":12,"COLOR_0":13,"_VELDREN_NORMAL":14,"_VELDREN_COLOR":15,"_VELDREN_FALLBACK":16,"_VELDREN_MATERIAL":17},"indices":19,"material":3,"extras":{"mixedAtlasFallback":false}}]},{"name":"1f7416da9fb55b4744e69d48ce26911a903332abddb1946bc3f9f1cd1766d723","primitives":[{"attributes":{"POSITION":20,"NORMAL":21,"TEXCOORD_0":22,"COLOR_0":23,"_VELDREN_NORMAL":24,"_VELDREN_COLOR":25,"_VELDREN_FALLBACK":26,"_VELDREN_MATERIAL":27},"indices":28,"material":4,"extras":{"mixedAtlasFallback":false}}]},{"name":"2bed24ed427da899c64f0c99a7488970d5ac0a3dd007e3dcf039fbfe4113db36","primitives":[{"attributes":{"POSITION":29,"NORMAL":30,"TEXCOORD_0":31,"COLOR_0":32,"_VELDREN_NORMAL":33,"_VELDREN_COLOR":34,"_VELDREN_FALLBACK":35,"_VELDREN_MATERIAL":36},"indices":37,"material":5,"extras":{"mixedAtlasFallback":false}},{"attributes":{"POSITION":29,"NORMAL":30,"TEXCOORD_0":31,"COLOR_0":32,"_VELDREN_NORMAL":33,"_VELDREN_COLOR":34,"_VELDREN_FALLBACK":35,"_VELDREN_MATERIAL":36},"indices":38,"material":6,"extras":{"mixedAtlasFallback":false}}]},{"name":"42a4131a7f9fe484a70590f8dd3499998303718cfb71bec957ec5894fb0867bf","primitives":[{"attributes":{"POSITION":39,"NORMAL":40,"TEXCOORD_0":41,"COLOR_0":42,"_VELDREN_NORMAL":43,"_VELDREN_COLOR":44,"_VELDREN_FALLBACK":45,"_VELDREN_MATERIAL":46},"indices":47,"material":7,"extras":{"mixedAtlasFallback":false}}]},{"name":"fdaaf720662177919f20f07373ee553a37f0e579d9c44ff8a4237ecab9fac5a2","primitives":[{"attributes":{"POSITION":48,"NORMAL":49,"TEXCOORD_0":50,"COLOR_0":51,"_VELDREN_NORMAL":52,"_VELDREN_COLOR":53,"_VELDREN_FALLBACK":54,"_VELDREN_MATERIAL":55},"indices":56,"material":8,"extras":{"mixedAtlasFallback":false}}]}],"materials":[{"name":"legacy-material-43","pbrMetallicRoughness":{"baseColorFactor":[1,1,1,1],"metallicFactor":0,"roughnessFactor":1,"baseColorTexture":{"index":0}},"doubleSided":true,"extras":{"legacyMaterial":43,"legacyShader":"dist/renderer-gl.js"}},{"name":"legacy-material-42","pbrMetallicRoughness":{"baseColorFactor":[1,1,1,1],"metallicFactor":0,"roughnessFactor":1,"baseColorTexture":{"index":1}},"doubleSided":true,"extras":{"legacyMaterial":42,"legacyShader":"dist/renderer-gl.js"}},{"name":"legacy-material-43","pbrMetallicRoughness":{"baseColorFactor":[1,1,1,1],"metallicFactor":0,"roughnessFactor":1,"baseColorTexture":{"index":2}},"doubleSided":true,"extras":{"legacyMaterial":43,"legacyShader":"dist/renderer-gl.js"}},{"name":"legacy-material-42","pbrMetallicRoughness":{"baseColorFactor":[1,1,1,1],"metallicFactor":0,"roughnessFactor":1,"baseColorTexture":{"index":3}},"doubleSided":true,"extras":{"legacyMaterial":42,"legacyShader":"dist/renderer-gl.js"}},{"name":"legacy-material-42","pbrMetallicRoughness":{"baseColorFactor":[1,1,1,1],"metallicFactor":0,"roughnessFactor":1,"baseColorTexture":{"index":4}},"doubleSided":true,"extras":{"legacyMaterial":42,"legacyShader":"dist/renderer-gl.js"}},{"name":"legacy-material-42","pbrMetallicRoughness":{"baseColorFactor":[1,1,1,1],"metallicFactor":0,"roughnessFactor":1,"baseColorTexture":{"index":5}},"doubleSided":true,"extras":{"legacyMaterial":42,"legacyShader":"dist/renderer-gl.js"}},{"name":"legacy-material-43","pbrMetallicRoughness":{"baseColorFactor":[1,1,1,1],"metallicFactor":0,"roughnessFactor":1,"baseColorTexture":{"index":6}},"doubleSided":true,"extras":{"legacyMaterial":43,"legacyShader":"dist/renderer-gl.js"}},{"name":"legacy-material-42","pbrMetallicRoughness":{"baseColorFactor":[1,1,1,1],"metallicFactor":0,"roughnessFactor":1,"baseColorTexture":{"index":7}},"doubleSided":true,"extras":{"legacyMaterial":42,"legacyShader":"dist/renderer-gl.js"}},{"name":"legacy-material-18","pbrMetallicRoughness":{"baseColorFactor":[1,1,1,1],"metallicFactor":0,"roughnessFactor":1},"doubleSided":true,"extras":{"legacyMaterial":18,"legacyShader":"dist/renderer-gl.js","limitation":"Browser procedural material not implemented by this glTF export; source/base attributes retained."}}],"images":[{"name":"atlas-23","uri":"../../textures/atlas/tile-23.png"},{"name":"atlas-22","uri":"../../textures/atlas/tile-22.png"},{"name":"atlas-23","uri":"../../textures/atlas/tile-23.png"},{"name":"atlas-22","uri":"../../textures/atlas/tile-22.png"},{"name":"atlas-22","uri":"../../textures/atlas/tile-22.png"},{"name":"atlas-22","uri":"../../textures/atlas/tile-22.png"},{"name":"atlas-23","uri":"../../textures/atlas/tile-23.png"},{"name":"atlas-22","uri":"../../textures/atlas/tile-22.png"}],"textures":[{"source":0,"sampler":0},{"source":1,"sampler":0},{"source":2,"sampler":1},{"source":3,"sampler":1},{"source":4,"sampler":2},{"source":5,"sampler":3},{"source":6,"sampler":3},{"source":7,"sampler":4}],"samplers":[{"magFilter":9729,"minFilter":9729,"wrapS":10497,"wrapT":10497},{"magFilter":9729,"minFilter":9729,"wrapS":10497,"wrapT":10497},{"magFilter":9729,"minFilter":9729,"wrapS":10497,"wrapT":10497},{"magFilter":9729,"minFilter":9729,"wrapS":10497,"wrapT":10497},{"magFilter":9729,"minFilter":9729,"wrapS":10497,"wrapT":10497}]}
