{"asset":{"version":"2.0","generator":"Veldren static world recovery"},"scene":0,"scenes":[{"nodes":[0,2]}],"extras":{"sourceScene":"dungeon","notVervesisScene":true,"gameplayIdentityExternal":true,"limitations":["Terrain stored separately.","Dynamic actors, fires, gates, crops, fish, effects and ground cover are not baked.","Roofs are closed; browser procedural materials require native support."]},"nodes":[{"name":"Ladder to the surface","children":[1],"extras":{"veldrenEntityKey":"dungeon:object:263"}},{"mesh":0,"matrix":[1.0,0.0,0.0,0.0,0.0,1.0,0.0,0.0,0.0,0.0,1.0,0.0,0.0,0.0,0.0,1.0]},{"name":"Crypt supply cache","children":[3],"extras":{"veldrenEntityKey":"dungeon:object:271"}},{"mesh":1,"matrix":[1.0486178136353188,0.0,0.0,0.0,0.0,1.0486178136353188,0.0,0.0,0.0,0.0,1.0486178136353188,0.0,24.500443267675298,0.023800355289167158,22.5,1.0]}],"buffers":[{"uri":"../world-parts/5289fbfa3dc040489b756ff457298fed8cbdc81bc0eaf946d5b240c059b7e28d.bin","byteLength":54384},{"uri":"../world-parts/974a21d8ae8e0859926ffd9e6f304d80a7c46e7e5ee3150935a76e128408bac6.bin","byteLength":299352}],"bufferViews":[{"buffer":0,"byteOffset":0,"byteLength":7416,"target":34962},{"buffer":0,"byteOffset":7416,"byteLength":7416,"target":34962},{"buffer":0,"byteOffset":14832,"byteLength":4944,"target":34962},{"buffer":0,"byteOffset":19776,"byteLength":7416,"target":34962},{"buffer":0,"byteOffset":27192,"byteLength":7416,"target":34962},{"buffer":0,"byteOffset":34608,"byteLength":7416,"target":34962},{"buffer":0,"byteOffset":42024,"byteLength":7416,"target":34962},{"buffer":0,"byteOffset":49440,"byteLength":2472,"target":34962},{"buffer":0,"byteOffset":51912,"byteLength":432,"target":34963},{"buffer":0,"byteOffset":52344,"byteLength":24,"target":34963},{"buffer":0,"byteOffset":52368,"byteLength":2016,"target":34963},{"buffer":1,"byteOffset":0,"byteLength":38400,"target":34962},{"buffer":1,"byteOffset":38400,"byteLength":38400,"target":34962},{"buffer":1,"byteOffset":76800,"byteLength":25600,"target":34962},{"buffer":1,"byteOffset":102400,"byteLength":38400,"target":34962},{"buffer":1,"byteOffset":140800,"byteLength":38400,"target":34962},{"buffer":1,"byteOffset":179200,"byteLength":38400,"target":34962},{"buffer":1,"byteOffset":217600,"byteLength":38400,"target":34962},{"buffer":1,"byteOffset":256000,"byteLength":12800,"target":34962},{"buffer":1,"byteOffset":268800,"byteLength":4416,"target":34963},{"buffer":1,"byteOffset":273216,"byteLength":26136,"target":34963}],"accessors":[{"bufferView":0,"componentType":5126,"count":618,"type":"VEC3","min":[13.149999618530273,-0.021243557333946228,22.89836311340332],"max":[15.850000381469727,4.105000019073486,25.024999618530273]},{"bufferView":1,"componentType":5126,"count":618,"type":"VEC3"},{"bufferView":2,"componentType":5126,"count":618,"type":"VEC2"},{"bufferView":3,"componentType":5126,"count":618,"type":"VEC3"},{"bufferView":4,"componentType":5126,"count":618,"type":"VEC3"},{"bufferView":5,"componentType":5126,"count":618,"type":"VEC3"},{"bufferView":6,"componentType":5126,"count":618,"type":"VEC3"},{"bufferView":7,"componentType":5126,"count":618,"type":"SCALAR"},{"bufferView":8,"componentType":5125,"count":108,"type":"SCALAR"},{"bufferView":9,"componentType":5125,"count":6,"type":"SCALAR"},{"bufferView":10,"componentType":5125,"count":504,"type":"SCALAR"},{"bufferView":11,"componentType":5126,"count":3200,"type":"VEC3","min":[-0.638446033000946,-0.022696882486343384,-0.3777054250240326],"max":[0.6376006007194519,0.6925303339958191,0.3777054250240326]},{"bufferView":12,"componentType":5126,"count":3200,"type":"VEC3"},{"bufferView":13,"componentType":5126,"count":3200,"type":"VEC2"},{"bufferView":14,"componentType":5126,"count":3200,"type":"VEC3"},{"bufferView":15,"componentType":5126,"count":3200,"type":"VEC3"},{"bufferView":16,"componentType":5126,"count":3200,"type":"VEC3"},{"bufferView":17,"componentType":5126,"count":3200,"type":"VEC3"},{"bufferView":18,"componentType":5126,"count":3200,"type":"SCALAR"},{"bufferView":19,"componentType":5125,"count":1104,"type":"SCALAR"},{"bufferView":20,"componentType":5125,"count":6534,"type":"SCALAR"}],"meshes":[{"name":"5289fbfa3dc040489b756ff457298fed8cbdc81bc0eaf946d5b240c059b7e28d","primitives":[{"attributes":{"POSITION":0,"NORMAL":1,"TEXCOORD_0":2,"COLOR_0":3,"_VELDREN_NORMAL":4,"_VELDREN_COLOR":5,"_VELDREN_FALLBACK":6,"_VELDREN_MATERIAL":7},"indices":8,"material":0,"extras":{"mixedAtlasFallback":false}},{"attributes":{"POSITION":0,"NORMAL":1,"TEXCOORD_0":2,"COLOR_0":3,"_VELDREN_NORMAL":4,"_VELDREN_COLOR":5,"_VELDREN_FALLBACK":6,"_VELDREN_MATERIAL":7},"indices":9,"material":1,"extras":{"mixedAtlasFallback":false}},{"attributes":{"POSITION":0,"NORMAL":1,"TEXCOORD_0":2,"COLOR_0":3,"_VELDREN_NORMAL":4,"_VELDREN_COLOR":5,"_VELDREN_FALLBACK":6,"_VELDREN_MATERIAL":7},"indices":10,"material":2,"extras":{"mixedAtlasFallback":false}}]},{"name":"974a21d8ae8e0859926ffd9e6f304d80a7c46e7e5ee3150935a76e128408bac6","primitives":[{"attributes":{"POSITION":11,"NORMAL":12,"TEXCOORD_0":13,"COLOR_0":14,"_VELDREN_NORMAL":15,"_VELDREN_COLOR":16,"_VELDREN_FALLBACK":17,"_VELDREN_MATERIAL":18},"indices":19,"material":3,"extras":{"mixedAtlasFallback":false}},{"attributes":{"POSITION":11,"NORMAL":12,"TEXCOORD_0":13,"COLOR_0":14,"_VELDREN_NORMAL":15,"_VELDREN_COLOR":16,"_VELDREN_FALLBACK":17,"_VELDREN_MATERIAL":18},"indices":20,"material":4,"extras":{"mixedAtlasFallback":false}}]}],"materials":[{"name":"legacy-material-18","pbrMetallicRoughness":{"baseColorFactor":[1,1,1,1],"metallicFactor":0,"roughnessFactor":1},"doubleSided":true,"extras":{"legacyMaterial":18,"legacyShader":"dist/renderer-gl.js","limitation":"Browser procedural material not implemented by this glTF export; source/base attributes retained."}},{"name":"legacy-material-7","pbrMetallicRoughness":{"baseColorFactor":[1,1,1,1],"metallicFactor":0,"roughnessFactor":1},"doubleSided":true,"extras":{"legacyMaterial":7,"legacyShader":"dist/renderer-gl.js","limitation":"Browser procedural material not implemented by this glTF export; source/base attributes retained."}},{"name":"legacy-material-20","pbrMetallicRoughness":{"baseColorFactor":[1,1,1,1],"metallicFactor":0,"roughnessFactor":1,"baseColorTexture":{"index":0}},"doubleSided":true,"extras":{"legacyMaterial":20,"legacyShader":"dist/renderer-gl.js"}},{"name":"legacy-material-43","pbrMetallicRoughness":{"baseColorFactor":[1,1,1,1],"metallicFactor":0,"roughnessFactor":1,"baseColorTexture":{"index":1}},"doubleSided":true,"extras":{"legacyMaterial":43,"legacyShader":"dist/renderer-gl.js"}},{"name":"legacy-material-42","pbrMetallicRoughness":{"baseColorFactor":[1,1,1,1],"metallicFactor":0,"roughnessFactor":1,"baseColorTexture":{"index":2}},"doubleSided":true,"extras":{"legacyMaterial":42,"legacyShader":"dist/renderer-gl.js"}}],"images":[{"name":"atlas-00","uri":"../../textures/atlas/tile-00.png"},{"name":"atlas-23","uri":"../../textures/atlas/tile-23.png"},{"name":"atlas-22","uri":"../../textures/atlas/tile-22.png"}],"textures":[{"source":0,"sampler":0},{"source":1,"sampler":1},{"source":2,"sampler":1}],"samplers":[{"magFilter":9729,"minFilter":9729,"wrapS":10497,"wrapT":10497},{"magFilter":9729,"minFilter":9729,"wrapS":10497,"wrapT":10497}]}
