{"asset":{"version":"2.0","generator":"Veldren static world recovery"},"scene":0,"scenes":[{"nodes":[0,2,4,6,8,10,12,14,16,18,20]}],"extras":{"sourceScene":"fairy_between","notVervesisScene":true,"gameplayIdentityExternal":true,"limitations":["Terrain stored separately.","Dynamic actors, fires, gates, crops, fish, effects and ground cover are not baked.","Roofs are closed; browser procedural materials require native support."]},"nodes":[{"name":"Crossing back to Briarhaven","children":[1],"extras":{"veldrenEntityKey":"fairy_between:object:9300011"}},{"mesh":0,"matrix":[1.0,0.0,0.0,0.0,0.0,1.0,0.0,0.0,0.0,0.0,1.0,0.0,0.0,0.0,0.0,1.0]},{"name":"Lake immersion stone","children":[3],"extras":{"veldrenEntityKey":"fairy_between:object:9300012"}},{"mesh":1,"matrix":[1.0,0.0,0.0,0.0,0.0,1.0,0.0,0.0,0.0,0.0,1.0,0.0,0.0,0.0,0.0,1.0]},{"name":"Moonwillow tree","children":[5],"extras":{"veldrenEntityKey":"fairy_between:object:9300014"}},{"mesh":2,"matrix":[-0.8879461560236502,0.0,0.1939051683764793,0.0,0.0,0.9088716027692181,0.0,0.0,-0.1939051683764793,0.0,-0.8879461560236502,0.0,13.5,0.6012542428118215,24.5,1.0]},{"name":"Moonwillow tree","children":[7],"extras":{"veldrenEntityKey":"fairy_between:object:9300015"}},{"mesh":2,"matrix":[0.7248780311689464,0.0,0.4223778416871378,0.0,0.0,0.8389584025562012,0.0,0.0,-0.4223778416871378,0.0,0.7248780311689464,0.0,21.5,0.6011577625955276,19.5,1.0]},{"name":"Moonwillow tree","children":[9],"extras":{"veldrenEntityKey":"fairy_between:object:9300016"}},{"mesh":2,"matrix":[-0.2587693884186073,0.0,-0.8347250059129795,0.0,0.0,0.8739150026627096,0.0,0.0,0.8347250059129795,0.0,-0.2587693884186073,0.0,31.5,0.6012060027036745,13.5,1.0]},{"name":"Moonwillow tree","children":[11],"extras":{"veldrenEntityKey":"fairy_between:object:9300017"}},{"mesh":2,"matrix":[-0.3887532583489183,0.0,0.8215342320581575,0.0,0.0,0.9088716027692181,0.0,0.0,-0.8215342320581575,0.0,-0.3887532583489183,0.0,48.5,0.6012542428118215,12.5,1.0]},{"name":"Moonwillow tree","children":[13],"extras":{"veldrenEntityKey":"fairy_between:object:9300018"}},{"mesh":2,"matrix":[0.7771598027714368,0.0,-0.3160282300300314,0.0,0.0,0.8389584025562012,0.0,0.0,0.3160282300300314,0.0,0.7771598027714368,0.0,59.5,0.6011577625955276,21.5,1.0]},{"name":"Moonwillow tree","children":[15],"extras":{"veldrenEntityKey":"fairy_between:object:9300019"}},{"mesh":2,"matrix":[-0.8190061345564567,0.0,-0.3048874930820465,0.0,0.0,0.8739150026627096,0.0,0.0,0.3048874930820465,0.0,-0.8190061345564567,0.0,62.5,0.6012060027036745,37.5,1.0]},{"name":"Moonwillow tree","children":[17],"extras":{"veldrenEntityKey":"fairy_between:object:9300020"}},{"mesh":2,"matrix":[0.41309993037200077,0.0,0.8095653388374131,0.0,0.0,0.9088716027692181,0.0,0.0,-0.8095653388374131,0.0,0.41309993037200077,0.0,63.5,0.6012542428118215,55.5,1.0]},{"name":"Moonwillow tree","children":[19],"extras":{"veldrenEntityKey":"fairy_between:object:9300021"}},{"mesh":2,"matrix":[0.22439092323549417,0.0,-0.8083934158497182,0.0,0.0,0.8389584025562012,0.0,0.0,0.8083934158497182,0.0,0.22439092323549417,0.0,24.5,0.6011577625955276,60.5,1.0]},{"name":"Moonwillow tree","children":[21],"extras":{"veldrenEntityKey":"fairy_between:object:9300022"}},{"mesh":2,"matrix":[-0.7416131509622681,0.0,0.4623173868661873,0.0,0.0,0.8739150026627096,0.0,0.0,-0.4623173868661873,0.0,-0.7416131509622681,0.0,14.5,0.6012060027036745,43.5,1.0]}],"buffers":[{"uri":"../world-parts/ad56aea7bffa99dfeedbfd9e5ca2e656f8249a01f0278af8e9728351c068e974.bin","byteLength":25344},{"uri":"../world-parts/5bfa9266b434efc4146d7533e31b9743e8f67bd6a61a70f68ea533ddc302db15.bin","byteLength":25344},{"uri":"../world-parts/629e78b439d8b314fb62411e16a47eeeaf0f6f78bb3f3150468167c9e9d3eef3.bin","byteLength":92004}],"bufferViews":[{"buffer":0,"byteOffset":0,"byteLength":3456,"target":34962},{"buffer":0,"byteOffset":3456,"byteLength":3456,"target":34962},{"buffer":0,"byteOffset":6912,"byteLength":2304,"target":34962},{"buffer":0,"byteOffset":9216,"byteLength":3456,"target":34962},{"buffer":0,"byteOffset":12672,"byteLength":3456,"target":34962},{"buffer":0,"byteOffset":16128,"byteLength":3456,"target":34962},{"buffer":0,"byteOffset":19584,"byteLength":3456,"target":34962},{"buffer":0,"byteOffset":23040,"byteLength":1152,"target":34962},{"buffer":0,"byteOffset":24192,"byteLength":1152,"target":34963},{"buffer":1,"byteOffset":0,"byteLength":3456,"target":34962},{"buffer":1,"byteOffset":3456,"byteLength":3456,"target":34962},{"buffer":1,"byteOffset":6912,"byteLength":2304,"target":34962},{"buffer":1,"byteOffset":9216,"byteLength":3456,"target":34962},{"buffer":1,"byteOffset":12672,"byteLength":3456,"target":34962},{"buffer":1,"byteOffset":16128,"byteLength":3456,"target":34962},{"buffer":1,"byteOffset":19584,"byteLength":3456,"target":34962},{"buffer":1,"byteOffset":23040,"byteLength":1152,"target":34962},{"buffer":1,"byteOffset":24192,"byteLength":1152,"target":34963},{"buffer":2,"byteOffset":0,"byteLength":10956,"target":34962},{"buffer":2,"byteOffset":10956,"byteLength":10956,"target":34962},{"buffer":2,"byteOffset":21912,"byteLength":7304,"target":34962},{"buffer":2,"byteOffset":29216,"byteLength":10956,"target":34962},{"buffer":2,"byteOffset":40172,"byteLength":10956,"target":34962},{"buffer":2,"byteOffset":51128,"byteLength":10956,"target":34962},{"buffer":2,"byteOffset":62084,"byteLength":10956,"target":34962},{"buffer":2,"byteOffset":73040,"byteLength":3652,"target":34962},{"buffer":2,"byteOffset":76692,"byteLength":8112,"target":34963},{"buffer":2,"byteOffset":84804,"byteLength":7200,"target":34963}],"accessors":[{"bufferView":0,"componentType":5126,"count":288,"type":"VEC3","min":[19.709999084472656,0.6000000238418579,51.36143493652344],"max":[21.290000915527344,1.7000000476837158,51.70000076293945]},{"bufferView":1,"componentType":5126,"count":288,"type":"VEC3"},{"bufferView":2,"componentType":5126,"count":288,"type":"VEC2"},{"bufferView":3,"componentType":5126,"count":288,"type":"VEC3"},{"bufferView":4,"componentType":5126,"count":288,"type":"VEC3"},{"bufferView":5,"componentType":5126,"count":288,"type":"VEC3"},{"bufferView":6,"componentType":5126,"count":288,"type":"VEC3"},{"bufferView":7,"componentType":5126,"count":288,"type":"SCALAR"},{"bufferView":8,"componentType":5125,"count":288,"type":"SCALAR"},{"bufferView":9,"componentType":5126,"count":288,"type":"VEC3","min":[37.709999084472656,0.6000000238418579,43.36143493652344],"max":[39.290000915527344,1.7000000476837158,43.70000076293945]},{"bufferView":10,"componentType":5126,"count":288,"type":"VEC3"},{"bufferView":11,"componentType":5126,"count":288,"type":"VEC2"},{"bufferView":12,"componentType":5126,"count":288,"type":"VEC3"},{"bufferView":13,"componentType":5126,"count":288,"type":"VEC3"},{"bufferView":14,"componentType":5126,"count":288,"type":"VEC3"},{"bufferView":15,"componentType":5126,"count":288,"type":"VEC3"},{"bufferView":16,"componentType":5126,"count":288,"type":"SCALAR"},{"bufferView":17,"componentType":5125,"count":288,"type":"SCALAR"},{"bufferView":18,"componentType":5126,"count":913,"type":"VEC3","min":[-2.969912052154541,-0.0013800000306218863,-2.3520750999450684],"max":[3.394526958465576,5.491145133972168,2.5843169689178467]},{"bufferView":19,"componentType":5126,"count":913,"type":"VEC3"},{"bufferView":20,"componentType":5126,"count":913,"type":"VEC2"},{"bufferView":21,"componentType":5126,"count":913,"type":"VEC3"},{"bufferView":22,"componentType":5126,"count":913,"type":"VEC3"},{"bufferView":23,"componentType":5126,"count":913,"type":"VEC3"},{"bufferView":24,"componentType":5126,"count":913,"type":"VEC3"},{"bufferView":25,"componentType":5126,"count":913,"type":"SCALAR"},{"bufferView":26,"componentType":5125,"count":2028,"type":"SCALAR"},{"bufferView":27,"componentType":5125,"count":1800,"type":"SCALAR"}],"meshes":[{"name":"ad56aea7bffa99dfeedbfd9e5ca2e656f8249a01f0278af8e9728351c068e974","primitives":[{"attributes":{"POSITION":0,"NORMAL":1,"TEXCOORD_0":2,"COLOR_0":3,"_VELDREN_NORMAL":4,"_VELDREN_COLOR":5,"_VELDREN_FALLBACK":6,"_VELDREN_MATERIAL":7},"indices":8,"material":0,"extras":{"mixedAtlasFallback":false}}]},{"name":"5bfa9266b434efc4146d7533e31b9743e8f67bd6a61a70f68ea533ddc302db15","primitives":[{"attributes":{"POSITION":9,"NORMAL":10,"TEXCOORD_0":11,"COLOR_0":12,"_VELDREN_NORMAL":13,"_VELDREN_COLOR":14,"_VELDREN_FALLBACK":15,"_VELDREN_MATERIAL":16},"indices":17,"material":1,"extras":{"mixedAtlasFallback":false}}]},{"name":"629e78b439d8b314fb62411e16a47eeeaf0f6f78bb3f3150468167c9e9d3eef3","primitives":[{"attributes":{"POSITION":18,"NORMAL":19,"TEXCOORD_0":20,"COLOR_0":21,"_VELDREN_NORMAL":22,"_VELDREN_COLOR":23,"_VELDREN_FALLBACK":24,"_VELDREN_MATERIAL":25},"indices":26,"material":2,"extras":{"mixedAtlasFallback":false}},{"attributes":{"POSITION":18,"NORMAL":19,"TEXCOORD_0":20,"COLOR_0":21,"_VELDREN_NORMAL":22,"_VELDREN_COLOR":23,"_VELDREN_FALLBACK":24,"_VELDREN_MATERIAL":25},"indices":27,"material":3,"extras":{"mixedAtlasFallback":false}}]}],"materials":[{"name":"legacy-material-20","pbrMetallicRoughness":{"baseColorFactor":[1,1,1,1],"metallicFactor":0,"roughnessFactor":1,"baseColorTexture":{"index":0}},"doubleSided":true,"extras":{"legacyMaterial":20,"legacyShader":"dist/renderer-gl.js"}},{"name":"legacy-material-20","pbrMetallicRoughness":{"baseColorFactor":[1,1,1,1],"metallicFactor":0,"roughnessFactor":1,"baseColorTexture":{"index":1}},"doubleSided":true,"extras":{"legacyMaterial":20,"legacyShader":"dist/renderer-gl.js"}},{"name":"legacy-material-49","pbrMetallicRoughness":{"baseColorFactor":[1,1,1,1],"metallicFactor":0,"roughnessFactor":1,"baseColorTexture":{"index":2}},"doubleSided":true,"extras":{"legacyMaterial":49,"legacyShader":"dist/renderer-gl.js"}},{"name":"legacy-material-51","pbrMetallicRoughness":{"baseColorFactor":[1,1,1,1],"metallicFactor":0,"roughnessFactor":1,"baseColorTexture":{"index":3}},"doubleSided":true,"extras":{"legacyMaterial":51,"legacyShader":"dist/renderer-gl.js"},"alphaMode":"MASK","alphaCutoff":0.45}],"images":[{"name":"atlas-00","uri":"../../textures/atlas/tile-00.png"},{"name":"atlas-00","uri":"../../textures/atlas/tile-00.png"},{"name":"atlas-29","uri":"../../textures/atlas/tile-29.png"},{"name":"atlas-31","uri":"../../textures/atlas/tile-31.png"}],"textures":[{"source":0,"sampler":0},{"source":1,"sampler":1},{"source":2,"sampler":2},{"source":3,"sampler":2}],"samplers":[{"magFilter":9729,"minFilter":9729,"wrapS":10497,"wrapT":10497},{"magFilter":9729,"minFilter":9729,"wrapS":10497,"wrapT":10497},{"magFilter":9729,"minFilter":9729,"wrapS":10497,"wrapT":10497}]}
