{"asset":{"version":"2.0","generator":"Veldren static world recovery"},"scene":0,"scenes":[{"nodes":[0,14,16,18,20,23,25,27,29,32,34,36,38]}],"extras":{"sourceScene":"lair_veyr","notVervesisScene":true,"gameplayIdentityExternal":true,"limitations":["Terrain stored separately.","Dynamic actors, fires, gates, crops, fish, effects and ground cover are not baked.","Roofs are closed; browser procedural materials require native support."]},"nodes":[{"name":"Cave opening to the surface","children":[1,2,3,4,5,6,7,8,9,10,11,12,13],"extras":{"veldrenEntityKey":"lair_veyr:object:5800002"}},{"mesh":0,"matrix":[0.3820556104183197,0.0,-1.6375902891159058,0.0,0.0,1.6815673112869263,0.0,0.0,1.6375902891159058,0.0,0.3820556104183197,0.0,26.479373931884766,0.4559255838394165,136.1804656982422,1.0]},{"mesh":0,"matrix":[0.3820556104183197,0.0,1.6375902891159058,0.0,0.0,1.6815673112869263,0.0,0.0,-1.6375902891159058,0.0,0.3820556104183197,0.0,18.608280181884766,0.4559255838394165,136.55616760253906,1.0]},{"mesh":0,"matrix":[0.8839312791824341,0.0,-1.9314249753952026,0.0,0.0,2.124084949493408,0.0,0.0,1.9314249753952026,0.0,0.8839312791824341,0.0,26.935665130615234,0.575905978679657,139.9737548828125,1.0]},{"mesh":0,"matrix":[0.8839312791824341,0.0,1.9314249753952026,0.0,0.0,2.124084949493408,0.0,0.0,-1.9314249753952026,0.0,0.8839312791824341,0.0,18.267131805419922,0.575905978679657,140.41688537597656,1.0]},{"mesh":0,"matrix":[-2.5666027069091797,0.0,-3.1431817720720785e-16,0.0,0.0,2.5666027069091797,0.0,0.0,3.1431817720720785e-16,0.0,-2.5666027069091797,0.0,22.205577850341797,0.6958864331245422,144.38467407226562,1.0]},{"mesh":0,"matrix":[-1.2671947479248047,0.0,-1.9735387563705444,0.0,0.0,2.345343828201294,0.0,0.0,1.9735387563705444,0.0,-1.2671947479248047,0.0,24.174386978149414,0.6358962059020996,142.21038818359375,1.0]},{"mesh":0,"matrix":[-1.2671947479248047,0.0,1.9735387563705444,0.0,0.0,2.345343828201294,0.0,0.0,-1.9735387563705444,0.0,-1.2671947479248047,0.0,20.53488540649414,0.6358962059020996,142.66317749023438,1.0]},{"mesh":0,"matrix":[-1.1837092638015747,0.0,-0.3661641776561737,0.0,0.0,1.2390495538711548,0.0,0.0,0.3661641776561737,0.0,-1.1837092638015747,0.0,24.93800163269043,0.33594515919685364,137.66600036621094,1.0]},{"mesh":0,"matrix":[-1.1837092638015747,0.0,0.3661641776561737,0.0,0.0,1.2390495538711548,0.0,0.0,-0.3661641776561737,0.0,-1.1837092638015747,0.0,19.790424346923828,0.33594515919685364,137.75001525878906,1.0]},{"mesh":1,"matrix":[-0.9497977495193481,0.0,-1.1631666866443886e-16,0.0,0.0,0.9497977495193481,0.0,0.0,1.1631666866443886e-16,0.0,-0.9497977495193481,0.0,22.391498565673828,2.99979829788208,138.50503540039062,1.0]},{"mesh":2,"matrix":[-1.056781530380249,0.0,-1.2941841547389076e-16,0.0,0.0,1.056781530380249,0.0,0.0,1.2941841547389076e-16,0.0,-1.056781530380249,0.0,24.149999618530273,0.0,136.6829071044922,1.0]},{"mesh":2,"matrix":[-1.056781530380249,0.0,-1.2941841547389076e-16,0.0,0.0,1.056781530380249,0.0,0.0,1.2941841547389076e-16,0.0,-1.056781530380249,0.0,20.850000381469727,0.0,136.6829071044922,1.0]},{"mesh":3,"matrix":[1.0,0.0,0.0,0.0,0.0,1.0,0.0,0.0,0.0,0.0,1.0,0.0,0.0,0.0,0.0,1.0]},{"name":"The borrowed captain","children":[15],"extras":{"veldrenEntityKey":"lair_veyr:object:6100015"}},{"mesh":4,"matrix":[1.0,0.0,0.0,0.0,0.0,1.0,0.0,0.0,0.0,0.0,1.0,0.0,0.0,0.0,0.0,1.0]},{"name":"The stolen last shift","children":[17],"extras":{"veldrenEntityKey":"lair_veyr:object:6100016"}},{"mesh":5,"matrix":[1.0,0.0,0.0,0.0,0.0,1.0,0.0,0.0,0.0,0.0,1.0,0.0,0.0,0.0,0.0,1.0]},{"name":"The remembered companion","children":[19],"extras":{"veldrenEntityKey":"lair_veyr:object:6100017"}},{"mesh":6,"matrix":[1.0,0.0,0.0,0.0,0.0,1.0,0.0,0.0,0.0,0.0,1.0,0.0,0.0,0.0,0.0,1.0]},{"name":"Abandoned multi-site survey chart","children":[21,22],"extras":{"veldrenEntityKey":"lair_veyr:object:6100018"}},{"mesh":7,"matrix":[0.983469646699017,0.0,0.0,0.0,0.0,0.983469646699017,0.0,0.0,0.0,0.0,0.983469646699017,0.0,27.5,-0.0012419903400975219,11.493759295118329,1.0]},{"mesh":8,"matrix":[1.0,0.0,0.0,0.0,0.0,1.0,0.0,0.0,0.0,0.0,1.0,0.0,0.0,0.0,0.0,1.0]},{"name":"Broken road orders","children":[24],"extras":{"veldrenEntityKey":"lair_veyr:object:6600064"}},{"mesh":9,"matrix":[1.0,0.0,0.0,0.0,0.0,1.0,0.0,0.0,0.0,0.0,1.0,0.0,0.0,0.0,0.0,1.0]},{"name":"A familiar seven-point seal","children":[26],"extras":{"veldrenEntityKey":"lair_veyr:object:6600065"}},{"mesh":10,"matrix":[1.0,0.0,0.0,0.0,0.0,1.0,0.0,0.0,0.0,0.0,1.0,0.0,0.0,0.0,0.0,1.0]},{"name":"Last-shift refuge brace","children":[28],"extras":{"veldrenEntityKey":"lair_veyr:object:6600066"}},{"mesh":11,"matrix":[1.0,0.0,0.0,0.0,0.0,1.0,0.0,0.0,0.0,0.0,1.0,0.0,0.0,0.0,0.0,1.0]},{"name":"Discarded family memento","children":[30,31],"extras":{"veldrenEntityKey":"lair_veyr:object:6600067"}},{"mesh":7,"matrix":[0.983469646699017,0.0,0.0,0.0,0.0,0.983469646699017,0.0,0.0,0.0,0.0,0.983469646699017,0.0,17.5,-0.0012419903400975219,84.49375929511832,1.0]},{"mesh":12,"matrix":[1.0,0.0,0.0,0.0,0.0,1.0,0.0,0.0,0.0,0.0,1.0,0.0,0.0,0.0,0.0,1.0]},{"name":"Counter-ward waymarker","children":[33],"extras":{"veldrenEntityKey":"lair_veyr:object:6600068"}},{"mesh":13,"matrix":[1.0,0.0,0.0,0.0,0.0,1.0,0.0,0.0,0.0,0.0,1.0,0.0,0.0,0.0,0.0,1.0]},{"name":"Empty companion\u2019s bedroll","children":[35],"extras":{"veldrenEntityKey":"lair_veyr:object:6600069"}},{"mesh":14,"matrix":[1.0,0.0,0.0,0.0,0.0,1.0,0.0,0.0,0.0,0.0,1.0,0.0,0.0,0.0,0.0,1.0]},{"name":"Shattered ward statue","children":[37],"extras":{"veldrenEntityKey":"lair_veyr:object:6600070"}},{"mesh":15,"matrix":[1.0,0.0,0.0,0.0,0.0,1.0,0.0,0.0,0.0,0.0,1.0,0.0,0.0,0.0,0.0,1.0]},{"name":"Operatives\u2019 survey instruments","children":[39,40],"extras":{"veldrenEntityKey":"lair_veyr:object:6600071"}},{"mesh":16,"matrix":[4.601546394749576e-17,0.0,-0.7514895556748855,0.0,0.0,0.7514895556748855,0.0,0.0,0.7514895556748855,0.0,4.601546394749576e-17,0.0,30.5,0.4311388113132429,12.497093328945683,1.0]},{"mesh":17,"matrix":[1.3661726624646224,0.0,0.0,0.0,0.0,1.3661726624646224,0.0,0.0,0.0,0.0,1.3661726624646224,0.0,30.94864025755757,-0.0009650076227388876,12.710536298983254,1.0]}],"buffers":[{"uri":"../world-parts/87518852959993e1050fc7f2474bd1a5f55b7770b81ad0bc7ad85c610949f148.bin","byteLength":33588},{"uri":"../world-parts/8c4654b75a5b0dd366624e9b3ae860c1198466904b9672745d0dc93f6a1a18ba.bin","byteLength":50868},{"uri":"../world-parts/5fb692d9d4e99bd87aee423f7a04df49ce0569c26298299884ad45022f8ac0ae.bin","byteLength":7056},{"uri":"../world-parts/7c10b865fd10ec89e9df75568f9af20ead6f6bde8a168cdf15eba679b4163f8d.bin","byteLength":3696},{"uri":"../world-parts/4841ecf5900292912714cb3cea0b1693c68ec20c9606f8435423cd059c160d56.bin","byteLength":12144},{"uri":"../world-parts/e552d55701f8fba66bfe809c3e2deb706896bad84b5590c007e71a6640d59433.bin","byteLength":12144},{"uri":"../world-parts/06d925be56890b7398f2194cc88b3c173bbe8188dffdc321e0608349b6aa138f.bin","byteLength":12144},{"uri":"../world-parts/f4b04e3619cf212187b96076e7e940da50275113f8897ecbcd59f59213422623.bin","byteLength":117840},{"uri":"../world-parts/05eeade98d12ba14d0340bdd323a713e91b73c1afff52438cf7b0e28d7676e78.bin","byteLength":38016},{"uri":"../world-parts/10d8e0547b8a2c343b499591c54b6023695335d1640c6a9cec8f6b1a6761ecce.bin","byteLength":9504},{"uri":"../world-parts/b662e93886eb0c310bda98cc610438088c946099193d4610fd52c41e4923e3be.bin","byteLength":25344},{"uri":"../world-parts/3c5a2392f80d4bab02fca4fe4fd66908f856b1e34b94581a4c9d279a6cf1d0ab.bin","byteLength":15840},{"uri":"../world-parts/464556278b1668b24bec4521c79a4ee2bc9de3d0a5005b4378590d0f4d4f9204.bin","byteLength":6336},{"uri":"../world-parts/a232a7e2ad7c9118f5d956d98679e80520457f52a37102fa16f090ed29fdb33b.bin","byteLength":15840},{"uri":"../world-parts/ea7a708ca3afed70d2dc9084c864db9c5f2592b113f95c4183816a646378b8a8.bin","byteLength":8448},{"uri":"../world-parts/8018fc270656efb7287b73773db423f5c30e45aad858c85226fa66fcc1a8656c.bin","byteLength":762432},{"uri":"../world-parts/07f83272cd508b9654a4521d48dbf3e5ae515f8eca44fc3f7ff72f08aa404d3e.bin","byteLength":64080},{"uri":"../world-parts/9e417f8a31493ebc5f04240e9e4919f67c7c6fd9d7d0105ec8349264d7ee9488.bin","byteLength":81768}],"bufferViews":[{"buffer":0,"byteOffset":0,"byteLength":4212,"target":34962},{"buffer":0,"byteOffset":4212,"byteLength":4212,"target":34962},{"buffer":0,"byteOffset":8424,"byteLength":2808,"target":34962},{"buffer":0,"byteOffset":11232,"byteLength":4212,"target":34962},{"buffer":0,"byteOffset":15444,"byteLength":4212,"target":34962},{"buffer":0,"byteOffset":19656,"byteLength":4212,"target":34962},{"buffer":0,"byteOffset":23868,"byteLength":4212,"target":34962},{"buffer":0,"byteOffset":28080,"byteLength":1404,"target":34962},{"buffer":0,"byteOffset":29484,"byteLength":4104,"target":34963},{"buffer":1,"byteOffset":0,"byteLength":6372,"target":34962},{"buffer":1,"byteOffset":6372,"byteLength":6372,"target":34962},{"buffer":1,"byteOffset":12744,"byteLength":4248,"target":34962},{"buffer":1,"byteOffset":16992,"byteLength":6372,"target":34962},{"buffer":1,"byteOffset":23364,"byteLength":6372,"target":34962},{"buffer":1,"byteOffset":29736,"byteLength":6372,"target":34962},{"buffer":1,"byteOffset":36108,"byteLength":6372,"target":34962},{"buffer":1,"byteOffset":42480,"byteLength":2124,"target":34962},{"buffer":1,"byteOffset":44604,"byteLength":6264,"target":34963},{"buffer":2,"byteOffset":0,"byteLength":912,"target":34962},{"buffer":2,"byteOffset":912,"byteLength":912,"target":34962},{"buffer":2,"byteOffset":1824,"byteLength":608,"target":34962},{"buffer":2,"byteOffset":2432,"byteLength":912,"target":34962},{"buffer":2,"byteOffset":3344,"byteLength":912,"target":34962},{"buffer":2,"byteOffset":4256,"byteLength":912,"target":34962},{"buffer":2,"byteOffset":5168,"byteLength":912,"target":34962},{"buffer":2,"byteOffset":6080,"byteLength":304,"target":34962},{"buffer":2,"byteOffset":6384,"byteLength":600,"target":34963},{"buffer":2,"byteOffset":6984,"byteLength":24,"target":34963},{"buffer":2,"byteOffset":7008,"byteLength":48,"target":34963},{"buffer":3,"byteOffset":0,"byteLength":504,"target":34962},{"buffer":3,"byteOffset":504,"byteLength":504,"target":34962},{"buffer":3,"byteOffset":1008,"byteLength":336,"target":34962},{"buffer":3,"byteOffset":1344,"byteLength":504,"target":34962},{"buffer":3,"byteOffset":1848,"byteLength":504,"target":34962},{"buffer":3,"byteOffset":2352,"byteLength":504,"target":34962},{"buffer":3,"byteOffset":2856,"byteLength":504,"target":34962},{"buffer":3,"byteOffset":3360,"byteLength":168,"target":34962},{"buffer":3,"byteOffset":3528,"byteLength":24,"target":34963},{"buffer":3,"byteOffset":3552,"byteLength":144,"target":34963},{"buffer":4,"byteOffset":0,"byteLength":1656,"target":34962},{"buffer":4,"byteOffset":1656,"byteLength":1656,"target":34962},{"buffer":4,"byteOffset":3312,"byteLength":1104,"target":34962},{"buffer":4,"byteOffset":4416,"byteLength":1656,"target":34962},{"buffer":4,"byteOffset":6072,"byteLength":1656,"target":34962},{"buffer":4,"byteOffset":7728,"byteLength":1656,"target":34962},{"buffer":4,"byteOffset":9384,"byteLength":1656,"target":34962},{"buffer":4,"byteOffset":11040,"byteLength":552,"target":34962},{"buffer":4,"byteOffset":11592,"byteLength":240,"target":34963},{"buffer":4,"byteOffset":11832,"byteLength":312,"target":34963},{"buffer":5,"byteOffset":0,"byteLength":1656,"target":34962},{"buffer":5,"byteOffset":1656,"byteLength":1656,"target":34962},{"buffer":5,"byteOffset":3312,"byteLength":1104,"target":34962},{"buffer":5,"byteOffset":4416,"byteLength":1656,"target":34962},{"buffer":5,"byteOffset":6072,"byteLength":1656,"target":34962},{"buffer":5,"byteOffset":7728,"byteLength":1656,"target":34962},{"buffer":5,"byteOffset":9384,"byteLength":1656,"target":34962},{"buffer":5,"byteOffset":11040,"byteLength":552,"target":34962},{"buffer":5,"byteOffset":11592,"byteLength":240,"target":34963},{"buffer":5,"byteOffset":11832,"byteLength":312,"target":34963},{"buffer":6,"byteOffset":0,"byteLength":1656,"target":34962},{"buffer":6,"byteOffset":1656,"byteLength":1656,"target":34962},{"buffer":6,"byteOffset":3312,"byteLength":1104,"target":34962},{"buffer":6,"byteOffset":4416,"byteLength":1656,"target":34962},{"buffer":6,"byteOffset":6072,"byteLength":1656,"target":34962},{"buffer":6,"byteOffset":7728,"byteLength":1656,"target":34962},{"buffer":6,"byteOffset":9384,"byteLength":1656,"target":34962},{"buffer":6,"byteOffset":11040,"byteLength":552,"target":34962},{"buffer":6,"byteOffset":11592,"byteLength":240,"target":34963},{"buffer":6,"byteOffset":11832,"byteLength":312,"target":34963},{"buffer":7,"byteOffset":0,"byteLength":15144,"target":34962},{"buffer":7,"byteOffset":15144,"byteLength":15144,"target":34962},{"buffer":7,"byteOffset":30288,"byteLength":10096,"target":34962},{"buffer":7,"byteOffset":40384,"byteLength":15144,"target":34962},{"buffer":7,"byteOffset":55528,"byteLength":15144,"target":34962},{"buffer":7,"byteOffset":70672,"byteLength":15144,"target":34962},{"buffer":7,"byteOffset":85816,"byteLength":15144,"target":34962},{"buffer":7,"byteOffset":100960,"byteLength":5048,"target":34962},{"buffer":7,"byteOffset":106008,"byteLength":11352,"target":34963},{"buffer":7,"byteOffset":117360,"byteLength":480,"target":34963},{"buffer":8,"byteOffset":0,"byteLength":5184,"target":34962},{"buffer":8,"byteOffset":5184,"byteLength":5184,"target":34962},{"buffer":8,"byteOffset":10368,"byteLength":3456,"target":34962},{"buffer":8,"byteOffset":13824,"byteLength":5184,"target":34962},{"buffer":8,"byteOffset":19008,"byteLength":5184,"target":34962},{"buffer":8,"byteOffset":24192,"byteLength":5184,"target":34962},{"buffer":8,"byteOffset":29376,"byteLength":5184,"target":34962},{"buffer":8,"byteOffset":34560,"byteLength":1728,"target":34962},{"buffer":8,"byteOffset":36288,"byteLength":1728,"target":34963},{"buffer":9,"byteOffset":0,"byteLength":1296,"target":34962},{"buffer":9,"byteOffset":1296,"byteLength":1296,"target":34962},{"buffer":9,"byteOffset":2592,"byteLength":864,"target":34962},{"buffer":9,"byteOffset":3456,"byteLength":1296,"target":34962},{"buffer":9,"byteOffset":4752,"byteLength":1296,"target":34962},{"buffer":9,"byteOffset":6048,"byteLength":1296,"target":34962},{"buffer":9,"byteOffset":7344,"byteLength":1296,"target":34962},{"buffer":9,"byteOffset":8640,"byteLength":432,"target":34962},{"buffer":9,"byteOffset":9072,"byteLength":432,"target":34963},{"buffer":10,"byteOffset":0,"byteLength":3456,"target":34962},{"buffer":10,"byteOffset":3456,"byteLength":3456,"target":34962},{"buffer":10,"byteOffset":6912,"byteLength":2304,"target":34962},{"buffer":10,"byteOffset":9216,"byteLength":3456,"target":34962},{"buffer":10,"byteOffset":12672,"byteLength":3456,"target":34962},{"buffer":10,"byteOffset":16128,"byteLength":3456,"target":34962},{"buffer":10,"byteOffset":19584,"byteLength":3456,"target":34962},{"buffer":10,"byteOffset":23040,"byteLength":1152,"target":34962},{"buffer":10,"byteOffset":24192,"byteLength":1152,"target":34963},{"buffer":11,"byteOffset":0,"byteLength":2160,"target":34962},{"buffer":11,"byteOffset":2160,"byteLength":2160,"target":34962},{"buffer":11,"byteOffset":4320,"byteLength":1440,"target":34962},{"buffer":11,"byteOffset":5760,"byteLength":2160,"target":34962},{"buffer":11,"byteOffset":7920,"byteLength":2160,"target":34962},{"buffer":11,"byteOffset":10080,"byteLength":2160,"target":34962},{"buffer":11,"byteOffset":12240,"byteLength":2160,"target":34962},{"buffer":11,"byteOffset":14400,"byteLength":720,"target":34962},{"buffer":11,"byteOffset":15120,"byteLength":720,"target":34963},{"buffer":12,"byteOffset":0,"byteLength":864,"target":34962},{"buffer":12,"byteOffset":864,"byteLength":864,"target":34962},{"buffer":12,"byteOffset":1728,"byteLength":576,"target":34962},{"buffer":12,"byteOffset":2304,"byteLength":864,"target":34962},{"buffer":12,"byteOffset":3168,"byteLength":864,"target":34962},{"buffer":12,"byteOffset":4032,"byteLength":864,"target":34962},{"buffer":12,"byteOffset":4896,"byteLength":864,"target":34962},{"buffer":12,"byteOffset":5760,"byteLength":288,"target":34962},{"buffer":12,"byteOffset":6048,"byteLength":288,"target":34963},{"buffer":13,"byteOffset":0,"byteLength":2160,"target":34962},{"buffer":13,"byteOffset":2160,"byteLength":2160,"target":34962},{"buffer":13,"byteOffset":4320,"byteLength":1440,"target":34962},{"buffer":13,"byteOffset":5760,"byteLength":2160,"target":34962},{"buffer":13,"byteOffset":7920,"byteLength":2160,"target":34962},{"buffer":13,"byteOffset":10080,"byteLength":2160,"target":34962},{"buffer":13,"byteOffset":12240,"byteLength":2160,"target":34962},{"buffer":13,"byteOffset":14400,"byteLength":720,"target":34962},{"buffer":13,"byteOffset":15120,"byteLength":720,"target":34963},{"buffer":14,"byteOffset":0,"byteLength":1152,"target":34962},{"buffer":14,"byteOffset":1152,"byteLength":1152,"target":34962},{"buffer":14,"byteOffset":2304,"byteLength":768,"target":34962},{"buffer":14,"byteOffset":3072,"byteLength":1152,"target":34962},{"buffer":14,"byteOffset":4224,"byteLength":1152,"target":34962},{"buffer":14,"byteOffset":5376,"byteLength":1152,"target":34962},{"buffer":14,"byteOffset":6528,"byteLength":1152,"target":34962},{"buffer":14,"byteOffset":7680,"byteLength":384,"target":34962},{"buffer":14,"byteOffset":8064,"byteLength":384,"target":34963},{"buffer":15,"byteOffset":0,"byteLength":103968,"target":34962},{"buffer":15,"byteOffset":103968,"byteLength":103968,"target":34962},{"buffer":15,"byteOffset":207936,"byteLength":69312,"target":34962},{"buffer":15,"byteOffset":277248,"byteLength":103968,"target":34962},{"buffer":15,"byteOffset":381216,"byteLength":103968,"target":34962},{"buffer":15,"byteOffset":485184,"byteLength":103968,"target":34962},{"buffer":15,"byteOffset":589152,"byteLength":103968,"target":34962},{"buffer":15,"byteOffset":693120,"byteLength":34656,"target":34962},{"buffer":15,"byteOffset":727776,"byteLength":34320,"target":34963},{"buffer":15,"byteOffset":762096,"byteLength":336,"target":34963},{"buffer":16,"byteOffset":0,"byteLength":7824,"target":34962},{"buffer":16,"byteOffset":7824,"byteLength":7824,"target":34962},{"buffer":16,"byteOffset":15648,"byteLength":5216,"target":34962},{"buffer":16,"byteOffset":20864,"byteLength":7824,"target":34962},{"buffer":16,"byteOffset":28688,"byteLength":7824,"target":34962},{"buffer":16,"byteOffset":36512,"byteLength":7824,"target":34962},{"buffer":16,"byteOffset":44336,"byteLength":7824,"target":34962},{"buffer":16,"byteOffset":52160,"byteLength":2608,"target":34962},{"buffer":16,"byteOffset":54768,"byteLength":9312,"target":34963},{"buffer":17,"byteOffset":0,"byteLength":10008,"target":34962},{"buffer":17,"byteOffset":10008,"byteLength":10008,"target":34962},{"buffer":17,"byteOffset":20016,"byteLength":6672,"target":34962},{"buffer":17,"byteOffset":26688,"byteLength":10008,"target":34962},{"buffer":17,"byteOffset":36696,"byteLength":10008,"target":34962},{"buffer":17,"byteOffset":46704,"byteLength":10008,"target":34962},{"buffer":17,"byteOffset":56712,"byteLength":10008,"target":34962},{"buffer":17,"byteOffset":66720,"byteLength":3336,"target":34962},{"buffer":17,"byteOffset":70056,"byteLength":7728,"target":34963},{"buffer":17,"byteOffset":77784,"byteLength":3984,"target":34963}],"accessors":[{"bufferView":0,"componentType":5126,"count":351,"type":"VEC3","min":[-1.7272872924804688,-0.27113133668899536,-1.1498832702636719],"max":[1.4978611469268799,1.988665223121643,1.8392531871795654]},{"bufferView":1,"componentType":5126,"count":351,"type":"VEC3"},{"bufferView":2,"componentType":5126,"count":351,"type":"VEC2"},{"bufferView":3,"componentType":5126,"count":351,"type":"VEC3"},{"bufferView":4,"componentType":5126,"count":351,"type":"VEC3"},{"bufferView":5,"componentType":5126,"count":351,"type":"VEC3"},{"bufferView":6,"componentType":5126,"count":351,"type":"VEC3"},{"bufferView":7,"componentType":5126,"count":351,"type":"SCALAR"},{"bufferView":8,"componentType":5125,"count":1026,"type":"SCALAR"},{"bufferView":9,"componentType":5126,"count":531,"type":"VEC3","min":[-1.8242793083190918,-0.31564441323280334,-0.8904620409011841],"max":[1.5958054065704346,2.000638246536255,2.5856480598449707]},{"bufferView":10,"componentType":5126,"count":531,"type":"VEC3"},{"bufferView":11,"componentType":5126,"count":531,"type":"VEC2"},{"bufferView":12,"componentType":5126,"count":531,"type":"VEC3"},{"bufferView":13,"componentType":5126,"count":531,"type":"VEC3"},{"bufferView":14,"componentType":5126,"count":531,"type":"VEC3"},{"bufferView":15,"componentType":5126,"count":531,"type":"VEC3"},{"bufferView":16,"componentType":5126,"count":531,"type":"SCALAR"},{"bufferView":17,"componentType":5125,"count":1566,"type":"SCALAR"},{"bufferView":18,"componentType":5126,"count":76,"type":"VEC3","min":[-1.0000001192092896,0.0,-0.3140353262424469],"max":[1.0,3.1226887702941895,0.09244640171527863]},{"bufferView":19,"componentType":5126,"count":76,"type":"VEC3"},{"bufferView":20,"componentType":5126,"count":76,"type":"VEC2"},{"bufferView":21,"componentType":5126,"count":76,"type":"VEC3"},{"bufferView":22,"componentType":5126,"count":76,"type":"VEC3"},{"bufferView":23,"componentType":5126,"count":76,"type":"VEC3"},{"bufferView":24,"componentType":5126,"count":76,"type":"VEC3"},{"bufferView":25,"componentType":5126,"count":76,"type":"SCALAR"},{"bufferView":26,"componentType":5125,"count":150,"type":"SCALAR"},{"bufferView":27,"componentType":5125,"count":6,"type":"SCALAR"},{"bufferView":28,"componentType":5125,"count":12,"type":"SCALAR"},{"bufferView":29,"componentType":5126,"count":42,"type":"VEC3","min":[20.799999237060547,0.0,136.6199951171875],"max":[24.200000762939453,3.055884599685669,137.0]},{"bufferView":30,"componentType":5126,"count":42,"type":"VEC3"},{"bufferView":31,"componentType":5126,"count":42,"type":"VEC2"},{"bufferView":32,"componentType":5126,"count":42,"type":"VEC3"},{"bufferView":33,"componentType":5126,"count":42,"type":"VEC3"},{"bufferView":34,"componentType":5126,"count":42,"type":"VEC3"},{"bufferView":35,"componentType":5126,"count":42,"type":"VEC3"},{"bufferView":36,"componentType":5126,"count":42,"type":"SCALAR"},{"bufferView":37,"componentType":5125,"count":6,"type":"SCALAR"},{"bufferView":38,"componentType":5125,"count":36,"type":"SCALAR"},{"bufferView":39,"componentType":5126,"count":138,"type":"VEC3","min":[22.100000381469727,0.0,119.1535873413086],"max":[22.899999618530273,1.4249999523162842,119.8464126586914]},{"bufferView":40,"componentType":5126,"count":138,"type":"VEC3"},{"bufferView":41,"componentType":5126,"count":138,"type":"VEC2"},{"bufferView":42,"componentType":5126,"count":138,"type":"VEC3"},{"bufferView":43,"componentType":5126,"count":138,"type":"VEC3"},{"bufferView":44,"componentType":5126,"count":138,"type":"VEC3"},{"bufferView":45,"componentType":5126,"count":138,"type":"VEC3"},{"bufferView":46,"componentType":5126,"count":138,"type":"SCALAR"},{"bufferView":47,"componentType":5125,"count":60,"type":"SCALAR"},{"bufferView":48,"componentType":5125,"count":78,"type":"SCALAR"},{"bufferView":49,"componentType":5126,"count":138,"type":"VEC3","min":[12.100000381469727,0.0,92.1535873413086],"max":[12.899999618530273,1.4249999523162842,92.8464126586914]},{"bufferView":50,"componentType":5126,"count":138,"type":"VEC3"},{"bufferView":51,"componentType":5126,"count":138,"type":"VEC2"},{"bufferView":52,"componentType":5126,"count":138,"type":"VEC3"},{"bufferView":53,"componentType":5126,"count":138,"type":"VEC3"},{"bufferView":54,"componentType":5126,"count":138,"type":"VEC3"},{"bufferView":55,"componentType":5126,"count":138,"type":"VEC3"},{"bufferView":56,"componentType":5126,"count":138,"type":"SCALAR"},{"bufferView":57,"componentType":5125,"count":60,"type":"SCALAR"},{"bufferView":58,"componentType":5125,"count":78,"type":"SCALAR"},{"bufferView":59,"componentType":5126,"count":138,"type":"VEC3","min":[33.099998474121094,0.0,65.1535873413086],"max":[33.900001525878906,1.4249999523162842,65.8464126586914]},{"bufferView":60,"componentType":5126,"count":138,"type":"VEC3"},{"bufferView":61,"componentType":5126,"count":138,"type":"VEC2"},{"bufferView":62,"componentType":5126,"count":138,"type":"VEC3"},{"bufferView":63,"componentType":5126,"count":138,"type":"VEC3"},{"bufferView":64,"componentType":5126,"count":138,"type":"VEC3"},{"bufferView":65,"componentType":5126,"count":138,"type":"VEC3"},{"bufferView":66,"componentType":5126,"count":138,"type":"SCALAR"},{"bufferView":67,"componentType":5125,"count":60,"type":"SCALAR"},{"bufferView":68,"componentType":5125,"count":78,"type":"SCALAR"},{"bufferView":69,"componentType":5126,"count":1262,"type":"VEC3","min":[-1.4242464303970337,0.001262865960597992,-0.5419855713844299],"max":[1.4242464303970337,0.8147094249725342,0.5546767711639404]},{"bufferView":70,"componentType":5126,"count":1262,"type":"VEC3"},{"bufferView":71,"componentType":5126,"count":1262,"type":"VEC2"},{"bufferView":72,"componentType":5126,"count":1262,"type":"VEC3"},{"bufferView":73,"componentType":5126,"count":1262,"type":"VEC3"},{"bufferView":74,"componentType":5126,"count":1262,"type":"VEC3"},{"bufferView":75,"componentType":5126,"count":1262,"type":"VEC3"},{"bufferView":76,"componentType":5126,"count":1262,"type":"SCALAR"},{"bufferView":77,"componentType":5125,"count":2838,"type":"SCALAR"},{"bufferView":78,"componentType":5125,"count":120,"type":"SCALAR"},{"bufferView":79,"componentType":5126,"count":432,"type":"VEC3","min":[26.899999618530273,0.8525000214576721,11.100000381469727],"max":[28.100000381469727,0.9003922939300537,11.899999618530273]},{"bufferView":80,"componentType":5126,"count":432,"type":"VEC3"},{"bufferView":81,"componentType":5126,"count":432,"type":"VEC2"},{"bufferView":82,"componentType":5126,"count":432,"type":"VEC3"},{"bufferView":83,"componentType":5126,"count":432,"type":"VEC3"},{"bufferView":84,"componentType":5126,"count":432,"type":"VEC3"},{"bufferView":85,"componentType":5126,"count":432,"type":"VEC3"},{"bufferView":86,"componentType":5126,"count":432,"type":"SCALAR"},{"bufferView":87,"componentType":5125,"count":432,"type":"SCALAR"},{"bufferView":88,"componentType":5126,"count":108,"type":"VEC3","min":[20.940000534057617,0.029999999329447746,128.3000030517578],"max":[21.899999618530273,0.07000000029802322,129.0]},{"bufferView":89,"componentType":5126,"count":108,"type":"VEC3"},{"bufferView":90,"componentType":5126,"count":108,"type":"VEC2"},{"bufferView":91,"componentType":5126,"count":108,"type":"VEC3"},{"bufferView":92,"componentType":5126,"count":108,"type":"VEC3"},{"bufferView":93,"componentType":5126,"count":108,"type":"VEC3"},{"bufferView":94,"componentType":5126,"count":108,"type":"VEC3"},{"bufferView":95,"componentType":5126,"count":108,"type":"SCALAR"},{"bufferView":96,"componentType":5125,"count":108,"type":"SCALAR"},{"bufferView":97,"componentType":5126,"count":288,"type":"VEC3","min":[26.709999084472656,0.0,115.36143493652344],"max":[28.290000915527344,1.100000023841858,115.69999694824219]},{"bufferView":98,"componentType":5126,"count":288,"type":"VEC3"},{"bufferView":99,"componentType":5126,"count":288,"type":"VEC2"},{"bufferView":100,"componentType":5126,"count":288,"type":"VEC3"},{"bufferView":101,"componentType":5126,"count":288,"type":"VEC3"},{"bufferView":102,"componentType":5126,"count":288,"type":"VEC3"},{"bufferView":103,"componentType":5126,"count":288,"type":"VEC3"},{"bufferView":104,"componentType":5126,"count":288,"type":"SCALAR"},{"bufferView":105,"componentType":5125,"count":288,"type":"SCALAR"},{"bufferView":106,"componentType":5126,"count":180,"type":"VEC3","min":[10.229303359985352,-0.0367826372385025,89.36000061035156],"max":[12.770696640014648,2.5212435722351074,89.87023162841797]},{"bufferView":107,"componentType":5126,"count":180,"type":"VEC3"},{"bufferView":108,"componentType":5126,"count":180,"type":"VEC2"},{"bufferView":109,"componentType":5126,"count":180,"type":"VEC3"},{"bufferView":110,"componentType":5126,"count":180,"type":"VEC3"},{"bufferView":111,"componentType":5126,"count":180,"type":"VEC3"},{"bufferView":112,"componentType":5126,"count":180,"type":"VEC3"},{"bufferView":113,"componentType":5126,"count":180,"type":"SCALAR"},{"bufferView":114,"componentType":5125,"count":180,"type":"SCALAR"},{"bufferView":115,"componentType":5126,"count":72,"type":"VEC3","min":[17.174999237060547,0.8050000071525574,84.28500366210938],"max":[17.825000762939453,0.8974999785423279,84.71499633789062]},{"bufferView":116,"componentType":5126,"count":72,"type":"VEC3"},{"bufferView":117,"componentType":5126,"count":72,"type":"VEC2"},{"bufferView":118,"componentType":5126,"count":72,"type":"VEC3"},{"bufferView":119,"componentType":5126,"count":72,"type":"VEC3"},{"bufferView":120,"componentType":5126,"count":72,"type":"VEC3"},{"bufferView":121,"componentType":5126,"count":72,"type":"VEC3"},{"bufferView":122,"componentType":5126,"count":72,"type":"SCALAR"},{"bufferView":123,"componentType":5125,"count":72,"type":"SCALAR"},{"bufferView":124,"componentType":5126,"count":180,"type":"VEC3","min":[34.150001525878906,0.0,69.44000244140625],"max":[34.849998474121094,1.399999976158142,69.58000183105469]},{"bufferView":125,"componentType":5126,"count":180,"type":"VEC3"},{"bufferView":126,"componentType":5126,"count":180,"type":"VEC2"},{"bufferView":127,"componentType":5126,"count":180,"type":"VEC3"},{"bufferView":128,"componentType":5126,"count":180,"type":"VEC3"},{"bufferView":129,"componentType":5126,"count":180,"type":"VEC3"},{"bufferView":130,"componentType":5126,"count":180,"type":"VEC3"},{"bufferView":131,"componentType":5126,"count":180,"type":"SCALAR"},{"bufferView":132,"componentType":5125,"count":180,"type":"SCALAR"},{"bufferView":133,"componentType":5126,"count":96,"type":"VEC3","min":[28.174999237060547,0.009999999776482582,60.70000076293945],"max":[28.825000762939453,0.375,62.29999923706055]},{"bufferView":134,"componentType":5126,"count":96,"type":"VEC3"},{"bufferView":135,"componentType":5126,"count":96,"type":"VEC2"},{"bufferView":136,"componentType":5126,"count":96,"type":"VEC3"},{"bufferView":137,"componentType":5126,"count":96,"type":"VEC3"},{"bufferView":138,"componentType":5126,"count":96,"type":"VEC3"},{"bufferView":139,"componentType":5126,"count":96,"type":"VEC3"},{"bufferView":140,"componentType":5126,"count":96,"type":"SCALAR"},{"bufferView":141,"componentType":5125,"count":96,"type":"SCALAR"},{"bufferView":142,"componentType":5126,"count":8664,"type":"VEC3","min":[18.899999618530273,0.0,46.900001525878906],"max":[20.100000381469727,2.192631721496582,48.099998474121094]},{"bufferView":143,"componentType":5126,"count":8664,"type":"VEC3"},{"bufferView":144,"componentType":5126,"count":8664,"type":"VEC2"},{"bufferView":145,"componentType":5126,"count":8664,"type":"VEC3"},{"bufferView":146,"componentType":5126,"count":8664,"type":"VEC3"},{"bufferView":147,"componentType":5126,"count":8664,"type":"VEC3"},{"bufferView":148,"componentType":5126,"count":8664,"type":"VEC3"},{"bufferView":149,"componentType":5126,"count":8664,"type":"SCALAR"},{"bufferView":150,"componentType":5125,"count":8580,"type":"SCALAR"},{"bufferView":151,"componentType":5125,"count":84,"type":"SCALAR"},{"bufferView":152,"componentType":5126,"count":652,"type":"VEC3","min":[-0.4102936387062073,-0.49387088418006897,-0.06782905012369156],"max":[0.4025578796863556,0.7037505507469177,0.06782905012369156]},{"bufferView":153,"componentType":5126,"count":652,"type":"VEC3"},{"bufferView":154,"componentType":5126,"count":652,"type":"VEC2"},{"bufferView":155,"componentType":5126,"count":652,"type":"VEC3"},{"bufferView":156,"componentType":5126,"count":652,"type":"VEC3"},{"bufferView":157,"componentType":5126,"count":652,"type":"VEC3"},{"bufferView":158,"componentType":5126,"count":652,"type":"VEC3"},{"bufferView":159,"componentType":5126,"count":652,"type":"SCALAR"},{"bufferView":160,"componentType":5125,"count":2328,"type":"SCALAR"},{"bufferView":161,"componentType":5126,"count":834,"type":"VEC3","min":[-0.2159692943096161,0.0007063584635034204,-0.19943936169147491],"max":[0.21795988082885742,0.2934951186180115,0.18401481211185455]},{"bufferView":162,"componentType":5126,"count":834,"type":"VEC3"},{"bufferView":163,"componentType":5126,"count":834,"type":"VEC2"},{"bufferView":164,"componentType":5126,"count":834,"type":"VEC3"},{"bufferView":165,"componentType":5126,"count":834,"type":"VEC3"},{"bufferView":166,"componentType":5126,"count":834,"type":"VEC3"},{"bufferView":167,"componentType":5126,"count":834,"type":"VEC3"},{"bufferView":168,"componentType":5126,"count":834,"type":"SCALAR"},{"bufferView":169,"componentType":5125,"count":1932,"type":"SCALAR"},{"bufferView":170,"componentType":5125,"count":996,"type":"SCALAR"}],"meshes":[{"name":"87518852959993e1050fc7f2474bd1a5f55b7770b81ad0bc7ad85c610949f148","primitives":[{"attributes":{"POSITION":0,"NORMAL":1,"TEXCOORD_0":2,"COLOR_0":3,"_VELDREN_NORMAL":4,"_VELDREN_COLOR":5,"_VELDREN_FALLBACK":6,"_VELDREN_MATERIAL":7},"indices":8,"material":0,"extras":{"mixedAtlasFallback":false}}]},{"name":"8c4654b75a5b0dd366624e9b3ae860c1198466904b9672745d0dc93f6a1a18ba","primitives":[{"attributes":{"POSITION":9,"NORMAL":10,"TEXCOORD_0":11,"COLOR_0":12,"_VELDREN_NORMAL":13,"_VELDREN_COLOR":14,"_VELDREN_FALLBACK":15,"_VELDREN_MATERIAL":16},"indices":17,"material":1,"extras":{"mixedAtlasFallback":false}}]},{"name":"5fb692d9d4e99bd87aee423f7a04df49ce0569c26298299884ad45022f8ac0ae","primitives":[{"attributes":{"POSITION":18,"NORMAL":19,"TEXCOORD_0":20,"COLOR_0":21,"_VELDREN_NORMAL":22,"_VELDREN_COLOR":23,"_VELDREN_FALLBACK":24,"_VELDREN_MATERIAL":25},"indices":26,"material":2,"extras":{"mixedAtlasFallback":false}},{"attributes":{"POSITION":18,"NORMAL":19,"TEXCOORD_0":20,"COLOR_0":21,"_VELDREN_NORMAL":22,"_VELDREN_COLOR":23,"_VELDREN_FALLBACK":24,"_VELDREN_MATERIAL":25},"indices":27,"material":3,"extras":{"mixedAtlasFallback":false}},{"attributes":{"POSITION":18,"NORMAL":19,"TEXCOORD_0":20,"COLOR_0":21,"_VELDREN_NORMAL":22,"_VELDREN_COLOR":23,"_VELDREN_FALLBACK":24,"_VELDREN_MATERIAL":25},"indices":28,"material":4,"extras":{"mixedAtlasFallback":false}}]},{"name":"7c10b865fd10ec89e9df75568f9af20ead6f6bde8a168cdf15eba679b4163f8d","primitives":[{"attributes":{"POSITION":29,"NORMAL":30,"TEXCOORD_0":31,"COLOR_0":32,"_VELDREN_NORMAL":33,"_VELDREN_COLOR":34,"_VELDREN_FALLBACK":35,"_VELDREN_MATERIAL":36},"indices":37,"material":5,"extras":{"mixedAtlasFallback":false}},{"attributes":{"POSITION":29,"NORMAL":30,"TEXCOORD_0":31,"COLOR_0":32,"_VELDREN_NORMAL":33,"_VELDREN_COLOR":34,"_VELDREN_FALLBACK":35,"_VELDREN_MATERIAL":36},"indices":38,"material":6,"extras":{"mixedAtlasFallback":false}}]},{"name":"4841ecf5900292912714cb3cea0b1693c68ec20c9606f8435423cd059c160d56","primitives":[{"attributes":{"POSITION":39,"NORMAL":40,"TEXCOORD_0":41,"COLOR_0":42,"_VELDREN_NORMAL":43,"_VELDREN_COLOR":44,"_VELDREN_FALLBACK":45,"_VELDREN_MATERIAL":46},"indices":47,"material":7,"extras":{"mixedAtlasFallback":false}},{"attributes":{"POSITION":39,"NORMAL":40,"TEXCOORD_0":41,"COLOR_0":42,"_VELDREN_NORMAL":43,"_VELDREN_COLOR":44,"_VELDREN_FALLBACK":45,"_VELDREN_MATERIAL":46},"indices":48,"material":8,"extras":{"mixedAtlasFallback":false}}]},{"name":"e552d55701f8fba66bfe809c3e2deb706896bad84b5590c007e71a6640d59433","primitives":[{"attributes":{"POSITION":49,"NORMAL":50,"TEXCOORD_0":51,"COLOR_0":52,"_VELDREN_NORMAL":53,"_VELDREN_COLOR":54,"_VELDREN_FALLBACK":55,"_VELDREN_MATERIAL":56},"indices":57,"material":9,"extras":{"mixedAtlasFallback":false}},{"attributes":{"POSITION":49,"NORMAL":50,"TEXCOORD_0":51,"COLOR_0":52,"_VELDREN_NORMAL":53,"_VELDREN_COLOR":54,"_VELDREN_FALLBACK":55,"_VELDREN_MATERIAL":56},"indices":58,"material":10,"extras":{"mixedAtlasFallback":false}}]},{"name":"06d925be56890b7398f2194cc88b3c173bbe8188dffdc321e0608349b6aa138f","primitives":[{"attributes":{"POSITION":59,"NORMAL":60,"TEXCOORD_0":61,"COLOR_0":62,"_VELDREN_NORMAL":63,"_VELDREN_COLOR":64,"_VELDREN_FALLBACK":65,"_VELDREN_MATERIAL":66},"indices":67,"material":11,"extras":{"mixedAtlasFallback":false}},{"attributes":{"POSITION":59,"NORMAL":60,"TEXCOORD_0":61,"COLOR_0":62,"_VELDREN_NORMAL":63,"_VELDREN_COLOR":64,"_VELDREN_FALLBACK":65,"_VELDREN_MATERIAL":66},"indices":68,"material":12,"extras":{"mixedAtlasFallback":false}}]},{"name":"f4b04e3619cf212187b96076e7e940da50275113f8897ecbcd59f59213422623","primitives":[{"attributes":{"POSITION":69,"NORMAL":70,"TEXCOORD_0":71,"COLOR_0":72,"_VELDREN_NORMAL":73,"_VELDREN_COLOR":74,"_VELDREN_FALLBACK":75,"_VELDREN_MATERIAL":76},"indices":77,"material":13,"extras":{"mixedAtlasFallback":false}},{"attributes":{"POSITION":69,"NORMAL":70,"TEXCOORD_0":71,"COLOR_0":72,"_VELDREN_NORMAL":73,"_VELDREN_COLOR":74,"_VELDREN_FALLBACK":75,"_VELDREN_MATERIAL":76},"indices":78,"material":14,"extras":{"mixedAtlasFallback":false}}]},{"name":"05eeade98d12ba14d0340bdd323a713e91b73c1afff52438cf7b0e28d7676e78","primitives":[{"attributes":{"POSITION":79,"NORMAL":80,"TEXCOORD_0":81,"COLOR_0":82,"_VELDREN_NORMAL":83,"_VELDREN_COLOR":84,"_VELDREN_FALLBACK":85,"_VELDREN_MATERIAL":86},"indices":87,"material":15,"extras":{"mixedAtlasFallback":false}}]},{"name":"10d8e0547b8a2c343b499591c54b6023695335d1640c6a9cec8f6b1a6761ecce","primitives":[{"attributes":{"POSITION":88,"NORMAL":89,"TEXCOORD_0":90,"COLOR_0":91,"_VELDREN_NORMAL":92,"_VELDREN_COLOR":93,"_VELDREN_FALLBACK":94,"_VELDREN_MATERIAL":95},"indices":96,"material":16,"extras":{"mixedAtlasFallback":false}}]},{"name":"b662e93886eb0c310bda98cc610438088c946099193d4610fd52c41e4923e3be","primitives":[{"attributes":{"POSITION":97,"NORMAL":98,"TEXCOORD_0":99,"COLOR_0":100,"_VELDREN_NORMAL":101,"_VELDREN_COLOR":102,"_VELDREN_FALLBACK":103,"_VELDREN_MATERIAL":104},"indices":105,"material":17,"extras":{"mixedAtlasFallback":false}}]},{"name":"3c5a2392f80d4bab02fca4fe4fd66908f856b1e34b94581a4c9d279a6cf1d0ab","primitives":[{"attributes":{"POSITION":106,"NORMAL":107,"TEXCOORD_0":108,"COLOR_0":109,"_VELDREN_NORMAL":110,"_VELDREN_COLOR":111,"_VELDREN_FALLBACK":112,"_VELDREN_MATERIAL":113},"indices":114,"material":18,"extras":{"mixedAtlasFallback":false}}]},{"name":"464556278b1668b24bec4521c79a4ee2bc9de3d0a5005b4378590d0f4d4f9204","primitives":[{"attributes":{"POSITION":115,"NORMAL":116,"TEXCOORD_0":117,"COLOR_0":118,"_VELDREN_NORMAL":119,"_VELDREN_COLOR":120,"_VELDREN_FALLBACK":121,"_VELDREN_MATERIAL":122},"indices":123,"material":19,"extras":{"mixedAtlasFallback":false}}]},{"name":"a232a7e2ad7c9118f5d956d98679e80520457f52a37102fa16f090ed29fdb33b","primitives":[{"attributes":{"POSITION":124,"NORMAL":125,"TEXCOORD_0":126,"COLOR_0":127,"_VELDREN_NORMAL":128,"_VELDREN_COLOR":129,"_VELDREN_FALLBACK":130,"_VELDREN_MATERIAL":131},"indices":132,"material":20,"extras":{"mixedAtlasFallback":false}}]},{"name":"ea7a708ca3afed70d2dc9084c864db9c5f2592b113f95c4183816a646378b8a8","primitives":[{"attributes":{"POSITION":133,"NORMAL":134,"TEXCOORD_0":135,"COLOR_0":136,"_VELDREN_NORMAL":137,"_VELDREN_COLOR":138,"_VELDREN_FALLBACK":139,"_VELDREN_MATERIAL":140},"indices":141,"material":21,"extras":{"mixedAtlasFallback":false}}]},{"name":"8018fc270656efb7287b73773db423f5c30e45aad858c85226fa66fcc1a8656c","primitives":[{"attributes":{"POSITION":142,"NORMAL":143,"TEXCOORD_0":144,"COLOR_0":145,"_VELDREN_NORMAL":146,"_VELDREN_COLOR":147,"_VELDREN_FALLBACK":148,"_VELDREN_MATERIAL":149},"indices":150,"material":22,"extras":{"mixedAtlasFallback":false}},{"attributes":{"POSITION":142,"NORMAL":143,"TEXCOORD_0":144,"COLOR_0":145,"_VELDREN_NORMAL":146,"_VELDREN_COLOR":147,"_VELDREN_FALLBACK":148,"_VELDREN_MATERIAL":149},"indices":151,"material":23,"extras":{"mixedAtlasFallback":false}}]},{"name":"07f83272cd508b9654a4521d48dbf3e5ae515f8eca44fc3f7ff72f08aa404d3e","primitives":[{"attributes":{"POSITION":152,"NORMAL":153,"TEXCOORD_0":154,"COLOR_0":155,"_VELDREN_NORMAL":156,"_VELDREN_COLOR":157,"_VELDREN_FALLBACK":158,"_VELDREN_MATERIAL":159},"indices":160,"material":24,"extras":{"mixedAtlasFallback":false}}]},{"name":"9e417f8a31493ebc5f04240e9e4919f67c7c6fd9d7d0105ec8349264d7ee9488","primitives":[{"attributes":{"POSITION":161,"NORMAL":162,"TEXCOORD_0":163,"COLOR_0":164,"_VELDREN_NORMAL":165,"_VELDREN_COLOR":166,"_VELDREN_FALLBACK":167,"_VELDREN_MATERIAL":168},"indices":169,"material":25,"extras":{"mixedAtlasFallback":false}},{"attributes":{"POSITION":161,"NORMAL":162,"TEXCOORD_0":163,"COLOR_0":164,"_VELDREN_NORMAL":165,"_VELDREN_COLOR":166,"_VELDREN_FALLBACK":167,"_VELDREN_MATERIAL":168},"indices":170,"material":26,"extras":{"mixedAtlasFallback":false}}]}],"materials":[{"name":"legacy-material-33","pbrMetallicRoughness":{"baseColorFactor":[1,1,1,1],"metallicFactor":0,"roughnessFactor":1,"baseColorTexture":{"index":0}},"doubleSided":true,"extras":{"legacyMaterial":33,"legacyShader":"dist/renderer-gl.js"}},{"name":"legacy-material-33","pbrMetallicRoughness":{"baseColorFactor":[1,1,1,1],"metallicFactor":0,"roughnessFactor":1,"baseColorTexture":{"index":1}},"doubleSided":true,"extras":{"legacyMaterial":33,"legacyShader":"dist/renderer-gl.js"}},{"name":"legacy-material-21","pbrMetallicRoughness":{"baseColorFactor":[1,1,1,1],"metallicFactor":0,"roughnessFactor":1,"baseColorTexture":{"index":2}},"doubleSided":true,"extras":{"legacyMaterial":21,"legacyShader":"dist/renderer-gl.js"}},{"name":"legacy-material-22","pbrMetallicRoughness":{"baseColorFactor":[1,1,1,1],"metallicFactor":0,"roughnessFactor":1,"baseColorTexture":{"index":3}},"doubleSided":true,"extras":{"legacyMaterial":22,"legacyShader":"dist/renderer-gl.js"}},{"name":"legacy-material-25","pbrMetallicRoughness":{"baseColorFactor":[1,1,1,1],"metallicFactor":0,"roughnessFactor":1,"baseColorTexture":{"index":4}},"doubleSided":true,"extras":{"legacyMaterial":25,"legacyShader":"dist/renderer-gl.js"}},{"name":"legacy-material-7","pbrMetallicRoughness":{"baseColorFactor":[1,1,1,1],"metallicFactor":0,"roughnessFactor":1},"doubleSided":true,"extras":{"legacyMaterial":7,"legacyShader":"dist/renderer-gl.js","limitation":"Browser procedural material not implemented by this glTF export; source/base attributes retained."}},{"name":"legacy-material-20","pbrMetallicRoughness":{"baseColorFactor":[1,1,1,1],"metallicFactor":0,"roughnessFactor":1,"baseColorTexture":{"index":5}},"doubleSided":true,"extras":{"legacyMaterial":20,"legacyShader":"dist/renderer-gl.js"}},{"name":"legacy-material-20","pbrMetallicRoughness":{"baseColorFactor":[1,1,1,1],"metallicFactor":0,"roughnessFactor":1,"baseColorTexture":{"index":6}},"doubleSided":true,"extras":{"legacyMaterial":20,"legacyShader":"dist/renderer-gl.js"}},{"name":"legacy-material-19","pbrMetallicRoughness":{"baseColorFactor":[1,1,1,1],"metallicFactor":0,"roughnessFactor":1},"doubleSided":true,"extras":{"legacyMaterial":19,"legacyShader":"dist/renderer-gl.js","limitation":"Browser procedural material not implemented by this glTF export; source/base attributes retained."}},{"name":"legacy-material-20","pbrMetallicRoughness":{"baseColorFactor":[1,1,1,1],"metallicFactor":0,"roughnessFactor":1,"baseColorTexture":{"index":7}},"doubleSided":true,"extras":{"legacyMaterial":20,"legacyShader":"dist/renderer-gl.js"}},{"name":"legacy-material-19","pbrMetallicRoughness":{"baseColorFactor":[1,1,1,1],"metallicFactor":0,"roughnessFactor":1},"doubleSided":true,"extras":{"legacyMaterial":19,"legacyShader":"dist/renderer-gl.js","limitation":"Browser procedural material not implemented by this glTF export; source/base attributes retained."}},{"name":"legacy-material-20","pbrMetallicRoughness":{"baseColorFactor":[1,1,1,1],"metallicFactor":0,"roughnessFactor":1,"baseColorTexture":{"index":8}},"doubleSided":true,"extras":{"legacyMaterial":20,"legacyShader":"dist/renderer-gl.js"}},{"name":"legacy-material-19","pbrMetallicRoughness":{"baseColorFactor":[1,1,1,1],"metallicFactor":0,"roughnessFactor":1},"doubleSided":true,"extras":{"legacyMaterial":19,"legacyShader":"dist/renderer-gl.js","limitation":"Browser procedural material not implemented by this glTF export; source/base attributes retained."}},{"name":"legacy-material-43","pbrMetallicRoughness":{"baseColorFactor":[1,1,1,1],"metallicFactor":0,"roughnessFactor":1,"baseColorTexture":{"index":9}},"doubleSided":true,"extras":{"legacyMaterial":43,"legacyShader":"dist/renderer-gl.js"}},{"name":"legacy-material-42","pbrMetallicRoughness":{"baseColorFactor":[1,1,1,1],"metallicFactor":0,"roughnessFactor":1,"baseColorTexture":{"index":10}},"doubleSided":true,"extras":{"legacyMaterial":42,"legacyShader":"dist/renderer-gl.js"}},{"name":"legacy-material-20","pbrMetallicRoughness":{"baseColorFactor":[1,1,1,1],"metallicFactor":0,"roughnessFactor":1,"baseColorTexture":{"index":11}},"doubleSided":true,"extras":{"legacyMaterial":20,"legacyShader":"dist/renderer-gl.js"}},{"name":"legacy-material-20","pbrMetallicRoughness":{"baseColorFactor":[1,1,1,1],"metallicFactor":0,"roughnessFactor":1,"baseColorTexture":{"index":12}},"doubleSided":true,"extras":{"legacyMaterial":20,"legacyShader":"dist/renderer-gl.js"}},{"name":"legacy-material-20","pbrMetallicRoughness":{"baseColorFactor":[1,1,1,1],"metallicFactor":0,"roughnessFactor":1,"baseColorTexture":{"index":13}},"doubleSided":true,"extras":{"legacyMaterial":20,"legacyShader":"dist/renderer-gl.js"}},{"name":"legacy-material-20","pbrMetallicRoughness":{"baseColorFactor":[1,1,1,1],"metallicFactor":0,"roughnessFactor":1,"baseColorTexture":{"index":14}},"doubleSided":true,"extras":{"legacyMaterial":20,"legacyShader":"dist/renderer-gl.js"}},{"name":"legacy-material-20","pbrMetallicRoughness":{"baseColorFactor":[1,1,1,1],"metallicFactor":0,"roughnessFactor":1,"baseColorTexture":{"index":15}},"doubleSided":true,"extras":{"legacyMaterial":20,"legacyShader":"dist/renderer-gl.js"}},{"name":"legacy-material-20","pbrMetallicRoughness":{"baseColorFactor":[1,1,1,1],"metallicFactor":0,"roughnessFactor":1,"baseColorTexture":{"index":16}},"doubleSided":true,"extras":{"legacyMaterial":20,"legacyShader":"dist/renderer-gl.js"}},{"name":"legacy-material-20","pbrMetallicRoughness":{"baseColorFactor":[1,1,1,1],"metallicFactor":0,"roughnessFactor":1,"baseColorTexture":{"index":17}},"doubleSided":true,"extras":{"legacyMaterial":20,"legacyShader":"dist/renderer-gl.js"}},{"name":"legacy-material-12","pbrMetallicRoughness":{"baseColorFactor":[1,1,1,1],"metallicFactor":0,"roughnessFactor":1},"doubleSided":true,"extras":{"legacyMaterial":12,"legacyShader":"dist/renderer-gl.js","limitation":"Browser procedural material not implemented by this glTF export; source/base attributes retained."}},{"name":"legacy-material-20","pbrMetallicRoughness":{"baseColorFactor":[1,1,1,1],"metallicFactor":0,"roughnessFactor":1,"baseColorTexture":{"index":18}},"doubleSided":true,"extras":{"legacyMaterial":20,"legacyShader":"dist/renderer-gl.js"}},{"name":"legacy-material-44","pbrMetallicRoughness":{"baseColorFactor":[1,1,1,1],"metallicFactor":0,"roughnessFactor":1,"baseColorTexture":{"index":19}},"doubleSided":true,"extras":{"legacyMaterial":44,"legacyShader":"dist/renderer-gl.js"}},{"name":"legacy-material-43","pbrMetallicRoughness":{"baseColorFactor":[1,1,1,1],"metallicFactor":0,"roughnessFactor":1,"baseColorTexture":{"index":20}},"doubleSided":true,"extras":{"legacyMaterial":43,"legacyShader":"dist/renderer-gl.js"}},{"name":"legacy-material-42","pbrMetallicRoughness":{"baseColorFactor":[1,1,1,1],"metallicFactor":0,"roughnessFactor":1,"baseColorTexture":{"index":21}},"doubleSided":true,"extras":{"legacyMaterial":42,"legacyShader":"dist/renderer-gl.js"}}],"images":[{"name":"atlas-13","uri":"../../textures/atlas/tile-13.png"},{"name":"atlas-13","uri":"../../textures/atlas/tile-13.png"},{"name":"atlas-01","uri":"../../textures/atlas/tile-01.png"},{"name":"atlas-02","uri":"../../textures/atlas/tile-02.png"},{"name":"atlas-05","uri":"../../textures/atlas/tile-05.png"},{"name":"atlas-00","uri":"../../textures/atlas/tile-00.png"},{"name":"atlas-00","uri":"../../textures/atlas/tile-00.png"},{"name":"atlas-00","uri":"../../textures/atlas/tile-00.png"},{"name":"atlas-00","uri":"../../textures/atlas/tile-00.png"},{"name":"atlas-23","uri":"../../textures/atlas/tile-23.png"},{"name":"atlas-22","uri":"../../textures/atlas/tile-22.png"},{"name":"atlas-00","uri":"../../textures/atlas/tile-00.png"},{"name":"atlas-00","uri":"../../textures/atlas/tile-00.png"},{"name":"atlas-00","uri":"../../textures/atlas/tile-00.png"},{"name":"atlas-00","uri":"../../textures/atlas/tile-00.png"},{"name":"atlas-00","uri":"../../textures/atlas/tile-00.png"},{"name":"atlas-00","uri":"../../textures/atlas/tile-00.png"},{"name":"atlas-00","uri":"../../textures/atlas/tile-00.png"},{"name":"atlas-00","uri":"../../textures/atlas/tile-00.png"},{"name":"atlas-24","uri":"../../textures/atlas/tile-24.png"},{"name":"atlas-23","uri":"../../textures/atlas/tile-23.png"},{"name":"atlas-22","uri":"../../textures/atlas/tile-22.png"}],"textures":[{"source":0,"sampler":0},{"source":1,"sampler":1},{"source":2,"sampler":2},{"source":3,"sampler":2},{"source":4,"sampler":2},{"source":5,"sampler":3},{"source":6,"sampler":4},{"source":7,"sampler":5},{"source":8,"sampler":6},{"source":9,"sampler":7},{"source":10,"sampler":7},{"source":11,"sampler":8},{"source":12,"sampler":9},{"source":13,"sampler":10},{"source":14,"sampler":11},{"source":15,"sampler":12},{"source":16,"sampler":13},{"source":17,"sampler":14},{"source":18,"sampler":15},{"source":19,"sampler":16},{"source":20,"sampler":17},{"source":21,"sampler":17}],"samplers":[{"magFilter":9729,"minFilter":9729,"wrapS":10497,"wrapT":10497},{"magFilter":9729,"minFilter":9729,"wrapS":10497,"wrapT":10497},{"magFilter":9729,"minFilter":9729,"wrapS":10497,"wrapT":10497},{"magFilter":9729,"minFilter":9729,"wrapS":10497,"wrapT":10497},{"magFilter":9729,"minFilter":9729,"wrapS":10497,"wrapT":10497},{"magFilter":9729,"minFilter":9729,"wrapS":10497,"wrapT":10497},{"magFilter":9729,"minFilter":9729,"wrapS":10497,"wrapT":10497},{"magFilter":9729,"minFilter":9729,"wrapS":10497,"wrapT":10497},{"magFilter":9729,"minFilter":9729,"wrapS":10497,"wrapT":10497},{"magFilter":9729,"minFilter":9729,"wrapS":10497,"wrapT":10497},{"magFilter":9729,"minFilter":9729,"wrapS":10497,"wrapT":10497},{"magFilter":9729,"minFilter":9729,"wrapS":10497,"wrapT":10497},{"magFilter":9729,"minFilter":9729,"wrapS":10497,"wrapT":10497},{"magFilter":9729,"minFilter":9729,"wrapS":10497,"wrapT":10497},{"magFilter":9729,"minFilter":9729,"wrapS":10497,"wrapT":10497},{"magFilter":9729,"minFilter":9729,"wrapS":10497,"wrapT":10497},{"magFilter":9729,"minFilter":9729,"wrapS":10497,"wrapT":10497},{"magFilter":9729,"minFilter":9729,"wrapS":10497,"wrapT":10497}]}
