{"asset":{"version":"2.0","generator":"Veldren static world recovery"},"scene":0,"scenes":[{"nodes":[0]}],"extras":{"sourceScene":"lair_xalith","notVervesisScene":true,"gameplayIdentityExternal":true,"limitations":["Terrain stored separately.","Dynamic actors, fires, gates, crops, fish, effects and ground cover are not baked.","Roofs are closed; browser procedural materials require native support."]},"nodes":[{"name":"Cave opening to the surface","children":[1,2,3,4,5,6,7,8,9,10,11],"extras":{"veldrenEntityKey":"lair_xalith:object:5800006"}},{"mesh":0,"matrix":[0.3820556104183197,0.0,-1.6375902891159058,0.0,0.0,1.6815673112869263,0.0,0.0,1.6375902891159058,0.0,0.3820556104183197,0.0,31.479373931884766,0.4559255838394165,142.1804656982422,1.0]},{"mesh":0,"matrix":[0.3820556104183197,0.0,1.6375902891159058,0.0,0.0,1.6815673112869263,0.0,0.0,-1.6375902891159058,0.0,0.3820556104183197,0.0,23.608280181884766,0.4559255838394165,142.55616760253906,1.0]},{"mesh":0,"matrix":[0.8839312791824341,0.0,-1.9314249753952026,0.0,0.0,2.124084949493408,0.0,0.0,1.9314249753952026,0.0,0.8839312791824341,0.0,31.935665130615234,0.575905978679657,145.9737548828125,1.0]},{"mesh":0,"matrix":[0.8839312791824341,0.0,1.9314249753952026,0.0,0.0,2.124084949493408,0.0,0.0,-1.9314249753952026,0.0,0.8839312791824341,0.0,23.267131805419922,0.575905978679657,146.41688537597656,1.0]},{"mesh":0,"matrix":[-2.5666027069091797,0.0,-3.1431817720720785e-16,0.0,0.0,2.5666027069091797,0.0,0.0,3.1431817720720785e-16,0.0,-2.5666027069091797,0.0,27.205577850341797,0.6958864331245422,150.38467407226562,1.0]},{"mesh":0,"matrix":[-1.2671947479248047,0.0,-1.9735387563705444,0.0,0.0,2.345343828201294,0.0,0.0,1.9735387563705444,0.0,-1.2671947479248047,0.0,29.174386978149414,0.6358962059020996,148.21038818359375,1.0]},{"mesh":0,"matrix":[-1.2671947479248047,0.0,1.9735387563705444,0.0,0.0,2.345343828201294,0.0,0.0,-1.9735387563705444,0.0,-1.2671947479248047,0.0,25.53488540649414,0.6358962059020996,148.66317749023438,1.0]},{"mesh":0,"matrix":[-1.1837092638015747,0.0,-0.3661641776561737,0.0,0.0,1.2390495538711548,0.0,0.0,0.3661641776561737,0.0,-1.1837092638015747,0.0,29.93800163269043,0.33594515919685364,143.66600036621094,1.0]},{"mesh":0,"matrix":[-1.1837092638015747,0.0,0.3661641776561737,0.0,0.0,1.2390495538711548,0.0,0.0,-0.3661641776561737,0.0,-1.1837092638015747,0.0,24.790424346923828,0.33594515919685364,143.75001525878906,1.0]},{"mesh":1,"matrix":[-0.9497977495193481,0.0,-1.1631666866443886e-16,0.0,0.0,0.9497977495193481,0.0,0.0,1.1631666866443886e-16,0.0,-0.9497977495193481,0.0,27.391498565673828,2.99979829788208,144.50503540039062,1.0]},{"mesh":2,"matrix":[1.0,0.0,0.0,0.0,0.0,1.0,0.0,0.0,0.0,0.0,1.0,0.0,0.0,0.0,0.0,1.0]}],"buffers":[{"uri":"../world-parts/9678504fb056fd99a119b012077afeaec4811155a0f2843867f669fbe6c27e26.bin","byteLength":33588},{"uri":"../world-parts/1484f833699e11822bbc39986b59069d847a57f1241ef139cf6b5d6f9ba5a6cf.bin","byteLength":50868},{"uri":"../world-parts/897b0bbe2d62c5519a7a3056342e0ce07b634f0ba871f8a26dcd1e372349e14f.bin","byteLength":10032}],"bufferViews":[{"buffer":0,"byteOffset":0,"byteLength":4212,"target":34962},{"buffer":0,"byteOffset":4212,"byteLength":4212,"target":34962},{"buffer":0,"byteOffset":8424,"byteLength":2808,"target":34962},{"buffer":0,"byteOffset":11232,"byteLength":4212,"target":34962},{"buffer":0,"byteOffset":15444,"byteLength":4212,"target":34962},{"buffer":0,"byteOffset":19656,"byteLength":4212,"target":34962},{"buffer":0,"byteOffset":23868,"byteLength":4212,"target":34962},{"buffer":0,"byteOffset":28080,"byteLength":1404,"target":34962},{"buffer":0,"byteOffset":29484,"byteLength":4104,"target":34963},{"buffer":1,"byteOffset":0,"byteLength":6372,"target":34962},{"buffer":1,"byteOffset":6372,"byteLength":6372,"target":34962},{"buffer":1,"byteOffset":12744,"byteLength":4248,"target":34962},{"buffer":1,"byteOffset":16992,"byteLength":6372,"target":34962},{"buffer":1,"byteOffset":23364,"byteLength":6372,"target":34962},{"buffer":1,"byteOffset":29736,"byteLength":6372,"target":34962},{"buffer":1,"byteOffset":36108,"byteLength":6372,"target":34962},{"buffer":1,"byteOffset":42480,"byteLength":2124,"target":34962},{"buffer":1,"byteOffset":44604,"byteLength":6264,"target":34963},{"buffer":2,"byteOffset":0,"byteLength":1368,"target":34962},{"buffer":2,"byteOffset":1368,"byteLength":1368,"target":34962},{"buffer":2,"byteOffset":2736,"byteLength":912,"target":34962},{"buffer":2,"byteOffset":3648,"byteLength":1368,"target":34962},{"buffer":2,"byteOffset":5016,"byteLength":1368,"target":34962},{"buffer":2,"byteOffset":6384,"byteLength":1368,"target":34962},{"buffer":2,"byteOffset":7752,"byteLength":1368,"target":34962},{"buffer":2,"byteOffset":9120,"byteLength":456,"target":34962},{"buffer":2,"byteOffset":9576,"byteLength":24,"target":34963},{"buffer":2,"byteOffset":9600,"byteLength":432,"target":34963}],"accessors":[{"bufferView":0,"componentType":5126,"count":351,"type":"VEC3","min":[-1.7272872924804688,-0.27113133668899536,-1.1498832702636719],"max":[1.4978611469268799,1.988665223121643,1.8392531871795654]},{"bufferView":1,"componentType":5126,"count":351,"type":"VEC3"},{"bufferView":2,"componentType":5126,"count":351,"type":"VEC2"},{"bufferView":3,"componentType":5126,"count":351,"type":"VEC3"},{"bufferView":4,"componentType":5126,"count":351,"type":"VEC3"},{"bufferView":5,"componentType":5126,"count":351,"type":"VEC3"},{"bufferView":6,"componentType":5126,"count":351,"type":"VEC3"},{"bufferView":7,"componentType":5126,"count":351,"type":"SCALAR"},{"bufferView":8,"componentType":5125,"count":1026,"type":"SCALAR"},{"bufferView":9,"componentType":5126,"count":531,"type":"VEC3","min":[-1.8242793083190918,-0.31564441323280334,-0.8904620409011841],"max":[1.5958054065704346,2.000638246536255,2.5856480598449707]},{"bufferView":10,"componentType":5126,"count":531,"type":"VEC3"},{"bufferView":11,"componentType":5126,"count":531,"type":"VEC2"},{"bufferView":12,"componentType":5126,"count":531,"type":"VEC3"},{"bufferView":13,"componentType":5126,"count":531,"type":"VEC3"},{"bufferView":14,"componentType":5126,"count":531,"type":"VEC3"},{"bufferView":15,"componentType":5126,"count":531,"type":"VEC3"},{"bufferView":16,"componentType":5126,"count":531,"type":"SCALAR"},{"bufferView":17,"componentType":5125,"count":1566,"type":"SCALAR"},{"bufferView":18,"componentType":5126,"count":114,"type":"VEC3","min":[25.799999237060547,0.0,142.6199951171875],"max":[29.200000762939453,3.055884599685669,143.0]},{"bufferView":19,"componentType":5126,"count":114,"type":"VEC3"},{"bufferView":20,"componentType":5126,"count":114,"type":"VEC2"},{"bufferView":21,"componentType":5126,"count":114,"type":"VEC3"},{"bufferView":22,"componentType":5126,"count":114,"type":"VEC3"},{"bufferView":23,"componentType":5126,"count":114,"type":"VEC3"},{"bufferView":24,"componentType":5126,"count":114,"type":"VEC3"},{"bufferView":25,"componentType":5126,"count":114,"type":"SCALAR"},{"bufferView":26,"componentType":5125,"count":6,"type":"SCALAR"},{"bufferView":27,"componentType":5125,"count":108,"type":"SCALAR"}],"meshes":[{"name":"9678504fb056fd99a119b012077afeaec4811155a0f2843867f669fbe6c27e26","primitives":[{"attributes":{"POSITION":0,"NORMAL":1,"TEXCOORD_0":2,"COLOR_0":3,"_VELDREN_NORMAL":4,"_VELDREN_COLOR":5,"_VELDREN_FALLBACK":6,"_VELDREN_MATERIAL":7},"indices":8,"material":0,"extras":{"mixedAtlasFallback":false}}]},{"name":"1484f833699e11822bbc39986b59069d847a57f1241ef139cf6b5d6f9ba5a6cf","primitives":[{"attributes":{"POSITION":9,"NORMAL":10,"TEXCOORD_0":11,"COLOR_0":12,"_VELDREN_NORMAL":13,"_VELDREN_COLOR":14,"_VELDREN_FALLBACK":15,"_VELDREN_MATERIAL":16},"indices":17,"material":1,"extras":{"mixedAtlasFallback":false}}]},{"name":"897b0bbe2d62c5519a7a3056342e0ce07b634f0ba871f8a26dcd1e372349e14f","primitives":[{"attributes":{"POSITION":18,"NORMAL":19,"TEXCOORD_0":20,"COLOR_0":21,"_VELDREN_NORMAL":22,"_VELDREN_COLOR":23,"_VELDREN_FALLBACK":24,"_VELDREN_MATERIAL":25},"indices":26,"material":2,"extras":{"mixedAtlasFallback":false}},{"attributes":{"POSITION":18,"NORMAL":19,"TEXCOORD_0":20,"COLOR_0":21,"_VELDREN_NORMAL":22,"_VELDREN_COLOR":23,"_VELDREN_FALLBACK":24,"_VELDREN_MATERIAL":25},"indices":27,"material":3,"extras":{"mixedAtlasFallback":false}}]}],"materials":[{"name":"legacy-material-33","pbrMetallicRoughness":{"baseColorFactor":[1,1,1,1],"metallicFactor":0,"roughnessFactor":1,"baseColorTexture":{"index":0}},"doubleSided":true,"extras":{"legacyMaterial":33,"legacyShader":"dist/renderer-gl.js"}},{"name":"legacy-material-33","pbrMetallicRoughness":{"baseColorFactor":[1,1,1,1],"metallicFactor":0,"roughnessFactor":1,"baseColorTexture":{"index":1}},"doubleSided":true,"extras":{"legacyMaterial":33,"legacyShader":"dist/renderer-gl.js"}},{"name":"legacy-material-7","pbrMetallicRoughness":{"baseColorFactor":[1,1,1,1],"metallicFactor":0,"roughnessFactor":1},"doubleSided":true,"extras":{"legacyMaterial":7,"legacyShader":"dist/renderer-gl.js","limitation":"Browser procedural material not implemented by this glTF export; source/base attributes retained."}},{"name":"legacy-material-20","pbrMetallicRoughness":{"baseColorFactor":[1,1,1,1],"metallicFactor":0,"roughnessFactor":1,"baseColorTexture":{"index":2}},"doubleSided":true,"extras":{"legacyMaterial":20,"legacyShader":"dist/renderer-gl.js"}}],"images":[{"name":"atlas-13","uri":"../../textures/atlas/tile-13.png"},{"name":"atlas-13","uri":"../../textures/atlas/tile-13.png"},{"name":"atlas-00","uri":"../../textures/atlas/tile-00.png"}],"textures":[{"source":0,"sampler":0},{"source":1,"sampler":1},{"source":2,"sampler":2}],"samplers":[{"magFilter":9729,"minFilter":9729,"wrapS":10497,"wrapT":10497},{"magFilter":9729,"minFilter":9729,"wrapS":10497,"wrapT":10497},{"magFilter":9729,"minFilter":9729,"wrapS":10497,"wrapT":10497}]}
