{"asset":{"version":"2.0","generator":"Veldren static world recovery"},"scene":0,"scenes":[{"nodes":[0,2,4,6,8,10,12,14,16,18,20,22,24,26,28,30,32,34,36,38,40,42,44,46,48,50,52,54,56,58,60,62,64,66,68,70,72,74,76,78,80,82,84,86,88,90,92,94,96,98,100,102,104,106,108,110,112,114,116,118,120,122,124,126,128,130,132,134,136,138,140,142,144,146,148,150,152,154,156,158,160,162,164,166,168,170,172,174,176,178,180,182,184,186,188,190,192]}],"extras":{"sourceScene":"overworld","notVervesisScene":true,"gameplayIdentityExternal":true,"limitations":["Terrain stored separately.","Dynamic actors, fires, gates, crops, fish, effects and ground cover are not baked.","Roofs are closed; browser procedural materials require native support."]},"nodes":[{"name":"Willow tree","children":[1],"extras":{"veldrenEntityKey":"overworld:object:703"}},{"mesh":0,"matrix":[-0.7503474008890869,0.0,-0.4480024663525366,0.0,0.0,0.8739150026627096,0.0,0.0,0.4480024663525366,0.0,-0.7503474008890869,0.0,36.5,3.631181230638541,264.5,1.0]},{"name":"Maple tree","children":[3],"extras":{"veldrenEntityKey":"overworld:object:704"}},{"mesh":1,"matrix":[0.20794004240912592,0.0,0.696950640285705,0.0,0.0,0.7273096013609082,0.0,0.0,-0.696950640285705,0.0,0.20794004240912592,0.0,57.5,5.739363119501645,264.5,1.0]},{"name":"Yew tree","children":[5],"extras":{"veldrenEntityKey":"overworld:object:705"}},{"mesh":2,"matrix":[0.352594410960774,0.0,-0.7250252988984082,0.0,0.0,0.8062161637448739,0.0,0.0,0.7250252988984082,0.0,0.352594410960774,0.0,78.5,5.7551031834385995,264.5,1.0]},{"name":"Tree","children":[7],"extras":{"veldrenEntityKey":"overworld:object:706"}},{"mesh":3,"matrix":[-0.7047410377984821,0.0,0.27786047374106676,0.0,0.0,0.7575396842574597,0.0,0.0,-0.27786047374106676,0.0,-0.7047410377984821,0.0,99.5,5.504285039572229,264.5,1.0]},{"name":"Maple tree","children":[9],"extras":{"veldrenEntityKey":"overworld:object:723"}},{"mesh":1,"matrix":[0.6377327482753464,0.0,-0.209820944483345,0.0,0.0,0.6713627089485306,0.0,0.0,0.209820944483345,0.0,0.6377327482753464,0.0,33.5,0.7545940846959226,273.5,1.0]},{"name":"Yew tree","children":[11],"extras":{"veldrenEntityKey":"overworld:object:724"}},{"mesh":2,"matrix":[-0.7651889674034389,0.0,-0.34606959905248014,0.0,0.0,0.8398085039009104,0.0,0.0,0.34606959905248014,0.0,-0.7651889674034389,0.0,40.5,1.2065804237308255,281.5,1.0]},{"name":"Tree","children":[13],"extras":{"veldrenEntityKey":"overworld:object:725"}},{"mesh":3,"matrix":[0.3093132690662642,0.0,0.7245820663386472,0.0,0.0,0.7878412716277581,0.0,0.0,-0.7245820663386472,0.0,0.3093132690662642,0.0,57.5,6.105593681755778,285.5,1.0]},{"name":"Yew tree","children":[15],"extras":{"veldrenEntityKey":"overworld:object:726"}},{"mesh":2,"matrix":[0.26819860143518476,0.0,-0.7602986340062122,0.0,0.0,0.8062161637448739,0.0,0.0,0.7602986340062122,0.0,0.26819860143518476,0.0,120.5,5.924130884240649,285.5,1.0]},{"name":"Tree","children":[17],"extras":{"veldrenEntityKey":"overworld:object:743"}},{"mesh":3,"matrix":[-0.3044986571087535,0.0,0.7266184948781641,0.0,0.0,0.7878412716277581,0.0,0.0,-0.7266184948781641,0.0,-0.3044986571087535,0.0,44.5,1.0920232504899656,287.5,1.0]},{"name":"Oak tree","children":[19],"extras":{"veldrenEntityKey":"overworld:object:744"}},{"mesh":4,"matrix":[0.8364704543329784,0.0,-0.3850136065023883,0.0,0.0,0.9208247923269633,0.0,0.0,0.3850136065023883,0.0,0.8364704543329784,0.0,47.5,1.084942935931386,291.5,1.0]},{"name":"Yew tree","children":[21],"extras":{"veldrenEntityKey":"overworld:object:745"}},{"mesh":2,"matrix":[-0.7994647102237094,0.0,-0.25716628925892676,0.0,0.0,0.8398085039009104,0.0,0.0,0.25716628925892676,0.0,-0.7994647102237094,0.0,99.5,6.9878992344279265,306.5,1.0]},{"name":"Oak tree","children":[23],"extras":{"veldrenEntityKey":"overworld:object:746"}},{"mesh":4,"matrix":[0.49305444806971765,0.0,0.8671929700351327,0.0,0.0,0.9975601916875435,0.0,0.0,-0.8671929700351327,0.0,0.49305444806971765,0.0,120.5,6.172770741234503,306.5,1.0]},{"name":"Yew tree","children":[25],"extras":{"veldrenEntityKey":"overworld:object:762"}},{"mesh":2,"matrix":[0.7519705248349983,0.0,0.2907315470720001,0.0,0.0,0.8062161637448739,0.0,0.0,-0.2907315470720001,0.0,0.7519705248349983,0.0,68.5,1.2113606729036803,313.5,1.0]},{"name":"Tree","children":[27],"extras":{"veldrenEntityKey":"overworld:object:763"}},{"mesh":3,"matrix":[-0.3358190027859636,0.0,-0.679037532536113,0.0,0.0,0.7575396842574597,0.0,0.0,0.679037532536113,0.0,-0.3358190027859636,0.0,78.5,0.7268208829635543,327.5,1.0]},{"name":"Oak tree","children":[29],"extras":{"veldrenEntityKey":"overworld:object:764"}},{"mesh":4,"matrix":[-0.2788564374281757,0.0,0.957791952014922,0.0,0.0,0.9975601916875435,0.0,0.0,-0.957791952014922,0.0,-0.2788564374281757,0.0,99.5,6.88136708261696,327.5,1.0]},{"name":"Maple tree","children":[31],"extras":{"veldrenEntityKey":"overworld:object:765"}},{"mesh":1,"matrix":[0.5741387504497678,0.0,-0.34798359472637297,0.0,0.0,0.6713627089485306,0.0,0.0,0.34798359472637297,0.0,0.5741387504497678,0.0,120.5,6.063049862196595,327.5,1.0]},{"name":"Tree","children":[33],"extras":{"veldrenEntityKey":"overworld:object:780"}},{"mesh":3,"matrix":[0.2842543433334445,0.0,0.6693838344777474,0.0,0.0,0.7272380968871612,0.0,0.0,-0.6693838344777474,0.0,0.2842543433334445,0.0,73.5,2.3702331242277666,315.5,1.0]},{"name":"Oak tree","children":[35],"extras":{"veldrenEntityKey":"overworld:object:781"}},{"mesh":4,"matrix":[0.32079858850111004,0.0,-0.9039571352330709,0.0,0.0,0.9591924920072534,0.0,0.0,0.9039571352330709,0.0,0.32079858850111004,0.0,83.5,1.9903387333331106,328.5,1.0]},{"name":"Maple tree","children":[37],"extras":{"veldrenEntityKey":"overworld:object:782"}},{"mesh":1,"matrix":[-0.6426898894525402,0.0,0.3404834243061544,0.0,0.0,0.7273096013609082,0.0,0.0,-0.3404834243061544,0.0,-0.6426898894525402,0.0,89.5,0.8568430247639589,343.5,1.0]},{"name":"Oak tree","children":[39],"extras":{"veldrenEntityKey":"overworld:object:802"}},{"mesh":4,"matrix":[0.21633911679245738,0.0,-0.9344771924817343,0.0,0.0,0.9591924920072534,0.0,0.0,0.9344771924817343,0.0,0.21633911679245738,0.0,86.5,1.2000963726559108,336.5,1.0]},{"name":"Willow tree","children":[41],"extras":{"veldrenEntityKey":"overworld:object:803"}},{"mesh":0,"matrix":[-0.749762967475694,0.0,0.5137149821859672,0.0,0.0,0.9088716027692181,0.0,0.0,-0.5137149821859672,0.0,-0.749762967475694,0.0,92.5,3.5200054043069917,335.5,1.0]},{"name":"Maple tree","children":[43],"extras":{"veldrenEntityKey":"overworld:object:804"}},{"mesh":1,"matrix":[0.6646159096353025,0.0,0.09493987374306366,0.0,0.0,0.6713627089485306,0.0,0.0,-0.09493987374306366,0.0,0.6646159096353025,0.0,94.5,1.608832311868521,348.5,1.0]},{"name":"Willow tree","children":[45],"extras":{"veldrenEntityKey":"overworld:object:805"}},{"mesh":0,"matrix":[-0.5537914927000079,0.0,-0.67604912136032,0.0,0.0,0.8739150026627096,0.0,0.0,0.67604912136032,0.0,-0.5537914927000079,0.0,120.5,4.550622780829109,369.5,1.0]},{"name":"Old-growth oak","children":[47],"extras":{"veldrenEntityKey":"overworld:object:6803867"}},{"mesh":3,"matrix":[0.5987266771752475,0.0,0.5120744431415514,0.0,0.0,0.7878412716277581,0.0,0.0,-0.5120744431415514,0.0,0.5987266771752475,0.0,36.5,5.02423002869372,257.5,1.0]},{"name":"Old-growth oak","children":[49],"extras":{"veldrenEntityKey":"overworld:object:6803873"}},{"mesh":3,"matrix":[0.3431902253569944,0.0,-0.7091645355624168,0.0,0.0,0.7878412716277581,0.0,0.0,0.7091645355624168,0.0,0.3431902253569944,0.0,81.5,5.278663002737731,257.5,1.0]},{"name":"Old-growth oak","children":[51],"extras":{"veldrenEntityKey":"overworld:object:6803876"}},{"mesh":3,"matrix":[-0.3519478869708876,0.0,-0.7048592442018267,0.0,0.0,0.7878412716277581,0.0,0.0,0.7048592442018267,0.0,-0.3519478869708876,0.0,107.5,5.052667288610139,257.5,1.0]},{"name":"Old-growth oak","children":[53],"extras":{"veldrenEntityKey":"overworld:object:6804004"}},{"mesh":3,"matrix":[0.2533290120170497,0.0,-0.7139263161526945,0.0,0.0,0.7575396842574597,0.0,0.0,0.7139263161526945,0.0,0.2533290120170497,0.0,31.5,2.477632563631112,262.5,1.0]},{"name":"Old-growth oak","children":[55],"extras":{"veldrenEntityKey":"overworld:object:6804006"}},{"mesh":3,"matrix":[0.7036539980403275,0.0,0.1837016619574328,0.0,0.0,0.7272380968871612,0.0,0.0,-0.1837016619574328,0.0,0.7036539980403275,0.0,44.5,5.730858061341543,265.5,1.0]},{"name":"Old-growth oak","children":[57],"extras":{"veldrenEntityKey":"overworld:object:6804008"}},{"mesh":3,"matrix":[-0.1331003899661348,0.0,0.7765166807422141,0.0,0.0,0.7878412716277581,0.0,0.0,-0.7765166807422141,0.0,-0.1331003899661348,0.0,57.5,5.490548951345555,259.5,1.0]},{"name":"Old-growth oak","children":[59],"extras":{"veldrenEntityKey":"overworld:object:6804009"}},{"mesh":3,"matrix":[0.5752044928809494,0.0,-0.44498880989709155,0.0,0.0,0.7272380968871612,0.0,0.0,0.44498880989709155,0.0,0.5752044928809494,0.0,70.5,5.719313976402268,264.5,1.0]},{"name":"Old-growth oak","children":[61],"extras":{"veldrenEntityKey":"overworld:object:6804015"}},{"mesh":3,"matrix":[-0.5765055969281807,0.0,-0.44330186811533073,0.0,0.0,0.7272380968871612,0.0,0.0,0.44330186811533073,0.0,-0.5765055969281807,0.0,117.5,5.233464819079542,264.5,1.0]},{"name":"Old-growth oak","children":[63],"extras":{"veldrenEntityKey":"overworld:object:6804145"}},{"mesh":3,"matrix":[0.7429155847445411,0.0,-0.14813104728100773,0.0,0.0,0.7575396842574597,0.0,0.0,0.14813104728100773,0.0,0.7429155847445411,0.0,52.5,5.972619949249661,270.5,1.0]},{"name":"Old-growth oak","children":[65],"extras":{"veldrenEntityKey":"overworld:object:6804146"}},{"mesh":3,"matrix":[-0.6733848645586202,0.0,-0.4089580583182237,0.0,0.0,0.7878412716277581,0.0,0.0,0.4089580583182237,0.0,-0.6733848645586202,0.0,58.5,6.1319467969578,273.5,1.0]},{"name":"Old-growth oak","children":[67],"extras":{"veldrenEntityKey":"overworld:object:6804148"}},{"mesh":3,"matrix":[0.33642454430488944,0.0,-0.6787377249086272,0.0,0.0,0.7575396842574597,0.0,0.0,0.6787377249086272,0.0,0.33642454430488944,0.0,74.5,6.014019951478058,270.5,1.0]},{"name":"Old-growth oak","children":[69],"extras":{"veldrenEntityKey":"overworld:object:6804149"}},{"mesh":3,"matrix":[-0.7350850923797352,0.0,0.28344977728183013,0.0,0.0,0.7878412716277581,0.0,0.0,-0.28344977728183013,0.0,-0.7350850923797352,0.0,84.5,6.110213415923797,273.5,1.0]},{"name":"Old-growth oak","children":[71],"extras":{"veldrenEntityKey":"overworld:object:6804150"}},{"mesh":3,"matrix":[0.6768176678055788,0.0,0.2660697166350903,0.0,0.0,0.7272380968871612,0.0,0.0,-0.2660697166350903,0.0,0.6768176678055788,0.0,94.5,5.767028064993584,268.5,1.0]},{"name":"Old-growth oak","children":[73],"extras":{"veldrenEntityKey":"overworld:object:6804152"}},{"mesh":3,"matrix":[-0.22449155049165873,0.0,0.7551803844366549,0.0,0.0,0.7878412716277581,0.0,0.0,-0.7551803844366549,0.0,-0.22449155049165873,0.0,111.5,5.716666095922641,273.5,1.0]},{"name":"Old-growth oak","children":[75],"extras":{"veldrenEntityKey":"overworld:object:6804154"}},{"mesh":3,"matrix":[-0.7419327933671152,0.0,-0.15297746027229375,0.0,0.0,0.7575396842574597,0.0,0.0,0.15297746027229375,0.0,-0.7419327933671152,0.0,123.5,5.294986746629392,269.5,1.0]},{"name":"Old-growth oak","children":[77],"extras":{"veldrenEntityKey":"overworld:object:6804282"}},{"mesh":3,"matrix":[-0.3883780606803875,0.0,-0.6148477303741158,0.0,0.0,0.7272380968871612,0.0,0.0,0.6148477303741158,0.0,-0.3883780606803875,0.0,47.5,3.614434103531346,281.5,1.0]},{"name":"Old-growth oak","children":[79],"extras":{"veldrenEntityKey":"overworld:object:6804283"}},{"mesh":3,"matrix":[-0.13503658074746083,0.0,0.7454069325441817,0.0,0.0,0.7575396842574597,0.0,0.0,-0.7454069325441817,0.0,-0.13503658074746083,0.0,51.5,5.6985109307042805,278.5,1.0]},{"name":"Old-growth oak","children":[81],"extras":{"veldrenEntityKey":"overworld:object:6804285"}},{"mesh":3,"matrix":[-0.7240545289839911,0.0,-0.06797270497656362,0.0,0.0,0.7272380968871612,0.0,0.0,0.06797270497656362,0.0,-0.7240545289839911,0.0,71.5,6.512975225306706,281.5,1.0]},{"name":"Old-growth oak","children":[83],"extras":{"veldrenEntityKey":"overworld:object:6804288"}},{"mesh":3,"matrix":[-0.49602497098615767,0.0,0.5318218477293327,0.0,0.0,0.7272380968871612,0.0,0.0,-0.5318218477293327,0.0,-0.49602497098615767,0.0,92.5,6.344093932312793,280.5,1.0]},{"name":"Old-growth oak","children":[85],"extras":{"veldrenEntityKey":"overworld:object:6804289"}},{"mesh":3,"matrix":[0.7552588813304112,0.0,-0.05874006636383288,0.0,0.0,0.7575396842574597,0.0,0.0,0.05874006636383288,0.0,0.7552588813304112,0.0,98.5,6.2127210219640485,279.5,1.0]},{"name":"Old-growth oak","children":[87],"extras":{"veldrenEntityKey":"overworld:object:6804291"}},{"mesh":3,"matrix":[0.11818028674176803,0.0,0.717571368847513,0.0,0.0,0.7272380968871612,0.0,0.0,-0.717571368847513,0.0,0.11818028674176803,0.0,114.5,5.8968928960161735,280.5,1.0]},{"name":"Old-growth oak","children":[89],"extras":{"veldrenEntityKey":"overworld:object:6804292"}},{"mesh":3,"matrix":[0.41474624831030427,0.0,-0.6339179148260594,0.0,0.0,0.7575396842574597,0.0,0.0,0.6339179148260594,0.0,0.41474624831030427,0.0,124.5,5.568823113317112,279.5,1.0]},{"name":"Old-growth oak","children":[91],"extras":{"veldrenEntityKey":"overworld:object:6804421"}},{"mesh":3,"matrix":[-0.6437376812052998,0.0,-0.3993346604307162,0.0,0.0,0.7575396842574597,0.0,0.0,0.3993346604307162,0.0,-0.6437376812052998,0.0,50.5,3.735794090522027,285.5,1.0]},{"name":"Old-growth oak","children":[93],"extras":{"veldrenEntityKey":"overworld:object:6804422"}},{"mesh":3,"matrix":[0.21239178538870207,0.0,0.7586722604520626,0.0,0.0,0.7878412716277581,0.0,0.0,-0.7586722604520626,0.0,0.21239178538870207,0.0,61.5,6.490012699324031,288.5,1.0]},{"name":"Old-growth oak","children":[95],"extras":{"veldrenEntityKey":"overworld:object:6804424"}},{"mesh":3,"matrix":[-0.7093584960345193,0.0,0.265851269187372,0.0,0.0,0.7575396842574597,0.0,0.0,-0.265851269187372,0.0,-0.7093584960345193,0.0,73.5,6.704815784833489,286.5,1.0]},{"name":"Old-growth oak","children":[97],"extras":{"veldrenEntityKey":"overworld:object:6804425"}},{"mesh":3,"matrix":[0.7304604118686717,0.0,0.2951634394241493,0.0,0.0,0.7878412716277581,0.0,0.0,-0.2951634394241493,0.0,0.7304604118686717,0.0,87.5,6.740277009469874,289.5,1.0]},{"name":"Old-growth oak","children":[99],"extras":{"veldrenEntityKey":"overworld:object:6804427"}},{"mesh":3,"matrix":[-0.2227147478516429,0.0,0.7240611260896906,0.0,0.0,0.7575396842574597,0.0,0.0,-0.7240611260896906,0.0,-0.2227147478516429,0.0,99.5,6.455737472105625,286.5,1.0]},{"name":"Old-growth oak","children":[101],"extras":{"veldrenEntityKey":"overworld:object:6804428"}},{"mesh":3,"matrix":[0.6798357719732359,0.0,-0.3981421761451522,0.0,0.0,0.7878412716277581,0.0,0.0,0.3981421761451522,0.0,0.6798357719732359,0.0,110.5,6.2774584777230675,289.5,1.0]},{"name":"Old-growth oak","children":[103],"extras":{"veldrenEntityKey":"overworld:object:6804430"}},{"mesh":3,"matrix":[0.4373215292680893,0.0,0.6185598218955959,0.0,0.0,0.7575396842574597,0.0,0.0,-0.6185598218955959,0.0,0.4373215292680893,0.0,126.5,5.6403941424041175,285.5,1.0]},{"name":"Old-growth oak","children":[105],"extras":{"veldrenEntityKey":"overworld:object:6804564"}},{"mesh":3,"matrix":[0.7255493932746714,0.0,-0.04953107593033187,0.0,0.0,0.7272380968871612,0.0,0.0,0.04953107593033187,0.0,0.7255493932746714,0.0,89.5,6.94654367655736,297.5,1.0]},{"name":"Old-growth oak","children":[107],"extras":{"veldrenEntityKey":"overworld:object:6804565"}},{"mesh":3,"matrix":[-0.5916855613928957,0.0,-0.47304816843960557,0.0,0.0,0.7575396842574597,0.0,0.0,0.47304816843960557,0.0,-0.5916855613928957,0.0,101.5,6.647877161590541,294.5,1.0]},{"name":"Old-growth oak","children":[109],"extras":{"veldrenEntityKey":"overworld:object:6804567"}},{"mesh":3,"matrix":[0.40389382407193675,0.0,-0.6047685742832604,0.0,0.0,0.7272380968871612,0.0,0.0,0.6047685742832604,0.0,0.40389382407193675,0.0,113.5,6.339304611760069,296.5,1.0]},{"name":"Old-growth oak","children":[111],"extras":{"veldrenEntityKey":"overworld:object:6804568"}},{"mesh":3,"matrix":[-0.7359379755530072,0.0,0.17961533721771375,0.0,0.0,0.7575396842574597,0.0,0.0,-0.17961533721771375,0.0,-0.7359379755530072,0.0,127.5,5.762067327186973,295.5,1.0]},{"name":"Old-growth oak","children":[113],"extras":{"veldrenEntityKey":"overworld:object:6804701"}},{"mesh":3,"matrix":[-0.3318108299826256,0.0,-0.7145596142984041,0.0,0.0,0.7878412716277581,0.0,0.0,0.7145596142984041,0.0,-0.3318108299826256,0.0,86.5,7.122662833738724,304.5,1.0]},{"name":"Old-growth oak","children":[115],"extras":{"veldrenEntityKey":"overworld:object:6804703"}},{"mesh":3,"matrix":[0.6572794670303539,0.0,-0.37662989186359813,0.0,0.0,0.7575396842574597,0.0,0.0,0.37662989186359813,0.0,0.6572794670303539,0.0,103.5,6.7573357919729915,302.5,1.0]},{"name":"Old-growth oak","children":[117],"extras":{"veldrenEntityKey":"overworld:object:6804704"}},{"mesh":3,"matrix":[-0.768463030351354,0.0,-0.1736618560975807,0.0,0.0,0.7878412716277581,0.0,0.0,0.1736618560975807,0.0,-0.768463030351354,0.0,107.5,6.674529035603565,305.5,1.0]},{"name":"Old-growth oak","children":[119],"extras":{"veldrenEntityKey":"overworld:object:6804706"}},{"mesh":3,"matrix":[0.10318968261901469,0.0,-0.7504786889884874,0.0,0.0,0.7575396842574597,0.0,0.0,0.7504786889884874,0.0,0.10318968261901469,0.0,127.5,5.8239838502533345,302.5,1.0]},{"name":"Old-growth oak","children":[121],"extras":{"veldrenEntityKey":"overworld:object:6804840"}},{"mesh":3,"matrix":[-0.5636980141531359,0.0,-0.45947774527595026,0.0,0.0,0.7272380968871612,0.0,0.0,0.45947774527595026,0.0,-0.5636980141531359,0.0,90.5,7.159525791981224,313.5,1.0]},{"name":"Old-growth oak","children":[123],"extras":{"veldrenEntityKey":"overworld:object:6804841"}},{"mesh":3,"matrix":[0.1089452585877736,0.0,0.7496647943288619,0.0,0.0,0.7575396842574597,0.0,0.0,-0.7496647943288619,0.0,0.1089452585877736,0.0,103.5,6.83560868491438,309.5,1.0]},{"name":"Old-growth oak","children":[125],"extras":{"veldrenEntityKey":"overworld:object:6804843"}},{"mesh":3,"matrix":[-0.7080995587610046,0.0,0.16574155920145886,0.0,0.0,0.7272380968871612,0.0,0.0,-0.16574155920145886,0.0,-0.7080995587610046,0.0,116.5,6.368737090154168,313.5,1.0]},{"name":"Old-growth oak","children":[127],"extras":{"veldrenEntityKey":"overworld:object:6804844"}},{"mesh":3,"matrix":[0.6601500937741831,0.0,0.3715753314131995,0.0,0.0,0.7575396842574597,0.0,0.0,-0.3715753314131995,0.0,0.6601500937741831,0.0,126.5,5.892945131069343,310.5,1.0]},{"name":"Old-growth oak","children":[129],"extras":{"veldrenEntityKey":"overworld:object:6804976"}},{"mesh":3,"matrix":[-0.3125368465100591,0.0,-0.6900631078375654,0.0,0.0,0.7575396842574597,0.0,0.0,0.6900631078375654,0.0,-0.3125368465100591,0.0,79.5,3.2047976640111835,319.5,1.0]},{"name":"Old-growth oak","children":[131],"extras":{"veldrenEntityKey":"overworld:object:6804979"}},{"mesh":3,"matrix":[-0.7372945434916459,0.0,-0.17396301147754684,0.0,0.0,0.7575396842574597,0.0,0.0,0.17396301147754684,0.0,-0.7372945434916459,0.0,102.5,6.87555770940301,319.5,1.0]},{"name":"Old-growth oak","children":[133],"extras":{"veldrenEntityKey":"overworld:object:6804982"}},{"mesh":3,"matrix":[-0.5880383233474704,0.0,0.47757439577471855,0.0,0.0,0.7575396842574597,0.0,0.0,-0.47757439577471855,0.0,-0.5880383233474704,0.0,124.5,5.959537468533646,318.5,1.0]},{"name":"Old-growth oak","children":[135],"extras":{"veldrenEntityKey":"overworld:object:6805116"}},{"mesh":3,"matrix":[0.09777669287823758,0.0,0.720635114252598,0.0,0.0,0.7272380968871612,0.0,0.0,-0.720635114252598,0.0,0.09777669287823758,0.0,93.5,5.0427899116401145,329.5,1.0]},{"name":"Old-growth oak","children":[137],"extras":{"veldrenEntityKey":"overworld:object:6805118"}},{"mesh":3,"matrix":[-0.7687716070691395,0.0,0.17229070040015376,0.0,0.0,0.7878412716277581,0.0,0.0,-0.17229070040015376,0.0,-0.7687716070691395,0.0,105.5,6.735347048462086,324.5,1.0]},{"name":"Old-growth oak","children":[139],"extras":{"veldrenEntityKey":"overworld:object:6805255"}},{"mesh":3,"matrix":[0.4195982516344439,0.0,0.6307167989281794,0.0,0.0,0.7575396842574597,0.0,0.0,-0.6307167989281794,0.0,0.4195982516344439,0.0,99.5,6.019977405095056,335.5,1.0]},{"name":"Willow tree","children":[141],"extras":{"veldrenEntityKey":"overworld:object:9109627"}},{"mesh":0,"matrix":[-0.5489308262401184,0.0,-0.6800017499112077,0.0,0.0,0.8739150026627096,0.0,0.0,0.6800017499112077,0.0,-0.5489308262401184,0.0,27.5,1.8571493627009525,258.5,1.0]},{"name":"Tree","children":[143],"extras":{"veldrenEntityKey":"overworld:object:9110624"}},{"mesh":3,"matrix":[0.7778610910757858,0.0,-0.1250039690187112,0.0,0.0,0.7878412716277581,0.0,0.0,0.1250039690187112,0.0,0.7778610910757858,0.0,65.5,5.574911194411265,261.5,1.0]},{"name":"Tree","children":[145],"extras":{"veldrenEntityKey":"overworld:object:9110628"}},{"mesh":3,"matrix":[-0.6878655154378692,0.0,0.23604296692647864,0.0,0.0,0.7272380968871612,0.0,0.0,-0.23604296692647864,0.0,-0.6878655154378692,0.0,83.5,5.6024817602364925,263.5,1.0]},{"name":"Oak tree","children":[147],"extras":{"veldrenEntityKey":"overworld:object:9110629"}},{"mesh":4,"matrix":[0.878917140018505,0.0,0.3841287514685366,0.0,0.0,0.9591924920072534,0.0,0.0,-0.3841287514685366,0.0,0.878917140018505,0.0,63.5,5.875111181770393,267.5,1.0]},{"name":"Yew tree","children":[149],"extras":{"veldrenEntityKey":"overworld:object:9110631"}},{"mesh":2,"matrix":[-0.25851635606565315,0.0,0.7636450722227164,0.0,0.0,0.8062161637448739,0.0,0.0,-0.7636450722227164,0.0,-0.25851635606565315,0.0,78.5,6.214314173720762,273.5,1.0]},{"name":"Tree","children":[151],"extras":{"veldrenEntityKey":"overworld:object:9110632"}},{"mesh":3,"matrix":[0.6641546702045094,0.0,-0.364369245780199,0.0,0.0,0.7575396842574597,0.0,0.0,0.364369245780199,0.0,0.6641546702045094,0.0,61.5,5.379398210716875,257.5,1.0]},{"name":"Tree","children":[153],"extras":{"veldrenEntityKey":"overworld:object:9110641"}},{"mesh":3,"matrix":[-0.753630456382003,0.0,0.07686031770911109,0.0,0.0,0.7575396842574597,0.0,0.0,-0.07686031770911109,0.0,-0.753630456382003,0.0,101.5,5.723347802828835,269.5,1.0]},{"name":"Oak tree","children":[155],"extras":{"veldrenEntityKey":"overworld:object:9110642"}},{"mesh":4,"matrix":[0.799568121924682,0.0,0.5965041110013624,0.0,0.0,0.9975601916875435,0.0,0.0,-0.5965041110013624,0.0,0.799568121924682,0.0,97.5,5.26004676617762,259.5,1.0]},{"name":"Maple tree","children":[157],"extras":{"veldrenEntityKey":"overworld:object:9110643"}},{"mesh":1,"matrix":[-0.12497691706516866,0.0,-0.6596276655565587,0.0,0.0,0.6713627089485306,0.0,0.0,0.6596276655565587,0.0,-0.12497691706516866,0.0,109.5,5.376160360561115,264.5,1.0]},{"name":"Oak tree","children":[159],"extras":{"veldrenEntityKey":"overworld:object:9110646"}},{"mesh":4,"matrix":[-0.821088552923191,0.0,-0.41681157184331546,0.0,0.0,0.9208247923269633,0.0,0.0,0.41681157184331546,0.0,-0.821088552923191,0.0,106.5,5.730517617942823,271.5,1.0]},{"name":"Maple tree","children":[161],"extras":{"veldrenEntityKey":"overworld:object:9110647"}},{"mesh":1,"matrix":[0.24535537594780477,0.0,0.6548830410081613,0.0,0.0,0.6993361551547194,0.0,0.0,-0.6548830410081613,0.0,0.24535537594780477,0.0,91.5,5.383243747960512,260.5,1.0]},{"name":"Tree","children":[163],"extras":{"veldrenEntityKey":"overworld:object:9110649"}},{"mesh":3,"matrix":[-0.6567007682237552,0.0,0.31244095534739025,0.0,0.0,0.7272380968871612,0.0,0.0,-0.31244095534739025,0.0,-0.6567007682237552,0.0,97.5,6.014228277115612,274.5,1.0]},{"name":"Yew tree","children":[165],"extras":{"veldrenEntityKey":"overworld:object:9110652"}},{"mesh":2,"matrix":[-0.17035143898402977,0.0,0.7880132549136287,0.0,0.0,0.8062161637448739,0.0,0.0,-0.7880132549136287,0.0,-0.17035143898402977,0.0,89.5,5.83575546654991,267.5,1.0]},{"name":"Tree","children":[167],"extras":{"veldrenEntityKey":"overworld:object:9111602"}},{"mesh":3,"matrix":[-0.729168077181693,0.0,-0.2983417243685427,0.0,0.0,0.7878412716277581,0.0,0.0,0.2983417243685427,0.0,-0.729168077181693,0.0,91.5,6.690962781698949,289.5,1.0]},{"name":"Tree","children":[169],"extras":{"veldrenEntityKey":"overworld:object:9111610"}},{"mesh":3,"matrix":[-0.7567408436740762,0.0,-0.03478029241307617,0.0,0.0,0.7575396842574597,0.0,0.0,0.03478029241307617,0.0,-0.7567408436740762,0.0,86.5,6.532729100810927,283.5,1.0]},{"name":"Tree","children":[171],"extras":{"veldrenEntityKey":"overworld:object:9111621"}},{"mesh":3,"matrix":[-0.2565042985022729,0.0,0.6805004000101079,0.0,0.0,0.7272380968871612,0.0,0.0,-0.6805004000101079,0.0,-0.2565042985022729,0.0,119.5,6.026506708992057,291.5,1.0]},{"name":"Oak tree","children":[173],"extras":{"veldrenEntityKey":"overworld:object:9111630"}},{"mesh":4,"matrix":[0.6347859380406496,0.0,-0.6670570523050092,0.0,0.0,0.9208247923269633,0.0,0.0,0.6670570523050092,0.0,0.6347859380406496,0.0,120.5,5.5356129421359,274.5,1.0]},{"name":"Oak tree","children":[175],"extras":{"veldrenEntityKey":"overworld:object:9113540"}},{"mesh":4,"matrix":[-0.7734756213814262,0.0,-0.6299696811500575,0.0,0.0,0.9975601916875435,0.0,0.0,0.6299696811500575,0.0,-0.7734756213814262,0.0,120.5,5.858991466800068,336.5,1.0]},{"name":"Tree","children":[177],"extras":{"veldrenEntityKey":"overworld:object:9113543"}},{"mesh":3,"matrix":[-0.7670379582463183,0.0,0.17985171639259445,0.0,0.0,0.7878412716277581,0.0,0.0,-0.17985171639259445,0.0,-0.7670379582463183,0.0,127.5,4.564333426424091,332.5,1.0]},{"name":"Oak tree","children":[179],"extras":{"veldrenEntityKey":"overworld:object:9113544"}},{"mesh":4,"matrix":[0.8026188258169169,0.0,0.451354980706172,0.0,0.0,0.9208247923269633,0.0,0.0,-0.451354980706172,0.0,0.8026188258169169,0.0,119.5,5.672282976078374,344.5,1.0]},{"name":"Tree","children":[181],"extras":{"veldrenEntityKey":"overworld:object:9113547"}},{"mesh":3,"matrix":[0.6693945691402644,0.0,-0.28422906320357155,0.0,0.0,0.7272380968871612,0.0,0.0,0.28422906320357155,0.0,0.6693945691402644,0.0,112.5,6.092369839429129,341.5,1.0]},{"name":"Maple tree","children":[183],"extras":{"veldrenEntityKey":"overworld:object:9113549"}},{"mesh":1,"matrix":[0.34045915252695924,0.0,0.642702747537606,0.0,0.0,0.7273096013609082,0.0,0.0,-0.642702747537606,0.0,0.34045915252695924,0.0,125.5,4.6075572456390415,347.5,1.0]},{"name":"Yew tree","children":[185],"extras":{"veldrenEntityKey":"overworld:object:9113550"}},{"mesh":2,"matrix":[0.20371116776802636,0.0,-0.7800552947131943,0.0,0.0,0.8062161637448739,0.0,0.0,0.7800552947131943,0.0,0.20371116776802636,0.0,111.5,6.440928129496646,332.5,1.0]},{"name":"Willow tree","children":[187],"extras":{"veldrenEntityKey":"overworld:object:9115460"}},{"mesh":0,"matrix":[-0.8944581012794353,0.0,-0.16122126217057992,0.0,0.0,0.9088716027692181,0.0,0.0,0.16122126217057992,0.0,-0.8944581012794353,0.0,110.5,2.1390700759071666,377.5,1.0]},{"name":"Oak tree","children":[189],"extras":{"veldrenEntityKey":"overworld:object:9115461"}},{"mesh":4,"matrix":[0.5571781309441869,0.0,0.7331240199049119,0.0,0.0,0.9208247923269633,0.0,0.0,-0.7331240199049119,0.0,0.5571781309441869,0.0,118.5,4.0680880472544265,379.5,1.0]},{"name":"Willow tree","children":[191],"extras":{"veldrenEntityKey":"overworld:object:9115462"}},{"mesh":0,"matrix":[0.08091234914947444,0.0,-0.8701612630047819,0.0,0.0,0.8739150026627096,0.0,0.0,0.8701612630047819,0.0,0.08091234914947444,0.0,108.5,1.2509701972992864,383.5,1.0]},{"name":"Willow tree","children":[193],"extras":{"veldrenEntityKey":"overworld:object:9115468"}},{"mesh":0,"matrix":[-0.8621726104055312,0.0,0.14277892612523724,0.0,0.0,0.8739150026627096,0.0,0.0,-0.14277892612523724,0.0,-0.8621726104055312,0.0,108.5,1.969295917924275,370.5,1.0]}],"buffers":[{"uri":"../world-parts/629e78b439d8b314fb62411e16a47eeeaf0f6f78bb3f3150468167c9e9d3eef3.bin","byteLength":92004},{"uri":"../world-parts/133dae8ce562dbc4cbf0d0d2cb7dc4cb2baafed83b6c58ebd4446a3657088e0f.bin","byteLength":180744},{"uri":"../world-parts/7e2e11a73c6c1f6b77c7c18c44a87655900818e94c168e7a92bb0a48cc87a1c1.bin","byteLength":46872},{"uri":"../world-parts/8480a643e36c0194bf11e79cbc019e38e5ff72b8bc295b144212e5f7a5b37347.bin","byteLength":64668},{"uri":"../world-parts/cf73d73e4a52b629e942c4cf3ba67a960257f3fda86af0eadf8051aa3c1f7c97.bin","byteLength":133656}],"bufferViews":[{"buffer":0,"byteOffset":0,"byteLength":10956,"target":34962},{"buffer":0,"byteOffset":10956,"byteLength":10956,"target":34962},{"buffer":0,"byteOffset":21912,"byteLength":7304,"target":34962},{"buffer":0,"byteOffset":29216,"byteLength":10956,"target":34962},{"buffer":0,"byteOffset":40172,"byteLength":10956,"target":34962},{"buffer":0,"byteOffset":51128,"byteLength":10956,"target":34962},{"buffer":0,"byteOffset":62084,"byteLength":10956,"target":34962},{"buffer":0,"byteOffset":73040,"byteLength":3652,"target":34962},{"buffer":0,"byteOffset":76692,"byteLength":8112,"target":34963},{"buffer":0,"byteOffset":84804,"byteLength":7200,"target":34963},{"buffer":1,"byteOffset":0,"byteLength":21552,"target":34962},{"buffer":1,"byteOffset":21552,"byteLength":21552,"target":34962},{"buffer":1,"byteOffset":43104,"byteLength":14368,"target":34962},{"buffer":1,"byteOffset":57472,"byteLength":21552,"target":34962},{"buffer":1,"byteOffset":79024,"byteLength":21552,"target":34962},{"buffer":1,"byteOffset":100576,"byteLength":21552,"target":34962},{"buffer":1,"byteOffset":122128,"byteLength":21552,"target":34962},{"buffer":1,"byteOffset":143680,"byteLength":7184,"target":34962},{"buffer":1,"byteOffset":150864,"byteLength":17496,"target":34963},{"buffer":1,"byteOffset":168360,"byteLength":12384,"target":34963},{"buffer":2,"byteOffset":0,"byteLength":5784,"target":34962},{"buffer":2,"byteOffset":5784,"byteLength":5784,"target":34962},{"buffer":2,"byteOffset":11568,"byteLength":3856,"target":34962},{"buffer":2,"byteOffset":15424,"byteLength":5784,"target":34962},{"buffer":2,"byteOffset":21208,"byteLength":5784,"target":34962},{"buffer":2,"byteOffset":26992,"byteLength":5784,"target":34962},{"buffer":2,"byteOffset":32776,"byteLength":5784,"target":34962},{"buffer":2,"byteOffset":38560,"byteLength":1928,"target":34962},{"buffer":2,"byteOffset":40488,"byteLength":1776,"target":34963},{"buffer":2,"byteOffset":42264,"byteLength":4608,"target":34963},{"buffer":3,"byteOffset":0,"byteLength":7860,"target":34962},{"buffer":3,"byteOffset":7860,"byteLength":7860,"target":34962},{"buffer":3,"byteOffset":15720,"byteLength":5240,"target":34962},{"buffer":3,"byteOffset":20960,"byteLength":7860,"target":34962},{"buffer":3,"byteOffset":28820,"byteLength":7860,"target":34962},{"buffer":3,"byteOffset":36680,"byteLength":7860,"target":34962},{"buffer":3,"byteOffset":44540,"byteLength":7860,"target":34962},{"buffer":3,"byteOffset":52400,"byteLength":2620,"target":34962},{"buffer":3,"byteOffset":55020,"byteLength":5328,"target":34963},{"buffer":3,"byteOffset":60348,"byteLength":4320,"target":34963},{"buffer":4,"byteOffset":0,"byteLength":15912,"target":34962},{"buffer":4,"byteOffset":15912,"byteLength":15912,"target":34962},{"buffer":4,"byteOffset":31824,"byteLength":10608,"target":34962},{"buffer":4,"byteOffset":42432,"byteLength":15912,"target":34962},{"buffer":4,"byteOffset":58344,"byteLength":15912,"target":34962},{"buffer":4,"byteOffset":74256,"byteLength":15912,"target":34962},{"buffer":4,"byteOffset":90168,"byteLength":15912,"target":34962},{"buffer":4,"byteOffset":106080,"byteLength":5304,"target":34962},{"buffer":4,"byteOffset":111384,"byteLength":10464,"target":34963},{"buffer":4,"byteOffset":121848,"byteLength":11808,"target":34963}],"accessors":[{"bufferView":0,"componentType":5126,"count":913,"type":"VEC3","min":[-2.969912052154541,-0.0013800000306218863,-2.3520750999450684],"max":[3.394526958465576,5.491145133972168,2.5843169689178467]},{"bufferView":1,"componentType":5126,"count":913,"type":"VEC3"},{"bufferView":2,"componentType":5126,"count":913,"type":"VEC2"},{"bufferView":3,"componentType":5126,"count":913,"type":"VEC3"},{"bufferView":4,"componentType":5126,"count":913,"type":"VEC3"},{"bufferView":5,"componentType":5126,"count":913,"type":"VEC3"},{"bufferView":6,"componentType":5126,"count":913,"type":"VEC3"},{"bufferView":7,"componentType":5126,"count":913,"type":"SCALAR"},{"bufferView":8,"componentType":5125,"count":2028,"type":"SCALAR"},{"bufferView":9,"componentType":5125,"count":1800,"type":"SCALAR"},{"bufferView":10,"componentType":5126,"count":1796,"type":"VEC3","min":[-4.721841812133789,-0.0018220000201836228,-1.3137749433517456],"max":[4.035912990570068,10.293656349182129,3.0319550037384033]},{"bufferView":11,"componentType":5126,"count":1796,"type":"VEC3"},{"bufferView":12,"componentType":5126,"count":1796,"type":"VEC2"},{"bufferView":13,"componentType":5126,"count":1796,"type":"VEC3"},{"bufferView":14,"componentType":5126,"count":1796,"type":"VEC3"},{"bufferView":15,"componentType":5126,"count":1796,"type":"VEC3"},{"bufferView":16,"componentType":5126,"count":1796,"type":"VEC3"},{"bufferView":17,"componentType":5126,"count":1796,"type":"SCALAR"},{"bufferView":18,"componentType":5125,"count":4374,"type":"SCALAR"},{"bufferView":19,"componentType":5125,"count":3096,"type":"SCALAR"},{"bufferView":20,"componentType":5126,"count":482,"type":"VEC3","min":[-3.7659718990325928,-0.07409700006246567,-3.4778990745544434],"max":[3.116921901702881,8.022987365722656,3.8158159255981445]},{"bufferView":21,"componentType":5126,"count":482,"type":"VEC3"},{"bufferView":22,"componentType":5126,"count":482,"type":"VEC2"},{"bufferView":23,"componentType":5126,"count":482,"type":"VEC3"},{"bufferView":24,"componentType":5126,"count":482,"type":"VEC3"},{"bufferView":25,"componentType":5126,"count":482,"type":"VEC3"},{"bufferView":26,"componentType":5126,"count":482,"type":"VEC3"},{"bufferView":27,"componentType":5126,"count":482,"type":"SCALAR"},{"bufferView":28,"componentType":5125,"count":444,"type":"SCALAR"},{"bufferView":29,"componentType":5125,"count":1152,"type":"SCALAR"},{"bufferView":30,"componentType":5126,"count":655,"type":"VEC3","min":[-2.3328819274902344,0.011172999627888203,-2.0712060928344727],"max":[1.805098056793213,5.555437088012695,2.05914306640625]},{"bufferView":31,"componentType":5126,"count":655,"type":"VEC3"},{"bufferView":32,"componentType":5126,"count":655,"type":"VEC2"},{"bufferView":33,"componentType":5126,"count":655,"type":"VEC3"},{"bufferView":34,"componentType":5126,"count":655,"type":"VEC3"},{"bufferView":35,"componentType":5126,"count":655,"type":"VEC3"},{"bufferView":36,"componentType":5126,"count":655,"type":"VEC3"},{"bufferView":37,"componentType":5126,"count":655,"type":"SCALAR"},{"bufferView":38,"componentType":5125,"count":1332,"type":"SCALAR"},{"bufferView":39,"componentType":5125,"count":1080,"type":"SCALAR"},{"bufferView":40,"componentType":5126,"count":1326,"type":"VEC3","min":[-3.6411149501800537,0.011172999627888203,-2.5864460468292236],"max":[3.095597982406616,6.3706889152526855,2.3982579708099365]},{"bufferView":41,"componentType":5126,"count":1326,"type":"VEC3"},{"bufferView":42,"componentType":5126,"count":1326,"type":"VEC2"},{"bufferView":43,"componentType":5126,"count":1326,"type":"VEC3"},{"bufferView":44,"componentType":5126,"count":1326,"type":"VEC3"},{"bufferView":45,"componentType":5126,"count":1326,"type":"VEC3"},{"bufferView":46,"componentType":5126,"count":1326,"type":"VEC3"},{"bufferView":47,"componentType":5126,"count":1326,"type":"SCALAR"},{"bufferView":48,"componentType":5125,"count":2616,"type":"SCALAR"},{"bufferView":49,"componentType":5125,"count":2952,"type":"SCALAR"}],"meshes":[{"name":"629e78b439d8b314fb62411e16a47eeeaf0f6f78bb3f3150468167c9e9d3eef3","primitives":[{"attributes":{"POSITION":0,"NORMAL":1,"TEXCOORD_0":2,"COLOR_0":3,"_VELDREN_NORMAL":4,"_VELDREN_COLOR":5,"_VELDREN_FALLBACK":6,"_VELDREN_MATERIAL":7},"indices":8,"material":0,"extras":{"mixedAtlasFallback":false}},{"attributes":{"POSITION":0,"NORMAL":1,"TEXCOORD_0":2,"COLOR_0":3,"_VELDREN_NORMAL":4,"_VELDREN_COLOR":5,"_VELDREN_FALLBACK":6,"_VELDREN_MATERIAL":7},"indices":9,"material":1,"extras":{"mixedAtlasFallback":false}}]},{"name":"133dae8ce562dbc4cbf0d0d2cb7dc4cb2baafed83b6c58ebd4446a3657088e0f","primitives":[{"attributes":{"POSITION":10,"NORMAL":11,"TEXCOORD_0":12,"COLOR_0":13,"_VELDREN_NORMAL":14,"_VELDREN_COLOR":15,"_VELDREN_FALLBACK":16,"_VELDREN_MATERIAL":17},"indices":18,"material":2,"extras":{"mixedAtlasFallback":false}},{"attributes":{"POSITION":10,"NORMAL":11,"TEXCOORD_0":12,"COLOR_0":13,"_VELDREN_NORMAL":14,"_VELDREN_COLOR":15,"_VELDREN_FALLBACK":16,"_VELDREN_MATERIAL":17},"indices":19,"material":3,"extras":{"mixedAtlasFallback":false}}]},{"name":"7e2e11a73c6c1f6b77c7c18c44a87655900818e94c168e7a92bb0a48cc87a1c1","primitives":[{"attributes":{"POSITION":20,"NORMAL":21,"TEXCOORD_0":22,"COLOR_0":23,"_VELDREN_NORMAL":24,"_VELDREN_COLOR":25,"_VELDREN_FALLBACK":26,"_VELDREN_MATERIAL":27},"indices":28,"material":4,"extras":{"mixedAtlasFallback":false}},{"attributes":{"POSITION":20,"NORMAL":21,"TEXCOORD_0":22,"COLOR_0":23,"_VELDREN_NORMAL":24,"_VELDREN_COLOR":25,"_VELDREN_FALLBACK":26,"_VELDREN_MATERIAL":27},"indices":29,"material":5,"extras":{"mixedAtlasFallback":false}}]},{"name":"8480a643e36c0194bf11e79cbc019e38e5ff72b8bc295b144212e5f7a5b37347","primitives":[{"attributes":{"POSITION":30,"NORMAL":31,"TEXCOORD_0":32,"COLOR_0":33,"_VELDREN_NORMAL":34,"_VELDREN_COLOR":35,"_VELDREN_FALLBACK":36,"_VELDREN_MATERIAL":37},"indices":38,"material":6,"extras":{"mixedAtlasFallback":false}},{"attributes":{"POSITION":30,"NORMAL":31,"TEXCOORD_0":32,"COLOR_0":33,"_VELDREN_NORMAL":34,"_VELDREN_COLOR":35,"_VELDREN_FALLBACK":36,"_VELDREN_MATERIAL":37},"indices":39,"material":7,"extras":{"mixedAtlasFallback":false}}]},{"name":"cf73d73e4a52b629e942c4cf3ba67a960257f3fda86af0eadf8051aa3c1f7c97","primitives":[{"attributes":{"POSITION":40,"NORMAL":41,"TEXCOORD_0":42,"COLOR_0":43,"_VELDREN_NORMAL":44,"_VELDREN_COLOR":45,"_VELDREN_FALLBACK":46,"_VELDREN_MATERIAL":47},"indices":48,"material":8,"extras":{"mixedAtlasFallback":false}},{"attributes":{"POSITION":40,"NORMAL":41,"TEXCOORD_0":42,"COLOR_0":43,"_VELDREN_NORMAL":44,"_VELDREN_COLOR":45,"_VELDREN_FALLBACK":46,"_VELDREN_MATERIAL":47},"indices":49,"material":9,"extras":{"mixedAtlasFallback":false}}]}],"materials":[{"name":"legacy-material-49","pbrMetallicRoughness":{"baseColorFactor":[1,1,1,1],"metallicFactor":0,"roughnessFactor":1,"baseColorTexture":{"index":0}},"doubleSided":true,"extras":{"legacyMaterial":49,"legacyShader":"dist/renderer-gl.js"}},{"name":"legacy-material-51","pbrMetallicRoughness":{"baseColorFactor":[1,1,1,1],"metallicFactor":0,"roughnessFactor":1,"baseColorTexture":{"index":1}},"doubleSided":true,"extras":{"legacyMaterial":51,"legacyShader":"dist/renderer-gl.js"},"alphaMode":"MASK","alphaCutoff":0.45},{"name":"legacy-material-52","pbrMetallicRoughness":{"baseColorFactor":[1,1,1,1],"metallicFactor":0,"roughnessFactor":1,"baseColorTexture":{"index":2}},"doubleSided":true,"extras":{"legacyMaterial":52,"legacyShader":"dist/renderer-gl.js"}},{"name":"legacy-material-53","pbrMetallicRoughness":{"baseColorFactor":[1,1,1,1],"metallicFactor":0,"roughnessFactor":1,"baseColorTexture":{"index":3}},"doubleSided":true,"extras":{"legacyMaterial":53,"legacyShader":"dist/renderer-gl.js"},"alphaMode":"MASK","alphaCutoff":0.45},{"name":"legacy-material-49","pbrMetallicRoughness":{"baseColorFactor":[1,1,1,1],"metallicFactor":0,"roughnessFactor":1,"baseColorTexture":{"index":4}},"doubleSided":true,"extras":{"legacyMaterial":49,"legacyShader":"dist/renderer-gl.js"}},{"name":"legacy-material-54","pbrMetallicRoughness":{"baseColorFactor":[1,1,1,1],"metallicFactor":0,"roughnessFactor":1,"baseColorTexture":{"index":5}},"doubleSided":true,"extras":{"legacyMaterial":54,"legacyShader":"dist/renderer-gl.js"},"alphaMode":"MASK","alphaCutoff":0.45},{"name":"legacy-material-49","pbrMetallicRoughness":{"baseColorFactor":[1,1,1,1],"metallicFactor":0,"roughnessFactor":1,"baseColorTexture":{"index":6}},"doubleSided":true,"extras":{"legacyMaterial":49,"legacyShader":"dist/renderer-gl.js"}},{"name":"legacy-material-50","pbrMetallicRoughness":{"baseColorFactor":[1,1,1,1],"metallicFactor":0,"roughnessFactor":1,"baseColorTexture":{"index":7}},"doubleSided":true,"extras":{"legacyMaterial":50,"legacyShader":"dist/renderer-gl.js"},"alphaMode":"MASK","alphaCutoff":0.45},{"name":"legacy-material-49","pbrMetallicRoughness":{"baseColorFactor":[1,1,1,1],"metallicFactor":0,"roughnessFactor":1,"baseColorTexture":{"index":8}},"doubleSided":true,"extras":{"legacyMaterial":49,"legacyShader":"dist/renderer-gl.js"}},{"name":"legacy-material-50","pbrMetallicRoughness":{"baseColorFactor":[1,1,1,1],"metallicFactor":0,"roughnessFactor":1,"baseColorTexture":{"index":9}},"doubleSided":true,"extras":{"legacyMaterial":50,"legacyShader":"dist/renderer-gl.js"},"alphaMode":"MASK","alphaCutoff":0.45}],"images":[{"name":"atlas-29","uri":"../../textures/atlas/tile-29.png"},{"name":"atlas-31","uri":"../../textures/atlas/tile-31.png"},{"name":"atlas-32","uri":"../../textures/atlas/tile-32.png"},{"name":"atlas-33","uri":"../../textures/atlas/tile-33.png"},{"name":"atlas-29","uri":"../../textures/atlas/tile-29.png"},{"name":"atlas-34","uri":"../../textures/atlas/tile-34.png"},{"name":"atlas-29","uri":"../../textures/atlas/tile-29.png"},{"name":"atlas-30","uri":"../../textures/atlas/tile-30.png"},{"name":"atlas-29","uri":"../../textures/atlas/tile-29.png"},{"name":"atlas-30","uri":"../../textures/atlas/tile-30.png"}],"textures":[{"source":0,"sampler":0},{"source":1,"sampler":0},{"source":2,"sampler":1},{"source":3,"sampler":1},{"source":4,"sampler":2},{"source":5,"sampler":2},{"source":6,"sampler":3},{"source":7,"sampler":3},{"source":8,"sampler":4},{"source":9,"sampler":4}],"samplers":[{"magFilter":9729,"minFilter":9729,"wrapS":10497,"wrapT":10497},{"magFilter":9729,"minFilter":9729,"wrapS":10497,"wrapT":10497},{"magFilter":9729,"minFilter":9729,"wrapS":10497,"wrapT":10497},{"magFilter":9729,"minFilter":9729,"wrapS":10497,"wrapT":10497},{"magFilter":9729,"minFilter":9729,"wrapS":10497,"wrapT":10497}]}
