{"asset":{"version":"2.0","generator":"Veldren static world recovery"},"scene":0,"scenes":[{"nodes":[0,2,4,6,8,10,12,14,16,18,20,22,24,26,28,30,32,34,36,38,40,42,44,46,48,50,52,54,56,58,60,62,64,66,68,70,72,74,76,78,80,82,84,86,88,90,92,94,96,98,100,102,104,106,108,110,112,114,116,118,120,122,124,126,128,130,132,134,136,138,140,142,144,146,148,150,152,154,156,158,160,162,164,166,168,170,172,174,176]}],"extras":{"sourceScene":"overworld","notVervesisScene":true,"gameplayIdentityExternal":true,"limitations":["Terrain stored separately.","Dynamic actors, fires, gates, crops, fish, effects and ground cover are not baked.","Roofs are closed; browser procedural materials require native support."]},"nodes":[{"name":"Mountain outcrop","children":[1],"extras":{"veldrenEntityKey":"overworld:object:834"}},{"mesh":0,"matrix":[1.2951787154936916,0.0,0.0,0.0,0.0,1.2951787154936916,0.0,0.0,0.0,0.0,1.2951787154936916,0.0,561.5,2.6552015751796723,390.5,1.0]},{"name":"Mountain outcrop","children":[3],"extras":{"veldrenEntityKey":"overworld:object:835"}},{"mesh":1,"matrix":[1.3275531317081868,0.0,0.0,0.0,0.0,1.3275531317081868,0.0,0.0,0.0,0.0,1.3275531317081868,0.0,584.5,1.2899540690662143,390.5,1.0]},{"name":"Mountain outcrop","children":[5],"extras":{"veldrenEntityKey":"overworld:object:836"}},{"mesh":0,"matrix":[1.2951787154936916,0.0,0.0,0.0,0.0,1.2951787154936916,0.0,0.0,0.0,0.0,1.2951787154936916,0.0,603.5,7.608828739624134,390.5,1.0]},{"name":"Mountain outcrop","children":[7],"extras":{"veldrenEntityKey":"overworld:object:853"}},{"mesh":1,"matrix":[1.3275531317081868,0.0,0.0,0.0,0.0,1.3275531317081868,0.0,0.0,0.0,0.0,1.3275531317081868,0.0,561.5,1.162153654487604,411.5,1.0]},{"name":"Copper rock","children":[9],"extras":{"veldrenEntityKey":"overworld:object:854"}},{"mesh":2,"matrix":[1.0,0.0,0.0,0.0,0.0,1.0,0.0,0.0,0.0,0.0,1.0,0.0,624.5,15.258650757461218,411.5,1.0]},{"name":"Mountain outcrop","children":[11],"extras":{"veldrenEntityKey":"overworld:object:879"}},{"mesh":1,"matrix":[1.3275531317081868,0.0,0.0,0.0,0.0,1.3275531317081868,0.0,0.0,0.0,0.0,1.3275531317081868,0.0,624.5,8.702969905819952,432.5,1.0]},{"name":"Tree","children":[13],"extras":{"veldrenEntityKey":"overworld:object:852"}},{"mesh":3,"matrix":[-0.24388074916120547,0.0,-0.6851258495726382,0.0,0.0,0.7272380968871612,0.0,0.0,0.6851258495726382,0.0,-0.24388074916120547,0.0,519.5,12.831832679281138,411.5,1.0]},{"name":"Willow tree","children":[15],"extras":{"veldrenEntityKey":"overworld:object:878"}},{"mesh":4,"matrix":[0.10507928296752098,0.0,-0.9027767911346187,0.0,0.0,0.9088716027692181,0.0,0.0,0.9027767911346187,0.0,0.10507928296752098,0.0,519.5,11.41522489065959,432.5,1.0]},{"name":"Yew tree","children":[17],"extras":{"veldrenEntityKey":"overworld:object:912"}},{"mesh":5,"matrix":[0.18480632619690093,0.0,-0.7847490837720718,0.0,0.0,0.8062161637448739,0.0,0.0,0.7847490837720718,0.0,0.18480632619690093,0.0,550.5,0.9547509990849972,474.5,1.0]},{"name":"Magic tree","children":[19],"extras":{"veldrenEntityKey":"overworld:object:913"}},{"mesh":6,"matrix":[-1.1603194168320095,0.0,0.788582528639026,0.0,0.0,1.4029267812512864,0.0,0.0,-0.788582528639026,0.0,-1.1603194168320095,0.0,561.5,2.7819188565942867,474.5,1.0]},{"name":"Maple tree","children":[21],"extras":{"veldrenEntityKey":"overworld:object:914"}},{"mesh":7,"matrix":[0.7196063407666872,0.0,0.10557447873488034,0.0,0.0,0.7273096013609082,0.0,0.0,-0.10557447873488034,0.0,0.7196063407666872,0.0,582.5,4.868133640607066,474.5,1.0]},{"name":"Yew tree","children":[23],"extras":{"veldrenEntityKey":"overworld:object:942"}},{"mesh":5,"matrix":[-0.3991326391004275,0.0,0.700483860690758,0.0,0.0,0.8062161637448739,0.0,0.0,-0.700483860690758,0.0,-0.3991326391004275,0.0,519.5,3.5394018224458907,495.5,1.0]},{"name":"Maple tree","children":[25],"extras":{"veldrenEntityKey":"overworld:object:943"}},{"mesh":7,"matrix":[0.6659395258507256,0.0,-0.21353127596747162,0.0,0.0,0.6993361551547194,0.0,0.0,0.21353127596747162,0.0,0.6659395258507256,0.0,540.5,4.456274190474692,495.5,1.0]},{"name":"Yew tree","children":[27],"extras":{"veldrenEntityKey":"overworld:object:944"}},{"mesh":5,"matrix":[-0.7930507497243813,0.0,-0.36592286449603556,0.0,0.0,0.8734008440569468,0.0,0.0,0.36592286449603556,0.0,-0.7930507497243813,0.0,561.5,6.268716382342088,495.5,1.0]},{"name":"Yew tree","children":[29],"extras":{"veldrenEntityKey":"overworld:object:945"}},{"mesh":5,"matrix":[0.31090850084613963,0.0,0.7438550979761498,0.0,0.0,0.8062161637448739,0.0,0.0,-0.7438550979761498,0.0,0.31090850084613963,0.0,624.5,8.427384528051348,495.5,1.0]},{"name":"Silverwood tree","children":[31],"extras":{"veldrenEntityKey":"overworld:object:6807797"}},{"mesh":3,"matrix":[-0.6687131603457694,0.0,-0.4165532120394899,0.0,0.0,0.7878412716277581,0.0,0.0,0.4165532120394899,0.0,-0.6687131603457694,0.0,564.5,5.421609161311088,481.5,1.0]},{"name":"Silverwood tree","children":[33],"extras":{"veldrenEntityKey":"overworld:object:6807930"}},{"mesh":3,"matrix":[0.2573812086662355,0.0,-0.6801692164377684,0.0,0.0,0.7272380968871612,0.0,0.0,0.6801692164377684,0.0,0.2573812086662355,0.0,521.5,1.3867151879274762,488.5,1.0]},{"name":"Silverwood tree","children":[35],"extras":{"veldrenEntityKey":"overworld:object:6807931"}},{"mesh":3,"matrix":[-0.6766124211038804,0.0,0.3406787413867159,0.0,0.0,0.7575396842574597,0.0,0.0,-0.3406787413867159,0.0,-0.6766124211038804,0.0,533.5,1.8065360091077913,487.5,1.0]},{"name":"Silverwood tree","children":[37],"extras":{"veldrenEntityKey":"overworld:object:6807933"}},{"mesh":3,"matrix":[-0.3813943598890479,0.0,-0.6192039985407745,0.0,0.0,0.7272380968871612,0.0,0.0,0.6192039985407745,0.0,-0.3813943598890479,0.0,545.5,1.8068745687434797,487.5,1.0]},{"name":"Silverwood tree","children":[39],"extras":{"veldrenEntityKey":"overworld:object:6807934"}},{"mesh":3,"matrix":[-0.14346442258337966,0.0,0.7438308495065993,0.0,0.0,0.7575396842574597,0.0,0.0,-0.7438308495065993,0.0,-0.14346442258337966,0.0,559.5,5.368767209107793,488.5,1.0]},{"name":"Silverwood tree","children":[41],"extras":{"veldrenEntityKey":"overworld:object:6807936"}},{"mesh":3,"matrix":[-0.7232388402965395,0.0,-0.07616317647378383,0.0,0.0,0.7272380968871612,0.0,0.0,0.07616317647378383,0.0,-0.7232388402965395,0.0,571.5,8.16784334303309,487.5,1.0]},{"name":"Silverwood tree","children":[43],"extras":{"veldrenEntityKey":"overworld:object:6808069"}},{"mesh":3,"matrix":[-0.06840638710228837,0.0,-0.7544447888536997,0.0,0.0,0.7575396842574597,0.0,0.0,0.7544447888536997,0.0,-0.06840638710228837,0.0,534.5,3.7865360091077913,493.5,1.0]},{"name":"Silverwood tree","children":[45],"extras":{"veldrenEntityKey":"overworld:object:6808071"}},{"mesh":3,"matrix":[0.7159992303621031,0.0,-0.12735914448886698,0.0,0.0,0.7272380968871612,0.0,0.0,0.12735914448886698,0.0,0.7159992303621031,0.0,546.5,3.45687456874348,492.5,1.0]},{"name":"Silverwood tree","children":[47],"extras":{"veldrenEntityKey":"overworld:object:6808074"}},{"mesh":3,"matrix":[0.3364339383444859,0.0,-0.644738283874999,0.0,0.0,0.7272380968871612,0.0,0.0,0.644738283874999,0.0,0.3364339383444859,0.0,573.5,10.155874568743481,493.5,1.0]},{"name":"Silverwood tree","children":[49],"extras":{"veldrenEntityKey":"overworld:object:6808076"}},{"mesh":3,"matrix":[0.7270729762442633,0.0,0.303411859516651,0.0,0.0,0.7878412716277581,0.0,0.0,-0.303411859516651,0.0,0.7270729762442633,0.0,585.5,12.625412938866514,497.5,1.0]},{"name":"Silverwood tree","children":[51],"extras":{"veldrenEntityKey":"overworld:object:6808082"}},{"mesh":3,"matrix":[0.10876955404569774,0.0,-0.7802967726402199,0.0,0.0,0.7878412716277581,0.0,0.0,0.7802967726402199,0.0,0.10876955404569774,0.0,638.5,6.557648408807238,497.5,1.0]},{"name":"Silverwood tree","children":[53],"extras":{"veldrenEntityKey":"overworld:object:6808206"}},{"mesh":3,"matrix":[-0.6526118407472205,0.0,0.3208941178653555,0.0,0.0,0.7272380968871612,0.0,0.0,-0.3208941178653555,0.0,-0.6526118407472205,0.0,522.5,6.8012265249441946,504.5,1.0]},{"name":"Silverwood tree","children":[55],"extras":{"veldrenEntityKey":"overworld:object:6808207"}},{"mesh":3,"matrix":[0.7268536381763885,0.0,0.21342483898234377,0.0,0.0,0.7575396842574597,0.0,0.0,-0.21342483898234377,0.0,0.7268536381763885,0.0,535.5,7.0865360091077925,503.5,1.0]},{"name":"Silverwood tree","children":[57],"extras":{"veldrenEntityKey":"overworld:object:6808209"}},{"mesh":3,"matrix":[-0.14447279820440606,0.0,0.7127431936841271,0.0,0.0,0.7272380968871612,0.0,0.0,-0.7127431936841271,0.0,-0.14447279820440606,0.0,548.5,7.416874568743481,504.5,1.0]},{"name":"Silverwood tree","children":[59],"extras":{"veldrenEntityKey":"overworld:object:6808210"}},{"mesh":3,"matrix":[0.6129091772267339,0.0,-0.44520637203002805,0.0,0.0,0.7575396842574597,0.0,0.0,0.44520637203002805,0.0,0.6129091772267339,0.0,558.5,7.0865360091077925,503.5,1.0]},{"name":"Silverwood tree","children":[61],"extras":{"veldrenEntityKey":"overworld:object:6808212"}},{"mesh":3,"matrix":[0.4761442180034404,0.0,0.5496925806539072,0.0,0.0,0.7272380968871612,0.0,0.0,-0.5496925806539072,0.0,0.4761442180034404,0.0,575.5,10.815874568743478,503.5,1.0]},{"name":"Silverwood tree","children":[63],"extras":{"veldrenEntityKey":"overworld:object:6808215"}},{"mesh":3,"matrix":[0.7260635127392441,0.0,-0.04131615946345523,0.0,0.0,0.7272380968871612,0.0,0.0,0.04131615946345523,0.0,0.7260635127392441,0.0,599.5,14.157007235254792,503.5,1.0]},{"name":"Silverwood tree","children":[65],"extras":{"veldrenEntityKey":"overworld:object:6808217"}},{"mesh":3,"matrix":[0.11185197799338766,0.0,0.7798608877864113,0.0,0.0,0.7878412716277581,0.0,0.0,-0.7798608877864113,0.0,0.11185197799338766,0.0,613.5,11.557734638200563,499.5,1.0]},{"name":"Silverwood tree","children":[67],"extras":{"veldrenEntityKey":"overworld:object:6808218"}},{"mesh":3,"matrix":[0.41071270525909787,0.0,-0.6001585817955231,0.0,0.0,0.7272380968871612,0.0,0.0,0.6001585817955231,0.0,0.41071270525909787,0.0,621.5,11.531670385221004,503.5,1.0]},{"name":"Silverwood tree","children":[69],"extras":{"veldrenEntityKey":"overworld:object:6808345"}},{"mesh":3,"matrix":[-0.46543281384656604,0.0,0.5976944612590612,0.0,0.0,0.7575396842574597,0.0,0.0,-0.5976944612590612,0.0,-0.46543281384656604,0.0,535.5,9.066536009107791,509.5,1.0]},{"name":"Silverwood tree","children":[71],"extras":{"veldrenEntityKey":"overworld:object:6808348"}},{"mesh":3,"matrix":[0.18902434358625095,0.0,0.7335776514839303,0.0,0.0,0.7575396842574597,0.0,0.0,-0.7335776514839303,0.0,0.18902434358625095,0.0,556.5,9.066536009107791,509.5,1.0]},{"name":"Silverwood tree","children":[73],"extras":{"veldrenEntityKey":"overworld:object:6808350"}},{"mesh":3,"matrix":[-0.6861390727315192,0.0,0.2410153987511817,0.0,0.0,0.7272380968871612,0.0,0.0,-0.2410153987511817,0.0,-0.6861390727315192,0.0,575.5,10.815874568743478,508.5,1.0]},{"name":"Silverwood tree","children":[75],"extras":{"veldrenEntityKey":"overworld:object:6808353"}},{"mesh":3,"matrix":[-0.2281999747518203,0.0,0.6905070753347345,0.0,0.0,0.7272380968871612,0.0,0.0,-0.6905070753347345,0.0,-0.2281999747518203,0.0,598.5,13.842796816762004,509.5,1.0]},{"name":"Silverwood tree","children":[77],"extras":{"veldrenEntityKey":"overworld:object:6808356"}},{"mesh":3,"matrix":[0.4074021237445646,0.0,0.6024107893559665,0.0,0.0,0.7272380968871612,0.0,0.0,-0.6024107893559665,0.0,0.4074021237445646,0.0,619.5,11.638777351140195,509.5,1.0]},{"name":"Silverwood tree","children":[79],"extras":{"veldrenEntityKey":"overworld:object:6808357"}},{"mesh":3,"matrix":[0.11167696622771094,0.0,-0.749262723241365,0.0,0.0,0.7575396842574597,0.0,0.0,0.749262723241365,0.0,0.11167696622771094,0.0,627.5,10.817001537138916,508.5,1.0]},{"name":"Yew tree","children":[81],"extras":{"veldrenEntityKey":"overworld:object:9115784"}},{"mesh":5,"matrix":[0.37715353036848137,0.0,-0.7877716984824843,0.0,0.0,0.8734008440569468,0.0,0.0,0.7877716984824843,0.0,0.37715353036848137,0.0,518.5,12.312656337116582,387.5,1.0]},{"name":"Maple tree","children":[83],"extras":{"veldrenEntityKey":"overworld:object:9116746"}},{"mesh":7,"matrix":[-0.6952377570301824,0.0,-0.07560105228253565,0.0,0.0,0.6993361551547194,0.0,0.0,0.07560105228253565,0.0,-0.6952377570301824,0.0,516.5,12.311858422123834,400.5,1.0]},{"name":"Yew tree","children":[85],"extras":{"veldrenEntityKey":"overworld:object:9116751"}},{"mesh":5,"matrix":[-0.6270506858036367,0.0,-0.506746425854875,0.0,0.0,0.8062161637448739,0.0,0.0,0.506746425854875,0.0,-0.6270506858036367,0.0,515.5,12.158191444503412,394.5,1.0]},{"name":"Oak tree","children":[87],"extras":{"veldrenEntityKey":"overworld:object:9117707"}},{"mesh":8,"matrix":[-0.8242651475690873,0.0,-0.5618837090916583,0.0,0.0,0.9975601916875435,0.0,0.0,0.5618837090916583,0.0,-0.8242651475690873,0.0,512.5,10.937478818677608,440.5,1.0]},{"name":"Willow tree","children":[89],"extras":{"veldrenEntityKey":"overworld:object:9117761"}},{"mesh":4,"matrix":[0.8996750908955986,0.0,-0.12896635662948588,0.0,0.0,0.9088716027692181,0.0,0.0,0.12896635662948588,0.0,0.8996750908955986,0.0,569.5,0.665283735104036,432.5,1.0]},{"name":"Willow tree","children":[91],"extras":{"veldrenEntityKey":"overworld:object:9117763"}},{"mesh":4,"matrix":[0.19752123377774886,0.0,0.8513006484702568,0.0,0.0,0.8739150026627096,0.0,0.0,-0.8513006484702568,0.0,0.19752123377774886,0.0,575.5,1.7813583605254275,427.5,1.0]},{"name":"Oak tree","children":[93],"extras":{"veldrenEntityKey":"overworld:object:9117780"}},{"mesh":8,"matrix":[-0.1560453050426343,0.0,-0.9075065624766282,0.0,0.0,0.9208247923269633,0.0,0.0,0.9075065624766282,0.0,-0.1560453050426343,0.0,594.5,3.687080056109638,438.5,1.0]},{"name":"Yew tree","children":[95],"extras":{"veldrenEntityKey":"overworld:object:9117782"}},{"mesh":5,"matrix":[0.8449603529991817,0.0,-0.22106794489225587,0.0,0.0,0.8734008440569468,0.0,0.0,0.22106794489225587,0.0,0.8449603529991817,0.0,588.5,3.300763908812341,439.5,1.0]},{"name":"Tree","children":[97],"extras":{"veldrenEntityKey":"overworld:object:9117783"}},{"mesh":3,"matrix":[-0.6427929258165217,0.0,-0.3401360082147958,0.0,0.0,0.7272380968871612,0.0,0.0,0.3401360082147958,0.0,-0.6427929258165217,0.0,601.5,5.0174050228435405,435.5,1.0]},{"name":"Willow tree","children":[99],"extras":{"veldrenEntityKey":"overworld:object:9118680"}},{"mesh":4,"matrix":[0.7042002169658154,0.0,0.4560189202708059,0.0,0.0,0.8389584025562012,0.0,0.0,-0.4560189202708059,0.0,0.7042002169658154,0.0,537.5,1.6364899226146625,454.5,1.0]},{"name":"Tree","children":[101],"extras":{"veldrenEntityKey":"overworld:object:9118682"}},{"mesh":3,"matrix":[-0.3701207517641269,0.0,0.6954886759635993,0.0,0.0,0.7878412716277581,0.0,0.0,-0.6954886759635993,0.0,-0.3701207517641269,0.0,530.5,4.4296112095368345,451.5,1.0]},{"name":"Willow tree","children":[103],"extras":{"veldrenEntityKey":"overworld:object:9118684"}},{"mesh":4,"matrix":[-0.8037525326588558,0.0,-0.3430878868794972,0.0,0.0,0.8739150026627096,0.0,0.0,0.3430878868794972,0.0,-0.8037525326588558,0.0,531.5,0.883965115401549,462.5,1.0]},{"name":"Yew tree","children":[105],"extras":{"veldrenEntityKey":"overworld:object:9118685"}},{"mesh":5,"matrix":[0.3599308687253826,0.0,0.7957881653668761,0.0,0.0,0.8734008440569468,0.0,0.0,-0.7957881653668761,0.0,0.3599308687253826,0.0,536.5,3.380152365023908,446.5,1.0]},{"name":"Oak tree","children":[107],"extras":{"veldrenEntityKey":"overworld:object:9118687"}},{"mesh":8,"matrix":[-0.8369558778738986,0.0,0.468567065867221,0.0,0.0,0.9591924920072534,0.0,0.0,-0.468567065867221,0.0,-0.8369558778738986,0.0,527.5,4.003449678926094,455.5,1.0]},{"name":"Tree","children":[109],"extras":{"veldrenEntityKey":"overworld:object:9118690"}},{"mesh":3,"matrix":[-0.11066541153760177,0.0,0.7494127967376223,0.0,0.0,0.7575396842574597,0.0,0.0,-0.7494127967376223,0.0,-0.11066541153760177,0.0,529.5,5.7923182497809345,445.5,1.0]},{"name":"Yew tree","children":[111],"extras":{"veldrenEntityKey":"overworld:object:9119680"}},{"mesh":5,"matrix":[-0.15089259300672392,0.0,0.8261414821929671,0.0,0.0,0.8398085039009104,0.0,0.0,-0.8261414821929671,0.0,-0.15089259300672392,0.0,573.5,6.133397549183348,480.5,1.0]},{"name":"Magic tree","children":[113],"extras":{"veldrenEntityKey":"overworld:object:9119681"}},{"mesh":6,"matrix":[1.163683123035417,0.0,-0.8801423479667844,0.0,0.0,1.4590438525013378,0.0,0.0,0.8801423479667844,0.0,1.163683123035417,0.0,576.5,4.383026851441964,474.5,1.0]},{"name":"Willow tree","children":[115],"extras":{"veldrenEntityKey":"overworld:object:9119686"}},{"mesh":4,"matrix":[0.8713805927952907,0.0,-0.06650785200780046,0.0,0.0,0.8739150026627096,0.0,0.0,0.06650785200780046,0.0,0.8713805927952907,0.0,572.5,2.6708029913355937,470.5,1.0]},{"name":"Magic tree","children":[117],"extras":{"veldrenEntityKey":"overworld:object:9119687"}},{"mesh":6,"matrix":[-1.1468704075944756,0.0,-0.9019408138597717,0.0,0.0,1.4590438525013378,0.0,0.0,0.9019408138597717,0.0,-1.1468704075944756,0.0,582.5,9.158821963029839,487.5,1.0]},{"name":"Maple tree","children":[119],"extras":{"veldrenEntityKey":"overworld:object:9119700"}},{"mesh":7,"matrix":[-0.41977073961696465,0.0,-0.5239469564069781,0.0,0.0,0.6713627089485306,0.0,0.0,0.5239469564069781,0.0,-0.41977073961696465,0.0,605.5,8.712431477500514,487.5,1.0]},{"name":"Yew tree","children":[121],"extras":{"veldrenEntityKey":"overworld:object:9119701"}},{"mesh":5,"matrix":[-0.05634115205461129,0.0,0.8379164623096056,0.0,0.0,0.8398085039009104,0.0,0.0,-0.8379164623096056,0.0,-0.05634115205461129,0.0,611.5,7.315169269238781,485.5,1.0]},{"name":"Magic tree","children":[123],"extras":{"veldrenEntityKey":"overworld:object:9119702"}},{"mesh":6,"matrix":[1.0564962707850907,0.0,-1.006292498898378,0.0,0.0,1.4590438525013378,0.0,0.0,1.006292498898378,0.0,1.0564962707850907,0.0,603.5,11.238506915731106,494.5,1.0]},{"name":"Maple tree","children":[125],"extras":{"veldrenEntityKey":"overworld:object:9119703"}},{"mesh":7,"matrix":[-0.6712481665834721,0.0,0.01240104128839988,0.0,0.0,0.6713627089485306,0.0,0.0,-0.01240104128839988,0.0,-0.6712481665834721,0.0,604.5,6.513692817547317,480.5,1.0]},{"name":"Yew tree","children":[127],"extras":{"veldrenEntityKey":"overworld:object:9119704"}},{"mesh":5,"matrix":[0.6290859280419938,0.0,0.5563535012596117,0.0,0.0,0.8398085039009104,0.0,0.0,-0.5563535012596117,0.0,0.6290859280419938,0.0,613.5,8.988764479442006,491.5,1.0]},{"name":"Magic tree","children":[129],"extras":{"veldrenEntityKey":"overworld:object:9119705"}},{"mesh":6,"matrix":[-0.15158836907060358,0.0,-1.4511477973950344,0.0,0.0,1.4590438525013378,0.0,0.0,1.4511477973950344,0.0,-0.15158836907060358,0.0,598.5,10.318423553704585,490.5,1.0]},{"name":"Maple tree","children":[131],"extras":{"veldrenEntityKey":"overworld:object:9119706"}},{"mesh":7,"matrix":[-0.40013147736116933,0.0,0.539094321794876,0.0,0.0,0.6713627089485306,0.0,0.0,-0.539094321794876,0.0,-0.40013147736116933,0.0,612.5,5.123021041469026,479.5,1.0]},{"name":"Magic tree","children":[133],"extras":{"veldrenEntityKey":"overworld:object:9119708"}},{"mesh":6,"matrix":[-1.2416552688135991,0.0,-0.7662252651468592,0.0,0.0,1.4590438525013378,0.0,0.0,0.7662252651468592,0.0,-1.2416552688135991,0.0,597.5,7.072341467098172,480.5,1.0]},{"name":"Yew tree","children":[135],"extras":{"veldrenEntityKey":"overworld:object:9119710"}},{"mesh":5,"matrix":[0.3783050808408676,0.0,-0.7497756924802711,0.0,0.0,0.8398085039009104,0.0,0.0,0.7497756924802711,0.0,0.3783050808408676,0.0,597.5,12.742555277295265,497.5,1.0]},{"name":"Willow tree","children":[137],"extras":{"veldrenEntityKey":"overworld:object:9119720"}},{"mesh":4,"matrix":[0.9081722477500933,0.0,0.0356477031073601,0.0,0.0,0.9088716027692181,0.0,0.0,-0.0356477031073601,0.0,0.9081722477500933,0.0,622.5,2.1244839422474473,475.5,1.0]},{"name":"Willow tree","children":[139],"extras":{"veldrenEntityKey":"overworld:object:9119721"}},{"mesh":4,"matrix":[-0.5953493089216494,0.0,-0.5911094666693872,0.0,0.0,0.8389584025562012,0.0,0.0,0.5911094666693872,0.0,-0.5953493089216494,0.0,627.5,2.552595061839737,479.5,1.0]},{"name":"Yew tree","children":[141],"extras":{"veldrenEntityKey":"overworld:object:9119724"}},{"mesh":5,"matrix":[-0.7992036577553406,0.0,0.10610379877264428,0.0,0.0,0.8062161637448739,0.0,0.0,-0.10610379877264428,0.0,-0.7992036577553406,0.0,623.5,4.645506561773544,483.5,1.0]},{"name":"Willow tree","children":[143],"extras":{"veldrenEntityKey":"overworld:object:9119725"}},{"mesh":4,"matrix":[0.7160008777813512,0.0,0.5010690320657407,0.0,0.0,0.8739150026627096,0.0,0.0,-0.5010690320657407,0.0,0.7160008777813512,0.0,617.5,1.343052309797576,470.5,1.0]},{"name":"Maple tree","children":[145],"extras":{"veldrenEntityKey":"overworld:object:9119729"}},{"mesh":7,"matrix":[-0.6582263367211213,0.0,-0.30938220032583674,0.0,0.0,0.7273096013609082,0.0,0.0,0.30938220032583674,0.0,-0.6582263367211213,0.0,630.5,4.327697334767947,486.5,1.0]},{"name":"Yew tree","children":[147],"extras":{"veldrenEntityKey":"overworld:object:9120587"}},{"mesh":5,"matrix":[0.8623241337238896,0.0,-0.13865829508807062,0.0,0.0,0.8734008440569468,0.0,0.0,0.13865829508807062,0.0,0.8623241337238896,0.0,514.5,5.9752690928542265,504.5,1.0]},{"name":"Yew tree","children":[149],"extras":{"veldrenEntityKey":"overworld:object:9120601"}},{"mesh":5,"matrix":[-0.5777754151083632,0.0,-0.6094701739385153,0.0,0.0,0.8398085039009104,0.0,0.0,0.6094701739385153,0.0,-0.5777754151083632,0.0,530.5,7.157227290713546,503.5,1.0]},{"name":"Magic tree","children":[151],"extras":{"veldrenEntityKey":"overworld:object:9120602"}},{"mesh":6,"matrix":[0.02351265073438348,0.0,1.4588543857347067,0.0,0.0,1.4590438525013378,0.0,0.0,-1.4588543857347067,0.0,0.02351265073438348,0.0,528.5,3.7970134805164517,493.5,1.0]},{"name":"Maple tree","children":[153],"extras":{"veldrenEntityKey":"overworld:object:9120609"}},{"mesh":7,"matrix":[-0.5986739701995045,0.0,-0.30383772703907624,0.0,0.0,0.6713627089485306,0.0,0.0,0.30383772703907624,0.0,-0.5986739701995045,0.0,525.5,8.614529764073037,508.5,1.0]},{"name":"Willow tree","children":[155],"extras":{"veldrenEntityKey":"overworld:object:9120610"}},{"mesh":4,"matrix":[0.3066795582809294,0.0,0.818336776890528,0.0,0.0,0.8739150026627096,0.0,0.0,-0.818336776890528,0.0,0.3066795582809294,0.0,529.5,1.1562060027036745,485.5,1.0]},{"name":"Magic tree","children":[157],"extras":{"veldrenEntityKey":"overworld:object:9120611"}},{"mesh":6,"matrix":[0.5466490624152269,0.0,-1.3527689256049975,0.0,0.0,1.4590438525013378,0.0,0.0,1.3527689256049975,0.0,0.5466490624152269,0.0,542.5,8.087013480516452,506.5,1.0]},{"name":"Magic tree","children":[159],"extras":{"veldrenEntityKey":"overworld:object:9120624"}},{"mesh":6,"matrix":[0.7748068791818719,0.0,-1.1016218475166781,0.0,0.0,1.346809710001235,0.0,0.0,1.1016218475166781,0.0,0.7748068791818719,0.0,547.5,9.406858597399802,510.5,1.0]},{"name":"Magic tree","children":[161],"extras":{"veldrenEntityKey":"overworld:object:9120630"}},{"mesh":6,"matrix":[-1.2623033574465221,0.0,-0.46956003741039215,0.0,0.0,1.346809710001235,0.0,0.0,0.46956003741039215,0.0,-1.2623033574465221,0.0,556.5,5.446858597399802,498.5,1.0]},{"name":"Magic tree","children":[163],"extras":{"veldrenEntityKey":"overworld:object:9120640"}},{"mesh":6,"matrix":[-0.10082392187915616,0.0,-1.3992991425456534,0.0,0.0,1.4029267812512864,0.0,0.0,1.3992991425456534,0.0,-0.10082392187915616,0.0,570.5,9.175936038958126,505.5,1.0]},{"name":"Yew tree","children":[165],"extras":{"veldrenEntityKey":"overworld:object:9120645"}},{"mesh":5,"matrix":[0.3861255919122454,0.0,-0.7077369072995413,0.0,0.0,0.8062161637448739,0.0,0.0,0.7077369072995413,0.0,0.3861255919122454,0.0,564.5,7.484738199085005,504.5,1.0]},{"name":"Magic tree","children":[167],"extras":{"veldrenEntityKey":"overworld:object:9120646"}},{"mesh":6,"matrix":[-1.327789967582228,0.0,0.4529650709934276,0.0,0.0,1.4029267812512864,0.0,0.0,-0.4529650709934276,0.0,-1.327789967582228,0.0,581.5,12.805936038958125,505.5,1.0]},{"name":"Yew tree","children":[169],"extras":{"veldrenEntityKey":"overworld:object:9120648"}},{"mesh":5,"matrix":[-0.3245955366578256,0.0,-0.7379852574850798,0.0,0.0,0.8062161637448739,0.0,0.0,0.7379852574850798,0.0,-0.3245955366578256,0.0,570.5,9.233738199085003,497.5,1.0]},{"name":"Yew tree","children":[171],"extras":{"veldrenEntityKey":"overworld:object:9120651"}},{"mesh":5,"matrix":[-0.7826057811715234,0.0,-0.19368194020199989,0.0,0.0,0.8062161637448739,0.0,0.0,0.19368194020199989,0.0,-0.7826057811715234,0.0,580.5,12.533738199085004,498.5,1.0]},{"name":"Yew tree","children":[173],"extras":{"veldrenEntityKey":"overworld:object:9120663"}},{"mesh":5,"matrix":[0.7767798502782516,0.0,-0.215864695782331,0.0,0.0,0.8062161637448739,0.0,0.0,0.215864695782331,0.0,0.7767798502782516,0.0,592.5,11.549085963432349,493.5,1.0]},{"name":"Maple tree","children":[175],"extras":{"veldrenEntityKey":"overworld:object:9120665"}},{"mesh":7,"matrix":[0.2539432631947317,0.0,0.6815365546394224,0.0,0.0,0.7273096013609082,0.0,0.0,-0.6815365546394224,0.0,0.2539432631947317,0.0,594.5,14.550124537737402,504.5,1.0]},{"name":"Magic tree","children":[177],"extras":{"veldrenEntityKey":"overworld:object:9120667"}},{"mesh":6,"matrix":[-1.2679349261104607,0.0,0.6004536424249217,0.0,0.0,1.4029267812512864,0.0,0.0,-0.6004536424249217,0.0,-1.2679349261104607,0.0,607.5,13.337975120945325,502.5,1.0]}],"buffers":[{"uri":"../world-parts/945c10e33683e4b3baa7557ff260c79730a9992e0e5a23b5d9307a2c40355ae1.bin","byteLength":50868},{"uri":"../world-parts/d3a49cf40a43bca59e27ca2096fab65e613b5d5993f180ce0def51f1fdd95647.bin","byteLength":33588},{"uri":"../world-parts/190836a5a05cd2db9b1c8844f8432f41f0403d878d66602a954f80a27c694e5e.bin","byteLength":18216},{"uri":"../world-parts/8480a643e36c0194bf11e79cbc019e38e5ff72b8bc295b144212e5f7a5b37347.bin","byteLength":64668},{"uri":"../world-parts/629e78b439d8b314fb62411e16a47eeeaf0f6f78bb3f3150468167c9e9d3eef3.bin","byteLength":92004},{"uri":"../world-parts/7e2e11a73c6c1f6b77c7c18c44a87655900818e94c168e7a92bb0a48cc87a1c1.bin","byteLength":46872},{"uri":"../world-parts/883bf022a4c95c0b0a24ce14e7511dc7b18eb62759134961097aa30193af8da4.bin","byteLength":86364},{"uri":"../world-parts/133dae8ce562dbc4cbf0d0d2cb7dc4cb2baafed83b6c58ebd4446a3657088e0f.bin","byteLength":180744},{"uri":"../world-parts/cf73d73e4a52b629e942c4cf3ba67a960257f3fda86af0eadf8051aa3c1f7c97.bin","byteLength":133656}],"bufferViews":[{"buffer":0,"byteOffset":0,"byteLength":6372,"target":34962},{"buffer":0,"byteOffset":6372,"byteLength":6372,"target":34962},{"buffer":0,"byteOffset":12744,"byteLength":4248,"target":34962},{"buffer":0,"byteOffset":16992,"byteLength":6372,"target":34962},{"buffer":0,"byteOffset":23364,"byteLength":6372,"target":34962},{"buffer":0,"byteOffset":29736,"byteLength":6372,"target":34962},{"buffer":0,"byteOffset":36108,"byteLength":6372,"target":34962},{"buffer":0,"byteOffset":42480,"byteLength":2124,"target":34962},{"buffer":0,"byteOffset":44604,"byteLength":6264,"target":34963},{"buffer":1,"byteOffset":0,"byteLength":4212,"target":34962},{"buffer":1,"byteOffset":4212,"byteLength":4212,"target":34962},{"buffer":1,"byteOffset":8424,"byteLength":2808,"target":34962},{"buffer":1,"byteOffset":11232,"byteLength":4212,"target":34962},{"buffer":1,"byteOffset":15444,"byteLength":4212,"target":34962},{"buffer":1,"byteOffset":19656,"byteLength":4212,"target":34962},{"buffer":1,"byteOffset":23868,"byteLength":4212,"target":34962},{"buffer":1,"byteOffset":28080,"byteLength":1404,"target":34962},{"buffer":1,"byteOffset":29484,"byteLength":4104,"target":34963},{"buffer":2,"byteOffset":0,"byteLength":2484,"target":34962},{"buffer":2,"byteOffset":2484,"byteLength":2484,"target":34962},{"buffer":2,"byteOffset":4968,"byteLength":1656,"target":34962},{"buffer":2,"byteOffset":6624,"byteLength":2484,"target":34962},{"buffer":2,"byteOffset":9108,"byteLength":2484,"target":34962},{"buffer":2,"byteOffset":11592,"byteLength":2484,"target":34962},{"buffer":2,"byteOffset":14076,"byteLength":2484,"target":34962},{"buffer":2,"byteOffset":16560,"byteLength":828,"target":34962},{"buffer":2,"byteOffset":17388,"byteLength":828,"target":34963},{"buffer":3,"byteOffset":0,"byteLength":7860,"target":34962},{"buffer":3,"byteOffset":7860,"byteLength":7860,"target":34962},{"buffer":3,"byteOffset":15720,"byteLength":5240,"target":34962},{"buffer":3,"byteOffset":20960,"byteLength":7860,"target":34962},{"buffer":3,"byteOffset":28820,"byteLength":7860,"target":34962},{"buffer":3,"byteOffset":36680,"byteLength":7860,"target":34962},{"buffer":3,"byteOffset":44540,"byteLength":7860,"target":34962},{"buffer":3,"byteOffset":52400,"byteLength":2620,"target":34962},{"buffer":3,"byteOffset":55020,"byteLength":5328,"target":34963},{"buffer":3,"byteOffset":60348,"byteLength":4320,"target":34963},{"buffer":4,"byteOffset":0,"byteLength":10956,"target":34962},{"buffer":4,"byteOffset":10956,"byteLength":10956,"target":34962},{"buffer":4,"byteOffset":21912,"byteLength":7304,"target":34962},{"buffer":4,"byteOffset":29216,"byteLength":10956,"target":34962},{"buffer":4,"byteOffset":40172,"byteLength":10956,"target":34962},{"buffer":4,"byteOffset":51128,"byteLength":10956,"target":34962},{"buffer":4,"byteOffset":62084,"byteLength":10956,"target":34962},{"buffer":4,"byteOffset":73040,"byteLength":3652,"target":34962},{"buffer":4,"byteOffset":76692,"byteLength":8112,"target":34963},{"buffer":4,"byteOffset":84804,"byteLength":7200,"target":34963},{"buffer":5,"byteOffset":0,"byteLength":5784,"target":34962},{"buffer":5,"byteOffset":5784,"byteLength":5784,"target":34962},{"buffer":5,"byteOffset":11568,"byteLength":3856,"target":34962},{"buffer":5,"byteOffset":15424,"byteLength":5784,"target":34962},{"buffer":5,"byteOffset":21208,"byteLength":5784,"target":34962},{"buffer":5,"byteOffset":26992,"byteLength":5784,"target":34962},{"buffer":5,"byteOffset":32776,"byteLength":5784,"target":34962},{"buffer":5,"byteOffset":38560,"byteLength":1928,"target":34962},{"buffer":5,"byteOffset":40488,"byteLength":1776,"target":34963},{"buffer":5,"byteOffset":42264,"byteLength":4608,"target":34963},{"buffer":6,"byteOffset":0,"byteLength":10260,"target":34962},{"buffer":6,"byteOffset":10260,"byteLength":10260,"target":34962},{"buffer":6,"byteOffset":20520,"byteLength":6840,"target":34962},{"buffer":6,"byteOffset":27360,"byteLength":10260,"target":34962},{"buffer":6,"byteOffset":37620,"byteLength":10260,"target":34962},{"buffer":6,"byteOffset":47880,"byteLength":10260,"target":34962},{"buffer":6,"byteOffset":58140,"byteLength":10260,"target":34962},{"buffer":6,"byteOffset":68400,"byteLength":3420,"target":34962},{"buffer":6,"byteOffset":71820,"byteLength":9072,"target":34963},{"buffer":6,"byteOffset":80892,"byteLength":5472,"target":34963},{"buffer":7,"byteOffset":0,"byteLength":21552,"target":34962},{"buffer":7,"byteOffset":21552,"byteLength":21552,"target":34962},{"buffer":7,"byteOffset":43104,"byteLength":14368,"target":34962},{"buffer":7,"byteOffset":57472,"byteLength":21552,"target":34962},{"buffer":7,"byteOffset":79024,"byteLength":21552,"target":34962},{"buffer":7,"byteOffset":100576,"byteLength":21552,"target":34962},{"buffer":7,"byteOffset":122128,"byteLength":21552,"target":34962},{"buffer":7,"byteOffset":143680,"byteLength":7184,"target":34962},{"buffer":7,"byteOffset":150864,"byteLength":17496,"target":34963},{"buffer":7,"byteOffset":168360,"byteLength":12384,"target":34963},{"buffer":8,"byteOffset":0,"byteLength":15912,"target":34962},{"buffer":8,"byteOffset":15912,"byteLength":15912,"target":34962},{"buffer":8,"byteOffset":31824,"byteLength":10608,"target":34962},{"buffer":8,"byteOffset":42432,"byteLength":15912,"target":34962},{"buffer":8,"byteOffset":58344,"byteLength":15912,"target":34962},{"buffer":8,"byteOffset":74256,"byteLength":15912,"target":34962},{"buffer":8,"byteOffset":90168,"byteLength":15912,"target":34962},{"buffer":8,"byteOffset":106080,"byteLength":5304,"target":34962},{"buffer":8,"byteOffset":111384,"byteLength":10464,"target":34963},{"buffer":8,"byteOffset":121848,"byteLength":11808,"target":34963}],"accessors":[{"bufferView":0,"componentType":5126,"count":531,"type":"VEC3","min":[-1.8242793083190918,-0.31564441323280334,-0.8904620409011841],"max":[1.5958054065704346,2.000638246536255,2.5856480598449707]},{"bufferView":1,"componentType":5126,"count":531,"type":"VEC3"},{"bufferView":2,"componentType":5126,"count":531,"type":"VEC2"},{"bufferView":3,"componentType":5126,"count":531,"type":"VEC3"},{"bufferView":4,"componentType":5126,"count":531,"type":"VEC3"},{"bufferView":5,"componentType":5126,"count":531,"type":"VEC3"},{"bufferView":6,"componentType":5126,"count":531,"type":"VEC3"},{"bufferView":7,"componentType":5126,"count":531,"type":"SCALAR"},{"bufferView":8,"componentType":5125,"count":1566,"type":"SCALAR"},{"bufferView":9,"componentType":5126,"count":351,"type":"VEC3","min":[-1.7272872924804688,-0.27113133668899536,-1.1498832702636719],"max":[1.4978611469268799,1.988665223121643,1.8392531871795654]},{"bufferView":10,"componentType":5126,"count":351,"type":"VEC3"},{"bufferView":11,"componentType":5126,"count":351,"type":"VEC2"},{"bufferView":12,"componentType":5126,"count":351,"type":"VEC3"},{"bufferView":13,"componentType":5126,"count":351,"type":"VEC3"},{"bufferView":14,"componentType":5126,"count":351,"type":"VEC3"},{"bufferView":15,"componentType":5126,"count":351,"type":"VEC3"},{"bufferView":16,"componentType":5126,"count":351,"type":"SCALAR"},{"bufferView":17,"componentType":5125,"count":1026,"type":"SCALAR"},{"bufferView":18,"componentType":5126,"count":207,"type":"VEC3","min":[-0.5464262962341309,0.014999999664723873,-0.42896828055381775],"max":[0.5409427285194397,0.5899999737739563,0.42896828055381775]},{"bufferView":19,"componentType":5126,"count":207,"type":"VEC3"},{"bufferView":20,"componentType":5126,"count":207,"type":"VEC2"},{"bufferView":21,"componentType":5126,"count":207,"type":"VEC3"},{"bufferView":22,"componentType":5126,"count":207,"type":"VEC3"},{"bufferView":23,"componentType":5126,"count":207,"type":"VEC3"},{"bufferView":24,"componentType":5126,"count":207,"type":"VEC3"},{"bufferView":25,"componentType":5126,"count":207,"type":"SCALAR"},{"bufferView":26,"componentType":5125,"count":207,"type":"SCALAR"},{"bufferView":27,"componentType":5126,"count":655,"type":"VEC3","min":[-2.3328819274902344,0.011172999627888203,-2.0712060928344727],"max":[1.805098056793213,5.555437088012695,2.05914306640625]},{"bufferView":28,"componentType":5126,"count":655,"type":"VEC3"},{"bufferView":29,"componentType":5126,"count":655,"type":"VEC2"},{"bufferView":30,"componentType":5126,"count":655,"type":"VEC3"},{"bufferView":31,"componentType":5126,"count":655,"type":"VEC3"},{"bufferView":32,"componentType":5126,"count":655,"type":"VEC3"},{"bufferView":33,"componentType":5126,"count":655,"type":"VEC3"},{"bufferView":34,"componentType":5126,"count":655,"type":"SCALAR"},{"bufferView":35,"componentType":5125,"count":1332,"type":"SCALAR"},{"bufferView":36,"componentType":5125,"count":1080,"type":"SCALAR"},{"bufferView":37,"componentType":5126,"count":913,"type":"VEC3","min":[-2.969912052154541,-0.0013800000306218863,-2.3520750999450684],"max":[3.394526958465576,5.491145133972168,2.5843169689178467]},{"bufferView":38,"componentType":5126,"count":913,"type":"VEC3"},{"bufferView":39,"componentType":5126,"count":913,"type":"VEC2"},{"bufferView":40,"componentType":5126,"count":913,"type":"VEC3"},{"bufferView":41,"componentType":5126,"count":913,"type":"VEC3"},{"bufferView":42,"componentType":5126,"count":913,"type":"VEC3"},{"bufferView":43,"componentType":5126,"count":913,"type":"VEC3"},{"bufferView":44,"componentType":5126,"count":913,"type":"SCALAR"},{"bufferView":45,"componentType":5125,"count":2028,"type":"SCALAR"},{"bufferView":46,"componentType":5125,"count":1800,"type":"SCALAR"},{"bufferView":47,"componentType":5126,"count":482,"type":"VEC3","min":[-3.7659718990325928,-0.07409700006246567,-3.4778990745544434],"max":[3.116921901702881,8.022987365722656,3.8158159255981445]},{"bufferView":48,"componentType":5126,"count":482,"type":"VEC3"},{"bufferView":49,"componentType":5126,"count":482,"type":"VEC2"},{"bufferView":50,"componentType":5126,"count":482,"type":"VEC3"},{"bufferView":51,"componentType":5126,"count":482,"type":"VEC3"},{"bufferView":52,"componentType":5126,"count":482,"type":"VEC3"},{"bufferView":53,"componentType":5126,"count":482,"type":"VEC3"},{"bufferView":54,"componentType":5126,"count":482,"type":"SCALAR"},{"bufferView":55,"componentType":5125,"count":444,"type":"SCALAR"},{"bufferView":56,"componentType":5125,"count":1152,"type":"SCALAR"},{"bufferView":57,"componentType":5126,"count":855,"type":"VEC3","min":[-3.2856340408325195,-0.0013800000306218863,-2.3520750999450684],"max":[0.9950600266456604,4.346673011779785,1.6284259557724]},{"bufferView":58,"componentType":5126,"count":855,"type":"VEC3"},{"bufferView":59,"componentType":5126,"count":855,"type":"VEC2"},{"bufferView":60,"componentType":5126,"count":855,"type":"VEC3"},{"bufferView":61,"componentType":5126,"count":855,"type":"VEC3"},{"bufferView":62,"componentType":5126,"count":855,"type":"VEC3"},{"bufferView":63,"componentType":5126,"count":855,"type":"VEC3"},{"bufferView":64,"componentType":5126,"count":855,"type":"SCALAR"},{"bufferView":65,"componentType":5125,"count":2268,"type":"SCALAR"},{"bufferView":66,"componentType":5125,"count":1368,"type":"SCALAR"},{"bufferView":67,"componentType":5126,"count":1796,"type":"VEC3","min":[-4.721841812133789,-0.0018220000201836228,-1.3137749433517456],"max":[4.035912990570068,10.293656349182129,3.0319550037384033]},{"bufferView":68,"componentType":5126,"count":1796,"type":"VEC3"},{"bufferView":69,"componentType":5126,"count":1796,"type":"VEC2"},{"bufferView":70,"componentType":5126,"count":1796,"type":"VEC3"},{"bufferView":71,"componentType":5126,"count":1796,"type":"VEC3"},{"bufferView":72,"componentType":5126,"count":1796,"type":"VEC3"},{"bufferView":73,"componentType":5126,"count":1796,"type":"VEC3"},{"bufferView":74,"componentType":5126,"count":1796,"type":"SCALAR"},{"bufferView":75,"componentType":5125,"count":4374,"type":"SCALAR"},{"bufferView":76,"componentType":5125,"count":3096,"type":"SCALAR"},{"bufferView":77,"componentType":5126,"count":1326,"type":"VEC3","min":[-3.6411149501800537,0.011172999627888203,-2.5864460468292236],"max":[3.095597982406616,6.3706889152526855,2.3982579708099365]},{"bufferView":78,"componentType":5126,"count":1326,"type":"VEC3"},{"bufferView":79,"componentType":5126,"count":1326,"type":"VEC2"},{"bufferView":80,"componentType":5126,"count":1326,"type":"VEC3"},{"bufferView":81,"componentType":5126,"count":1326,"type":"VEC3"},{"bufferView":82,"componentType":5126,"count":1326,"type":"VEC3"},{"bufferView":83,"componentType":5126,"count":1326,"type":"VEC3"},{"bufferView":84,"componentType":5126,"count":1326,"type":"SCALAR"},{"bufferView":85,"componentType":5125,"count":2616,"type":"SCALAR"},{"bufferView":86,"componentType":5125,"count":2952,"type":"SCALAR"}],"meshes":[{"name":"945c10e33683e4b3baa7557ff260c79730a9992e0e5a23b5d9307a2c40355ae1","primitives":[{"attributes":{"POSITION":0,"NORMAL":1,"TEXCOORD_0":2,"COLOR_0":3,"_VELDREN_NORMAL":4,"_VELDREN_COLOR":5,"_VELDREN_FALLBACK":6,"_VELDREN_MATERIAL":7},"indices":8,"material":0,"extras":{"mixedAtlasFallback":false}}]},{"name":"d3a49cf40a43bca59e27ca2096fab65e613b5d5993f180ce0def51f1fdd95647","primitives":[{"attributes":{"POSITION":9,"NORMAL":10,"TEXCOORD_0":11,"COLOR_0":12,"_VELDREN_NORMAL":13,"_VELDREN_COLOR":14,"_VELDREN_FALLBACK":15,"_VELDREN_MATERIAL":16},"indices":17,"material":1,"extras":{"mixedAtlasFallback":false}}]},{"name":"190836a5a05cd2db9b1c8844f8432f41f0403d878d66602a954f80a27c694e5e","primitives":[{"attributes":{"POSITION":18,"NORMAL":19,"TEXCOORD_0":20,"COLOR_0":21,"_VELDREN_NORMAL":22,"_VELDREN_COLOR":23,"_VELDREN_FALLBACK":24,"_VELDREN_MATERIAL":25},"indices":26,"material":2,"extras":{"mixedAtlasFallback":false}}]},{"name":"8480a643e36c0194bf11e79cbc019e38e5ff72b8bc295b144212e5f7a5b37347","primitives":[{"attributes":{"POSITION":27,"NORMAL":28,"TEXCOORD_0":29,"COLOR_0":30,"_VELDREN_NORMAL":31,"_VELDREN_COLOR":32,"_VELDREN_FALLBACK":33,"_VELDREN_MATERIAL":34},"indices":35,"material":3,"extras":{"mixedAtlasFallback":false}},{"attributes":{"POSITION":27,"NORMAL":28,"TEXCOORD_0":29,"COLOR_0":30,"_VELDREN_NORMAL":31,"_VELDREN_COLOR":32,"_VELDREN_FALLBACK":33,"_VELDREN_MATERIAL":34},"indices":36,"material":4,"extras":{"mixedAtlasFallback":false}}]},{"name":"629e78b439d8b314fb62411e16a47eeeaf0f6f78bb3f3150468167c9e9d3eef3","primitives":[{"attributes":{"POSITION":37,"NORMAL":38,"TEXCOORD_0":39,"COLOR_0":40,"_VELDREN_NORMAL":41,"_VELDREN_COLOR":42,"_VELDREN_FALLBACK":43,"_VELDREN_MATERIAL":44},"indices":45,"material":5,"extras":{"mixedAtlasFallback":false}},{"attributes":{"POSITION":37,"NORMAL":38,"TEXCOORD_0":39,"COLOR_0":40,"_VELDREN_NORMAL":41,"_VELDREN_COLOR":42,"_VELDREN_FALLBACK":43,"_VELDREN_MATERIAL":44},"indices":46,"material":6,"extras":{"mixedAtlasFallback":false}}]},{"name":"7e2e11a73c6c1f6b77c7c18c44a87655900818e94c168e7a92bb0a48cc87a1c1","primitives":[{"attributes":{"POSITION":47,"NORMAL":48,"TEXCOORD_0":49,"COLOR_0":50,"_VELDREN_NORMAL":51,"_VELDREN_COLOR":52,"_VELDREN_FALLBACK":53,"_VELDREN_MATERIAL":54},"indices":55,"material":7,"extras":{"mixedAtlasFallback":false}},{"attributes":{"POSITION":47,"NORMAL":48,"TEXCOORD_0":49,"COLOR_0":50,"_VELDREN_NORMAL":51,"_VELDREN_COLOR":52,"_VELDREN_FALLBACK":53,"_VELDREN_MATERIAL":54},"indices":56,"material":8,"extras":{"mixedAtlasFallback":false}}]},{"name":"883bf022a4c95c0b0a24ce14e7511dc7b18eb62759134961097aa30193af8da4","primitives":[{"attributes":{"POSITION":57,"NORMAL":58,"TEXCOORD_0":59,"COLOR_0":60,"_VELDREN_NORMAL":61,"_VELDREN_COLOR":62,"_VELDREN_FALLBACK":63,"_VELDREN_MATERIAL":64},"indices":65,"material":9,"extras":{"mixedAtlasFallback":false}},{"attributes":{"POSITION":57,"NORMAL":58,"TEXCOORD_0":59,"COLOR_0":60,"_VELDREN_NORMAL":61,"_VELDREN_COLOR":62,"_VELDREN_FALLBACK":63,"_VELDREN_MATERIAL":64},"indices":66,"material":10,"extras":{"mixedAtlasFallback":false}}]},{"name":"133dae8ce562dbc4cbf0d0d2cb7dc4cb2baafed83b6c58ebd4446a3657088e0f","primitives":[{"attributes":{"POSITION":67,"NORMAL":68,"TEXCOORD_0":69,"COLOR_0":70,"_VELDREN_NORMAL":71,"_VELDREN_COLOR":72,"_VELDREN_FALLBACK":73,"_VELDREN_MATERIAL":74},"indices":75,"material":11,"extras":{"mixedAtlasFallback":false}},{"attributes":{"POSITION":67,"NORMAL":68,"TEXCOORD_0":69,"COLOR_0":70,"_VELDREN_NORMAL":71,"_VELDREN_COLOR":72,"_VELDREN_FALLBACK":73,"_VELDREN_MATERIAL":74},"indices":76,"material":12,"extras":{"mixedAtlasFallback":false}}]},{"name":"cf73d73e4a52b629e942c4cf3ba67a960257f3fda86af0eadf8051aa3c1f7c97","primitives":[{"attributes":{"POSITION":77,"NORMAL":78,"TEXCOORD_0":79,"COLOR_0":80,"_VELDREN_NORMAL":81,"_VELDREN_COLOR":82,"_VELDREN_FALLBACK":83,"_VELDREN_MATERIAL":84},"indices":85,"material":13,"extras":{"mixedAtlasFallback":false}},{"attributes":{"POSITION":77,"NORMAL":78,"TEXCOORD_0":79,"COLOR_0":80,"_VELDREN_NORMAL":81,"_VELDREN_COLOR":82,"_VELDREN_FALLBACK":83,"_VELDREN_MATERIAL":84},"indices":86,"material":14,"extras":{"mixedAtlasFallback":false}}]}],"materials":[{"name":"legacy-material-33","pbrMetallicRoughness":{"baseColorFactor":[1,1,1,1],"metallicFactor":0,"roughnessFactor":1,"baseColorTexture":{"index":0}},"doubleSided":true,"extras":{"legacyMaterial":33,"legacyShader":"dist/renderer-gl.js"}},{"name":"legacy-material-33","pbrMetallicRoughness":{"baseColorFactor":[1,1,1,1],"metallicFactor":0,"roughnessFactor":1,"baseColorTexture":{"index":1}},"doubleSided":true,"extras":{"legacyMaterial":33,"legacyShader":"dist/renderer-gl.js"}},{"name":"legacy-material-12","pbrMetallicRoughness":{"baseColorFactor":[1,1,1,1],"metallicFactor":0,"roughnessFactor":1},"doubleSided":true,"extras":{"legacyMaterial":12,"legacyShader":"dist/renderer-gl.js","limitation":"Browser procedural material not implemented by this glTF export; source/base attributes retained."}},{"name":"legacy-material-49","pbrMetallicRoughness":{"baseColorFactor":[1,1,1,1],"metallicFactor":0,"roughnessFactor":1,"baseColorTexture":{"index":2}},"doubleSided":true,"extras":{"legacyMaterial":49,"legacyShader":"dist/renderer-gl.js"}},{"name":"legacy-material-50","pbrMetallicRoughness":{"baseColorFactor":[1,1,1,1],"metallicFactor":0,"roughnessFactor":1,"baseColorTexture":{"index":3}},"doubleSided":true,"extras":{"legacyMaterial":50,"legacyShader":"dist/renderer-gl.js"},"alphaMode":"MASK","alphaCutoff":0.45},{"name":"legacy-material-49","pbrMetallicRoughness":{"baseColorFactor":[1,1,1,1],"metallicFactor":0,"roughnessFactor":1,"baseColorTexture":{"index":4}},"doubleSided":true,"extras":{"legacyMaterial":49,"legacyShader":"dist/renderer-gl.js"}},{"name":"legacy-material-51","pbrMetallicRoughness":{"baseColorFactor":[1,1,1,1],"metallicFactor":0,"roughnessFactor":1,"baseColorTexture":{"index":5}},"doubleSided":true,"extras":{"legacyMaterial":51,"legacyShader":"dist/renderer-gl.js"},"alphaMode":"MASK","alphaCutoff":0.45},{"name":"legacy-material-49","pbrMetallicRoughness":{"baseColorFactor":[1,1,1,1],"metallicFactor":0,"roughnessFactor":1,"baseColorTexture":{"index":6}},"doubleSided":true,"extras":{"legacyMaterial":49,"legacyShader":"dist/renderer-gl.js"}},{"name":"legacy-material-54","pbrMetallicRoughness":{"baseColorFactor":[1,1,1,1],"metallicFactor":0,"roughnessFactor":1,"baseColorTexture":{"index":7}},"doubleSided":true,"extras":{"legacyMaterial":54,"legacyShader":"dist/renderer-gl.js"},"alphaMode":"MASK","alphaCutoff":0.45},{"name":"legacy-material-49","pbrMetallicRoughness":{"baseColorFactor":[1,1,1,1],"metallicFactor":0,"roughnessFactor":1,"baseColorTexture":{"index":8}},"doubleSided":true,"extras":{"legacyMaterial":49,"legacyShader":"dist/renderer-gl.js"}},{"name":"legacy-material-55","pbrMetallicRoughness":{"baseColorFactor":[1,1,1,1],"metallicFactor":0,"roughnessFactor":1,"baseColorTexture":{"index":9}},"doubleSided":true,"extras":{"legacyMaterial":55,"legacyShader":"dist/renderer-gl.js"},"alphaMode":"MASK","alphaCutoff":0.45},{"name":"legacy-material-52","pbrMetallicRoughness":{"baseColorFactor":[1,1,1,1],"metallicFactor":0,"roughnessFactor":1,"baseColorTexture":{"index":10}},"doubleSided":true,"extras":{"legacyMaterial":52,"legacyShader":"dist/renderer-gl.js"}},{"name":"legacy-material-53","pbrMetallicRoughness":{"baseColorFactor":[1,1,1,1],"metallicFactor":0,"roughnessFactor":1,"baseColorTexture":{"index":11}},"doubleSided":true,"extras":{"legacyMaterial":53,"legacyShader":"dist/renderer-gl.js"},"alphaMode":"MASK","alphaCutoff":0.45},{"name":"legacy-material-49","pbrMetallicRoughness":{"baseColorFactor":[1,1,1,1],"metallicFactor":0,"roughnessFactor":1,"baseColorTexture":{"index":12}},"doubleSided":true,"extras":{"legacyMaterial":49,"legacyShader":"dist/renderer-gl.js"}},{"name":"legacy-material-50","pbrMetallicRoughness":{"baseColorFactor":[1,1,1,1],"metallicFactor":0,"roughnessFactor":1,"baseColorTexture":{"index":13}},"doubleSided":true,"extras":{"legacyMaterial":50,"legacyShader":"dist/renderer-gl.js"},"alphaMode":"MASK","alphaCutoff":0.45}],"images":[{"name":"atlas-13","uri":"../../textures/atlas/tile-13.png"},{"name":"atlas-13","uri":"../../textures/atlas/tile-13.png"},{"name":"atlas-29","uri":"../../textures/atlas/tile-29.png"},{"name":"atlas-30","uri":"../../textures/atlas/tile-30.png"},{"name":"atlas-29","uri":"../../textures/atlas/tile-29.png"},{"name":"atlas-31","uri":"../../textures/atlas/tile-31.png"},{"name":"atlas-29","uri":"../../textures/atlas/tile-29.png"},{"name":"atlas-34","uri":"../../textures/atlas/tile-34.png"},{"name":"atlas-29","uri":"../../textures/atlas/tile-29.png"},{"name":"atlas-35","uri":"../../textures/atlas/tile-35.png"},{"name":"atlas-32","uri":"../../textures/atlas/tile-32.png"},{"name":"atlas-33","uri":"../../textures/atlas/tile-33.png"},{"name":"atlas-29","uri":"../../textures/atlas/tile-29.png"},{"name":"atlas-30","uri":"../../textures/atlas/tile-30.png"}],"textures":[{"source":0,"sampler":0},{"source":1,"sampler":1},{"source":2,"sampler":2},{"source":3,"sampler":2},{"source":4,"sampler":3},{"source":5,"sampler":3},{"source":6,"sampler":4},{"source":7,"sampler":4},{"source":8,"sampler":5},{"source":9,"sampler":5},{"source":10,"sampler":6},{"source":11,"sampler":6},{"source":12,"sampler":7},{"source":13,"sampler":7}],"samplers":[{"magFilter":9729,"minFilter":9729,"wrapS":10497,"wrapT":10497},{"magFilter":9729,"minFilter":9729,"wrapS":10497,"wrapT":10497},{"magFilter":9729,"minFilter":9729,"wrapS":10497,"wrapT":10497},{"magFilter":9729,"minFilter":9729,"wrapS":10497,"wrapT":10497},{"magFilter":9729,"minFilter":9729,"wrapS":10497,"wrapT":10497},{"magFilter":9729,"minFilter":9729,"wrapS":10497,"wrapT":10497},{"magFilter":9729,"minFilter":9729,"wrapS":10497,"wrapT":10497},{"magFilter":9729,"minFilter":9729,"wrapS":10497,"wrapT":10497}]}
