{"asset":{"version":"2.0","generator":"Veldren static world recovery"},"scene":0,"scenes":[{"nodes":[0,2,4,6,8,10,12,14,16,18,20,22,24,26,28,30,32,34,36,38,40,42,44,46,48,50,52,54,56,58,60,62,64,66,68,70,72,74,76,78,80,82,84,86,88,90,92,94,96,98,100,102,104,106,108,110,112,114,116,118,120,122,124,126,128,130,132,134,136,138,140,142,144,146,148,150,152,154,156,158,160,162,164,166,168,170,172,174,176,178,180,182,184,186,188,190,192,194,196,198,200,202,204,206,208,210,212,214,216,218,220,222,224,226,228,230,232,234,236,238,240,242,244,246,248,250,252,254,256,258,260,262,264,266,268,270,272,274,276,278,280,282,284,286,288,290,292,294,296,298,300,302,304,306,308,310,312,314,316,318,320,322,324,326,328,330,332,334,336,338,340,342,344,346,348,350,352,354,356,358,360,362,364,366,368,370,372,374,376,378,380,382,384,386,388,390,392,394,396,398,400,402]}],"extras":{"sourceScene":"overworld","notVervesisScene":true,"gameplayIdentityExternal":true,"limitations":["Terrain stored separately.","Dynamic actors, fires, gates, crops, fish, effects and ground cover are not baked.","Roofs are closed; browser procedural materials require native support."]},"nodes":[{"name":"Mossy boulder","children":[1],"extras":{"veldrenEntityKey":"overworld:object:5900000"}},{"mesh":0,"matrix":[0.4867694816263352,0.0,0.0,0.0,0.0,0.4867694816263352,0.0,0.0,0.0,0.0,0.4867694816263352,0.0,29.555838822971324,4.1098661083830015,133.33221788144704,1.0]},{"name":"Elderwood undergrowth","children":[3],"extras":{"veldrenEntityKey":"overworld:object:5900001"}},{"mesh":1,"matrix":[0.5689772138568414,0.0,0.0,0.0,0.0,0.5689772138568414,0.0,0.0,0.0,0.0,0.5689772138568414,0.0,31.48068537653879,3.9951647052974706,134.49534505850625,1.0]},{"name":"Woodland ferns","children":[5],"extras":{"veldrenEntityKey":"overworld:object:5900002"}},{"mesh":2,"matrix":[0.7735855062188131,0.0,0.0,0.0,0.0,0.7735855062188131,0.0,0.0,0.0,0.0,0.7735855062188131,0.0,28.475071473832003,3.8108256272777736,135.4631588622852,1.0]},{"name":"Mossy boulder","children":[7],"extras":{"veldrenEntityKey":"overworld:object:5900003"}},{"mesh":0,"matrix":[0.4007965753462384,0.0,-0.41267560751022847,0.0,0.0,0.5752730237402143,0.0,0.0,0.41267560751022847,0.0,0.4007965753462384,0.0,43.403733532085106,3.5579034827636287,131.31451216207915,1.0]},{"name":"Elderwood undergrowth","children":[9],"extras":{"veldrenEntityKey":"overworld:object:5900004"}},{"mesh":1,"matrix":[0.43517777676130076,0.0,-0.3665451848017995,0.0,0.0,0.5689772138568414,0.0,0.0,0.3665451848017995,0.0,0.43517777676130076,0.0,45.48222856550201,3.414220825150941,132.50888252642227,1.0]},{"name":"Woodland ferns","children":[11],"extras":{"veldrenEntityKey":"overworld:object:5900005"}},{"mesh":2,"matrix":[0.712519435304125,0.0,-0.30124838546572846,0.0,0.0,0.7735855062188131,0.0,0.0,0.30124838546572846,0.0,0.712519435304125,0.0,42.46269269213102,3.434953921695844,133.47577469041275,1.0]},{"name":"Mossy boulder","children":[13],"extras":{"veldrenEntityKey":"overworld:object:5900006"}},{"mesh":0,"matrix":[-0.019381958637729502,0.0,-0.6634935335452931,0.0,0.0,0.6637765658540934,0.0,0.0,0.6634935335452931,0.0,-0.019381958637729502,0.0,55.26908039492106,2.935868831577961,137.43056928760737,1.0]},{"name":"Elderwood undergrowth","children":[15],"extras":{"veldrenEntityKey":"overworld:object:5900007"}},{"mesh":1,"matrix":[0.09670743141458676,0.0,-0.5606984417648108,0.0,0.0,0.5689772138568414,0.0,0.0,0.5606984417648108,0.0,0.09670743141458676,0.0,57.492129937795966,2.7794107431730453,138.51824240336862,1.0]},{"name":"Woodland ferns","children":[17],"extras":{"veldrenEntityKey":"overworld:object:5900008"}},{"mesh":2,"matrix":[0.5389622124363704,0.0,-0.5549362747176562,0.0,0.0,0.7735855062188131,0.0,0.0,0.5549362747176562,0.0,0.5389622124363704,0.0,54.456203914029246,2.778006029220101,139.49221516225788,1.0]},{"name":"Mossy boulder","children":[19],"extras":{"veldrenEntityKey":"overworld:object:5900009"}},{"mesh":0,"matrix":[-0.3589407566685295,0.0,-0.32879486225455923,0.0,0.0,0.4867694816263352,0.0,0.0,0.32879486225455923,0.0,-0.3589407566685295,0.0,57.345494159420326,2.4400391828390053,151.5860044108387,1.0]},{"name":"Elderwood undergrowth","children":[21],"extras":{"veldrenEntityKey":"overworld:object:5900010"}},{"mesh":1,"matrix":[-0.28724593002170623,0.0,-0.49114646041100496,0.0,0.0,0.5689772138568414,0.0,0.0,0.49114646041100496,0.0,-0.28724593002170623,0.0,59.505732723317585,2.346268052210397,152.51902259296529,1.0]},{"name":"Woodland ferns","children":[23],"extras":{"veldrenEntityKey":"overworld:object:5900011"}},{"mesh":2,"matrix":[0.2803147069291498,0.0,-0.7210119281336766,0.0,0.0,0.7735855062188131,0.0,0.0,0.7210119281336766,0.0,0.2803147069291498,0.0,56.45662957491366,2.3670585888168794,153.50988468880945,1.0]},{"name":"Mossy boulder","children":[25],"extras":{"veldrenEntityKey":"overworld:object:5900012"}},{"mesh":0,"matrix":[-0.5742920542555069,0.0,0.03358106999782895,0.0,0.0,0.5752730237402143,0.0,0.0,-0.03358106999782895,0.0,-0.5742920542555069,0.0,43.44569608350223,2.9896142220482975,159.70180202059038,1.0]},{"name":"Elderwood undergrowth","children":[27],"extras":{"veldrenEntityKey":"overworld:object:5900013"}},{"mesh":1,"matrix":[-0.5361030422273247,0.0,-0.19060062435076414,0.0,0.0,0.5689772138568414,0.0,0.0,0.19060062435076414,0.0,-0.5361030422273247,0.0,45.51663931948668,2.8528157021200236,160.51085615985414,1.0]},{"name":"Woodland ferns","children":[29],"extras":{"veldrenEntityKey":"overworld:object:5900014"}},{"mesh":2,"matrix":[-0.02258832724079003,0.0,-0.7732556517118256,0.0,0.0,0.7735855062188131,0.0,0.0,0.7732556517118256,0.0,-0.02258832724079003,0.0,42.46390247229006,2.934551593688614,161.52599364034256,1.0]},{"name":"Mossy boulder","children":[31],"extras":{"veldrenEntityKey":"overworld:object:5900015"}},{"mesh":0,"matrix":[-0.43387331794928335,0.0,0.5023477613653052,0.0,0.0,0.6637765658540934,0.0,0.0,-0.5023477613653052,0.0,-0.43387331794928335,0.0,28.623380775759816,3.8623666141433803,154.70717546188214,1.0]},{"name":"Elderwood undergrowth","children":[33],"extras":{"veldrenEntityKey":"overworld:object:5900016"}},{"mesh":1,"matrix":[-0.5328225168323247,0.0,0.19958766355854993,0.0,0.0,0.5689772138568414,0.0,0.0,-0.19958766355854993,0.0,-0.5328225168323247,0.0,30.519720183704642,3.752628786816435,155.49758390513142,1.0]},{"name":"Woodland ferns","children":[35],"extras":{"veldrenEntityKey":"overworld:object:5900017"}},{"mesh":2,"matrix":[-0.3219251612116788,0.0,-0.7034193102344091,0.0,0.0,0.7735855062188131,0.0,0.0,0.7034193102344091,0.0,-0.3219251612116788,0.0,27.476874375579204,3.585983494929798,156.53799876761394,1.0]},{"name":"Mossy boulder","children":[37],"extras":{"veldrenEntityKey":"overworld:object:5900018"}},{"mesh":0,"matrix":[0.04259183481165104,0.0,0.4849025302575231,0.0,0.0,0.4867694816263352,0.0,0.0,-0.4849025302575231,0.0,0.04259183481165104,0.0,27.672024448744413,3.5075075947229575,141.54094389443037,1.0]},{"name":"Elderwood undergrowth","children":[39],"extras":{"veldrenEntityKey":"overworld:object:5900019"}},{"mesh":1,"matrix":[-0.2789472361895983,0.0,0.49590675465300765,0.0,0.0,0.5689772138568414,0.0,0.0,-0.49590675465300765,0.0,-0.2789472361895983,0.0,29.513526337389944,3.9489152348651153,142.48544797757793,1.0]},{"name":"Woodland ferns","children":[41],"extras":{"veldrenEntityKey":"overworld:object:5900020"}},{"mesh":2,"matrix":[-0.5704370907195461,0.0,-0.5225285264588314,0.0,0.0,0.7735855062188131,0.0,0.0,0.5225285264588314,0.0,-0.5704370907195461,0.0,26.49349730647803,3.0129361566737924,143.54400472499617,1.0]},{"name":"Tree","children":[43],"extras":{"veldrenEntityKey":"overworld:object:115"}},{"mesh":3,"matrix":[0.6356582193821746,0.0,0.4120740241228204,0.0,0.0,0.7575396842574597,0.0,0.0,-0.4120740241228204,0.0,0.6356582193821746,0.0,20.5,0.8313379819726558,138.5,1.0]},{"name":"Tree","children":[45],"extras":{"veldrenEntityKey":"overworld:object:116"}},{"mesh":3,"matrix":[-0.19724247468343462,0.0,-0.7627511228839965,0.0,0.0,0.7878412716277581,0.0,0.0,0.7627511228839965,0.0,-0.19724247468343462,0.0,20.5,0.9573771297142576,150.5,1.0]},{"name":"Oak tree","children":[47],"extras":{"veldrenEntityKey":"overworld:object:117"}},{"mesh":4,"matrix":[-0.4329922305392486,0.0,0.8126721518894574,0.0,0.0,0.9208247923269633,0.0,0.0,-0.8126721518894574,0.0,-0.4329922305392486,0.0,18.5,0.9394692611675233,162.5,1.0]},{"name":"Tree","children":[49],"extras":{"veldrenEntityKey":"overworld:object:120"}},{"mesh":3,"matrix":[0.2993731008301726,0.0,0.6627601346364969,0.0,0.0,0.7272380968871612,0.0,0.0,-0.6627601346364969,0.0,0.2993731008301726,0.0,24.5,2.256841576799365,138.5,1.0]},{"name":"Tree","children":[51],"extras":{"veldrenEntityKey":"overworld:object:121"}},{"mesh":3,"matrix":[0.23708858585687892,0.0,-0.7194827139558511,0.0,0.0,0.7575396842574597,0.0,0.0,0.7194827139558511,0.0,0.23708858585687892,0.0,24.5,2.354868268717126,150.5,1.0]},{"name":"Willow tree","children":[53],"extras":{"veldrenEntityKey":"overworld:object:122"}},{"mesh":5,"matrix":[-0.7932645099405676,0.0,0.443597799350987,0.0,0.0,0.9088716027692181,0.0,0.0,-0.443597799350987,0.0,-0.7932645099405676,0.0,24.5,2.853236305729849,162.5,1.0]},{"name":"Oak tree","children":[55],"extras":{"veldrenEntityKey":"overworld:object:125"}},{"mesh":4,"matrix":[-0.14621090783050567,0.0,0.9867870623751954,0.0,0.0,0.9975601916875435,0.0,0.0,-0.9867870623751954,0.0,-0.14621090783050567,0.0,60.5,2.475680301653381,140.5,1.0]},{"name":"Willow tree","children":[57],"extras":{"veldrenEntityKey":"overworld:object:126"}},{"mesh":5,"matrix":[0.6517677109738009,0.0,-0.5282518832447498,0.0,0.0,0.8389584025562012,0.0,0.0,0.5282518832447498,0.0,0.6517677109738009,0.0,59.5,2.297951582821756,148.5,1.0]},{"name":"Yew tree","children":[59],"extras":{"veldrenEntityKey":"overworld:object:127"}},{"mesh":6,"matrix":[-0.8382214719395471,0.0,-0.05160510831094815,0.0,0.0,0.8398085039009104,0.0,0.0,0.05160510831094815,0.0,-0.8382214719395471,0.0,60.5,2.111993573183428,162.5,1.0]},{"name":"Tree","children":[61],"extras":{"veldrenEntityKey":"overworld:object:130"}},{"mesh":3,"matrix":[-0.49863755027359946,0.0,0.5702867407559422,0.0,0.0,0.7575396842574597,0.0,0.0,-0.5702867407559422,0.0,-0.49863755027359946,0.0,72.5,2.2679050134811023,138.5,1.0]},{"name":"Willow tree","children":[63],"extras":{"veldrenEntityKey":"overworld:object:131"}},{"mesh":5,"matrix":[0.903404916053658,0.0,-0.09953465713192838,0.0,0.0,0.9088716027692181,0.0,0.0,0.09953465713192838,0.0,0.903404916053658,0.0,71.5,1.9742996829000918,148.5,1.0]},{"name":"Yew tree","children":[65],"extras":{"veldrenEntityKey":"overworld:object:132"}},{"mesh":6,"matrix":[-0.6500846860538938,0.0,-0.47683792177396267,0.0,0.0,0.8062161637448739,0.0,0.0,0.47683792177396267,0.0,-0.6500846860538938,0.0,72.5,1.772872969485157,162.5,1.0]},{"name":"Oak tree","children":[67],"extras":{"veldrenEntityKey":"overworld:object:135"}},{"mesh":4,"matrix":[-0.8847198181246863,0.0,0.255321643386175,0.0,0.0,0.9208247923269633,0.0,0.0,-0.255321643386175,0.0,-0.8847198181246863,0.0,84.5,2.146900239706947,138.5,1.0]},{"name":"Maple tree","children":[69],"extras":{"veldrenEntityKey":"overworld:object:136"}},{"mesh":7,"matrix":[0.6261331511434811,0.0,0.31149371574033446,0.0,0.0,0.6993361551547194,0.0,0.0,-0.31149371574033446,0.0,0.6261331511434811,0.0,84.5,1.7666184134539822,150.5,1.0]},{"name":"Tree","children":[71],"extras":{"veldrenEntityKey":"overworld:object:137"}},{"mesh":3,"matrix":[-0.2823727750231411,0.0,-0.7354994800853182,0.0,0.0,0.7878412716277581,0.0,0.0,0.7354994800853182,0.0,-0.2823727750231411,0.0,84.5,1.55295602066115,162.5,1.0]},{"name":"Oak tree","children":[73],"extras":{"veldrenEntityKey":"overworld:object:5900023"}},{"mesh":4,"matrix":[0.07050572183342743,0.0,0.9565977105930331,0.0,0.0,0.9591924920072534,0.0,0.0,-0.9565977105930331,0.0,0.07050572183342743,0.0,26.5,3.1576830662594637,131.5,1.0]},{"name":"Oak tree","children":[75],"extras":{"veldrenEntityKey":"overworld:object:5900026"}},{"mesh":4,"matrix":[0.8005315352328877,0.0,0.5283933173505897,0.0,0.0,0.9591924920072534,0.0,0.0,-0.5283933173505897,0.0,0.8005315352328877,0.0,49.5,2.9702379445981486,128.5,1.0]},{"name":"Oak tree","children":[77],"extras":{"veldrenEntityKey":"overworld:object:5900027"}},{"mesh":4,"matrix":[-0.24176486112075116,0.0,-0.967820276687233,0.0,0.0,0.9975601916875435,0.0,0.0,0.967820276687233,0.0,-0.24176486112075116,0.0,56.5,2.843976352694566,133.5,1.0]},{"name":"Oak tree","children":[79],"extras":{"veldrenEntityKey":"overworld:object:5900028"}},{"mesh":4,"matrix":[-0.4396872026411277,0.0,0.8090695038113939,0.0,0.0,0.9208247923269633,0.0,0.0,-0.8090695038113939,0.0,-0.4396872026411277,0.0,54.5,2.564257189339031,144.5,1.0]},{"name":"Oak tree","children":[81],"extras":{"veldrenEntityKey":"overworld:object:5900029"}},{"mesh":4,"matrix":[0.9073108491064847,0.0,-0.3111868567545141,0.0,0.0,0.9591924920072534,0.0,0.0,0.3111868567545141,0.0,0.9073108491064847,0.0,65.5,2.103268784033028,148.5,1.0]},{"name":"Oak tree","children":[83],"extras":{"veldrenEntityKey":"overworld:object:5900030"}},{"mesh":4,"matrix":[-0.9140110250617676,0.0,-0.3996375634311987,0.0,0.0,0.9975601916875435,0.0,0.0,0.3996375634311987,0.0,-0.9140110250617676,0.0,54.5,2.2618604817182275,164.5,1.0]},{"name":"Oak tree","children":[85],"extras":{"veldrenEntityKey":"overworld:object:5900031"}},{"mesh":4,"matrix":[0.3721230031853693,0.0,0.8422842564504556,0.0,0.0,0.9208247923269633,0.0,0.0,-0.8422842564504556,0.0,0.3721230031853693,0.0,45.5,2.6866849551834857,165.5,1.0]},{"name":"Oak tree","children":[87],"extras":{"veldrenEntityKey":"overworld:object:5900032"}},{"mesh":4,"matrix":[0.3077116076764671,0.0,-0.9084953512397567,0.0,0.0,0.9591924920072534,0.0,0.0,0.9084953512397567,0.0,0.3077116076764671,0.0,37.5,3.132000596043402,166.5,1.0]},{"name":"Oak tree","children":[89],"extras":{"veldrenEntityKey":"overworld:object:5900033"}},{"mesh":4,"matrix":[-0.8746622722368654,0.0,0.4796793153400843,0.0,0.0,0.9975601916875435,0.0,0.0,-0.4796793153400843,0.0,-0.8746622722368654,0.0,31.5,3.5126732487232952,161.5,1.0]},{"name":"Oak tree","children":[91],"extras":{"veldrenEntityKey":"overworld:object:5900034"}},{"mesh":4,"matrix":[0.8942202504979616,0.0,0.2197463122861407,0.0,0.0,0.9208247923269633,0.0,0.0,-0.2197463122861407,0.0,0.8942202504979616,0.0,23.5,2.1997646833879196,155.5,1.0]},{"name":"Oak tree","children":[93],"extras":{"veldrenEntityKey":"overworld:object:5900035"}},{"mesh":4,"matrix":[-0.5314536900189724,0.0,-0.7985031071250149,0.0,0.0,0.9591924920072534,0.0,0.0,0.7985031071250149,0.0,-0.5314536900189724,0.0,22.5,1.5223541081040661,144.5,1.0]},{"name":"Oak tree","children":[95],"extras":{"veldrenEntityKey":"overworld:object:5900036"}},{"mesh":4,"matrix":[-0.15435321385139036,0.0,0.9855462553393602,0.0,0.0,0.9975601916875435,0.0,0.0,-0.9855462553393602,0.0,-0.15435321385139036,0.0,33.5,3.6857382790572215,137.5,1.0]},{"name":"Oak tree","children":[97],"extras":{"veldrenEntityKey":"overworld:object:5900037"}},{"mesh":4,"matrix":[0.7201305081126074,0.0,-0.5738731126734142,0.0,0.0,0.9208247923269633,0.0,0.0,0.5738731126734142,0.0,0.7201305081126074,0.0,45.5,3.1479442458711477,136.5,1.0]},{"name":"Oak tree","children":[99],"extras":{"veldrenEntityKey":"overworld:object:5900038"}},{"mesh":4,"matrix":[-0.9568605817222376,0.0,-0.06684357762168171,0.0,0.0,0.9591924920072534,0.0,0.0,0.06684357762168171,0.0,-0.9568605817222376,0.0,41.5,3.156396615166745,143.5,1.0]},{"name":"Oak tree","children":[101],"extras":{"veldrenEntityKey":"overworld:object:5900039"}},{"mesh":4,"matrix":[0.6861261263899516,0.0,0.7241251789054214,0.0,0.0,0.9975601916875435,0.0,0.0,-0.7241251789054214,0.0,0.6861261263899516,0.0,29.5,3.748129362988569,147.5,1.0]},{"name":"Old-growth oak","children":[103],"extras":{"veldrenEntityKey":"overworld:object:6801938"}},{"mesh":3,"matrix":[-0.5417479926749741,0.0,-0.5720165921655412,0.0,0.0,0.7878412716277581,0.0,0.0,0.5720165921655412,0.0,-0.5417479926749741,0.0,65.5,2.2435424626298452,143.5,1.0]},{"name":"Old-growth oak","children":[105],"extras":{"veldrenEntityKey":"overworld:object:6801940"}},{"mesh":3,"matrix":[0.5034602715054945,0.0,-0.5660336811891191,0.0,0.0,0.7575396842574597,0.0,0.0,0.5660336811891191,0.0,0.5034602715054945,0.0,78.5,2.1492855797056922,139.5,1.0]},{"name":"Old-growth oak","children":[107],"extras":{"veldrenEntityKey":"overworld:object:6801941"}},{"mesh":3,"matrix":[-0.7838067066028543,0.0,0.07962986854459811,0.0,0.0,0.7878412716277581,0.0,0.0,-0.07962986854459811,0.0,-0.7838067066028543,0.0,84.5,1.9630969941906875,143.5,1.0]},{"name":"Old-growth oak","children":[109],"extras":{"veldrenEntityKey":"overworld:object:6801942"}},{"mesh":3,"matrix":[0.5827293731186786,0.0,0.43508818332468197,0.0,0.0,0.7272380968871612,0.0,0.0,-0.43508818332468197,0.0,0.5827293731186786,0.0,90.5,1.930503287280136,144.5,1.0]},{"name":"Old-growth oak","children":[111],"extras":{"veldrenEntityKey":"overworld:object:6802075"}},{"mesh":3,"matrix":[-0.32677294585560196,0.0,0.6834367674348106,0.0,0.0,0.7575396842574597,0.0,0.0,-0.6834367674348106,0.0,-0.32677294585560196,0.0,53.5,2.4176557417344973,153.5,1.0]},{"name":"Old-growth oak","children":[113],"extras":{"veldrenEntityKey":"overworld:object:6802077"}},{"mesh":3,"matrix":[-0.6805199640804734,0.0,-0.25645238944484655,0.0,0.0,0.7272380968871612,0.0,0.0,0.25645238944484655,0.0,-0.6805199640804734,0.0,62.5,2.105644975922934,152.5,1.0]},{"name":"Old-growth oak","children":[115],"extras":{"veldrenEntityKey":"overworld:object:6802078"}},{"mesh":3,"matrix":[0.341602147468036,0.0,0.6761466897575686,0.0,0.0,0.7575396842574597,0.0,0.0,-0.6761466897575686,0.0,0.341602147468036,0.0,79.5,1.7249140199907038,153.5,1.0]},{"name":"Old-growth oak","children":[117],"extras":{"veldrenEntityKey":"overworld:object:6802212"}},{"mesh":3,"matrix":[0.7249450166299499,0.0,0.05770591327985065,0.0,0.0,0.7272380968871612,0.0,0.0,-0.05770591327985065,0.0,0.7249450166299499,0.0,40.5,3.0036184327867965,157.5,1.0]},{"name":"Old-growth oak","children":[119],"extras":{"veldrenEntityKey":"overworld:object:6802215"}},{"mesh":3,"matrix":[0.48843916957903666,0.0,-0.5387972041362141,0.0,0.0,0.7272380968871612,0.0,0.0,0.5387972041362141,0.0,0.48843916957903666,0.0,66.5,1.8792489741793945,159.5,1.0]},{"name":"Old-growth oak","children":[121],"extras":{"veldrenEntityKey":"overworld:object:6802218"}},{"mesh":3,"matrix":[-0.12833652228554018,0.0,-0.7158246898589857,0.0,0.0,0.7272380968871612,0.0,0.0,0.7158246898589857,0.0,-0.12833652228554018,0.0,93.5,1.5081605945750887,160.5,1.0]},{"name":"Old-growth oak","children":[123],"extras":{"veldrenEntityKey":"overworld:object:6802351"}},{"mesh":3,"matrix":[0.705520120709591,0.0,-0.2758762992698282,0.0,0.0,0.7575396842574597,0.0,0.0,0.2758762992698282,0.0,0.705520120709591,0.0,55.5,2.2158069277660624,169.5,1.0]},{"name":"Old-growth oak","children":[125],"extras":{"veldrenEntityKey":"overworld:object:6802353"}},{"mesh":3,"matrix":[0.3217847775708306,0.0,0.6521731414952253,0.0,0.0,0.7272380968871612,0.0,0.0,-0.6521731414952253,0.0,0.3217847775708306,0.0,68.5,1.7796423334276235,165.5,1.0]},{"name":"Old-growth oak","children":[127],"extras":{"veldrenEntityKey":"overworld:object:6802354"}},{"mesh":3,"matrix":[0.21243232630409536,0.0,-0.7271443322793089,0.0,0.0,0.7575396842574597,0.0,0.0,0.7271443322793089,0.0,0.21243232630409536,0.0,78.5,1.5784690976217532,169.5,1.0]},{"name":"Old-growth oak","children":[129],"extras":{"veldrenEntityKey":"overworld:object:6802356"}},{"mesh":3,"matrix":[0.7129397663585926,0.0,0.14349961361834945,0.0,0.0,0.7272380968871612,0.0,0.0,-0.14349961361834945,0.0,0.7129397663585926,0.0,94.5,1.4768788117876885,165.5,1.0]},{"name":"Old-growth oak","children":[131],"extras":{"veldrenEntityKey":"overworld:object:6802486"}},{"mesh":3,"matrix":[-0.6013635246315018,0.0,0.46068241171947166,0.0,0.0,0.7575396842574597,0.0,0.0,-0.46068241171947166,0.0,-0.6013635246315018,0.0,31.5,3.512028857499445,171.5,1.0]},{"name":"Old-growth oak","children":[133],"extras":{"veldrenEntityKey":"overworld:object:6802491"}},{"mesh":3,"matrix":[-0.7247746836856067,0.0,0.059807252507440255,0.0,0.0,0.7272380968871612,0.0,0.0,-0.059807252507440255,0.0,-0.7247746836856067,0.0,70.5,1.7544051490194263,175.5,1.0]},{"name":"Old-growth oak","children":[135],"extras":{"veldrenEntityKey":"overworld:object:6802493"}},{"mesh":3,"matrix":[-0.13169124364381415,0.0,-0.7767569025297352,0.0,0.0,0.7878412716277581,0.0,0.0,0.7767569025297352,0.0,-0.13169124364381415,0.0,82.5,1.5742503912270747,176.5,1.0]},{"name":"Old-growth oak","children":[137],"extras":{"veldrenEntityKey":"overworld:object:6802494"}},{"mesh":3,"matrix":[-0.39528360614614366,0.0,0.6104310937986043,0.0,0.0,0.7272380968871612,0.0,0.0,-0.6104310937986043,0.0,-0.39528360614614366,0.0,95.5,1.5736173436832561,175.5,1.0]},{"name":"Old-growth oak","children":[139],"extras":{"veldrenEntityKey":"overworld:object:6802629"}},{"mesh":3,"matrix":[0.21052753093392618,0.0,-0.6960987058477589,0.0,0.0,0.7272380968871612,0.0,0.0,0.6960987058477589,0.0,0.21052753093392618,0.0,71.5,1.8234673432050832,182.5,1.0]},{"name":"Old-growth oak","children":[141],"extras":{"veldrenEntityKey":"overworld:object:6802630"}},{"mesh":3,"matrix":[-0.6518765692182695,0.0,0.3859058327223239,0.0,0.0,0.7575396842574597,0.0,0.0,-0.3859058327223239,0.0,-0.6518765692182695,0.0,75.5,1.8036390133826634,185.5,1.0]},{"name":"Old-growth oak","children":[143],"extras":{"veldrenEntityKey":"overworld:object:6802632"}},{"mesh":3,"matrix":[-0.4226228803568086,0.0,-0.5918320290107446,0.0,0.0,0.7272380968871612,0.0,0.0,0.5918320290107446,0.0,-0.4226228803568086,0.0,95.5,1.5257936794650873,181.5,1.0]},{"name":"Old-growth oak","children":[145],"extras":{"veldrenEntityKey":"overworld:object:6802761"}},{"mesh":3,"matrix":[-0.5814656233919141,0.0,0.43677566138409424,0.0,0.0,0.7272380968871612,0.0,0.0,-0.43677566138409424,0.0,-0.5814656233919141,0.0,20.5,3.4411297301477206,189.5,1.0]},{"name":"Old-growth oak","children":[147],"extras":{"veldrenEntityKey":"overworld:object:6802767"}},{"mesh":3,"matrix":[0.5701522901728064,0.0,0.4514439229569538,0.0,0.0,0.7272380968871612,0.0,0.0,-0.4514439229569538,0.0,0.5701522901728064,0.0,71.5,2.0006267062420586,190.5,1.0]},{"name":"Old-growth oak","children":[149],"extras":{"veldrenEntityKey":"overworld:object:6802769"}},{"mesh":3,"matrix":[-0.43445874902149856,0.0,0.6572210166136788,0.0,0.0,0.7878412716277581,0.0,0.0,-0.6572210166136788,0.0,-0.43445874902149856,0.0,85.5,1.8755823820187538,192.5,1.0]},{"name":"Old-growth oak","children":[151],"extras":{"veldrenEntityKey":"overworld:object:6802770"}},{"mesh":3,"matrix":[0.7056798802493672,0.0,-0.17575880113183173,0.0,0.0,0.7272380968871612,0.0,0.0,0.17575880113183173,0.0,0.7056798802493672,0.0,93.5,1.8212704859908229,190.5,1.0]},{"name":"Old-growth oak","children":[153],"extras":{"veldrenEntityKey":"overworld:object:6802899"}},{"mesh":3,"matrix":[-0.19272956472419298,0.0,-0.7012350279651489,0.0,0.0,0.7272380968871612,0.0,0.0,0.7012350279651489,0.0,-0.19272956472419298,0.0,22.5,4.353216383990634,199.5,1.0]},{"name":"Old-growth oak","children":[155],"extras":{"veldrenEntityKey":"overworld:object:6802905"}},{"mesh":3,"matrix":[-0.6292770938807773,0.0,0.36453475647875255,0.0,0.0,0.7272380968871612,0.0,0.0,-0.36453475647875255,0.0,-0.6292770938807773,0.0,70.5,2.2696932235034186,198.5,1.0]},{"name":"Old-growth oak","children":[157],"extras":{"veldrenEntityKey":"overworld:object:6802908"}},{"mesh":3,"matrix":[-0.09566520929706386,0.0,0.7209184539836729,0.0,0.0,0.7272380968871612,0.0,0.0,-0.7209184539836729,0.0,-0.09566520929706386,0.0,91.5,2.0640703568692254,198.5,1.0]},{"name":"Old-growth oak","children":[159],"extras":{"veldrenEntityKey":"overworld:object:6802909"}},{"mesh":3,"matrix":[0.5812119786091244,0.0,-0.4858590424661851,0.0,0.0,0.7575396842574597,0.0,0.0,0.4858590424661851,0.0,0.5812119786091244,0.0,98.5,2.1244065741352287,201.5,1.0]},{"name":"Old-growth oak","children":[161],"extras":{"veldrenEntityKey":"overworld:object:6802912"}},{"mesh":3,"matrix":[-0.029758910133533545,0.0,-0.7569549395390428,0.0,0.0,0.7575396842574597,0.0,0.0,0.7569549395390428,0.0,-0.029758910133533545,0.0,125.5,2.605690525962993,201.5,1.0]},{"name":"Old-growth oak","children":[163],"extras":{"veldrenEntityKey":"overworld:object:6803037"}},{"mesh":3,"matrix":[0.7230162627565188,0.0,0.07824789680021209,0.0,0.0,0.7272380968871612,0.0,0.0,-0.07824789680021209,0.0,0.7230162627565188,0.0,23.5,4.387224064328416,205.5,1.0]},{"name":"Old-growth oak","children":[165],"extras":{"veldrenEntityKey":"overworld:object:6803042"}},{"mesh":3,"matrix":[0.6130122233546478,0.0,0.49488370684215727,0.0,0.0,0.7878412716277581,0.0,0.0,-0.49488370684215727,0.0,0.6130122233546478,0.0,62.5,2.8905729662499042,209.5,1.0]},{"name":"Old-growth oak","children":[167],"extras":{"veldrenEntityKey":"overworld:object:6803043"}},{"mesh":3,"matrix":[-0.10797838940144859,0.0,-0.7191772500478093,0.0,0.0,0.7272380968871612,0.0,0.0,0.7191772500478093,0.0,-0.10797838940144859,0.0,68.5,2.579816881443692,205.5,1.0]},{"name":"Old-growth oak","children":[169],"extras":{"veldrenEntityKey":"overworld:object:6803044"}},{"mesh":3,"matrix":[-0.4237064748389994,0.0,0.6279643273342842,0.0,0.0,0.7575396842574597,0.0,0.0,-0.6279643273342842,0.0,-0.4237064748389994,0.0,74.5,2.424176602643256,204.5,1.0]},{"name":"Old-growth oak","children":[171],"extras":{"veldrenEntityKey":"overworld:object:6803045"}},{"mesh":3,"matrix":[0.7662530346129502,0.0,-0.18316701729975227,0.0,0.0,0.7878412716277581,0.0,0.0,0.18316701729975227,0.0,0.7662530346129502,0.0,87.5,2.5192194122105174,209.5,1.0]},{"name":"Old-growth oak","children":[173],"extras":{"veldrenEntityKey":"overworld:object:6803048"}},{"mesh":3,"matrix":[0.32293455925344333,0.0,-0.71861473664254,0.0,0.0,0.7878412716277581,0.0,0.0,0.71861473664254,0.0,0.32293455925344333,0.0,110.5,2.1998947615415188,208.5,1.0]},{"name":"Old-growth oak","children":[175],"extras":{"veldrenEntityKey":"overworld:object:6803175"}},{"mesh":3,"matrix":[-0.3382912677751658,0.0,0.6437656931765867,0.0,0.0,0.7272380968871612,0.0,0.0,-0.6437656931765867,0.0,-0.3382912677751658,0.0,23.5,4.5840463205228374,216.5,1.0]},{"name":"Old-growth oak","children":[177],"extras":{"veldrenEntityKey":"overworld:object:6803178"}},{"mesh":3,"matrix":[0.3031544555087656,0.0,0.6610390500335392,0.0,0.0,0.7272380968871612,0.0,0.0,-0.6610390500335392,0.0,0.3031544555087656,0.0,45.5,3.66353921230073,215.5,1.0]},{"name":"Old-growth oak","children":[179],"extras":{"veldrenEntityKey":"overworld:object:6803181"}},{"mesh":3,"matrix":[0.7085820522156578,0.0,0.16366650494803991,0.0,0.0,0.7272380968871612,0.0,0.0,-0.16366650494803991,0.0,0.7085820522156578,0.0,67.5,3.049283569636272,215.5,1.0]},{"name":"Old-growth oak","children":[181],"extras":{"veldrenEntityKey":"overworld:object:6803182"}},{"mesh":3,"matrix":[-0.4284934799758048,0.0,-0.6247077003232121,0.0,0.0,0.7575396842574597,0.0,0.0,0.6247077003232121,0.0,-0.4284934799758048,0.0,75.5,2.9655614107942196,216.5,1.0]},{"name":"Old-growth oak","children":[183],"extras":{"veldrenEntityKey":"overworld:object:6803184"}},{"mesh":3,"matrix":[0.5623495786491203,0.0,-0.4611270984850241,0.0,0.0,0.7272380968871612,0.0,0.0,0.4611270984850241,0.0,0.5623495786491203,0.0,89.5,2.7547487735400615,214.5,1.0]},{"name":"Old-growth oak","children":[185],"extras":{"veldrenEntityKey":"overworld:object:6803188"}},{"mesh":3,"matrix":[-0.4953714585597227,0.0,0.5731260692633905,0.0,0.0,0.7575396842574597,0.0,0.0,-0.5731260692633905,0.0,-0.4953714585597227,0.0,127.5,3.318955947876657,217.5,1.0]},{"name":"Old-growth oak","children":[187],"extras":{"veldrenEntityKey":"overworld:object:6803314"}},{"mesh":3,"matrix":[-0.023972816778971794,0.0,0.7571602718583256,0.0,0.0,0.7575396842574597,0.0,0.0,-0.7571602718583256,0.0,-0.023972816778971794,0.0,25.5,4.603180371154134,221.5,1.0]},{"name":"Old-growth oak","children":[189],"extras":{"veldrenEntityKey":"overworld:object:6803315"}},{"mesh":3,"matrix":[0.5508392838677314,0.0,-0.5632672124561555,0.0,0.0,0.7878412716277581,0.0,0.0,0.5632672124561555,0.0,0.5508392838677314,0.0,38.5,4.261642613959441,225.5,1.0]},{"name":"Old-growth oak","children":[191],"extras":{"veldrenEntityKey":"overworld:object:6803316"}},{"mesh":3,"matrix":[-0.726179606519274,0.0,0.03922280764520223,0.0,0.0,0.7272380968871612,0.0,0.0,-0.03922280764520223,0.0,-0.726179606519274,0.0,44.5,3.886810591102417,220.5,1.0]},{"name":"Old-growth oak","children":[193],"extras":{"veldrenEntityKey":"overworld:object:6803317"}},{"mesh":3,"matrix":[0.5849083071409783,0.0,0.4814027892133224,0.0,0.0,0.7575396842574597,0.0,0.0,-0.4814027892133224,0.0,0.5849083071409783,0.0,50.5,3.7023905261930636,220.5,1.0]},{"name":"Old-growth oak","children":[195],"extras":{"veldrenEntityKey":"overworld:object:6803318"}},{"mesh":3,"matrix":[-0.10960323828875197,0.0,-0.7801801070500721,0.0,0.0,0.7878412716277581,0.0,0.0,0.7801801070500721,0.0,-0.10960323828875197,0.0,63.5,3.6306540380855545,225.5,1.0]},{"name":"Old-growth oak","children":[197],"extras":{"veldrenEntityKey":"overworld:object:6803321"}},{"mesh":3,"matrix":[-0.6847151635182822,0.0,-0.3896909212801537,0.0,0.0,0.7878412716277581,0.0,0.0,0.3896909212801537,0.0,-0.6847151635182822,0.0,85.5,3.35815798240604,225.5,1.0]},{"name":"Old-growth oak","children":[199],"extras":{"veldrenEntityKey":"overworld:object:6803322"}},{"mesh":3,"matrix":[0.22239951998397534,0.0,0.6923970703829974,0.0,0.0,0.7272380968871612,0.0,0.0,-0.6923970703829974,0.0,0.22239951998397534,0.0,89.5,3.1194837691907336,221.5,1.0]},{"name":"Old-growth oak","children":[201],"extras":{"veldrenEntityKey":"overworld:object:6803451"}},{"mesh":3,"matrix":[0.686831048555902,0.0,-0.23903631586782018,0.0,0.0,0.7272380968871612,0.0,0.0,0.23903631586782018,0.0,0.686831048555902,0.0,21.5,3.4398672043074057,232.5,1.0]},{"name":"Old-growth oak","children":[203],"extras":{"veldrenEntityKey":"overworld:object:6803452"}},{"mesh":3,"matrix":[-0.6954553431542481,0.0,-0.3003468643137442,0.0,0.0,0.7575396842574597,0.0,0.0,0.3003468643137442,0.0,-0.6954553431542481,0.0,26.5,4.8026897409931415,231.5,1.0]},{"name":"Old-growth oak","children":[205],"extras":{"veldrenEntityKey":"overworld:object:6803454"}},{"mesh":3,"matrix":[0.23018970162818886,0.0,-0.6898463240667341,0.0,0.0,0.7272380968871612,0.0,0.0,0.6898463240667341,0.0,0.23018970162818886,0.0,42.5,4.418182432612206,232.5,1.0]},{"name":"Old-growth oak","children":[207],"extras":{"veldrenEntityKey":"overworld:object:6803455"}},{"mesh":3,"matrix":[-0.6625615804157639,0.0,0.36725811819734766,0.0,0.0,0.7575396842574597,0.0,0.0,-0.36725811819734766,0.0,-0.6625615804157639,0.0,52.5,4.152448589975414,231.5,1.0]},{"name":"Old-growth oak","children":[209],"extras":{"veldrenEntityKey":"overworld:object:6803457"}},{"mesh":3,"matrix":[-0.40566373103124226,0.0,-0.6035827920756788,0.0,0.0,0.7272380968871612,0.0,0.0,0.6035827920756788,0.0,-0.40566373103124226,0.0,65.5,3.9184683878227515,231.5,1.0]},{"name":"Old-growth oak","children":[211],"extras":{"veldrenEntityKey":"overworld:object:6803458"}},{"mesh":3,"matrix":[-0.11383656364139995,0.0,0.7489376542831915,0.0,0.0,0.7575396842574597,0.0,0.0,-0.7489376542831915,0.0,-0.11383656364139995,0.0,78.5,3.8167731571672454,232.5,1.0]},{"name":"Old-growth oak","children":[213],"extras":{"veldrenEntityKey":"overworld:object:6803590"}},{"mesh":3,"matrix":[0.5347514734936696,0.0,-0.5365698787867624,0.0,0.0,0.7575396842574597,0.0,0.0,0.5365698787867624,0.0,0.5347514734936696,0.0,27.5,4.6967998848575245,237.5,1.0]},{"name":"Old-growth oak","children":[215],"extras":{"veldrenEntityKey":"overworld:object:6803591"}},{"mesh":3,"matrix":[-0.787061238890006,0.0,0.03504961507594277,0.0,0.0,0.7878412716277581,0.0,0.0,-0.03504961507594277,0.0,-0.787061238890006,0.0,39.5,4.830298928425429,241.5,1.0]},{"name":"Old-growth oak","children":[217],"extras":{"veldrenEntityKey":"overworld:object:6803593"}},{"mesh":3,"matrix":[-0.09828854491470827,0.0,-0.7511362959965662,0.0,0.0,0.7575396842574597,0.0,0.0,0.7511362959965662,0.0,-0.09828854491470827,0.0,54.5,4.409534980640421,237.5,1.0]},{"name":"Old-growth oak","children":[219],"extras":{"veldrenEntityKey":"overworld:object:6803594"}},{"mesh":3,"matrix":[-0.45292791647204134,0.0,0.6446318110055836,0.0,0.0,0.7878412716277581,0.0,0.0,-0.6446318110055836,0.0,-0.45292791647204134,0.0,60.5,4.533679372149888,241.5,1.0]},{"name":"Old-growth oak","children":[221],"extras":{"veldrenEntityKey":"overworld:object:6803595"}},{"mesh":3,"matrix":[0.7103817963750602,0.0,-0.15566937060000816,0.0,0.0,0.7272380968871612,0.0,0.0,0.15566937060000816,0.0,0.7103817963750602,0.0,66.5,4.182748529446923,236.5,1.0]},{"name":"Old-growth oak","children":[223],"extras":{"veldrenEntityKey":"overworld:object:6803597"}},{"mesh":3,"matrix":[0.2338282882847174,0.0,0.7523418111987941,0.0,0.0,0.7878412716277581,0.0,0.0,-0.7523418111987941,0.0,0.2338282882847174,0.0,82.5,4.3216092011569955,241.5,1.0]},{"name":"Old-growth oak","children":[225],"extras":{"veldrenEntityKey":"overworld:object:6803728"}},{"mesh":3,"matrix":[0.3027059865754321,0.0,0.694431752525967,0.0,0.0,0.7575396842574597,0.0,0.0,-0.694431752525967,0.0,0.3027059865754321,0.0,29.5,4.293734791739181,246.5,1.0]},{"name":"Old-growth oak","children":[227],"extras":{"veldrenEntityKey":"overworld:object:6803730"}},{"mesh":3,"matrix":[-0.6393649465089285,0.0,0.34653674370792925,0.0,0.0,0.7272380968871612,0.0,0.0,-0.34653674370792925,0.0,-0.6393649465089285,0.0,41.5,5.077675020491452,248.5,1.0]},{"name":"Old-growth oak","children":[229],"extras":{"veldrenEntityKey":"overworld:object:6803731"}},{"mesh":3,"matrix":[0.7347498108444346,0.0,0.18441553266728716,0.0,0.0,0.7575396842574597,0.0,0.0,-0.18441553266728716,0.0,0.7347498108444346,0.0,55.5,4.902026487747014,247.5,1.0]},{"name":"Old-growth oak","children":[231],"extras":{"veldrenEntityKey":"overworld:object:6803733"}},{"mesh":3,"matrix":[-0.11607769069877419,0.0,0.7179144930185627,0.0,0.0,0.7272380968871612,0.0,0.0,-0.7179144930185627,0.0,-0.11607769069877419,0.0,67.5,4.854354332730345,248.5,1.0]},{"name":"Old-growth oak","children":[233],"extras":{"veldrenEntityKey":"overworld:object:6803734"}},{"mesh":3,"matrix":[0.594760896306473,0.0,-0.46917571276613673,0.0,0.0,0.7575396842574597,0.0,0.0,0.46917571276613673,0.0,0.594760896306473,0.0,79.5,4.7045557477155615,247.5,1.0]},{"name":"Old-growth oak","children":[235],"extras":{"veldrenEntityKey":"overworld:object:6803866"}},{"mesh":3,"matrix":[-0.7570745289305655,0.0,0.026543000385299432,0.0,0.0,0.7575396842574597,0.0,0.0,-0.026543000385299432,0.0,-0.7570745289305655,0.0,30.5,3.5334394005308893,254.5,1.0]},{"name":"Old-growth oak","children":[237],"extras":{"veldrenEntityKey":"overworld:object:6803869"}},{"mesh":3,"matrix":[-0.4413500171231121,0.0,0.6156919161482635,0.0,0.0,0.7575396842574597,0.0,0.0,-0.6156919161482635,0.0,-0.4413500171231121,0.0,55.5,5.202659445682691,253.5,1.0]},{"name":"Old-growth oak","children":[239],"extras":{"veldrenEntityKey":"overworld:object:6803872"}},{"mesh":3,"matrix":[0.21798350950702428,0.0,0.7254995264008742,0.0,0.0,0.7575396842574597,0.0,0.0,-0.7254995264008742,0.0,0.21798350950702428,0.0,77.5,5.07319209905091,253.5,1.0]},{"name":"Old-growth oak","children":[241],"extras":{"veldrenEntityKey":"overworld:object:6803877"}},{"mesh":3,"matrix":[-0.20062124761833172,0.0,0.6990181432324373,0.0,0.0,0.7272380968871612,0.0,0.0,-0.6990181432324373,0.0,-0.20062124761833172,0.0,118.5,4.7472945128705355,253.5,1.0]},{"name":"Tree","children":[243],"extras":{"veldrenEntityKey":"overworld:object:9104861"}},{"mesh":3,"matrix":[-0.5070518498172725,0.0,0.602986144846567,0.0,0.0,0.7878412716277581,0.0,0.0,-0.602986144846567,0.0,-0.5070518498172725,0.0,75.5,2.551423388309647,130.5,1.0]},{"name":"Tree","children":[245],"extras":{"veldrenEntityKey":"overworld:object:9104864"}},{"mesh":3,"matrix":[0.1677965300927528,0.0,0.7697650250361306,0.0,0.0,0.7878412716277581,0.0,0.0,-0.7697650250361306,0.0,0.1677965300927528,0.0,69.5,2.6377582504026,130.5,1.0]},{"name":"Tree","children":[247],"extras":{"veldrenEntityKey":"overworld:object:9104866"}},{"mesh":3,"matrix":[-0.7236520748327315,0.0,0.22404028167982293,0.0,0.0,0.7575396842574597,0.0,0.0,-0.22404028167982293,0.0,-0.7236520748327315,0.0,80.5,2.476492331360153,131.5,1.0]},{"name":"Tree","children":[249],"extras":{"veldrenEntityKey":"overworld:object:9104872"}},{"mesh":3,"matrix":[0.4005128079141708,0.0,0.6430053373974419,0.0,0.0,0.7575396842574597,0.0,0.0,-0.6430053373974419,0.0,0.4005128079141708,0.0,63.5,2.758892473582163,130.5,1.0]},{"name":"Tree","children":[251],"extras":{"veldrenEntityKey":"overworld:object:9104881"}},{"mesh":3,"matrix":[-0.1183874864643961,0.0,-0.7482317664156836,0.0,0.0,0.7575396842574597,0.0,0.0,0.7482317664156836,0.0,-0.1183874864643961,0.0,90.5,2.3662950961210876,133.5,1.0]},{"name":"Willow tree","children":[253],"extras":{"veldrenEntityKey":"overworld:object:9104883"}},{"mesh":5,"matrix":[0.8144043693614109,0.0,-0.2014862883292451,0.0,0.0,0.8389584025562012,0.0,0.0,0.2014862883292451,0.0,0.8144043693614109,0.0,99.5,1.5223437393527028,129.5,1.0]},{"name":"Tree","children":[255],"extras":{"veldrenEntityKey":"overworld:object:9104884"}},{"mesh":3,"matrix":[-0.6647820138704282,0.0,-0.3632234123225943,0.0,0.0,0.7575396842574597,0.0,0.0,0.3632234123225943,0.0,-0.6647820138704282,0.0,84.5,2.4578508861564643,131.5,1.0]},{"name":"Willow tree","children":[257],"extras":{"veldrenEntityKey":"overworld:object:9104886"}},{"mesh":5,"matrix":[0.3378360887147389,0.0,-0.7679309724067522,0.0,0.0,0.8389584025562012,0.0,0.0,0.7679309724067522,0.0,0.3378360887147389,0.0,95.5,2.008357974692537,135.5,1.0]},{"name":"Tree","children":[259],"extras":{"veldrenEntityKey":"overworld:object:9105801"}},{"mesh":3,"matrix":[-0.7012614777326854,0.0,0.19263330296766046,0.0,0.0,0.7272380968871612,0.0,0.0,-0.19263330296766046,0.0,-0.7012614777326854,0.0,50.5,2.519694765331486,155.5,1.0]},{"name":"Tree","children":[261],"extras":{"veldrenEntityKey":"overworld:object:9105804"}},{"mesh":3,"matrix":[-0.27574651678200895,0.0,0.6729332121738749,0.0,0.0,0.7272380968871612,0.0,0.0,-0.6729332121738749,0.0,-0.27574651678200895,0.0,44.5,2.822221044333698,154.5,1.0]},{"name":"Tree","children":[263],"extras":{"veldrenEntityKey":"overworld:object:9105806"}},{"mesh":3,"matrix":[-0.7518840176297624,0.0,-0.23529618210453396,0.0,0.0,0.7878412716277581,0.0,0.0,0.23529618210453396,0.0,-0.7518840176297624,0.0,55.5,2.267427538486241,158.5,1.0]},{"name":"Tree","children":[265],"extras":{"veldrenEntityKey":"overworld:object:9105810"}},{"mesh":3,"matrix":[0.720905315214279,0.0,0.09576416897702947,0.0,0.0,0.7272380968871612,0.0,0.0,-0.09576416897702947,0.0,0.720905315214279,0.0,49.5,2.898653147621046,139.5,1.0]},{"name":"Tree","children":[267],"extras":{"veldrenEntityKey":"overworld:object:9105811"}},{"mesh":3,"matrix":[-0.48577925483560397,0.0,-0.5812786670748007,0.0,0.0,0.7575396842574597,0.0,0.0,0.5812786670748007,0.0,-0.48577925483560397,0.0,62.5,2.0239590831345895,157.5,1.0]},{"name":"Tree","children":[269],"extras":{"veldrenEntityKey":"overworld:object:9105812"}},{"mesh":3,"matrix":[-0.036585647627898656,0.0,0.7869913339215941,0.0,0.0,0.7878412716277581,0.0,0.0,-0.7869913339215941,0.0,-0.036585647627898656,0.0,39.5,3.111714693472618,152.5,1.0]},{"name":"Tree","children":[271],"extras":{"veldrenEntityKey":"overworld:object:9105821"}},{"mesh":3,"matrix":[0.34027205163816376,0.0,-0.7105693492925217,0.0,0.0,0.7878412716277581,0.0,0.0,0.7105693492925217,0.0,0.34027205163816376,0.0,71.5,2.1094937751806095,143.5,1.0]},{"name":"Tree","children":[273],"extras":{"veldrenEntityKey":"overworld:object:9105823"}},{"mesh":3,"matrix":[0.7087138807611459,0.0,0.26756496116152395,0.0,0.0,0.7575396842574597,0.0,0.0,-0.26756496116152395,0.0,0.7087138807611459,0.0,80.5,2.02134565257713,142.5,1.0]},{"name":"Willow tree","children":[275],"extras":{"veldrenEntityKey":"overworld:object:9105860"}},{"mesh":5,"matrix":[0.8233016027934187,0.0,-0.38499618330325736,0.0,0.0,0.9088716027692181,0.0,0.0,0.38499618330325736,0.0,0.8233016027934187,0.0,124.5,1.5359752767092814,142.5,1.0]},{"name":"Tree","children":[277],"extras":{"veldrenEntityKey":"overworld:object:9105861"}},{"mesh":3,"matrix":[-0.6936347278671455,0.0,-0.21850884160768205,0.0,0.0,0.7272380968871612,0.0,0.0,0.21850884160768205,0.0,-0.6936347278671455,0.0,120.5,2.472365107913505,147.5,1.0]},{"name":"Willow tree","children":[279],"extras":{"veldrenEntityKey":"overworld:object:9105862"}},{"mesh":5,"matrix":[0.4365228861782517,0.0,0.7570833518983051,0.0,0.0,0.8739150026627096,0.0,0.0,-0.7570833518983051,0.0,0.4365228861782517,0.0,121.5,1.5508003287045513,137.5,1.0]},{"name":"Willow tree","children":[281],"extras":{"veldrenEntityKey":"overworld:object:9105864"}},{"mesh":5,"matrix":[-0.6883056814215573,0.0,0.47967331606256614,0.0,0.0,0.8389584025562012,0.0,0.0,-0.47967331606256614,0.0,-0.6883056814215573,0.0,113.5,2.2802893359267262,144.5,1.0]},{"name":"Maple tree","children":[283],"extras":{"veldrenEntityKey":"overworld:object:9105866"}},{"mesh":7,"matrix":[-0.46533751869201007,0.0,-0.5589635497322936,0.0,0.0,0.7273096013609082,0.0,0.0,0.5589635497322936,0.0,-0.46533751869201007,0.0,122.5,2.446448398347331,152.5,1.0]},{"name":"Willow tree","children":[285],"extras":{"veldrenEntityKey":"overworld:object:9105867"}},{"mesh":5,"matrix":[-0.040544482532258154,0.0,0.8379781298792018,0.0,0.0,0.8389584025562012,0.0,0.0,-0.8379781298792018,0.0,-0.040544482532258154,0.0,115.5,2.3394538212698928,136.5,1.0]},{"name":"Willow tree","children":[287],"extras":{"veldrenEntityKey":"overworld:object:9105869"}},{"mesh":5,"matrix":[-0.9082406091613198,0.0,0.03386127863153042,0.0,0.0,0.9088716027692181,0.0,0.0,-0.03386127863153042,0.0,-0.9082406091613198,0.0,113.5,2.1456463643364394,151.5,1.0]},{"name":"Willow tree","children":[289],"extras":{"veldrenEntityKey":"overworld:object:9105870"}},{"mesh":5,"matrix":[0.6387822501045559,0.0,0.5438827430347589,0.0,0.0,0.8389584025562012,0.0,0.0,-0.5438827430347589,0.0,0.6387822501045559,0.0,123.5,0.6348592877763527,132.5,1.0]},{"name":"Willow tree","children":[291],"extras":{"veldrenEntityKey":"overworld:object:9105872"}},{"mesh":5,"matrix":[-0.5278767133845123,0.0,0.7398606394360041,0.0,0.0,0.9088716027692181,0.0,0.0,-0.7398606394360041,0.0,-0.5278767133845123,0.0,109.5,0.7852155475733419,140.5,1.0]},{"name":"Oak tree","children":[293],"extras":{"veldrenEntityKey":"overworld:object:9106762"}},{"mesh":4,"matrix":[-0.9356688801737663,0.0,-0.21112551574230706,0.0,0.0,0.9591924920072534,0.0,0.0,0.21112551574230706,0.0,-0.9356688801737663,0.0,42.5,2.855158026527272,172.5,1.0]},{"name":"Willow tree","children":[295],"extras":{"veldrenEntityKey":"overworld:object:9106820"}},{"mesh":5,"matrix":[-0.7009644619655439,0.0,0.5785295268019109,0.0,0.0,0.9088716027692181,0.0,0.0,-0.5785295268019109,0.0,-0.7009644619655439,0.0,116.5,1.97747603644837,165.5,1.0]},{"name":"Willow tree","children":[297],"extras":{"veldrenEntityKey":"overworld:object:9106822"}},{"mesh":5,"matrix":[-0.6118728201679845,0.0,-0.623970419025326,0.0,0.0,0.8739150026627096,0.0,0.0,0.623970419025326,0.0,-0.6118728201679845,0.0,108.5,0.8401432785957345,163.5,1.0]},{"name":"Yew tree","children":[299],"extras":{"veldrenEntityKey":"overworld:object:9106825"}},{"mesh":6,"matrix":[-0.83390629478405,0.0,0.09939122065767442,0.0,0.0,0.8398085039009104,0.0,0.0,-0.09939122065767442,0.0,-0.83390629478405,0.0,114.5,2.0971088112508953,159.5,1.0]},{"name":"Willow tree","children":[301],"extras":{"veldrenEntityKey":"overworld:object:9106826"}},{"mesh":5,"matrix":[0.7376114767421588,0.0,0.5310149712564978,0.0,0.0,0.9088716027692181,0.0,0.0,-0.5310149712564978,0.0,0.7376114767421588,0.0,120.5,0.885270040999521,173.5,1.0]},{"name":"Maple tree","children":[303],"extras":{"veldrenEntityKey":"overworld:object:9106828"}},{"mesh":7,"matrix":[-0.35856592626437295,0.0,0.6004177998933392,0.0,0.0,0.6993361551547194,0.0,0.0,-0.6004177998933392,0.0,-0.35856592626437295,0.0,122.5,2.3101574527572803,161.5,1.0]},{"name":"Willow tree","children":[305],"extras":{"veldrenEntityKey":"overworld:object:9106830"}},{"mesh":5,"matrix":[-0.7544339569623623,0.0,-0.36698856358443305,0.0,0.0,0.8389584025562012,0.0,0.0,0.36698856358443305,0.0,-0.7544339569623623,0.0,107.5,0.7597041347544491,157.5,1.0]},{"name":"Oak tree","children":[307],"extras":{"veldrenEntityKey":"overworld:object:9106831"}},{"mesh":4,"matrix":[0.35173724588899,0.0,0.8923738827293821,0.0,0.0,0.9591924920072534,0.0,0.0,-0.8923738827293821,0.0,0.35173724588899,0.0,127.5,2.46418620583497,170.5,1.0]},{"name":"Tree","children":[309],"extras":{"veldrenEntityKey":"overworld:object:9107720"}},{"mesh":3,"matrix":[0.04327074612468755,0.0,-0.7866520907045602,0.0,0.0,0.7878412716277581,0.0,0.0,0.7866520907045602,0.0,0.04327074612468755,0.0,48.5,2.900793058781153,195.5,1.0]},{"name":"Oak tree","children":[311],"extras":{"veldrenEntityKey":"overworld:object:9107721"}},{"mesh":4,"matrix":[-0.658981315391668,0.0,0.6431655495505509,0.0,0.0,0.9208247923269633,0.0,0.0,-0.6431655495505509,0.0,-0.658981315391668,0.0,43.5,3.2306442386453913,199.5,1.0]},{"name":"Maple tree","children":[313],"extras":{"veldrenEntityKey":"overworld:object:9107722"}},{"mesh":7,"matrix":[0.6990074763524075,0.0,-0.0214384213510292,0.0,0.0,0.6993361551547194,0.0,0.0,0.0214384213510292,0.0,0.6990074763524075,0.0,45.5,2.8948262392387814,188.5,1.0]},{"name":"Yew tree","children":[315],"extras":{"veldrenEntityKey":"overworld:object:9107723"}},{"mesh":6,"matrix":[-0.6612524925767336,0.0,-0.5705910755176986,0.0,0.0,0.8734008440569468,0.0,0.0,0.5705910755176986,0.0,-0.6612524925767336,0.0,52.5,2.984197538540063,201.5,1.0]},{"name":"Tree","children":[317],"extras":{"veldrenEntityKey":"overworld:object:9107724"}},{"mesh":3,"matrix":[0.0843664628672088,0.0,0.7223278684277217,0.0,0.0,0.7272380968871612,0.0,0.0,-0.7223278684277217,0.0,0.0843664628672088,0.0,38.5,3.4055846416405995,196.5,1.0]},{"name":"Oak tree","children":[319],"extras":{"veldrenEntityKey":"overworld:object:9107725"}},{"mesh":4,"matrix":[0.5622483333615558,0.0,-0.7771274337939935,0.0,0.0,0.9591924920072534,0.0,0.0,0.7771274337939935,0.0,0.5622483333615558,0.0,51.5,2.6470917298153473,190.5,1.0]},{"name":"Maple tree","children":[321],"extras":{"veldrenEntityKey":"overworld:object:9107726"}},{"mesh":7,"matrix":[-0.7125385986615071,0.0,0.14583552944759007,0.0,0.0,0.7273096013609082,0.0,0.0,-0.14583552944759007,0.0,-0.7125385986615071,0.0,45.5,3.328350642257996,205.5,1.0]},{"name":"Yew tree","children":[323],"extras":{"veldrenEntityKey":"overworld:object:9107727"}},{"mesh":6,"matrix":[0.6912039535441621,0.0,0.41499590032724554,0.0,0.0,0.8062161637448739,0.0,0.0,-0.41499590032724554,0.0,0.6912039535441621,0.0,39.5,3.2647729762700646,188.5,1.0]},{"name":"Tree","children":[325],"extras":{"veldrenEntityKey":"overworld:object:9107728"}},{"mesh":3,"matrix":[-0.21479980893601183,0.0,-0.7264484945995445,0.0,0.0,0.7575396842574597,0.0,0.0,0.7264484945995445,0.0,-0.21479980893601183,0.0,56.5,2.6374824911256884,197.5,1.0]},{"name":"Oak tree","children":[327],"extras":{"veldrenEntityKey":"overworld:object:9107729"}},{"mesh":4,"matrix":[-0.43847918189985885,0.0,0.896025860720615,0.0,0.0,0.9975601916875435,0.0,0.0,-0.896025860720615,0.0,-0.43847918189985885,0.0,36.5,3.6432452521447143,202.5,1.0]},{"name":"Tree","children":[329],"extras":{"veldrenEntityKey":"overworld:object:9107732"}},{"mesh":3,"matrix":[0.3488534140715682,0.0,0.7063958980420638,0.0,0.0,0.7878412716277581,0.0,0.0,-0.7063958980420638,0.0,0.3488534140715682,0.0,33.5,3.582952098349708,191.5,1.0]},{"name":"Tree","children":[331],"extras":{"veldrenEntityKey":"overworld:object:9108660"}},{"mesh":3,"matrix":[0.44500591980428394,0.0,-0.5751912559342356,0.0,0.0,0.7272380968871612,0.0,0.0,0.5751912559342356,0.0,0.44500591980428394,0.0,22.5,4.5063083288795145,209.5,1.0]},{"name":"Oak tree","children":[333],"extras":{"veldrenEntityKey":"overworld:object:9108661"}},{"mesh":4,"matrix":[-0.9454096836951085,0.0,0.16202088352616703,0.0,0.0,0.9591924920072534,0.0,0.0,-0.16202088352616703,0.0,-0.9454096836951085,0.0,28.5,4.292194222103443,213.5,1.0]},{"name":"Maple tree","children":[335],"extras":{"veldrenEntityKey":"overworld:object:9108662"}},{"mesh":7,"matrix":[0.611195662815281,0.0,0.3942323147429095,0.0,0.0,0.7273096013609082,0.0,0.0,-0.3942323147429095,0.0,0.611195662815281,0.0,17.5,3.6642770474935538,213.5,1.0]},{"name":"Willow tree","children":[337],"extras":{"veldrenEntityKey":"overworld:object:9108665"}},{"mesh":5,"matrix":[0.8565547348109637,0.0,-0.3039104746355529,0.0,0.0,0.9088716027692181,0.0,0.0,0.3039104746355529,0.0,0.8565547348109637,0.0,15.5,2.864589895072505,207.5,1.0]},{"name":"Maple tree","children":[339],"extras":{"veldrenEntityKey":"overworld:object:9108666"}},{"mesh":7,"matrix":[-0.6179356097743142,0.0,-0.2624566042978455,0.0,0.0,0.6713627089485306,0.0,0.0,0.2624566042978455,0.0,-0.6179356097743142,0.0,32.5,3.9980009490651245,208.5,1.0]},{"name":"Yew tree","children":[341],"extras":{"veldrenEntityKey":"overworld:object:9108667"}},{"mesh":6,"matrix":[0.34746410890165813,0.0,0.7645567449506034,0.0,0.0,0.8398085039009104,0.0,0.0,-0.7645567449506034,0.0,0.34746410890165813,0.0,17.5,3.4762944377529883,220.5,1.0]},{"name":"Willow tree","children":[343],"extras":{"veldrenEntityKey":"overworld:object:9108670"}},{"mesh":5,"matrix":[0.8508177162999794,0.0,0.19959119597079297,0.0,0.0,0.8739150026627096,0.0,0.0,-0.19959119597079297,0.0,0.8508177162999794,0.0,10.5,1.163090184794846,212.5,1.0]},{"name":"Oak tree","children":[345],"extras":{"veldrenEntityKey":"overworld:object:9108740"}},{"mesh":4,"matrix":[-0.3659617314889596,0.0,0.928007730099966,0.0,0.0,0.9975601916875435,0.0,0.0,-0.928007730099966,0.0,-0.3659617314889596,0.0,115.5,2.8434674786174536,211.5,1.0]},{"name":"Maple tree","children":[347],"extras":{"veldrenEntityKey":"overworld:object:9108741"}},{"mesh":7,"matrix":[0.6037724467362596,0.0,-0.2935757475147086,0.0,0.0,0.6713627089485306,0.0,0.0,0.2935757475147086,0.0,0.6037724467362596,0.0,119.5,3.2060661138926063,218.5,1.0]},{"name":"Yew tree","children":[349],"extras":{"veldrenEntityKey":"overworld:object:9108742"}},{"mesh":6,"matrix":[-0.804737283856405,0.0,-0.2401587541517097,0.0,0.0,0.8398085039009104,0.0,0.0,0.2401587541517097,0.0,-0.804737283856405,0.0,109.5,2.898785633700758,213.5,1.0]},{"name":"Tree","children":[351],"extras":{"veldrenEntityKey":"overworld:object:9108743"}},{"mesh":3,"matrix":[0.40383158234655475,0.0,0.6764716715277297,0.0,0.0,0.7878412716277581,0.0,0.0,-0.6764716715277297,0.0,0.40383158234655475,0.0,121.5,2.90554582691836,209.5,1.0]},{"name":"Oak tree","children":[353],"extras":{"veldrenEntityKey":"overworld:object:9108744"}},{"mesh":4,"matrix":[0.1869140818902107,0.0,-0.9016548253933624,0.0,0.0,0.9208247923269633,0.0,0.0,0.9016548253933624,0.0,0.1869140818902107,0.0,113.5,3.279523757295781,222.5,1.0]},{"name":"Tree","children":[355],"extras":{"veldrenEntityKey":"overworld:object:9108747"}},{"mesh":3,"matrix":[-0.4737121912121797,0.0,-0.5517898236294463,0.0,0.0,0.7272380968871612,0.0,0.0,0.5517898236294463,0.0,-0.4737121912121797,0.0,106.5,3.0200858342365913,218.5,1.0]},{"name":"Willow tree","children":[357],"extras":{"veldrenEntityKey":"overworld:object:9108748"}},{"mesh":5,"matrix":[-0.02899458423722326,0.0,0.87343388185018,0.0,0.0,0.8739150026627096,0.0,0.0,-0.87343388185018,0.0,-0.02899458423722326,0.0,118.5,1.7695751261646357,204.5,1.0]},{"name":"Maple tree","children":[359],"extras":{"veldrenEntityKey":"overworld:object:9108749"}},{"mesh":7,"matrix":[0.5093135665041593,0.0,-0.5192099259515137,0.0,0.0,0.7273096013609082,0.0,0.0,0.5192099259515137,0.0,0.5093135665041593,0.0,119.5,3.4539974227870807,224.5,1.0]},{"name":"Willow tree","children":[361],"extras":{"veldrenEntityKey":"overworld:object:9108750"}},{"mesh":5,"matrix":[-0.8378056847766797,0.0,0.04396402819956208,0.0,0.0,0.8389584025562012,0.0,0.0,-0.04396402819956208,0.0,-0.8378056847766797,0.0,104.5,2.601834929617215,209.5,1.0]},{"name":"Tree","children":[363],"extras":{"veldrenEntityKey":"overworld:object:9108751"}},{"mesh":3,"matrix":[0.5841696351356148,0.0,0.482298880996436,0.0,0.0,0.7575396842574597,0.0,0.0,-0.482298880996436,0.0,0.5841696351356148,0.0,126.5,3.0680855975964527,210.5,1.0]},{"name":"Tree","children":[365],"extras":{"veldrenEntityKey":"overworld:object:9109621"}},{"mesh":3,"matrix":[0.690984944592304,0.0,-0.31049344529581013,0.0,0.0,0.7575396842574597,0.0,0.0,0.31049344529581013,0.0,0.690984944592304,0.0,34.5,5.077227756684646,246.5,1.0]},{"name":"Willow tree","children":[367],"extras":{"veldrenEntityKey":"overworld:object:9109622"}},{"mesh":5,"matrix":[-0.8626529813946682,0.0,-0.286142314261938,0.0,0.0,0.9088716027692181,0.0,0.0,0.286142314261938,0.0,-0.8626529813946682,0.0,24.5,1.6950186887664531,252.5,1.0]},{"name":"Willow tree","children":[369],"extras":{"veldrenEntityKey":"overworld:object:9109628"}},{"mesh":5,"matrix":[-0.05762659471032696,0.0,0.9070428688338711,0.0,0.0,0.9088716027692181,0.0,0.0,-0.9070428688338711,0.0,-0.05762659471032696,0.0,21.5,2.6365760957003026,238.5,1.0]},{"name":"Oak tree","children":[371],"extras":{"veldrenEntityKey":"overworld:object:9109660"}},{"mesh":4,"matrix":[0.9258432196182804,0.0,0.2507280786229205,0.0,0.0,0.9591924920072534,0.0,0.0,-0.2507280786229205,0.0,0.9258432196182804,0.0,71.5,4.236740371922549,238.5,1.0]},{"name":"Maple tree","children":[373],"extras":{"veldrenEntityKey":"overworld:object:9109661"}},{"mesh":7,"matrix":[-0.3886366446010279,0.0,-0.6147689116286033,0.0,0.0,0.7273096013609082,0.0,0.0,0.6147689116286033,0.0,-0.3886366446010279,0.0,76.5,4.498069716478565,243.5,1.0]},{"name":"Yew tree","children":[375],"extras":{"veldrenEntityKey":"overworld:object:9109662"}},{"mesh":6,"matrix":[-0.14342911314399914,0.0,0.7933552748839748,0.0,0.0,0.8062161637448739,0.0,0.0,-0.7933552748839748,0.0,-0.14342911314399914,0.0,66.5,4.590368325121325,242.5,1.0]},{"name":"Tree","children":[377],"extras":{"veldrenEntityKey":"overworld:object:9109663"}},{"mesh":3,"matrix":[0.6033640491066828,0.0,-0.4580591637228538,0.0,0.0,0.7575396842574597,0.0,0.0,0.4580591637228538,0.0,0.6033640491066828,0.0,76.5,4.012221201917721,235.5,1.0]},{"name":"Oak tree","children":[379],"extras":{"veldrenEntityKey":"overworld:object:9109664"}},{"mesh":4,"matrix":[-0.9932266168532597,0.0,-0.09288284886843408,0.0,0.0,0.9975601916875435,0.0,0.0,0.09288284886843408,0.0,-0.9932266168532597,0.0,73.5,4.863892645051255,249.5,1.0]},{"name":"Oak tree","children":[381],"extras":{"veldrenEntityKey":"overworld:object:9109668"}},{"mesh":4,"matrix":[0.918026716317734,0.0,-0.07173037216461296,0.0,0.0,0.9208247923269633,0.0,0.0,0.07173037216461296,0.0,0.918026716317734,0.0,72.5,3.7634893682656445,230.5,1.0]},{"name":"Tree","children":[383],"extras":{"veldrenEntityKey":"overworld:object:9109671"}},{"mesh":3,"matrix":[0.397938226844693,0.0,-0.6087038830003977,0.0,0.0,0.7272380968871612,0.0,0.0,0.6087038830003977,0.0,0.397938226844693,0.0,82.5,3.8430301598383365,233.5,1.0]},{"name":"Oak tree","children":[385],"extras":{"veldrenEntityKey":"overworld:object:9109700"}},{"mesh":4,"matrix":[0.12243337661667462,0.0,-0.9900183858544891,0.0,0.0,0.9975601916875435,0.0,0.0,0.9900183858544891,0.0,0.12243337661667462,0.0,116.5,4.483273949788318,247.5,1.0]},{"name":"Maple tree","children":[387],"extras":{"veldrenEntityKey":"overworld:object:9109701"}},{"mesh":7,"matrix":[-0.5112477090683708,0.0,0.4351478679013053,0.0,0.0,0.6713627089485306,0.0,0.0,-0.4351478679013053,0.0,-0.5112477090683708,0.0,120.5,4.254072399446823,242.5,1.0]},{"name":"Tree","children":[389],"extras":{"veldrenEntityKey":"overworld:object:9109703"}},{"mesh":3,"matrix":[-0.5600733456367482,0.0,-0.5540863802579004,0.0,0.0,0.7878412716277581,0.0,0.0,0.5540863802579004,0.0,-0.5600733456367482,0.0,111.5,4.255768367022395,242.5,1.0]},{"name":"Maple tree","children":[391],"extras":{"veldrenEntityKey":"overworld:object:9109705"}},{"mesh":7,"matrix":[0.4475296799688163,0.0,-0.5373902152566554,0.0,0.0,0.6993361551547194,0.0,0.0,0.5373902152566554,0.0,0.4475296799688163,0.0,111.5,4.871550500540634,254.5,1.0]},{"name":"Tree","children":[393],"extras":{"veldrenEntityKey":"overworld:object:9109707"}},{"mesh":3,"matrix":[0.5965776649610955,0.0,0.4158970296042363,0.0,0.0,0.7272380968871612,0.0,0.0,-0.4158970296042363,0.0,0.5965776649610955,0.0,125.5,4.715307831891817,254.5,1.0]},{"name":"Oak tree","children":[395],"extras":{"veldrenEntityKey":"overworld:object:9109708"}},{"mesh":4,"matrix":[-0.2087634890271853,0.0,-0.9361987194886998,0.0,0.0,0.9591924920072534,0.0,0.0,0.9361987194886998,0.0,-0.2087634890271853,0.0,107.5,4.476552412257194,246.5,1.0]},{"name":"Maple tree","children":[397],"extras":{"veldrenEntityKey":"overworld:object:9109709"}},{"mesh":7,"matrix":[-0.3633983245463779,0.0,0.6300165981532936,0.0,0.0,0.7273096013609082,0.0,0.0,-0.6300165981532936,0.0,-0.3633983245463779,0.0,126.5,4.133527612684402,239.5,1.0]},{"name":"Yew tree","children":[399],"extras":{"veldrenEntityKey":"overworld:object:9110627"}},{"mesh":6,"matrix":[0.4169219899467089,0.0,-0.7674666694380047,0.0,0.0,0.8734008440569468,0.0,0.0,0.7674666694380047,0.0,0.4169219899467089,0.0,67.5,5.208424495226433,253.5,1.0]},{"name":"Tree","children":[401],"extras":{"veldrenEntityKey":"overworld:object:9110645"}},{"mesh":3,"matrix":[0.7586949344329358,0.0,-0.21231077632999718,0.0,0.0,0.7878412716277581,0.0,0.0,0.21231077632999718,0.0,0.7586949344329358,0.0,103.5,4.988873852254077,255.5,1.0]},{"name":"Oak tree","children":[403],"extras":{"veldrenEntityKey":"overworld:object:9110650"}},{"mesh":4,"matrix":[0.9167720142552326,0.0,0.282098051396121,0.0,0.0,0.9591924920072534,0.0,0.0,-0.282098051396121,0.0,0.9167720142552326,0.0,97.5,4.871551879649303,252.5,1.0]}],"buffers":[{"uri":"../world-parts/fd226230644175fe3822cb428a311c212fc80d03f23637b784d81d600258c56a.bin","byteLength":33588},{"uri":"../world-parts/2506d93b76d310984001c5dabe16741967c5181ca1e7b8dff6ac2e880b200a9c.bin","byteLength":162000},{"uri":"../world-parts/78db525a718b93747dbae265b16b2d6fb0efee8549a862f63542db8a4145dc35.bin","byteLength":23868},{"uri":"../world-parts/8480a643e36c0194bf11e79cbc019e38e5ff72b8bc295b144212e5f7a5b37347.bin","byteLength":64668},{"uri":"../world-parts/cf73d73e4a52b629e942c4cf3ba67a960257f3fda86af0eadf8051aa3c1f7c97.bin","byteLength":133656},{"uri":"../world-parts/629e78b439d8b314fb62411e16a47eeeaf0f6f78bb3f3150468167c9e9d3eef3.bin","byteLength":92004},{"uri":"../world-parts/7e2e11a73c6c1f6b77c7c18c44a87655900818e94c168e7a92bb0a48cc87a1c1.bin","byteLength":46872},{"uri":"../world-parts/133dae8ce562dbc4cbf0d0d2cb7dc4cb2baafed83b6c58ebd4446a3657088e0f.bin","byteLength":180744}],"bufferViews":[{"buffer":0,"byteOffset":0,"byteLength":4212,"target":34962},{"buffer":0,"byteOffset":4212,"byteLength":4212,"target":34962},{"buffer":0,"byteOffset":8424,"byteLength":2808,"target":34962},{"buffer":0,"byteOffset":11232,"byteLength":4212,"target":34962},{"buffer":0,"byteOffset":15444,"byteLength":4212,"target":34962},{"buffer":0,"byteOffset":19656,"byteLength":4212,"target":34962},{"buffer":0,"byteOffset":23868,"byteLength":4212,"target":34962},{"buffer":0,"byteOffset":28080,"byteLength":1404,"target":34962},{"buffer":0,"byteOffset":29484,"byteLength":4104,"target":34963},{"buffer":1,"byteOffset":0,"byteLength":21600,"target":34962},{"buffer":1,"byteOffset":21600,"byteLength":21600,"target":34962},{"buffer":1,"byteOffset":43200,"byteLength":14400,"target":34962},{"buffer":1,"byteOffset":57600,"byteLength":21600,"target":34962},{"buffer":1,"byteOffset":79200,"byteLength":21600,"target":34962},{"buffer":1,"byteOffset":100800,"byteLength":21600,"target":34962},{"buffer":1,"byteOffset":122400,"byteLength":21600,"target":34962},{"buffer":1,"byteOffset":144000,"byteLength":7200,"target":34962},{"buffer":1,"byteOffset":151200,"byteLength":10800,"target":34963},{"buffer":2,"byteOffset":0,"byteLength":2916,"target":34962},{"buffer":2,"byteOffset":2916,"byteLength":2916,"target":34962},{"buffer":2,"byteOffset":5832,"byteLength":1944,"target":34962},{"buffer":2,"byteOffset":7776,"byteLength":2916,"target":34962},{"buffer":2,"byteOffset":10692,"byteLength":2916,"target":34962},{"buffer":2,"byteOffset":13608,"byteLength":2916,"target":34962},{"buffer":2,"byteOffset":16524,"byteLength":2916,"target":34962},{"buffer":2,"byteOffset":19440,"byteLength":972,"target":34962},{"buffer":2,"byteOffset":20412,"byteLength":3456,"target":34963},{"buffer":3,"byteOffset":0,"byteLength":7860,"target":34962},{"buffer":3,"byteOffset":7860,"byteLength":7860,"target":34962},{"buffer":3,"byteOffset":15720,"byteLength":5240,"target":34962},{"buffer":3,"byteOffset":20960,"byteLength":7860,"target":34962},{"buffer":3,"byteOffset":28820,"byteLength":7860,"target":34962},{"buffer":3,"byteOffset":36680,"byteLength":7860,"target":34962},{"buffer":3,"byteOffset":44540,"byteLength":7860,"target":34962},{"buffer":3,"byteOffset":52400,"byteLength":2620,"target":34962},{"buffer":3,"byteOffset":55020,"byteLength":5328,"target":34963},{"buffer":3,"byteOffset":60348,"byteLength":4320,"target":34963},{"buffer":4,"byteOffset":0,"byteLength":15912,"target":34962},{"buffer":4,"byteOffset":15912,"byteLength":15912,"target":34962},{"buffer":4,"byteOffset":31824,"byteLength":10608,"target":34962},{"buffer":4,"byteOffset":42432,"byteLength":15912,"target":34962},{"buffer":4,"byteOffset":58344,"byteLength":15912,"target":34962},{"buffer":4,"byteOffset":74256,"byteLength":15912,"target":34962},{"buffer":4,"byteOffset":90168,"byteLength":15912,"target":34962},{"buffer":4,"byteOffset":106080,"byteLength":5304,"target":34962},{"buffer":4,"byteOffset":111384,"byteLength":10464,"target":34963},{"buffer":4,"byteOffset":121848,"byteLength":11808,"target":34963},{"buffer":5,"byteOffset":0,"byteLength":10956,"target":34962},{"buffer":5,"byteOffset":10956,"byteLength":10956,"target":34962},{"buffer":5,"byteOffset":21912,"byteLength":7304,"target":34962},{"buffer":5,"byteOffset":29216,"byteLength":10956,"target":34962},{"buffer":5,"byteOffset":40172,"byteLength":10956,"target":34962},{"buffer":5,"byteOffset":51128,"byteLength":10956,"target":34962},{"buffer":5,"byteOffset":62084,"byteLength":10956,"target":34962},{"buffer":5,"byteOffset":73040,"byteLength":3652,"target":34962},{"buffer":5,"byteOffset":76692,"byteLength":8112,"target":34963},{"buffer":5,"byteOffset":84804,"byteLength":7200,"target":34963},{"buffer":6,"byteOffset":0,"byteLength":5784,"target":34962},{"buffer":6,"byteOffset":5784,"byteLength":5784,"target":34962},{"buffer":6,"byteOffset":11568,"byteLength":3856,"target":34962},{"buffer":6,"byteOffset":15424,"byteLength":5784,"target":34962},{"buffer":6,"byteOffset":21208,"byteLength":5784,"target":34962},{"buffer":6,"byteOffset":26992,"byteLength":5784,"target":34962},{"buffer":6,"byteOffset":32776,"byteLength":5784,"target":34962},{"buffer":6,"byteOffset":38560,"byteLength":1928,"target":34962},{"buffer":6,"byteOffset":40488,"byteLength":1776,"target":34963},{"buffer":6,"byteOffset":42264,"byteLength":4608,"target":34963},{"buffer":7,"byteOffset":0,"byteLength":21552,"target":34962},{"buffer":7,"byteOffset":21552,"byteLength":21552,"target":34962},{"buffer":7,"byteOffset":43104,"byteLength":14368,"target":34962},{"buffer":7,"byteOffset":57472,"byteLength":21552,"target":34962},{"buffer":7,"byteOffset":79024,"byteLength":21552,"target":34962},{"buffer":7,"byteOffset":100576,"byteLength":21552,"target":34962},{"buffer":7,"byteOffset":122128,"byteLength":21552,"target":34962},{"buffer":7,"byteOffset":143680,"byteLength":7184,"target":34962},{"buffer":7,"byteOffset":150864,"byteLength":17496,"target":34963},{"buffer":7,"byteOffset":168360,"byteLength":12384,"target":34963}],"accessors":[{"bufferView":0,"componentType":5126,"count":351,"type":"VEC3","min":[-1.7272872924804688,-0.27113133668899536,-1.1498832702636719],"max":[1.4978611469268799,1.988665223121643,1.8392531871795654]},{"bufferView":1,"componentType":5126,"count":351,"type":"VEC3"},{"bufferView":2,"componentType":5126,"count":351,"type":"VEC2"},{"bufferView":3,"componentType":5126,"count":351,"type":"VEC3"},{"bufferView":4,"componentType":5126,"count":351,"type":"VEC3"},{"bufferView":5,"componentType":5126,"count":351,"type":"VEC3"},{"bufferView":6,"componentType":5126,"count":351,"type":"VEC3"},{"bufferView":7,"componentType":5126,"count":351,"type":"SCALAR"},{"bufferView":8,"componentType":5125,"count":1026,"type":"SCALAR"},{"bufferView":9,"componentType":5126,"count":1800,"type":"VEC3","min":[-0.9234761595726013,-0.234694704413414,-0.9743891954421997],"max":[0.9913685917854309,1.3470909595489502,0.9907516837120056]},{"bufferView":10,"componentType":5126,"count":1800,"type":"VEC3"},{"bufferView":11,"componentType":5126,"count":1800,"type":"VEC2"},{"bufferView":12,"componentType":5126,"count":1800,"type":"VEC3"},{"bufferView":13,"componentType":5126,"count":1800,"type":"VEC3"},{"bufferView":14,"componentType":5126,"count":1800,"type":"VEC3"},{"bufferView":15,"componentType":5126,"count":1800,"type":"VEC3"},{"bufferView":16,"componentType":5126,"count":1800,"type":"SCALAR"},{"bufferView":17,"componentType":5125,"count":2700,"type":"SCALAR"},{"bufferView":18,"componentType":5126,"count":243,"type":"VEC3","min":[-1.381242275238037,-0.0773344337940216,-1.278536081314087],"max":[1.4456915855407715,0.7629088163375854,1.373783826828003]},{"bufferView":19,"componentType":5126,"count":243,"type":"VEC3"},{"bufferView":20,"componentType":5126,"count":243,"type":"VEC2"},{"bufferView":21,"componentType":5126,"count":243,"type":"VEC3"},{"bufferView":22,"componentType":5126,"count":243,"type":"VEC3"},{"bufferView":23,"componentType":5126,"count":243,"type":"VEC3"},{"bufferView":24,"componentType":5126,"count":243,"type":"VEC3"},{"bufferView":25,"componentType":5126,"count":243,"type":"SCALAR"},{"bufferView":26,"componentType":5125,"count":864,"type":"SCALAR"},{"bufferView":27,"componentType":5126,"count":655,"type":"VEC3","min":[-2.3328819274902344,0.011172999627888203,-2.0712060928344727],"max":[1.805098056793213,5.555437088012695,2.05914306640625]},{"bufferView":28,"componentType":5126,"count":655,"type":"VEC3"},{"bufferView":29,"componentType":5126,"count":655,"type":"VEC2"},{"bufferView":30,"componentType":5126,"count":655,"type":"VEC3"},{"bufferView":31,"componentType":5126,"count":655,"type":"VEC3"},{"bufferView":32,"componentType":5126,"count":655,"type":"VEC3"},{"bufferView":33,"componentType":5126,"count":655,"type":"VEC3"},{"bufferView":34,"componentType":5126,"count":655,"type":"SCALAR"},{"bufferView":35,"componentType":5125,"count":1332,"type":"SCALAR"},{"bufferView":36,"componentType":5125,"count":1080,"type":"SCALAR"},{"bufferView":37,"componentType":5126,"count":1326,"type":"VEC3","min":[-3.6411149501800537,0.011172999627888203,-2.5864460468292236],"max":[3.095597982406616,6.3706889152526855,2.3982579708099365]},{"bufferView":38,"componentType":5126,"count":1326,"type":"VEC3"},{"bufferView":39,"componentType":5126,"count":1326,"type":"VEC2"},{"bufferView":40,"componentType":5126,"count":1326,"type":"VEC3"},{"bufferView":41,"componentType":5126,"count":1326,"type":"VEC3"},{"bufferView":42,"componentType":5126,"count":1326,"type":"VEC3"},{"bufferView":43,"componentType":5126,"count":1326,"type":"VEC3"},{"bufferView":44,"componentType":5126,"count":1326,"type":"SCALAR"},{"bufferView":45,"componentType":5125,"count":2616,"type":"SCALAR"},{"bufferView":46,"componentType":5125,"count":2952,"type":"SCALAR"},{"bufferView":47,"componentType":5126,"count":913,"type":"VEC3","min":[-2.969912052154541,-0.0013800000306218863,-2.3520750999450684],"max":[3.394526958465576,5.491145133972168,2.5843169689178467]},{"bufferView":48,"componentType":5126,"count":913,"type":"VEC3"},{"bufferView":49,"componentType":5126,"count":913,"type":"VEC2"},{"bufferView":50,"componentType":5126,"count":913,"type":"VEC3"},{"bufferView":51,"componentType":5126,"count":913,"type":"VEC3"},{"bufferView":52,"componentType":5126,"count":913,"type":"VEC3"},{"bufferView":53,"componentType":5126,"count":913,"type":"VEC3"},{"bufferView":54,"componentType":5126,"count":913,"type":"SCALAR"},{"bufferView":55,"componentType":5125,"count":2028,"type":"SCALAR"},{"bufferView":56,"componentType":5125,"count":1800,"type":"SCALAR"},{"bufferView":57,"componentType":5126,"count":482,"type":"VEC3","min":[-3.7659718990325928,-0.07409700006246567,-3.4778990745544434],"max":[3.116921901702881,8.022987365722656,3.8158159255981445]},{"bufferView":58,"componentType":5126,"count":482,"type":"VEC3"},{"bufferView":59,"componentType":5126,"count":482,"type":"VEC2"},{"bufferView":60,"componentType":5126,"count":482,"type":"VEC3"},{"bufferView":61,"componentType":5126,"count":482,"type":"VEC3"},{"bufferView":62,"componentType":5126,"count":482,"type":"VEC3"},{"bufferView":63,"componentType":5126,"count":482,"type":"VEC3"},{"bufferView":64,"componentType":5126,"count":482,"type":"SCALAR"},{"bufferView":65,"componentType":5125,"count":444,"type":"SCALAR"},{"bufferView":66,"componentType":5125,"count":1152,"type":"SCALAR"},{"bufferView":67,"componentType":5126,"count":1796,"type":"VEC3","min":[-4.721841812133789,-0.0018220000201836228,-1.3137749433517456],"max":[4.035912990570068,10.293656349182129,3.0319550037384033]},{"bufferView":68,"componentType":5126,"count":1796,"type":"VEC3"},{"bufferView":69,"componentType":5126,"count":1796,"type":"VEC2"},{"bufferView":70,"componentType":5126,"count":1796,"type":"VEC3"},{"bufferView":71,"componentType":5126,"count":1796,"type":"VEC3"},{"bufferView":72,"componentType":5126,"count":1796,"type":"VEC3"},{"bufferView":73,"componentType":5126,"count":1796,"type":"VEC3"},{"bufferView":74,"componentType":5126,"count":1796,"type":"SCALAR"},{"bufferView":75,"componentType":5125,"count":4374,"type":"SCALAR"},{"bufferView":76,"componentType":5125,"count":3096,"type":"SCALAR"}],"meshes":[{"name":"fd226230644175fe3822cb428a311c212fc80d03f23637b784d81d600258c56a","primitives":[{"attributes":{"POSITION":0,"NORMAL":1,"TEXCOORD_0":2,"COLOR_0":3,"_VELDREN_NORMAL":4,"_VELDREN_COLOR":5,"_VELDREN_FALLBACK":6,"_VELDREN_MATERIAL":7},"indices":8,"material":0,"extras":{"mixedAtlasFallback":false}}]},{"name":"2506d93b76d310984001c5dabe16741967c5181ca1e7b8dff6ac2e880b200a9c","primitives":[{"attributes":{"POSITION":9,"NORMAL":10,"TEXCOORD_0":11,"COLOR_0":12,"_VELDREN_NORMAL":13,"_VELDREN_COLOR":14,"_VELDREN_FALLBACK":15,"_VELDREN_MATERIAL":16},"indices":17,"material":1,"extras":{"mixedAtlasFallback":false}}]},{"name":"78db525a718b93747dbae265b16b2d6fb0efee8549a862f63542db8a4145dc35","primitives":[{"attributes":{"POSITION":18,"NORMAL":19,"TEXCOORD_0":20,"COLOR_0":21,"_VELDREN_NORMAL":22,"_VELDREN_COLOR":23,"_VELDREN_FALLBACK":24,"_VELDREN_MATERIAL":25},"indices":26,"material":2,"extras":{"mixedAtlasFallback":false}}]},{"name":"8480a643e36c0194bf11e79cbc019e38e5ff72b8bc295b144212e5f7a5b37347","primitives":[{"attributes":{"POSITION":27,"NORMAL":28,"TEXCOORD_0":29,"COLOR_0":30,"_VELDREN_NORMAL":31,"_VELDREN_COLOR":32,"_VELDREN_FALLBACK":33,"_VELDREN_MATERIAL":34},"indices":35,"material":3,"extras":{"mixedAtlasFallback":false}},{"attributes":{"POSITION":27,"NORMAL":28,"TEXCOORD_0":29,"COLOR_0":30,"_VELDREN_NORMAL":31,"_VELDREN_COLOR":32,"_VELDREN_FALLBACK":33,"_VELDREN_MATERIAL":34},"indices":36,"material":4,"extras":{"mixedAtlasFallback":false}}]},{"name":"cf73d73e4a52b629e942c4cf3ba67a960257f3fda86af0eadf8051aa3c1f7c97","primitives":[{"attributes":{"POSITION":37,"NORMAL":38,"TEXCOORD_0":39,"COLOR_0":40,"_VELDREN_NORMAL":41,"_VELDREN_COLOR":42,"_VELDREN_FALLBACK":43,"_VELDREN_MATERIAL":44},"indices":45,"material":5,"extras":{"mixedAtlasFallback":false}},{"attributes":{"POSITION":37,"NORMAL":38,"TEXCOORD_0":39,"COLOR_0":40,"_VELDREN_NORMAL":41,"_VELDREN_COLOR":42,"_VELDREN_FALLBACK":43,"_VELDREN_MATERIAL":44},"indices":46,"material":6,"extras":{"mixedAtlasFallback":false}}]},{"name":"629e78b439d8b314fb62411e16a47eeeaf0f6f78bb3f3150468167c9e9d3eef3","primitives":[{"attributes":{"POSITION":47,"NORMAL":48,"TEXCOORD_0":49,"COLOR_0":50,"_VELDREN_NORMAL":51,"_VELDREN_COLOR":52,"_VELDREN_FALLBACK":53,"_VELDREN_MATERIAL":54},"indices":55,"material":7,"extras":{"mixedAtlasFallback":false}},{"attributes":{"POSITION":47,"NORMAL":48,"TEXCOORD_0":49,"COLOR_0":50,"_VELDREN_NORMAL":51,"_VELDREN_COLOR":52,"_VELDREN_FALLBACK":53,"_VELDREN_MATERIAL":54},"indices":56,"material":8,"extras":{"mixedAtlasFallback":false}}]},{"name":"7e2e11a73c6c1f6b77c7c18c44a87655900818e94c168e7a92bb0a48cc87a1c1","primitives":[{"attributes":{"POSITION":57,"NORMAL":58,"TEXCOORD_0":59,"COLOR_0":60,"_VELDREN_NORMAL":61,"_VELDREN_COLOR":62,"_VELDREN_FALLBACK":63,"_VELDREN_MATERIAL":64},"indices":65,"material":9,"extras":{"mixedAtlasFallback":false}},{"attributes":{"POSITION":57,"NORMAL":58,"TEXCOORD_0":59,"COLOR_0":60,"_VELDREN_NORMAL":61,"_VELDREN_COLOR":62,"_VELDREN_FALLBACK":63,"_VELDREN_MATERIAL":64},"indices":66,"material":10,"extras":{"mixedAtlasFallback":false}}]},{"name":"133dae8ce562dbc4cbf0d0d2cb7dc4cb2baafed83b6c58ebd4446a3657088e0f","primitives":[{"attributes":{"POSITION":67,"NORMAL":68,"TEXCOORD_0":69,"COLOR_0":70,"_VELDREN_NORMAL":71,"_VELDREN_COLOR":72,"_VELDREN_FALLBACK":73,"_VELDREN_MATERIAL":74},"indices":75,"material":11,"extras":{"mixedAtlasFallback":false}},{"attributes":{"POSITION":67,"NORMAL":68,"TEXCOORD_0":69,"COLOR_0":70,"_VELDREN_NORMAL":71,"_VELDREN_COLOR":72,"_VELDREN_FALLBACK":73,"_VELDREN_MATERIAL":74},"indices":76,"material":12,"extras":{"mixedAtlasFallback":false}}]}],"materials":[{"name":"legacy-material-33","pbrMetallicRoughness":{"baseColorFactor":[1,1,1,1],"metallicFactor":0,"roughnessFactor":1,"baseColorTexture":{"index":0}},"doubleSided":true,"extras":{"legacyMaterial":33,"legacyShader":"dist/renderer-gl.js"}},{"name":"legacy-material-31","pbrMetallicRoughness":{"baseColorFactor":[1,1,1,1],"metallicFactor":0,"roughnessFactor":1,"baseColorTexture":{"index":1}},"doubleSided":true,"extras":{"legacyMaterial":31,"legacyShader":"dist/renderer-gl.js"},"alphaMode":"MASK","alphaCutoff":0.45},{"name":"legacy-material-34","pbrMetallicRoughness":{"baseColorFactor":[1,1,1,1],"metallicFactor":0,"roughnessFactor":1,"baseColorTexture":{"index":2}},"doubleSided":true,"extras":{"legacyMaterial":34,"legacyShader":"dist/renderer-gl.js"},"alphaMode":"MASK","alphaCutoff":0.45},{"name":"legacy-material-49","pbrMetallicRoughness":{"baseColorFactor":[1,1,1,1],"metallicFactor":0,"roughnessFactor":1,"baseColorTexture":{"index":3}},"doubleSided":true,"extras":{"legacyMaterial":49,"legacyShader":"dist/renderer-gl.js"}},{"name":"legacy-material-50","pbrMetallicRoughness":{"baseColorFactor":[1,1,1,1],"metallicFactor":0,"roughnessFactor":1,"baseColorTexture":{"index":4}},"doubleSided":true,"extras":{"legacyMaterial":50,"legacyShader":"dist/renderer-gl.js"},"alphaMode":"MASK","alphaCutoff":0.45},{"name":"legacy-material-49","pbrMetallicRoughness":{"baseColorFactor":[1,1,1,1],"metallicFactor":0,"roughnessFactor":1,"baseColorTexture":{"index":5}},"doubleSided":true,"extras":{"legacyMaterial":49,"legacyShader":"dist/renderer-gl.js"}},{"name":"legacy-material-50","pbrMetallicRoughness":{"baseColorFactor":[1,1,1,1],"metallicFactor":0,"roughnessFactor":1,"baseColorTexture":{"index":6}},"doubleSided":true,"extras":{"legacyMaterial":50,"legacyShader":"dist/renderer-gl.js"},"alphaMode":"MASK","alphaCutoff":0.45},{"name":"legacy-material-49","pbrMetallicRoughness":{"baseColorFactor":[1,1,1,1],"metallicFactor":0,"roughnessFactor":1,"baseColorTexture":{"index":7}},"doubleSided":true,"extras":{"legacyMaterial":49,"legacyShader":"dist/renderer-gl.js"}},{"name":"legacy-material-51","pbrMetallicRoughness":{"baseColorFactor":[1,1,1,1],"metallicFactor":0,"roughnessFactor":1,"baseColorTexture":{"index":8}},"doubleSided":true,"extras":{"legacyMaterial":51,"legacyShader":"dist/renderer-gl.js"},"alphaMode":"MASK","alphaCutoff":0.45},{"name":"legacy-material-49","pbrMetallicRoughness":{"baseColorFactor":[1,1,1,1],"metallicFactor":0,"roughnessFactor":1,"baseColorTexture":{"index":9}},"doubleSided":true,"extras":{"legacyMaterial":49,"legacyShader":"dist/renderer-gl.js"}},{"name":"legacy-material-54","pbrMetallicRoughness":{"baseColorFactor":[1,1,1,1],"metallicFactor":0,"roughnessFactor":1,"baseColorTexture":{"index":10}},"doubleSided":true,"extras":{"legacyMaterial":54,"legacyShader":"dist/renderer-gl.js"},"alphaMode":"MASK","alphaCutoff":0.45},{"name":"legacy-material-52","pbrMetallicRoughness":{"baseColorFactor":[1,1,1,1],"metallicFactor":0,"roughnessFactor":1,"baseColorTexture":{"index":11}},"doubleSided":true,"extras":{"legacyMaterial":52,"legacyShader":"dist/renderer-gl.js"}},{"name":"legacy-material-53","pbrMetallicRoughness":{"baseColorFactor":[1,1,1,1],"metallicFactor":0,"roughnessFactor":1,"baseColorTexture":{"index":12}},"doubleSided":true,"extras":{"legacyMaterial":53,"legacyShader":"dist/renderer-gl.js"},"alphaMode":"MASK","alphaCutoff":0.45}],"images":[{"name":"atlas-13","uri":"../../textures/atlas/tile-13.png"},{"name":"atlas-11","uri":"../../textures/atlas/tile-11.png"},{"name":"atlas-14","uri":"../../textures/atlas/tile-14.png"},{"name":"atlas-29","uri":"../../textures/atlas/tile-29.png"},{"name":"atlas-30","uri":"../../textures/atlas/tile-30.png"},{"name":"atlas-29","uri":"../../textures/atlas/tile-29.png"},{"name":"atlas-30","uri":"../../textures/atlas/tile-30.png"},{"name":"atlas-29","uri":"../../textures/atlas/tile-29.png"},{"name":"atlas-31","uri":"../../textures/atlas/tile-31.png"},{"name":"atlas-29","uri":"../../textures/atlas/tile-29.png"},{"name":"atlas-34","uri":"../../textures/atlas/tile-34.png"},{"name":"atlas-32","uri":"../../textures/atlas/tile-32.png"},{"name":"atlas-33","uri":"../../textures/atlas/tile-33.png"}],"textures":[{"source":0,"sampler":0},{"source":1,"sampler":1},{"source":2,"sampler":2},{"source":3,"sampler":3},{"source":4,"sampler":3},{"source":5,"sampler":4},{"source":6,"sampler":4},{"source":7,"sampler":5},{"source":8,"sampler":5},{"source":9,"sampler":6},{"source":10,"sampler":6},{"source":11,"sampler":7},{"source":12,"sampler":7}],"samplers":[{"magFilter":9729,"minFilter":9729,"wrapS":10497,"wrapT":10497},{"magFilter":9729,"minFilter":9729,"wrapS":10497,"wrapT":10497},{"magFilter":9729,"minFilter":9729,"wrapS":10497,"wrapT":10497},{"magFilter":9729,"minFilter":9729,"wrapS":10497,"wrapT":10497},{"magFilter":9729,"minFilter":9729,"wrapS":10497,"wrapT":10497},{"magFilter":9729,"minFilter":9729,"wrapS":10497,"wrapT":10497},{"magFilter":9729,"minFilter":9729,"wrapS":10497,"wrapT":10497},{"magFilter":9729,"minFilter":9729,"wrapS":10497,"wrapT":10497}]}
