{"asset":{"version":"2.0","generator":"Veldren static world recovery"},"scene":0,"scenes":[{"nodes":[0,2,4,6,8,10,12,14,16,18,20,22,24,26,28,30,32,34,36,38,40,42,44,46,48,50,52,54,56,58,60,62,64]}],"extras":{"sourceScene":"overworld","notVervesisScene":true,"gameplayIdentityExternal":true,"limitations":["Terrain stored separately.","Dynamic actors, fires, gates, crops, fish, effects and ground cover are not baked.","Roofs are closed; browser procedural materials require native support."]},"nodes":[{"name":"Mountain outcrop","children":[1],"extras":{"veldrenEntityKey":"overworld:object:538"}},{"mesh":0,"matrix":[1.2951787154936916,0.0,0.0,0.0,0.0,1.2951787154936916,0.0,0.0,0.0,0.0,1.2951787154936916,0.0,612.5,0.47977515422910555,63.5,1.0]},{"name":"Mountain outcrop","children":[3],"extras":{"veldrenEntityKey":"overworld:object:539"}},{"mesh":1,"matrix":[1.3275531317081868,0.0,0.0,0.0,0.0,1.3275531317081868,0.0,0.0,0.0,0.0,1.3275531317081868,0.0,615.5,0.6142511979420553,62.5,1.0]},{"name":"Mountain outcrop","children":[5],"extras":{"veldrenEntityKey":"overworld:object:556"}},{"mesh":0,"matrix":[1.2951787154936916,0.0,0.0,0.0,0.0,1.2951787154936916,0.0,0.0,0.0,0.0,1.2951787154936916,0.0,601.5,1.418330973226865,73.5,1.0]},{"name":"Gold rock","children":[7],"extras":{"veldrenEntityKey":"overworld:object:570"}},{"mesh":2,"matrix":[1.0,0.0,0.0,0.0,0.0,1.0,0.0,0.0,0.0,0.0,1.0,0.0,604.5,0.12306844167121458,68.5,1.0]},{"name":"Mountain outcrop","children":[9],"extras":{"veldrenEntityKey":"overworld:object:571"}},{"mesh":1,"matrix":[1.3275531317081868,0.0,0.0,0.0,0.0,1.3275531317081868,0.0,0.0,0.0,0.0,1.3275531317081868,0.0,610.5,0.4051477449536612,64.5,1.0]},{"name":"Mountain outcrop","children":[11],"extras":{"veldrenEntityKey":"overworld:object:572"}},{"mesh":0,"matrix":[1.2951787154936916,0.0,0.0,0.0,0.0,1.2951787154936916,0.0,0.0,0.0,0.0,1.2951787154936916,0.0,626.5,1.0592335367358903,58.5,1.0]},{"name":"Mountain outcrop","children":[13],"extras":{"veldrenEntityKey":"overworld:object:584"}},{"mesh":0,"matrix":[1.2951787154936916,0.0,0.0,0.0,0.0,1.2951787154936916,0.0,0.0,0.0,0.0,1.2951787154936916,0.0,589.5,0.9985928306260455,82.5,1.0]},{"name":"Mountain outcrop","children":[15],"extras":{"veldrenEntityKey":"overworld:object:585"}},{"mesh":1,"matrix":[1.3275531317081868,0.0,0.0,0.0,0.0,1.3275531317081868,0.0,0.0,0.0,0.0,1.3275531317081868,0.0,603.5,2.5242820632826466,75.5,1.0]},{"name":"Mountain outcrop","children":[17],"extras":{"veldrenEntityKey":"overworld:object:595"}},{"mesh":1,"matrix":[1.3275531317081868,0.0,0.0,0.0,0.0,1.3275531317081868,0.0,0.0,0.0,0.0,1.3275531317081868,0.0,563.5,0.9609391783164429,102.5,1.0]},{"name":"Mountain outcrop","children":[19],"extras":{"veldrenEntityKey":"overworld:object:596"}},{"mesh":0,"matrix":[1.2951787154936916,0.0,0.0,0.0,0.0,1.2951787154936916,0.0,0.0,0.0,0.0,1.2951787154936916,0.0,582.5,3.3874720037184747,96.5,1.0]},{"name":"Tin rock","children":[21],"extras":{"veldrenEntityKey":"overworld:object:607"}},{"mesh":3,"matrix":[1.0,0.0,0.0,0.0,0.0,1.0,0.0,0.0,0.0,0.0,1.0,0.0,603.5,10.387625727212043,117.5,1.0]},{"name":"Mountain outcrop","children":[23],"extras":{"veldrenEntityKey":"overworld:object:608"}},{"mesh":0,"matrix":[1.2951787154936916,0.0,0.0,0.0,0.0,1.2951787154936916,0.0,0.0,0.0,0.0,1.2951787154936916,0.0,624.5,11.822273987546303,117.5,1.0]},{"name":"Maple tree","children":[25],"extras":{"veldrenEntityKey":"overworld:object:594"}},{"mesh":4,"matrix":[0.1943769636261209,0.0,0.6426083433773631,0.0,0.0,0.6713627089485306,0.0,0.0,-0.6426083433773631,0.0,0.1943769636261209,0.0,519.5,2.5779979167332536,96.5,1.0]},{"name":"Tree","children":[27],"extras":{"veldrenEntityKey":"overworld:object:606"}},{"mesh":5,"matrix":[-0.5254225816068234,0.0,-0.5027985285396936,0.0,0.0,0.7272380968871612,0.0,0.0,0.5027985285396936,0.0,-0.5254225816068234,0.0,519.5,4.905372527927158,117.5,1.0]},{"name":"Mountain pine","children":[29],"extras":{"veldrenEntityKey":"overworld:object:6801457"}},{"mesh":5,"matrix":[-0.14772816528821534,0.0,0.7429958024144345,0.0,0.0,0.7575396842574597,0.0,0.0,-0.7429958024144345,0.0,-0.14772816528821534,0.0,630.5,11.570749803461432,112.5,1.0]},{"name":"Mountain pine","children":[31],"extras":{"veldrenEntityKey":"overworld:object:6801458"}},{"mesh":5,"matrix":[0.63569783519621,0.0,-0.46538385404620036,0.0,0.0,0.7878412716277581,0.0,0.0,0.46538385404620036,0.0,0.63569783519621,0.0,636.5,11.748502190576515,111.5,1.0]},{"name":"Mountain pine","children":[33],"extras":{"veldrenEntityKey":"overworld:object:6801593"}},{"mesh":5,"matrix":[-0.4817332312125322,0.0,0.623399521354946,0.0,0.0,0.7878412716277581,0.0,0.0,-0.623399521354946,0.0,-0.4817332312125322,0.0,613.5,10.815235796568112,118.5,1.0]},{"name":"Mountain pine","children":[35],"extras":{"veldrenEntityKey":"overworld:object:6801594"}},{"mesh":5,"matrix":[0.7167178987710616,0.0,-0.12325057056766243,0.0,0.0,0.7272380968871612,0.0,0.0,0.12325057056766243,0.0,0.7167178987710616,0.0,618.5,11.125954477421308,121.5,1.0]},{"name":"Mountain pine","children":[37],"extras":{"veldrenEntityKey":"overworld:object:6801596"}},{"mesh":5,"matrix":[0.19942347046186368,0.0,0.7621838024446524,0.0,0.0,0.7878412716277581,0.0,0.0,-0.7621838024446524,0.0,0.19942347046186368,0.0,634.5,11.88789000735815,117.5,1.0]},{"name":"Mountain pine","children":[39],"extras":{"veldrenEntityKey":"overworld:object:6801731"}},{"mesh":5,"matrix":[-0.40293867058142324,0.0,-0.6770039121232004,0.0,0.0,0.7878412716277581,0.0,0.0,0.6770039121232004,0.0,-0.40293867058142324,0.0,611.5,10.763312277343987,126.5,1.0]},{"name":"Tree","children":[41],"extras":{"veldrenEntityKey":"overworld:object:9104340"}},{"mesh":5,"matrix":[-0.16176361865339986,0.0,0.709018886380481,0.0,0.0,0.7272380968871612,0.0,0.0,-0.709018886380481,0.0,-0.16176361865339986,0.0,600.5,7.203502367508255,92.5,1.0]},{"name":"Maple tree","children":[43],"extras":{"veldrenEntityKey":"overworld:object:9104342"}},{"mesh":4,"matrix":[-0.7203248413214894,0.0,-0.10055535394465172,0.0,0.0,0.7273096013609082,0.0,0.0,0.10055535394465172,0.0,-0.7203248413214894,0.0,596.5,4.2553840720040945,87.5,1.0]},{"name":"Yew tree","children":[45],"extras":{"veldrenEntityKey":"overworld:object:9104343"}},{"mesh":6,"matrix":[0.5128773343617545,0.0,0.6220460936148401,0.0,0.0,0.8062161637448739,0.0,0.0,-0.6220460936148401,0.0,0.5128773343617545,0.0,603.5,9.870647371257036,97.5,1.0]},{"name":"Tree","children":[47],"extras":{"veldrenEntityKey":"overworld:object:9104344"}},{"mesh":5,"matrix":[0.04019879660513657,0.0,-0.756472359029985,0.0,0.0,0.7575396842574597,0.0,0.0,0.756472359029985,0.0,0.04019879660513657,0.0,588.5,4.12353266833043,94.5,1.0]},{"name":"Maple tree","children":[49],"extras":{"veldrenEntityKey":"overworld:object:9104360"}},{"mesh":4,"matrix":[-0.42954677137305913,0.0,-0.586914667932864,0.0,0.0,0.7273096013609082,0.0,0.0,0.586914667932864,0.0,-0.42954677137305913,0.0,632.5,11.150131580143439,100.5,1.0]},{"name":"Tree","children":[51],"extras":{"veldrenEntityKey":"overworld:object:9104362"}},{"mesh":5,"matrix":[0.5708148414441349,0.0,-0.49803292061067506,0.0,0.0,0.7575396842574597,0.0,0.0,0.49803292061067506,0.0,0.5708148414441349,0.0,626.5,10.916267828074494,99.5,1.0]},{"name":"Oak tree","children":[53],"extras":{"veldrenEntityKey":"overworld:object:9104363"}},{"mesh":7,"matrix":[-0.9972438814890813,0.0,-0.02511925301994138,0.0,0.0,0.9975601916875435,0.0,0.0,0.02511925301994138,0.0,-0.9972438814890813,0.0,638.5,11.189201619501652,99.5,1.0]},{"name":"Oak tree","children":[55],"extras":{"veldrenEntityKey":"overworld:object:9104382"}},{"mesh":7,"matrix":[0.0025075614788169173,0.0,0.9208213780638594,0.0,0.0,0.9208247923269633,0.0,0.0,-0.9208213780638594,0.0,0.0025075614788169173,0.0,639.5,10.394713248759158,87.5,1.0]},{"name":"Maple tree","children":[57],"extras":{"veldrenEntityKey":"overworld:object:9105280"}},{"mesh":4,"matrix":[-0.5150401123596252,0.0,0.473080057249479,0.0,0.0,0.6993361551547194,0.0,0.0,-0.473080057249479,0.0,-0.5150401123596252,0.0,576.5,8.926121451538332,119.5,1.0]},{"name":"Yew tree","children":[59],"extras":{"veldrenEntityKey":"overworld:object:9105281"}},{"mesh":6,"matrix":[0.8734007854046143,0.0,-0.0003200843485543031,0.0,0.0,0.8734008440569468,0.0,0.0,0.0003200843485543031,0.0,0.8734007854046143,0.0,576.5,10.073189089967512,125.5,1.0]},{"name":"Tree","children":[61],"extras":{"veldrenEntityKey":"overworld:object:9105282"}},{"mesh":5,"matrix":[-0.5359494957749628,0.0,-0.4915621909205623,0.0,0.0,0.7272380968871612,0.0,0.0,0.4915621909205623,0.0,-0.5359494957749628,0.0,569.5,6.015296641367401,116.5,1.0]},{"name":"Oak tree","children":[63],"extras":{"veldrenEntityKey":"overworld:object:9105283"}},{"mesh":7,"matrix":[0.08236740694491508,0.0,0.9556494372918637,0.0,0.0,0.9591924920072534,0.0,0.0,-0.9556494372918637,0.0,0.08236740694491508,0.0,583.5,10.064725077744738,120.5,1.0]},{"name":"Maple tree","children":[65],"extras":{"veldrenEntityKey":"overworld:object:9105284"}},{"mesh":4,"matrix":[0.4439783943763172,0.0,-0.5760750311884646,0.0,0.0,0.7273096013609082,0.0,0.0,0.5760750311884646,0.0,0.4439783943763172,0.0,570.5,9.671273088253114,126.5,1.0]}],"buffers":[{"uri":"../world-parts/945c10e33683e4b3baa7557ff260c79730a9992e0e5a23b5d9307a2c40355ae1.bin","byteLength":50868},{"uri":"../world-parts/d3a49cf40a43bca59e27ca2096fab65e613b5d5993f180ce0def51f1fdd95647.bin","byteLength":33588},{"uri":"../world-parts/c2f99fb65c8e764f8a2546544009dc024b5346effe67d789fc80594bcf5ea2c0.bin","byteLength":18216},{"uri":"../world-parts/3cce8cbb5507a2461b5cef9058fc382eb0223360f3ac806ab4c9e0a3cd439a7d.bin","byteLength":12936},{"uri":"../world-parts/133dae8ce562dbc4cbf0d0d2cb7dc4cb2baafed83b6c58ebd4446a3657088e0f.bin","byteLength":180744},{"uri":"../world-parts/8480a643e36c0194bf11e79cbc019e38e5ff72b8bc295b144212e5f7a5b37347.bin","byteLength":64668},{"uri":"../world-parts/7e2e11a73c6c1f6b77c7c18c44a87655900818e94c168e7a92bb0a48cc87a1c1.bin","byteLength":46872},{"uri":"../world-parts/cf73d73e4a52b629e942c4cf3ba67a960257f3fda86af0eadf8051aa3c1f7c97.bin","byteLength":133656}],"bufferViews":[{"buffer":0,"byteOffset":0,"byteLength":6372,"target":34962},{"buffer":0,"byteOffset":6372,"byteLength":6372,"target":34962},{"buffer":0,"byteOffset":12744,"byteLength":4248,"target":34962},{"buffer":0,"byteOffset":16992,"byteLength":6372,"target":34962},{"buffer":0,"byteOffset":23364,"byteLength":6372,"target":34962},{"buffer":0,"byteOffset":29736,"byteLength":6372,"target":34962},{"buffer":0,"byteOffset":36108,"byteLength":6372,"target":34962},{"buffer":0,"byteOffset":42480,"byteLength":2124,"target":34962},{"buffer":0,"byteOffset":44604,"byteLength":6264,"target":34963},{"buffer":1,"byteOffset":0,"byteLength":4212,"target":34962},{"buffer":1,"byteOffset":4212,"byteLength":4212,"target":34962},{"buffer":1,"byteOffset":8424,"byteLength":2808,"target":34962},{"buffer":1,"byteOffset":11232,"byteLength":4212,"target":34962},{"buffer":1,"byteOffset":15444,"byteLength":4212,"target":34962},{"buffer":1,"byteOffset":19656,"byteLength":4212,"target":34962},{"buffer":1,"byteOffset":23868,"byteLength":4212,"target":34962},{"buffer":1,"byteOffset":28080,"byteLength":1404,"target":34962},{"buffer":1,"byteOffset":29484,"byteLength":4104,"target":34963},{"buffer":2,"byteOffset":0,"byteLength":2484,"target":34962},{"buffer":2,"byteOffset":2484,"byteLength":2484,"target":34962},{"buffer":2,"byteOffset":4968,"byteLength":1656,"target":34962},{"buffer":2,"byteOffset":6624,"byteLength":2484,"target":34962},{"buffer":2,"byteOffset":9108,"byteLength":2484,"target":34962},{"buffer":2,"byteOffset":11592,"byteLength":2484,"target":34962},{"buffer":2,"byteOffset":14076,"byteLength":2484,"target":34962},{"buffer":2,"byteOffset":16560,"byteLength":828,"target":34962},{"buffer":2,"byteOffset":17388,"byteLength":828,"target":34963},{"buffer":3,"byteOffset":0,"byteLength":1764,"target":34962},{"buffer":3,"byteOffset":1764,"byteLength":1764,"target":34962},{"buffer":3,"byteOffset":3528,"byteLength":1176,"target":34962},{"buffer":3,"byteOffset":4704,"byteLength":1764,"target":34962},{"buffer":3,"byteOffset":6468,"byteLength":1764,"target":34962},{"buffer":3,"byteOffset":8232,"byteLength":1764,"target":34962},{"buffer":3,"byteOffset":9996,"byteLength":1764,"target":34962},{"buffer":3,"byteOffset":11760,"byteLength":588,"target":34962},{"buffer":3,"byteOffset":12348,"byteLength":588,"target":34963},{"buffer":4,"byteOffset":0,"byteLength":21552,"target":34962},{"buffer":4,"byteOffset":21552,"byteLength":21552,"target":34962},{"buffer":4,"byteOffset":43104,"byteLength":14368,"target":34962},{"buffer":4,"byteOffset":57472,"byteLength":21552,"target":34962},{"buffer":4,"byteOffset":79024,"byteLength":21552,"target":34962},{"buffer":4,"byteOffset":100576,"byteLength":21552,"target":34962},{"buffer":4,"byteOffset":122128,"byteLength":21552,"target":34962},{"buffer":4,"byteOffset":143680,"byteLength":7184,"target":34962},{"buffer":4,"byteOffset":150864,"byteLength":17496,"target":34963},{"buffer":4,"byteOffset":168360,"byteLength":12384,"target":34963},{"buffer":5,"byteOffset":0,"byteLength":7860,"target":34962},{"buffer":5,"byteOffset":7860,"byteLength":7860,"target":34962},{"buffer":5,"byteOffset":15720,"byteLength":5240,"target":34962},{"buffer":5,"byteOffset":20960,"byteLength":7860,"target":34962},{"buffer":5,"byteOffset":28820,"byteLength":7860,"target":34962},{"buffer":5,"byteOffset":36680,"byteLength":7860,"target":34962},{"buffer":5,"byteOffset":44540,"byteLength":7860,"target":34962},{"buffer":5,"byteOffset":52400,"byteLength":2620,"target":34962},{"buffer":5,"byteOffset":55020,"byteLength":5328,"target":34963},{"buffer":5,"byteOffset":60348,"byteLength":4320,"target":34963},{"buffer":6,"byteOffset":0,"byteLength":5784,"target":34962},{"buffer":6,"byteOffset":5784,"byteLength":5784,"target":34962},{"buffer":6,"byteOffset":11568,"byteLength":3856,"target":34962},{"buffer":6,"byteOffset":15424,"byteLength":5784,"target":34962},{"buffer":6,"byteOffset":21208,"byteLength":5784,"target":34962},{"buffer":6,"byteOffset":26992,"byteLength":5784,"target":34962},{"buffer":6,"byteOffset":32776,"byteLength":5784,"target":34962},{"buffer":6,"byteOffset":38560,"byteLength":1928,"target":34962},{"buffer":6,"byteOffset":40488,"byteLength":1776,"target":34963},{"buffer":6,"byteOffset":42264,"byteLength":4608,"target":34963},{"buffer":7,"byteOffset":0,"byteLength":15912,"target":34962},{"buffer":7,"byteOffset":15912,"byteLength":15912,"target":34962},{"buffer":7,"byteOffset":31824,"byteLength":10608,"target":34962},{"buffer":7,"byteOffset":42432,"byteLength":15912,"target":34962},{"buffer":7,"byteOffset":58344,"byteLength":15912,"target":34962},{"buffer":7,"byteOffset":74256,"byteLength":15912,"target":34962},{"buffer":7,"byteOffset":90168,"byteLength":15912,"target":34962},{"buffer":7,"byteOffset":106080,"byteLength":5304,"target":34962},{"buffer":7,"byteOffset":111384,"byteLength":10464,"target":34963},{"buffer":7,"byteOffset":121848,"byteLength":11808,"target":34963}],"accessors":[{"bufferView":0,"componentType":5126,"count":531,"type":"VEC3","min":[-1.8242793083190918,-0.31564441323280334,-0.8904620409011841],"max":[1.5958054065704346,2.000638246536255,2.5856480598449707]},{"bufferView":1,"componentType":5126,"count":531,"type":"VEC3"},{"bufferView":2,"componentType":5126,"count":531,"type":"VEC2"},{"bufferView":3,"componentType":5126,"count":531,"type":"VEC3"},{"bufferView":4,"componentType":5126,"count":531,"type":"VEC3"},{"bufferView":5,"componentType":5126,"count":531,"type":"VEC3"},{"bufferView":6,"componentType":5126,"count":531,"type":"VEC3"},{"bufferView":7,"componentType":5126,"count":531,"type":"SCALAR"},{"bufferView":8,"componentType":5125,"count":1566,"type":"SCALAR"},{"bufferView":9,"componentType":5126,"count":351,"type":"VEC3","min":[-1.7272872924804688,-0.27113133668899536,-1.1498832702636719],"max":[1.4978611469268799,1.988665223121643,1.8392531871795654]},{"bufferView":10,"componentType":5126,"count":351,"type":"VEC3"},{"bufferView":11,"componentType":5126,"count":351,"type":"VEC2"},{"bufferView":12,"componentType":5126,"count":351,"type":"VEC3"},{"bufferView":13,"componentType":5126,"count":351,"type":"VEC3"},{"bufferView":14,"componentType":5126,"count":351,"type":"VEC3"},{"bufferView":15,"componentType":5126,"count":351,"type":"VEC3"},{"bufferView":16,"componentType":5126,"count":351,"type":"SCALAR"},{"bufferView":17,"componentType":5125,"count":1026,"type":"SCALAR"},{"bufferView":18,"componentType":5126,"count":207,"type":"VEC3","min":[-0.4144456684589386,0.014999999664723873,-0.44846683740615845],"max":[0.5123918652534485,0.6399999856948853,0.44846683740615845]},{"bufferView":19,"componentType":5126,"count":207,"type":"VEC3"},{"bufferView":20,"componentType":5126,"count":207,"type":"VEC2"},{"bufferView":21,"componentType":5126,"count":207,"type":"VEC3"},{"bufferView":22,"componentType":5126,"count":207,"type":"VEC3"},{"bufferView":23,"componentType":5126,"count":207,"type":"VEC3"},{"bufferView":24,"componentType":5126,"count":207,"type":"VEC3"},{"bufferView":25,"componentType":5126,"count":207,"type":"SCALAR"},{"bufferView":26,"componentType":5125,"count":207,"type":"SCALAR"},{"bufferView":27,"componentType":5126,"count":147,"type":"VEC3","min":[-0.4955166280269623,0.014999999664723873,-0.4209120273590088],"max":[0.5684067010879517,0.41999998688697815,0.4396880567073822]},{"bufferView":28,"componentType":5126,"count":147,"type":"VEC3"},{"bufferView":29,"componentType":5126,"count":147,"type":"VEC2"},{"bufferView":30,"componentType":5126,"count":147,"type":"VEC3"},{"bufferView":31,"componentType":5126,"count":147,"type":"VEC3"},{"bufferView":32,"componentType":5126,"count":147,"type":"VEC3"},{"bufferView":33,"componentType":5126,"count":147,"type":"VEC3"},{"bufferView":34,"componentType":5126,"count":147,"type":"SCALAR"},{"bufferView":35,"componentType":5125,"count":147,"type":"SCALAR"},{"bufferView":36,"componentType":5126,"count":1796,"type":"VEC3","min":[-4.721841812133789,-0.0018220000201836228,-1.3137749433517456],"max":[4.035912990570068,10.293656349182129,3.0319550037384033]},{"bufferView":37,"componentType":5126,"count":1796,"type":"VEC3"},{"bufferView":38,"componentType":5126,"count":1796,"type":"VEC2"},{"bufferView":39,"componentType":5126,"count":1796,"type":"VEC3"},{"bufferView":40,"componentType":5126,"count":1796,"type":"VEC3"},{"bufferView":41,"componentType":5126,"count":1796,"type":"VEC3"},{"bufferView":42,"componentType":5126,"count":1796,"type":"VEC3"},{"bufferView":43,"componentType":5126,"count":1796,"type":"SCALAR"},{"bufferView":44,"componentType":5125,"count":4374,"type":"SCALAR"},{"bufferView":45,"componentType":5125,"count":3096,"type":"SCALAR"},{"bufferView":46,"componentType":5126,"count":655,"type":"VEC3","min":[-2.3328819274902344,0.011172999627888203,-2.0712060928344727],"max":[1.805098056793213,5.555437088012695,2.05914306640625]},{"bufferView":47,"componentType":5126,"count":655,"type":"VEC3"},{"bufferView":48,"componentType":5126,"count":655,"type":"VEC2"},{"bufferView":49,"componentType":5126,"count":655,"type":"VEC3"},{"bufferView":50,"componentType":5126,"count":655,"type":"VEC3"},{"bufferView":51,"componentType":5126,"count":655,"type":"VEC3"},{"bufferView":52,"componentType":5126,"count":655,"type":"VEC3"},{"bufferView":53,"componentType":5126,"count":655,"type":"SCALAR"},{"bufferView":54,"componentType":5125,"count":1332,"type":"SCALAR"},{"bufferView":55,"componentType":5125,"count":1080,"type":"SCALAR"},{"bufferView":56,"componentType":5126,"count":482,"type":"VEC3","min":[-3.7659718990325928,-0.07409700006246567,-3.4778990745544434],"max":[3.116921901702881,8.022987365722656,3.8158159255981445]},{"bufferView":57,"componentType":5126,"count":482,"type":"VEC3"},{"bufferView":58,"componentType":5126,"count":482,"type":"VEC2"},{"bufferView":59,"componentType":5126,"count":482,"type":"VEC3"},{"bufferView":60,"componentType":5126,"count":482,"type":"VEC3"},{"bufferView":61,"componentType":5126,"count":482,"type":"VEC3"},{"bufferView":62,"componentType":5126,"count":482,"type":"VEC3"},{"bufferView":63,"componentType":5126,"count":482,"type":"SCALAR"},{"bufferView":64,"componentType":5125,"count":444,"type":"SCALAR"},{"bufferView":65,"componentType":5125,"count":1152,"type":"SCALAR"},{"bufferView":66,"componentType":5126,"count":1326,"type":"VEC3","min":[-3.6411149501800537,0.011172999627888203,-2.5864460468292236],"max":[3.095597982406616,6.3706889152526855,2.3982579708099365]},{"bufferView":67,"componentType":5126,"count":1326,"type":"VEC3"},{"bufferView":68,"componentType":5126,"count":1326,"type":"VEC2"},{"bufferView":69,"componentType":5126,"count":1326,"type":"VEC3"},{"bufferView":70,"componentType":5126,"count":1326,"type":"VEC3"},{"bufferView":71,"componentType":5126,"count":1326,"type":"VEC3"},{"bufferView":72,"componentType":5126,"count":1326,"type":"VEC3"},{"bufferView":73,"componentType":5126,"count":1326,"type":"SCALAR"},{"bufferView":74,"componentType":5125,"count":2616,"type":"SCALAR"},{"bufferView":75,"componentType":5125,"count":2952,"type":"SCALAR"}],"meshes":[{"name":"945c10e33683e4b3baa7557ff260c79730a9992e0e5a23b5d9307a2c40355ae1","primitives":[{"attributes":{"POSITION":0,"NORMAL":1,"TEXCOORD_0":2,"COLOR_0":3,"_VELDREN_NORMAL":4,"_VELDREN_COLOR":5,"_VELDREN_FALLBACK":6,"_VELDREN_MATERIAL":7},"indices":8,"material":0,"extras":{"mixedAtlasFallback":false}}]},{"name":"d3a49cf40a43bca59e27ca2096fab65e613b5d5993f180ce0def51f1fdd95647","primitives":[{"attributes":{"POSITION":9,"NORMAL":10,"TEXCOORD_0":11,"COLOR_0":12,"_VELDREN_NORMAL":13,"_VELDREN_COLOR":14,"_VELDREN_FALLBACK":15,"_VELDREN_MATERIAL":16},"indices":17,"material":1,"extras":{"mixedAtlasFallback":false}}]},{"name":"c2f99fb65c8e764f8a2546544009dc024b5346effe67d789fc80594bcf5ea2c0","primitives":[{"attributes":{"POSITION":18,"NORMAL":19,"TEXCOORD_0":20,"COLOR_0":21,"_VELDREN_NORMAL":22,"_VELDREN_COLOR":23,"_VELDREN_FALLBACK":24,"_VELDREN_MATERIAL":25},"indices":26,"material":2,"extras":{"mixedAtlasFallback":false}}]},{"name":"3cce8cbb5507a2461b5cef9058fc382eb0223360f3ac806ab4c9e0a3cd439a7d","primitives":[{"attributes":{"POSITION":27,"NORMAL":28,"TEXCOORD_0":29,"COLOR_0":30,"_VELDREN_NORMAL":31,"_VELDREN_COLOR":32,"_VELDREN_FALLBACK":33,"_VELDREN_MATERIAL":34},"indices":35,"material":3,"extras":{"mixedAtlasFallback":false}}]},{"name":"133dae8ce562dbc4cbf0d0d2cb7dc4cb2baafed83b6c58ebd4446a3657088e0f","primitives":[{"attributes":{"POSITION":36,"NORMAL":37,"TEXCOORD_0":38,"COLOR_0":39,"_VELDREN_NORMAL":40,"_VELDREN_COLOR":41,"_VELDREN_FALLBACK":42,"_VELDREN_MATERIAL":43},"indices":44,"material":4,"extras":{"mixedAtlasFallback":false}},{"attributes":{"POSITION":36,"NORMAL":37,"TEXCOORD_0":38,"COLOR_0":39,"_VELDREN_NORMAL":40,"_VELDREN_COLOR":41,"_VELDREN_FALLBACK":42,"_VELDREN_MATERIAL":43},"indices":45,"material":5,"extras":{"mixedAtlasFallback":false}}]},{"name":"8480a643e36c0194bf11e79cbc019e38e5ff72b8bc295b144212e5f7a5b37347","primitives":[{"attributes":{"POSITION":46,"NORMAL":47,"TEXCOORD_0":48,"COLOR_0":49,"_VELDREN_NORMAL":50,"_VELDREN_COLOR":51,"_VELDREN_FALLBACK":52,"_VELDREN_MATERIAL":53},"indices":54,"material":6,"extras":{"mixedAtlasFallback":false}},{"attributes":{"POSITION":46,"NORMAL":47,"TEXCOORD_0":48,"COLOR_0":49,"_VELDREN_NORMAL":50,"_VELDREN_COLOR":51,"_VELDREN_FALLBACK":52,"_VELDREN_MATERIAL":53},"indices":55,"material":7,"extras":{"mixedAtlasFallback":false}}]},{"name":"7e2e11a73c6c1f6b77c7c18c44a87655900818e94c168e7a92bb0a48cc87a1c1","primitives":[{"attributes":{"POSITION":56,"NORMAL":57,"TEXCOORD_0":58,"COLOR_0":59,"_VELDREN_NORMAL":60,"_VELDREN_COLOR":61,"_VELDREN_FALLBACK":62,"_VELDREN_MATERIAL":63},"indices":64,"material":8,"extras":{"mixedAtlasFallback":false}},{"attributes":{"POSITION":56,"NORMAL":57,"TEXCOORD_0":58,"COLOR_0":59,"_VELDREN_NORMAL":60,"_VELDREN_COLOR":61,"_VELDREN_FALLBACK":62,"_VELDREN_MATERIAL":63},"indices":65,"material":9,"extras":{"mixedAtlasFallback":false}}]},{"name":"cf73d73e4a52b629e942c4cf3ba67a960257f3fda86af0eadf8051aa3c1f7c97","primitives":[{"attributes":{"POSITION":66,"NORMAL":67,"TEXCOORD_0":68,"COLOR_0":69,"_VELDREN_NORMAL":70,"_VELDREN_COLOR":71,"_VELDREN_FALLBACK":72,"_VELDREN_MATERIAL":73},"indices":74,"material":10,"extras":{"mixedAtlasFallback":false}},{"attributes":{"POSITION":66,"NORMAL":67,"TEXCOORD_0":68,"COLOR_0":69,"_VELDREN_NORMAL":70,"_VELDREN_COLOR":71,"_VELDREN_FALLBACK":72,"_VELDREN_MATERIAL":73},"indices":75,"material":11,"extras":{"mixedAtlasFallback":false}}]}],"materials":[{"name":"legacy-material-33","pbrMetallicRoughness":{"baseColorFactor":[1,1,1,1],"metallicFactor":0,"roughnessFactor":1,"baseColorTexture":{"index":0}},"doubleSided":true,"extras":{"legacyMaterial":33,"legacyShader":"dist/renderer-gl.js"}},{"name":"legacy-material-33","pbrMetallicRoughness":{"baseColorFactor":[1,1,1,1],"metallicFactor":0,"roughnessFactor":1,"baseColorTexture":{"index":1}},"doubleSided":true,"extras":{"legacyMaterial":33,"legacyShader":"dist/renderer-gl.js"}},{"name":"legacy-material-12","pbrMetallicRoughness":{"baseColorFactor":[1,1,1,1],"metallicFactor":0,"roughnessFactor":1},"doubleSided":true,"extras":{"legacyMaterial":12,"legacyShader":"dist/renderer-gl.js","limitation":"Browser procedural material not implemented by this glTF export; source/base attributes retained."}},{"name":"legacy-material-12","pbrMetallicRoughness":{"baseColorFactor":[1,1,1,1],"metallicFactor":0,"roughnessFactor":1},"doubleSided":true,"extras":{"legacyMaterial":12,"legacyShader":"dist/renderer-gl.js","limitation":"Browser procedural material not implemented by this glTF export; source/base attributes retained."}},{"name":"legacy-material-52","pbrMetallicRoughness":{"baseColorFactor":[1,1,1,1],"metallicFactor":0,"roughnessFactor":1,"baseColorTexture":{"index":2}},"doubleSided":true,"extras":{"legacyMaterial":52,"legacyShader":"dist/renderer-gl.js"}},{"name":"legacy-material-53","pbrMetallicRoughness":{"baseColorFactor":[1,1,1,1],"metallicFactor":0,"roughnessFactor":1,"baseColorTexture":{"index":3}},"doubleSided":true,"extras":{"legacyMaterial":53,"legacyShader":"dist/renderer-gl.js"},"alphaMode":"MASK","alphaCutoff":0.45},{"name":"legacy-material-49","pbrMetallicRoughness":{"baseColorFactor":[1,1,1,1],"metallicFactor":0,"roughnessFactor":1,"baseColorTexture":{"index":4}},"doubleSided":true,"extras":{"legacyMaterial":49,"legacyShader":"dist/renderer-gl.js"}},{"name":"legacy-material-50","pbrMetallicRoughness":{"baseColorFactor":[1,1,1,1],"metallicFactor":0,"roughnessFactor":1,"baseColorTexture":{"index":5}},"doubleSided":true,"extras":{"legacyMaterial":50,"legacyShader":"dist/renderer-gl.js"},"alphaMode":"MASK","alphaCutoff":0.45},{"name":"legacy-material-49","pbrMetallicRoughness":{"baseColorFactor":[1,1,1,1],"metallicFactor":0,"roughnessFactor":1,"baseColorTexture":{"index":6}},"doubleSided":true,"extras":{"legacyMaterial":49,"legacyShader":"dist/renderer-gl.js"}},{"name":"legacy-material-54","pbrMetallicRoughness":{"baseColorFactor":[1,1,1,1],"metallicFactor":0,"roughnessFactor":1,"baseColorTexture":{"index":7}},"doubleSided":true,"extras":{"legacyMaterial":54,"legacyShader":"dist/renderer-gl.js"},"alphaMode":"MASK","alphaCutoff":0.45},{"name":"legacy-material-49","pbrMetallicRoughness":{"baseColorFactor":[1,1,1,1],"metallicFactor":0,"roughnessFactor":1,"baseColorTexture":{"index":8}},"doubleSided":true,"extras":{"legacyMaterial":49,"legacyShader":"dist/renderer-gl.js"}},{"name":"legacy-material-50","pbrMetallicRoughness":{"baseColorFactor":[1,1,1,1],"metallicFactor":0,"roughnessFactor":1,"baseColorTexture":{"index":9}},"doubleSided":true,"extras":{"legacyMaterial":50,"legacyShader":"dist/renderer-gl.js"},"alphaMode":"MASK","alphaCutoff":0.45}],"images":[{"name":"atlas-13","uri":"../../textures/atlas/tile-13.png"},{"name":"atlas-13","uri":"../../textures/atlas/tile-13.png"},{"name":"atlas-32","uri":"../../textures/atlas/tile-32.png"},{"name":"atlas-33","uri":"../../textures/atlas/tile-33.png"},{"name":"atlas-29","uri":"../../textures/atlas/tile-29.png"},{"name":"atlas-30","uri":"../../textures/atlas/tile-30.png"},{"name":"atlas-29","uri":"../../textures/atlas/tile-29.png"},{"name":"atlas-34","uri":"../../textures/atlas/tile-34.png"},{"name":"atlas-29","uri":"../../textures/atlas/tile-29.png"},{"name":"atlas-30","uri":"../../textures/atlas/tile-30.png"}],"textures":[{"source":0,"sampler":0},{"source":1,"sampler":1},{"source":2,"sampler":2},{"source":3,"sampler":2},{"source":4,"sampler":3},{"source":5,"sampler":3},{"source":6,"sampler":4},{"source":7,"sampler":4},{"source":8,"sampler":5},{"source":9,"sampler":5}],"samplers":[{"magFilter":9729,"minFilter":9729,"wrapS":10497,"wrapT":10497},{"magFilter":9729,"minFilter":9729,"wrapS":10497,"wrapT":10497},{"magFilter":9729,"minFilter":9729,"wrapS":10497,"wrapT":10497},{"magFilter":9729,"minFilter":9729,"wrapS":10497,"wrapT":10497},{"magFilter":9729,"minFilter":9729,"wrapS":10497,"wrapT":10497},{"magFilter":9729,"minFilter":9729,"wrapS":10497,"wrapT":10497}]}
