{"asset":{"version":"2.0","generator":"Veldren static world recovery"},"scene":0,"scenes":[{"nodes":[0,2,4,6,8,10,12,14,16,18,20,22,24,26,28,30,32,34,36,38]}],"extras":{"sourceScene":"overworld","notVervesisScene":true,"gameplayIdentityExternal":true,"limitations":["Terrain stored separately.","Dynamic actors, fires, gates, crops, fish, effects and ground cover are not baked.","Roofs are closed; browser procedural materials require native support."]},"nodes":[{"name":"Maple tree","children":[1],"extras":{"veldrenEntityKey":"overworld:object:1090"}},{"mesh":0,"matrix":[0.31415079841586113,0.0,-0.6248042363502849,0.0,0.0,0.6993361551547194,0.0,0.0,0.6248042363502849,0.0,0.31415079841586113,0.0,897.5,2.6367251512422922,642.5,1.0]},{"name":"Yew tree","children":[3],"extras":{"veldrenEntityKey":"overworld:object:1091"}},{"mesh":1,"matrix":[-0.8166972031321541,0.0,0.30957182170782976,0.0,0.0,0.8734008440569468,0.0,0.0,-0.30957182170782976,0.0,-0.8166972031321541,0.0,918.5,1.9478384850397201,642.5,1.0]},{"name":"Yew tree","children":[5],"extras":{"veldrenEntityKey":"overworld:object:1114"}},{"mesh":1,"matrix":[-0.44712460319210684,0.0,-0.7108853018909496,0.0,0.0,0.8398085039009104,0.0,0.0,0.7108853018909496,0.0,-0.44712460319210684,0.0,928.5,0.8208037092444977,654.5,1.0]},{"name":"Maple tree","children":[7],"extras":{"veldrenEntityKey":"overworld:object:1115"}},{"mesh":0,"matrix":[-0.1310288221406865,0.0,0.715409465970494,0.0,0.0,0.7273096013609082,0.0,0.0,-0.715409465970494,0.0,-0.1310288221406865,0.0,928.5,1.5906072738510422,647.5,1.0]},{"name":"Yew tree","children":[9],"extras":{"veldrenEntityKey":"overworld:object:1116"}},{"mesh":1,"matrix":[0.6432477259972986,0.0,-0.4860214662777825,0.0,0.0,0.8062161637448739,0.0,0.0,0.4860214662777825,0.0,0.6432477259972986,0.0,934.5,0.912904418171756,642.5,1.0]},{"name":"Magic tree","children":[11],"extras":{"veldrenEntityKey":"overworld:object:1117"}},{"mesh":2,"matrix":[-1.396529636638397,0.0,-0.1338227467313461,0.0,0.0,1.4029267812512864,0.0,0.0,0.1338227467313461,0.0,-1.396529636638397,0.0,927.5,1.5743536086634753,641.5,1.0]},{"name":"Maple tree","children":[13],"extras":{"veldrenEntityKey":"overworld:object:1135"}},{"mesh":0,"matrix":[-0.4369945401794275,0.0,-0.5459916022797021,0.0,0.0,0.6993361551547194,0.0,0.0,0.5459916022797021,0.0,-0.4369945401794275,0.0,907.5,1.3365692766961488,677.5,1.0]},{"name":"Maple tree","children":[15],"extras":{"veldrenEntityKey":"overworld:object:1136"}},{"mesh":0,"matrix":[-0.049148275984972165,0.0,0.7256470927382457,0.0,0.0,0.7273096013609082,0.0,0.0,-0.7256470927382457,0.0,-0.049148275984972165,0.0,917.5,1.006537754685634,668.5,1.0]},{"name":"Magic tree","children":[17],"extras":{"veldrenEntityKey":"overworld:object:1137"}},{"mesh":2,"matrix":[0.9756809410759124,0.0,-0.928408905695563,0.0,0.0,1.346809710001235,0.0,0.0,0.928408905695563,0.0,0.9756809410759124,0.0,925.5,0.6829837035364786,659.5,1.0]},{"name":"Yew tree","children":[19],"extras":{"veldrenEntityKey":"overworld:object:1165"}},{"mesh":1,"matrix":[0.31799145309287635,0.0,0.7772771442569031,0.0,0.0,0.8398085039009104,0.0,0.0,-0.7772771442569031,0.0,0.31799145309287635,0.0,899.5,1.1366639400478267,683.5,1.0]},{"name":"Magic tree","children":[21],"extras":{"veldrenEntityKey":"overworld:object:1166"}},{"mesh":2,"matrix":[0.5061343698099414,0.0,-1.3684432626963527,0.0,0.0,1.4590438525013378,0.0,0.0,1.3684432626963527,0.0,0.5061343698099414,0.0,912.5,1.131269062785303,673.5,1.0]},{"name":"Maple tree","children":[23],"extras":{"veldrenEntityKey":"overworld:object:1167"}},{"mesh":0,"matrix":[-0.5973613658712571,0.0,0.30641032216806174,0.0,0.0,0.6713627089485306,0.0,0.0,-0.30641032216806174,0.0,-0.5973613658712571,0.0,921.5,1.8029683617483097,653.5,1.0]},{"name":"Maple tree","children":[25],"extras":{"veldrenEntityKey":"overworld:object:1196"}},{"mesh":0,"matrix":[-0.4348644559891736,0.0,0.5829855582679585,0.0,0.0,0.7273096013609082,0.0,0.0,-0.5829855582679585,0.0,-0.4348644559891736,0.0,905.5,1.942846679528559,671.5,1.0]},{"name":"Yew tree","children":[27],"extras":{"veldrenEntityKey":"overworld:object:1197"}},{"mesh":1,"matrix":[0.7921137111773437,0.0,-0.15013451051759172,0.0,0.0,0.8062161637448739,0.0,0.0,0.15013451051759172,0.0,0.7921137111773437,0.0,901.5,1.9379943297066586,676.5,1.0]},{"name":"Magic tree","children":[29],"extras":{"veldrenEntityKey":"overworld:object:1198"}},{"mesh":2,"matrix":[-1.192142502267443,0.0,-0.7395943535747246,0.0,0.0,1.4029267812512864,0.0,0.0,0.7395943535747246,0.0,-1.192142502267443,0.0,911.5,1.9653725993928164,663.5,1.0]},{"name":"Magic tree","children":[31],"extras":{"veldrenEntityKey":"overworld:object:1228"}},{"mesh":2,"matrix":[0.9344054047782699,0.0,1.0464655240729397,0.0,0.0,1.4029267812512864,0.0,0.0,-1.0464655240729397,0.0,0.9344054047782699,0.0,898.5,1.970580040674109,671.5,1.0]},{"name":"Maple tree","children":[33],"extras":{"veldrenEntityKey":"overworld:object:1229"}},{"mesh":0,"matrix":[0.009967752601471801,0.0,-0.7272412943032313,0.0,0.0,0.7273096013609082,0.0,0.0,0.7272412943032313,0.0,0.009967752601471801,0.0,905.5,2.013506908760975,665.5,1.0]},{"name":"Maple tree","children":[35],"extras":{"veldrenEntityKey":"overworld:object:9127645"}},{"mesh":0,"matrix":[0.4439791982709962,0.0,0.5403272428901111,0.0,0.0,0.6993361551547194,0.0,0.0,-0.5403272428901111,0.0,0.4439791982709962,0.0,908.5,2.0708623227108776,656.5,1.0]},{"name":"Maple tree","children":[37],"extras":{"veldrenEntityKey":"overworld:object:9127648"}},{"mesh":0,"matrix":[0.6990035419091585,0.0,-0.021566323401010796,0.0,0.0,0.6993361551547194,0.0,0.0,0.021566323401010796,0.0,0.6990035419091585,0.0,917.5,1.8915163819954077,658.5,1.0]},{"name":"Magic tree","children":[39],"extras":{"veldrenEntityKey":"overworld:object:9127650"}},{"mesh":2,"matrix":[0.1564873693361096,0.0,1.3376875936450463,0.0,0.0,1.346809710001235,0.0,0.0,-1.3376875936450463,0.0,0.1564873693361096,0.0,902.5,2.1990016418037968,656.5,1.0]}],"buffers":[{"uri":"../world-parts/133dae8ce562dbc4cbf0d0d2cb7dc4cb2baafed83b6c58ebd4446a3657088e0f.bin","byteLength":180744},{"uri":"../world-parts/7e2e11a73c6c1f6b77c7c18c44a87655900818e94c168e7a92bb0a48cc87a1c1.bin","byteLength":46872},{"uri":"../world-parts/883bf022a4c95c0b0a24ce14e7511dc7b18eb62759134961097aa30193af8da4.bin","byteLength":86364}],"bufferViews":[{"buffer":0,"byteOffset":0,"byteLength":21552,"target":34962},{"buffer":0,"byteOffset":21552,"byteLength":21552,"target":34962},{"buffer":0,"byteOffset":43104,"byteLength":14368,"target":34962},{"buffer":0,"byteOffset":57472,"byteLength":21552,"target":34962},{"buffer":0,"byteOffset":79024,"byteLength":21552,"target":34962},{"buffer":0,"byteOffset":100576,"byteLength":21552,"target":34962},{"buffer":0,"byteOffset":122128,"byteLength":21552,"target":34962},{"buffer":0,"byteOffset":143680,"byteLength":7184,"target":34962},{"buffer":0,"byteOffset":150864,"byteLength":17496,"target":34963},{"buffer":0,"byteOffset":168360,"byteLength":12384,"target":34963},{"buffer":1,"byteOffset":0,"byteLength":5784,"target":34962},{"buffer":1,"byteOffset":5784,"byteLength":5784,"target":34962},{"buffer":1,"byteOffset":11568,"byteLength":3856,"target":34962},{"buffer":1,"byteOffset":15424,"byteLength":5784,"target":34962},{"buffer":1,"byteOffset":21208,"byteLength":5784,"target":34962},{"buffer":1,"byteOffset":26992,"byteLength":5784,"target":34962},{"buffer":1,"byteOffset":32776,"byteLength":5784,"target":34962},{"buffer":1,"byteOffset":38560,"byteLength":1928,"target":34962},{"buffer":1,"byteOffset":40488,"byteLength":1776,"target":34963},{"buffer":1,"byteOffset":42264,"byteLength":4608,"target":34963},{"buffer":2,"byteOffset":0,"byteLength":10260,"target":34962},{"buffer":2,"byteOffset":10260,"byteLength":10260,"target":34962},{"buffer":2,"byteOffset":20520,"byteLength":6840,"target":34962},{"buffer":2,"byteOffset":27360,"byteLength":10260,"target":34962},{"buffer":2,"byteOffset":37620,"byteLength":10260,"target":34962},{"buffer":2,"byteOffset":47880,"byteLength":10260,"target":34962},{"buffer":2,"byteOffset":58140,"byteLength":10260,"target":34962},{"buffer":2,"byteOffset":68400,"byteLength":3420,"target":34962},{"buffer":2,"byteOffset":71820,"byteLength":9072,"target":34963},{"buffer":2,"byteOffset":80892,"byteLength":5472,"target":34963}],"accessors":[{"bufferView":0,"componentType":5126,"count":1796,"type":"VEC3","min":[-4.721841812133789,-0.0018220000201836228,-1.3137749433517456],"max":[4.035912990570068,10.293656349182129,3.0319550037384033]},{"bufferView":1,"componentType":5126,"count":1796,"type":"VEC3"},{"bufferView":2,"componentType":5126,"count":1796,"type":"VEC2"},{"bufferView":3,"componentType":5126,"count":1796,"type":"VEC3"},{"bufferView":4,"componentType":5126,"count":1796,"type":"VEC3"},{"bufferView":5,"componentType":5126,"count":1796,"type":"VEC3"},{"bufferView":6,"componentType":5126,"count":1796,"type":"VEC3"},{"bufferView":7,"componentType":5126,"count":1796,"type":"SCALAR"},{"bufferView":8,"componentType":5125,"count":4374,"type":"SCALAR"},{"bufferView":9,"componentType":5125,"count":3096,"type":"SCALAR"},{"bufferView":10,"componentType":5126,"count":482,"type":"VEC3","min":[-3.7659718990325928,-0.07409700006246567,-3.4778990745544434],"max":[3.116921901702881,8.022987365722656,3.8158159255981445]},{"bufferView":11,"componentType":5126,"count":482,"type":"VEC3"},{"bufferView":12,"componentType":5126,"count":482,"type":"VEC2"},{"bufferView":13,"componentType":5126,"count":482,"type":"VEC3"},{"bufferView":14,"componentType":5126,"count":482,"type":"VEC3"},{"bufferView":15,"componentType":5126,"count":482,"type":"VEC3"},{"bufferView":16,"componentType":5126,"count":482,"type":"VEC3"},{"bufferView":17,"componentType":5126,"count":482,"type":"SCALAR"},{"bufferView":18,"componentType":5125,"count":444,"type":"SCALAR"},{"bufferView":19,"componentType":5125,"count":1152,"type":"SCALAR"},{"bufferView":20,"componentType":5126,"count":855,"type":"VEC3","min":[-3.2856340408325195,-0.0013800000306218863,-2.3520750999450684],"max":[0.9950600266456604,4.346673011779785,1.6284259557724]},{"bufferView":21,"componentType":5126,"count":855,"type":"VEC3"},{"bufferView":22,"componentType":5126,"count":855,"type":"VEC2"},{"bufferView":23,"componentType":5126,"count":855,"type":"VEC3"},{"bufferView":24,"componentType":5126,"count":855,"type":"VEC3"},{"bufferView":25,"componentType":5126,"count":855,"type":"VEC3"},{"bufferView":26,"componentType":5126,"count":855,"type":"VEC3"},{"bufferView":27,"componentType":5126,"count":855,"type":"SCALAR"},{"bufferView":28,"componentType":5125,"count":2268,"type":"SCALAR"},{"bufferView":29,"componentType":5125,"count":1368,"type":"SCALAR"}],"meshes":[{"name":"133dae8ce562dbc4cbf0d0d2cb7dc4cb2baafed83b6c58ebd4446a3657088e0f","primitives":[{"attributes":{"POSITION":0,"NORMAL":1,"TEXCOORD_0":2,"COLOR_0":3,"_VELDREN_NORMAL":4,"_VELDREN_COLOR":5,"_VELDREN_FALLBACK":6,"_VELDREN_MATERIAL":7},"indices":8,"material":0,"extras":{"mixedAtlasFallback":false}},{"attributes":{"POSITION":0,"NORMAL":1,"TEXCOORD_0":2,"COLOR_0":3,"_VELDREN_NORMAL":4,"_VELDREN_COLOR":5,"_VELDREN_FALLBACK":6,"_VELDREN_MATERIAL":7},"indices":9,"material":1,"extras":{"mixedAtlasFallback":false}}]},{"name":"7e2e11a73c6c1f6b77c7c18c44a87655900818e94c168e7a92bb0a48cc87a1c1","primitives":[{"attributes":{"POSITION":10,"NORMAL":11,"TEXCOORD_0":12,"COLOR_0":13,"_VELDREN_NORMAL":14,"_VELDREN_COLOR":15,"_VELDREN_FALLBACK":16,"_VELDREN_MATERIAL":17},"indices":18,"material":2,"extras":{"mixedAtlasFallback":false}},{"attributes":{"POSITION":10,"NORMAL":11,"TEXCOORD_0":12,"COLOR_0":13,"_VELDREN_NORMAL":14,"_VELDREN_COLOR":15,"_VELDREN_FALLBACK":16,"_VELDREN_MATERIAL":17},"indices":19,"material":3,"extras":{"mixedAtlasFallback":false}}]},{"name":"883bf022a4c95c0b0a24ce14e7511dc7b18eb62759134961097aa30193af8da4","primitives":[{"attributes":{"POSITION":20,"NORMAL":21,"TEXCOORD_0":22,"COLOR_0":23,"_VELDREN_NORMAL":24,"_VELDREN_COLOR":25,"_VELDREN_FALLBACK":26,"_VELDREN_MATERIAL":27},"indices":28,"material":4,"extras":{"mixedAtlasFallback":false}},{"attributes":{"POSITION":20,"NORMAL":21,"TEXCOORD_0":22,"COLOR_0":23,"_VELDREN_NORMAL":24,"_VELDREN_COLOR":25,"_VELDREN_FALLBACK":26,"_VELDREN_MATERIAL":27},"indices":29,"material":5,"extras":{"mixedAtlasFallback":false}}]}],"materials":[{"name":"legacy-material-52","pbrMetallicRoughness":{"baseColorFactor":[1,1,1,1],"metallicFactor":0,"roughnessFactor":1,"baseColorTexture":{"index":0}},"doubleSided":true,"extras":{"legacyMaterial":52,"legacyShader":"dist/renderer-gl.js"}},{"name":"legacy-material-53","pbrMetallicRoughness":{"baseColorFactor":[1,1,1,1],"metallicFactor":0,"roughnessFactor":1,"baseColorTexture":{"index":1}},"doubleSided":true,"extras":{"legacyMaterial":53,"legacyShader":"dist/renderer-gl.js"},"alphaMode":"MASK","alphaCutoff":0.45},{"name":"legacy-material-49","pbrMetallicRoughness":{"baseColorFactor":[1,1,1,1],"metallicFactor":0,"roughnessFactor":1,"baseColorTexture":{"index":2}},"doubleSided":true,"extras":{"legacyMaterial":49,"legacyShader":"dist/renderer-gl.js"}},{"name":"legacy-material-54","pbrMetallicRoughness":{"baseColorFactor":[1,1,1,1],"metallicFactor":0,"roughnessFactor":1,"baseColorTexture":{"index":3}},"doubleSided":true,"extras":{"legacyMaterial":54,"legacyShader":"dist/renderer-gl.js"},"alphaMode":"MASK","alphaCutoff":0.45},{"name":"legacy-material-49","pbrMetallicRoughness":{"baseColorFactor":[1,1,1,1],"metallicFactor":0,"roughnessFactor":1,"baseColorTexture":{"index":4}},"doubleSided":true,"extras":{"legacyMaterial":49,"legacyShader":"dist/renderer-gl.js"}},{"name":"legacy-material-55","pbrMetallicRoughness":{"baseColorFactor":[1,1,1,1],"metallicFactor":0,"roughnessFactor":1,"baseColorTexture":{"index":5}},"doubleSided":true,"extras":{"legacyMaterial":55,"legacyShader":"dist/renderer-gl.js"},"alphaMode":"MASK","alphaCutoff":0.45}],"images":[{"name":"atlas-32","uri":"../../textures/atlas/tile-32.png"},{"name":"atlas-33","uri":"../../textures/atlas/tile-33.png"},{"name":"atlas-29","uri":"../../textures/atlas/tile-29.png"},{"name":"atlas-34","uri":"../../textures/atlas/tile-34.png"},{"name":"atlas-29","uri":"../../textures/atlas/tile-29.png"},{"name":"atlas-35","uri":"../../textures/atlas/tile-35.png"}],"textures":[{"source":0,"sampler":0},{"source":1,"sampler":0},{"source":2,"sampler":1},{"source":3,"sampler":1},{"source":4,"sampler":2},{"source":5,"sampler":2}],"samplers":[{"magFilter":9729,"minFilter":9729,"wrapS":10497,"wrapT":10497},{"magFilter":9729,"minFilter":9729,"wrapS":10497,"wrapT":10497},{"magFilter":9729,"minFilter":9729,"wrapS":10497,"wrapT":10497}]}
