{"asset":{"version":"2.0","generator":"Veldren static world recovery"},"scene":0,"scenes":[{"nodes":[0,2,4,6,8,10,12,14]}],"extras":{"sourceScene":"overworld","notVervesisScene":true,"gameplayIdentityExternal":true,"limitations":["Terrain stored separately.","Dynamic actors, fires, gates, crops, fish, effects and ground cover are not baked.","Roofs are closed; browser procedural materials require native support."]},"nodes":[{"name":"Mountain outcrop","children":[1],"extras":{"veldrenEntityKey":"overworld:object:842"}},{"mesh":0,"matrix":[1.2951787154936916,0.0,0.0,0.0,0.0,1.2951787154936916,0.0,0.0,0.0,0.0,1.2951787154936916,0.0,1044.5,2.4117115360264845,390.5,1.0]},{"name":"Mountain outcrop","children":[3],"extras":{"veldrenEntityKey":"overworld:object:843"}},{"mesh":1,"matrix":[1.3275531317081868,0.0,0.0,0.0,0.0,1.3275531317081868,0.0,0.0,0.0,0.0,1.3275531317081868,0.0,1054.5,0.8744188621021136,385.5,1.0]},{"name":"Tin rock","children":[5],"extras":{"veldrenEntityKey":"overworld:object:861"}},{"mesh":2,"matrix":[1.0,0.0,0.0,0.0,0.0,1.0,0.0,0.0,0.0,0.0,1.0,0.0,1051.5,0.49832329381360296,388.5,1.0]},{"name":"Mountain outcrop","children":[7],"extras":{"veldrenEntityKey":"overworld:object:891"}},{"mesh":1,"matrix":[1.3275531317081868,0.0,0.0,0.0,0.0,1.3275531317081868,0.0,0.0,0.0,0.0,1.3275531317081868,0.0,1046.5,0.9935213103939458,392.5,1.0]},{"name":"Mountain outcrop","children":[9],"extras":{"veldrenEntityKey":"overworld:object:892"}},{"mesh":0,"matrix":[1.2951787154936916,0.0,0.0,0.0,0.0,1.2951787154936916,0.0,0.0,0.0,0.0,1.2951787154936916,0.0,1047.5,0.7215164184570464,392.5,1.0]},{"name":"Magic tree","children":[11],"extras":{"veldrenEntityKey":"overworld:object:928"}},{"mesh":3,"matrix":[-0.6147747925860755,0.0,-1.2610533327154894,0.0,0.0,1.4029267812512864,0.0,0.0,1.2610533327154894,0.0,-0.6147747925860755,0.0,1048.5,2.420707341221203,385.5,1.0]},{"name":"Maple tree","children":[13],"extras":{"veldrenEntityKey":"overworld:object:958"}},{"mesh":4,"matrix":[0.11622903959157677,0.0,0.6896099392136147,0.0,0.0,0.6993361551547194,0.0,0.0,-0.6896099392136147,0.0,0.11622903959157677,0.0,1027.5,1.0099306220379467,405.5,1.0]},{"name":"Yew tree","children":[15],"extras":{"veldrenEntityKey":"overworld:object:959"}},{"mesh":5,"matrix":[0.4754391911667035,0.0,-0.7326572253804217,0.0,0.0,0.8734008440569468,0.0,0.0,0.7326572253804217,0.0,0.4754391911667035,0.0,1041.5,1.081480118505495,395.5,1.0]}],"buffers":[{"uri":"../world-parts/945c10e33683e4b3baa7557ff260c79730a9992e0e5a23b5d9307a2c40355ae1.bin","byteLength":50868},{"uri":"../world-parts/d3a49cf40a43bca59e27ca2096fab65e613b5d5993f180ce0def51f1fdd95647.bin","byteLength":33588},{"uri":"../world-parts/3cce8cbb5507a2461b5cef9058fc382eb0223360f3ac806ab4c9e0a3cd439a7d.bin","byteLength":12936},{"uri":"../world-parts/883bf022a4c95c0b0a24ce14e7511dc7b18eb62759134961097aa30193af8da4.bin","byteLength":86364},{"uri":"../world-parts/133dae8ce562dbc4cbf0d0d2cb7dc4cb2baafed83b6c58ebd4446a3657088e0f.bin","byteLength":180744},{"uri":"../world-parts/7e2e11a73c6c1f6b77c7c18c44a87655900818e94c168e7a92bb0a48cc87a1c1.bin","byteLength":46872}],"bufferViews":[{"buffer":0,"byteOffset":0,"byteLength":6372,"target":34962},{"buffer":0,"byteOffset":6372,"byteLength":6372,"target":34962},{"buffer":0,"byteOffset":12744,"byteLength":4248,"target":34962},{"buffer":0,"byteOffset":16992,"byteLength":6372,"target":34962},{"buffer":0,"byteOffset":23364,"byteLength":6372,"target":34962},{"buffer":0,"byteOffset":29736,"byteLength":6372,"target":34962},{"buffer":0,"byteOffset":36108,"byteLength":6372,"target":34962},{"buffer":0,"byteOffset":42480,"byteLength":2124,"target":34962},{"buffer":0,"byteOffset":44604,"byteLength":6264,"target":34963},{"buffer":1,"byteOffset":0,"byteLength":4212,"target":34962},{"buffer":1,"byteOffset":4212,"byteLength":4212,"target":34962},{"buffer":1,"byteOffset":8424,"byteLength":2808,"target":34962},{"buffer":1,"byteOffset":11232,"byteLength":4212,"target":34962},{"buffer":1,"byteOffset":15444,"byteLength":4212,"target":34962},{"buffer":1,"byteOffset":19656,"byteLength":4212,"target":34962},{"buffer":1,"byteOffset":23868,"byteLength":4212,"target":34962},{"buffer":1,"byteOffset":28080,"byteLength":1404,"target":34962},{"buffer":1,"byteOffset":29484,"byteLength":4104,"target":34963},{"buffer":2,"byteOffset":0,"byteLength":1764,"target":34962},{"buffer":2,"byteOffset":1764,"byteLength":1764,"target":34962},{"buffer":2,"byteOffset":3528,"byteLength":1176,"target":34962},{"buffer":2,"byteOffset":4704,"byteLength":1764,"target":34962},{"buffer":2,"byteOffset":6468,"byteLength":1764,"target":34962},{"buffer":2,"byteOffset":8232,"byteLength":1764,"target":34962},{"buffer":2,"byteOffset":9996,"byteLength":1764,"target":34962},{"buffer":2,"byteOffset":11760,"byteLength":588,"target":34962},{"buffer":2,"byteOffset":12348,"byteLength":588,"target":34963},{"buffer":3,"byteOffset":0,"byteLength":10260,"target":34962},{"buffer":3,"byteOffset":10260,"byteLength":10260,"target":34962},{"buffer":3,"byteOffset":20520,"byteLength":6840,"target":34962},{"buffer":3,"byteOffset":27360,"byteLength":10260,"target":34962},{"buffer":3,"byteOffset":37620,"byteLength":10260,"target":34962},{"buffer":3,"byteOffset":47880,"byteLength":10260,"target":34962},{"buffer":3,"byteOffset":58140,"byteLength":10260,"target":34962},{"buffer":3,"byteOffset":68400,"byteLength":3420,"target":34962},{"buffer":3,"byteOffset":71820,"byteLength":9072,"target":34963},{"buffer":3,"byteOffset":80892,"byteLength":5472,"target":34963},{"buffer":4,"byteOffset":0,"byteLength":21552,"target":34962},{"buffer":4,"byteOffset":21552,"byteLength":21552,"target":34962},{"buffer":4,"byteOffset":43104,"byteLength":14368,"target":34962},{"buffer":4,"byteOffset":57472,"byteLength":21552,"target":34962},{"buffer":4,"byteOffset":79024,"byteLength":21552,"target":34962},{"buffer":4,"byteOffset":100576,"byteLength":21552,"target":34962},{"buffer":4,"byteOffset":122128,"byteLength":21552,"target":34962},{"buffer":4,"byteOffset":143680,"byteLength":7184,"target":34962},{"buffer":4,"byteOffset":150864,"byteLength":17496,"target":34963},{"buffer":4,"byteOffset":168360,"byteLength":12384,"target":34963},{"buffer":5,"byteOffset":0,"byteLength":5784,"target":34962},{"buffer":5,"byteOffset":5784,"byteLength":5784,"target":34962},{"buffer":5,"byteOffset":11568,"byteLength":3856,"target":34962},{"buffer":5,"byteOffset":15424,"byteLength":5784,"target":34962},{"buffer":5,"byteOffset":21208,"byteLength":5784,"target":34962},{"buffer":5,"byteOffset":26992,"byteLength":5784,"target":34962},{"buffer":5,"byteOffset":32776,"byteLength":5784,"target":34962},{"buffer":5,"byteOffset":38560,"byteLength":1928,"target":34962},{"buffer":5,"byteOffset":40488,"byteLength":1776,"target":34963},{"buffer":5,"byteOffset":42264,"byteLength":4608,"target":34963}],"accessors":[{"bufferView":0,"componentType":5126,"count":531,"type":"VEC3","min":[-1.8242793083190918,-0.31564441323280334,-0.8904620409011841],"max":[1.5958054065704346,2.000638246536255,2.5856480598449707]},{"bufferView":1,"componentType":5126,"count":531,"type":"VEC3"},{"bufferView":2,"componentType":5126,"count":531,"type":"VEC2"},{"bufferView":3,"componentType":5126,"count":531,"type":"VEC3"},{"bufferView":4,"componentType":5126,"count":531,"type":"VEC3"},{"bufferView":5,"componentType":5126,"count":531,"type":"VEC3"},{"bufferView":6,"componentType":5126,"count":531,"type":"VEC3"},{"bufferView":7,"componentType":5126,"count":531,"type":"SCALAR"},{"bufferView":8,"componentType":5125,"count":1566,"type":"SCALAR"},{"bufferView":9,"componentType":5126,"count":351,"type":"VEC3","min":[-1.7272872924804688,-0.27113133668899536,-1.1498832702636719],"max":[1.4978611469268799,1.988665223121643,1.8392531871795654]},{"bufferView":10,"componentType":5126,"count":351,"type":"VEC3"},{"bufferView":11,"componentType":5126,"count":351,"type":"VEC2"},{"bufferView":12,"componentType":5126,"count":351,"type":"VEC3"},{"bufferView":13,"componentType":5126,"count":351,"type":"VEC3"},{"bufferView":14,"componentType":5126,"count":351,"type":"VEC3"},{"bufferView":15,"componentType":5126,"count":351,"type":"VEC3"},{"bufferView":16,"componentType":5126,"count":351,"type":"SCALAR"},{"bufferView":17,"componentType":5125,"count":1026,"type":"SCALAR"},{"bufferView":18,"componentType":5126,"count":147,"type":"VEC3","min":[-0.4955166280269623,0.014999999664723873,-0.4209120273590088],"max":[0.5684067010879517,0.41999998688697815,0.4396880567073822]},{"bufferView":19,"componentType":5126,"count":147,"type":"VEC3"},{"bufferView":20,"componentType":5126,"count":147,"type":"VEC2"},{"bufferView":21,"componentType":5126,"count":147,"type":"VEC3"},{"bufferView":22,"componentType":5126,"count":147,"type":"VEC3"},{"bufferView":23,"componentType":5126,"count":147,"type":"VEC3"},{"bufferView":24,"componentType":5126,"count":147,"type":"VEC3"},{"bufferView":25,"componentType":5126,"count":147,"type":"SCALAR"},{"bufferView":26,"componentType":5125,"count":147,"type":"SCALAR"},{"bufferView":27,"componentType":5126,"count":855,"type":"VEC3","min":[-3.2856340408325195,-0.0013800000306218863,-2.3520750999450684],"max":[0.9950600266456604,4.346673011779785,1.6284259557724]},{"bufferView":28,"componentType":5126,"count":855,"type":"VEC3"},{"bufferView":29,"componentType":5126,"count":855,"type":"VEC2"},{"bufferView":30,"componentType":5126,"count":855,"type":"VEC3"},{"bufferView":31,"componentType":5126,"count":855,"type":"VEC3"},{"bufferView":32,"componentType":5126,"count":855,"type":"VEC3"},{"bufferView":33,"componentType":5126,"count":855,"type":"VEC3"},{"bufferView":34,"componentType":5126,"count":855,"type":"SCALAR"},{"bufferView":35,"componentType":5125,"count":2268,"type":"SCALAR"},{"bufferView":36,"componentType":5125,"count":1368,"type":"SCALAR"},{"bufferView":37,"componentType":5126,"count":1796,"type":"VEC3","min":[-4.721841812133789,-0.0018220000201836228,-1.3137749433517456],"max":[4.035912990570068,10.293656349182129,3.0319550037384033]},{"bufferView":38,"componentType":5126,"count":1796,"type":"VEC3"},{"bufferView":39,"componentType":5126,"count":1796,"type":"VEC2"},{"bufferView":40,"componentType":5126,"count":1796,"type":"VEC3"},{"bufferView":41,"componentType":5126,"count":1796,"type":"VEC3"},{"bufferView":42,"componentType":5126,"count":1796,"type":"VEC3"},{"bufferView":43,"componentType":5126,"count":1796,"type":"VEC3"},{"bufferView":44,"componentType":5126,"count":1796,"type":"SCALAR"},{"bufferView":45,"componentType":5125,"count":4374,"type":"SCALAR"},{"bufferView":46,"componentType":5125,"count":3096,"type":"SCALAR"},{"bufferView":47,"componentType":5126,"count":482,"type":"VEC3","min":[-3.7659718990325928,-0.07409700006246567,-3.4778990745544434],"max":[3.116921901702881,8.022987365722656,3.8158159255981445]},{"bufferView":48,"componentType":5126,"count":482,"type":"VEC3"},{"bufferView":49,"componentType":5126,"count":482,"type":"VEC2"},{"bufferView":50,"componentType":5126,"count":482,"type":"VEC3"},{"bufferView":51,"componentType":5126,"count":482,"type":"VEC3"},{"bufferView":52,"componentType":5126,"count":482,"type":"VEC3"},{"bufferView":53,"componentType":5126,"count":482,"type":"VEC3"},{"bufferView":54,"componentType":5126,"count":482,"type":"SCALAR"},{"bufferView":55,"componentType":5125,"count":444,"type":"SCALAR"},{"bufferView":56,"componentType":5125,"count":1152,"type":"SCALAR"}],"meshes":[{"name":"945c10e33683e4b3baa7557ff260c79730a9992e0e5a23b5d9307a2c40355ae1","primitives":[{"attributes":{"POSITION":0,"NORMAL":1,"TEXCOORD_0":2,"COLOR_0":3,"_VELDREN_NORMAL":4,"_VELDREN_COLOR":5,"_VELDREN_FALLBACK":6,"_VELDREN_MATERIAL":7},"indices":8,"material":0,"extras":{"mixedAtlasFallback":false}}]},{"name":"d3a49cf40a43bca59e27ca2096fab65e613b5d5993f180ce0def51f1fdd95647","primitives":[{"attributes":{"POSITION":9,"NORMAL":10,"TEXCOORD_0":11,"COLOR_0":12,"_VELDREN_NORMAL":13,"_VELDREN_COLOR":14,"_VELDREN_FALLBACK":15,"_VELDREN_MATERIAL":16},"indices":17,"material":1,"extras":{"mixedAtlasFallback":false}}]},{"name":"3cce8cbb5507a2461b5cef9058fc382eb0223360f3ac806ab4c9e0a3cd439a7d","primitives":[{"attributes":{"POSITION":18,"NORMAL":19,"TEXCOORD_0":20,"COLOR_0":21,"_VELDREN_NORMAL":22,"_VELDREN_COLOR":23,"_VELDREN_FALLBACK":24,"_VELDREN_MATERIAL":25},"indices":26,"material":2,"extras":{"mixedAtlasFallback":false}}]},{"name":"883bf022a4c95c0b0a24ce14e7511dc7b18eb62759134961097aa30193af8da4","primitives":[{"attributes":{"POSITION":27,"NORMAL":28,"TEXCOORD_0":29,"COLOR_0":30,"_VELDREN_NORMAL":31,"_VELDREN_COLOR":32,"_VELDREN_FALLBACK":33,"_VELDREN_MATERIAL":34},"indices":35,"material":3,"extras":{"mixedAtlasFallback":false}},{"attributes":{"POSITION":27,"NORMAL":28,"TEXCOORD_0":29,"COLOR_0":30,"_VELDREN_NORMAL":31,"_VELDREN_COLOR":32,"_VELDREN_FALLBACK":33,"_VELDREN_MATERIAL":34},"indices":36,"material":4,"extras":{"mixedAtlasFallback":false}}]},{"name":"133dae8ce562dbc4cbf0d0d2cb7dc4cb2baafed83b6c58ebd4446a3657088e0f","primitives":[{"attributes":{"POSITION":37,"NORMAL":38,"TEXCOORD_0":39,"COLOR_0":40,"_VELDREN_NORMAL":41,"_VELDREN_COLOR":42,"_VELDREN_FALLBACK":43,"_VELDREN_MATERIAL":44},"indices":45,"material":5,"extras":{"mixedAtlasFallback":false}},{"attributes":{"POSITION":37,"NORMAL":38,"TEXCOORD_0":39,"COLOR_0":40,"_VELDREN_NORMAL":41,"_VELDREN_COLOR":42,"_VELDREN_FALLBACK":43,"_VELDREN_MATERIAL":44},"indices":46,"material":6,"extras":{"mixedAtlasFallback":false}}]},{"name":"7e2e11a73c6c1f6b77c7c18c44a87655900818e94c168e7a92bb0a48cc87a1c1","primitives":[{"attributes":{"POSITION":47,"NORMAL":48,"TEXCOORD_0":49,"COLOR_0":50,"_VELDREN_NORMAL":51,"_VELDREN_COLOR":52,"_VELDREN_FALLBACK":53,"_VELDREN_MATERIAL":54},"indices":55,"material":7,"extras":{"mixedAtlasFallback":false}},{"attributes":{"POSITION":47,"NORMAL":48,"TEXCOORD_0":49,"COLOR_0":50,"_VELDREN_NORMAL":51,"_VELDREN_COLOR":52,"_VELDREN_FALLBACK":53,"_VELDREN_MATERIAL":54},"indices":56,"material":8,"extras":{"mixedAtlasFallback":false}}]}],"materials":[{"name":"legacy-material-33","pbrMetallicRoughness":{"baseColorFactor":[1,1,1,1],"metallicFactor":0,"roughnessFactor":1,"baseColorTexture":{"index":0}},"doubleSided":true,"extras":{"legacyMaterial":33,"legacyShader":"dist/renderer-gl.js"}},{"name":"legacy-material-33","pbrMetallicRoughness":{"baseColorFactor":[1,1,1,1],"metallicFactor":0,"roughnessFactor":1,"baseColorTexture":{"index":1}},"doubleSided":true,"extras":{"legacyMaterial":33,"legacyShader":"dist/renderer-gl.js"}},{"name":"legacy-material-12","pbrMetallicRoughness":{"baseColorFactor":[1,1,1,1],"metallicFactor":0,"roughnessFactor":1},"doubleSided":true,"extras":{"legacyMaterial":12,"legacyShader":"dist/renderer-gl.js","limitation":"Browser procedural material not implemented by this glTF export; source/base attributes retained."}},{"name":"legacy-material-49","pbrMetallicRoughness":{"baseColorFactor":[1,1,1,1],"metallicFactor":0,"roughnessFactor":1,"baseColorTexture":{"index":2}},"doubleSided":true,"extras":{"legacyMaterial":49,"legacyShader":"dist/renderer-gl.js"}},{"name":"legacy-material-55","pbrMetallicRoughness":{"baseColorFactor":[1,1,1,1],"metallicFactor":0,"roughnessFactor":1,"baseColorTexture":{"index":3}},"doubleSided":true,"extras":{"legacyMaterial":55,"legacyShader":"dist/renderer-gl.js"},"alphaMode":"MASK","alphaCutoff":0.45},{"name":"legacy-material-52","pbrMetallicRoughness":{"baseColorFactor":[1,1,1,1],"metallicFactor":0,"roughnessFactor":1,"baseColorTexture":{"index":4}},"doubleSided":true,"extras":{"legacyMaterial":52,"legacyShader":"dist/renderer-gl.js"}},{"name":"legacy-material-53","pbrMetallicRoughness":{"baseColorFactor":[1,1,1,1],"metallicFactor":0,"roughnessFactor":1,"baseColorTexture":{"index":5}},"doubleSided":true,"extras":{"legacyMaterial":53,"legacyShader":"dist/renderer-gl.js"},"alphaMode":"MASK","alphaCutoff":0.45},{"name":"legacy-material-49","pbrMetallicRoughness":{"baseColorFactor":[1,1,1,1],"metallicFactor":0,"roughnessFactor":1,"baseColorTexture":{"index":6}},"doubleSided":true,"extras":{"legacyMaterial":49,"legacyShader":"dist/renderer-gl.js"}},{"name":"legacy-material-54","pbrMetallicRoughness":{"baseColorFactor":[1,1,1,1],"metallicFactor":0,"roughnessFactor":1,"baseColorTexture":{"index":7}},"doubleSided":true,"extras":{"legacyMaterial":54,"legacyShader":"dist/renderer-gl.js"},"alphaMode":"MASK","alphaCutoff":0.45}],"images":[{"name":"atlas-13","uri":"../../textures/atlas/tile-13.png"},{"name":"atlas-13","uri":"../../textures/atlas/tile-13.png"},{"name":"atlas-29","uri":"../../textures/atlas/tile-29.png"},{"name":"atlas-35","uri":"../../textures/atlas/tile-35.png"},{"name":"atlas-32","uri":"../../textures/atlas/tile-32.png"},{"name":"atlas-33","uri":"../../textures/atlas/tile-33.png"},{"name":"atlas-29","uri":"../../textures/atlas/tile-29.png"},{"name":"atlas-34","uri":"../../textures/atlas/tile-34.png"}],"textures":[{"source":0,"sampler":0},{"source":1,"sampler":1},{"source":2,"sampler":2},{"source":3,"sampler":2},{"source":4,"sampler":3},{"source":5,"sampler":3},{"source":6,"sampler":4},{"source":7,"sampler":4}],"samplers":[{"magFilter":9729,"minFilter":9729,"wrapS":10497,"wrapT":10497},{"magFilter":9729,"minFilter":9729,"wrapS":10497,"wrapT":10497},{"magFilter":9729,"minFilter":9729,"wrapS":10497,"wrapT":10497},{"magFilter":9729,"minFilter":9729,"wrapS":10497,"wrapT":10497},{"magFilter":9729,"minFilter":9729,"wrapS":10497,"wrapT":10497}]}
