{"asset":{"version":"2.0","generator":"Veldren static world recovery"},"scene":0,"scenes":[{"nodes":[0,2,4,6,8,10,12,14,16,18,20,22,24,26,28,30,32,34,36,38,40,42,44,46,48,50,52,54,56,58,60,62,64,66,68,70,72,74,76,78,80,82,84,86,88,90,92,94,96,98,100,102,104,106,108,110,112,114,116,118,120,122,124,126,128,130,132,134,136,138,140,142,144]}],"extras":{"sourceScene":"overworld","notVervesisScene":true,"gameplayIdentityExternal":true,"limitations":["Terrain stored separately.","Dynamic actors, fires, gates, crops, fish, effects and ground cover are not baked.","Roofs are closed; browser procedural materials require native support."]},"nodes":[{"name":"Mountain outcrop","children":[1],"extras":{"veldrenEntityKey":"overworld:object:837"}},{"mesh":0,"matrix":[1.3275531317081868,0.0,0.0,0.0,0.0,1.3275531317081868,0.0,0.0,0.0,0.0,1.3275531317081868,0.0,687.5,1.3693866323738617,390.5,1.0]},{"name":"Mountain outcrop","children":[3],"extras":{"veldrenEntityKey":"overworld:object:838"}},{"mesh":1,"matrix":[1.2951787154936916,0.0,0.0,0.0,0.0,1.2951787154936916,0.0,0.0,0.0,0.0,1.2951787154936916,0.0,708.5,1.407247092145099,402.5,1.0]},{"name":"Mountain outcrop","children":[5],"extras":{"veldrenEntityKey":"overworld:object:855"}},{"mesh":0,"matrix":[1.3275531317081868,0.0,0.0,0.0,0.0,1.3275531317081868,0.0,0.0,0.0,0.0,1.3275531317081868,0.0,645.5,12.124318855781846,411.5,1.0]},{"name":"Mountain outcrop","children":[7],"extras":{"veldrenEntityKey":"overworld:object:856"}},{"mesh":1,"matrix":[1.2951787154936916,0.0,0.0,0.0,0.0,1.2951787154936916,0.0,0.0,0.0,0.0,1.2951787154936916,0.0,666.5,8.555885885306669,411.5,1.0]},{"name":"Mountain outcrop","children":[9],"extras":{"veldrenEntityKey":"overworld:object:857"}},{"mesh":0,"matrix":[1.3275531317081868,0.0,0.0,0.0,0.0,1.3275531317081868,0.0,0.0,0.0,0.0,1.3275531317081868,0.0,687.5,5.748305483164414,411.5,1.0]},{"name":"Mountain outcrop","children":[11],"extras":{"veldrenEntityKey":"overworld:object:880"}},{"mesh":1,"matrix":[1.2951787154936916,0.0,0.0,0.0,0.0,1.2951787154936916,0.0,0.0,0.0,0.0,1.2951787154936916,0.0,645.5,11.960192027712433,432.5,1.0]},{"name":"Iron rock","children":[13],"extras":{"veldrenEntityKey":"overworld:object:881"}},{"mesh":2,"matrix":[1.0,0.0,0.0,0.0,0.0,1.0,0.0,0.0,0.0,0.0,1.0,0.0,708.5,10.273479507789638,432.5,1.0]},{"name":"Mountain outcrop","children":[15],"extras":{"veldrenEntityKey":"overworld:object:882"}},{"mesh":1,"matrix":[1.2951787154936916,0.0,0.0,0.0,0.0,1.2951787154936916,0.0,0.0,0.0,0.0,1.2951787154936916,0.0,729.5,8.96072764082541,432.5,1.0]},{"name":"Mountain outcrop","children":[17],"extras":{"veldrenEntityKey":"overworld:object:883"}},{"mesh":0,"matrix":[1.3275531317081868,0.0,0.0,0.0,0.0,1.3275531317081868,0.0,0.0,0.0,0.0,1.3275531317081868,0.0,750.5,7.214697806539659,432.5,1.0]},{"name":"Magic tree","children":[19],"extras":{"veldrenEntityKey":"overworld:object:915"}},{"mesh":3,"matrix":[-0.849512894359695,0.0,-1.0450953244896968,0.0,0.0,1.346809710001235,0.0,0.0,1.0450953244896968,0.0,-0.849512894359695,0.0,642.5,0.6294869959221984,481.5,1.0]},{"name":"Yew tree","children":[21],"extras":{"veldrenEntityKey":"overworld:object:916"}},{"mesh":4,"matrix":[-0.05040957458450554,0.0,0.8382942192419645,0.0,0.0,0.8398085039009104,0.0,0.0,-0.8382942192419645,0.0,-0.05040957458450554,0.0,665.5,0.712741072064196,472.5,1.0]},{"name":"Magic tree","children":[23],"extras":{"veldrenEntityKey":"overworld:object:917"}},{"mesh":3,"matrix":[1.0493480016479855,0.0,-1.0137444130348268,0.0,0.0,1.4590438525013378,0.0,0.0,1.0137444130348268,0.0,1.0493480016479855,0.0,686.5,0.7311697754382435,472.5,1.0]},{"name":"Maple tree","children":[25],"extras":{"veldrenEntityKey":"overworld:object:918"}},{"mesh":5,"matrix":[-0.6711435900965443,0.0,0.01715133927805738,0.0,0.0,0.6713627089485306,0.0,0.0,-0.01715133927805738,0.0,-0.6711435900965443,0.0,702.5,0.8334617152752307,468.5,1.0]},{"name":"Magic tree","children":[27],"extras":{"veldrenEntityKey":"overworld:object:946"}},{"mesh":3,"matrix":[0.4766986639221841,0.0,-1.3194551668650587,0.0,0.0,1.4029267812512864,0.0,0.0,1.3194551668650587,0.0,0.4766986639221841,0.0,645.5,4.778208519894161,495.5,1.0]},{"name":"Maple tree","children":[29],"extras":{"veldrenEntityKey":"overworld:object:947"}},{"mesh":5,"matrix":[-0.6446115552662748,0.0,0.3368311135405362,0.0,0.0,0.7273096013609082,0.0,0.0,-0.3368311135405362,0.0,-0.6446115552662748,0.0,666.5,2.388727293994806,495.5,1.0]},{"name":"Maple tree","children":[31],"extras":{"veldrenEntityKey":"overworld:object:948"}},{"mesh":5,"matrix":[0.6486112056560279,0.0,0.17329567468388588,0.0,0.0,0.6713627089485306,0.0,0.0,-0.17329567468388588,0.0,0.6486112056560279,0.0,729.5,3.9095264940245036,495.5,1.0]},{"name":"Yew tree","children":[33],"extras":{"veldrenEntityKey":"overworld:object:949"}},{"mesh":4,"matrix":[-0.45115119690191025,0.0,-0.708336728370243,0.0,0.0,0.8398085039009104,0.0,0.0,0.708336728370243,0.0,-0.45115119690191025,0.0,750.5,3.251397902294845,495.5,1.0]},{"name":"Silverwood tree","children":[35],"extras":{"veldrenEntityKey":"overworld:object:6807946"}},{"mesh":6,"matrix":[-0.24054861494150667,0.0,-0.7183333050016646,0.0,0.0,0.7575396842574597,0.0,0.0,0.7183333050016646,0.0,-0.24054861494150667,0.0,649.5,2.197027518677077,489.5,1.0]},{"name":"Silverwood tree","children":[37],"extras":{"veldrenEntityKey":"overworld:object:6808221"}},{"mesh":6,"matrix":[-0.22439471837682,0.0,-0.6917530339135838,0.0,0.0,0.7272380968871612,0.0,0.0,0.6917530339135838,0.0,-0.22439471837682,0.0,642.5,7.5495029672658776,502.5,1.0]},{"name":"Silverwood tree","children":[39],"extras":{"veldrenEntityKey":"overworld:object:6808222"}},{"mesh":6,"matrix":[-0.31504996133342744,0.0,0.6889193676249039,0.0,0.0,0.7575396842574597,0.0,0.0,-0.6889193676249039,0.0,-0.31504996133342744,0.0,652.5,7.067596753299648,505.5,1.0]},{"name":"Silverwood tree","children":[41],"extras":{"veldrenEntityKey":"overworld:object:6808223"}},{"mesh":6,"matrix":[0.7258683951926161,0.0,-0.3062824548362816,0.0,0.0,0.7878412716277581,0.0,0.0,0.3062824548362816,0.0,0.7258683951926161,0.0,662.5,4.322327739458539,500.5,1.0]},{"name":"Silverwood tree","children":[43],"extras":{"veldrenEntityKey":"overworld:object:6808228"}},{"mesh":6,"matrix":[0.7463509259997352,0.0,0.12971764908534783,0.0,0.0,0.7575396842574597,0.0,0.0,-0.12971764908534783,0.0,0.7463509259997352,0.0,703.5,4.638513537192001,505.5,1.0]},{"name":"Willow tree","children":[45],"extras":{"veldrenEntityKey":"overworld:object:9116900"}},{"mesh":7,"matrix":[-0.18105258088841253,0.0,-0.8906556872742306,0.0,0.0,0.9088716027692181,0.0,0.0,0.8906556872742306,0.0,-0.18105258088841253,0.0,699.5,2.5123182409585665,405.5,1.0]},{"name":"Tree","children":[47],"extras":{"veldrenEntityKey":"overworld:object:9116901"}},{"mesh":6,"matrix":[-0.3751741742598448,0.0,0.6229924466095105,0.0,0.0,0.7272380968871612,0.0,0.0,-0.6229924466095105,0.0,-0.3751741742598448,0.0,697.5,5.46872983001618,414.5,1.0]},{"name":"Willow tree","children":[49],"extras":{"veldrenEntityKey":"overworld:object:9116902"}},{"mesh":7,"matrix":[0.8383774938260267,0.0,-0.246679163540325,0.0,0.0,0.8739150026627096,0.0,0.0,0.246679163540325,0.0,0.8383774938260267,0.0,692.5,2.575349396050517,403.5,1.0]},{"name":"Maple tree","children":[51],"extras":{"veldrenEntityKey":"overworld:object:9116903"}},{"mesh":5,"matrix":[-0.6528548147429938,0.0,-0.3205617679927759,0.0,0.0,0.7273096013609082,0.0,0.0,0.3205617679927759,0.0,-0.6528548147429938,0.0,704.5,3.1455405758312716,408.5,1.0]},{"name":"Yew tree","children":[53],"extras":{"veldrenEntityKey":"overworld:object:9116904"}},{"mesh":4,"matrix":[0.29286983985278614,0.0,0.7511403061932602,0.0,0.0,0.8062161637448739,0.0,0.0,-0.7511403061932602,0.0,0.29286983985278614,0.0,691.5,5.674096960552846,413.5,1.0]},{"name":"Yew tree","children":[55],"extras":{"veldrenEntityKey":"overworld:object:9116920"}},{"mesh":4,"matrix":[0.7312352536451356,0.0,0.4130052385270914,0.0,0.0,0.8398085039009104,0.0,0.0,-0.4130052385270914,0.0,0.7312352536451356,0.0,714.5,3.7631416940302396,411.5,1.0]},{"name":"Tree","children":[57],"extras":{"veldrenEntityKey":"overworld:object:9116921"}},{"mesh":6,"matrix":[-0.24338574464293553,0.0,-0.7493045099187957,0.0,0.0,0.7878412716277581,0.0,0.0,0.7493045099187957,0.0,-0.24338574464293553,0.0,711.5,5.745797525454408,417.5,1.0]},{"name":"Willow tree","children":[59],"extras":{"veldrenEntityKey":"overworld:object:9116922"}},{"mesh":7,"matrix":[-0.34861405929507233,0.0,0.763098577433784,0.0,0.0,0.8389584025562012,0.0,0.0,-0.763098577433784,0.0,-0.34861405929507233,0.0,710.5,2.539435406386088,407.5,1.0]},{"name":"Yew tree","children":[61],"extras":{"veldrenEntityKey":"overworld:object:9116924"}},{"mesh":4,"matrix":[-0.8225497116870324,0.0,-0.2936681906556567,0.0,0.0,0.8734008440569468,0.0,0.0,0.2936681906556567,0.0,-0.8225497116870324,0.0,704.5,5.782799785975272,416.5,1.0]},{"name":"Tree","children":[63],"extras":{"veldrenEntityKey":"overworld:object:9117880"}},{"mesh":6,"matrix":[-0.7317752933681935,0.0,-0.19588591894464003,0.0,0.0,0.7575396842574597,0.0,0.0,0.19588591894464003,0.0,-0.7317752933681935,0.0,723.5,8.628740144553436,435.5,1.0]},{"name":"Oak tree","children":[65],"extras":{"veldrenEntityKey":"overworld:object:9117881"}},{"mesh":8,"matrix":[0.5354989210095304,0.0,0.8416455558234222,0.0,0.0,0.9975601916875435,0.0,0.0,-0.8416455558234222,0.0,0.5354989210095304,0.0,717.5,8.49376224845897,439.5,1.0]},{"name":"Maple tree","children":[67],"extras":{"veldrenEntityKey":"overworld:object:9117882"}},{"mesh":5,"matrix":[0.11751287602034599,0.0,-0.6609981928387824,0.0,0.0,0.6713627089485306,0.0,0.0,0.6609981928387824,0.0,0.11751287602034599,0.0,720.5,9.469085697058405,429.5,1.0]},{"name":"Yew tree","children":[69],"extras":{"veldrenEntityKey":"overworld:object:9117883"}},{"mesh":4,"matrix":[-0.6674071095828644,0.0,0.5097509914679244,0.0,0.0,0.8398085039009104,0.0,0.0,-0.5097509914679244,0.0,-0.6674071095828644,0.0,725.5,7.832084255991722,440.5,1.0]},{"name":"Tree","children":[71],"extras":{"veldrenEntityKey":"overworld:object:9117884"}},{"mesh":6,"matrix":[0.7846291393041771,0.0,0.07107026829011648,0.0,0.0,0.7878412716277581,0.0,0.0,-0.07107026829011648,0.0,0.7846291393041771,0.0,712.5,9.789200457116008,435.5,1.0]},{"name":"Tree","children":[73],"extras":{"veldrenEntityKey":"overworld:object:9117920"}},{"mesh":6,"matrix":[-0.09441561689651651,0.0,0.782163384828319,0.0,0.0,0.7878412716277581,0.0,0.0,-0.782163384828319,0.0,-0.09441561689651651,0.0,764.5,6.331828568078759,423.5,1.0]},{"name":"Oak tree","children":[75],"extras":{"veldrenEntityKey":"overworld:object:9117921"}},{"mesh":8,"matrix":[0.6994731351402669,0.0,-0.5988786449532502,0.0,0.0,0.9208247923269633,0.0,0.0,0.5988786449532502,0.0,0.6994731351402669,0.0,761.5,6.300377057209254,428.5,1.0]},{"name":"Maple tree","children":[77],"extras":{"veldrenEntityKey":"overworld:object:9117922"}},{"mesh":5,"matrix":[-0.6989195546734471,0.0,-0.024135326839635325,0.0,0.0,0.6993361551547194,0.0,0.0,0.024135326839635325,0.0,-0.6989195546734471,0.0,760.5,6.8682020147145115,418.5,1.0]},{"name":"Tree","children":[79],"extras":{"veldrenEntityKey":"overworld:object:9117924"}},{"mesh":6,"matrix":[-0.03714017459507508,0.0,-0.7262891001489059,0.0,0.0,0.7272380968871612,0.0,0.0,0.7262891001489059,0.0,-0.03714017459507508,0.0,754.5,6.979631225269268,426.5,1.0]},{"name":"Willow tree","children":[81],"extras":{"veldrenEntityKey":"overworld:object:9119820"}},{"mesh":7,"matrix":[0.38075288442169747,0.0,-0.7475817294612078,0.0,0.0,0.8389584025562012,0.0,0.0,0.7475817294612078,0.0,0.38075288442169747,0.0,743.5,2.2524402038972196,480.5,1.0]},{"name":"Yew tree","children":[83],"extras":{"veldrenEntityKey":"overworld:object:9119821"}},{"mesh":4,"matrix":[-0.7868188636449756,0.0,0.293588826484788,0.0,0.0,0.8398085039009104,0.0,0.0,-0.293588826484788,0.0,-0.7868188636449756,0.0,747.5,3.5691410515484634,485.5,1.0]},{"name":"Magic tree","children":[85],"extras":{"veldrenEntityKey":"overworld:object:9119822"}},{"mesh":3,"matrix":[1.3519879121382947,0.0,0.548577842200977,0.0,0.0,1.4590438525013378,0.0,0.0,-0.548577842200977,0.0,1.3519879121382947,0.0,737.5,3.1040552988122054,484.5,1.0]},{"name":"Willow tree","children":[87],"extras":{"veldrenEntityKey":"overworld:object:9119823"}},{"mesh":7,"matrix":[-0.35942750178716637,0.0,-0.7580653482244717,0.0,0.0,0.8389584025562012,0.0,0.0,0.7580653482244717,0.0,-0.35942750178716637,0.0,748.5,1.9983309881092615,478.5,1.0]},{"name":"Willow tree","children":[89],"extras":{"veldrenEntityKey":"overworld:object:9119825"}},{"mesh":7,"matrix":[0.7849352763515779,0.0,-0.4581748599161235,0.0,0.0,0.9088716027692181,0.0,0.0,0.4581748599161235,0.0,0.7849352763515779,0.0,737.5,0.7932960611075751,477.5,1.0]},{"name":"Maple tree","children":[91],"extras":{"veldrenEntityKey":"overworld:object:9119826"}},{"mesh":5,"matrix":[-0.656014623471611,0.0,-0.1427329701159119,0.0,0.0,0.6713627089485306,0.0,0.0,0.1427329701159119,0.0,-0.656014623471611,0.0,754.5,3.2975997541160833,483.5,1.0]},{"name":"Yew tree","children":[93],"extras":{"veldrenEntityKey":"overworld:object:9119827"}},{"mesh":4,"matrix":[0.48382566333676413,0.0,0.6864335734220942,0.0,0.0,0.8398085039009104,0.0,0.0,-0.6864335734220942,0.0,0.48382566333676413,0.0,736.5,3.855558292677548,490.5,1.0]},{"name":"Willow tree","children":[95],"extras":{"veldrenEntityKey":"overworld:object:9119830"}},{"mesh":7,"matrix":[0.8731066329067455,0.0,0.037579774523130174,0.0,0.0,0.8739150026627096,0.0,0.0,-0.037579774523130174,0.0,0.8731066329067455,0.0,731.5,1.3324642838486351,480.5,1.0]},{"name":"Willow tree","children":[97],"extras":{"veldrenEntityKey":"overworld:object:9119831"}},{"mesh":7,"matrix":[-0.64253469136305,0.0,-0.6428038275518259,0.0,0.0,0.9088716027692181,0.0,0.0,0.6428038275518259,0.0,-0.64253469136305,0.0,754.5,2.1772178305683827,477.5,1.0]},{"name":"Maple tree","children":[99],"extras":{"veldrenEntityKey":"overworld:object:9119840"}},{"mesh":5,"matrix":[0.2731748614365435,0.0,0.674058418322098,0.0,0.0,0.7273096013609082,0.0,0.0,-0.674058418322098,0.0,0.2731748614365435,0.0,764.5,2.968851864213382,483.5,1.0]},{"name":"Magic tree","children":[101],"extras":{"veldrenEntityKey":"overworld:object:9119842"}},{"mesh":3,"matrix":[-1.2503910022230318,0.0,0.6361807094778785,0.0,0.0,1.4029267812512864,0.0,0.0,-0.6361807094778785,0.0,-1.2503910022230318,0.0,764.5,2.8892628511316025,490.5,1.0]},{"name":"Willow tree","children":[103],"extras":{"veldrenEntityKey":"overworld:object:9119843"}},{"mesh":7,"matrix":[0.8754716968197731,0.0,0.24412475988271787,0.0,0.0,0.9088716027692181,0.0,0.0,-0.24412475988271787,0.0,0.8754716968197731,0.0,765.5,2.835044136569505,476.5,1.0]},{"name":"Magic tree","children":[105],"extras":{"veldrenEntityKey":"overworld:object:9120701"}},{"mesh":3,"matrix":[-1.3817901270465045,0.0,0.46847092579876315,0.0,0.0,1.4590438525013378,0.0,0.0,-0.46847092579876315,0.0,-1.3817901270465045,0.0,655.5,4.392384011612958,498.5,1.0]},{"name":"Magic tree","children":[107],"extras":{"veldrenEntityKey":"overworld:object:9120707"}},{"mesh":3,"matrix":[0.8041053687751023,0.0,1.217466023932086,0.0,0.0,1.4590438525013378,0.0,0.0,-1.217466023932086,0.0,0.8041053687751023,0.0,647.5,8.532459171431979,510.5,1.0]},{"name":"Maple tree","children":[109],"extras":{"veldrenEntityKey":"overworld:object:9120708"}},{"mesh":5,"matrix":[0.10622396901504516,0.0,-0.6629059928627891,0.0,0.0,0.6713627089485306,0.0,0.0,0.6629059928627891,0.0,0.10622396901504516,0.0,642.5,3.5988516213781008,490.5,1.0]},{"name":"Magic tree","children":[111],"extras":{"veldrenEntityKey":"overworld:object:9120721"}},{"mesh":3,"matrix":[0.5305408939393857,0.0,-1.2987416653861892,0.0,0.0,1.4029267812512864,0.0,0.0,1.2987416653861892,0.0,0.5305408939393857,0.0,667.5,6.621054384539295,508.5,1.0]},{"name":"Yew tree","children":[113],"extras":{"veldrenEntityKey":"overworld:object:9120726"}},{"mesh":4,"matrix":[0.6600690183685894,0.0,-0.4629183444987118,0.0,0.0,0.8062161637448739,0.0,0.0,0.4629183444987118,0.0,0.6600690183685894,0.0,660.5,7.2115238277389295,508.5,1.0]},{"name":"Magic tree","children":[115],"extras":{"veldrenEntityKey":"overworld:object:9120727"}},{"mesh":3,"matrix":[-1.3909093596615156,0.0,-0.18323402183570528,0.0,0.0,1.4029267812512864,0.0,0.0,0.18323402183570528,0.0,-1.3909093596615156,0.0,680.5,5.788066159786733,509.5,1.0]},{"name":"Yew tree","children":[117],"extras":{"veldrenEntityKey":"overworld:object:9120729"}},{"mesh":4,"matrix":[0.03656676123962693,0.0,-0.8053864753371176,0.0,0.0,0.8062161637448739,0.0,0.0,0.8053864753371176,0.0,0.03656676123962693,0.0,667.5,4.368856544666171,501.5,1.0]},{"name":"Magic tree","children":[119],"extras":{"veldrenEntityKey":"overworld:object:9120742"}},{"mesh":3,"matrix":[0.38001269551948463,0.0,-1.350479138971095,0.0,0.0,1.4029267812512864,0.0,0.0,1.350479138971095,0.0,0.38001269551948463,0.0,693.5,4.912071748916199,510.5,1.0]},{"name":"Magic tree","children":[121],"extras":{"veldrenEntityKey":"overworld:object:9120745"}},{"mesh":3,"matrix":[-0.8372773803107001,0.0,-1.1256865202942365,0.0,0.0,1.4029267812512864,0.0,0.0,1.1256865202942365,0.0,-0.8372773803107001,0.0,694.5,5.253037334007932,503.5,1.0]},{"name":"Magic tree","children":[123],"extras":{"veldrenEntityKey":"overworld:object:9120748"}},{"mesh":3,"matrix":[-1.402712820293711,0.0,-0.02450096601684265,0.0,0.0,1.4029267812512864,0.0,0.0,0.02450096601684265,0.0,-1.402712820293711,0.0,702.5,4.58169809027489,498.5,1.0]},{"name":"Magic tree","children":[125],"extras":{"veldrenEntityKey":"overworld:object:9120751"}},{"mesh":3,"matrix":[-0.8760790330053979,0.0,1.0957595910967066,0.0,0.0,1.4029267812512864,0.0,0.0,-1.0957595910967066,0.0,-0.8760790330053979,0.0,711.5,4.312243463589314,504.5,1.0]},{"name":"Maple tree","children":[127],"extras":{"veldrenEntityKey":"overworld:object:9120769"}},{"mesh":5,"matrix":[-0.6961125697634518,0.0,0.06706972583743853,0.0,0.0,0.6993361551547194,0.0,0.0,-0.06706972583743853,0.0,-0.6961125697634518,0.0,717.5,4.220663229560716,500.5,1.0]},{"name":"Maple tree","children":[129],"extras":{"veldrenEntityKey":"overworld:object:9120780"}},{"mesh":5,"matrix":[-0.14551851728319032,0.0,0.6554023558810352,0.0,0.0,0.6713627089485306,0.0,0.0,-0.6554023558810352,0.0,-0.14551851728319032,0.0,741.5,3.3438770382397855,500.5,1.0]},{"name":"Magic tree","children":[131],"extras":{"veldrenEntityKey":"overworld:object:9120782"}},{"mesh":3,"matrix":[-1.4461827054931655,0.0,-0.19329910981278034,0.0,0.0,1.4590438525013378,0.0,0.0,0.19329910981278034,0.0,-1.4461827054931655,0.0,740.5,3.233394406392715,506.5,1.0]},{"name":"Yew tree","children":[133],"extras":{"veldrenEntityKey":"overworld:object:9120784"}},{"mesh":4,"matrix":[0.039677128698898056,0.0,-0.8388706984288441,0.0,0.0,0.8398085039009104,0.0,0.0,0.8388706984288441,0.0,0.039677128698898056,0.0,749.5,3.097726815858599,506.5,1.0]},{"name":"Magic tree","children":[135],"extras":{"veldrenEntityKey":"overworld:object:9120785"}},{"mesh":3,"matrix":[-1.0362883717366091,0.0,1.027090733151377,0.0,0.0,1.4590438525013378,0.0,0.0,-1.027090733151377,0.0,-1.0362883717366091,0.0,733.5,3.537006378273657,502.5,1.0]},{"name":"Yew tree","children":[137],"extras":{"veldrenEntityKey":"overworld:object:9120787"}},{"mesh":4,"matrix":[-0.6400187415733372,0.0,-0.5437410538658703,0.0,0.0,0.8398085039009104,0.0,0.0,0.5437410538658703,0.0,-0.6400187415733372,0.0,743.5,3.1306201078078626,511.5,1.0]},{"name":"Yew tree","children":[139],"extras":{"veldrenEntityKey":"overworld:object:9120790"}},{"mesh":4,"matrix":[-0.8214338786568581,0.0,0.17471321134658252,0.0,0.0,0.8398085039009104,0.0,0.0,-0.17471321134658252,0.0,-0.8214338786568581,0.0,734.5,3.397371483398461,508.5,1.0]},{"name":"Magic tree","children":[141],"extras":{"veldrenEntityKey":"overworld:object:9120801"}},{"mesh":3,"matrix":[-0.14111183391842821,0.0,1.3393968214393333,0.0,0.0,1.346809710001235,0.0,0.0,-1.3393968214393333,0.0,-0.14111183391842821,0.0,766.5,2.7933997931322025,505.5,1.0]},{"name":"Magic tree","children":[143],"extras":{"veldrenEntityKey":"overworld:object:9120804"}},{"mesh":3,"matrix":[0.9744057926213556,0.0,0.9297471410332805,0.0,0.0,1.346809710001235,0.0,0.0,-0.9297471410332805,0.0,0.9744057926213556,0.0,762.5,2.864492844878532,499.5,1.0]},{"name":"Yew tree","children":[145],"extras":{"veldrenEntityKey":"overworld:object:9120812"}},{"mesh":4,"matrix":[0.7976688092952315,0.0,0.35574359456905846,0.0,0.0,0.8734008440569468,0.0,0.0,-0.35574359456905846,0.0,0.7976688092952315,0.0,758.5,3.057390755889904,494.5,1.0]}],"buffers":[{"uri":"../world-parts/d3a49cf40a43bca59e27ca2096fab65e613b5d5993f180ce0def51f1fdd95647.bin","byteLength":33588},{"uri":"../world-parts/945c10e33683e4b3baa7557ff260c79730a9992e0e5a23b5d9307a2c40355ae1.bin","byteLength":50868},{"uri":"../world-parts/0ebd686c038365e5ed11b51921b90ade9f303127887d4c318d91c7da438733d9.bin","byteLength":12936},{"uri":"../world-parts/883bf022a4c95c0b0a24ce14e7511dc7b18eb62759134961097aa30193af8da4.bin","byteLength":86364},{"uri":"../world-parts/7e2e11a73c6c1f6b77c7c18c44a87655900818e94c168e7a92bb0a48cc87a1c1.bin","byteLength":46872},{"uri":"../world-parts/133dae8ce562dbc4cbf0d0d2cb7dc4cb2baafed83b6c58ebd4446a3657088e0f.bin","byteLength":180744},{"uri":"../world-parts/8480a643e36c0194bf11e79cbc019e38e5ff72b8bc295b144212e5f7a5b37347.bin","byteLength":64668},{"uri":"../world-parts/629e78b439d8b314fb62411e16a47eeeaf0f6f78bb3f3150468167c9e9d3eef3.bin","byteLength":92004},{"uri":"../world-parts/cf73d73e4a52b629e942c4cf3ba67a960257f3fda86af0eadf8051aa3c1f7c97.bin","byteLength":133656}],"bufferViews":[{"buffer":0,"byteOffset":0,"byteLength":4212,"target":34962},{"buffer":0,"byteOffset":4212,"byteLength":4212,"target":34962},{"buffer":0,"byteOffset":8424,"byteLength":2808,"target":34962},{"buffer":0,"byteOffset":11232,"byteLength":4212,"target":34962},{"buffer":0,"byteOffset":15444,"byteLength":4212,"target":34962},{"buffer":0,"byteOffset":19656,"byteLength":4212,"target":34962},{"buffer":0,"byteOffset":23868,"byteLength":4212,"target":34962},{"buffer":0,"byteOffset":28080,"byteLength":1404,"target":34962},{"buffer":0,"byteOffset":29484,"byteLength":4104,"target":34963},{"buffer":1,"byteOffset":0,"byteLength":6372,"target":34962},{"buffer":1,"byteOffset":6372,"byteLength":6372,"target":34962},{"buffer":1,"byteOffset":12744,"byteLength":4248,"target":34962},{"buffer":1,"byteOffset":16992,"byteLength":6372,"target":34962},{"buffer":1,"byteOffset":23364,"byteLength":6372,"target":34962},{"buffer":1,"byteOffset":29736,"byteLength":6372,"target":34962},{"buffer":1,"byteOffset":36108,"byteLength":6372,"target":34962},{"buffer":1,"byteOffset":42480,"byteLength":2124,"target":34962},{"buffer":1,"byteOffset":44604,"byteLength":6264,"target":34963},{"buffer":2,"byteOffset":0,"byteLength":1764,"target":34962},{"buffer":2,"byteOffset":1764,"byteLength":1764,"target":34962},{"buffer":2,"byteOffset":3528,"byteLength":1176,"target":34962},{"buffer":2,"byteOffset":4704,"byteLength":1764,"target":34962},{"buffer":2,"byteOffset":6468,"byteLength":1764,"target":34962},{"buffer":2,"byteOffset":8232,"byteLength":1764,"target":34962},{"buffer":2,"byteOffset":9996,"byteLength":1764,"target":34962},{"buffer":2,"byteOffset":11760,"byteLength":588,"target":34962},{"buffer":2,"byteOffset":12348,"byteLength":588,"target":34963},{"buffer":3,"byteOffset":0,"byteLength":10260,"target":34962},{"buffer":3,"byteOffset":10260,"byteLength":10260,"target":34962},{"buffer":3,"byteOffset":20520,"byteLength":6840,"target":34962},{"buffer":3,"byteOffset":27360,"byteLength":10260,"target":34962},{"buffer":3,"byteOffset":37620,"byteLength":10260,"target":34962},{"buffer":3,"byteOffset":47880,"byteLength":10260,"target":34962},{"buffer":3,"byteOffset":58140,"byteLength":10260,"target":34962},{"buffer":3,"byteOffset":68400,"byteLength":3420,"target":34962},{"buffer":3,"byteOffset":71820,"byteLength":9072,"target":34963},{"buffer":3,"byteOffset":80892,"byteLength":5472,"target":34963},{"buffer":4,"byteOffset":0,"byteLength":5784,"target":34962},{"buffer":4,"byteOffset":5784,"byteLength":5784,"target":34962},{"buffer":4,"byteOffset":11568,"byteLength":3856,"target":34962},{"buffer":4,"byteOffset":15424,"byteLength":5784,"target":34962},{"buffer":4,"byteOffset":21208,"byteLength":5784,"target":34962},{"buffer":4,"byteOffset":26992,"byteLength":5784,"target":34962},{"buffer":4,"byteOffset":32776,"byteLength":5784,"target":34962},{"buffer":4,"byteOffset":38560,"byteLength":1928,"target":34962},{"buffer":4,"byteOffset":40488,"byteLength":1776,"target":34963},{"buffer":4,"byteOffset":42264,"byteLength":4608,"target":34963},{"buffer":5,"byteOffset":0,"byteLength":21552,"target":34962},{"buffer":5,"byteOffset":21552,"byteLength":21552,"target":34962},{"buffer":5,"byteOffset":43104,"byteLength":14368,"target":34962},{"buffer":5,"byteOffset":57472,"byteLength":21552,"target":34962},{"buffer":5,"byteOffset":79024,"byteLength":21552,"target":34962},{"buffer":5,"byteOffset":100576,"byteLength":21552,"target":34962},{"buffer":5,"byteOffset":122128,"byteLength":21552,"target":34962},{"buffer":5,"byteOffset":143680,"byteLength":7184,"target":34962},{"buffer":5,"byteOffset":150864,"byteLength":17496,"target":34963},{"buffer":5,"byteOffset":168360,"byteLength":12384,"target":34963},{"buffer":6,"byteOffset":0,"byteLength":7860,"target":34962},{"buffer":6,"byteOffset":7860,"byteLength":7860,"target":34962},{"buffer":6,"byteOffset":15720,"byteLength":5240,"target":34962},{"buffer":6,"byteOffset":20960,"byteLength":7860,"target":34962},{"buffer":6,"byteOffset":28820,"byteLength":7860,"target":34962},{"buffer":6,"byteOffset":36680,"byteLength":7860,"target":34962},{"buffer":6,"byteOffset":44540,"byteLength":7860,"target":34962},{"buffer":6,"byteOffset":52400,"byteLength":2620,"target":34962},{"buffer":6,"byteOffset":55020,"byteLength":5328,"target":34963},{"buffer":6,"byteOffset":60348,"byteLength":4320,"target":34963},{"buffer":7,"byteOffset":0,"byteLength":10956,"target":34962},{"buffer":7,"byteOffset":10956,"byteLength":10956,"target":34962},{"buffer":7,"byteOffset":21912,"byteLength":7304,"target":34962},{"buffer":7,"byteOffset":29216,"byteLength":10956,"target":34962},{"buffer":7,"byteOffset":40172,"byteLength":10956,"target":34962},{"buffer":7,"byteOffset":51128,"byteLength":10956,"target":34962},{"buffer":7,"byteOffset":62084,"byteLength":10956,"target":34962},{"buffer":7,"byteOffset":73040,"byteLength":3652,"target":34962},{"buffer":7,"byteOffset":76692,"byteLength":8112,"target":34963},{"buffer":7,"byteOffset":84804,"byteLength":7200,"target":34963},{"buffer":8,"byteOffset":0,"byteLength":15912,"target":34962},{"buffer":8,"byteOffset":15912,"byteLength":15912,"target":34962},{"buffer":8,"byteOffset":31824,"byteLength":10608,"target":34962},{"buffer":8,"byteOffset":42432,"byteLength":15912,"target":34962},{"buffer":8,"byteOffset":58344,"byteLength":15912,"target":34962},{"buffer":8,"byteOffset":74256,"byteLength":15912,"target":34962},{"buffer":8,"byteOffset":90168,"byteLength":15912,"target":34962},{"buffer":8,"byteOffset":106080,"byteLength":5304,"target":34962},{"buffer":8,"byteOffset":111384,"byteLength":10464,"target":34963},{"buffer":8,"byteOffset":121848,"byteLength":11808,"target":34963}],"accessors":[{"bufferView":0,"componentType":5126,"count":351,"type":"VEC3","min":[-1.7272872924804688,-0.27113133668899536,-1.1498832702636719],"max":[1.4978611469268799,1.988665223121643,1.8392531871795654]},{"bufferView":1,"componentType":5126,"count":351,"type":"VEC3"},{"bufferView":2,"componentType":5126,"count":351,"type":"VEC2"},{"bufferView":3,"componentType":5126,"count":351,"type":"VEC3"},{"bufferView":4,"componentType":5126,"count":351,"type":"VEC3"},{"bufferView":5,"componentType":5126,"count":351,"type":"VEC3"},{"bufferView":6,"componentType":5126,"count":351,"type":"VEC3"},{"bufferView":7,"componentType":5126,"count":351,"type":"SCALAR"},{"bufferView":8,"componentType":5125,"count":1026,"type":"SCALAR"},{"bufferView":9,"componentType":5126,"count":531,"type":"VEC3","min":[-1.8242793083190918,-0.31564441323280334,-0.8904620409011841],"max":[1.5958054065704346,2.000638246536255,2.5856480598449707]},{"bufferView":10,"componentType":5126,"count":531,"type":"VEC3"},{"bufferView":11,"componentType":5126,"count":531,"type":"VEC2"},{"bufferView":12,"componentType":5126,"count":531,"type":"VEC3"},{"bufferView":13,"componentType":5126,"count":531,"type":"VEC3"},{"bufferView":14,"componentType":5126,"count":531,"type":"VEC3"},{"bufferView":15,"componentType":5126,"count":531,"type":"VEC3"},{"bufferView":16,"componentType":5126,"count":531,"type":"SCALAR"},{"bufferView":17,"componentType":5125,"count":1566,"type":"SCALAR"},{"bufferView":18,"componentType":5126,"count":147,"type":"VEC3","min":[-0.5247570872306824,0.014999999664723873,-0.38042259216308594],"max":[0.4000000059604645,0.7900000214576721,0.4397660195827484]},{"bufferView":19,"componentType":5126,"count":147,"type":"VEC3"},{"bufferView":20,"componentType":5126,"count":147,"type":"VEC2"},{"bufferView":21,"componentType":5126,"count":147,"type":"VEC3"},{"bufferView":22,"componentType":5126,"count":147,"type":"VEC3"},{"bufferView":23,"componentType":5126,"count":147,"type":"VEC3"},{"bufferView":24,"componentType":5126,"count":147,"type":"VEC3"},{"bufferView":25,"componentType":5126,"count":147,"type":"SCALAR"},{"bufferView":26,"componentType":5125,"count":147,"type":"SCALAR"},{"bufferView":27,"componentType":5126,"count":855,"type":"VEC3","min":[-3.2856340408325195,-0.0013800000306218863,-2.3520750999450684],"max":[0.9950600266456604,4.346673011779785,1.6284259557724]},{"bufferView":28,"componentType":5126,"count":855,"type":"VEC3"},{"bufferView":29,"componentType":5126,"count":855,"type":"VEC2"},{"bufferView":30,"componentType":5126,"count":855,"type":"VEC3"},{"bufferView":31,"componentType":5126,"count":855,"type":"VEC3"},{"bufferView":32,"componentType":5126,"count":855,"type":"VEC3"},{"bufferView":33,"componentType":5126,"count":855,"type":"VEC3"},{"bufferView":34,"componentType":5126,"count":855,"type":"SCALAR"},{"bufferView":35,"componentType":5125,"count":2268,"type":"SCALAR"},{"bufferView":36,"componentType":5125,"count":1368,"type":"SCALAR"},{"bufferView":37,"componentType":5126,"count":482,"type":"VEC3","min":[-3.7659718990325928,-0.07409700006246567,-3.4778990745544434],"max":[3.116921901702881,8.022987365722656,3.8158159255981445]},{"bufferView":38,"componentType":5126,"count":482,"type":"VEC3"},{"bufferView":39,"componentType":5126,"count":482,"type":"VEC2"},{"bufferView":40,"componentType":5126,"count":482,"type":"VEC3"},{"bufferView":41,"componentType":5126,"count":482,"type":"VEC3"},{"bufferView":42,"componentType":5126,"count":482,"type":"VEC3"},{"bufferView":43,"componentType":5126,"count":482,"type":"VEC3"},{"bufferView":44,"componentType":5126,"count":482,"type":"SCALAR"},{"bufferView":45,"componentType":5125,"count":444,"type":"SCALAR"},{"bufferView":46,"componentType":5125,"count":1152,"type":"SCALAR"},{"bufferView":47,"componentType":5126,"count":1796,"type":"VEC3","min":[-4.721841812133789,-0.0018220000201836228,-1.3137749433517456],"max":[4.035912990570068,10.293656349182129,3.0319550037384033]},{"bufferView":48,"componentType":5126,"count":1796,"type":"VEC3"},{"bufferView":49,"componentType":5126,"count":1796,"type":"VEC2"},{"bufferView":50,"componentType":5126,"count":1796,"type":"VEC3"},{"bufferView":51,"componentType":5126,"count":1796,"type":"VEC3"},{"bufferView":52,"componentType":5126,"count":1796,"type":"VEC3"},{"bufferView":53,"componentType":5126,"count":1796,"type":"VEC3"},{"bufferView":54,"componentType":5126,"count":1796,"type":"SCALAR"},{"bufferView":55,"componentType":5125,"count":4374,"type":"SCALAR"},{"bufferView":56,"componentType":5125,"count":3096,"type":"SCALAR"},{"bufferView":57,"componentType":5126,"count":655,"type":"VEC3","min":[-2.3328819274902344,0.011172999627888203,-2.0712060928344727],"max":[1.805098056793213,5.555437088012695,2.05914306640625]},{"bufferView":58,"componentType":5126,"count":655,"type":"VEC3"},{"bufferView":59,"componentType":5126,"count":655,"type":"VEC2"},{"bufferView":60,"componentType":5126,"count":655,"type":"VEC3"},{"bufferView":61,"componentType":5126,"count":655,"type":"VEC3"},{"bufferView":62,"componentType":5126,"count":655,"type":"VEC3"},{"bufferView":63,"componentType":5126,"count":655,"type":"VEC3"},{"bufferView":64,"componentType":5126,"count":655,"type":"SCALAR"},{"bufferView":65,"componentType":5125,"count":1332,"type":"SCALAR"},{"bufferView":66,"componentType":5125,"count":1080,"type":"SCALAR"},{"bufferView":67,"componentType":5126,"count":913,"type":"VEC3","min":[-2.969912052154541,-0.0013800000306218863,-2.3520750999450684],"max":[3.394526958465576,5.491145133972168,2.5843169689178467]},{"bufferView":68,"componentType":5126,"count":913,"type":"VEC3"},{"bufferView":69,"componentType":5126,"count":913,"type":"VEC2"},{"bufferView":70,"componentType":5126,"count":913,"type":"VEC3"},{"bufferView":71,"componentType":5126,"count":913,"type":"VEC3"},{"bufferView":72,"componentType":5126,"count":913,"type":"VEC3"},{"bufferView":73,"componentType":5126,"count":913,"type":"VEC3"},{"bufferView":74,"componentType":5126,"count":913,"type":"SCALAR"},{"bufferView":75,"componentType":5125,"count":2028,"type":"SCALAR"},{"bufferView":76,"componentType":5125,"count":1800,"type":"SCALAR"},{"bufferView":77,"componentType":5126,"count":1326,"type":"VEC3","min":[-3.6411149501800537,0.011172999627888203,-2.5864460468292236],"max":[3.095597982406616,6.3706889152526855,2.3982579708099365]},{"bufferView":78,"componentType":5126,"count":1326,"type":"VEC3"},{"bufferView":79,"componentType":5126,"count":1326,"type":"VEC2"},{"bufferView":80,"componentType":5126,"count":1326,"type":"VEC3"},{"bufferView":81,"componentType":5126,"count":1326,"type":"VEC3"},{"bufferView":82,"componentType":5126,"count":1326,"type":"VEC3"},{"bufferView":83,"componentType":5126,"count":1326,"type":"VEC3"},{"bufferView":84,"componentType":5126,"count":1326,"type":"SCALAR"},{"bufferView":85,"componentType":5125,"count":2616,"type":"SCALAR"},{"bufferView":86,"componentType":5125,"count":2952,"type":"SCALAR"}],"meshes":[{"name":"d3a49cf40a43bca59e27ca2096fab65e613b5d5993f180ce0def51f1fdd95647","primitives":[{"attributes":{"POSITION":0,"NORMAL":1,"TEXCOORD_0":2,"COLOR_0":3,"_VELDREN_NORMAL":4,"_VELDREN_COLOR":5,"_VELDREN_FALLBACK":6,"_VELDREN_MATERIAL":7},"indices":8,"material":0,"extras":{"mixedAtlasFallback":false}}]},{"name":"945c10e33683e4b3baa7557ff260c79730a9992e0e5a23b5d9307a2c40355ae1","primitives":[{"attributes":{"POSITION":9,"NORMAL":10,"TEXCOORD_0":11,"COLOR_0":12,"_VELDREN_NORMAL":13,"_VELDREN_COLOR":14,"_VELDREN_FALLBACK":15,"_VELDREN_MATERIAL":16},"indices":17,"material":1,"extras":{"mixedAtlasFallback":false}}]},{"name":"0ebd686c038365e5ed11b51921b90ade9f303127887d4c318d91c7da438733d9","primitives":[{"attributes":{"POSITION":18,"NORMAL":19,"TEXCOORD_0":20,"COLOR_0":21,"_VELDREN_NORMAL":22,"_VELDREN_COLOR":23,"_VELDREN_FALLBACK":24,"_VELDREN_MATERIAL":25},"indices":26,"material":2,"extras":{"mixedAtlasFallback":false}}]},{"name":"883bf022a4c95c0b0a24ce14e7511dc7b18eb62759134961097aa30193af8da4","primitives":[{"attributes":{"POSITION":27,"NORMAL":28,"TEXCOORD_0":29,"COLOR_0":30,"_VELDREN_NORMAL":31,"_VELDREN_COLOR":32,"_VELDREN_FALLBACK":33,"_VELDREN_MATERIAL":34},"indices":35,"material":3,"extras":{"mixedAtlasFallback":false}},{"attributes":{"POSITION":27,"NORMAL":28,"TEXCOORD_0":29,"COLOR_0":30,"_VELDREN_NORMAL":31,"_VELDREN_COLOR":32,"_VELDREN_FALLBACK":33,"_VELDREN_MATERIAL":34},"indices":36,"material":4,"extras":{"mixedAtlasFallback":false}}]},{"name":"7e2e11a73c6c1f6b77c7c18c44a87655900818e94c168e7a92bb0a48cc87a1c1","primitives":[{"attributes":{"POSITION":37,"NORMAL":38,"TEXCOORD_0":39,"COLOR_0":40,"_VELDREN_NORMAL":41,"_VELDREN_COLOR":42,"_VELDREN_FALLBACK":43,"_VELDREN_MATERIAL":44},"indices":45,"material":5,"extras":{"mixedAtlasFallback":false}},{"attributes":{"POSITION":37,"NORMAL":38,"TEXCOORD_0":39,"COLOR_0":40,"_VELDREN_NORMAL":41,"_VELDREN_COLOR":42,"_VELDREN_FALLBACK":43,"_VELDREN_MATERIAL":44},"indices":46,"material":6,"extras":{"mixedAtlasFallback":false}}]},{"name":"133dae8ce562dbc4cbf0d0d2cb7dc4cb2baafed83b6c58ebd4446a3657088e0f","primitives":[{"attributes":{"POSITION":47,"NORMAL":48,"TEXCOORD_0":49,"COLOR_0":50,"_VELDREN_NORMAL":51,"_VELDREN_COLOR":52,"_VELDREN_FALLBACK":53,"_VELDREN_MATERIAL":54},"indices":55,"material":7,"extras":{"mixedAtlasFallback":false}},{"attributes":{"POSITION":47,"NORMAL":48,"TEXCOORD_0":49,"COLOR_0":50,"_VELDREN_NORMAL":51,"_VELDREN_COLOR":52,"_VELDREN_FALLBACK":53,"_VELDREN_MATERIAL":54},"indices":56,"material":8,"extras":{"mixedAtlasFallback":false}}]},{"name":"8480a643e36c0194bf11e79cbc019e38e5ff72b8bc295b144212e5f7a5b37347","primitives":[{"attributes":{"POSITION":57,"NORMAL":58,"TEXCOORD_0":59,"COLOR_0":60,"_VELDREN_NORMAL":61,"_VELDREN_COLOR":62,"_VELDREN_FALLBACK":63,"_VELDREN_MATERIAL":64},"indices":65,"material":9,"extras":{"mixedAtlasFallback":false}},{"attributes":{"POSITION":57,"NORMAL":58,"TEXCOORD_0":59,"COLOR_0":60,"_VELDREN_NORMAL":61,"_VELDREN_COLOR":62,"_VELDREN_FALLBACK":63,"_VELDREN_MATERIAL":64},"indices":66,"material":10,"extras":{"mixedAtlasFallback":false}}]},{"name":"629e78b439d8b314fb62411e16a47eeeaf0f6f78bb3f3150468167c9e9d3eef3","primitives":[{"attributes":{"POSITION":67,"NORMAL":68,"TEXCOORD_0":69,"COLOR_0":70,"_VELDREN_NORMAL":71,"_VELDREN_COLOR":72,"_VELDREN_FALLBACK":73,"_VELDREN_MATERIAL":74},"indices":75,"material":11,"extras":{"mixedAtlasFallback":false}},{"attributes":{"POSITION":67,"NORMAL":68,"TEXCOORD_0":69,"COLOR_0":70,"_VELDREN_NORMAL":71,"_VELDREN_COLOR":72,"_VELDREN_FALLBACK":73,"_VELDREN_MATERIAL":74},"indices":76,"material":12,"extras":{"mixedAtlasFallback":false}}]},{"name":"cf73d73e4a52b629e942c4cf3ba67a960257f3fda86af0eadf8051aa3c1f7c97","primitives":[{"attributes":{"POSITION":77,"NORMAL":78,"TEXCOORD_0":79,"COLOR_0":80,"_VELDREN_NORMAL":81,"_VELDREN_COLOR":82,"_VELDREN_FALLBACK":83,"_VELDREN_MATERIAL":84},"indices":85,"material":13,"extras":{"mixedAtlasFallback":false}},{"attributes":{"POSITION":77,"NORMAL":78,"TEXCOORD_0":79,"COLOR_0":80,"_VELDREN_NORMAL":81,"_VELDREN_COLOR":82,"_VELDREN_FALLBACK":83,"_VELDREN_MATERIAL":84},"indices":86,"material":14,"extras":{"mixedAtlasFallback":false}}]}],"materials":[{"name":"legacy-material-33","pbrMetallicRoughness":{"baseColorFactor":[1,1,1,1],"metallicFactor":0,"roughnessFactor":1,"baseColorTexture":{"index":0}},"doubleSided":true,"extras":{"legacyMaterial":33,"legacyShader":"dist/renderer-gl.js"}},{"name":"legacy-material-33","pbrMetallicRoughness":{"baseColorFactor":[1,1,1,1],"metallicFactor":0,"roughnessFactor":1,"baseColorTexture":{"index":1}},"doubleSided":true,"extras":{"legacyMaterial":33,"legacyShader":"dist/renderer-gl.js"}},{"name":"legacy-material-12","pbrMetallicRoughness":{"baseColorFactor":[1,1,1,1],"metallicFactor":0,"roughnessFactor":1},"doubleSided":true,"extras":{"legacyMaterial":12,"legacyShader":"dist/renderer-gl.js","limitation":"Browser procedural material not implemented by this glTF export; source/base attributes retained."}},{"name":"legacy-material-49","pbrMetallicRoughness":{"baseColorFactor":[1,1,1,1],"metallicFactor":0,"roughnessFactor":1,"baseColorTexture":{"index":2}},"doubleSided":true,"extras":{"legacyMaterial":49,"legacyShader":"dist/renderer-gl.js"}},{"name":"legacy-material-55","pbrMetallicRoughness":{"baseColorFactor":[1,1,1,1],"metallicFactor":0,"roughnessFactor":1,"baseColorTexture":{"index":3}},"doubleSided":true,"extras":{"legacyMaterial":55,"legacyShader":"dist/renderer-gl.js"},"alphaMode":"MASK","alphaCutoff":0.45},{"name":"legacy-material-49","pbrMetallicRoughness":{"baseColorFactor":[1,1,1,1],"metallicFactor":0,"roughnessFactor":1,"baseColorTexture":{"index":4}},"doubleSided":true,"extras":{"legacyMaterial":49,"legacyShader":"dist/renderer-gl.js"}},{"name":"legacy-material-54","pbrMetallicRoughness":{"baseColorFactor":[1,1,1,1],"metallicFactor":0,"roughnessFactor":1,"baseColorTexture":{"index":5}},"doubleSided":true,"extras":{"legacyMaterial":54,"legacyShader":"dist/renderer-gl.js"},"alphaMode":"MASK","alphaCutoff":0.45},{"name":"legacy-material-52","pbrMetallicRoughness":{"baseColorFactor":[1,1,1,1],"metallicFactor":0,"roughnessFactor":1,"baseColorTexture":{"index":6}},"doubleSided":true,"extras":{"legacyMaterial":52,"legacyShader":"dist/renderer-gl.js"}},{"name":"legacy-material-53","pbrMetallicRoughness":{"baseColorFactor":[1,1,1,1],"metallicFactor":0,"roughnessFactor":1,"baseColorTexture":{"index":7}},"doubleSided":true,"extras":{"legacyMaterial":53,"legacyShader":"dist/renderer-gl.js"},"alphaMode":"MASK","alphaCutoff":0.45},{"name":"legacy-material-49","pbrMetallicRoughness":{"baseColorFactor":[1,1,1,1],"metallicFactor":0,"roughnessFactor":1,"baseColorTexture":{"index":8}},"doubleSided":true,"extras":{"legacyMaterial":49,"legacyShader":"dist/renderer-gl.js"}},{"name":"legacy-material-50","pbrMetallicRoughness":{"baseColorFactor":[1,1,1,1],"metallicFactor":0,"roughnessFactor":1,"baseColorTexture":{"index":9}},"doubleSided":true,"extras":{"legacyMaterial":50,"legacyShader":"dist/renderer-gl.js"},"alphaMode":"MASK","alphaCutoff":0.45},{"name":"legacy-material-49","pbrMetallicRoughness":{"baseColorFactor":[1,1,1,1],"metallicFactor":0,"roughnessFactor":1,"baseColorTexture":{"index":10}},"doubleSided":true,"extras":{"legacyMaterial":49,"legacyShader":"dist/renderer-gl.js"}},{"name":"legacy-material-51","pbrMetallicRoughness":{"baseColorFactor":[1,1,1,1],"metallicFactor":0,"roughnessFactor":1,"baseColorTexture":{"index":11}},"doubleSided":true,"extras":{"legacyMaterial":51,"legacyShader":"dist/renderer-gl.js"},"alphaMode":"MASK","alphaCutoff":0.45},{"name":"legacy-material-49","pbrMetallicRoughness":{"baseColorFactor":[1,1,1,1],"metallicFactor":0,"roughnessFactor":1,"baseColorTexture":{"index":12}},"doubleSided":true,"extras":{"legacyMaterial":49,"legacyShader":"dist/renderer-gl.js"}},{"name":"legacy-material-50","pbrMetallicRoughness":{"baseColorFactor":[1,1,1,1],"metallicFactor":0,"roughnessFactor":1,"baseColorTexture":{"index":13}},"doubleSided":true,"extras":{"legacyMaterial":50,"legacyShader":"dist/renderer-gl.js"},"alphaMode":"MASK","alphaCutoff":0.45}],"images":[{"name":"atlas-13","uri":"../../textures/atlas/tile-13.png"},{"name":"atlas-13","uri":"../../textures/atlas/tile-13.png"},{"name":"atlas-29","uri":"../../textures/atlas/tile-29.png"},{"name":"atlas-35","uri":"../../textures/atlas/tile-35.png"},{"name":"atlas-29","uri":"../../textures/atlas/tile-29.png"},{"name":"atlas-34","uri":"../../textures/atlas/tile-34.png"},{"name":"atlas-32","uri":"../../textures/atlas/tile-32.png"},{"name":"atlas-33","uri":"../../textures/atlas/tile-33.png"},{"name":"atlas-29","uri":"../../textures/atlas/tile-29.png"},{"name":"atlas-30","uri":"../../textures/atlas/tile-30.png"},{"name":"atlas-29","uri":"../../textures/atlas/tile-29.png"},{"name":"atlas-31","uri":"../../textures/atlas/tile-31.png"},{"name":"atlas-29","uri":"../../textures/atlas/tile-29.png"},{"name":"atlas-30","uri":"../../textures/atlas/tile-30.png"}],"textures":[{"source":0,"sampler":0},{"source":1,"sampler":1},{"source":2,"sampler":2},{"source":3,"sampler":2},{"source":4,"sampler":3},{"source":5,"sampler":3},{"source":6,"sampler":4},{"source":7,"sampler":4},{"source":8,"sampler":5},{"source":9,"sampler":5},{"source":10,"sampler":6},{"source":11,"sampler":6},{"source":12,"sampler":7},{"source":13,"sampler":7}],"samplers":[{"magFilter":9729,"minFilter":9729,"wrapS":10497,"wrapT":10497},{"magFilter":9729,"minFilter":9729,"wrapS":10497,"wrapT":10497},{"magFilter":9729,"minFilter":9729,"wrapS":10497,"wrapT":10497},{"magFilter":9729,"minFilter":9729,"wrapS":10497,"wrapT":10497},{"magFilter":9729,"minFilter":9729,"wrapS":10497,"wrapT":10497},{"magFilter":9729,"minFilter":9729,"wrapS":10497,"wrapT":10497},{"magFilter":9729,"minFilter":9729,"wrapS":10497,"wrapT":10497},{"magFilter":9729,"minFilter":9729,"wrapS":10497,"wrapT":10497}]}
