{"asset":{"version":"2.0","generator":"Veldren static world recovery"},"scene":0,"scenes":[{"nodes":[0,2,4,6,8,10,12,14,16,18,20,22,24,26,28,30,32,34,36,38,40,42,44,46,48,50,52,54,56,58,60,62,64,66,68,70,72,74,76,78,80,82,84,86,88,90,92,94,96,98,100,102,104,106,108,110,112,114,116,118,120,122,124,126,128,130,132,134,136,138,140,142,144,146,148,150,152,154,156,158,160,162,164,166,168,170,172,174,176,178,180,182,184,186,188,190,192,194,196,198,200,202,204,206,208,210,212,214,216,218,220,222,224,226,228,230,232,234,236,238,240,242,244,246,248,250,252,254,256,258,260,262,264,266,268,270,272,274,276]}],"extras":{"sourceScene":"overworld","notVervesisScene":true,"gameplayIdentityExternal":true,"limitations":["Terrain stored separately.","Dynamic actors, fires, gates, crops, fish, effects and ground cover are not baked.","Roofs are closed; browser procedural materials require native support."]},"nodes":[{"name":"Street lantern","children":[1],"extras":{"veldrenEntityKey":"overworld:object:8300513"}},{"mesh":0,"matrix":[1.0,0.0,0.0,0.0,0.0,1.0,0.0,0.0,0.0,0.0,1.0,0.0,0.0,0.0,0.0,1.0]},{"name":"Yew tree","children":[3],"extras":{"veldrenEntityKey":"overworld:object:807"}},{"mesh":1,"matrix":[0.5777095173615189,0.0,-0.5623488385632376,0.0,0.0,0.8062161637448739,0.0,0.0,0.5623488385632376,0.0,0.5777095173615189,0.0,150.5,0.7171336812696367,388.5,1.0]},{"name":"Tree","children":[5],"extras":{"veldrenEntityKey":"overworld:object:829"}},{"mesh":2,"matrix":[-0.7498235652016723,0.0,0.10784708755059233,0.0,0.0,0.7575396842574597,0.0,0.0,-0.10784708755059233,0.0,-0.7498235652016723,0.0,141.5,2.5269581397370247,390.5,1.0]},{"name":"Maple tree","children":[7],"extras":{"veldrenEntityKey":"overworld:object:830"}},{"mesh":3,"matrix":[0.60038029559713,0.0,0.4105152334450768,0.0,0.0,0.7273096013609082,0.0,0.0,-0.4105152334450768,0.0,0.60038029559713,0.0,204.5,0.86013756262657,390.5,1.0]},{"name":"Yew tree","children":[9],"extras":{"veldrenEntityKey":"overworld:object:831"}},{"mesh":1,"matrix":[-0.1825910878802787,0.0,-0.7852674686437722,0.0,0.0,0.8062161637448739,0.0,0.0,0.7852674686437722,0.0,-0.1825910878802787,0.0,225.5,0.708910789510088,390.5,1.0]},{"name":"Tree","children":[11],"extras":{"veldrenEntityKey":"overworld:object:832"}},{"mesh":2,"matrix":[-0.372541872814988,0.0,0.6596051290161357,0.0,0.0,0.7575396842574597,0.0,0.0,-0.6596051290161357,0.0,-0.372541872814988,0.0,246.5,0.7308982520577065,390.5,1.0]},{"name":"Maple tree","children":[13],"extras":{"veldrenEntityKey":"overworld:object:847"}},{"mesh":3,"matrix":[-0.5535630446077935,0.0,-0.4273628593492136,0.0,0.0,0.6993361551547194,0.0,0.0,0.4273628593492136,0.0,-0.5535630446077935,0.0,162.5,1.6237282318007724,411.5,1.0]},{"name":"Yew tree","children":[15],"extras":{"veldrenEntityKey":"overworld:object:848"}},{"mesh":1,"matrix":[0.14841542605830302,0.0,0.8606984929156781,0.0,0.0,0.8734008440569468,0.0,0.0,-0.8606984929156781,0.0,0.14841542605830302,0.0,183.5,1.5709700546621117,411.5,1.0]},{"name":"Tree","children":[17],"extras":{"veldrenEntityKey":"overworld:object:849"}},{"mesh":2,"matrix":[0.39356434604417184,0.0,-0.6115409676275855,0.0,0.0,0.7272380968871612,0.0,0.0,0.6115409676275855,0.0,0.39356434604417184,0.0,204.5,1.527097885669929,411.5,1.0]},{"name":"Oak tree","children":[19],"extras":{"veldrenEntityKey":"overworld:object:850"}},{"mesh":4,"matrix":[-0.9278435531372299,0.0,0.2432212524118015,0.0,0.0,0.9591924920072534,0.0,0.0,-0.2432212524118015,0.0,-0.9278435531372299,0.0,225.5,1.7150772869862778,411.5,1.0]},{"name":"Yew tree","children":[21],"extras":{"veldrenEntityKey":"overworld:object:867"}},{"mesh":1,"matrix":[0.790358906694996,0.0,-0.1591141140546366,0.0,0.0,0.8062161637448739,0.0,0.0,0.1591141140546366,0.0,0.790358906694996,0.0,141.5,1.2038023910528062,432.5,1.0]},{"name":"Tree","children":[23],"extras":{"veldrenEntityKey":"overworld:object:868"}},{"mesh":2,"matrix":[-0.6482129624308812,0.0,-0.39202847927347395,0.0,0.0,0.7575396842574597,0.0,0.0,0.39202847927347395,0.0,-0.6482129624308812,0.0,162.5,1.408980765378164,432.5,1.0]},{"name":"Oak tree","children":[25],"extras":{"veldrenEntityKey":"overworld:object:869"}},{"mesh":4,"matrix":[0.2797767212400105,0.0,0.9575235361555756,0.0,0.0,0.9975601916875435,0.0,0.0,-0.9575235361555756,0.0,0.2797767212400105,0.0,183.5,1.81151745934222,432.5,1.0]},{"name":"Yew tree","children":[27],"extras":{"veldrenEntityKey":"overworld:object:870"}},{"mesh":1,"matrix":[0.3567027614151834,0.0,-0.7230128924730762,0.0,0.0,0.8062161637448739,0.0,0.0,0.7230128924730762,0.0,0.3567027614151834,0.0,240.5,0.7861966919581698,430.5,1.0]},{"name":"Maple tree","children":[29],"extras":{"veldrenEntityKey":"overworld:object:901"}},{"mesh":3,"matrix":[0.6969139061707604,0.0,-0.05815552675712107,0.0,0.0,0.6993361551547194,0.0,0.0,0.05815552675712107,0.0,0.6969139061707604,0.0,185.5,0.7312853066389868,480.5,1.0]},{"name":"Magic tree","children":[31],"extras":{"veldrenEntityKey":"overworld:object:902"}},{"mesh":5,"matrix":[-1.1532249688686844,0.0,-0.8938015074387418,0.0,0.0,1.4590438525013378,0.0,0.0,0.8938015074387418,0.0,-1.1532249688686844,0.0,204.5,2.502878913969481,474.5,1.0]},{"name":"Maple tree","children":[33],"extras":{"veldrenEntityKey":"overworld:object:903"}},{"mesh":3,"matrix":[0.11283186638929911,0.0,0.6618133096982991,0.0,0.0,0.6713627089485306,0.0,0.0,-0.6618133096982991,0.0,0.11283186638929911,0.0,225.5,4.836843296429484,474.5,1.0]},{"name":"Yew tree","children":[35],"extras":{"veldrenEntityKey":"overworld:object:904"}},{"mesh":1,"matrix":[0.4558197658240511,0.0,-0.7053415231704373,0.0,0.0,0.8398085039009104,0.0,0.0,0.7053415231704373,0.0,0.4558197658240511,0.0,246.5,5.537307305512922,474.5,1.0]},{"name":"Magic tree","children":[37],"extras":{"veldrenEntityKey":"overworld:object:933"}},{"mesh":5,"matrix":[0.1582416032823722,0.0,-1.337481211062135,0.0,0.0,1.346809710001235,0.0,0.0,1.337481211062135,0.0,0.1582416032823722,0.0,162.5,1.9516480621722054,495.5,1.0]},{"name":"Maple tree","children":[39],"extras":{"veldrenEntityKey":"overworld:object:934"}},{"mesh":3,"matrix":[-0.5301501693439244,0.0,0.4560831676911503,0.0,0.0,0.6993361551547194,0.0,0.0,-0.4560831676911503,0.0,-0.5301501693439244,0.0,183.5,4.639906147521622,495.5,1.0]},{"name":"Yew tree","children":[41],"extras":{"veldrenEntityKey":"overworld:object:935"}},{"mesh":1,"matrix":[0.8729493686272712,0.0,0.02807907072243851,0.0,0.0,0.8734008440569468,0.0,0.0,-0.02807907072243851,0.0,0.8729493686272712,0.0,204.5,5.254293267663141,495.5,1.0]},{"name":"Yew tree","children":[43],"extras":{"veldrenEntityKey":"overworld:object:2400446"}},{"mesh":1,"matrix":[0.21089534905322582,0.0,0.8475565976069711,0.0,0.0,0.8734008440569468,0.0,0.0,-0.8475565976069711,0.0,0.21089534905322582,0.0,231.5,5.25429326766314,509.5,1.0]},{"name":"Yew tree","children":[45],"extras":{"veldrenEntityKey":"overworld:object:2400447"}},{"mesh":1,"matrix":[0.3856131657801052,0.0,-0.7080162350261091,0.0,0.0,0.8062161637448739,0.0,0.0,0.7080162350261091,0.0,0.3856131657801052,0.0,224.5,5.2493150844060565,508.5,1.0]},{"name":"Yew tree","children":[47],"extras":{"veldrenEntityKey":"overworld:object:2400448"}},{"mesh":1,"matrix":[-0.7946342301081128,0.0,0.2717255298362162,0.0,0.0,0.8398085039009104,0.0,0.0,-0.2717255298362162,0.0,-0.7946342301081128,0.0,230.5,5.251804176034599,502.5,1.0]},{"name":"Old-growth oak","children":[49],"extras":{"veldrenEntityKey":"overworld:object:6806099"}},{"mesh":2,"matrix":[0.6561484221174295,0.0,-0.43607696274035207,0.0,0.0,0.7878412716277581,0.0,0.0,0.43607696274035207,0.0,0.6561484221174295,0.0,231.5,0.33882943484258177,384.5,1.0]},{"name":"Old-growth oak","children":[51],"extras":{"veldrenEntityKey":"overworld:object:6806102"}},{"mesh":2,"matrix":[0.055426396524574824,0.0,-0.7858891676619189,0.0,0.0,0.7878412716277581,0.0,0.0,0.7858891676619189,0.0,0.055426396524574824,0.0,254.5,0.5396436175682506,385.5,1.0]},{"name":"Old-growth oak","children":[53],"extras":{"veldrenEntityKey":"overworld:object:6806225"}},{"mesh":2,"matrix":[0.23517003656267518,0.0,-0.7519234822660833,0.0,0.0,0.7878412716277581,0.0,0.0,0.7519234822660833,0.0,0.23517003656267518,0.0,129.5,3.0833480244734264,390.5,1.0]},{"name":"Old-growth oak","children":[55],"extras":{"veldrenEntityKey":"overworld:object:6806235"}},{"mesh":2,"matrix":[0.7215698116940171,0.0,-0.09062150084787172,0.0,0.0,0.7272380968871612,0.0,0.0,0.09062150084787172,0.0,0.7215698116940171,0.0,211.5,0.8554874375679652,393.5,1.0]},{"name":"Old-growth oak","children":[57],"extras":{"veldrenEntityKey":"overworld:object:6806236"}},{"mesh":2,"matrix":[-0.6175746510972994,0.0,-0.43871166333588696,0.0,0.0,0.7575396842574597,0.0,0.0,0.43871166333588696,0.0,-0.6175746510972994,0.0,219.5,0.6292561997306955,389.5,1.0]},{"name":"Old-growth oak","children":[59],"extras":{"veldrenEntityKey":"overworld:object:6806238"}},{"mesh":2,"matrix":[0.36892636616541946,0.0,-0.6267125225428632,0.0,0.0,0.7272380968871612,0.0,0.0,0.6267125225428632,0.0,0.36892636616541946,0.0,233.5,0.7991136402283279,393.5,1.0]},{"name":"Old-growth oak","children":[61],"extras":{"veldrenEntityKey":"overworld:object:6806363"}},{"mesh":2,"matrix":[0.613027315139586,0.0,0.4948650120717706,0.0,0.0,0.7878412716277581,0.0,0.0,-0.4948650120717706,0.0,0.613027315139586,0.0,130.5,2.638168252038215,398.5,1.0]},{"name":"Old-growth oak","children":[63],"extras":{"veldrenEntityKey":"overworld:object:6806364"}},{"mesh":2,"matrix":[-0.10800032152084837,0.0,-0.7191739567833734,0.0,0.0,0.7272380968871612,0.0,0.0,0.7191739567833734,0.0,-0.10800032152084837,0.0,143.5,2.419399533784548,395.5,1.0]},{"name":"Old-growth oak","children":[65],"extras":{"veldrenEntityKey":"overworld:object:6806365"}},{"mesh":2,"matrix":[-0.4236873241194331,0.0,0.6279772484775273,0.0,0.0,0.7575396842574597,0.0,0.0,-0.6279772484775273,0.0,-0.4236873241194331,0.0,146.5,2.1521063498958095,400.5,1.0]},{"name":"Old-growth oak","children":[67],"extras":{"veldrenEntityKey":"overworld:object:6806366"}},{"mesh":2,"matrix":[0.7662474483595704,0.0,-0.18319038501649149,0.0,0.0,0.7878412716277581,0.0,0.0,0.18319038501649149,0.0,0.7662474483595704,0.0,156.5,1.9414999060973586,399.5,1.0]},{"name":"Old-growth oak","children":[69],"extras":{"veldrenEntityKey":"overworld:object:6806374"}},{"mesh":2,"matrix":[0.6348491429953834,0.0,-0.41331941505682845,0.0,0.0,0.7575396842574597,0.0,0.0,0.41331941505682845,0.0,0.6348491429953834,0.0,221.5,1.0707586950487387,399.5,1.0]},{"name":"Old-growth oak","children":[71],"extras":{"veldrenEntityKey":"overworld:object:6806375"}},{"mesh":2,"matrix":[-0.777079059479916,0.0,-0.12977674906489256,0.0,0.0,0.7878412716277581,0.0,0.0,0.12977674906489256,0.0,-0.777079059479916,0.0,229.5,1.1559697082848823,400.5,1.0]},{"name":"Old-growth oak","children":[73],"extras":{"veldrenEntityKey":"overworld:object:6806377"}},{"mesh":2,"matrix":[0.06043861610372072,0.0,-0.7551248551785054,0.0,0.0,0.7575396842574597,0.0,0.0,0.7551248551785054,0.0,0.06043861610372072,0.0,247.5,1.2995500017468862,399.5,1.0]},{"name":"Old-growth oak","children":[75],"extras":{"veldrenEntityKey":"overworld:object:6806502"}},{"mesh":2,"matrix":[0.7085870430918002,0.0,0.16364489581554134,0.0,0.0,0.7272380968871612,0.0,0.0,-0.16364489581554134,0.0,0.7085870430918002,0.0,143.5,1.886147999904624,409.5,1.0]},{"name":"Old-growth oak","children":[77],"extras":{"veldrenEntityKey":"overworld:object:6806504"}},{"mesh":2,"matrix":[-0.11099484562686909,0.0,0.7799833418248817,0.0,0.0,0.7878412716277581,0.0,0.0,-0.7799833418248817,0.0,-0.11099484562686909,0.0,158.5,1.746039159925002,406.5,1.0]},{"name":"Old-growth oak","children":[79],"extras":{"veldrenEntityKey":"overworld:object:6806506"}},{"mesh":2,"matrix":[-0.7563630005556955,0.0,-0.04220645229436612,0.0,0.0,0.7575396842574597,0.0,0.0,0.04220645229436612,0.0,-0.7563630005556955,0.0,170.5,1.329144620188273,404.5,1.0]},{"name":"Old-growth oak","children":[81],"extras":{"veldrenEntityKey":"overworld:object:6806511"}},{"mesh":2,"matrix":[-0.5888621640810315,0.0,-0.42675121707836333,0.0,0.0,0.7272380968871612,0.0,0.0,0.42675121707836333,0.0,-0.5888621640810315,0.0,209.5,1.476655139911866,409.5,1.0]},{"name":"Old-growth oak","children":[83],"extras":{"veldrenEntityKey":"overworld:object:6806512"}},{"mesh":2,"matrix":[0.15130834753005726,0.0,0.742274987583857,0.0,0.0,0.7575396842574597,0.0,0.0,-0.742274987583857,0.0,0.15130834753005726,0.0,222.5,1.3207281270831248,404.5,1.0]},{"name":"Old-growth oak","children":[85],"extras":{"veldrenEntityKey":"overworld:object:6806514"}},{"mesh":2,"matrix":[-0.6975539001232468,0.0,0.20565457929962921,0.0,0.0,0.7272380968871612,0.0,0.0,-0.20565457929962921,0.0,-0.6975539001232468,0.0,235.5,1.7423139810514852,409.5,1.0]},{"name":"Old-growth oak","children":[87],"extras":{"veldrenEntityKey":"overworld:object:6806515"}},{"mesh":2,"matrix":[0.6801709455530098,0.0,0.333517402919872,0.0,0.0,0.7575396842574597,0.0,0.0,-0.333517402919872,0.0,0.6801709455530098,0.0,247.5,1.6863028953029304,405.5,1.0]},{"name":"Old-growth oak","children":[89],"extras":{"veldrenEntityKey":"overworld:object:6806641"}},{"mesh":2,"matrix":[0.7384092638254303,0.0,-0.16916894609140823,0.0,0.0,0.7575396842574597,0.0,0.0,0.16916894609140823,0.0,0.7384092638254303,0.0,145.5,1.594662784217594,417.5,1.0]},{"name":"Old-growth oak","children":[91],"extras":{"veldrenEntityKey":"overworld:object:6806644"}},{"mesh":2,"matrix":[0.31701376700122974,0.0,-0.6880179102004407,0.0,0.0,0.7575396842574597,0.0,0.0,0.6880179102004407,0.0,0.31701376700122974,0.0,171.5,1.53946765676484,416.5,1.0]},{"name":"Old-growth oak","children":[93],"extras":{"veldrenEntityKey":"overworld:object:6806650"}},{"mesh":2,"matrix":[-0.7459778802719005,0.0,-0.13184602902603404,0.0,0.0,0.7575396842574597,0.0,0.0,0.13184602902603404,0.0,-0.7459778802719005,0.0,223.5,1.9586790203213358,416.5,1.0]},{"name":"Old-growth oak","children":[95],"extras":{"veldrenEntityKey":"overworld:object:6806653"}},{"mesh":2,"matrix":[-0.5599916145020613,0.0,0.5101722894398191,0.0,0.0,0.7575396842574597,0.0,0.0,-0.5101722894398191,0.0,-0.5599916145020613,0.0,246.5,2.322469555778463,415.5,1.0]},{"name":"Old-growth oak","children":[97],"extras":{"veldrenEntityKey":"overworld:object:6806778"}},{"mesh":2,"matrix":[-0.4056821378210919,0.0,-0.6035704205947875,0.0,0.0,0.7272380968871612,0.0,0.0,0.6035704205947875,0.0,-0.4056821378210919,0.0,140.5,1.377855312711212,424.5,1.0]},{"name":"Old-growth oak","children":[99],"extras":{"veldrenEntityKey":"overworld:object:6806780"}},{"mesh":2,"matrix":[0.6138940826785644,0.0,-0.4937893523885331,0.0,0.0,0.7878412716277581,0.0,0.0,0.4937893523885331,0.0,0.6138940826785644,0.0,159.5,1.471754207139939,422.5,1.0]},{"name":"Old-growth oak","children":[101],"extras":{"veldrenEntityKey":"overworld:object:6806783"}},{"mesh":2,"matrix":[-0.016078511683587548,0.0,-0.7876771868869148,0.0,0.0,0.7878412716277581,0.0,0.0,0.7876771868869148,0.0,-0.016078511683587548,0.0,181.5,1.6272746594026557,422.5,1.0]},{"name":"Old-growth oak","children":[103],"extras":{"veldrenEntityKey":"overworld:object:6806784"}},{"mesh":2,"matrix":[-0.48072200562860135,0.0,0.5456936895992798,0.0,0.0,0.7272380968871612,0.0,0.0,-0.5456936895992798,0.0,-0.48072200562860135,0.0,185.5,1.7248027831746657,425.5,1.0]},{"name":"Old-growth oak","children":[105],"extras":{"veldrenEntityKey":"overworld:object:6806785"}},{"mesh":2,"matrix":[0.7532861464282419,0.0,-0.08016454842498033,0.0,0.0,0.7575396842574597,0.0,0.0,0.08016454842498033,0.0,0.7532861464282419,0.0,199.5,1.7896669349922032,420.5,1.0]},{"name":"Old-growth oak","children":[107],"extras":{"veldrenEntityKey":"overworld:object:6806787"}},{"mesh":2,"matrix":[0.1385105303748457,0.0,0.713925824255811,0.0,0.0,0.7272380968871612,0.0,0.0,-0.713925824255811,0.0,0.1385105303748457,0.0,211.5,2.186263429149325,425.5,1.0]},{"name":"Old-growth oak","children":[109],"extras":{"veldrenEntityKey":"overworld:object:6806789"}},{"mesh":2,"matrix":[-0.7577565715551452,0.0,0.2156359143209567,0.0,0.0,0.7878412716277581,0.0,0.0,-0.2156359143209567,0.0,-0.7577565715551452,0.0,225.5,2.266234650110517,421.5,1.0]},{"name":"Old-growth oak","children":[111],"extras":{"veldrenEntityKey":"overworld:object:6806790"}},{"mesh":2,"matrix":[0.6499069607357092,0.0,0.32633754296944373,0.0,0.0,0.7272380968871612,0.0,0.0,-0.32633754296944373,0.0,0.6499069607357092,0.0,238.5,2.6612689617490215,425.5,1.0]},{"name":"Old-growth oak","children":[113],"extras":{"veldrenEntityKey":"overworld:object:6806791"}},{"mesh":2,"matrix":[-0.26888391243137183,0.0,-0.7082145260162982,0.0,0.0,0.7575396842574597,0.0,0.0,0.7082145260162982,0.0,-0.26888391243137183,0.0,244.5,2.6052646933705614,420.5,1.0]},{"name":"Old-growth oak","children":[115],"extras":{"veldrenEntityKey":"overworld:object:6806792"}},{"mesh":2,"matrix":[-0.29203537254117107,0.0,0.7317166189617278,0.0,0.0,0.7878412716277581,0.0,0.0,-0.7317166189617278,0.0,-0.29203537254117107,0.0,250.5,1.3394619063018558,421.5,1.0]},{"name":"Old-growth oak","children":[117],"extras":{"veldrenEntityKey":"overworld:object:6806917"}},{"mesh":2,"matrix":[-0.6548185316760501,0.0,-0.380892456998709,0.0,0.0,0.7575396842574597,0.0,0.0,0.380892456998709,0.0,-0.6548185316760501,0.0,148.5,1.189875139936508,433.5,1.0]},{"name":"Old-growth oak","children":[119],"extras":{"veldrenEntityKey":"overworld:object:6806918"}},{"mesh":2,"matrix":[0.23385123173851763,0.0,0.7523346799758875,0.0,0.0,0.7878412716277581,0.0,0.0,-0.7523346799758875,0.0,0.23385123173851763,0.0,158.5,1.3776621248697785,429.5,1.0]},{"name":"Old-growth oak","children":[121],"extras":{"veldrenEntityKey":"overworld:object:6806920"}},{"mesh":2,"matrix":[-0.7015226387719282,0.0,0.28588872051090525,0.0,0.0,0.7575396842574597,0.0,0.0,-0.28588872051090525,0.0,-0.7015226387719282,0.0,174.5,1.6343769532550487,433.5,1.0]},{"name":"Old-growth oak","children":[123],"extras":{"veldrenEntityKey":"overworld:object:6806923"}},{"mesh":2,"matrix":[-0.20206271645757706,0.0,0.7300938513935564,0.0,0.0,0.7575396842574597,0.0,0.0,-0.7300938513935564,0.0,-0.20206271645757706,0.0,199.5,2.190375981467359,432.5,1.0]},{"name":"Old-growth oak","children":[125],"extras":{"veldrenEntityKey":"overworld:object:6806926"}},{"mesh":2,"matrix":[0.45471128315516224,0.0,0.60589109763742,0.0,0.0,0.7575396842574597,0.0,0.0,-0.60589109763742,0.0,0.45471128315516224,0.0,221.5,2.7618930926679934,432.5,1.0]},{"name":"Old-growth oak","children":[127],"extras":{"veldrenEntityKey":"overworld:object:6807056"}},{"mesh":2,"matrix":[-0.7856466179119126,0.0,-0.05876445391234427,0.0,0.0,0.7878412716277581,0.0,0.0,0.05876445391234427,0.0,-0.7856466179119126,0.0,156.5,1.2422872442005968,439.5,1.0]},{"name":"Old-growth oak","children":[129],"extras":{"veldrenEntityKey":"overworld:object:6807057"}},{"mesh":2,"matrix":[0.49759696267927583,0.0,0.5303513102618108,0.0,0.0,0.7272380968871612,0.0,0.0,-0.5303513102618108,0.0,0.49759696267927583,0.0,162.5,1.3788279895474578,440.5,1.0]},{"name":"Old-growth oak","children":[131],"extras":{"veldrenEntityKey":"overworld:object:6807059"}},{"mesh":2,"matrix":[-0.5263496279249662,0.0,0.5862166310019639,0.0,0.0,0.7878412716277581,0.0,0.0,-0.5862166310019639,0.0,-0.5263496279249662,0.0,178.5,1.7859701392687892,438.5,1.0]},{"name":"Old-growth oak","children":[133],"extras":{"veldrenEntityKey":"overworld:object:6807060"}},{"mesh":2,"matrix":[0.723850161662643,0.0,-0.07011556906298073,0.0,0.0,0.7272380968871612,0.0,0.0,0.07011556906298073,0.0,0.723850161662643,0.0,188.5,2.116574300763924,440.5,1.0]},{"name":"Old-growth oak","children":[135],"extras":{"veldrenEntityKey":"overworld:object:6807062"}},{"mesh":2,"matrix":[0.14273204711866302,0.0,0.774804124927945,0.0,0.0,0.7878412716277581,0.0,0.0,-0.774804124927945,0.0,0.14273204711866302,0.0,201.5,2.4555130158921235,438.5,1.0]},{"name":"Willow tree","children":[137],"extras":{"veldrenEntityKey":"overworld:object:9116460"}},{"mesh":6,"matrix":[-0.17954620483567027,0.0,-0.8195208121510769,0.0,0.0,0.8389584025562012,0.0,0.0,0.8195208121510769,0.0,-0.17954620483567027,0.0,170.5,1.5725924314788864,409.5,1.0]},{"name":"Tree","children":[139],"extras":{"veldrenEntityKey":"overworld:object:9116464"}},{"mesh":2,"matrix":[0.28583520779962973,0.0,0.7015444442136465,0.0,0.0,0.7575396842574597,0.0,0.0,-0.7015444442136465,0.0,0.28583520779962973,0.0,175.5,1.5421610738489675,416.5,1.0]},{"name":"Willow tree","children":[141],"extras":{"veldrenEntityKey":"overworld:object:9116466"}},{"mesh":6,"matrix":[-0.7470318411190381,0.0,0.38183062943398516,0.0,0.0,0.8389584025562012,0.0,0.0,-0.38183062943398516,0.0,-0.7470318411190381,0.0,180.5,1.465382427815851,405.5,1.0]},{"name":"Yew tree","children":[143],"extras":{"veldrenEntityKey":"overworld:object:9116467"}},{"mesh":1,"matrix":[0.8093649637253756,0.0,0.22406846881724998,0.0,0.0,0.8398085039009104,0.0,0.0,-0.22406846881724998,0.0,0.8093649637253756,0.0,168.5,1.595532982264428,420.5,1.0]},{"name":"Willow tree","children":[145],"extras":{"veldrenEntityKey":"overworld:object:9116468"}},{"mesh":6,"matrix":[-0.4813339725027552,0.0,-0.7709508397005637,0.0,0.0,0.9088716027692181,0.0,0.0,0.7709508397005637,0.0,-0.4813339725027552,0.0,167.5,0.7921869057080662,400.5,1.0]},{"name":"Tree","children":[147],"extras":{"veldrenEntityKey":"overworld:object:9117420"}},{"mesh":2,"matrix":[0.32823009396110997,0.0,0.6489531993775368,0.0,0.0,0.7272380968871612,0.0,0.0,-0.6489531993775368,0.0,0.32823009396110997,0.0,175.5,1.6053076718182708,427.5,1.0]},{"name":"Oak tree","children":[149],"extras":{"veldrenEntityKey":"overworld:object:9117421"}},{"mesh":4,"matrix":[0.2598459433356576,0.0,-0.9233256860150091,0.0,0.0,0.9591924920072534,0.0,0.0,0.9233256860150091,0.0,0.2598459433356576,0.0,169.5,1.5246888160921976,430.5,1.0]},{"name":"Tree","children":[151],"extras":{"veldrenEntityKey":"overworld:object:9117424"}},{"mesh":2,"matrix":[-0.4520869120184488,0.0,-0.6078517888486593,0.0,0.0,0.7575396842574597,0.0,0.0,0.6078517888486593,0.0,-0.4520869120184488,0.0,164.5,1.469444171546672,426.5,1.0]},{"name":"Maple tree","children":[153],"extras":{"veldrenEntityKey":"overworld:object:9117426"}},{"mesh":3,"matrix":[0.5024713726788738,0.0,-0.4452531938177623,0.0,0.0,0.6713627089485306,0.0,0.0,0.4452531938177623,0.0,0.5024713726788738,0.0,170.5,1.5806882899475274,437.5,1.0]},{"name":"Tree","children":[155],"extras":{"veldrenEntityKey":"overworld:object:9117441"}},{"mesh":2,"matrix":[0.39962699558101367,0.0,0.6075965058877089,0.0,0.0,0.7272380968871612,0.0,0.0,-0.6075965058877089,0.0,0.39962699558101367,0.0,195.5,1.9430950524229005,427.5,1.0]},{"name":"Maple tree","children":[157],"extras":{"veldrenEntityKey":"overworld:object:9117443"}},{"mesh":3,"matrix":[-0.5712567173970963,0.0,0.45016110345126137,0.0,0.0,0.7273096013609082,0.0,0.0,-0.45016110345126137,0.0,-0.5712567173970963,0.0,188.5,1.6739655469364343,420.5,1.0]},{"name":"Yew tree","children":[159],"extras":{"veldrenEntityKey":"overworld:object:9118380"}},{"mesh":1,"matrix":[-0.5321209532157355,0.0,-0.6056664047413216,0.0,0.0,0.8062161637448739,0.0,0.0,0.6056664047413216,0.0,-0.5321209532157355,0.0,161.5,1.4119405555563505,448.5,1.0]},{"name":"Tree","children":[161],"extras":{"veldrenEntityKey":"overworld:object:9118381"}},{"mesh":2,"matrix":[-0.016470419834466562,0.0,0.757360613245347,0.0,0.0,0.7575396842574597,0.0,0.0,-0.757360613245347,0.0,-0.016470419834466562,0.0,168.5,1.5870325547004227,449.5,1.0]},{"name":"Willow tree","children":[163],"extras":{"veldrenEntityKey":"overworld:object:9118384"}},{"mesh":6,"matrix":[0.6802323549993143,0.0,0.5486450356023013,0.0,0.0,0.8739150026627096,0.0,0.0,-0.5486450356023013,0.0,0.6802323549993143,0.0,169.5,1.6855595529502994,456.5,1.0]},{"name":"Willow tree","children":[165],"extras":{"veldrenEntityKey":"overworld:object:9118385"}},{"mesh":6,"matrix":[-0.13535125264095252,0.0,-0.8987366848687174,0.0,0.0,0.9088716027692181,0.0,0.0,0.8987366848687174,0.0,-0.13535125264095252,0.0,154.5,1.133392230278616,448.5,1.0]},{"name":"Oak tree","children":[167],"extras":{"veldrenEntityKey":"overworld:object:9118386"}},{"mesh":4,"matrix":[-0.5146914593237539,0.0,0.763551569878014,0.0,0.0,0.9208247923269633,0.0,0.0,-0.763551569878014,0.0,-0.5146914593237539,0.0,170.5,1.6142702655910206,444.5,1.0]},{"name":"Tree","children":[169],"extras":{"veldrenEntityKey":"overworld:object:9118389"}},{"mesh":2,"matrix":[0.22924821276725632,0.0,0.6901597688268122,0.0,0.0,0.7272380968871612,0.0,0.0,-0.6901597688268122,0.0,0.22924821276725632,0.0,175.5,1.9004106212902292,453.5,1.0]},{"name":"Willow tree","children":[171],"extras":{"veldrenEntityKey":"overworld:object:9118400"}},{"mesh":6,"matrix":[0.9088543431906589,0.0,-0.005601176998028457,0.0,0.0,0.9088716027692181,0.0,0.0,0.005601176998028457,0.0,0.9088543431906589,0.0,197.5,2.5345926501631535,453.5,1.0]},{"name":"Tree","children":[173],"extras":{"veldrenEntityKey":"overworld:object:9118402"}},{"mesh":2,"matrix":[0.06942477594905526,0.0,0.7543517572786022,0.0,0.0,0.7575396842574597,0.0,0.0,-0.7543517572786022,0.0,0.06942477594905526,0.0,191.5,2.56644242901826,453.5,1.0]},{"name":"Willow tree","children":[175],"extras":{"veldrenEntityKey":"overworld:object:9118403"}},{"mesh":6,"matrix":[0.5506289990448562,0.0,-0.7230873361711897,0.0,0.0,0.9088716027692181,0.0,0.0,0.7230873361711897,0.0,0.5506289990448562,0.0,204.5,1.1486893233401865,453.5,1.0]},{"name":"Yew tree","children":[177],"extras":{"veldrenEntityKey":"overworld:object:9118405"}},{"mesh":1,"matrix":[0.7091992385346815,0.0,0.44979413433938137,0.0,0.0,0.8398085039009104,0.0,0.0,-0.44979413433938137,0.0,0.7091992385346815,0.0,194.5,2.584285549686822,447.5,1.0]},{"name":"Willow tree","children":[179],"extras":{"veldrenEntityKey":"overworld:object:9118407"}},{"mesh":6,"matrix":[-0.3871134285301126,0.0,0.7443079971835009,0.0,0.0,0.8389584025562012,0.0,0.0,-0.7443079971835009,0.0,-0.3871134285301126,0.0,186.5,2.429182876678136,457.5,1.0]},{"name":"Maple tree","children":[181],"extras":{"veldrenEntityKey":"overworld:object:9118408"}},{"mesh":3,"matrix":[0.6572707309894583,0.0,-0.23888542042403693,0.0,0.0,0.6993361551547194,0.0,0.0,0.23888542042403693,0.0,0.6572707309894583,0.0,203.5,2.824749503951747,446.5,1.0]},{"name":"Tree","children":[183],"extras":{"veldrenEntityKey":"overworld:object:9118410"}},{"mesh":2,"matrix":[0.30594981261146914,0.0,0.6597499236279357,0.0,0.0,0.7272380968871612,0.0,0.0,-0.6597499236279357,0.0,0.30594981261146914,0.0,188.5,2.314247734624021,448.5,1.0]},{"name":"Magic tree","children":[185],"extras":{"veldrenEntityKey":"overworld:object:9118440"}},{"mesh":5,"matrix":[-0.19805062978449747,0.0,-1.332168286289527,0.0,0.0,1.346809710001235,0.0,0.0,1.332168286289527,0.0,-0.19805062978449747,0.0,245.5,5.0427162722738945,463.5,1.0]},{"name":"Maple tree","children":[187],"extras":{"veldrenEntityKey":"overworld:object:9118441"}},{"mesh":3,"matrix":[-0.39198737918958054,0.0,0.5791519251998302,0.0,0.0,0.6993361551547194,0.0,0.0,-0.5791519251998302,0.0,-0.39198737918958054,0.0,243.5,4.667120315430469,457.5,1.0]},{"name":"Yew tree","children":[189],"extras":{"veldrenEntityKey":"overworld:object:9118442"}},{"mesh":1,"matrix":[0.8497599510542669,0.0,-0.2018342388784347,0.0,0.0,0.8734008440569468,0.0,0.0,0.2018342388784347,0.0,0.8497599510542669,0.0,251.5,5.339563881211195,465.5,1.0]},{"name":"Magic tree","children":[191],"extras":{"veldrenEntityKey":"overworld:object:9118443"}},{"mesh":5,"matrix":[-1.17581850264549,0.0,-0.6567703128112053,0.0,0.0,1.346809710001235,0.0,0.0,0.6567703128112053,0.0,-1.17581850264549,0.0,238.5,4.8768773342777445,464.5,1.0]},{"name":"Maple tree","children":[193],"extras":{"veldrenEntityKey":"overworld:object:9118444"}},{"mesh":3,"matrix":[0.21919693509949637,0.0,0.6640961990175617,0.0,0.0,0.6993361551547194,0.0,0.0,-0.6640961990175617,0.0,0.21919693509949637,0.0,249.5,4.834769722722451,456.5,1.0]},{"name":"Magic tree","children":[195],"extras":{"veldrenEntityKey":"overworld:object:9118446"}},{"mesh":5,"matrix":[-1.2381636424865365,0.0,0.5299501763166827,0.0,0.0,1.346809710001235,0.0,0.0,-0.5299501763166827,0.0,-1.2381636424865365,0.0,237.5,3.292249739295905,456.5,1.0]},{"name":"Yew tree","children":[197],"extras":{"veldrenEntityKey":"overworld:object:9118448"}},{"mesh":1,"matrix":[-0.4110689089531001,0.0,-0.7706175358058595,0.0,0.0,0.8734008440569468,0.0,0.0,0.7706175358058595,0.0,-0.4110689089531001,0.0,238.5,5.208467820441252,471.5,1.0]},{"name":"Yew tree","children":[199],"extras":{"veldrenEntityKey":"overworld:object:9119320"}},{"mesh":1,"matrix":[-0.09830353244813285,0.0,-0.8340352143240143,0.0,0.0,0.8398085039009104,0.0,0.0,0.8340352143240143,0.0,-0.09830353244813285,0.0,143.5,0.846539675559865,488.5,1.0]},{"name":"Maple tree","children":[201],"extras":{"veldrenEntityKey":"overworld:object:9119322"}},{"mesh":3,"matrix":[0.657585893025864,0.0,-0.13530957194554383,0.0,0.0,0.6713627089485306,0.0,0.0,0.13530957194554383,0.0,0.657585893025864,0.0,150.5,1.1617439533027907,489.5,1.0]},{"name":"Yew tree","children":[203],"extras":{"veldrenEntityKey":"overworld:object:9119323"}},{"mesh":1,"matrix":[-0.7204586862518358,0.0,-0.4315293786390033,0.0,0.0,0.8398085039009104,0.0,0.0,0.4315293786390033,0.0,-0.7204586862518358,0.0,137.5,0.5854158696663936,490.5,1.0]},{"name":"Magic tree","children":[205],"extras":{"veldrenEntityKey":"overworld:object:9119324"}},{"mesh":5,"matrix":[0.41518312655365136,0.0,1.3987251105728675,0.0,0.0,1.4590438525013378,0.0,0.0,-1.3987251105728675,0.0,0.41518312655365136,0.0,147.5,0.8795703817297086,479.5,1.0]},{"name":"Maple tree","children":[207],"extras":{"veldrenEntityKey":"overworld:object:9119325"}},{"mesh":3,"matrix":[0.29446372512539015,0.0,-0.6033398723372988,0.0,0.0,0.6713627089485306,0.0,0.0,0.6033398723372988,0.0,0.29446372512539015,0.0,147.5,1.1304089970557494,496.5,1.0]},{"name":"Yew tree","children":[209],"extras":{"veldrenEntityKey":"overworld:object:9119326"}},{"mesh":1,"matrix":[-0.7817073242006319,0.0,0.3069397050161052,0.0,0.0,0.8398085039009104,0.0,0.0,-0.3069397050161052,0.0,-0.7817073242006319,0.0,135.5,0.42032648567698916,483.5,1.0]},{"name":"Magic tree","children":[211],"extras":{"veldrenEntityKey":"overworld:object:9119327"}},{"mesh":5,"matrix":[1.3611300456955737,0.0,0.5254845023658752,0.0,0.0,1.4590438525013378,0.0,0.0,-0.5254845023658752,0.0,1.3611300456955737,0.0,154.5,1.2978809423195234,484.5,1.0]},{"name":"Maple tree","children":[213],"extras":{"veldrenEntityKey":"overworld:object:9119328"}},{"mesh":3,"matrix":[-0.2979104807580163,0.0,-0.6016454374639909,0.0,0.0,0.6713627089485306,0.0,0.0,0.6016454374639909,0.0,-0.2979104807580163,0.0,138.5,0.6710157403252758,496.5,1.0]},{"name":"Yew tree","children":[215],"extras":{"veldrenEntityKey":"overworld:object:9119329"}},{"mesh":1,"matrix":[-0.23436487982555748,0.0,0.8064436907364565,0.0,0.0,0.8398085039009104,0.0,0.0,-0.8064436907364565,0.0,-0.23436487982555748,0.0,141.5,0.6387440370388598,475.5,1.0]},{"name":"Maple tree","children":[217],"extras":{"veldrenEntityKey":"overworld:object:9119380"}},{"mesh":3,"matrix":[0.3079212345809372,0.0,-0.6278977394454747,0.0,0.0,0.6993361551547194,0.0,0.0,0.6278977394454747,0.0,0.3079212345809372,0.0,221.5,5.12292764443507,485.5,1.0]},{"name":"Yew tree","children":[219],"extras":{"veldrenEntityKey":"overworld:object:9119381"}},{"mesh":1,"matrix":[-0.8135779462647712,0.0,0.3176790200044447,0.0,0.0,0.8734008440569468,0.0,0.0,-0.3176790200044447,0.0,-0.8135779462647712,0.0,224.5,5.253092399022005,491.5,1.0]},{"name":"Magic tree","children":[221],"extras":{"veldrenEntityKey":"overworld:object:9119382"}},{"mesh":5,"matrix":[1.2555080156299299,0.0,0.4874382193084644,0.0,0.0,1.346809710001235,0.0,0.0,-0.4874382193084644,0.0,1.2555080156299299,0.0,214.5,5.099167279773308,486.5,1.0]},{"name":"Maple tree","children":[223],"extras":{"veldrenEntityKey":"overworld:object:9119383"}},{"mesh":3,"matrix":[-0.30913746457213526,0.0,-0.627299837322231,0.0,0.0,0.6993361551547194,0.0,0.0,0.627299837322231,0.0,-0.30913746457213526,0.0,227.5,5.151957084966926,483.5,1.0]},{"name":"Yew tree","children":[225],"extras":{"veldrenEntityKey":"overworld:object:9119384"}},{"mesh":1,"matrix":[-0.24532540030603578,0.0,0.8382389172330705,0.0,0.0,0.8734008440569468,0.0,0.0,-0.8382389172330705,0.0,-0.24532540030603578,0.0,219.5,5.254293267663141,495.5,1.0]},{"name":"Magic tree","children":[227],"extras":{"veldrenEntityKey":"overworld:object:9119385"}},{"mesh":5,"matrix":[1.1527485911111415,0.0,-0.6964675732903071,0.0,0.0,1.346809710001235,0.0,0.0,0.6964675732903071,0.0,1.1527485911111415,0.0,216.5,4.837529052878519,479.5,1.0]},{"name":"Maple tree","children":[229],"extras":{"veldrenEntityKey":"overworld:object:9119386"}},{"mesh":3,"matrix":[-0.6855200196888044,0.0,-0.1383233910531654,0.0,0.0,0.6993361551547194,0.0,0.0,0.1383233910531654,0.0,-0.6855200196888044,0.0,230.5,5.200095802594446,490.5,1.0]},{"name":"Yew tree","children":[231],"extras":{"veldrenEntityKey":"overworld:object:9119387"}},{"mesh":1,"matrix":[0.513922987977652,0.0,0.7061955797281014,0.0,0.0,0.8734008440569468,0.0,0.0,-0.7061955797281014,0.0,0.513922987977652,0.0,211.5,5.254293267663141,492.5,1.0]},{"name":"Magic tree","children":[233],"extras":{"veldrenEntityKey":"overworld:object:9119391"}},{"mesh":5,"matrix":[-0.96644271974125,0.0,-0.9380217824830865,0.0,0.0,1.346809710001235,0.0,0.0,0.9380217824830865,0.0,-0.96644271974125,0.0,233.5,5.251377077307288,484.5,1.0]},{"name":"Yew tree","children":[235],"extras":{"veldrenEntityKey":"overworld:object:9119400"}},{"mesh":1,"matrix":[0.3140829350620109,0.0,0.7425203112281401,0.0,0.0,0.8062161637448739,0.0,0.0,-0.7425203112281401,0.0,0.3140829350620109,0.0,242.5,5.5383263842412385,483.5,1.0]},{"name":"Maple tree","children":[237],"extras":{"veldrenEntityKey":"overworld:object:9119402"}},{"mesh":3,"matrix":[-0.6431669489807187,0.0,0.3395814069860078,0.0,0.0,0.7273096013609082,0.0,0.0,-0.3395814069860078,0.0,-0.6431669489807187,0.0,246.5,5.500602053278085,489.5,1.0]},{"name":"Magic tree","children":[239],"extras":{"veldrenEntityKey":"overworld:object:9119404"}},{"mesh":5,"matrix":[-0.7587098182115832,0.0,-1.1800690510734704,0.0,0.0,1.4029267812512864,0.0,0.0,1.1800690510734704,0.0,-0.7587098182115832,0.0,252.5,5.7845483581054475,480.5,1.0]},{"name":"Maple tree","children":[241],"extras":{"veldrenEntityKey":"overworld:object:9119405"}},{"mesh":3,"matrix":[-0.12390719728239012,0.0,0.716677237460062,0.0,0.0,0.7273096013609082,0.0,0.0,-0.716677237460062,0.0,-0.12390719728239012,0.0,239.5,5.31288572828078,489.5,1.0]},{"name":"Magic tree","children":[243],"extras":{"veldrenEntityKey":"overworld:object:9119407"}},{"mesh":5,"matrix":[-1.39779150829233,0.0,-0.11992686478828707,0.0,0.0,1.4029267812512864,0.0,0.0,0.11992686478828707,0.0,-1.39779150829233,0.0,252.5,5.747986775062862,488.5,1.0]},{"name":"Yew tree","children":[245],"extras":{"veldrenEntityKey":"overworld:object:9120281"}},{"mesh":1,"matrix":[0.31801970426752063,0.0,-0.813444836542089,0.0,0.0,0.8734008440569468,0.0,0.0,0.813444836542089,0.0,0.31801970426752063,0.0,144.5,1.1911289386434496,503.5,1.0]},{"name":"Yew tree","children":[247],"extras":{"veldrenEntityKey":"overworld:object:9120284"}},{"mesh":1,"matrix":[-0.4498935030890865,0.0,-0.7486153019259072,0.0,0.0,0.8734008440569468,0.0,0.0,0.7486153019259072,0.0,-0.4498935030890865,0.0,136.5,0.7644592999036188,502.5,1.0]},{"name":"Magic tree","children":[249],"extras":{"veldrenEntityKey":"overworld:object:9120288"}},{"mesh":5,"matrix":[0.8802965645248481,0.0,1.0193009140775657,0.0,0.0,1.346809710001235,0.0,0.0,-1.0193009140775657,0.0,0.8802965645248481,0.0,155.5,1.5294720805695246,494.5,1.0]},{"name":"Magic tree","children":[251],"extras":{"veldrenEntityKey":"overworld:object:9120291"}},{"mesh":5,"matrix":[1.3447456107137048,0.0,-0.07453614841025975,0.0,0.0,1.346809710001235,0.0,0.0,0.07453614841025975,0.0,1.3447456107137048,0.0,154.5,1.6989351916224558,504.5,1.0]},{"name":"Yew tree","children":[253],"extras":{"veldrenEntityKey":"overworld:object:9120300"}},{"mesh":1,"matrix":[-0.7587708781109602,0.0,-0.2724908387711846,0.0,0.0,0.8062161637448739,0.0,0.0,0.2724908387711846,0.0,-0.7587708781109602,0.0,161.5,2.3436779966996495,502.5,1.0]},{"name":"Maple tree","children":[255],"extras":{"veldrenEntityKey":"overworld:object:9120302"}},{"mesh":3,"matrix":[0.18639126557544852,0.0,-0.7030203072095043,0.0,0.0,0.7273096013609082,0.0,0.0,0.7030203072095043,0.0,0.18639126557544852,0.0,165.5,3.497492995752456,507.5,1.0]},{"name":"Magic tree","children":[257],"extras":{"veldrenEntityKey":"overworld:object:9120307"}},{"mesh":5,"matrix":[1.0357720929594794,0.0,-0.9462450660365076,0.0,0.0,1.4029267812512864,0.0,0.0,0.9462450660365076,0.0,1.0357720929594794,0.0,171.5,4.563121369616227,509.5,1.0]},{"name":"Yew tree","children":[259],"extras":{"veldrenEntityKey":"overworld:object:9120309"}},{"mesh":1,"matrix":[0.592680132606916,0.0,0.5465480428073544,0.0,0.0,0.8062161637448739,0.0,0.0,-0.5465480428073544,0.0,0.592680132606916,0.0,172.5,3.2768935402432624,494.5,1.0]},{"name":"Magic tree","children":[261],"extras":{"veldrenEntityKey":"overworld:object:9120320"}},{"mesh":5,"matrix":[1.2724221646782232,0.0,-0.7139683454870603,0.0,0.0,1.4590438525013378,0.0,0.0,0.7139683454870603,0.0,1.2724221646782232,0.0,183.5,5.191590365837505,509.5,1.0]},{"name":"Maple tree","children":[263],"extras":{"veldrenEntityKey":"overworld:object:9120321"}},{"mesh":3,"matrix":[-0.6534899400534786,0.0,-0.15387912534067247,0.0,0.0,0.6713627089485306,0.0,0.0,0.15387912534067247,0.0,-0.6534899400534786,0.0,184.5,5.104408201033267,501.5,1.0]},{"name":"Yew tree","children":[265],"extras":{"veldrenEntityKey":"overworld:object:9120322"}},{"mesh":1,"matrix":[0.47207092827346925,0.0,0.6945699114583863,0.0,0.0,0.8398085039009104,0.0,0.0,-0.6945699114583863,0.0,0.47207092827346925,0.0,190.5,5.251804176034598,511.5,1.0]},{"name":"Magic tree","children":[267],"extras":{"veldrenEntityKey":"overworld:object:9120323"}},{"mesh":5,"matrix":[0.21175769657332247,0.0,-1.443595387033329,0.0,0.0,1.4590438525013378,0.0,0.0,1.443595387033329,0.0,0.21175769657332247,0.0,177.5,5.006860242884128,507.5,1.0]},{"name":"Maple tree","children":[269],"extras":{"veldrenEntityKey":"overworld:object:9120324"}},{"mesh":3,"matrix":[-0.5209531642173332,0.0,0.42348044542653646,0.0,0.0,0.6713627089485306,0.0,0.0,-0.42348044542653646,0.0,-0.5209531642173332,0.0,190.5,5.190800108176758,501.5,1.0]},{"name":"Magic tree","children":[271],"extras":{"veldrenEntityKey":"overworld:object:9120326"}},{"mesh":5,"matrix":[-1.0137687879899164,0.0,-1.0493244531694672,0.0,0.0,1.4590438525013378,0.0,0.0,1.0493244531694672,0.0,-1.0137687879899164,0.0,178.5,4.53884764113554,499.5,1.0]},{"name":"Magic tree","children":[273],"extras":{"veldrenEntityKey":"overworld:object:9120362"}},{"mesh":5,"matrix":[1.0790624153811448,0.0,-0.982055633471829,0.0,0.0,1.4590438525013378,0.0,0.0,0.982055633471829,0.0,1.0790624153811448,0.0,245.5,5.191590365837506,511.5,1.0]},{"name":"Yew tree","children":[275],"extras":{"veldrenEntityKey":"overworld:object:9120364"}},{"mesh":1,"matrix":[0.6162971921746266,0.0,0.5704875933286865,0.0,0.0,0.8398085039009104,0.0,0.0,-0.5704875933286865,0.0,0.6162971921746266,0.0,237.5,5.251804176034599,505.5,1.0]},{"name":"Yew tree","children":[277],"extras":{"veldrenEntityKey":"overworld:object:9120367"}},{"mesh":1,"matrix":[0.8281253863607768,0.0,-0.1395946549445914,0.0,0.0,0.8398085039009104,0.0,0.0,0.1395946549445914,0.0,0.8281253863607768,0.0,246.5,5.251804176034599,505.5,1.0]}],"buffers":[{"uri":"../world-parts/ff205d2d81b65b1f8289b3c274ab2639b15e999e31edabd634dd4e0a3dac7479.bin","byteLength":31152},{"uri":"../world-parts/7e2e11a73c6c1f6b77c7c18c44a87655900818e94c168e7a92bb0a48cc87a1c1.bin","byteLength":46872},{"uri":"../world-parts/8480a643e36c0194bf11e79cbc019e38e5ff72b8bc295b144212e5f7a5b37347.bin","byteLength":64668},{"uri":"../world-parts/133dae8ce562dbc4cbf0d0d2cb7dc4cb2baafed83b6c58ebd4446a3657088e0f.bin","byteLength":180744},{"uri":"../world-parts/cf73d73e4a52b629e942c4cf3ba67a960257f3fda86af0eadf8051aa3c1f7c97.bin","byteLength":133656},{"uri":"../world-parts/883bf022a4c95c0b0a24ce14e7511dc7b18eb62759134961097aa30193af8da4.bin","byteLength":86364},{"uri":"../world-parts/629e78b439d8b314fb62411e16a47eeeaf0f6f78bb3f3150468167c9e9d3eef3.bin","byteLength":92004}],"bufferViews":[{"buffer":0,"byteOffset":0,"byteLength":4248,"target":34962},{"buffer":0,"byteOffset":4248,"byteLength":4248,"target":34962},{"buffer":0,"byteOffset":8496,"byteLength":2832,"target":34962},{"buffer":0,"byteOffset":11328,"byteLength":4248,"target":34962},{"buffer":0,"byteOffset":15576,"byteLength":4248,"target":34962},{"buffer":0,"byteOffset":19824,"byteLength":4248,"target":34962},{"buffer":0,"byteOffset":24072,"byteLength":4248,"target":34962},{"buffer":0,"byteOffset":28320,"byteLength":1416,"target":34962},{"buffer":0,"byteOffset":29736,"byteLength":1272,"target":34963},{"buffer":0,"byteOffset":31008,"byteLength":144,"target":34963},{"buffer":1,"byteOffset":0,"byteLength":5784,"target":34962},{"buffer":1,"byteOffset":5784,"byteLength":5784,"target":34962},{"buffer":1,"byteOffset":11568,"byteLength":3856,"target":34962},{"buffer":1,"byteOffset":15424,"byteLength":5784,"target":34962},{"buffer":1,"byteOffset":21208,"byteLength":5784,"target":34962},{"buffer":1,"byteOffset":26992,"byteLength":5784,"target":34962},{"buffer":1,"byteOffset":32776,"byteLength":5784,"target":34962},{"buffer":1,"byteOffset":38560,"byteLength":1928,"target":34962},{"buffer":1,"byteOffset":40488,"byteLength":1776,"target":34963},{"buffer":1,"byteOffset":42264,"byteLength":4608,"target":34963},{"buffer":2,"byteOffset":0,"byteLength":7860,"target":34962},{"buffer":2,"byteOffset":7860,"byteLength":7860,"target":34962},{"buffer":2,"byteOffset":15720,"byteLength":5240,"target":34962},{"buffer":2,"byteOffset":20960,"byteLength":7860,"target":34962},{"buffer":2,"byteOffset":28820,"byteLength":7860,"target":34962},{"buffer":2,"byteOffset":36680,"byteLength":7860,"target":34962},{"buffer":2,"byteOffset":44540,"byteLength":7860,"target":34962},{"buffer":2,"byteOffset":52400,"byteLength":2620,"target":34962},{"buffer":2,"byteOffset":55020,"byteLength":5328,"target":34963},{"buffer":2,"byteOffset":60348,"byteLength":4320,"target":34963},{"buffer":3,"byteOffset":0,"byteLength":21552,"target":34962},{"buffer":3,"byteOffset":21552,"byteLength":21552,"target":34962},{"buffer":3,"byteOffset":43104,"byteLength":14368,"target":34962},{"buffer":3,"byteOffset":57472,"byteLength":21552,"target":34962},{"buffer":3,"byteOffset":79024,"byteLength":21552,"target":34962},{"buffer":3,"byteOffset":100576,"byteLength":21552,"target":34962},{"buffer":3,"byteOffset":122128,"byteLength":21552,"target":34962},{"buffer":3,"byteOffset":143680,"byteLength":7184,"target":34962},{"buffer":3,"byteOffset":150864,"byteLength":17496,"target":34963},{"buffer":3,"byteOffset":168360,"byteLength":12384,"target":34963},{"buffer":4,"byteOffset":0,"byteLength":15912,"target":34962},{"buffer":4,"byteOffset":15912,"byteLength":15912,"target":34962},{"buffer":4,"byteOffset":31824,"byteLength":10608,"target":34962},{"buffer":4,"byteOffset":42432,"byteLength":15912,"target":34962},{"buffer":4,"byteOffset":58344,"byteLength":15912,"target":34962},{"buffer":4,"byteOffset":74256,"byteLength":15912,"target":34962},{"buffer":4,"byteOffset":90168,"byteLength":15912,"target":34962},{"buffer":4,"byteOffset":106080,"byteLength":5304,"target":34962},{"buffer":4,"byteOffset":111384,"byteLength":10464,"target":34963},{"buffer":4,"byteOffset":121848,"byteLength":11808,"target":34963},{"buffer":5,"byteOffset":0,"byteLength":10260,"target":34962},{"buffer":5,"byteOffset":10260,"byteLength":10260,"target":34962},{"buffer":5,"byteOffset":20520,"byteLength":6840,"target":34962},{"buffer":5,"byteOffset":27360,"byteLength":10260,"target":34962},{"buffer":5,"byteOffset":37620,"byteLength":10260,"target":34962},{"buffer":5,"byteOffset":47880,"byteLength":10260,"target":34962},{"buffer":5,"byteOffset":58140,"byteLength":10260,"target":34962},{"buffer":5,"byteOffset":68400,"byteLength":3420,"target":34962},{"buffer":5,"byteOffset":71820,"byteLength":9072,"target":34963},{"buffer":5,"byteOffset":80892,"byteLength":5472,"target":34963},{"buffer":6,"byteOffset":0,"byteLength":10956,"target":34962},{"buffer":6,"byteOffset":10956,"byteLength":10956,"target":34962},{"buffer":6,"byteOffset":21912,"byteLength":7304,"target":34962},{"buffer":6,"byteOffset":29216,"byteLength":10956,"target":34962},{"buffer":6,"byteOffset":40172,"byteLength":10956,"target":34962},{"buffer":6,"byteOffset":51128,"byteLength":10956,"target":34962},{"buffer":6,"byteOffset":62084,"byteLength":10956,"target":34962},{"buffer":6,"byteOffset":73040,"byteLength":3652,"target":34962},{"buffer":6,"byteOffset":76692,"byteLength":8112,"target":34963},{"buffer":6,"byteOffset":84804,"byteLength":7200,"target":34963}],"accessors":[{"bufferView":0,"componentType":5126,"count":354,"type":"VEC3","min":[219.07000732421875,5.189577102661133,499.07000732421875],"max":[219.92999267578125,8.559576988220215,499.92999267578125]},{"bufferView":1,"componentType":5126,"count":354,"type":"VEC3"},{"bufferView":2,"componentType":5126,"count":354,"type":"VEC2"},{"bufferView":3,"componentType":5126,"count":354,"type":"VEC3"},{"bufferView":4,"componentType":5126,"count":354,"type":"VEC3"},{"bufferView":5,"componentType":5126,"count":354,"type":"VEC3"},{"bufferView":6,"componentType":5126,"count":354,"type":"VEC3"},{"bufferView":7,"componentType":5126,"count":354,"type":"SCALAR"},{"bufferView":8,"componentType":5125,"count":318,"type":"SCALAR"},{"bufferView":9,"componentType":5125,"count":36,"type":"SCALAR"},{"bufferView":10,"componentType":5126,"count":482,"type":"VEC3","min":[-3.7659718990325928,-0.07409700006246567,-3.4778990745544434],"max":[3.116921901702881,8.022987365722656,3.8158159255981445]},{"bufferView":11,"componentType":5126,"count":482,"type":"VEC3"},{"bufferView":12,"componentType":5126,"count":482,"type":"VEC2"},{"bufferView":13,"componentType":5126,"count":482,"type":"VEC3"},{"bufferView":14,"componentType":5126,"count":482,"type":"VEC3"},{"bufferView":15,"componentType":5126,"count":482,"type":"VEC3"},{"bufferView":16,"componentType":5126,"count":482,"type":"VEC3"},{"bufferView":17,"componentType":5126,"count":482,"type":"SCALAR"},{"bufferView":18,"componentType":5125,"count":444,"type":"SCALAR"},{"bufferView":19,"componentType":5125,"count":1152,"type":"SCALAR"},{"bufferView":20,"componentType":5126,"count":655,"type":"VEC3","min":[-2.3328819274902344,0.011172999627888203,-2.0712060928344727],"max":[1.805098056793213,5.555437088012695,2.05914306640625]},{"bufferView":21,"componentType":5126,"count":655,"type":"VEC3"},{"bufferView":22,"componentType":5126,"count":655,"type":"VEC2"},{"bufferView":23,"componentType":5126,"count":655,"type":"VEC3"},{"bufferView":24,"componentType":5126,"count":655,"type":"VEC3"},{"bufferView":25,"componentType":5126,"count":655,"type":"VEC3"},{"bufferView":26,"componentType":5126,"count":655,"type":"VEC3"},{"bufferView":27,"componentType":5126,"count":655,"type":"SCALAR"},{"bufferView":28,"componentType":5125,"count":1332,"type":"SCALAR"},{"bufferView":29,"componentType":5125,"count":1080,"type":"SCALAR"},{"bufferView":30,"componentType":5126,"count":1796,"type":"VEC3","min":[-4.721841812133789,-0.0018220000201836228,-1.3137749433517456],"max":[4.035912990570068,10.293656349182129,3.0319550037384033]},{"bufferView":31,"componentType":5126,"count":1796,"type":"VEC3"},{"bufferView":32,"componentType":5126,"count":1796,"type":"VEC2"},{"bufferView":33,"componentType":5126,"count":1796,"type":"VEC3"},{"bufferView":34,"componentType":5126,"count":1796,"type":"VEC3"},{"bufferView":35,"componentType":5126,"count":1796,"type":"VEC3"},{"bufferView":36,"componentType":5126,"count":1796,"type":"VEC3"},{"bufferView":37,"componentType":5126,"count":1796,"type":"SCALAR"},{"bufferView":38,"componentType":5125,"count":4374,"type":"SCALAR"},{"bufferView":39,"componentType":5125,"count":3096,"type":"SCALAR"},{"bufferView":40,"componentType":5126,"count":1326,"type":"VEC3","min":[-3.6411149501800537,0.011172999627888203,-2.5864460468292236],"max":[3.095597982406616,6.3706889152526855,2.3982579708099365]},{"bufferView":41,"componentType":5126,"count":1326,"type":"VEC3"},{"bufferView":42,"componentType":5126,"count":1326,"type":"VEC2"},{"bufferView":43,"componentType":5126,"count":1326,"type":"VEC3"},{"bufferView":44,"componentType":5126,"count":1326,"type":"VEC3"},{"bufferView":45,"componentType":5126,"count":1326,"type":"VEC3"},{"bufferView":46,"componentType":5126,"count":1326,"type":"VEC3"},{"bufferView":47,"componentType":5126,"count":1326,"type":"SCALAR"},{"bufferView":48,"componentType":5125,"count":2616,"type":"SCALAR"},{"bufferView":49,"componentType":5125,"count":2952,"type":"SCALAR"},{"bufferView":50,"componentType":5126,"count":855,"type":"VEC3","min":[-3.2856340408325195,-0.0013800000306218863,-2.3520750999450684],"max":[0.9950600266456604,4.346673011779785,1.6284259557724]},{"bufferView":51,"componentType":5126,"count":855,"type":"VEC3"},{"bufferView":52,"componentType":5126,"count":855,"type":"VEC2"},{"bufferView":53,"componentType":5126,"count":855,"type":"VEC3"},{"bufferView":54,"componentType":5126,"count":855,"type":"VEC3"},{"bufferView":55,"componentType":5126,"count":855,"type":"VEC3"},{"bufferView":56,"componentType":5126,"count":855,"type":"VEC3"},{"bufferView":57,"componentType":5126,"count":855,"type":"SCALAR"},{"bufferView":58,"componentType":5125,"count":2268,"type":"SCALAR"},{"bufferView":59,"componentType":5125,"count":1368,"type":"SCALAR"},{"bufferView":60,"componentType":5126,"count":913,"type":"VEC3","min":[-2.969912052154541,-0.0013800000306218863,-2.3520750999450684],"max":[3.394526958465576,5.491145133972168,2.5843169689178467]},{"bufferView":61,"componentType":5126,"count":913,"type":"VEC3"},{"bufferView":62,"componentType":5126,"count":913,"type":"VEC2"},{"bufferView":63,"componentType":5126,"count":913,"type":"VEC3"},{"bufferView":64,"componentType":5126,"count":913,"type":"VEC3"},{"bufferView":65,"componentType":5126,"count":913,"type":"VEC3"},{"bufferView":66,"componentType":5126,"count":913,"type":"VEC3"},{"bufferView":67,"componentType":5126,"count":913,"type":"SCALAR"},{"bufferView":68,"componentType":5125,"count":2028,"type":"SCALAR"},{"bufferView":69,"componentType":5125,"count":1800,"type":"SCALAR"}],"meshes":[{"name":"ff205d2d81b65b1f8289b3c274ab2639b15e999e31edabd634dd4e0a3dac7479","primitives":[{"attributes":{"POSITION":0,"NORMAL":1,"TEXCOORD_0":2,"COLOR_0":3,"_VELDREN_NORMAL":4,"_VELDREN_COLOR":5,"_VELDREN_FALLBACK":6,"_VELDREN_MATERIAL":7},"indices":8,"material":0,"extras":{"mixedAtlasFallback":false}},{"attributes":{"POSITION":0,"NORMAL":1,"TEXCOORD_0":2,"COLOR_0":3,"_VELDREN_NORMAL":4,"_VELDREN_COLOR":5,"_VELDREN_FALLBACK":6,"_VELDREN_MATERIAL":7},"indices":9,"material":1,"extras":{"mixedAtlasFallback":false}}]},{"name":"7e2e11a73c6c1f6b77c7c18c44a87655900818e94c168e7a92bb0a48cc87a1c1","primitives":[{"attributes":{"POSITION":10,"NORMAL":11,"TEXCOORD_0":12,"COLOR_0":13,"_VELDREN_NORMAL":14,"_VELDREN_COLOR":15,"_VELDREN_FALLBACK":16,"_VELDREN_MATERIAL":17},"indices":18,"material":2,"extras":{"mixedAtlasFallback":false}},{"attributes":{"POSITION":10,"NORMAL":11,"TEXCOORD_0":12,"COLOR_0":13,"_VELDREN_NORMAL":14,"_VELDREN_COLOR":15,"_VELDREN_FALLBACK":16,"_VELDREN_MATERIAL":17},"indices":19,"material":3,"extras":{"mixedAtlasFallback":false}}]},{"name":"8480a643e36c0194bf11e79cbc019e38e5ff72b8bc295b144212e5f7a5b37347","primitives":[{"attributes":{"POSITION":20,"NORMAL":21,"TEXCOORD_0":22,"COLOR_0":23,"_VELDREN_NORMAL":24,"_VELDREN_COLOR":25,"_VELDREN_FALLBACK":26,"_VELDREN_MATERIAL":27},"indices":28,"material":4,"extras":{"mixedAtlasFallback":false}},{"attributes":{"POSITION":20,"NORMAL":21,"TEXCOORD_0":22,"COLOR_0":23,"_VELDREN_NORMAL":24,"_VELDREN_COLOR":25,"_VELDREN_FALLBACK":26,"_VELDREN_MATERIAL":27},"indices":29,"material":5,"extras":{"mixedAtlasFallback":false}}]},{"name":"133dae8ce562dbc4cbf0d0d2cb7dc4cb2baafed83b6c58ebd4446a3657088e0f","primitives":[{"attributes":{"POSITION":30,"NORMAL":31,"TEXCOORD_0":32,"COLOR_0":33,"_VELDREN_NORMAL":34,"_VELDREN_COLOR":35,"_VELDREN_FALLBACK":36,"_VELDREN_MATERIAL":37},"indices":38,"material":6,"extras":{"mixedAtlasFallback":false}},{"attributes":{"POSITION":30,"NORMAL":31,"TEXCOORD_0":32,"COLOR_0":33,"_VELDREN_NORMAL":34,"_VELDREN_COLOR":35,"_VELDREN_FALLBACK":36,"_VELDREN_MATERIAL":37},"indices":39,"material":7,"extras":{"mixedAtlasFallback":false}}]},{"name":"cf73d73e4a52b629e942c4cf3ba67a960257f3fda86af0eadf8051aa3c1f7c97","primitives":[{"attributes":{"POSITION":40,"NORMAL":41,"TEXCOORD_0":42,"COLOR_0":43,"_VELDREN_NORMAL":44,"_VELDREN_COLOR":45,"_VELDREN_FALLBACK":46,"_VELDREN_MATERIAL":47},"indices":48,"material":8,"extras":{"mixedAtlasFallback":false}},{"attributes":{"POSITION":40,"NORMAL":41,"TEXCOORD_0":42,"COLOR_0":43,"_VELDREN_NORMAL":44,"_VELDREN_COLOR":45,"_VELDREN_FALLBACK":46,"_VELDREN_MATERIAL":47},"indices":49,"material":9,"extras":{"mixedAtlasFallback":false}}]},{"name":"883bf022a4c95c0b0a24ce14e7511dc7b18eb62759134961097aa30193af8da4","primitives":[{"attributes":{"POSITION":50,"NORMAL":51,"TEXCOORD_0":52,"COLOR_0":53,"_VELDREN_NORMAL":54,"_VELDREN_COLOR":55,"_VELDREN_FALLBACK":56,"_VELDREN_MATERIAL":57},"indices":58,"material":10,"extras":{"mixedAtlasFallback":false}},{"attributes":{"POSITION":50,"NORMAL":51,"TEXCOORD_0":52,"COLOR_0":53,"_VELDREN_NORMAL":54,"_VELDREN_COLOR":55,"_VELDREN_FALLBACK":56,"_VELDREN_MATERIAL":57},"indices":59,"material":11,"extras":{"mixedAtlasFallback":false}}]},{"name":"629e78b439d8b314fb62411e16a47eeeaf0f6f78bb3f3150468167c9e9d3eef3","primitives":[{"attributes":{"POSITION":60,"NORMAL":61,"TEXCOORD_0":62,"COLOR_0":63,"_VELDREN_NORMAL":64,"_VELDREN_COLOR":65,"_VELDREN_FALLBACK":66,"_VELDREN_MATERIAL":67},"indices":68,"material":12,"extras":{"mixedAtlasFallback":false}},{"attributes":{"POSITION":60,"NORMAL":61,"TEXCOORD_0":62,"COLOR_0":63,"_VELDREN_NORMAL":64,"_VELDREN_COLOR":65,"_VELDREN_FALLBACK":66,"_VELDREN_MATERIAL":67},"indices":69,"material":13,"extras":{"mixedAtlasFallback":false}}]}],"materials":[{"name":"legacy-material-20","pbrMetallicRoughness":{"baseColorFactor":[1,1,1,1],"metallicFactor":0,"roughnessFactor":1,"baseColorTexture":{"index":0}},"doubleSided":true,"extras":{"legacyMaterial":20,"legacyShader":"dist/renderer-gl.js"}},{"name":"legacy-material-19","pbrMetallicRoughness":{"baseColorFactor":[1,1,1,1],"metallicFactor":0,"roughnessFactor":1},"doubleSided":true,"extras":{"legacyMaterial":19,"legacyShader":"dist/renderer-gl.js","limitation":"Browser procedural material not implemented by this glTF export; source/base attributes retained."}},{"name":"legacy-material-49","pbrMetallicRoughness":{"baseColorFactor":[1,1,1,1],"metallicFactor":0,"roughnessFactor":1,"baseColorTexture":{"index":1}},"doubleSided":true,"extras":{"legacyMaterial":49,"legacyShader":"dist/renderer-gl.js"}},{"name":"legacy-material-54","pbrMetallicRoughness":{"baseColorFactor":[1,1,1,1],"metallicFactor":0,"roughnessFactor":1,"baseColorTexture":{"index":2}},"doubleSided":true,"extras":{"legacyMaterial":54,"legacyShader":"dist/renderer-gl.js"},"alphaMode":"MASK","alphaCutoff":0.45},{"name":"legacy-material-49","pbrMetallicRoughness":{"baseColorFactor":[1,1,1,1],"metallicFactor":0,"roughnessFactor":1,"baseColorTexture":{"index":3}},"doubleSided":true,"extras":{"legacyMaterial":49,"legacyShader":"dist/renderer-gl.js"}},{"name":"legacy-material-50","pbrMetallicRoughness":{"baseColorFactor":[1,1,1,1],"metallicFactor":0,"roughnessFactor":1,"baseColorTexture":{"index":4}},"doubleSided":true,"extras":{"legacyMaterial":50,"legacyShader":"dist/renderer-gl.js"},"alphaMode":"MASK","alphaCutoff":0.45},{"name":"legacy-material-52","pbrMetallicRoughness":{"baseColorFactor":[1,1,1,1],"metallicFactor":0,"roughnessFactor":1,"baseColorTexture":{"index":5}},"doubleSided":true,"extras":{"legacyMaterial":52,"legacyShader":"dist/renderer-gl.js"}},{"name":"legacy-material-53","pbrMetallicRoughness":{"baseColorFactor":[1,1,1,1],"metallicFactor":0,"roughnessFactor":1,"baseColorTexture":{"index":6}},"doubleSided":true,"extras":{"legacyMaterial":53,"legacyShader":"dist/renderer-gl.js"},"alphaMode":"MASK","alphaCutoff":0.45},{"name":"legacy-material-49","pbrMetallicRoughness":{"baseColorFactor":[1,1,1,1],"metallicFactor":0,"roughnessFactor":1,"baseColorTexture":{"index":7}},"doubleSided":true,"extras":{"legacyMaterial":49,"legacyShader":"dist/renderer-gl.js"}},{"name":"legacy-material-50","pbrMetallicRoughness":{"baseColorFactor":[1,1,1,1],"metallicFactor":0,"roughnessFactor":1,"baseColorTexture":{"index":8}},"doubleSided":true,"extras":{"legacyMaterial":50,"legacyShader":"dist/renderer-gl.js"},"alphaMode":"MASK","alphaCutoff":0.45},{"name":"legacy-material-49","pbrMetallicRoughness":{"baseColorFactor":[1,1,1,1],"metallicFactor":0,"roughnessFactor":1,"baseColorTexture":{"index":9}},"doubleSided":true,"extras":{"legacyMaterial":49,"legacyShader":"dist/renderer-gl.js"}},{"name":"legacy-material-55","pbrMetallicRoughness":{"baseColorFactor":[1,1,1,1],"metallicFactor":0,"roughnessFactor":1,"baseColorTexture":{"index":10}},"doubleSided":true,"extras":{"legacyMaterial":55,"legacyShader":"dist/renderer-gl.js"},"alphaMode":"MASK","alphaCutoff":0.45},{"name":"legacy-material-49","pbrMetallicRoughness":{"baseColorFactor":[1,1,1,1],"metallicFactor":0,"roughnessFactor":1,"baseColorTexture":{"index":11}},"doubleSided":true,"extras":{"legacyMaterial":49,"legacyShader":"dist/renderer-gl.js"}},{"name":"legacy-material-51","pbrMetallicRoughness":{"baseColorFactor":[1,1,1,1],"metallicFactor":0,"roughnessFactor":1,"baseColorTexture":{"index":12}},"doubleSided":true,"extras":{"legacyMaterial":51,"legacyShader":"dist/renderer-gl.js"},"alphaMode":"MASK","alphaCutoff":0.45}],"images":[{"name":"atlas-00","uri":"../../textures/atlas/tile-00.png"},{"name":"atlas-29","uri":"../../textures/atlas/tile-29.png"},{"name":"atlas-34","uri":"../../textures/atlas/tile-34.png"},{"name":"atlas-29","uri":"../../textures/atlas/tile-29.png"},{"name":"atlas-30","uri":"../../textures/atlas/tile-30.png"},{"name":"atlas-32","uri":"../../textures/atlas/tile-32.png"},{"name":"atlas-33","uri":"../../textures/atlas/tile-33.png"},{"name":"atlas-29","uri":"../../textures/atlas/tile-29.png"},{"name":"atlas-30","uri":"../../textures/atlas/tile-30.png"},{"name":"atlas-29","uri":"../../textures/atlas/tile-29.png"},{"name":"atlas-35","uri":"../../textures/atlas/tile-35.png"},{"name":"atlas-29","uri":"../../textures/atlas/tile-29.png"},{"name":"atlas-31","uri":"../../textures/atlas/tile-31.png"}],"textures":[{"source":0,"sampler":0},{"source":1,"sampler":1},{"source":2,"sampler":1},{"source":3,"sampler":2},{"source":4,"sampler":2},{"source":5,"sampler":3},{"source":6,"sampler":3},{"source":7,"sampler":4},{"source":8,"sampler":4},{"source":9,"sampler":5},{"source":10,"sampler":5},{"source":11,"sampler":6},{"source":12,"sampler":6}],"samplers":[{"magFilter":9729,"minFilter":9729,"wrapS":10497,"wrapT":10497},{"magFilter":9729,"minFilter":9729,"wrapS":10497,"wrapT":10497},{"magFilter":9729,"minFilter":9729,"wrapS":10497,"wrapT":10497},{"magFilter":9729,"minFilter":9729,"wrapS":10497,"wrapT":10497},{"magFilter":9729,"minFilter":9729,"wrapS":10497,"wrapT":10497},{"magFilter":9729,"minFilter":9729,"wrapS":10497,"wrapT":10497},{"magFilter":9729,"minFilter":9729,"wrapS":10497,"wrapT":10497}]}
