{"asset":{"version":"2.0","generator":"Veldren static world recovery"},"scene":0,"scenes":[{"nodes":[0,2,4,6,8,10,12,14,16,18,20,22,24,26,28,30,32,34,36,38,40,42,44,46,48,50,52,54,56,58,60,62,64,66,68,70,72,74,76,78,80,82,84,86,88,90,92,94,96,98,100,102,104,106,108,110,112,114,116,118,120,122,124,126,128,130,132,134,136,138,140,142,144,146,148,150,152,154,156,158,160,162,164,166,168,170,172,174,176,178,180,182,184,186,188,190,192,194,196,198,200,202,204,206,208,210,212,214,216,218,220,222,224,226,228,230,232,234,236,238,240,242,244,246,248,250,252,254,256,258,260,262,264,266,268,270,272,274,276,278,280]}],"extras":{"sourceScene":"overworld","notVervesisScene":true,"gameplayIdentityExternal":true,"limitations":["Terrain stored separately.","Dynamic actors, fires, gates, crops, fish, effects and ground cover are not baked.","Roofs are closed; browser procedural materials require native support."]},"nodes":[{"name":"Tree","children":[1],"extras":{"veldrenEntityKey":"overworld:object:707"}},{"mesh":0,"matrix":[0.7353680297710948,0.0,0.28271492721577524,0.0,0.0,0.7878412716277581,0.0,0.0,-0.28271492721577524,0.0,0.7353680297710948,0.0,183.5,3.52687606804321,264.5,1.0]},{"name":"Oak tree","children":[3],"extras":{"veldrenEntityKey":"overworld:object:708"}},{"mesh":1,"matrix":[-0.40976412485169333,0.0,-0.8246281950967485,0.0,0.0,0.9208247923269633,0.0,0.0,0.8246281950967485,0.0,-0.40976412485169333,0.0,204.5,2.88039100372115,264.5,1.0]},{"name":"Tree","children":[5],"extras":{"veldrenEntityKey":"overworld:object:727"}},{"mesh":0,"matrix":[-0.6687308445732296,0.0,0.35590087207151744,0.0,0.0,0.7575396842574597,0.0,0.0,-0.35590087207151744,0.0,-0.6687308445732296,0.0,141.5,5.013974007077331,285.5,1.0]},{"name":"Willow tree","children":[7],"extras":{"veldrenEntityKey":"overworld:object:728"}},{"mesh":2,"matrix":[0.8798210795417477,0.0,0.2279527545661184,0.0,0.0,0.9088716027692181,0.0,0.0,-0.2279527545661184,0.0,0.8798210795417477,0.0,183.5,2.885553865447071,285.5,1.0]},{"name":"Tree","children":[9],"extras":{"veldrenEntityKey":"overworld:object:729"}},{"mesh":0,"matrix":[-0.39530711691222864,0.0,-0.6104158687997895,0.0,0.0,0.7272380968871612,0.0,0.0,0.6104158687997895,0.0,-0.39530711691222864,0.0,240.5,0.5861397564588072,285.5,1.0]},{"name":"Willow tree","children":[11],"extras":{"veldrenEntityKey":"overworld:object:747"}},{"mesh":2,"matrix":[0.18767486589624047,0.0,-0.8176975883115232,0.0,0.0,0.8389584025562012,0.0,0.0,0.8176975883115232,0.0,0.18767486589624047,0.0,141.5,4.955296038441414,306.5,1.0]},{"name":"Tree","children":[13],"extras":{"veldrenEntityKey":"overworld:object:748"}},{"mesh":0,"matrix":[-0.6241124800922832,0.0,0.42935997183942426,0.0,0.0,0.7575396842574597,0.0,0.0,-0.42935997183942426,0.0,-0.6241124800922832,0.0,204.5,0.9688917442230658,306.5,1.0]},{"name":"Willow tree","children":[15],"extras":{"veldrenEntityKey":"overworld:object:749"}},{"mesh":2,"matrix":[0.8999794718146452,0.0,0.12682484233193242,0.0,0.0,0.9088716027692181,0.0,0.0,-0.12682484233193242,0.0,0.8999794718146452,0.0,244.5,0.0012542428118215208,310.5,1.0]},{"name":"Oak tree","children":[17],"extras":{"veldrenEntityKey":"overworld:object:766"}},{"mesh":1,"matrix":[-0.9405078664087863,0.0,-0.18840167182452933,0.0,0.0,0.9591924920072534,0.0,0.0,0.18840167182452933,0.0,-0.9405078664087863,0.0,191.5,0.6894624511290407,327.5,1.0]},{"name":"Willow tree","children":[19],"extras":{"veldrenEntityKey":"overworld:object:767"}},{"mesh":2,"matrix":[0.5358250414717655,0.0,0.7341247273127831,0.0,0.0,0.9088716027692181,0.0,0.0,-0.7341247273127831,0.0,0.5358250414717655,0.0,204.5,0.435553741978302,327.5,1.0]},{"name":"Tree","children":[21],"extras":{"veldrenEntityKey":"overworld:object:783"}},{"mesh":0,"matrix":[0.7036469223814049,0.0,0.1837287625475042,0.0,0.0,0.7272380968871612,0.0,0.0,-0.1837287625475042,0.0,0.7036469223814049,0.0,137.5,0.6012852383892493,350.5,1.0]},{"name":"Willow tree","children":[23],"extras":{"veldrenEntityKey":"overworld:object:784"}},{"mesh":2,"matrix":[-0.4736484609744681,0.0,-0.7344280545400492,0.0,0.0,0.8739150026627096,0.0,0.0,0.7344280545400492,0.0,-0.4736484609744681,0.0,137.5,0.5993094013934886,355.5,1.0]},{"name":"Maple tree","children":[25],"extras":{"veldrenEntityKey":"overworld:object:785"}},{"mesh":3,"matrix":[-0.12290158798705443,0.0,0.7168503720456756,0.0,0.0,0.7273096013609082,0.0,0.0,-0.7168503720456756,0.0,-0.12290158798705443,0.0,197.5,0.6236158843050854,348.5,1.0]},{"name":"Yew tree","children":[27],"extras":{"veldrenEntityKey":"overworld:object:786"}},{"mesh":4,"matrix":[0.6376907078418999,0.0,-0.4932900402558297,0.0,0.0,0.8062161637448739,0.0,0.0,0.4932900402558297,0.0,0.6376907078418999,0.0,204.5,0.3024619221401647,348.5,1.0]},{"name":"Willow tree","children":[29],"extras":{"veldrenEntityKey":"overworld:object:806"}},{"mesh":2,"matrix":[-0.05112273830006866,0.0,0.9074326729565064,0.0,0.0,0.9088716027692181,0.0,0.0,-0.9074326729565064,0.0,-0.05112273830006866,0.0,139.5,0.6497916224620814,373.5,1.0]},{"name":"Willow tree","children":[31],"extras":{"veldrenEntityKey":"overworld:object:808"}},{"mesh":2,"matrix":[-0.873539067299769,0.0,0.025630641428048984,0.0,0.0,0.8739150026627096,0.0,0.0,-0.025630641428048984,0.0,-0.873539067299769,0.0,225.5,0.0012060027036745393,369.5,1.0]},{"name":"Maple tree","children":[33],"extras":{"veldrenEntityKey":"overworld:object:809"}},{"mesh":3,"matrix":[0.5500154673718006,0.0,0.4758804911777145,0.0,0.0,0.7273096013609082,0.0,0.0,-0.4758804911777145,0.0,0.5500154673718006,0.0,246.5,0.0013251580936795746,369.5,1.0]},{"name":"Old-growth oak","children":[35],"extras":{"veldrenEntityKey":"overworld:object:6803879"}},{"mesh":0,"matrix":[-0.7730801932610134,0.0,-0.1517922398133617,0.0,0.0,0.7878412716277581,0.0,0.0,0.1517922398133617,0.0,-0.7730801932610134,0.0,134.5,4.6943703701292145,257.5,1.0]},{"name":"Old-growth oak","children":[37],"extras":{"veldrenEntityKey":"overworld:object:6803891"}},{"mesh":0,"matrix":[0.7479000592042689,0.0,-0.24766786372538088,0.0,0.0,0.7878412716277581,0.0,0.0,0.24766786372538088,0.0,0.7479000592042689,0.0,225.5,3.1747424649182405,256.5,1.0]},{"name":"Old-growth oak","children":[39],"extras":{"veldrenEntityKey":"overworld:object:6804018"}},{"mesh":0,"matrix":[-0.7031128340630843,0.0,0.18576219243925204,0.0,0.0,0.7272380968871612,0.0,0.0,-0.18576219243925204,0.0,-0.7031128340630843,0.0,138.5,4.770700354454997,263.5,1.0]},{"name":"Old-growth oak","children":[41],"extras":{"veldrenEntityKey":"overworld:object:6804019"}},{"mesh":0,"matrix":[0.670425247584923,0.0,0.35269868248348535,0.0,0.0,0.7575396842574597,0.0,0.0,-0.35269868248348535,0.0,0.670425247584923,0.0,148.5,4.541822965989093,264.5,1.0]},{"name":"Old-growth oak","children":[43],"extras":{"veldrenEntityKey":"overworld:object:6804028"}},{"mesh":0,"matrix":[-0.4800681483333758,0.0,-0.5860042202754648,0.0,0.0,0.7575396842574597,0.0,0.0,0.5860042202754648,0.0,-0.4800681483333758,0.0,221.5,2.3180475607981004,265.5,1.0]},{"name":"Old-growth oak","children":[45],"extras":{"veldrenEntityKey":"overworld:object:6804030"}},{"mesh":0,"matrix":[0.521096744470145,0.0,-0.5072804278371841,0.0,0.0,0.7272380968871612,0.0,0.0,0.5072804278371841,0.0,0.521096744470145,0.0,239.5,2.1474802917518576,261.5,1.0]},{"name":"Old-growth oak","children":[47],"extras":{"veldrenEntityKey":"overworld:object:6804031"}},{"mesh":0,"matrix":[-0.7572129542241522,0.0,0.022246689192408218,0.0,0.0,0.7575396842574597,0.0,0.0,-0.022246689192408218,0.0,-0.7572129542241522,0.0,240.5,1.7844567283548682,267.5,1.0]},{"name":"Old-growth oak","children":[49],"extras":{"veldrenEntityKey":"overworld:object:6804155"}},{"mesh":0,"matrix":[0.46087783327047543,0.0,0.6389722154209483,0.0,0.0,0.7878412716277581,0.0,0.0,-0.6389722154209483,0.0,0.46087783327047543,0.0,135.5,5.069231942687156,273.5,1.0]},{"name":"Old-growth oak","children":[51],"extras":{"veldrenEntityKey":"overworld:object:6804168"}},{"mesh":0,"matrix":[0.2804773102833388,0.0,0.6709752066807564,0.0,0.0,0.7272380968871612,0.0,0.0,-0.6709752066807564,0.0,0.2804773102833388,0.0,238.5,1.357094710718294,272.5,1.0]},{"name":"Old-growth oak","children":[53],"extras":{"veldrenEntityKey":"overworld:object:6804294"}},{"mesh":0,"matrix":[0.6403773649164182,0.0,0.344662269572352,0.0,0.0,0.7272380968871612,0.0,0.0,-0.344662269572352,0.0,0.6403773649164182,0.0,137.5,5.124373562694528,280.5,1.0]},{"name":"Old-growth oak","children":[55],"extras":{"veldrenEntityKey":"overworld:object:6804303"}},{"mesh":0,"matrix":[-0.45552458078346386,0.0,-0.5668973503784522,0.0,0.0,0.7272380968871612,0.0,0.0,0.5668973503784522,0.0,-0.45552458078346386,0.0,215.5,1.709148125175956,278.5,1.0]},{"name":"Old-growth oak","children":[57],"extras":{"veldrenEntityKey":"overworld:object:6804306"}},{"mesh":0,"matrix":[-0.7270939022420162,0.0,0.014481259839446163,0.0,0.0,0.7272380968871612,0.0,0.0,-0.014481259839446163,0.0,-0.7270939022420162,0.0,238.5,0.946225333959247,278.5,1.0]},{"name":"Old-growth oak","children":[59],"extras":{"veldrenEntityKey":"overworld:object:6804431"}},{"mesh":0,"matrix":[0.09993121431476111,0.0,-0.7814778446543575,0.0,0.0,0.7878412716277581,0.0,0.0,0.7814778446543575,0.0,0.09993121431476111,0.0,132.5,5.4623241621842675,289.5,1.0]},{"name":"Old-growth oak","children":[61],"extras":{"veldrenEntityKey":"overworld:object:6804439"}},{"mesh":0,"matrix":[-0.16181130980802874,0.0,-0.7400563986907361,0.0,0.0,0.7575396842574597,0.0,0.0,0.7400563986907361,0.0,-0.16181130980802874,0.0,195.5,2.2973219520866013,284.5,1.0]},{"name":"Old-growth oak","children":[63],"extras":{"veldrenEntityKey":"overworld:object:6804440"}},{"mesh":0,"matrix":[-0.39646570691897337,0.0,0.6808148151423274,0.0,0.0,0.7878412716277581,0.0,0.0,-0.6808148151423274,0.0,-0.39646570691897337,0.0,203.5,1.6856787614364093,289.5,1.0]},{"name":"Old-growth oak","children":[65],"extras":{"veldrenEntityKey":"overworld:object:6804441"}},{"mesh":0,"matrix":[0.6945697066105495,0.0,-0.21551838024399517,0.0,0.0,0.7272380968871612,0.0,0.0,0.21551838024399517,0.0,0.6945697066105495,0.0,215.5,1.3236074798436266,285.5,1.0]},{"name":"Old-growth oak","children":[67],"extras":{"veldrenEntityKey":"overworld:object:6804443"}},{"mesh":0,"matrix":[0.29696255220583356,0.0,0.729730848921327,0.0,0.0,0.7878412716277581,0.0,0.0,-0.729730848921327,0.0,0.29696255220583356,0.0,230.5,0.5230315831617561,289.5,1.0]},{"name":"Old-growth oak","children":[69],"extras":{"veldrenEntityKey":"overworld:object:6804444"}},{"mesh":0,"matrix":[0.2535383532756194,0.0,-0.6816109982844667,0.0,0.0,0.7272380968871612,0.0,0.0,0.6816109982844667,0.0,0.2535383532756194,0.0,236.5,0.5021261078807987,286.5,1.0]},{"name":"Old-growth oak","children":[71],"extras":{"veldrenEntityKey":"overworld:object:6804570"}},{"mesh":0,"matrix":[-0.23220958375603593,0.0,-0.6891690349804674,0.0,0.0,0.7272380968871612,0.0,0.0,0.6891690349804674,0.0,-0.23220958375603593,0.0,140.5,5.127640661059726,296.5,1.0]},{"name":"Old-growth oak","children":[73],"extras":{"veldrenEntityKey":"overworld:object:6804571"}},{"mesh":0,"matrix":[-0.30723261573515537,0.0,0.6924409671975121,0.0,0.0,0.7575396842574597,0.0,0.0,-0.6924409671975121,0.0,-0.30723261573515537,0.0,150.5,4.573156618702782,295.5,1.0]},{"name":"Old-growth oak","children":[75],"extras":{"veldrenEntityKey":"overworld:object:6804572"}},{"mesh":0,"matrix":[0.7223554084748507,0.0,-0.31447819181490866,0.0,0.0,0.7878412716277581,0.0,0.0,0.31447819181490866,0.0,0.7223554084748507,0.0,153.5,4.420913848178114,291.5,1.0]},{"name":"Old-growth oak","children":[77],"extras":{"veldrenEntityKey":"overworld:object:6804576"}},{"mesh":0,"matrix":[-0.607578208214304,0.0,0.39965481414234966,0.0,0.0,0.7272380968871612,0.0,0.0,-0.39965481414234966,0.0,-0.607578208214304,0.0,191.5,2.107969312318697,295.5,1.0]},{"name":"Old-growth oak","children":[79],"extras":{"veldrenEntityKey":"overworld:object:6804579"}},{"mesh":0,"matrix":[-0.05460361822931008,0.0,0.7251852828348959,0.0,0.0,0.7272380968871612,0.0,0.0,-0.7251852828348959,0.0,-0.05460361822931008,0.0,213.5,0.9249241685119647,295.5,1.0]},{"name":"Old-growth oak","children":[81],"extras":{"veldrenEntityKey":"overworld:object:6804582"}},{"mesh":0,"matrix":[0.540882119688028,0.0,0.48612938829682567,0.0,0.0,0.7272380968871612,0.0,0.0,-0.48612938829682567,0.0,0.540882119688028,0.0,235.5,0.09310749691251742,294.5,1.0]},{"name":"Old-growth oak","children":[83],"extras":{"veldrenEntityKey":"overworld:object:6804583"}},{"mesh":0,"matrix":[-0.07266325359046759,0.0,-0.7540466993512663,0.0,0.0,0.7575396842574597,0.0,0.0,0.7540466993512663,0.0,-0.07266325359046759,0.0,239.5,-0.008463990892208598,295.5,1.0]},{"name":"Old-growth oak","children":[85],"extras":{"veldrenEntityKey":"overworld:object:6804709"}},{"mesh":0,"matrix":[-0.5312374847047617,0.0,-0.5400491718996056,0.0,0.0,0.7575396842574597,0.0,0.0,0.5400491718996056,0.0,-0.5312374847047617,0.0,149.5,4.602365755761996,301.5,1.0]},{"name":"Old-growth oak","children":[87],"extras":{"veldrenEntityKey":"overworld:object:6804710"}},{"mesh":0,"matrix":[0.027238409077995424,0.0,0.7873702676320351,0.0,0.0,0.7878412716277581,0.0,0.0,-0.7873702676320351,0.0,0.027238409077995424,0.0,153.5,3.637204371713311,305.5,1.0]},{"name":"Old-growth oak","children":[89],"extras":{"veldrenEntityKey":"overworld:object:6804712"}},{"mesh":0,"matrix":[-0.7520745708740103,0.0,0.09083068352470408,0.0,0.0,0.7575396842574597,0.0,0.0,-0.09083068352470408,0.0,-0.7520745708740103,0.0,170.5,2.322249159085374,301.5,1.0]},{"name":"Old-growth oak","children":[91],"extras":{"veldrenEntityKey":"overworld:object:6804713"}},{"mesh":0,"matrix":[0.6401059767038566,0.0,0.45930187008986234,0.0,0.0,0.7878412716277581,0.0,0.0,-0.45930187008986234,0.0,0.6401059767038566,0.0,180.5,1.4478975674086678,305.5,1.0]},{"name":"Old-growth oak","children":[93],"extras":{"veldrenEntityKey":"overworld:object:6804714"}},{"mesh":0,"matrix":[-0.14861306545058084,0.0,-0.71189142875964,0.0,0.0,0.7272380968871612,0.0,0.0,0.71189142875964,0.0,-0.14861306545058084,0.0,190.5,2.0060081708562256,300.5,1.0]},{"name":"Old-growth oak","children":[95],"extras":{"veldrenEntityKey":"overworld:object:6804717"}},{"mesh":0,"matrix":[-0.6544659635172205,0.0,-0.3170954937578526,0.0,0.0,0.7272380968871612,0.0,0.0,0.3170954937578526,0.0,-0.6544659635172205,0.0,212.5,0.7203029573303938,301.5,1.0]},{"name":"Old-growth oak","children":[97],"extras":{"veldrenEntityKey":"overworld:object:6804718"}},{"mesh":0,"matrix":[0.27889242910714923,0.0,0.7043332919943551,0.0,0.0,0.7575396842574597,0.0,0.0,-0.7043332919943551,0.0,0.27889242910714923,0.0,218.5,0.47084141248149836,300.5,1.0]},{"name":"Old-growth oak","children":[99],"extras":{"veldrenEntityKey":"overworld:object:6804720"}},{"mesh":0,"matrix":[-0.6507903765900812,0.0,0.32457223433590304,0.0,0.0,0.7272380968871612,0.0,0.0,-0.32457223433590304,0.0,-0.6507903765900812,0.0,233.5,-0.008125431256520254,301.5,1.0]},{"name":"Old-growth oak","children":[101],"extras":{"veldrenEntityKey":"overworld:object:6804722"}},{"mesh":0,"matrix":[-0.4106161806318634,0.0,-0.6723750601289014,0.0,0.0,0.7878412716277581,0.0,0.0,0.6723750601289014,0.0,-0.4106161806318634,0.0,254.5,-0.00880255052789694,311.5,1.0]},{"name":"Old-growth oak","children":[103],"extras":{"veldrenEntityKey":"overworld:object:6804846"}},{"mesh":0,"matrix":[-0.30121667433233634,0.0,0.6619242892266664,0.0,0.0,0.7272380968871612,0.0,0.0,-0.6619242892266664,0.0,-0.30121667433233634,0.0,143.5,3.4597283092729083,312.5,1.0]},{"name":"Old-growth oak","children":[105],"extras":{"veldrenEntityKey":"overworld:object:6804852"}},{"mesh":0,"matrix":[0.7167273908274289,0.0,0.12319536030941305,0.0,0.0,0.7272380968871612,0.0,0.0,-0.12319536030941305,0.0,0.7167273908274289,0.0,189.5,1.7265513153766288,312.5,1.0]},{"name":"Old-growth oak","children":[107],"extras":{"veldrenEntityKey":"overworld:object:6804853"}},{"mesh":0,"matrix":[-0.46325120309262624,0.0,-0.5993869335063337,0.0,0.0,0.7575396842574597,0.0,0.0,0.5993869335063337,0.0,-0.46325120309262624,0.0,194.5,1.4250966794661857,311.5,1.0]},{"name":"Old-growth oak","children":[109],"extras":{"veldrenEntityKey":"overworld:object:6804855"}},{"mesh":0,"matrix":[0.5352775374336046,0.0,-0.4922938223084625,0.0,0.0,0.7272380968871612,0.0,0.0,0.4922938223084625,0.0,0.5352775374336046,0.0,210.5,0.4712169337322547,311.5,1.0]},{"name":"Old-growth oak","children":[111],"extras":{"veldrenEntityKey":"overworld:object:6804856"}},{"mesh":0,"matrix":[-0.7575393058752744,0.0,0.0007571518336049945,0.0,0.0,0.7575396842574597,0.0,0.0,-0.0007571518336049945,0.0,-0.7575393058752744,0.0,220.5,-0.008463990892208598,312.5,1.0]},{"name":"Old-growth oak","children":[113],"extras":{"veldrenEntityKey":"overworld:object:6804983"}},{"mesh":0,"matrix":[0.7864004392325572,0.0,0.04762581710463264,0.0,0.0,0.7878412716277581,0.0,0.0,-0.04762581710463264,0.0,0.7864004392325572,0.0,130.5,4.758886895742404,321.5,1.0]},{"name":"Old-growth oak","children":[115],"extras":{"veldrenEntityKey":"overworld:object:6804985"}},{"mesh":0,"matrix":[0.019029751150137622,0.0,0.7573006284138787,0.0,0.0,0.7575396842574597,0.0,0.0,-0.7573006284138787,0.0,0.019029751150137622,0.0,146.5,1.7813400868900962,318.5,1.0]},{"name":"Old-growth oak","children":[117],"extras":{"veldrenEntityKey":"overworld:object:6804991"}},{"mesh":0,"matrix":[0.7276267159676321,0.0,-0.21077413369540995,0.0,0.0,0.7575396842574597,0.0,0.0,0.21077413369540995,0.0,0.7276267159676321,0.0,195.5,1.202304634989162,317.5,1.0]},{"name":"Old-growth oak","children":[119],"extras":{"veldrenEntityKey":"overworld:object:6804992"}},{"mesh":0,"matrix":[-0.7057243788104088,0.0,-0.3502098948240977,0.0,0.0,0.7878412716277581,0.0,0.0,0.3502098948240977,0.0,-0.7057243788104088,0.0,207.5,0.3713417011819631,321.5,1.0]},{"name":"Old-growth oak","children":[121],"extras":{"veldrenEntityKey":"overworld:object:6804993"}},{"mesh":0,"matrix":[0.26133023756868085,0.0,0.678661739378578,0.0,0.0,0.7272380968871612,0.0,0.0,-0.678661739378578,0.0,0.26133023756868085,0.0,209.5,0.38190251416811155,316.5,1.0]},{"name":"Old-growth oak","children":[123],"extras":{"veldrenEntityKey":"overworld:object:6805129"}},{"mesh":0,"matrix":[-0.07115578648670805,0.0,0.7541904449635712,0.0,0.0,0.7575396842574597,0.0,0.0,-0.7541904449635712,0.0,-0.07115578648670805,0.0,197.5,0.8555414229049974,327.5,1.0]},{"name":"Old-growth oak","children":[125],"extras":{"veldrenEntityKey":"overworld:object:6805131"}},{"mesh":0,"matrix":[-0.7272120859875455,0.0,-0.006150736354531483,0.0,0.0,0.7272380968871612,0.0,0.0,0.006150736354531483,0.0,-0.7272120859875455,0.0,209.5,0.12563901686519324,328.5,1.0]},{"name":"Old-growth oak","children":[127],"extras":{"veldrenEntityKey":"overworld:object:6805267"}},{"mesh":0,"matrix":[-0.6753661966674772,0.0,-0.3431426432604934,0.0,0.0,0.7575396842574597,0.0,0.0,0.3431426432604934,0.0,-0.6753661966674772,0.0,198.5,0.6797810989735839,334.5,1.0]},{"name":"Old-growth oak","children":[129],"extras":{"veldrenEntityKey":"overworld:object:6805268"}},{"mesh":0,"matrix":[0.276142067588562,0.0,0.737861387923204,0.0,0.0,0.7878412716277581,0.0,0.0,-0.737861387923204,0.0,0.276142067588562,0.0,204.5,0.28945527639525503,337.5,1.0]},{"name":"Old-growth oak","children":[131],"extras":{"veldrenEntityKey":"overworld:object:6805405"}},{"mesh":0,"matrix":[0.5671799268495245,0.0,-0.5021686009736768,0.0,0.0,0.7575396842574597,0.0,0.0,0.5021686009736768,0.0,0.5671799268495245,0.0,199.5,0.5344280023780493,342.5,1.0]},{"name":"Old-growth oak","children":[133],"extras":{"veldrenEntityKey":"overworld:object:6805407"}},{"mesh":0,"matrix":[0.5268739435481341,0.0,0.5012774652566158,0.0,0.0,0.7272380968871612,0.0,0.0,-0.5012774652566158,0.0,0.5268739435481341,0.0,212.5,-0.008125431256520254,344.5,1.0]},{"name":"Old-growth oak","children":[135],"extras":{"veldrenEntityKey":"overworld:object:6805408"}},{"mesh":0,"matrix":[-0.05124324619213532,0.0,-0.7558045401719838,0.0,0.0,0.7575396842574597,0.0,0.0,0.7558045401719838,0.0,-0.05124324619213532,0.0,222.5,-0.008463990892208598,343.5,1.0]},{"name":"Old-growth oak","children":[137],"extras":{"veldrenEntityKey":"overworld:object:6805410"}},{"mesh":0,"matrix":[0.7187086682815702,0.0,-0.1110544897831325,0.0,0.0,0.7272380968871612,0.0,0.0,0.1110544897831325,0.0,0.7187086682815702,0.0,238.5,-0.008125431256520254,344.5,1.0]},{"name":"Old-growth oak","children":[139],"extras":{"veldrenEntityKey":"overworld:object:6805411"}},{"mesh":0,"matrix":[-0.6297714598734339,0.0,-0.42101577352134384,0.0,0.0,0.7575396842574597,0.0,0.0,0.42101577352134384,0.0,-0.6297714598734339,0.0,243.5,-0.008463990892208598,343.5,1.0]},{"name":"Old-growth oak","children":[141],"extras":{"veldrenEntityKey":"overworld:object:6805412"}},{"mesh":0,"matrix":[0.18644384901572894,0.0,0.7654623181086336,0.0,0.0,0.7878412716277581,0.0,0.0,-0.7654623181086336,0.0,0.18644384901572894,0.0,251.5,-0.00880255052789694,339.5,1.0]},{"name":"Old-growth oak","children":[143],"extras":{"veldrenEntityKey":"overworld:object:6805544"}},{"mesh":0,"matrix":[0.30239677782280106,0.0,-0.7274957443466116,0.0,0.0,0.7878412716277581,0.0,0.0,0.7274957443466116,0.0,0.30239677782280106,0.0,201.5,0.3901298965253417,353.5,1.0]},{"name":"Old-growth oak","children":[145],"extras":{"veldrenEntityKey":"overworld:object:6805546"}},{"mesh":0,"matrix":[0.7218156333453936,0.0,0.2298881569004372,0.0,0.0,0.7575396842574597,0.0,0.0,-0.2298881569004372,0.0,0.7218156333453936,0.0,220.5,-0.008463990892208598,350.5,1.0]},{"name":"Old-growth oak","children":[147],"extras":{"veldrenEntityKey":"overworld:object:6805547"}},{"mesh":0,"matrix":[-0.39137702236638755,0.0,-0.6837528030243555,0.0,0.0,0.7878412716277581,0.0,0.0,0.6837528030243555,0.0,-0.39137702236638755,0.0,226.5,-0.00880255052789694,353.5,1.0]},{"name":"Old-growth oak","children":[149],"extras":{"veldrenEntityKey":"overworld:object:6805549"}},{"mesh":0,"matrix":[0.6228686198432163,0.0,-0.431162446926328,0.0,0.0,0.7575396842574597,0.0,0.0,0.431162446926328,0.0,0.6228686198432163,0.0,242.5,-0.008463990892208598,349.5,1.0]},{"name":"Old-growth oak","children":[151],"extras":{"veldrenEntityKey":"overworld:object:6805550"}},{"mesh":0,"matrix":[-0.7804478238482139,0.0,-0.10768037672032049,0.0,0.0,0.7878412716277581,0.0,0.0,0.10768037672032049,0.0,-0.7804478238482139,0.0,252.5,-0.00880255052789694,353.5,1.0]},{"name":"Old-growth oak","children":[153],"extras":{"veldrenEntityKey":"overworld:object:6805683"}},{"mesh":0,"matrix":[-0.04232949781848285,0.0,-0.7260051399118984,0.0,0.0,0.7272380968871612,0.0,0.0,0.7260051399118984,0.0,-0.04232949781848285,0.0,215.5,-0.008125431256520254,361.5,1.0]},{"name":"Old-growth oak","children":[155],"extras":{"veldrenEntityKey":"overworld:object:6805684"}},{"mesh":0,"matrix":[-0.47889578137790356,0.0,0.5869626937066263,0.0,0.0,0.7575396842574597,0.0,0.0,-0.5869626937066263,0.0,-0.47889578137790356,0.0,219.5,-0.008463990892208598,358.5,1.0]},{"name":"Old-growth oak","children":[157],"extras":{"veldrenEntityKey":"overworld:object:6805686"}},{"mesh":0,"matrix":[-0.6007312348411359,0.0,-0.40987465529147343,0.0,0.0,0.7272380968871612,0.0,0.0,0.40987465529147343,0.0,-0.6007312348411359,0.0,238.5,-0.008125431256520254,360.5,1.0]},{"name":"Old-growth oak","children":[159],"extras":{"veldrenEntityKey":"overworld:object:6805820"}},{"mesh":0,"matrix":[-0.7178167751429891,0.0,0.3247043988050706,0.0,0.0,0.7878412716277581,0.0,0.0,-0.3247043988050706,0.0,-0.7178167751429891,0.0,202.5,0.4529452163757961,368.5,1.0]},{"name":"Old-growth oak","children":[161],"extras":{"veldrenEntityKey":"overworld:object:6805822"}},{"mesh":0,"matrix":[-0.3700896081609334,0.0,-0.6609841565091998,0.0,0.0,0.7575396842574597,0.0,0.0,0.6609841565091998,0.0,-0.3700896081609334,0.0,217.5,-0.008463990892208598,366.5,1.0]},{"name":"Old-growth oak","children":[163],"extras":{"veldrenEntityKey":"overworld:object:6805825"}},{"mesh":0,"matrix":[-0.7494178627997201,0.0,-0.1106310993418733,0.0,0.0,0.7575396842574597,0.0,0.0,0.1106310993418733,0.0,-0.7494178627997201,0.0,241.5,-0.008463990892208598,366.5,1.0]},{"name":"Old-growth oak","children":[165],"extras":{"veldrenEntityKey":"overworld:object:6805826"}},{"mesh":0,"matrix":[0.4963927972008477,0.0,0.6117908630955198,0.0,0.0,0.7878412716277581,0.0,0.0,-0.6117908630955198,0.0,0.4963927972008477,0.0,255.5,-0.00880255052789694,369.5,1.0]},{"name":"Old-growth oak","children":[167],"extras":{"veldrenEntityKey":"overworld:object:6805959"}},{"mesh":0,"matrix":[-0.46504832350627273,0.0,0.5591111753203161,0.0,0.0,0.7272380968871612,0.0,0.0,-0.5591111753203161,0.0,-0.46504832350627273,0.0,214.5,0.27735491442418886,377.5,1.0]},{"name":"Old-growth oak","children":[169],"extras":{"veldrenEntityKey":"overworld:object:6805961"}},{"mesh":0,"matrix":[-0.6465638176923337,0.0,-0.4501656349957841,0.0,0.0,0.7878412716277581,0.0,0.0,0.4501656349957841,0.0,-0.6465638176923337,0.0,230.5,-0.00880255052789694,372.5,1.0]},{"name":"Old-growth oak","children":[171],"extras":{"veldrenEntityKey":"overworld:object:6805962"}},{"mesh":0,"matrix":[0.15870740201381403,0.0,0.7097092433596209,0.0,0.0,0.7272380968871612,0.0,0.0,-0.7097092433596209,0.0,0.15870740201381403,0.0,235.5,0.0069196471307782625,377.5,1.0]},{"name":"Old-growth oak","children":[173],"extras":{"veldrenEntityKey":"overworld:object:6805963"}},{"mesh":0,"matrix":[0.37810726735519,0.0,-0.6564307028149144,0.0,0.0,0.7575396842574597,0.0,0.0,0.6564307028149144,0.0,0.37810726735519,0.0,243.5,-0.008463990892208598,374.5,1.0]},{"name":"Old-growth oak","children":[175],"extras":{"veldrenEntityKey":"overworld:object:6806098"}},{"mesh":0,"matrix":[-0.18127012677522486,0.0,0.7355321300689628,0.0,0.0,0.7575396842574597,0.0,0.0,-0.7355321300689628,0.0,-0.18127012677522486,0.0,218.5,0.40496278565953914,383.5,1.0]},{"name":"Old-growth oak","children":[177],"extras":{"veldrenEntityKey":"overworld:object:6806101"}},{"mesh":0,"matrix":[0.471716176235826,0.0,0.5927480259792881,0.0,0.0,0.7575396842574597,0.0,0.0,-0.5927480259792881,0.0,0.471716176235826,0.0,244.5,0.2600606506851235,382.5,1.0]},{"name":"Old-growth oak","children":[179],"extras":{"veldrenEntityKey":"overworld:object:7401679"}},{"mesh":0,"matrix":[0.59484769368682,0.0,-0.4690656612249108,0.0,0.0,0.7575396842574597,0.0,0.0,0.4690656612249108,0.0,0.59484769368682,0.0,254.5,7.991536009107792,269.5,1.0]},{"name":"Yew tree","children":[181],"extras":{"veldrenEntityKey":"overworld:object:9110681"}},{"mesh":4,"matrix":[0.2102041979214883,0.0,0.8477282757909935,0.0,0.0,0.8734008440569468,0.0,0.0,-0.8477282757909935,0.0,0.2102041979214883,0.0,146.5,4.727785921038231,269.5,1.0]},{"name":"Maple tree","children":[183],"extras":{"veldrenEntityKey":"overworld:object:9110684"}},{"mesh":3,"matrix":[0.6658885494449053,0.0,0.29252640214162406,0.0,0.0,0.7273096013609082,0.0,0.0,-0.29252640214162406,0.0,0.6658885494449053,0.0,140.5,4.898747170878748,272.5,1.0]},{"name":"Tree","children":[185],"extras":{"veldrenEntityKey":"overworld:object:9110686"}},{"mesh":0,"matrix":[-0.24426480708679874,0.0,0.71707815281442,0.0,0.0,0.7575396842574597,0.0,0.0,-0.71707815281442,0.0,-0.24426480708679874,0.0,153.5,4.43222879619659,270.5,1.0]},{"name":"Yew tree","children":[187],"extras":{"veldrenEntityKey":"overworld:object:9110689"}},{"mesh":4,"matrix":[0.46409419473863067,0.0,0.6999249257128849,0.0,0.0,0.8398085039009104,0.0,0.0,-0.6999249257128849,0.0,0.46409419473863067,0.0,145.5,4.833253550673573,276.5,1.0]},{"name":"Oak tree","children":[189],"extras":{"veldrenEntityKey":"overworld:object:9110691"}},{"mesh":1,"matrix":[-0.721124681472894,0.0,0.5726233421147031,0.0,0.0,0.9208247923269633,0.0,0.0,-0.5726233421147031,0.0,-0.721124681472894,0.0,156.5,4.325094853618412,265.5,1.0]},{"name":"Tree","children":[191],"extras":{"veldrenEntityKey":"overworld:object:9110720"}},{"mesh":0,"matrix":[-0.3382221245220043,0.0,0.7115473728177659,0.0,0.0,0.7878412716277581,0.0,0.0,-0.7115473728177659,0.0,-0.3382221245220043,0.0,201.5,3.3346280172483724,257.5,1.0]},{"name":"Oak tree","children":[193],"extras":{"veldrenEntityKey":"overworld:object:9110721"}},{"mesh":1,"matrix":[0.8535974886991335,0.0,-0.34538330221730157,0.0,0.0,0.9208247923269633,0.0,0.0,0.34538330221730157,0.0,0.8535974886991335,0.0,197.5,3.188340798566176,262.5,1.0]},{"name":"Tree","children":[195],"extras":{"veldrenEntityKey":"overworld:object:9110724"}},{"mesh":0,"matrix":[0.1957275946764647,0.0,-0.7004041392269363,0.0,0.0,0.7272380968871612,0.0,0.0,0.7004041392269363,0.0,0.1957275946764647,0.0,191.5,3.4851827284145345,259.5,1.0]},{"name":"Tree","children":[197],"extras":{"veldrenEntityKey":"overworld:object:9110728"}},{"mesh":0,"matrix":[-0.07658959973144994,0.0,0.7536580169001508,0.0,0.0,0.7575396842574597,0.0,0.0,-0.7536580169001508,0.0,-0.07658959973144994,0.0,211.5,3.038419836977145,258.5,1.0]},{"name":"Oak tree","children":[199],"extras":{"veldrenEntityKey":"overworld:object:9110763"}},{"mesh":1,"matrix":[0.7539502928464893,0.0,-0.5286560829884475,0.0,0.0,0.9208247923269633,0.0,0.0,0.5286560829884475,0.0,0.7539502928464893,0.0,232.5,2.310670818410058,261.5,1.0]},{"name":"Yew tree","children":[201],"extras":{"veldrenEntityKey":"overworld:object:9110765"}},{"mesh":4,"matrix":[0.5607404719681646,0.0,0.6696261326264882,0.0,0.0,0.8734008440569468,0.0,0.0,-0.6696261326264882,0.0,0.5607404719681646,0.0,230.5,1.6518505615177808,272.5,1.0]},{"name":"Tree","children":[203],"extras":{"veldrenEntityKey":"overworld:object:9110770"}},{"mesh":0,"matrix":[0.0950164875502123,0.0,0.7515572102764446,0.0,0.0,0.7575396842574597,0.0,0.0,-0.7515572102764446,0.0,0.0950164875502123,0.0,234.5,1.1248552720905614,277.5,1.0]},{"name":"Yew tree","children":[205],"extras":{"veldrenEntityKey":"overworld:object:9111628"}},{"mesh":4,"matrix":[-0.5566369764162167,0.0,-0.6288351132932206,0.0,0.0,0.8398085039009104,0.0,0.0,0.6288351132932206,0.0,-0.5566369764162167,0.0,132.5,5.458051229987061,284.5,1.0]},{"name":"Maple tree","children":[207],"extras":{"veldrenEntityKey":"overworld:object:9111640"}},{"mesh":3,"matrix":[0.661019461553068,0.0,0.22830753240898077,0.0,0.0,0.6993361551547194,0.0,0.0,-0.22830753240898077,0.0,0.661019461553068,0.0,135.5,5.397618644242493,296.5,1.0]},{"name":"Tree","children":[209],"extras":{"veldrenEntityKey":"overworld:object:9111642"}},{"mesh":0,"matrix":[-0.17777045254653157,0.0,0.7051758048639087,0.0,0.0,0.7272380968871612,0.0,0.0,-0.7051758048639087,0.0,-0.17777045254653157,0.0,134.5,5.466745048287667,303.5,1.0]},{"name":"Maple tree","children":[211],"extras":{"veldrenEntityKey":"overworld:object:9111644"}},{"mesh":3,"matrix":[-0.7178642807825324,0.0,-0.11683377340624032,0.0,0.0,0.7273096013609082,0.0,0.0,0.11683377340624032,0.0,-0.7178642807825324,0.0,144.5,4.916343623198575,299.5,1.0]},{"name":"Tree","children":[213],"extras":{"veldrenEntityKey":"overworld:object:9111650"}},{"mesh":0,"matrix":[0.07512119354552288,0.0,0.784251665959556,0.0,0.0,0.7878412716277581,0.0,0.0,-0.784251665959556,0.0,0.07512119354552288,0.0,129.5,5.736471519486499,306.5,1.0]},{"name":"Tree","children":[215],"extras":{"veldrenEntityKey":"overworld:object:9111680"}},{"mesh":0,"matrix":[0.14966906425000498,0.0,-0.77349404683331,0.0,0.0,0.7878412716277581,0.0,0.0,0.77349404683331,0.0,0.14966906425000498,0.0,198.5,1.9015548559648041,290.5,1.0]},{"name":"Yew tree","children":[217],"extras":{"veldrenEntityKey":"overworld:object:9111683"}},{"mesh":4,"matrix":[-0.5776644337828373,0.0,-0.6550823126460836,0.0,0.0,0.8734008440569468,0.0,0.0,0.6550823126460836,0.0,-0.5776644337828373,0.0,201.5,1.6147321004967679,295.5,1.0]},{"name":"Tree","children":[219],"extras":{"veldrenEntityKey":"overworld:object:9111684"}},{"mesh":0,"matrix":[-0.014480713112983767,0.0,0.7270939131307589,0.0,0.0,0.7272380968871612,0.0,0.0,-0.7270939131307589,0.0,-0.014480713112983767,0.0,188.5,2.3809258484632463,292.5,1.0]},{"name":"Oak tree","children":[221],"extras":{"veldrenEntityKey":"overworld:object:9111685"}},{"mesh":1,"matrix":[0.6625484449642532,0.0,-0.6935991600330372,0.0,0.0,0.9591924920072534,0.0,0.0,0.6935991600330372,0.0,0.6625484449642532,0.0,200.5,2.0512808488668184,284.5,1.0]},{"name":"Maple tree","children":[223],"extras":{"veldrenEntityKey":"overworld:object:9111686"}},{"mesh":3,"matrix":[-0.7257405598323368,0.0,0.04774825699446657,0.0,0.0,0.7273096013609082,0.0,0.0,-0.04774825699446657,0.0,-0.7257405598323368,0.0,196.5,1.6523322086128074,300.5,1.0]},{"name":"Tree","children":[225],"extras":{"veldrenEntityKey":"overworld:object:9111688"}},{"mesh":0,"matrix":[-0.11418554980108248,0.0,-0.7488845261063392,0.0,0.0,0.7575396842574597,0.0,0.0,0.7488845261063392,0.0,-0.11418554980108248,0.0,206.5,1.4474013168285291,291.5,1.0]},{"name":"Maple tree","children":[227],"extras":{"veldrenEntityKey":"overworld:object:9111690"}},{"mesh":3,"matrix":[0.6526085506788342,0.0,-0.15757527264003376,0.0,0.0,0.6713627089485306,0.0,0.0,0.15757527264003376,0.0,0.6526085506788342,0.0,196.5,2.467249233101384,279.5,1.0]},{"name":"Yew tree","children":[229],"extras":{"veldrenEntityKey":"overworld:object:9111691"}},{"mesh":4,"matrix":[-0.7347054203149511,0.0,-0.4068000351328851,0.0,0.0,0.8398085039009104,0.0,0.0,0.4068000351328851,0.0,-0.7347054203149511,0.0,203.5,1.2726115647572274,301.5,1.0]},{"name":"Tree","children":[231],"extras":{"veldrenEntityKey":"overworld:object:9111701"}},{"mesh":0,"matrix":[0.06108907839752546,0.0,-0.7854692825187908,0.0,0.0,0.7878412716277581,0.0,0.0,0.7854692825187908,0.0,0.06108907839752546,0.0,226.5,1.0660247018419555,282.5,1.0]},{"name":"Oak tree","children":[233],"extras":{"veldrenEntityKey":"overworld:object:9111702"}},{"mesh":1,"matrix":[-0.6733893633171827,0.0,0.6280645377150939,0.0,0.0,0.9208247923269633,0.0,0.0,-0.6280645377150939,0.0,-0.6733893633171827,0.0,220.5,0.9014271583852397,289.5,1.0]},{"name":"Tree","children":[235],"extras":{"veldrenEntityKey":"overworld:object:9111709"}},{"mesh":0,"matrix":[-0.19827969543690457,0.0,-0.7311303136940364,0.0,0.0,0.7575396842574597,0.0,0.0,0.7311303136940364,0.0,-0.19827969543690457,0.0,234.5,0.8041355660250512,282.5,1.0]},{"name":"Tree","children":[237],"extras":{"veldrenEntityKey":"overworld:object:9111723"}},{"mesh":0,"matrix":[-0.4722118379320443,0.0,0.5530743437196313,0.0,0.0,0.7272380968871612,0.0,0.0,-0.5530743437196313,0.0,-0.4722118379320443,0.0,237.5,0.18975824367367755,291.5,1.0]},{"name":"Willow tree","children":[239],"extras":{"veldrenEntityKey":"overworld:object:9112600"}},{"mesh":2,"matrix":[-0.8711217510707076,0.0,-0.06981637838264053,0.0,0.0,0.8739150026627096,0.0,0.0,0.06981637838264053,0.0,-0.8711217510707076,0.0,150.5,2.33047519947061,313.5,1.0]},{"name":"Willow tree","children":[241],"extras":{"veldrenEntityKey":"overworld:object:9112601"}},{"mesh":2,"matrix":[0.618343566387322,0.0,0.666107216765961,0.0,0.0,0.9088716027692181,0.0,0.0,-0.666107216765961,0.0,0.618343566387322,0.0,156.5,1.8513595773692264,312.5,1.0]},{"name":"Willow tree","children":[243],"extras":{"veldrenEntityKey":"overworld:object:9112609"}},{"mesh":2,"matrix":[0.7751085244024554,0.0,0.4036510959697891,0.0,0.0,0.8739150026627096,0.0,0.0,-0.4036510959697891,0.0,0.7751085244024554,0.0,163.5,0.8590722274533479,312.5,1.0]},{"name":"Willow tree","children":[245],"extras":{"veldrenEntityKey":"overworld:object:9112610"}},{"mesh":2,"matrix":[-0.31001083926114786,0.0,-0.8543657705344275,0.0,0.0,0.9088716027692181,0.0,0.0,0.8543657705344275,0.0,-0.31001083926114786,0.0,144.5,1.1313040223735025,323.5,1.0]},{"name":"Willow tree","children":[247],"extras":{"veldrenEntityKey":"overworld:object:9112640"}},{"mesh":2,"matrix":[0.055814684395211395,0.0,0.9071561670000101,0.0,0.0,0.9088716027692181,0.0,0.0,-0.9071561670000101,0.0,0.055814684395211395,0.0,188.5,0.6990590867395315,319.5,1.0]},{"name":"Yew tree","children":[249],"extras":{"veldrenEntityKey":"overworld:object:9112649"}},{"mesh":4,"matrix":[0.29019636538487087,0.0,-0.823780980550533,0.0,0.0,0.8734008440569468,0.0,0.0,0.823780980550533,0.0,0.29019636538487087,0.0,201.5,0.9484765306576186,315.5,1.0]},{"name":"Yew tree","children":[251],"extras":{"veldrenEntityKey":"overworld:object:9112661"}},{"mesh":4,"matrix":[0.1520379638120446,0.0,0.8600659811661397,0.0,0.0,0.8734008440569468,0.0,0.0,-0.8600659811661397,0.0,0.1520379638120446,0.0,216.5,0.11425000035294451,315.5,1.0]},{"name":"Tree","children":[253],"extras":{"veldrenEntityKey":"overworld:object:9112662"}},{"mesh":0,"matrix":[0.3909860479333196,0.0,-0.6131925960785437,0.0,0.0,0.7272380968871612,0.0,0.0,0.6131925960785437,0.0,0.3909860479333196,0.0,211.5,0.08818003845974705,324.5,1.0]},{"name":"Maple tree","children":[255],"extras":{"veldrenEntityKey":"overworld:object:9112664"}},{"mesh":3,"matrix":[0.6444420468235929,0.0,0.3371553121598134,0.0,0.0,0.7273096013609082,0.0,0.0,-0.3371553121598134,0.0,0.6444420468235929,0.0,221.5,0.0013251580936795746,320.5,1.0]},{"name":"Tree","children":[257],"extras":{"veldrenEntityKey":"overworld:object:9112666"}},{"mesh":0,"matrix":[-0.2924884788095715,0.0,0.6987967250843085,0.0,0.0,0.7575396842574597,0.0,0.0,-0.6987967250843085,0.0,-0.2924884788095715,0.0,216.5,0.259110217255939,308.5,1.0]},{"name":"Oak tree","children":[259],"extras":{"veldrenEntityKey":"overworld:object:9112680"}},{"mesh":1,"matrix":[0.9019401638161768,0.0,-0.1855323127092509,0.0,0.0,0.9208247923269633,0.0,0.0,0.1855323127092509,0.0,0.9019401638161768,0.0,239.5,-0.010288375404669162,319.5,1.0]},{"name":"Yew tree","children":[261],"extras":{"veldrenEntityKey":"overworld:object:9112682"}},{"mesh":4,"matrix":[0.24848244325339658,0.0,0.8373084914141321,0.0,0.0,0.8734008440569468,0.0,0.0,-0.8373084914141321,0.0,0.24848244325339658,0.0,244.5,0.06471638234208758,324.5,1.0]},{"name":"Tree","children":[263],"extras":{"veldrenEntityKey":"overworld:object:9112683"}},{"mesh":0,"matrix":[0.319010867816379,0.0,-0.653534479411072,0.0,0.0,0.7272380968871612,0.0,0.0,0.653534479411072,0.0,0.319010867816379,0.0,236.5,-0.008125431256520254,315.5,1.0]},{"name":"Oak tree","children":[265],"extras":{"veldrenEntityKey":"overworld:object:9112684"}},{"mesh":1,"matrix":[-0.8928532498445431,0.0,0.35051863140940587,0.0,0.0,0.9591924920072534,0.0,0.0,-0.35051863140940587,0.0,-0.8928532498445431,0.0,250.5,-0.010717057713197043,316.5,1.0]},{"name":"Maple tree","children":[267],"extras":{"veldrenEntityKey":"overworld:object:9112685"}},{"mesh":3,"matrix":[0.6784851851573072,0.0,0.2619868503452372,0.0,0.0,0.7273096013609082,0.0,0.0,-0.2619868503452372,0.0,0.6784851851573072,0.0,237.5,0.0013251580936795746,325.5,1.0]},{"name":"Tree","children":[269],"extras":{"veldrenEntityKey":"overworld:object:9112687"}},{"mesh":0,"matrix":[-0.21145053540050365,0.0,0.7274304394948922,0.0,0.0,0.7575396842574597,0.0,0.0,-0.7274304394948922,0.0,-0.21145053540050365,0.0,249.5,-0.008463990892208598,324.5,1.0]},{"name":"Oak tree","children":[271],"extras":{"veldrenEntityKey":"overworld:object:9112688"}},{"mesh":1,"matrix":[0.852876560310144,0.0,-0.5174243025923945,0.0,0.0,0.9975601916875435,0.0,0.0,0.5174243025923945,0.0,0.852876560310144,0.0,231.5,-0.011145740021724923,319.5,1.0]},{"name":"Yew tree","children":[273],"extras":{"veldrenEntityKey":"overworld:object:9113546"}},{"mesh":4,"matrix":[-0.3614469764311132,0.0,0.7951006965335858,0.0,0.0,0.8734008440569468,0.0,0.0,-0.7951006965335858,0.0,-0.3614469764311132,0.0,130.5,3.273140978086451,339.5,1.0]},{"name":"Willow tree","children":[275],"extras":{"veldrenEntityKey":"overworld:object:9113551"}},{"mesh":2,"matrix":[-0.734445941412778,0.0,0.4736207248645925,0.0,0.0,0.8739150026627096,0.0,0.0,-0.4736207248645925,0.0,-0.734445941412778,0.0,132.5,2.946277593584722,333.5,1.0]},{"name":"Tree","children":[277],"extras":{"veldrenEntityKey":"overworld:object:9114620"}},{"mesh":0,"matrix":[-0.005233272160090016,0.0,0.7878238903095928,0.0,0.0,0.7878412716277581,0.0,0.0,-0.7878238903095928,0.0,-0.005233272160090016,0.0,255.5,-0.00880255052789694,361.5,1.0]},{"name":"Oak tree","children":[279],"extras":{"veldrenEntityKey":"overworld:object:9114625"}},{"mesh":1,"matrix":[-0.5240653493603866,0.0,0.8033714871233985,0.0,0.0,0.9591924920072534,0.0,0.0,-0.8033714871233985,0.0,-0.5240653493603866,0.0,250.5,-0.010717057713197043,361.5,1.0]},{"name":"Yew tree","children":[281],"extras":{"veldrenEntityKey":"overworld:object:9114627"}},{"mesh":4,"matrix":[-0.7104375076215715,0.0,-0.38113390094289806,0.0,0.0,0.8062161637448739,0.0,0.0,0.38113390094289806,0.0,-0.7104375076215715,0.0,252.5,0.05973819908500392,373.5,1.0]}],"buffers":[{"uri":"../world-parts/8480a643e36c0194bf11e79cbc019e38e5ff72b8bc295b144212e5f7a5b37347.bin","byteLength":64668},{"uri":"../world-parts/cf73d73e4a52b629e942c4cf3ba67a960257f3fda86af0eadf8051aa3c1f7c97.bin","byteLength":133656},{"uri":"../world-parts/629e78b439d8b314fb62411e16a47eeeaf0f6f78bb3f3150468167c9e9d3eef3.bin","byteLength":92004},{"uri":"../world-parts/133dae8ce562dbc4cbf0d0d2cb7dc4cb2baafed83b6c58ebd4446a3657088e0f.bin","byteLength":180744},{"uri":"../world-parts/7e2e11a73c6c1f6b77c7c18c44a87655900818e94c168e7a92bb0a48cc87a1c1.bin","byteLength":46872}],"bufferViews":[{"buffer":0,"byteOffset":0,"byteLength":7860,"target":34962},{"buffer":0,"byteOffset":7860,"byteLength":7860,"target":34962},{"buffer":0,"byteOffset":15720,"byteLength":5240,"target":34962},{"buffer":0,"byteOffset":20960,"byteLength":7860,"target":34962},{"buffer":0,"byteOffset":28820,"byteLength":7860,"target":34962},{"buffer":0,"byteOffset":36680,"byteLength":7860,"target":34962},{"buffer":0,"byteOffset":44540,"byteLength":7860,"target":34962},{"buffer":0,"byteOffset":52400,"byteLength":2620,"target":34962},{"buffer":0,"byteOffset":55020,"byteLength":5328,"target":34963},{"buffer":0,"byteOffset":60348,"byteLength":4320,"target":34963},{"buffer":1,"byteOffset":0,"byteLength":15912,"target":34962},{"buffer":1,"byteOffset":15912,"byteLength":15912,"target":34962},{"buffer":1,"byteOffset":31824,"byteLength":10608,"target":34962},{"buffer":1,"byteOffset":42432,"byteLength":15912,"target":34962},{"buffer":1,"byteOffset":58344,"byteLength":15912,"target":34962},{"buffer":1,"byteOffset":74256,"byteLength":15912,"target":34962},{"buffer":1,"byteOffset":90168,"byteLength":15912,"target":34962},{"buffer":1,"byteOffset":106080,"byteLength":5304,"target":34962},{"buffer":1,"byteOffset":111384,"byteLength":10464,"target":34963},{"buffer":1,"byteOffset":121848,"byteLength":11808,"target":34963},{"buffer":2,"byteOffset":0,"byteLength":10956,"target":34962},{"buffer":2,"byteOffset":10956,"byteLength":10956,"target":34962},{"buffer":2,"byteOffset":21912,"byteLength":7304,"target":34962},{"buffer":2,"byteOffset":29216,"byteLength":10956,"target":34962},{"buffer":2,"byteOffset":40172,"byteLength":10956,"target":34962},{"buffer":2,"byteOffset":51128,"byteLength":10956,"target":34962},{"buffer":2,"byteOffset":62084,"byteLength":10956,"target":34962},{"buffer":2,"byteOffset":73040,"byteLength":3652,"target":34962},{"buffer":2,"byteOffset":76692,"byteLength":8112,"target":34963},{"buffer":2,"byteOffset":84804,"byteLength":7200,"target":34963},{"buffer":3,"byteOffset":0,"byteLength":21552,"target":34962},{"buffer":3,"byteOffset":21552,"byteLength":21552,"target":34962},{"buffer":3,"byteOffset":43104,"byteLength":14368,"target":34962},{"buffer":3,"byteOffset":57472,"byteLength":21552,"target":34962},{"buffer":3,"byteOffset":79024,"byteLength":21552,"target":34962},{"buffer":3,"byteOffset":100576,"byteLength":21552,"target":34962},{"buffer":3,"byteOffset":122128,"byteLength":21552,"target":34962},{"buffer":3,"byteOffset":143680,"byteLength":7184,"target":34962},{"buffer":3,"byteOffset":150864,"byteLength":17496,"target":34963},{"buffer":3,"byteOffset":168360,"byteLength":12384,"target":34963},{"buffer":4,"byteOffset":0,"byteLength":5784,"target":34962},{"buffer":4,"byteOffset":5784,"byteLength":5784,"target":34962},{"buffer":4,"byteOffset":11568,"byteLength":3856,"target":34962},{"buffer":4,"byteOffset":15424,"byteLength":5784,"target":34962},{"buffer":4,"byteOffset":21208,"byteLength":5784,"target":34962},{"buffer":4,"byteOffset":26992,"byteLength":5784,"target":34962},{"buffer":4,"byteOffset":32776,"byteLength":5784,"target":34962},{"buffer":4,"byteOffset":38560,"byteLength":1928,"target":34962},{"buffer":4,"byteOffset":40488,"byteLength":1776,"target":34963},{"buffer":4,"byteOffset":42264,"byteLength":4608,"target":34963}],"accessors":[{"bufferView":0,"componentType":5126,"count":655,"type":"VEC3","min":[-2.3328819274902344,0.011172999627888203,-2.0712060928344727],"max":[1.805098056793213,5.555437088012695,2.05914306640625]},{"bufferView":1,"componentType":5126,"count":655,"type":"VEC3"},{"bufferView":2,"componentType":5126,"count":655,"type":"VEC2"},{"bufferView":3,"componentType":5126,"count":655,"type":"VEC3"},{"bufferView":4,"componentType":5126,"count":655,"type":"VEC3"},{"bufferView":5,"componentType":5126,"count":655,"type":"VEC3"},{"bufferView":6,"componentType":5126,"count":655,"type":"VEC3"},{"bufferView":7,"componentType":5126,"count":655,"type":"SCALAR"},{"bufferView":8,"componentType":5125,"count":1332,"type":"SCALAR"},{"bufferView":9,"componentType":5125,"count":1080,"type":"SCALAR"},{"bufferView":10,"componentType":5126,"count":1326,"type":"VEC3","min":[-3.6411149501800537,0.011172999627888203,-2.5864460468292236],"max":[3.095597982406616,6.3706889152526855,2.3982579708099365]},{"bufferView":11,"componentType":5126,"count":1326,"type":"VEC3"},{"bufferView":12,"componentType":5126,"count":1326,"type":"VEC2"},{"bufferView":13,"componentType":5126,"count":1326,"type":"VEC3"},{"bufferView":14,"componentType":5126,"count":1326,"type":"VEC3"},{"bufferView":15,"componentType":5126,"count":1326,"type":"VEC3"},{"bufferView":16,"componentType":5126,"count":1326,"type":"VEC3"},{"bufferView":17,"componentType":5126,"count":1326,"type":"SCALAR"},{"bufferView":18,"componentType":5125,"count":2616,"type":"SCALAR"},{"bufferView":19,"componentType":5125,"count":2952,"type":"SCALAR"},{"bufferView":20,"componentType":5126,"count":913,"type":"VEC3","min":[-2.969912052154541,-0.0013800000306218863,-2.3520750999450684],"max":[3.394526958465576,5.491145133972168,2.5843169689178467]},{"bufferView":21,"componentType":5126,"count":913,"type":"VEC3"},{"bufferView":22,"componentType":5126,"count":913,"type":"VEC2"},{"bufferView":23,"componentType":5126,"count":913,"type":"VEC3"},{"bufferView":24,"componentType":5126,"count":913,"type":"VEC3"},{"bufferView":25,"componentType":5126,"count":913,"type":"VEC3"},{"bufferView":26,"componentType":5126,"count":913,"type":"VEC3"},{"bufferView":27,"componentType":5126,"count":913,"type":"SCALAR"},{"bufferView":28,"componentType":5125,"count":2028,"type":"SCALAR"},{"bufferView":29,"componentType":5125,"count":1800,"type":"SCALAR"},{"bufferView":30,"componentType":5126,"count":1796,"type":"VEC3","min":[-4.721841812133789,-0.0018220000201836228,-1.3137749433517456],"max":[4.035912990570068,10.293656349182129,3.0319550037384033]},{"bufferView":31,"componentType":5126,"count":1796,"type":"VEC3"},{"bufferView":32,"componentType":5126,"count":1796,"type":"VEC2"},{"bufferView":33,"componentType":5126,"count":1796,"type":"VEC3"},{"bufferView":34,"componentType":5126,"count":1796,"type":"VEC3"},{"bufferView":35,"componentType":5126,"count":1796,"type":"VEC3"},{"bufferView":36,"componentType":5126,"count":1796,"type":"VEC3"},{"bufferView":37,"componentType":5126,"count":1796,"type":"SCALAR"},{"bufferView":38,"componentType":5125,"count":4374,"type":"SCALAR"},{"bufferView":39,"componentType":5125,"count":3096,"type":"SCALAR"},{"bufferView":40,"componentType":5126,"count":482,"type":"VEC3","min":[-3.7659718990325928,-0.07409700006246567,-3.4778990745544434],"max":[3.116921901702881,8.022987365722656,3.8158159255981445]},{"bufferView":41,"componentType":5126,"count":482,"type":"VEC3"},{"bufferView":42,"componentType":5126,"count":482,"type":"VEC2"},{"bufferView":43,"componentType":5126,"count":482,"type":"VEC3"},{"bufferView":44,"componentType":5126,"count":482,"type":"VEC3"},{"bufferView":45,"componentType":5126,"count":482,"type":"VEC3"},{"bufferView":46,"componentType":5126,"count":482,"type":"VEC3"},{"bufferView":47,"componentType":5126,"count":482,"type":"SCALAR"},{"bufferView":48,"componentType":5125,"count":444,"type":"SCALAR"},{"bufferView":49,"componentType":5125,"count":1152,"type":"SCALAR"}],"meshes":[{"name":"8480a643e36c0194bf11e79cbc019e38e5ff72b8bc295b144212e5f7a5b37347","primitives":[{"attributes":{"POSITION":0,"NORMAL":1,"TEXCOORD_0":2,"COLOR_0":3,"_VELDREN_NORMAL":4,"_VELDREN_COLOR":5,"_VELDREN_FALLBACK":6,"_VELDREN_MATERIAL":7},"indices":8,"material":0,"extras":{"mixedAtlasFallback":false}},{"attributes":{"POSITION":0,"NORMAL":1,"TEXCOORD_0":2,"COLOR_0":3,"_VELDREN_NORMAL":4,"_VELDREN_COLOR":5,"_VELDREN_FALLBACK":6,"_VELDREN_MATERIAL":7},"indices":9,"material":1,"extras":{"mixedAtlasFallback":false}}]},{"name":"cf73d73e4a52b629e942c4cf3ba67a960257f3fda86af0eadf8051aa3c1f7c97","primitives":[{"attributes":{"POSITION":10,"NORMAL":11,"TEXCOORD_0":12,"COLOR_0":13,"_VELDREN_NORMAL":14,"_VELDREN_COLOR":15,"_VELDREN_FALLBACK":16,"_VELDREN_MATERIAL":17},"indices":18,"material":2,"extras":{"mixedAtlasFallback":false}},{"attributes":{"POSITION":10,"NORMAL":11,"TEXCOORD_0":12,"COLOR_0":13,"_VELDREN_NORMAL":14,"_VELDREN_COLOR":15,"_VELDREN_FALLBACK":16,"_VELDREN_MATERIAL":17},"indices":19,"material":3,"extras":{"mixedAtlasFallback":false}}]},{"name":"629e78b439d8b314fb62411e16a47eeeaf0f6f78bb3f3150468167c9e9d3eef3","primitives":[{"attributes":{"POSITION":20,"NORMAL":21,"TEXCOORD_0":22,"COLOR_0":23,"_VELDREN_NORMAL":24,"_VELDREN_COLOR":25,"_VELDREN_FALLBACK":26,"_VELDREN_MATERIAL":27},"indices":28,"material":4,"extras":{"mixedAtlasFallback":false}},{"attributes":{"POSITION":20,"NORMAL":21,"TEXCOORD_0":22,"COLOR_0":23,"_VELDREN_NORMAL":24,"_VELDREN_COLOR":25,"_VELDREN_FALLBACK":26,"_VELDREN_MATERIAL":27},"indices":29,"material":5,"extras":{"mixedAtlasFallback":false}}]},{"name":"133dae8ce562dbc4cbf0d0d2cb7dc4cb2baafed83b6c58ebd4446a3657088e0f","primitives":[{"attributes":{"POSITION":30,"NORMAL":31,"TEXCOORD_0":32,"COLOR_0":33,"_VELDREN_NORMAL":34,"_VELDREN_COLOR":35,"_VELDREN_FALLBACK":36,"_VELDREN_MATERIAL":37},"indices":38,"material":6,"extras":{"mixedAtlasFallback":false}},{"attributes":{"POSITION":30,"NORMAL":31,"TEXCOORD_0":32,"COLOR_0":33,"_VELDREN_NORMAL":34,"_VELDREN_COLOR":35,"_VELDREN_FALLBACK":36,"_VELDREN_MATERIAL":37},"indices":39,"material":7,"extras":{"mixedAtlasFallback":false}}]},{"name":"7e2e11a73c6c1f6b77c7c18c44a87655900818e94c168e7a92bb0a48cc87a1c1","primitives":[{"attributes":{"POSITION":40,"NORMAL":41,"TEXCOORD_0":42,"COLOR_0":43,"_VELDREN_NORMAL":44,"_VELDREN_COLOR":45,"_VELDREN_FALLBACK":46,"_VELDREN_MATERIAL":47},"indices":48,"material":8,"extras":{"mixedAtlasFallback":false}},{"attributes":{"POSITION":40,"NORMAL":41,"TEXCOORD_0":42,"COLOR_0":43,"_VELDREN_NORMAL":44,"_VELDREN_COLOR":45,"_VELDREN_FALLBACK":46,"_VELDREN_MATERIAL":47},"indices":49,"material":9,"extras":{"mixedAtlasFallback":false}}]}],"materials":[{"name":"legacy-material-49","pbrMetallicRoughness":{"baseColorFactor":[1,1,1,1],"metallicFactor":0,"roughnessFactor":1,"baseColorTexture":{"index":0}},"doubleSided":true,"extras":{"legacyMaterial":49,"legacyShader":"dist/renderer-gl.js"}},{"name":"legacy-material-50","pbrMetallicRoughness":{"baseColorFactor":[1,1,1,1],"metallicFactor":0,"roughnessFactor":1,"baseColorTexture":{"index":1}},"doubleSided":true,"extras":{"legacyMaterial":50,"legacyShader":"dist/renderer-gl.js"},"alphaMode":"MASK","alphaCutoff":0.45},{"name":"legacy-material-49","pbrMetallicRoughness":{"baseColorFactor":[1,1,1,1],"metallicFactor":0,"roughnessFactor":1,"baseColorTexture":{"index":2}},"doubleSided":true,"extras":{"legacyMaterial":49,"legacyShader":"dist/renderer-gl.js"}},{"name":"legacy-material-50","pbrMetallicRoughness":{"baseColorFactor":[1,1,1,1],"metallicFactor":0,"roughnessFactor":1,"baseColorTexture":{"index":3}},"doubleSided":true,"extras":{"legacyMaterial":50,"legacyShader":"dist/renderer-gl.js"},"alphaMode":"MASK","alphaCutoff":0.45},{"name":"legacy-material-49","pbrMetallicRoughness":{"baseColorFactor":[1,1,1,1],"metallicFactor":0,"roughnessFactor":1,"baseColorTexture":{"index":4}},"doubleSided":true,"extras":{"legacyMaterial":49,"legacyShader":"dist/renderer-gl.js"}},{"name":"legacy-material-51","pbrMetallicRoughness":{"baseColorFactor":[1,1,1,1],"metallicFactor":0,"roughnessFactor":1,"baseColorTexture":{"index":5}},"doubleSided":true,"extras":{"legacyMaterial":51,"legacyShader":"dist/renderer-gl.js"},"alphaMode":"MASK","alphaCutoff":0.45},{"name":"legacy-material-52","pbrMetallicRoughness":{"baseColorFactor":[1,1,1,1],"metallicFactor":0,"roughnessFactor":1,"baseColorTexture":{"index":6}},"doubleSided":true,"extras":{"legacyMaterial":52,"legacyShader":"dist/renderer-gl.js"}},{"name":"legacy-material-53","pbrMetallicRoughness":{"baseColorFactor":[1,1,1,1],"metallicFactor":0,"roughnessFactor":1,"baseColorTexture":{"index":7}},"doubleSided":true,"extras":{"legacyMaterial":53,"legacyShader":"dist/renderer-gl.js"},"alphaMode":"MASK","alphaCutoff":0.45},{"name":"legacy-material-49","pbrMetallicRoughness":{"baseColorFactor":[1,1,1,1],"metallicFactor":0,"roughnessFactor":1,"baseColorTexture":{"index":8}},"doubleSided":true,"extras":{"legacyMaterial":49,"legacyShader":"dist/renderer-gl.js"}},{"name":"legacy-material-54","pbrMetallicRoughness":{"baseColorFactor":[1,1,1,1],"metallicFactor":0,"roughnessFactor":1,"baseColorTexture":{"index":9}},"doubleSided":true,"extras":{"legacyMaterial":54,"legacyShader":"dist/renderer-gl.js"},"alphaMode":"MASK","alphaCutoff":0.45}],"images":[{"name":"atlas-29","uri":"../../textures/atlas/tile-29.png"},{"name":"atlas-30","uri":"../../textures/atlas/tile-30.png"},{"name":"atlas-29","uri":"../../textures/atlas/tile-29.png"},{"name":"atlas-30","uri":"../../textures/atlas/tile-30.png"},{"name":"atlas-29","uri":"../../textures/atlas/tile-29.png"},{"name":"atlas-31","uri":"../../textures/atlas/tile-31.png"},{"name":"atlas-32","uri":"../../textures/atlas/tile-32.png"},{"name":"atlas-33","uri":"../../textures/atlas/tile-33.png"},{"name":"atlas-29","uri":"../../textures/atlas/tile-29.png"},{"name":"atlas-34","uri":"../../textures/atlas/tile-34.png"}],"textures":[{"source":0,"sampler":0},{"source":1,"sampler":0},{"source":2,"sampler":1},{"source":3,"sampler":1},{"source":4,"sampler":2},{"source":5,"sampler":2},{"source":6,"sampler":3},{"source":7,"sampler":3},{"source":8,"sampler":4},{"source":9,"sampler":4}],"samplers":[{"magFilter":9729,"minFilter":9729,"wrapS":10497,"wrapT":10497},{"magFilter":9729,"minFilter":9729,"wrapS":10497,"wrapT":10497},{"magFilter":9729,"minFilter":9729,"wrapS":10497,"wrapT":10497},{"magFilter":9729,"minFilter":9729,"wrapS":10497,"wrapT":10497},{"magFilter":9729,"minFilter":9729,"wrapS":10497,"wrapT":10497}]}
