{"asset":{"version":"2.0","generator":"Veldren static world recovery"},"scene":0,"scenes":[{"nodes":[0,2,4,6,8,10,12,14,16,18,20,22,24,26,28,30,32,34,36,38,40,42,44,46,48,50,52,54,56,58,60,62,64,66,68,70,72,74,76,78,80,82,84,86,88,90,92,94,96,98,100,102,104,106,108,110,112,114,116,118,120,122,124,126,128,130,132,134,136,138,140,142,144,146,148,150,152,154,156,158,160,162,164,166,168]}],"extras":{"sourceScene":"overworld","notVervesisScene":true,"gameplayIdentityExternal":true,"limitations":["Terrain stored separately.","Dynamic actors, fires, gates, crops, fish, effects and ground cover are not baked.","Roofs are closed; browser procedural materials require native support."]},"nodes":[{"name":"Maple tree","children":[1],"extras":{"veldrenEntityKey":"overworld:object:977"}},{"mesh":0,"matrix":[0.71354223627244,0.0,-0.14084293836429482,0.0,0.0,0.7273096013609082,0.0,0.0,0.14084293836429482,0.0,0.71354223627244,0.0,936.5,1.3309040426860639,519.5,1.0]},{"name":"Magic tree","children":[3],"extras":{"veldrenEntityKey":"overworld:object:978"}},{"mesh":1,"matrix":[-1.1497957961762937,0.0,-0.7013316063382097,0.0,0.0,1.346809710001235,0.0,0.0,0.7013316063382097,0.0,-1.1497957961762937,0.0,948.5,1.0541091439948602,532.5,1.0]},{"name":"Maple tree","children":[5],"extras":{"veldrenEntityKey":"overworld:object:979"}},{"mesh":0,"matrix":[0.1935957716904454,0.0,0.6720057552507765,0.0,0.0,0.6993361551547194,0.0,0.0,-0.6720057552507765,0.0,0.1935957716904454,0.0,960.5,0.9063592776708475,545.5,1.0]},{"name":"Maple tree","children":[7],"extras":{"veldrenEntityKey":"overworld:object:994"}},{"mesh":0,"matrix":[-0.6927666802556922,0.0,0.09563150440149545,0.0,0.0,0.6993361551547194,0.0,0.0,-0.09563150440149545,0.0,-0.6927666802556922,0.0,897.5,3.8464247982651316,537.5,1.0]},{"name":"Yew tree","children":[9],"extras":{"veldrenEntityKey":"overworld:object:995"}},{"mesh":2,"matrix":[0.7181669511521185,0.0,0.4970566010750263,0.0,0.0,0.8734008440569468,0.0,0.0,-0.4970566010750263,0.0,0.7181669511521185,0.0,918.5,3.2805429451188006,537.5,1.0]},{"name":"Magic tree","children":[11],"extras":{"veldrenEntityKey":"overworld:object:996"}},{"mesh":1,"matrix":[-0.29757564519601915,0.0,-1.3135239359599746,0.0,0.0,1.346809710001235,0.0,0.0,1.3135239359599746,0.0,-0.29757564519601915,0.0,939.5,2.4732414408000802,537.5,1.0]},{"name":"Magic tree","children":[13],"extras":{"veldrenEntityKey":"overworld:object:997"}},{"mesh":1,"matrix":[-0.6968498921220517,0.0,1.217622183356389,0.0,0.0,1.4029267812512864,0.0,0.0,-1.217622183356389,0.0,-0.6968498921220517,0.0,956.5,0.8516302608859763,540.5,1.0]},{"name":"Magic tree","children":[15],"extras":{"veldrenEntityKey":"overworld:object:1012"}},{"mesh":1,"matrix":[-1.105611117613771,0.0,-0.8636131137036556,0.0,0.0,1.4029267812512864,0.0,0.0,0.8636131137036556,0.0,-1.105611117613771,0.0,897.5,3.882024555893581,558.5,1.0]},{"name":"Maple tree","children":[17],"extras":{"veldrenEntityKey":"overworld:object:1013"}},{"mesh":0,"matrix":[0.11952144797637902,0.0,0.7174216889008812,0.0,0.0,0.7273096013609082,0.0,0.0,-0.7174216889008812,0.0,0.11952144797637902,0.0,918.5,2.8929959823596256,558.5,1.0]},{"name":"Yew tree","children":[19],"extras":{"veldrenEntityKey":"overworld:object:1014"}},{"mesh":2,"matrix":[0.4401453461098128,0.0,-0.6754676727878058,0.0,0.0,0.8062161637448739,0.0,0.0,0.6754676727878058,0.0,0.4401453461098128,0.0,963.5,0.6279195104986357,561.5,1.0]},{"name":"Magic tree","children":[21],"extras":{"veldrenEntityKey":"overworld:object:1015"}},{"mesh":1,"matrix":[-1.35907216275137,0.0,0.3480321967669209,0.0,0.0,1.4029267812512864,0.0,0.0,-0.3480321967669209,0.0,-1.35907216275137,0.0,961.5,0.8887773897704482,555.5,1.0]},{"name":"Yew tree","children":[23],"extras":{"veldrenEntityKey":"overworld:object:1032"}},{"mesh":2,"matrix":[0.7912490473288766,0.0,-0.15462680163751227,0.0,0.0,0.8062161637448739,0.0,0.0,0.15462680163751227,0.0,0.7912490473288766,0.0,897.5,3.8272983297847425,579.5,1.0]},{"name":"Maple tree","children":[25],"extras":{"veldrenEntityKey":"overworld:object:1033"}},{"mesh":0,"matrix":[-0.596346042213964,0.0,-0.36529776325940827,0.0,0.0,0.6993361551547194,0.0,0.0,0.36529776325940827,0.0,-0.596346042213964,0.0,957.5,0.2855662155289449,580.5,1.0]},{"name":"Maple tree","children":[27],"extras":{"veldrenEntityKey":"overworld:object:1034"}},{"mesh":0,"matrix":[0.20001733475503827,0.0,0.6992655590183561,0.0,0.0,0.7273096013609082,0.0,0.0,-0.6992655590183561,0.0,0.20001733475503827,0.0,960.5,0.3129772112979803,573.5,1.0]},{"name":"Yew tree","children":[29],"extras":{"veldrenEntityKey":"overworld:object:1035"}},{"mesh":2,"matrix":[0.36079962668709614,0.0,-0.720977206342859,0.0,0.0,0.8062161637448739,0.0,0.0,0.720977206342859,0.0,0.36079962668709614,0.0,962.5,0.46101499374109567,567.5,1.0]},{"name":"Maple tree","children":[31],"extras":{"veldrenEntityKey":"overworld:object:1051"}},{"mesh":0,"matrix":[-0.15322696147937936,0.0,-0.6823434297935186,0.0,0.0,0.6993361551547194,0.0,0.0,0.6823434297935186,0.0,-0.15322696147937936,0.0,918.5,2.245497897719367,600.5,1.0]},{"name":"Yew tree","children":[33],"extras":{"veldrenEntityKey":"overworld:object:1052"}},{"mesh":2,"matrix":[-0.4352612749315473,0.0,0.757216387134055,0.0,0.0,0.8734008440569468,0.0,0.0,-0.757216387134055,0.0,-0.4352612749315473,0.0,939.5,1.0438607425706634,600.5,1.0]},{"name":"Magic tree","children":[35],"extras":{"veldrenEntityKey":"overworld:object:1053"}},{"mesh":1,"matrix":[1.2840395889176899,0.0,-0.4063726480038993,0.0,0.0,1.346809710001235,0.0,0.0,0.4063726480038993,0.0,1.2840395889176899,0.0,950.5,0.3802624467086812,600.5,1.0]},{"name":"Yew tree","children":[37],"extras":{"veldrenEntityKey":"overworld:object:1054"}},{"mesh":2,"matrix":[-0.7612123350475744,0.0,-0.35473103077642504,0.0,0.0,0.8398085039009104,0.0,0.0,0.35473103077642504,0.0,-0.7612123350475744,0.0,952.5,0.3821859439432536,594.5,1.0]},{"name":"Yew tree","children":[39],"extras":{"veldrenEntityKey":"overworld:object:1069"}},{"mesh":2,"matrix":[0.45981476236481617,0.0,-0.7027436997481181,0.0,0.0,0.8398085039009104,0.0,0.0,0.7027436997481181,0.0,0.45981476236481617,0.0,897.5,3.172157046358409,621.5,1.0]},{"name":"Magic tree","children":[41],"extras":{"veldrenEntityKey":"overworld:object:1070"}},{"mesh":1,"matrix":[-1.4141171377090322,0.0,0.3592793959574635,0.0,0.0,1.4590438525013378,0.0,0.0,-0.3592793959574635,0.0,-1.4141171377090322,0.0,918.5,2.0114045359304806,621.5,1.0]},{"name":"Maple tree","children":[43],"extras":{"veldrenEntityKey":"overworld:object:1071"}},{"mesh":0,"matrix":[0.591163433160212,0.0,0.3182038375961874,0.0,0.0,0.6713627089485306,0.0,0.0,-0.3182038375961874,0.0,0.591163433160212,0.0,939.5,0.9495237728595233,621.5,1.0]},{"name":"Yew tree","children":[45],"extras":{"veldrenEntityKey":"overworld:object:1072"}},{"mesh":2,"matrix":[-0.2756375626196533,0.0,-0.7932857349640055,0.0,0.0,0.8398085039009104,0.0,0.0,0.7932857349640055,0.0,-0.2756375626196533,0.0,946.5,0.6929830630487784,595.5,1.0]},{"name":"Magic tree","children":[47],"extras":{"veldrenEntityKey":"overworld:object:1092"}},{"mesh":1,"matrix":[1.2505980753023487,0.0,0.49990083917080175,0.0,0.0,1.346809710001235,0.0,0.0,-0.49990083917080175,0.0,1.2505980753023487,0.0,938.5,0.7640425521474025,633.5,1.0]},{"name":"Maple tree","children":[49],"extras":{"veldrenEntityKey":"overworld:object:1093"}},{"mesh":0,"matrix":[-0.3028833281506211,0.0,-0.6303433567786598,0.0,0.0,0.6993361551547194,0.0,0.0,0.6303433567786598,0.0,-0.3028833281506211,0.0,939.5,0.9632386305176716,627.5,1.0]},{"name":"Silverwood tree","children":[51],"extras":{"veldrenEntityKey":"overworld:object:6809357"}},{"mesh":3,"matrix":[0.7641133244478113,0.0,-0.19189762031186483,0.0,0.0,0.7878412716277581,0.0,0.0,0.19189762031186483,0.0,0.7641133244478113,0.0,898.5,3.8036379171269474,565.5,1.0]},{"name":"Silverwood tree","children":[53],"extras":{"veldrenEntityKey":"overworld:object:6809771"}},{"mesh":3,"matrix":[0.6082355307171496,0.0,-0.5007428566173163,0.0,0.0,0.7878412716277581,0.0,0.0,0.5007428566173163,0.0,0.6082355307171496,0.0,898.5,3.568653937955788,591.5,1.0]},{"name":"Silverwood tree","children":[55],"extras":{"veldrenEntityKey":"overworld:object:6809909"}},{"mesh":3,"matrix":[0.24239687435881582,0.0,0.7496249892987289,0.0,0.0,0.7878412716277581,0.0,0.0,-0.7496249892987289,0.0,0.24239687435881582,0.0,900.5,3.383070925043496,596.5,1.0]},{"name":"Yew tree","children":[57],"extras":{"veldrenEntityKey":"overworld:object:9120902"}},{"mesh":2,"matrix":[-0.2509208149237006,0.0,-0.836581005663775,0.0,0.0,0.8734008440569468,0.0,0.0,0.836581005663775,0.0,-0.2509208149237006,0.0,896.5,3.7310947481518832,513.5,1.0]},{"name":"Maple tree","children":[59],"extras":{"veldrenEntityKey":"overworld:object:9120907"}},{"mesh":0,"matrix":[0.19324700011508097,0.0,-0.6721061336225906,0.0,0.0,0.6993361551547194,0.0,0.0,0.6721061336225906,0.0,0.19324700011508097,0.0,902.5,3.6523262849617937,515.5,1.0]},{"name":"Magic tree","children":[61],"extras":{"veldrenEntityKey":"overworld:object:9120922"}},{"mesh":1,"matrix":[1.2791090822023385,0.0,0.5762668734011928,0.0,0.0,1.4029267812512864,0.0,0.0,-0.5762668734011928,0.0,1.2791090822023385,0.0,909.5,3.6000522608583934,512.5,1.0]},{"name":"Maple tree","children":[63],"extras":{"veldrenEntityKey":"overworld:object:9121880"}},{"mesh":0,"matrix":[-0.18438519685379498,0.0,0.7035491137176924,0.0,0.0,0.7273096013609082,0.0,0.0,-0.7035491137176924,0.0,-0.18438519685379498,0.0,919.5,3.35779481778941,525.5,1.0]},{"name":"Yew tree","children":[65],"extras":{"veldrenEntityKey":"overworld:object:9121881"}},{"mesh":2,"matrix":[0.6779308830201682,0.0,-0.43634186199698544,0.0,0.0,0.8062161637448739,0.0,0.0,0.43634186199698544,0.0,0.6779308830201682,0.0,914.5,3.469007422214666,531.5,1.0]},{"name":"Magic tree","children":[67],"extras":{"veldrenEntityKey":"overworld:object:9121882"}},{"mesh":1,"matrix":[-1.3825360478189255,0.0,-0.2383225336247515,0.0,0.0,1.4029267812512864,0.0,0.0,0.2383225336247515,0.0,-1.3825360478189255,0.0,914.5,3.515455873202313,519.5,1.0]},{"name":"Yew tree","children":[69],"extras":{"veldrenEntityKey":"overworld:object:9121884"}},{"mesh":2,"matrix":[0.0685198320198976,0.0,-0.8032991567924532,0.0,0.0,0.8062161637448739,0.0,0.0,0.8032991567924532,0.0,0.0685198320198976,0.0,908.5,3.634529766602614,528.5,1.0]},{"name":"Magic tree","children":[71],"extras":{"veldrenEntityKey":"overworld:object:9121885"}},{"mesh":1,"matrix":[-1.0330687927490423,0.0,0.9491956716084051,0.0,0.0,1.4029267812512864,0.0,0.0,-0.9491956716084051,0.0,-1.0330687927490423,0.0,921.5,3.403829852358752,519.5,1.0]},{"name":"Magic tree","children":[73],"extras":{"veldrenEntityKey":"overworld:object:9121888"}},{"mesh":1,"matrix":[0.12068471439486199,0.0,1.3977262798071466,0.0,0.0,1.4029267812512864,0.0,0.0,-1.3977262798071466,0.0,0.12068471439486199,0.0,928.5,3.1471737710587617,525.5,1.0]},{"name":"Magic tree","children":[75],"extras":{"veldrenEntityKey":"overworld:object:9121891"}},{"mesh":1,"matrix":[1.1804802417684945,0.0,0.7580698861887943,0.0,0.0,1.4029267812512864,0.0,0.0,-0.7580698861887943,0.0,1.1804802417684945,0.0,925.5,3.0390279790637624,534.5,1.0]},{"name":"Maple tree","children":[77],"extras":{"veldrenEntityKey":"overworld:object:9121892"}},{"mesh":0,"matrix":[-0.18511532976051273,0.0,-0.7033573564834734,0.0,0.0,0.7273096013609082,0.0,0.0,0.7033573564834734,0.0,-0.18511532976051273,0.0,903.5,3.6731660116876825,524.5,1.0]},{"name":"Magic tree","children":[79],"extras":{"veldrenEntityKey":"overworld:object:9121904"}},{"mesh":1,"matrix":[1.0167577758622464,0.0,1.046428491940851,0.0,0.0,1.4590438525013378,0.0,0.0,-1.046428491940851,0.0,1.0167577758622464,0.0,932.5,2.5661217975592012,543.5,1.0]},{"name":"Willow tree","children":[81],"extras":{"veldrenEntityKey":"overworld:object:9121908"}},{"mesh":4,"matrix":[-0.6786144101428613,0.0,-0.49328864122956395,0.0,0.0,0.8389584025562012,0.0,0.0,0.49328864122956395,0.0,-0.6786144101428613,0.0,942.5,1.8128816244258592,528.5,1.0]},{"name":"Yew tree","children":[83],"extras":{"veldrenEntityKey":"overworld:object:9121912"}},{"mesh":2,"matrix":[0.7535037601365182,0.0,0.3708239564596845,0.0,0.0,0.8398085039009104,0.0,0.0,-0.3708239564596845,0.0,0.7535037601365182,0.0,926.5,2.827465288908739,545.5,1.0]},{"name":"Magic tree","children":[85],"extras":{"veldrenEntityKey":"overworld:object:9122860"}},{"mesh":1,"matrix":[1.0561930158896393,0.0,0.9233958342650475,0.0,0.0,1.4029267812512864,0.0,0.0,-0.9233958342650475,0.0,1.0561930158896393,0.0,937.5,2.0602879358507065,553.5,1.0]},{"name":"Yew tree","children":[87],"extras":{"veldrenEntityKey":"overworld:object:9122862"}},{"mesh":2,"matrix":[-0.4768029951097457,0.0,0.6501103033623425,0.0,0.0,0.8062161637448739,0.0,0.0,-0.6501103033623425,0.0,-0.4768029951097457,0.0,931.5,2.509924118475258,549.5,1.0]},{"name":"Maple tree","children":[89],"extras":{"veldrenEntityKey":"overworld:object:9122864"}},{"mesh":0,"matrix":[-0.6211138213120379,0.0,-0.3784136324274287,0.0,0.0,0.7273096013609082,0.0,0.0,0.3784136324274287,0.0,-0.6211138213120379,0.0,930.5,2.2538532238516766,559.5,1.0]},{"name":"Magic tree","children":[91],"extras":{"veldrenEntityKey":"overworld:object:9122866"}},{"mesh":1,"matrix":[0.6248149450331775,0.0,-1.2561090072184349,0.0,0.0,1.4029267812512864,0.0,0.0,1.2561090072184349,0.0,0.6248149450331775,0.0,942.5,1.5443696500939446,562.5,1.0]},{"name":"Maple tree","children":[93],"extras":{"veldrenEntityKey":"overworld:object:9122867"}},{"mesh":0,"matrix":[-0.6789753447176154,0.0,0.260713899701106,0.0,0.0,0.7273096013609082,0.0,0.0,-0.260713899701106,0.0,-0.6789753447176154,0.0,925.5,2.6609734950262802,552.5,1.0]},{"name":"Yew tree","children":[95],"extras":{"veldrenEntityKey":"overworld:object:9122868"}},{"mesh":2,"matrix":[0.7499031320210662,0.0,0.29602330190121295,0.0,0.0,0.8062161637448739,0.0,0.0,-0.29602330190121295,0.0,0.7499031320210662,0.0,945.5,1.910624406140171,548.5,1.0]},{"name":"Magic tree","children":[97],"extras":{"veldrenEntityKey":"overworld:object:9122869"}},{"mesh":1,"matrix":[-0.6130434320875352,0.0,-1.261895916439399,0.0,0.0,1.4029267812512864,0.0,0.0,1.261895916439399,0.0,-0.6130434320875352,0.0,933.5,1.949601961370033,565.5,1.0]},{"name":"Yew tree","children":[99],"extras":{"veldrenEntityKey":"overworld:object:9122871"}},{"mesh":2,"matrix":[0.6923908890691373,0.0,-0.41301254147731514,0.0,0.0,0.8062161637448739,0.0,0.0,0.41301254147731514,0.0,0.6923908890691373,0.0,947.5,1.4734859269000855,558.5,1.0]},{"name":"Magic tree","children":[101],"extras":{"veldrenEntityKey":"overworld:object:9123800"}},{"mesh":1,"matrix":[0.3593553667794235,0.0,1.4140978339170072,0.0,0.0,1.4590438525013378,0.0,0.0,-1.4140978339170072,0.0,0.3593553667794235,0.0,911.5,3.107510071465685,569.5,1.0]},{"name":"Maple tree","children":[103],"extras":{"veldrenEntityKey":"overworld:object:9123801"}},{"mesh":0,"matrix":[0.3181720776374675,0.0,-0.5911805274013741,0.0,0.0,0.6713627089485306,0.0,0.0,0.5911805274013741,0.0,0.3181720776374675,0.0,918.5,2.76311153090918,566.5,1.0]},{"name":"Yew tree","children":[105],"extras":{"veldrenEntityKey":"overworld:object:9123802"}},{"mesh":2,"matrix":[-0.7932709254860688,0.0,0.2756801806491745,0.0,0.0,0.8398085039009104,0.0,0.0,-0.2756801806491745,0.0,-0.7932709254860688,0.0,914.5,2.914445245922778,575.5,1.0]},{"name":"Maple tree","children":[107],"extras":{"veldrenEntityKey":"overworld:object:9123804"}},{"mesh":0,"matrix":[-0.2738028421978524,0.0,-0.6129925697519402,0.0,0.0,0.6713627089485306,0.0,0.0,0.6129925697519402,0.0,-0.2738028421978524,0.0,923.5,2.391982147855872,571.5,1.0]},{"name":"Yew tree","children":[109],"extras":{"veldrenEntityKey":"overworld:object:9123805"}},{"mesh":2,"matrix":[-0.2661796312062405,0.0,0.7965090879300721,0.0,0.0,0.8398085039009104,0.0,0.0,-0.7965090879300721,0.0,-0.2661796312062405,0.0,906.5,3.3744680421245925,575.5,1.0]},{"name":"Yew tree","children":[111],"extras":{"veldrenEntityKey":"overworld:object:9123808"}},{"mesh":2,"matrix":[0.4681433786188259,0.0,0.6972231352154317,0.0,0.0,0.8398085039009104,0.0,0.0,-0.6972231352154317,0.0,0.4681433786188259,0.0,904.5,3.572091968876042,566.5,1.0]},{"name":"Magic tree","children":[113],"extras":{"veldrenEntityKey":"overworld:object:9123809"}},{"mesh":1,"matrix":[0.21990172412685802,0.0,-1.4423772721614763,0.0,0.0,1.4590438525013378,0.0,0.0,1.4423772721614763,0.0,0.21990172412685802,0.0,925.5,2.413792468601641,564.5,1.0]},{"name":"Maple tree","children":[115],"extras":{"veldrenEntityKey":"overworld:object:9123810"}},{"mesh":0,"matrix":[-0.5233349168883872,0.0,0.4205335322327272,0.0,0.0,0.6713627089485306,0.0,0.0,-0.4205335322327272,0.0,-0.5233349168883872,0.0,909.5,3.0653950801064225,581.5,1.0]},{"name":"Magic tree","children":[117],"extras":{"veldrenEntityKey":"overworld:object:9123820"}},{"mesh":1,"matrix":[-1.253443378095613,0.0,-0.6301454208834284,0.0,0.0,1.4029267812512864,0.0,0.0,0.6301454208834284,0.0,-1.253443378095613,0.0,934.5,1.6659694934332678,575.5,1.0]},{"name":"Maple tree","children":[119],"extras":{"veldrenEntityKey":"overworld:object:9123821"}},{"mesh":0,"matrix":[0.25782717197633354,0.0,0.6800767645071027,0.0,0.0,0.7273096013609082,0.0,0.0,-0.6800767645071027,0.0,0.25782717197633354,0.0,932.5,1.6662934587354101,581.5,1.0]},{"name":"Magic tree","children":[121],"extras":{"veldrenEntityKey":"overworld:object:9123823"}},{"mesh":1,"matrix":[-1.2644888155646234,0.0,0.6076772077872186,0.0,0.0,1.4029267812512864,0.0,0.0,-0.6076772077872186,0.0,-1.2644888155646234,0.0,940.5,1.251258758937928,578.5,1.0]},{"name":"Maple tree","children":[123],"extras":{"veldrenEntityKey":"overworld:object:9123824"}},{"mesh":0,"matrix":[0.6959741489300749,0.0,0.21118532205818905,0.0,0.0,0.7273096013609082,0.0,0.0,-0.21118532205818905,0.0,0.6959741489300749,0.0,926.5,2.032240982963168,581.5,1.0]},{"name":"Magic tree","children":[125],"extras":{"veldrenEntityKey":"overworld:object:9123826"}},{"mesh":1,"matrix":[-0.2910780594859452,0.0,1.372398308377707,0.0,0.0,1.4029267812512864,0.0,0.0,-1.372398308377707,0.0,-0.2910780594859452,0.0,937.5,1.3114834834468099,584.5,1.0]},{"name":"Yew tree","children":[127],"extras":{"veldrenEntityKey":"overworld:object:9123828"}},{"mesh":2,"matrix":[-0.8000869551406198,0.0,-0.09922382222688843,0.0,0.0,0.8062161637448739,0.0,0.0,0.09922382222688843,0.0,-0.8000869551406198,0.0,941.5,1.3885219250541585,572.5,1.0]},{"name":"Magic tree","children":[129],"extras":{"veldrenEntityKey":"overworld:object:9123829"}},{"mesh":1,"matrix":[0.9089488555809238,0.0,1.0686512674816906,0.0,0.0,1.4029267812512864,0.0,0.0,-1.0686512674816906,0.0,0.9089488555809238,0.0,928.5,1.7936949606160388,588.5,1.0]},{"name":"Magic tree","children":[131],"extras":{"veldrenEntityKey":"overworld:object:9123832"}},{"mesh":1,"matrix":[1.4013219589538084,0.0,-0.06708443117412358,0.0,0.0,1.4029267812512864,0.0,0.0,0.06708443117412358,0.0,1.4013219589538084,0.0,919.5,2.4621346324336013,581.5,1.0]},{"name":"Magic tree","children":[133],"extras":{"veldrenEntityKey":"overworld:object:9124744"}},{"mesh":1,"matrix":[0.2559223272047334,0.0,-1.379386572353888,0.0,0.0,1.4029267812512864,0.0,0.0,1.379386572353888,0.0,0.2559223272047334,0.0,902.5,3.152433087697533,604.5,1.0]},{"name":"Magic tree","children":[135],"extras":{"veldrenEntityKey":"overworld:object:9124747"}},{"mesh":1,"matrix":[-0.9359530827142568,0.0,-1.0450815185954514,0.0,0.0,1.4029267812512864,0.0,0.0,1.0450815185954514,0.0,-0.9359530827142568,0.0,904.5,2.904664633413393,612.5,1.0]},{"name":"Maple tree","children":[137],"extras":{"veldrenEntityKey":"overworld:object:9124760"}},{"mesh":0,"matrix":[-0.34960997033943436,0.0,-0.6377712167156989,0.0,0.0,0.7273096013609082,0.0,0.0,0.6377712167156989,0.0,-0.34960997033943436,0.0,908.5,2.812733352039965,603.5,1.0]},{"name":"Maple tree","children":[139],"extras":{"veldrenEntityKey":"overworld:object:9124763"}},{"mesh":0,"matrix":[-0.7185294256269792,0.0,-0.11267085133221671,0.0,0.0,0.7273096013609082,0.0,0.0,0.11267085133221671,0.0,-0.7185294256269792,0.0,914.5,2.422953604411595,605.5,1.0]},{"name":"Magic tree","children":[141],"extras":{"veldrenEntityKey":"overworld:object:9124765"}},{"mesh":1,"matrix":[0.09802666592569104,0.0,-1.3994978836424112,0.0,0.0,1.4029267812512864,0.0,0.0,1.3994978836424112,0.0,0.09802666592569104,0.0,909.5,2.856111484289013,596.5,1.0]},{"name":"Maple tree","children":[143],"extras":{"veldrenEntityKey":"overworld:object:9124766"}},{"mesh":0,"matrix":[-0.5280443732606622,0.0,0.5001483740846486,0.0,0.0,0.7273096013609082,0.0,0.0,-0.5001483740846486,0.0,-0.5280443732606622,0.0,911.5,2.5041507786511175,612.5,1.0]},{"name":"Yew tree","children":[145],"extras":{"veldrenEntityKey":"overworld:object:9124767"}},{"mesh":2,"matrix":[0.8061170431899501,0.0,-0.01264181008374541,0.0,0.0,0.8062161637448739,0.0,0.0,0.01264181008374541,0.0,0.8061170431899501,0.0,897.5,3.563004267612494,600.5,1.0]},{"name":"Yew tree","children":[147],"extras":{"veldrenEntityKey":"overworld:object:9124770"}},{"mesh":2,"matrix":[0.48230923907080026,0.0,-0.6460358353763721,0.0,0.0,0.8062161637448739,0.0,0.0,0.6460358353763721,0.0,0.48230923907080026,0.0,904.5,3.2591688269416696,593.5,1.0]},{"name":"Magic tree","children":[149],"extras":{"veldrenEntityKey":"overworld:object:9124771"}},{"mesh":1,"matrix":[-1.3784939713251283,0.0,0.26068740777485,0.0,0.0,1.4029267812512864,0.0,0.0,-0.26068740777485,0.0,-1.3784939713251283,0.0,917.5,2.181383226809601,610.5,1.0]},{"name":"Magic tree","children":[151],"extras":{"veldrenEntityKey":"overworld:object:9124780"}},{"mesh":1,"matrix":[1.371149387456265,0.0,0.29690555877316344,0.0,0.0,1.4029267812512864,0.0,0.0,-0.29690555877316344,0.0,1.371149387456265,0.0,933.5,1.4136732034390644,593.5,1.0]},{"name":"Yew tree","children":[153],"extras":{"veldrenEntityKey":"overworld:object:9124785"}},{"mesh":2,"matrix":[0.5705265900255407,0.0,0.569634894258884,0.0,0.0,0.8062161637448739,0.0,0.0,-0.569634894258884,0.0,0.5705265900255407,0.0,929.5,1.6525472638878629,598.5,1.0]},{"name":"Magic tree","children":[155],"extras":{"veldrenEntityKey":"overworld:object:9124789"}},{"mesh":1,"matrix":[-1.1471717737114626,0.0,-0.8075892985619557,0.0,0.0,1.4029267812512864,0.0,0.0,0.8075892985619557,0.0,-1.1471717737114626,0.0,946.5,0.7544623554523459,586.5,1.0]},{"name":"Maple tree","children":[157],"extras":{"veldrenEntityKey":"overworld:object:9124790"}},{"mesh":0,"matrix":[0.15503435895805215,0.0,0.7105938388237186,0.0,0.0,0.7273096013609082,0.0,0.0,-0.7105938388237186,0.0,0.15503435895805215,0.0,932.5,1.3540924224895572,604.5,1.0]},{"name":"Yew tree","children":[159],"extras":{"veldrenEntityKey":"overworld:object:9125720"}},{"mesh":2,"matrix":[0.5979116153107565,0.0,0.636655899741665,0.0,0.0,0.8734008440569468,0.0,0.0,-0.636655899741665,0.0,0.5979116153107565,0.0,904.5,2.8134726628130746,621.5,1.0]},{"name":"Maple tree","children":[161],"extras":{"veldrenEntityKey":"overworld:object:9125722"}},{"mesh":0,"matrix":[-0.4669700981932245,0.0,0.5205861939198888,0.0,0.0,0.6993361551547194,0.0,0.0,-0.5205861939198888,0.0,-0.4669700981932245,0.0,908.5,2.4650830063091376,626.5,1.0]},{"name":"Maple tree","children":[163],"extras":{"veldrenEntityKey":"overworld:object:9125725"}},{"mesh":0,"matrix":[0.12702812408142206,0.0,0.6877026345732148,0.0,0.0,0.6993361551547194,0.0,0.0,-0.6877026345732148,0.0,0.12702812408142206,0.0,901.5,2.770571295395719,628.5,1.0]},{"name":"Magic tree","children":[165],"extras":{"veldrenEntityKey":"overworld:object:9125727"}},{"mesh":1,"matrix":[-1.2986369718825679,0.0,0.35698516805784136,0.0,0.0,1.346809710001235,0.0,0.0,-0.35698516805784136,0.0,-1.2986369718825679,0.0,914.5,2.147342581616504,628.5,1.0]},{"name":"Willow tree","children":[167],"extras":{"veldrenEntityKey":"overworld:object:9125745"}},{"mesh":4,"matrix":[-0.7229962873923084,0.0,-0.42559084768894134,0.0,0.0,0.8389584025562012,0.0,0.0,0.42559084768894134,0.0,-0.7229962873923084,0.0,932.5,1.3283561296904078,632.5,1.0]},{"name":"Magic tree","children":[169],"extras":{"veldrenEntityKey":"overworld:object:9125748"}},{"mesh":1,"matrix":[-1.2498415826673284,0.0,0.5017892119099797,0.0,0.0,1.346809710001235,0.0,0.0,-0.5017892119099797,0.0,-1.2498415826673284,0.0,932.5,1.2917777446986622,623.5,1.0]}],"buffers":[{"uri":"../world-parts/133dae8ce562dbc4cbf0d0d2cb7dc4cb2baafed83b6c58ebd4446a3657088e0f.bin","byteLength":180744},{"uri":"../world-parts/883bf022a4c95c0b0a24ce14e7511dc7b18eb62759134961097aa30193af8da4.bin","byteLength":86364},{"uri":"../world-parts/7e2e11a73c6c1f6b77c7c18c44a87655900818e94c168e7a92bb0a48cc87a1c1.bin","byteLength":46872},{"uri":"../world-parts/8480a643e36c0194bf11e79cbc019e38e5ff72b8bc295b144212e5f7a5b37347.bin","byteLength":64668},{"uri":"../world-parts/629e78b439d8b314fb62411e16a47eeeaf0f6f78bb3f3150468167c9e9d3eef3.bin","byteLength":92004}],"bufferViews":[{"buffer":0,"byteOffset":0,"byteLength":21552,"target":34962},{"buffer":0,"byteOffset":21552,"byteLength":21552,"target":34962},{"buffer":0,"byteOffset":43104,"byteLength":14368,"target":34962},{"buffer":0,"byteOffset":57472,"byteLength":21552,"target":34962},{"buffer":0,"byteOffset":79024,"byteLength":21552,"target":34962},{"buffer":0,"byteOffset":100576,"byteLength":21552,"target":34962},{"buffer":0,"byteOffset":122128,"byteLength":21552,"target":34962},{"buffer":0,"byteOffset":143680,"byteLength":7184,"target":34962},{"buffer":0,"byteOffset":150864,"byteLength":17496,"target":34963},{"buffer":0,"byteOffset":168360,"byteLength":12384,"target":34963},{"buffer":1,"byteOffset":0,"byteLength":10260,"target":34962},{"buffer":1,"byteOffset":10260,"byteLength":10260,"target":34962},{"buffer":1,"byteOffset":20520,"byteLength":6840,"target":34962},{"buffer":1,"byteOffset":27360,"byteLength":10260,"target":34962},{"buffer":1,"byteOffset":37620,"byteLength":10260,"target":34962},{"buffer":1,"byteOffset":47880,"byteLength":10260,"target":34962},{"buffer":1,"byteOffset":58140,"byteLength":10260,"target":34962},{"buffer":1,"byteOffset":68400,"byteLength":3420,"target":34962},{"buffer":1,"byteOffset":71820,"byteLength":9072,"target":34963},{"buffer":1,"byteOffset":80892,"byteLength":5472,"target":34963},{"buffer":2,"byteOffset":0,"byteLength":5784,"target":34962},{"buffer":2,"byteOffset":5784,"byteLength":5784,"target":34962},{"buffer":2,"byteOffset":11568,"byteLength":3856,"target":34962},{"buffer":2,"byteOffset":15424,"byteLength":5784,"target":34962},{"buffer":2,"byteOffset":21208,"byteLength":5784,"target":34962},{"buffer":2,"byteOffset":26992,"byteLength":5784,"target":34962},{"buffer":2,"byteOffset":32776,"byteLength":5784,"target":34962},{"buffer":2,"byteOffset":38560,"byteLength":1928,"target":34962},{"buffer":2,"byteOffset":40488,"byteLength":1776,"target":34963},{"buffer":2,"byteOffset":42264,"byteLength":4608,"target":34963},{"buffer":3,"byteOffset":0,"byteLength":7860,"target":34962},{"buffer":3,"byteOffset":7860,"byteLength":7860,"target":34962},{"buffer":3,"byteOffset":15720,"byteLength":5240,"target":34962},{"buffer":3,"byteOffset":20960,"byteLength":7860,"target":34962},{"buffer":3,"byteOffset":28820,"byteLength":7860,"target":34962},{"buffer":3,"byteOffset":36680,"byteLength":7860,"target":34962},{"buffer":3,"byteOffset":44540,"byteLength":7860,"target":34962},{"buffer":3,"byteOffset":52400,"byteLength":2620,"target":34962},{"buffer":3,"byteOffset":55020,"byteLength":5328,"target":34963},{"buffer":3,"byteOffset":60348,"byteLength":4320,"target":34963},{"buffer":4,"byteOffset":0,"byteLength":10956,"target":34962},{"buffer":4,"byteOffset":10956,"byteLength":10956,"target":34962},{"buffer":4,"byteOffset":21912,"byteLength":7304,"target":34962},{"buffer":4,"byteOffset":29216,"byteLength":10956,"target":34962},{"buffer":4,"byteOffset":40172,"byteLength":10956,"target":34962},{"buffer":4,"byteOffset":51128,"byteLength":10956,"target":34962},{"buffer":4,"byteOffset":62084,"byteLength":10956,"target":34962},{"buffer":4,"byteOffset":73040,"byteLength":3652,"target":34962},{"buffer":4,"byteOffset":76692,"byteLength":8112,"target":34963},{"buffer":4,"byteOffset":84804,"byteLength":7200,"target":34963}],"accessors":[{"bufferView":0,"componentType":5126,"count":1796,"type":"VEC3","min":[-4.721841812133789,-0.0018220000201836228,-1.3137749433517456],"max":[4.035912990570068,10.293656349182129,3.0319550037384033]},{"bufferView":1,"componentType":5126,"count":1796,"type":"VEC3"},{"bufferView":2,"componentType":5126,"count":1796,"type":"VEC2"},{"bufferView":3,"componentType":5126,"count":1796,"type":"VEC3"},{"bufferView":4,"componentType":5126,"count":1796,"type":"VEC3"},{"bufferView":5,"componentType":5126,"count":1796,"type":"VEC3"},{"bufferView":6,"componentType":5126,"count":1796,"type":"VEC3"},{"bufferView":7,"componentType":5126,"count":1796,"type":"SCALAR"},{"bufferView":8,"componentType":5125,"count":4374,"type":"SCALAR"},{"bufferView":9,"componentType":5125,"count":3096,"type":"SCALAR"},{"bufferView":10,"componentType":5126,"count":855,"type":"VEC3","min":[-3.2856340408325195,-0.0013800000306218863,-2.3520750999450684],"max":[0.9950600266456604,4.346673011779785,1.6284259557724]},{"bufferView":11,"componentType":5126,"count":855,"type":"VEC3"},{"bufferView":12,"componentType":5126,"count":855,"type":"VEC2"},{"bufferView":13,"componentType":5126,"count":855,"type":"VEC3"},{"bufferView":14,"componentType":5126,"count":855,"type":"VEC3"},{"bufferView":15,"componentType":5126,"count":855,"type":"VEC3"},{"bufferView":16,"componentType":5126,"count":855,"type":"VEC3"},{"bufferView":17,"componentType":5126,"count":855,"type":"SCALAR"},{"bufferView":18,"componentType":5125,"count":2268,"type":"SCALAR"},{"bufferView":19,"componentType":5125,"count":1368,"type":"SCALAR"},{"bufferView":20,"componentType":5126,"count":482,"type":"VEC3","min":[-3.7659718990325928,-0.07409700006246567,-3.4778990745544434],"max":[3.116921901702881,8.022987365722656,3.8158159255981445]},{"bufferView":21,"componentType":5126,"count":482,"type":"VEC3"},{"bufferView":22,"componentType":5126,"count":482,"type":"VEC2"},{"bufferView":23,"componentType":5126,"count":482,"type":"VEC3"},{"bufferView":24,"componentType":5126,"count":482,"type":"VEC3"},{"bufferView":25,"componentType":5126,"count":482,"type":"VEC3"},{"bufferView":26,"componentType":5126,"count":482,"type":"VEC3"},{"bufferView":27,"componentType":5126,"count":482,"type":"SCALAR"},{"bufferView":28,"componentType":5125,"count":444,"type":"SCALAR"},{"bufferView":29,"componentType":5125,"count":1152,"type":"SCALAR"},{"bufferView":30,"componentType":5126,"count":655,"type":"VEC3","min":[-2.3328819274902344,0.011172999627888203,-2.0712060928344727],"max":[1.805098056793213,5.555437088012695,2.05914306640625]},{"bufferView":31,"componentType":5126,"count":655,"type":"VEC3"},{"bufferView":32,"componentType":5126,"count":655,"type":"VEC2"},{"bufferView":33,"componentType":5126,"count":655,"type":"VEC3"},{"bufferView":34,"componentType":5126,"count":655,"type":"VEC3"},{"bufferView":35,"componentType":5126,"count":655,"type":"VEC3"},{"bufferView":36,"componentType":5126,"count":655,"type":"VEC3"},{"bufferView":37,"componentType":5126,"count":655,"type":"SCALAR"},{"bufferView":38,"componentType":5125,"count":1332,"type":"SCALAR"},{"bufferView":39,"componentType":5125,"count":1080,"type":"SCALAR"},{"bufferView":40,"componentType":5126,"count":913,"type":"VEC3","min":[-2.969912052154541,-0.0013800000306218863,-2.3520750999450684],"max":[3.394526958465576,5.491145133972168,2.5843169689178467]},{"bufferView":41,"componentType":5126,"count":913,"type":"VEC3"},{"bufferView":42,"componentType":5126,"count":913,"type":"VEC2"},{"bufferView":43,"componentType":5126,"count":913,"type":"VEC3"},{"bufferView":44,"componentType":5126,"count":913,"type":"VEC3"},{"bufferView":45,"componentType":5126,"count":913,"type":"VEC3"},{"bufferView":46,"componentType":5126,"count":913,"type":"VEC3"},{"bufferView":47,"componentType":5126,"count":913,"type":"SCALAR"},{"bufferView":48,"componentType":5125,"count":2028,"type":"SCALAR"},{"bufferView":49,"componentType":5125,"count":1800,"type":"SCALAR"}],"meshes":[{"name":"133dae8ce562dbc4cbf0d0d2cb7dc4cb2baafed83b6c58ebd4446a3657088e0f","primitives":[{"attributes":{"POSITION":0,"NORMAL":1,"TEXCOORD_0":2,"COLOR_0":3,"_VELDREN_NORMAL":4,"_VELDREN_COLOR":5,"_VELDREN_FALLBACK":6,"_VELDREN_MATERIAL":7},"indices":8,"material":0,"extras":{"mixedAtlasFallback":false}},{"attributes":{"POSITION":0,"NORMAL":1,"TEXCOORD_0":2,"COLOR_0":3,"_VELDREN_NORMAL":4,"_VELDREN_COLOR":5,"_VELDREN_FALLBACK":6,"_VELDREN_MATERIAL":7},"indices":9,"material":1,"extras":{"mixedAtlasFallback":false}}]},{"name":"883bf022a4c95c0b0a24ce14e7511dc7b18eb62759134961097aa30193af8da4","primitives":[{"attributes":{"POSITION":10,"NORMAL":11,"TEXCOORD_0":12,"COLOR_0":13,"_VELDREN_NORMAL":14,"_VELDREN_COLOR":15,"_VELDREN_FALLBACK":16,"_VELDREN_MATERIAL":17},"indices":18,"material":2,"extras":{"mixedAtlasFallback":false}},{"attributes":{"POSITION":10,"NORMAL":11,"TEXCOORD_0":12,"COLOR_0":13,"_VELDREN_NORMAL":14,"_VELDREN_COLOR":15,"_VELDREN_FALLBACK":16,"_VELDREN_MATERIAL":17},"indices":19,"material":3,"extras":{"mixedAtlasFallback":false}}]},{"name":"7e2e11a73c6c1f6b77c7c18c44a87655900818e94c168e7a92bb0a48cc87a1c1","primitives":[{"attributes":{"POSITION":20,"NORMAL":21,"TEXCOORD_0":22,"COLOR_0":23,"_VELDREN_NORMAL":24,"_VELDREN_COLOR":25,"_VELDREN_FALLBACK":26,"_VELDREN_MATERIAL":27},"indices":28,"material":4,"extras":{"mixedAtlasFallback":false}},{"attributes":{"POSITION":20,"NORMAL":21,"TEXCOORD_0":22,"COLOR_0":23,"_VELDREN_NORMAL":24,"_VELDREN_COLOR":25,"_VELDREN_FALLBACK":26,"_VELDREN_MATERIAL":27},"indices":29,"material":5,"extras":{"mixedAtlasFallback":false}}]},{"name":"8480a643e36c0194bf11e79cbc019e38e5ff72b8bc295b144212e5f7a5b37347","primitives":[{"attributes":{"POSITION":30,"NORMAL":31,"TEXCOORD_0":32,"COLOR_0":33,"_VELDREN_NORMAL":34,"_VELDREN_COLOR":35,"_VELDREN_FALLBACK":36,"_VELDREN_MATERIAL":37},"indices":38,"material":6,"extras":{"mixedAtlasFallback":false}},{"attributes":{"POSITION":30,"NORMAL":31,"TEXCOORD_0":32,"COLOR_0":33,"_VELDREN_NORMAL":34,"_VELDREN_COLOR":35,"_VELDREN_FALLBACK":36,"_VELDREN_MATERIAL":37},"indices":39,"material":7,"extras":{"mixedAtlasFallback":false}}]},{"name":"629e78b439d8b314fb62411e16a47eeeaf0f6f78bb3f3150468167c9e9d3eef3","primitives":[{"attributes":{"POSITION":40,"NORMAL":41,"TEXCOORD_0":42,"COLOR_0":43,"_VELDREN_NORMAL":44,"_VELDREN_COLOR":45,"_VELDREN_FALLBACK":46,"_VELDREN_MATERIAL":47},"indices":48,"material":8,"extras":{"mixedAtlasFallback":false}},{"attributes":{"POSITION":40,"NORMAL":41,"TEXCOORD_0":42,"COLOR_0":43,"_VELDREN_NORMAL":44,"_VELDREN_COLOR":45,"_VELDREN_FALLBACK":46,"_VELDREN_MATERIAL":47},"indices":49,"material":9,"extras":{"mixedAtlasFallback":false}}]}],"materials":[{"name":"legacy-material-52","pbrMetallicRoughness":{"baseColorFactor":[1,1,1,1],"metallicFactor":0,"roughnessFactor":1,"baseColorTexture":{"index":0}},"doubleSided":true,"extras":{"legacyMaterial":52,"legacyShader":"dist/renderer-gl.js"}},{"name":"legacy-material-53","pbrMetallicRoughness":{"baseColorFactor":[1,1,1,1],"metallicFactor":0,"roughnessFactor":1,"baseColorTexture":{"index":1}},"doubleSided":true,"extras":{"legacyMaterial":53,"legacyShader":"dist/renderer-gl.js"},"alphaMode":"MASK","alphaCutoff":0.45},{"name":"legacy-material-49","pbrMetallicRoughness":{"baseColorFactor":[1,1,1,1],"metallicFactor":0,"roughnessFactor":1,"baseColorTexture":{"index":2}},"doubleSided":true,"extras":{"legacyMaterial":49,"legacyShader":"dist/renderer-gl.js"}},{"name":"legacy-material-55","pbrMetallicRoughness":{"baseColorFactor":[1,1,1,1],"metallicFactor":0,"roughnessFactor":1,"baseColorTexture":{"index":3}},"doubleSided":true,"extras":{"legacyMaterial":55,"legacyShader":"dist/renderer-gl.js"},"alphaMode":"MASK","alphaCutoff":0.45},{"name":"legacy-material-49","pbrMetallicRoughness":{"baseColorFactor":[1,1,1,1],"metallicFactor":0,"roughnessFactor":1,"baseColorTexture":{"index":4}},"doubleSided":true,"extras":{"legacyMaterial":49,"legacyShader":"dist/renderer-gl.js"}},{"name":"legacy-material-54","pbrMetallicRoughness":{"baseColorFactor":[1,1,1,1],"metallicFactor":0,"roughnessFactor":1,"baseColorTexture":{"index":5}},"doubleSided":true,"extras":{"legacyMaterial":54,"legacyShader":"dist/renderer-gl.js"},"alphaMode":"MASK","alphaCutoff":0.45},{"name":"legacy-material-49","pbrMetallicRoughness":{"baseColorFactor":[1,1,1,1],"metallicFactor":0,"roughnessFactor":1,"baseColorTexture":{"index":6}},"doubleSided":true,"extras":{"legacyMaterial":49,"legacyShader":"dist/renderer-gl.js"}},{"name":"legacy-material-50","pbrMetallicRoughness":{"baseColorFactor":[1,1,1,1],"metallicFactor":0,"roughnessFactor":1,"baseColorTexture":{"index":7}},"doubleSided":true,"extras":{"legacyMaterial":50,"legacyShader":"dist/renderer-gl.js"},"alphaMode":"MASK","alphaCutoff":0.45},{"name":"legacy-material-49","pbrMetallicRoughness":{"baseColorFactor":[1,1,1,1],"metallicFactor":0,"roughnessFactor":1,"baseColorTexture":{"index":8}},"doubleSided":true,"extras":{"legacyMaterial":49,"legacyShader":"dist/renderer-gl.js"}},{"name":"legacy-material-51","pbrMetallicRoughness":{"baseColorFactor":[1,1,1,1],"metallicFactor":0,"roughnessFactor":1,"baseColorTexture":{"index":9}},"doubleSided":true,"extras":{"legacyMaterial":51,"legacyShader":"dist/renderer-gl.js"},"alphaMode":"MASK","alphaCutoff":0.45}],"images":[{"name":"atlas-32","uri":"../../textures/atlas/tile-32.png"},{"name":"atlas-33","uri":"../../textures/atlas/tile-33.png"},{"name":"atlas-29","uri":"../../textures/atlas/tile-29.png"},{"name":"atlas-35","uri":"../../textures/atlas/tile-35.png"},{"name":"atlas-29","uri":"../../textures/atlas/tile-29.png"},{"name":"atlas-34","uri":"../../textures/atlas/tile-34.png"},{"name":"atlas-29","uri":"../../textures/atlas/tile-29.png"},{"name":"atlas-30","uri":"../../textures/atlas/tile-30.png"},{"name":"atlas-29","uri":"../../textures/atlas/tile-29.png"},{"name":"atlas-31","uri":"../../textures/atlas/tile-31.png"}],"textures":[{"source":0,"sampler":0},{"source":1,"sampler":0},{"source":2,"sampler":1},{"source":3,"sampler":1},{"source":4,"sampler":2},{"source":5,"sampler":2},{"source":6,"sampler":3},{"source":7,"sampler":3},{"source":8,"sampler":4},{"source":9,"sampler":4}],"samplers":[{"magFilter":9729,"minFilter":9729,"wrapS":10497,"wrapT":10497},{"magFilter":9729,"minFilter":9729,"wrapS":10497,"wrapT":10497},{"magFilter":9729,"minFilter":9729,"wrapS":10497,"wrapT":10497},{"magFilter":9729,"minFilter":9729,"wrapS":10497,"wrapT":10497},{"magFilter":9729,"minFilter":9729,"wrapS":10497,"wrapT":10497}]}
