{"asset":{"version":"2.0","generator":"Veldren static world recovery"},"scene":0,"scenes":[{"nodes":[0,2,4,6,8,10,12,14,16,18,20,22]}],"extras":{"sourceScene":"overworld","notVervesisScene":true,"gameplayIdentityExternal":true,"limitations":["Terrain stored separately.","Dynamic actors, fires, gates, crops, fish, effects and ground cover are not baked.","Roofs are closed; browser procedural materials require native support."]},"nodes":[{"name":"Iron rock","children":[1],"extras":{"veldrenEntityKey":"overworld:object:552"}},{"mesh":0,"matrix":[1.0,0.0,0.0,0.0,0.0,1.0,0.0,0.0,0.0,0.0,1.0,0.0,1041.5,0.9580851480462389,110.5,1.0]},{"name":"Mountain outcrop","children":[3],"extras":{"veldrenEntityKey":"overworld:object:565"}},{"mesh":1,"matrix":[1.3275531317081868,0.0,0.0,0.0,0.0,1.3275531317081868,0.0,0.0,0.0,0.0,1.3275531317081868,0.0,1051.5,1.1664979211059756,116.5,1.0]},{"name":"Windsteel rock","children":[5],"extras":{"veldrenEntityKey":"overworld:object:578"}},{"mesh":2,"matrix":[1.0,0.0,0.0,0.0,0.0,1.0,0.0,0.0,0.0,0.0,1.0,0.0,1034.5,0.2412349128624584,105.5,1.0]},{"name":"Mountain outcrop","children":[7],"extras":{"veldrenEntityKey":"overworld:object:579"}},{"mesh":1,"matrix":[1.3275531317081868,0.0,0.0,0.0,0.0,1.3275531317081868,0.0,0.0,0.0,0.0,1.3275531317081868,0.0,1042.5,0.8043393784902702,109.5,1.0]},{"name":"Mountain outcrop","children":[9],"extras":{"veldrenEntityKey":"overworld:object:580"}},{"mesh":3,"matrix":[1.2951787154936916,0.0,0.0,0.0,0.0,1.2951787154936916,0.0,0.0,0.0,0.0,1.2951787154936916,0.0,1047.5,0.8896470476577578,112.5,1.0]},{"name":"Mountain outcrop","children":[11],"extras":{"veldrenEntityKey":"overworld:object:581"}},{"mesh":1,"matrix":[1.3275531317081868,0.0,0.0,0.0,0.0,1.3275531317081868,0.0,0.0,0.0,0.0,1.3275531317081868,0.0,1061.5,0.6228182692279883,122.5,1.0]},{"name":"Mountain outcrop","children":[13],"extras":{"veldrenEntityKey":"overworld:object:591"}},{"mesh":1,"matrix":[1.3275531317081868,0.0,0.0,0.0,0.0,1.3275531317081868,0.0,0.0,0.0,0.0,1.3275531317081868,0.0,1038.5,0.3831106227217259,106.5,1.0]},{"name":"Mountain outcrop","children":[15],"extras":{"veldrenEntityKey":"overworld:object:592"}},{"mesh":3,"matrix":[1.2951787154936916,0.0,0.0,0.0,0.0,1.2951787154936916,0.0,0.0,0.0,0.0,1.2951787154936916,0.0,1049.5,1.0747553796387197,114.5,1.0]},{"name":"Mountain outcrop","children":[17],"extras":{"veldrenEntityKey":"overworld:object:603"}},{"mesh":1,"matrix":[1.3275531317081868,0.0,0.0,0.0,0.0,1.3275531317081868,0.0,0.0,0.0,0.0,1.3275531317081868,0.0,1042.5,0.4590794418015285,108.5,1.0]},{"name":"Iron rock","children":[19],"extras":{"veldrenEntityKey":"overworld:object:616"}},{"mesh":0,"matrix":[1.0,0.0,0.0,0.0,0.0,1.0,0.0,0.0,0.0,0.0,1.0,0.0,1062.5,0.7152951020934442,124.5,1.0]},{"name":"Tree","children":[21],"extras":{"veldrenEntityKey":"overworld:object:9105660"}},{"mesh":4,"matrix":[-0.19377170583900818,0.0,0.7009477695094699,0.0,0.0,0.7272380968871612,0.0,0.0,-0.7009477695094699,0.0,-0.19377170583900818,0.0,1033.5,7.665738613365399,126.5,1.0]},{"name":"Maple tree","children":[23],"extras":{"veldrenEntityKey":"overworld:object:9105662"}},{"mesh":5,"matrix":[-0.7150196613193666,0.0,-0.13313955144321865,0.0,0.0,0.7273096013609082,0.0,0.0,0.13313955144321865,0.0,-0.7150196613193666,0.0,1029.5,5.80851659431783,119.5,1.0]}],"buffers":[{"uri":"../world-parts/0ebd686c038365e5ed11b51921b90ade9f303127887d4c318d91c7da438733d9.bin","byteLength":12936},{"uri":"../world-parts/d3a49cf40a43bca59e27ca2096fab65e613b5d5993f180ce0def51f1fdd95647.bin","byteLength":33588},{"uri":"../world-parts/d6cf58b94d56bdd65531ce0bdf248b46e6b1f474d175469428677508901503fb.bin","byteLength":15840},{"uri":"../world-parts/945c10e33683e4b3baa7557ff260c79730a9992e0e5a23b5d9307a2c40355ae1.bin","byteLength":50868},{"uri":"../world-parts/8480a643e36c0194bf11e79cbc019e38e5ff72b8bc295b144212e5f7a5b37347.bin","byteLength":64668},{"uri":"../world-parts/133dae8ce562dbc4cbf0d0d2cb7dc4cb2baafed83b6c58ebd4446a3657088e0f.bin","byteLength":180744}],"bufferViews":[{"buffer":0,"byteOffset":0,"byteLength":1764,"target":34962},{"buffer":0,"byteOffset":1764,"byteLength":1764,"target":34962},{"buffer":0,"byteOffset":3528,"byteLength":1176,"target":34962},{"buffer":0,"byteOffset":4704,"byteLength":1764,"target":34962},{"buffer":0,"byteOffset":6468,"byteLength":1764,"target":34962},{"buffer":0,"byteOffset":8232,"byteLength":1764,"target":34962},{"buffer":0,"byteOffset":9996,"byteLength":1764,"target":34962},{"buffer":0,"byteOffset":11760,"byteLength":588,"target":34962},{"buffer":0,"byteOffset":12348,"byteLength":588,"target":34963},{"buffer":1,"byteOffset":0,"byteLength":4212,"target":34962},{"buffer":1,"byteOffset":4212,"byteLength":4212,"target":34962},{"buffer":1,"byteOffset":8424,"byteLength":2808,"target":34962},{"buffer":1,"byteOffset":11232,"byteLength":4212,"target":34962},{"buffer":1,"byteOffset":15444,"byteLength":4212,"target":34962},{"buffer":1,"byteOffset":19656,"byteLength":4212,"target":34962},{"buffer":1,"byteOffset":23868,"byteLength":4212,"target":34962},{"buffer":1,"byteOffset":28080,"byteLength":1404,"target":34962},{"buffer":1,"byteOffset":29484,"byteLength":4104,"target":34963},{"buffer":2,"byteOffset":0,"byteLength":2160,"target":34962},{"buffer":2,"byteOffset":2160,"byteLength":2160,"target":34962},{"buffer":2,"byteOffset":4320,"byteLength":1440,"target":34962},{"buffer":2,"byteOffset":5760,"byteLength":2160,"target":34962},{"buffer":2,"byteOffset":7920,"byteLength":2160,"target":34962},{"buffer":2,"byteOffset":10080,"byteLength":2160,"target":34962},{"buffer":2,"byteOffset":12240,"byteLength":2160,"target":34962},{"buffer":2,"byteOffset":14400,"byteLength":720,"target":34962},{"buffer":2,"byteOffset":15120,"byteLength":720,"target":34963},{"buffer":3,"byteOffset":0,"byteLength":6372,"target":34962},{"buffer":3,"byteOffset":6372,"byteLength":6372,"target":34962},{"buffer":3,"byteOffset":12744,"byteLength":4248,"target":34962},{"buffer":3,"byteOffset":16992,"byteLength":6372,"target":34962},{"buffer":3,"byteOffset":23364,"byteLength":6372,"target":34962},{"buffer":3,"byteOffset":29736,"byteLength":6372,"target":34962},{"buffer":3,"byteOffset":36108,"byteLength":6372,"target":34962},{"buffer":3,"byteOffset":42480,"byteLength":2124,"target":34962},{"buffer":3,"byteOffset":44604,"byteLength":6264,"target":34963},{"buffer":4,"byteOffset":0,"byteLength":7860,"target":34962},{"buffer":4,"byteOffset":7860,"byteLength":7860,"target":34962},{"buffer":4,"byteOffset":15720,"byteLength":5240,"target":34962},{"buffer":4,"byteOffset":20960,"byteLength":7860,"target":34962},{"buffer":4,"byteOffset":28820,"byteLength":7860,"target":34962},{"buffer":4,"byteOffset":36680,"byteLength":7860,"target":34962},{"buffer":4,"byteOffset":44540,"byteLength":7860,"target":34962},{"buffer":4,"byteOffset":52400,"byteLength":2620,"target":34962},{"buffer":4,"byteOffset":55020,"byteLength":5328,"target":34963},{"buffer":4,"byteOffset":60348,"byteLength":4320,"target":34963},{"buffer":5,"byteOffset":0,"byteLength":21552,"target":34962},{"buffer":5,"byteOffset":21552,"byteLength":21552,"target":34962},{"buffer":5,"byteOffset":43104,"byteLength":14368,"target":34962},{"buffer":5,"byteOffset":57472,"byteLength":21552,"target":34962},{"buffer":5,"byteOffset":79024,"byteLength":21552,"target":34962},{"buffer":5,"byteOffset":100576,"byteLength":21552,"target":34962},{"buffer":5,"byteOffset":122128,"byteLength":21552,"target":34962},{"buffer":5,"byteOffset":143680,"byteLength":7184,"target":34962},{"buffer":5,"byteOffset":150864,"byteLength":17496,"target":34963},{"buffer":5,"byteOffset":168360,"byteLength":12384,"target":34963}],"accessors":[{"bufferView":0,"componentType":5126,"count":147,"type":"VEC3","min":[-0.5247570872306824,0.014999999664723873,-0.38042259216308594],"max":[0.4000000059604645,0.7900000214576721,0.4397660195827484]},{"bufferView":1,"componentType":5126,"count":147,"type":"VEC3"},{"bufferView":2,"componentType":5126,"count":147,"type":"VEC2"},{"bufferView":3,"componentType":5126,"count":147,"type":"VEC3"},{"bufferView":4,"componentType":5126,"count":147,"type":"VEC3"},{"bufferView":5,"componentType":5126,"count":147,"type":"VEC3"},{"bufferView":6,"componentType":5126,"count":147,"type":"VEC3"},{"bufferView":7,"componentType":5126,"count":147,"type":"SCALAR"},{"bufferView":8,"componentType":5125,"count":147,"type":"SCALAR"},{"bufferView":9,"componentType":5126,"count":351,"type":"VEC3","min":[-1.7272872924804688,-0.27113133668899536,-1.1498832702636719],"max":[1.4978611469268799,1.988665223121643,1.8392531871795654]},{"bufferView":10,"componentType":5126,"count":351,"type":"VEC3"},{"bufferView":11,"componentType":5126,"count":351,"type":"VEC2"},{"bufferView":12,"componentType":5126,"count":351,"type":"VEC3"},{"bufferView":13,"componentType":5126,"count":351,"type":"VEC3"},{"bufferView":14,"componentType":5126,"count":351,"type":"VEC3"},{"bufferView":15,"componentType":5126,"count":351,"type":"VEC3"},{"bufferView":16,"componentType":5126,"count":351,"type":"SCALAR"},{"bufferView":17,"componentType":5125,"count":1026,"type":"SCALAR"},{"bufferView":18,"componentType":5126,"count":180,"type":"VEC3","min":[-0.5,0.014999999664723873,-0.31011882424354553],"max":[0.5001188516616821,0.8600000143051147,0.3398558497428894]},{"bufferView":19,"componentType":5126,"count":180,"type":"VEC3"},{"bufferView":20,"componentType":5126,"count":180,"type":"VEC2"},{"bufferView":21,"componentType":5126,"count":180,"type":"VEC3"},{"bufferView":22,"componentType":5126,"count":180,"type":"VEC3"},{"bufferView":23,"componentType":5126,"count":180,"type":"VEC3"},{"bufferView":24,"componentType":5126,"count":180,"type":"VEC3"},{"bufferView":25,"componentType":5126,"count":180,"type":"SCALAR"},{"bufferView":26,"componentType":5125,"count":180,"type":"SCALAR"},{"bufferView":27,"componentType":5126,"count":531,"type":"VEC3","min":[-1.8242793083190918,-0.31564441323280334,-0.8904620409011841],"max":[1.5958054065704346,2.000638246536255,2.5856480598449707]},{"bufferView":28,"componentType":5126,"count":531,"type":"VEC3"},{"bufferView":29,"componentType":5126,"count":531,"type":"VEC2"},{"bufferView":30,"componentType":5126,"count":531,"type":"VEC3"},{"bufferView":31,"componentType":5126,"count":531,"type":"VEC3"},{"bufferView":32,"componentType":5126,"count":531,"type":"VEC3"},{"bufferView":33,"componentType":5126,"count":531,"type":"VEC3"},{"bufferView":34,"componentType":5126,"count":531,"type":"SCALAR"},{"bufferView":35,"componentType":5125,"count":1566,"type":"SCALAR"},{"bufferView":36,"componentType":5126,"count":655,"type":"VEC3","min":[-2.3328819274902344,0.011172999627888203,-2.0712060928344727],"max":[1.805098056793213,5.555437088012695,2.05914306640625]},{"bufferView":37,"componentType":5126,"count":655,"type":"VEC3"},{"bufferView":38,"componentType":5126,"count":655,"type":"VEC2"},{"bufferView":39,"componentType":5126,"count":655,"type":"VEC3"},{"bufferView":40,"componentType":5126,"count":655,"type":"VEC3"},{"bufferView":41,"componentType":5126,"count":655,"type":"VEC3"},{"bufferView":42,"componentType":5126,"count":655,"type":"VEC3"},{"bufferView":43,"componentType":5126,"count":655,"type":"SCALAR"},{"bufferView":44,"componentType":5125,"count":1332,"type":"SCALAR"},{"bufferView":45,"componentType":5125,"count":1080,"type":"SCALAR"},{"bufferView":46,"componentType":5126,"count":1796,"type":"VEC3","min":[-4.721841812133789,-0.0018220000201836228,-1.3137749433517456],"max":[4.035912990570068,10.293656349182129,3.0319550037384033]},{"bufferView":47,"componentType":5126,"count":1796,"type":"VEC3"},{"bufferView":48,"componentType":5126,"count":1796,"type":"VEC2"},{"bufferView":49,"componentType":5126,"count":1796,"type":"VEC3"},{"bufferView":50,"componentType":5126,"count":1796,"type":"VEC3"},{"bufferView":51,"componentType":5126,"count":1796,"type":"VEC3"},{"bufferView":52,"componentType":5126,"count":1796,"type":"VEC3"},{"bufferView":53,"componentType":5126,"count":1796,"type":"SCALAR"},{"bufferView":54,"componentType":5125,"count":4374,"type":"SCALAR"},{"bufferView":55,"componentType":5125,"count":3096,"type":"SCALAR"}],"meshes":[{"name":"0ebd686c038365e5ed11b51921b90ade9f303127887d4c318d91c7da438733d9","primitives":[{"attributes":{"POSITION":0,"NORMAL":1,"TEXCOORD_0":2,"COLOR_0":3,"_VELDREN_NORMAL":4,"_VELDREN_COLOR":5,"_VELDREN_FALLBACK":6,"_VELDREN_MATERIAL":7},"indices":8,"material":0,"extras":{"mixedAtlasFallback":false}}]},{"name":"d3a49cf40a43bca59e27ca2096fab65e613b5d5993f180ce0def51f1fdd95647","primitives":[{"attributes":{"POSITION":9,"NORMAL":10,"TEXCOORD_0":11,"COLOR_0":12,"_VELDREN_NORMAL":13,"_VELDREN_COLOR":14,"_VELDREN_FALLBACK":15,"_VELDREN_MATERIAL":16},"indices":17,"material":1,"extras":{"mixedAtlasFallback":false}}]},{"name":"d6cf58b94d56bdd65531ce0bdf248b46e6b1f474d175469428677508901503fb","primitives":[{"attributes":{"POSITION":18,"NORMAL":19,"TEXCOORD_0":20,"COLOR_0":21,"_VELDREN_NORMAL":22,"_VELDREN_COLOR":23,"_VELDREN_FALLBACK":24,"_VELDREN_MATERIAL":25},"indices":26,"material":2,"extras":{"mixedAtlasFallback":false}}]},{"name":"945c10e33683e4b3baa7557ff260c79730a9992e0e5a23b5d9307a2c40355ae1","primitives":[{"attributes":{"POSITION":27,"NORMAL":28,"TEXCOORD_0":29,"COLOR_0":30,"_VELDREN_NORMAL":31,"_VELDREN_COLOR":32,"_VELDREN_FALLBACK":33,"_VELDREN_MATERIAL":34},"indices":35,"material":3,"extras":{"mixedAtlasFallback":false}}]},{"name":"8480a643e36c0194bf11e79cbc019e38e5ff72b8bc295b144212e5f7a5b37347","primitives":[{"attributes":{"POSITION":36,"NORMAL":37,"TEXCOORD_0":38,"COLOR_0":39,"_VELDREN_NORMAL":40,"_VELDREN_COLOR":41,"_VELDREN_FALLBACK":42,"_VELDREN_MATERIAL":43},"indices":44,"material":4,"extras":{"mixedAtlasFallback":false}},{"attributes":{"POSITION":36,"NORMAL":37,"TEXCOORD_0":38,"COLOR_0":39,"_VELDREN_NORMAL":40,"_VELDREN_COLOR":41,"_VELDREN_FALLBACK":42,"_VELDREN_MATERIAL":43},"indices":45,"material":5,"extras":{"mixedAtlasFallback":false}}]},{"name":"133dae8ce562dbc4cbf0d0d2cb7dc4cb2baafed83b6c58ebd4446a3657088e0f","primitives":[{"attributes":{"POSITION":46,"NORMAL":47,"TEXCOORD_0":48,"COLOR_0":49,"_VELDREN_NORMAL":50,"_VELDREN_COLOR":51,"_VELDREN_FALLBACK":52,"_VELDREN_MATERIAL":53},"indices":54,"material":6,"extras":{"mixedAtlasFallback":false}},{"attributes":{"POSITION":46,"NORMAL":47,"TEXCOORD_0":48,"COLOR_0":49,"_VELDREN_NORMAL":50,"_VELDREN_COLOR":51,"_VELDREN_FALLBACK":52,"_VELDREN_MATERIAL":53},"indices":55,"material":7,"extras":{"mixedAtlasFallback":false}}]}],"materials":[{"name":"legacy-material-12","pbrMetallicRoughness":{"baseColorFactor":[1,1,1,1],"metallicFactor":0,"roughnessFactor":1},"doubleSided":true,"extras":{"legacyMaterial":12,"legacyShader":"dist/renderer-gl.js","limitation":"Browser procedural material not implemented by this glTF export; source/base attributes retained."}},{"name":"legacy-material-33","pbrMetallicRoughness":{"baseColorFactor":[1,1,1,1],"metallicFactor":0,"roughnessFactor":1,"baseColorTexture":{"index":0}},"doubleSided":true,"extras":{"legacyMaterial":33,"legacyShader":"dist/renderer-gl.js"}},{"name":"legacy-material-12","pbrMetallicRoughness":{"baseColorFactor":[1,1,1,1],"metallicFactor":0,"roughnessFactor":1},"doubleSided":true,"extras":{"legacyMaterial":12,"legacyShader":"dist/renderer-gl.js","limitation":"Browser procedural material not implemented by this glTF export; source/base attributes retained."}},{"name":"legacy-material-33","pbrMetallicRoughness":{"baseColorFactor":[1,1,1,1],"metallicFactor":0,"roughnessFactor":1,"baseColorTexture":{"index":1}},"doubleSided":true,"extras":{"legacyMaterial":33,"legacyShader":"dist/renderer-gl.js"}},{"name":"legacy-material-49","pbrMetallicRoughness":{"baseColorFactor":[1,1,1,1],"metallicFactor":0,"roughnessFactor":1,"baseColorTexture":{"index":2}},"doubleSided":true,"extras":{"legacyMaterial":49,"legacyShader":"dist/renderer-gl.js"}},{"name":"legacy-material-50","pbrMetallicRoughness":{"baseColorFactor":[1,1,1,1],"metallicFactor":0,"roughnessFactor":1,"baseColorTexture":{"index":3}},"doubleSided":true,"extras":{"legacyMaterial":50,"legacyShader":"dist/renderer-gl.js"},"alphaMode":"MASK","alphaCutoff":0.45},{"name":"legacy-material-52","pbrMetallicRoughness":{"baseColorFactor":[1,1,1,1],"metallicFactor":0,"roughnessFactor":1,"baseColorTexture":{"index":4}},"doubleSided":true,"extras":{"legacyMaterial":52,"legacyShader":"dist/renderer-gl.js"}},{"name":"legacy-material-53","pbrMetallicRoughness":{"baseColorFactor":[1,1,1,1],"metallicFactor":0,"roughnessFactor":1,"baseColorTexture":{"index":5}},"doubleSided":true,"extras":{"legacyMaterial":53,"legacyShader":"dist/renderer-gl.js"},"alphaMode":"MASK","alphaCutoff":0.45}],"images":[{"name":"atlas-13","uri":"../../textures/atlas/tile-13.png"},{"name":"atlas-13","uri":"../../textures/atlas/tile-13.png"},{"name":"atlas-29","uri":"../../textures/atlas/tile-29.png"},{"name":"atlas-30","uri":"../../textures/atlas/tile-30.png"},{"name":"atlas-32","uri":"../../textures/atlas/tile-32.png"},{"name":"atlas-33","uri":"../../textures/atlas/tile-33.png"}],"textures":[{"source":0,"sampler":0},{"source":1,"sampler":1},{"source":2,"sampler":2},{"source":3,"sampler":2},{"source":4,"sampler":3},{"source":5,"sampler":3}],"samplers":[{"magFilter":9729,"minFilter":9729,"wrapS":10497,"wrapT":10497},{"magFilter":9729,"minFilter":9729,"wrapS":10497,"wrapT":10497},{"magFilter":9729,"minFilter":9729,"wrapS":10497,"wrapT":10497},{"magFilter":9729,"minFilter":9729,"wrapS":10497,"wrapT":10497}]}
