{"asset":{"version":"2.0","generator":"Veldren static world recovery"},"scene":0,"scenes":[{"nodes":[0,2,4,6,8,10,12,14,16,18,20,22,24,26,28,30,32,34,36,38,40,42,44,46,48,50,52,54,56,58,60,62,64,66,68,70,72,74,76,78,80,82,84,86,88,90,92,94,96,98]}],"extras":{"sourceScene":"overworld","notVervesisScene":true,"gameplayIdentityExternal":true,"limitations":["Terrain stored separately.","Dynamic actors, fires, gates, crops, fish, effects and ground cover are not baked.","Roofs are closed; browser procedural materials require native support."]},"nodes":[{"name":"Maple tree","children":[1],"extras":{"veldrenEntityKey":"overworld:object:825"}},{"mesh":0,"matrix":[0.6710925180663573,0.0,0.019045187372806156,0.0,0.0,0.6713627089485306,0.0,0.0,-0.019045187372806156,0.0,0.6710925180663573,0.0,73.5,1.0016595653195284,431.5,1.0]},{"name":"Oak tree","children":[3],"extras":{"veldrenEntityKey":"overworld:object:826"}},{"mesh":1,"matrix":[-0.6879702373727633,0.0,-0.6683914939706732,0.0,0.0,0.9591924920072534,0.0,0.0,0.6683914939706732,0.0,-0.6879702373727633,0.0,102.5,0.8759518284146768,400.5,1.0]},{"name":"Maple tree","children":[5],"extras":{"veldrenEntityKey":"overworld:object:827"}},{"mesh":0,"matrix":[0.0416079330254023,0.0,0.7261184725243649,0.0,0.0,0.7273096013609082,0.0,0.0,-0.7261184725243649,0.0,0.0416079330254023,0.0,107.5,1.3154544083996553,393.5,1.0]},{"name":"Yew tree","children":[7],"extras":{"veldrenEntityKey":"overworld:object:828"}},{"mesh":2,"matrix":[0.5102918186028375,0.0,-0.6241688574019936,0.0,0.0,0.8062161637448739,0.0,0.0,0.6241688574019936,0.0,0.5102918186028375,0.0,120.5,3.4290914086926243,390.5,1.0]},{"name":"Willow tree","children":[9],"extras":{"veldrenEntityKey":"overworld:object:844"}},{"mesh":3,"matrix":[0.0004065789966167747,0.0,-0.8739149080845818,0.0,0.0,0.8739150026627096,0.0,0.0,0.8739149080845818,0.0,0.0004065789966167747,0.0,69.5,0.8419153343371172,435.5,1.0]},{"name":"Yew tree","children":[11],"extras":{"veldrenEntityKey":"overworld:object:845"}},{"mesh":2,"matrix":[-0.5908931511082152,0.0,0.6431751848235372,0.0,0.0,0.8734008440569468,0.0,0.0,-0.6431751848235372,0.0,-0.5908931511082152,0.0,89.5,1.1313233254885695,416.5,1.0]},{"name":"Yew tree","children":[13],"extras":{"veldrenEntityKey":"overworld:object:846"}},{"mesh":2,"matrix":[0.8032954743273109,0.0,-0.06856299008037811,0.0,0.0,0.8062161637448739,0.0,0.0,0.06856299008037811,0.0,0.8032954743273109,0.0,99.5,2.484682428536346,411.5,1.0]},{"name":"Willow tree","children":[15],"extras":{"veldrenEntityKey":"overworld:object:863"}},{"mesh":3,"matrix":[-0.908529423138741,0.0,0.024937474039563513,0.0,0.0,0.9088716027692181,0.0,0.0,-0.024937474039563513,0.0,-0.908529423138741,0.0,65.5,0.7546741973798049,444.5,1.0]},{"name":"Maple tree","children":[17],"extras":{"veldrenEntityKey":"overworld:object:864"}},{"mesh":0,"matrix":[0.5068748118672441,0.0,0.4402338152178399,0.0,0.0,0.6713627089485306,0.0,0.0,-0.4402338152178399,0.0,0.5068748118672441,0.0,70.5,0.8287792175085688,441.5,1.0]},{"name":"Tree","children":[19],"extras":{"veldrenEntityKey":"overworld:object:865"}},{"mesh":4,"matrix":[-0.08545929480102135,0.0,-0.7527038475768566,0.0,0.0,0.7575396842574597,0.0,0.0,0.7527038475768566,0.0,-0.08545929480102135,0.0,74.5,0.9884115056212097,437.5,1.0]},{"name":"Tree","children":[21],"extras":{"veldrenEntityKey":"overworld:object:866"}},{"mesh":4,"matrix":[-0.4638598940197037,0.0,0.6368107002870415,0.0,0.0,0.7878412716277581,0.0,0.0,-0.6368107002870415,0.0,-0.4638598940197037,0.0,78.5,0.8683355482375351,432.5,1.0]},{"name":"Yew tree","children":[23],"extras":{"veldrenEntityKey":"overworld:object:893"}},{"mesh":2,"matrix":[0.8442274748791606,0.0,0.22385040776943751,0.0,0.0,0.8734008440569468,0.0,0.0,-0.22385040776943751,0.0,0.8442274748791606,0.0,64.5,0.494302716840656,451.5,1.0]},{"name":"Tree","children":[25],"extras":{"veldrenEntityKey":"overworld:object:894"}},{"mesh":4,"matrix":[-0.39183705671583996,0.0,-0.6126491414735907,0.0,0.0,0.7272380968871612,0.0,0.0,0.6126491414735907,0.0,-0.39183705671583996,0.0,68.5,0.48649066260812285,448.5,1.0]},{"name":"Maple tree","children":[27],"extras":{"veldrenEntityKey":"overworld:object:895"}},{"mesh":0,"matrix":[-0.12078122741975045,0.0,0.688827230159758,0.0,0.0,0.6993361551547194,0.0,0.0,-0.688827230159758,0.0,-0.12078122741975045,0.0,99.5,0.014497583205052171,453.5,1.0]},{"name":"Tree","children":[29],"extras":{"veldrenEntityKey":"overworld:object:896"}},{"mesh":4,"matrix":[0.6249758410831096,0.0,-0.4796864260561296,0.0,0.0,0.7878412716277581,0.0,0.0,0.4796864260561296,0.0,0.6249758410831096,0.0,120.5,0.2039712648180448,453.5,1.0]},{"name":"Oak tree","children":[31],"extras":{"veldrenEntityKey":"overworld:object:897"}},{"mesh":1,"matrix":[-0.9172642717986685,0.0,-0.08089841683032763,0.0,0.0,0.9208247923269633,0.0,0.0,0.08089841683032763,0.0,-0.9172642717986685,0.0,71.5,0.19704636716460405,453.5,1.0]},{"name":"Tree","children":[33],"extras":{"veldrenEntityKey":"overworld:object:898"}},{"mesh":4,"matrix":[0.5109318403631435,0.0,0.5592986927644502,0.0,0.0,0.7575396842574597,0.0,0.0,-0.5592986927644502,0.0,0.5109318403631435,0.0,80.5,-0.008463990892208598,474.5,1.0]},{"name":"Tree","children":[35],"extras":{"veldrenEntityKey":"overworld:object:899"}},{"mesh":4,"matrix":[0.001856695449563901,0.0,-0.7878390837995094,0.0,0.0,0.7878412716277581,0.0,0.0,0.7878390837995094,0.0,0.001856695449563901,0.0,99.5,-0.00880255052789694,474.5,1.0]},{"name":"Willow tree","children":[37],"extras":{"veldrenEntityKey":"overworld:object:900"}},{"mesh":3,"matrix":[-0.568758905751875,0.0,0.6167369847411316,0.0,0.0,0.8389584025562012,0.0,0.0,-0.6167369847411316,0.0,-0.568758905751875,0.0,120.5,0.0011577625955275577,474.5,1.0]},{"name":"Yew tree","children":[39],"extras":{"veldrenEntityKey":"overworld:object:929"}},{"mesh":2,"matrix":[-0.24890358006712093,0.0,0.8371833982044541,0.0,0.0,0.8734008440569468,0.0,0.0,-0.8371833982044541,0.0,-0.24890358006712093,0.0,71.5,0.06471638234208758,461.5,1.0]},{"name":"Tree","children":[41],"extras":{"veldrenEntityKey":"overworld:object:930"}},{"mesh":4,"matrix":[0.6240513926306577,0.0,-0.37341010821856013,0.0,0.0,0.7272380968871612,0.0,0.0,0.37341010821856013,0.0,0.6240513926306577,0.0,77.5,-0.008125431256520254,472.5,1.0]},{"name":"Oak tree","children":[43],"extras":{"veldrenEntityKey":"overworld:object:931"}},{"mesh":1,"matrix":[-0.9394236733588326,0.0,-0.19373538307723306,0.0,0.0,0.9591924920072534,0.0,0.0,0.19373538307723306,0.0,-0.9394236733588326,0.0,87.5,-0.010717057713197043,484.5,1.0]},{"name":"Willow tree","children":[45],"extras":{"veldrenEntityKey":"overworld:object:932"}},{"mesh":3,"matrix":[0.5316507551834116,0.0,0.7371533523176813,0.0,0.0,0.9088716027692181,0.0,0.0,-0.7371533523176813,0.0,0.5316507551834116,0.0,99.5,0.0012542428118215208,495.5,1.0]},{"name":"Tree","children":[47],"extras":{"veldrenEntityKey":"overworld:object:960"}},{"mesh":4,"matrix":[-0.7041625893693944,0.0,0.18174239267889558,0.0,0.0,0.7272380968871612,0.0,0.0,-0.18174239267889558,0.0,-0.7041625893693944,0.0,76.5,-0.008125431256520254,460.5,1.0]},{"name":"Oak tree","children":[49],"extras":{"veldrenEntityKey":"overworld:object:961"}},{"mesh":1,"matrix":[0.8463235617061341,0.0,0.45142736472673906,0.0,0.0,0.9591924920072534,0.0,0.0,-0.45142736472673906,0.0,0.8463235617061341,0.0,84.5,-0.010717057713197043,478.5,1.0]},{"name":"Willow tree","children":[51],"extras":{"veldrenEntityKey":"overworld:object:962"}},{"mesh":3,"matrix":[-0.30155065799950276,0.0,-0.8573883548196548,0.0,0.0,0.9088716027692181,0.0,0.0,0.8573883548196548,0.0,-0.30155065799950276,0.0,90.5,0.0012542428118215208,489.5,1.0]},{"name":"Willow tree","children":[53],"extras":{"veldrenEntityKey":"overworld:object:980"}},{"mesh":3,"matrix":[0.4052021555610706,0.0,-0.8135470505440661,0.0,0.0,0.9088716027692181,0.0,0.0,0.8135470505440661,0.0,0.4052021555610706,0.0,96.5,0.0012542428118215208,489.5,1.0]},{"name":"Maple tree","children":[55],"extras":{"veldrenEntityKey":"overworld:object:981"}},{"mesh":0,"matrix":[-0.6268712812167462,0.0,0.2403336925035365,0.0,0.0,0.6713627089485306,0.0,0.0,-0.2403336925035365,0.0,-0.6268712812167462,0.0,93.5,0.0012232228557042227,494.5,1.0]},{"name":"Old-growth oak","children":[57],"extras":{"veldrenEntityKey":"overworld:object:6806086"}},{"mesh":4,"matrix":[0.5192980524115585,0.0,-0.5515395778966854,0.0,0.0,0.7575396842574597,0.0,0.0,0.5515395778966854,0.0,0.5192980524115585,0.0,127.5,3.4690303148742285,384.5,1.0]},{"name":"Willow tree","children":[59],"extras":{"veldrenEntityKey":"overworld:object:9115467"}},{"mesh":3,"matrix":[0.5170856040297345,0.0,-0.660661546727867,0.0,0.0,0.8389584025562012,0.0,0.0,0.660661546727867,0.0,0.5170856040297345,0.0,110.5,1.9768988478800795,388.5,1.0]},{"name":"Yew tree","children":[61],"extras":{"veldrenEntityKey":"overworld:object:9118307"}},{"mesh":2,"matrix":[-0.8724049630997597,0.0,-0.04169669960912964,0.0,0.0,0.8734008440569468,0.0,0.0,0.04169669960912964,0.0,-0.8724049630997597,0.0,78.5,0.3102587547751428,450.5,1.0]},{"name":"Yew tree","children":[63],"extras":{"veldrenEntityKey":"overworld:object:9118320"}},{"mesh":2,"matrix":[-0.7755526910675091,0.0,-0.22023289050785802,0.0,0.0,0.8062161637448739,0.0,0.0,0.22023289050785802,0.0,-0.7755526910675091,0.0,89.5,0.05973819908500392,455.5,1.0]},{"name":"Magic tree","children":[65],"extras":{"veldrenEntityKey":"overworld:object:9118321"}},{"mesh":5,"matrix":[0.7351070702399319,0.0,1.1949147035815397,0.0,0.0,1.4029267812512864,0.0,0.0,-1.1949147035815397,0.0,0.7351070702399319,0.0,92.5,0.0019360389581267751,460.5,1.0]},{"name":"Magic tree","children":[67],"extras":{"veldrenEntityKey":"overworld:object:9118324"}},{"mesh":5,"matrix":[1.3951319822417878,0.0,0.14768312590880045,0.0,0.0,1.4029267812512864,0.0,0.0,-0.14768312590880045,0.0,1.3951319822417878,0.0,86.5,0.0019360389581267751,465.5,1.0]},{"name":"Maple tree","children":[69],"extras":{"veldrenEntityKey":"overworld:object:9118325"}},{"mesh":0,"matrix":[-0.48107343931906205,0.0,-0.5454792408639323,0.0,0.0,0.7273096013609082,0.0,0.0,0.5454792408639323,0.0,-0.48107343931906205,0.0,86.5,0.2657655927571365,448.5,1.0]},{"name":"Yew tree","children":[71],"extras":{"veldrenEntityKey":"overworld:object:9118326"}},{"mesh":2,"matrix":[-0.01600415541566545,0.0,0.8060572992616173,0.0,0.0,0.8062161637448739,0.0,0.0,-0.8060572992616173,0.0,-0.01600415541566545,0.0,98.5,0.05973819908500392,461.5,1.0]},{"name":"Maple tree","children":[73],"extras":{"veldrenEntityKey":"overworld:object:9118328"}},{"mesh":0,"matrix":[-0.7257376462021283,0.0,0.047792521556803094,0.0,0.0,0.7273096013609082,0.0,0.0,-0.047792521556803094,0.0,-0.7257376462021283,0.0,94.5,0.22665135441716228,448.5,1.0]},{"name":"Yew tree","children":[75],"extras":{"veldrenEntityKey":"overworld:object:9118340"}},{"mesh":2,"matrix":[0.730842339681888,0.0,-0.47822432908384205,0.0,0.0,0.8734008440569468,0.0,0.0,0.47822432908384205,0.0,0.730842339681888,0.0,117.5,0.06471638234208758,464.5,1.0]},{"name":"Magic tree","children":[77],"extras":{"veldrenEntityKey":"overworld:object:9118341"}},{"mesh":5,"matrix":[-1.328920908846731,0.0,-0.21878211303392514,0.0,0.0,1.346809710001235,0.0,0.0,0.21878211303392514,0.0,-1.328920908846731,0.0,114.5,0.0054018868970181575,457.5,1.0]},{"name":"Maple tree","children":[79],"extras":{"veldrenEntityKey":"overworld:object:9118342"}},{"mesh":0,"matrix":[0.4315515198950704,0.0,0.5503038647718553,0.0,0.0,0.6993361551547194,0.0,0.0,-0.5503038647718553,0.0,0.4315515198950704,0.0,124.5,0.06622113104295974,463.5,1.0]},{"name":"Yew tree","children":[81],"extras":{"veldrenEntityKey":"overworld:object:9118343"}},{"mesh":2,"matrix":[0.06767024256658273,0.0,-0.8707753858891322,0.0,0.0,0.8734008440569468,0.0,0.0,0.8707753858891322,0.0,0.06767024256658273,0.0,111.5,0.06471638234208758,466.5,1.0]},{"name":"Willow tree","children":[83],"extras":{"veldrenEntityKey":"overworld:object:9118347"}},{"mesh":3,"matrix":[0.07846643184700416,0.0,0.8352809229791212,0.0,0.0,0.8389584025562012,0.0,0.0,-0.8352809229791212,0.0,0.07846643184700416,0.0,127.5,0.25496649867661936,457.5,1.0]},{"name":"Willow tree","children":[85],"extras":{"veldrenEntityKey":"overworld:object:9118349"}},{"mesh":3,"matrix":[-0.8943051147638975,0.0,0.16206773900878435,0.0,0.0,0.9088716027692181,0.0,0.0,-0.16206773900878435,0.0,-0.8943051147638975,0.0,114.5,0.1932508220310588,451.5,1.0]},{"name":"Maple tree","children":[87],"extras":{"veldrenEntityKey":"overworld:object:9119281"}},{"mesh":0,"matrix":[-0.5036680710901713,0.0,-0.48516959104100077,0.0,0.0,0.6993361551547194,0.0,0.0,0.48516959104100077,0.0,-0.5036680710901713,0.0,91.5,0.0012741904746918988,471.5,1.0]},{"name":"Maple tree","children":[89],"extras":{"veldrenEntityKey":"overworld:object:9119300"}},{"mesh":0,"matrix":[-0.48976395951061896,0.0,0.5376899852110358,0.0,0.0,0.7273096013609082,0.0,0.0,-0.5376899852110358,0.0,-0.48976395951061896,0.0,115.5,0.0013251580936795746,485.5,1.0]},{"name":"Yew tree","children":[91],"extras":{"veldrenEntityKey":"overworld:object:9119301"}},{"mesh":2,"matrix":[0.8029952895997272,0.0,-0.07199352445985348,0.0,0.0,0.8062161637448739,0.0,0.0,0.07199352445985348,0.0,0.8029952895997272,0.0,110.5,0.05973819908500392,480.5,1.0]},{"name":"Magic tree","children":[93],"extras":{"veldrenEntityKey":"overworld:object:9119302"}},{"mesh":5,"matrix":[-1.1141455487249392,0.0,-0.8525744834373702,0.0,0.0,1.4029267812512864,0.0,0.0,0.8525744834373702,0.0,-1.1141455487249392,0.0,121.5,0.0019360389581267751,481.5,1.0]},{"name":"Yew tree","children":[95],"extras":{"veldrenEntityKey":"overworld:object:9119304"}},{"mesh":2,"matrix":[0.43340567532812874,0.0,-0.6798117557654252,0.0,0.0,0.8062161637448739,0.0,0.0,0.6798117557654252,0.0,0.43340567532812874,0.0,113.5,0.05973819908500392,474.5,1.0]},{"name":"Magic tree","children":[97],"extras":{"veldrenEntityKey":"overworld:object:9119305"}},{"mesh":5,"matrix":[-1.355543571414094,0.0,0.3615317130626552,0.0,0.0,1.4029267812512864,0.0,0.0,-0.3615317130626552,0.0,-1.355543571414094,0.0,122.5,0.0019360389581267751,489.5,1.0]},{"name":"Magic tree","children":[99],"extras":{"veldrenEntityKey":"overworld:object:9119308"}},{"mesh":5,"matrix":[-0.5415955538091036,0.0,1.2941707034415149,0.0,0.0,1.4029267812512864,0.0,0.0,-1.2941707034415149,0.0,-0.5415955538091036,0.0,114.5,0.0019360389581267751,493.5,1.0]}],"buffers":[{"uri":"../world-parts/133dae8ce562dbc4cbf0d0d2cb7dc4cb2baafed83b6c58ebd4446a3657088e0f.bin","byteLength":180744},{"uri":"../world-parts/cf73d73e4a52b629e942c4cf3ba67a960257f3fda86af0eadf8051aa3c1f7c97.bin","byteLength":133656},{"uri":"../world-parts/7e2e11a73c6c1f6b77c7c18c44a87655900818e94c168e7a92bb0a48cc87a1c1.bin","byteLength":46872},{"uri":"../world-parts/629e78b439d8b314fb62411e16a47eeeaf0f6f78bb3f3150468167c9e9d3eef3.bin","byteLength":92004},{"uri":"../world-parts/8480a643e36c0194bf11e79cbc019e38e5ff72b8bc295b144212e5f7a5b37347.bin","byteLength":64668},{"uri":"../world-parts/883bf022a4c95c0b0a24ce14e7511dc7b18eb62759134961097aa30193af8da4.bin","byteLength":86364}],"bufferViews":[{"buffer":0,"byteOffset":0,"byteLength":21552,"target":34962},{"buffer":0,"byteOffset":21552,"byteLength":21552,"target":34962},{"buffer":0,"byteOffset":43104,"byteLength":14368,"target":34962},{"buffer":0,"byteOffset":57472,"byteLength":21552,"target":34962},{"buffer":0,"byteOffset":79024,"byteLength":21552,"target":34962},{"buffer":0,"byteOffset":100576,"byteLength":21552,"target":34962},{"buffer":0,"byteOffset":122128,"byteLength":21552,"target":34962},{"buffer":0,"byteOffset":143680,"byteLength":7184,"target":34962},{"buffer":0,"byteOffset":150864,"byteLength":17496,"target":34963},{"buffer":0,"byteOffset":168360,"byteLength":12384,"target":34963},{"buffer":1,"byteOffset":0,"byteLength":15912,"target":34962},{"buffer":1,"byteOffset":15912,"byteLength":15912,"target":34962},{"buffer":1,"byteOffset":31824,"byteLength":10608,"target":34962},{"buffer":1,"byteOffset":42432,"byteLength":15912,"target":34962},{"buffer":1,"byteOffset":58344,"byteLength":15912,"target":34962},{"buffer":1,"byteOffset":74256,"byteLength":15912,"target":34962},{"buffer":1,"byteOffset":90168,"byteLength":15912,"target":34962},{"buffer":1,"byteOffset":106080,"byteLength":5304,"target":34962},{"buffer":1,"byteOffset":111384,"byteLength":10464,"target":34963},{"buffer":1,"byteOffset":121848,"byteLength":11808,"target":34963},{"buffer":2,"byteOffset":0,"byteLength":5784,"target":34962},{"buffer":2,"byteOffset":5784,"byteLength":5784,"target":34962},{"buffer":2,"byteOffset":11568,"byteLength":3856,"target":34962},{"buffer":2,"byteOffset":15424,"byteLength":5784,"target":34962},{"buffer":2,"byteOffset":21208,"byteLength":5784,"target":34962},{"buffer":2,"byteOffset":26992,"byteLength":5784,"target":34962},{"buffer":2,"byteOffset":32776,"byteLength":5784,"target":34962},{"buffer":2,"byteOffset":38560,"byteLength":1928,"target":34962},{"buffer":2,"byteOffset":40488,"byteLength":1776,"target":34963},{"buffer":2,"byteOffset":42264,"byteLength":4608,"target":34963},{"buffer":3,"byteOffset":0,"byteLength":10956,"target":34962},{"buffer":3,"byteOffset":10956,"byteLength":10956,"target":34962},{"buffer":3,"byteOffset":21912,"byteLength":7304,"target":34962},{"buffer":3,"byteOffset":29216,"byteLength":10956,"target":34962},{"buffer":3,"byteOffset":40172,"byteLength":10956,"target":34962},{"buffer":3,"byteOffset":51128,"byteLength":10956,"target":34962},{"buffer":3,"byteOffset":62084,"byteLength":10956,"target":34962},{"buffer":3,"byteOffset":73040,"byteLength":3652,"target":34962},{"buffer":3,"byteOffset":76692,"byteLength":8112,"target":34963},{"buffer":3,"byteOffset":84804,"byteLength":7200,"target":34963},{"buffer":4,"byteOffset":0,"byteLength":7860,"target":34962},{"buffer":4,"byteOffset":7860,"byteLength":7860,"target":34962},{"buffer":4,"byteOffset":15720,"byteLength":5240,"target":34962},{"buffer":4,"byteOffset":20960,"byteLength":7860,"target":34962},{"buffer":4,"byteOffset":28820,"byteLength":7860,"target":34962},{"buffer":4,"byteOffset":36680,"byteLength":7860,"target":34962},{"buffer":4,"byteOffset":44540,"byteLength":7860,"target":34962},{"buffer":4,"byteOffset":52400,"byteLength":2620,"target":34962},{"buffer":4,"byteOffset":55020,"byteLength":5328,"target":34963},{"buffer":4,"byteOffset":60348,"byteLength":4320,"target":34963},{"buffer":5,"byteOffset":0,"byteLength":10260,"target":34962},{"buffer":5,"byteOffset":10260,"byteLength":10260,"target":34962},{"buffer":5,"byteOffset":20520,"byteLength":6840,"target":34962},{"buffer":5,"byteOffset":27360,"byteLength":10260,"target":34962},{"buffer":5,"byteOffset":37620,"byteLength":10260,"target":34962},{"buffer":5,"byteOffset":47880,"byteLength":10260,"target":34962},{"buffer":5,"byteOffset":58140,"byteLength":10260,"target":34962},{"buffer":5,"byteOffset":68400,"byteLength":3420,"target":34962},{"buffer":5,"byteOffset":71820,"byteLength":9072,"target":34963},{"buffer":5,"byteOffset":80892,"byteLength":5472,"target":34963}],"accessors":[{"bufferView":0,"componentType":5126,"count":1796,"type":"VEC3","min":[-4.721841812133789,-0.0018220000201836228,-1.3137749433517456],"max":[4.035912990570068,10.293656349182129,3.0319550037384033]},{"bufferView":1,"componentType":5126,"count":1796,"type":"VEC3"},{"bufferView":2,"componentType":5126,"count":1796,"type":"VEC2"},{"bufferView":3,"componentType":5126,"count":1796,"type":"VEC3"},{"bufferView":4,"componentType":5126,"count":1796,"type":"VEC3"},{"bufferView":5,"componentType":5126,"count":1796,"type":"VEC3"},{"bufferView":6,"componentType":5126,"count":1796,"type":"VEC3"},{"bufferView":7,"componentType":5126,"count":1796,"type":"SCALAR"},{"bufferView":8,"componentType":5125,"count":4374,"type":"SCALAR"},{"bufferView":9,"componentType":5125,"count":3096,"type":"SCALAR"},{"bufferView":10,"componentType":5126,"count":1326,"type":"VEC3","min":[-3.6411149501800537,0.011172999627888203,-2.5864460468292236],"max":[3.095597982406616,6.3706889152526855,2.3982579708099365]},{"bufferView":11,"componentType":5126,"count":1326,"type":"VEC3"},{"bufferView":12,"componentType":5126,"count":1326,"type":"VEC2"},{"bufferView":13,"componentType":5126,"count":1326,"type":"VEC3"},{"bufferView":14,"componentType":5126,"count":1326,"type":"VEC3"},{"bufferView":15,"componentType":5126,"count":1326,"type":"VEC3"},{"bufferView":16,"componentType":5126,"count":1326,"type":"VEC3"},{"bufferView":17,"componentType":5126,"count":1326,"type":"SCALAR"},{"bufferView":18,"componentType":5125,"count":2616,"type":"SCALAR"},{"bufferView":19,"componentType":5125,"count":2952,"type":"SCALAR"},{"bufferView":20,"componentType":5126,"count":482,"type":"VEC3","min":[-3.7659718990325928,-0.07409700006246567,-3.4778990745544434],"max":[3.116921901702881,8.022987365722656,3.8158159255981445]},{"bufferView":21,"componentType":5126,"count":482,"type":"VEC3"},{"bufferView":22,"componentType":5126,"count":482,"type":"VEC2"},{"bufferView":23,"componentType":5126,"count":482,"type":"VEC3"},{"bufferView":24,"componentType":5126,"count":482,"type":"VEC3"},{"bufferView":25,"componentType":5126,"count":482,"type":"VEC3"},{"bufferView":26,"componentType":5126,"count":482,"type":"VEC3"},{"bufferView":27,"componentType":5126,"count":482,"type":"SCALAR"},{"bufferView":28,"componentType":5125,"count":444,"type":"SCALAR"},{"bufferView":29,"componentType":5125,"count":1152,"type":"SCALAR"},{"bufferView":30,"componentType":5126,"count":913,"type":"VEC3","min":[-2.969912052154541,-0.0013800000306218863,-2.3520750999450684],"max":[3.394526958465576,5.491145133972168,2.5843169689178467]},{"bufferView":31,"componentType":5126,"count":913,"type":"VEC3"},{"bufferView":32,"componentType":5126,"count":913,"type":"VEC2"},{"bufferView":33,"componentType":5126,"count":913,"type":"VEC3"},{"bufferView":34,"componentType":5126,"count":913,"type":"VEC3"},{"bufferView":35,"componentType":5126,"count":913,"type":"VEC3"},{"bufferView":36,"componentType":5126,"count":913,"type":"VEC3"},{"bufferView":37,"componentType":5126,"count":913,"type":"SCALAR"},{"bufferView":38,"componentType":5125,"count":2028,"type":"SCALAR"},{"bufferView":39,"componentType":5125,"count":1800,"type":"SCALAR"},{"bufferView":40,"componentType":5126,"count":655,"type":"VEC3","min":[-2.3328819274902344,0.011172999627888203,-2.0712060928344727],"max":[1.805098056793213,5.555437088012695,2.05914306640625]},{"bufferView":41,"componentType":5126,"count":655,"type":"VEC3"},{"bufferView":42,"componentType":5126,"count":655,"type":"VEC2"},{"bufferView":43,"componentType":5126,"count":655,"type":"VEC3"},{"bufferView":44,"componentType":5126,"count":655,"type":"VEC3"},{"bufferView":45,"componentType":5126,"count":655,"type":"VEC3"},{"bufferView":46,"componentType":5126,"count":655,"type":"VEC3"},{"bufferView":47,"componentType":5126,"count":655,"type":"SCALAR"},{"bufferView":48,"componentType":5125,"count":1332,"type":"SCALAR"},{"bufferView":49,"componentType":5125,"count":1080,"type":"SCALAR"},{"bufferView":50,"componentType":5126,"count":855,"type":"VEC3","min":[-3.2856340408325195,-0.0013800000306218863,-2.3520750999450684],"max":[0.9950600266456604,4.346673011779785,1.6284259557724]},{"bufferView":51,"componentType":5126,"count":855,"type":"VEC3"},{"bufferView":52,"componentType":5126,"count":855,"type":"VEC2"},{"bufferView":53,"componentType":5126,"count":855,"type":"VEC3"},{"bufferView":54,"componentType":5126,"count":855,"type":"VEC3"},{"bufferView":55,"componentType":5126,"count":855,"type":"VEC3"},{"bufferView":56,"componentType":5126,"count":855,"type":"VEC3"},{"bufferView":57,"componentType":5126,"count":855,"type":"SCALAR"},{"bufferView":58,"componentType":5125,"count":2268,"type":"SCALAR"},{"bufferView":59,"componentType":5125,"count":1368,"type":"SCALAR"}],"meshes":[{"name":"133dae8ce562dbc4cbf0d0d2cb7dc4cb2baafed83b6c58ebd4446a3657088e0f","primitives":[{"attributes":{"POSITION":0,"NORMAL":1,"TEXCOORD_0":2,"COLOR_0":3,"_VELDREN_NORMAL":4,"_VELDREN_COLOR":5,"_VELDREN_FALLBACK":6,"_VELDREN_MATERIAL":7},"indices":8,"material":0,"extras":{"mixedAtlasFallback":false}},{"attributes":{"POSITION":0,"NORMAL":1,"TEXCOORD_0":2,"COLOR_0":3,"_VELDREN_NORMAL":4,"_VELDREN_COLOR":5,"_VELDREN_FALLBACK":6,"_VELDREN_MATERIAL":7},"indices":9,"material":1,"extras":{"mixedAtlasFallback":false}}]},{"name":"cf73d73e4a52b629e942c4cf3ba67a960257f3fda86af0eadf8051aa3c1f7c97","primitives":[{"attributes":{"POSITION":10,"NORMAL":11,"TEXCOORD_0":12,"COLOR_0":13,"_VELDREN_NORMAL":14,"_VELDREN_COLOR":15,"_VELDREN_FALLBACK":16,"_VELDREN_MATERIAL":17},"indices":18,"material":2,"extras":{"mixedAtlasFallback":false}},{"attributes":{"POSITION":10,"NORMAL":11,"TEXCOORD_0":12,"COLOR_0":13,"_VELDREN_NORMAL":14,"_VELDREN_COLOR":15,"_VELDREN_FALLBACK":16,"_VELDREN_MATERIAL":17},"indices":19,"material":3,"extras":{"mixedAtlasFallback":false}}]},{"name":"7e2e11a73c6c1f6b77c7c18c44a87655900818e94c168e7a92bb0a48cc87a1c1","primitives":[{"attributes":{"POSITION":20,"NORMAL":21,"TEXCOORD_0":22,"COLOR_0":23,"_VELDREN_NORMAL":24,"_VELDREN_COLOR":25,"_VELDREN_FALLBACK":26,"_VELDREN_MATERIAL":27},"indices":28,"material":4,"extras":{"mixedAtlasFallback":false}},{"attributes":{"POSITION":20,"NORMAL":21,"TEXCOORD_0":22,"COLOR_0":23,"_VELDREN_NORMAL":24,"_VELDREN_COLOR":25,"_VELDREN_FALLBACK":26,"_VELDREN_MATERIAL":27},"indices":29,"material":5,"extras":{"mixedAtlasFallback":false}}]},{"name":"629e78b439d8b314fb62411e16a47eeeaf0f6f78bb3f3150468167c9e9d3eef3","primitives":[{"attributes":{"POSITION":30,"NORMAL":31,"TEXCOORD_0":32,"COLOR_0":33,"_VELDREN_NORMAL":34,"_VELDREN_COLOR":35,"_VELDREN_FALLBACK":36,"_VELDREN_MATERIAL":37},"indices":38,"material":6,"extras":{"mixedAtlasFallback":false}},{"attributes":{"POSITION":30,"NORMAL":31,"TEXCOORD_0":32,"COLOR_0":33,"_VELDREN_NORMAL":34,"_VELDREN_COLOR":35,"_VELDREN_FALLBACK":36,"_VELDREN_MATERIAL":37},"indices":39,"material":7,"extras":{"mixedAtlasFallback":false}}]},{"name":"8480a643e36c0194bf11e79cbc019e38e5ff72b8bc295b144212e5f7a5b37347","primitives":[{"attributes":{"POSITION":40,"NORMAL":41,"TEXCOORD_0":42,"COLOR_0":43,"_VELDREN_NORMAL":44,"_VELDREN_COLOR":45,"_VELDREN_FALLBACK":46,"_VELDREN_MATERIAL":47},"indices":48,"material":8,"extras":{"mixedAtlasFallback":false}},{"attributes":{"POSITION":40,"NORMAL":41,"TEXCOORD_0":42,"COLOR_0":43,"_VELDREN_NORMAL":44,"_VELDREN_COLOR":45,"_VELDREN_FALLBACK":46,"_VELDREN_MATERIAL":47},"indices":49,"material":9,"extras":{"mixedAtlasFallback":false}}]},{"name":"883bf022a4c95c0b0a24ce14e7511dc7b18eb62759134961097aa30193af8da4","primitives":[{"attributes":{"POSITION":50,"NORMAL":51,"TEXCOORD_0":52,"COLOR_0":53,"_VELDREN_NORMAL":54,"_VELDREN_COLOR":55,"_VELDREN_FALLBACK":56,"_VELDREN_MATERIAL":57},"indices":58,"material":10,"extras":{"mixedAtlasFallback":false}},{"attributes":{"POSITION":50,"NORMAL":51,"TEXCOORD_0":52,"COLOR_0":53,"_VELDREN_NORMAL":54,"_VELDREN_COLOR":55,"_VELDREN_FALLBACK":56,"_VELDREN_MATERIAL":57},"indices":59,"material":11,"extras":{"mixedAtlasFallback":false}}]}],"materials":[{"name":"legacy-material-52","pbrMetallicRoughness":{"baseColorFactor":[1,1,1,1],"metallicFactor":0,"roughnessFactor":1,"baseColorTexture":{"index":0}},"doubleSided":true,"extras":{"legacyMaterial":52,"legacyShader":"dist/renderer-gl.js"}},{"name":"legacy-material-53","pbrMetallicRoughness":{"baseColorFactor":[1,1,1,1],"metallicFactor":0,"roughnessFactor":1,"baseColorTexture":{"index":1}},"doubleSided":true,"extras":{"legacyMaterial":53,"legacyShader":"dist/renderer-gl.js"},"alphaMode":"MASK","alphaCutoff":0.45},{"name":"legacy-material-49","pbrMetallicRoughness":{"baseColorFactor":[1,1,1,1],"metallicFactor":0,"roughnessFactor":1,"baseColorTexture":{"index":2}},"doubleSided":true,"extras":{"legacyMaterial":49,"legacyShader":"dist/renderer-gl.js"}},{"name":"legacy-material-50","pbrMetallicRoughness":{"baseColorFactor":[1,1,1,1],"metallicFactor":0,"roughnessFactor":1,"baseColorTexture":{"index":3}},"doubleSided":true,"extras":{"legacyMaterial":50,"legacyShader":"dist/renderer-gl.js"},"alphaMode":"MASK","alphaCutoff":0.45},{"name":"legacy-material-49","pbrMetallicRoughness":{"baseColorFactor":[1,1,1,1],"metallicFactor":0,"roughnessFactor":1,"baseColorTexture":{"index":4}},"doubleSided":true,"extras":{"legacyMaterial":49,"legacyShader":"dist/renderer-gl.js"}},{"name":"legacy-material-54","pbrMetallicRoughness":{"baseColorFactor":[1,1,1,1],"metallicFactor":0,"roughnessFactor":1,"baseColorTexture":{"index":5}},"doubleSided":true,"extras":{"legacyMaterial":54,"legacyShader":"dist/renderer-gl.js"},"alphaMode":"MASK","alphaCutoff":0.45},{"name":"legacy-material-49","pbrMetallicRoughness":{"baseColorFactor":[1,1,1,1],"metallicFactor":0,"roughnessFactor":1,"baseColorTexture":{"index":6}},"doubleSided":true,"extras":{"legacyMaterial":49,"legacyShader":"dist/renderer-gl.js"}},{"name":"legacy-material-51","pbrMetallicRoughness":{"baseColorFactor":[1,1,1,1],"metallicFactor":0,"roughnessFactor":1,"baseColorTexture":{"index":7}},"doubleSided":true,"extras":{"legacyMaterial":51,"legacyShader":"dist/renderer-gl.js"},"alphaMode":"MASK","alphaCutoff":0.45},{"name":"legacy-material-49","pbrMetallicRoughness":{"baseColorFactor":[1,1,1,1],"metallicFactor":0,"roughnessFactor":1,"baseColorTexture":{"index":8}},"doubleSided":true,"extras":{"legacyMaterial":49,"legacyShader":"dist/renderer-gl.js"}},{"name":"legacy-material-50","pbrMetallicRoughness":{"baseColorFactor":[1,1,1,1],"metallicFactor":0,"roughnessFactor":1,"baseColorTexture":{"index":9}},"doubleSided":true,"extras":{"legacyMaterial":50,"legacyShader":"dist/renderer-gl.js"},"alphaMode":"MASK","alphaCutoff":0.45},{"name":"legacy-material-49","pbrMetallicRoughness":{"baseColorFactor":[1,1,1,1],"metallicFactor":0,"roughnessFactor":1,"baseColorTexture":{"index":10}},"doubleSided":true,"extras":{"legacyMaterial":49,"legacyShader":"dist/renderer-gl.js"}},{"name":"legacy-material-55","pbrMetallicRoughness":{"baseColorFactor":[1,1,1,1],"metallicFactor":0,"roughnessFactor":1,"baseColorTexture":{"index":11}},"doubleSided":true,"extras":{"legacyMaterial":55,"legacyShader":"dist/renderer-gl.js"},"alphaMode":"MASK","alphaCutoff":0.45}],"images":[{"name":"atlas-32","uri":"../../textures/atlas/tile-32.png"},{"name":"atlas-33","uri":"../../textures/atlas/tile-33.png"},{"name":"atlas-29","uri":"../../textures/atlas/tile-29.png"},{"name":"atlas-30","uri":"../../textures/atlas/tile-30.png"},{"name":"atlas-29","uri":"../../textures/atlas/tile-29.png"},{"name":"atlas-34","uri":"../../textures/atlas/tile-34.png"},{"name":"atlas-29","uri":"../../textures/atlas/tile-29.png"},{"name":"atlas-31","uri":"../../textures/atlas/tile-31.png"},{"name":"atlas-29","uri":"../../textures/atlas/tile-29.png"},{"name":"atlas-30","uri":"../../textures/atlas/tile-30.png"},{"name":"atlas-29","uri":"../../textures/atlas/tile-29.png"},{"name":"atlas-35","uri":"../../textures/atlas/tile-35.png"}],"textures":[{"source":0,"sampler":0},{"source":1,"sampler":0},{"source":2,"sampler":1},{"source":3,"sampler":1},{"source":4,"sampler":2},{"source":5,"sampler":2},{"source":6,"sampler":3},{"source":7,"sampler":3},{"source":8,"sampler":4},{"source":9,"sampler":4},{"source":10,"sampler":5},{"source":11,"sampler":5}],"samplers":[{"magFilter":9729,"minFilter":9729,"wrapS":10497,"wrapT":10497},{"magFilter":9729,"minFilter":9729,"wrapS":10497,"wrapT":10497},{"magFilter":9729,"minFilter":9729,"wrapS":10497,"wrapT":10497},{"magFilter":9729,"minFilter":9729,"wrapS":10497,"wrapT":10497},{"magFilter":9729,"minFilter":9729,"wrapS":10497,"wrapT":10497},{"magFilter":9729,"minFilter":9729,"wrapS":10497,"wrapT":10497}]}
