{"asset":{"version":"2.0","generator":"Veldren static world recovery"},"scene":0,"scenes":[{"nodes":[0,2,4,6,8,10,12,14,16,18,20,22,24,26,28,30,32,34,36,38,40,42,44,46,48,50,52,54,56,58,60,62,64]}],"extras":{"sourceScene":"overworld","notVervesisScene":true,"gameplayIdentityExternal":true,"limitations":["Terrain stored separately.","Dynamic actors, fires, gates, crops, fish, effects and ground cover are not baked.","Roofs are closed; browser procedural materials require native support."]},"nodes":[{"name":"Mountain outcrop","children":[1],"extras":{"veldrenEntityKey":"overworld:object:549"}},{"mesh":0,"matrix":[1.3275531317081868,0.0,0.0,0.0,0.0,1.3275531317081868,0.0,0.0,0.0,0.0,1.3275531317081868,0.0,975.5,0.45011344716607776,99.5,1.0]},{"name":"Mountain outcrop","children":[3],"extras":{"veldrenEntityKey":"overworld:object:550"}},{"mesh":1,"matrix":[1.2951787154936916,0.0,0.0,0.0,0.0,1.2951787154936916,0.0,0.0,0.0,0.0,1.2951787154936916,0.0,1006.5,1.1010759199534554,96.5,1.0]},{"name":"Mountain outcrop","children":[5],"extras":{"veldrenEntityKey":"overworld:object:551"}},{"mesh":0,"matrix":[1.3275531317081868,0.0,0.0,0.0,0.0,1.3275531317081868,0.0,0.0,0.0,0.0,1.3275531317081868,0.0,1010.5,0.5167476113556762,95.5,1.0]},{"name":"Coal rock","children":[7],"extras":{"veldrenEntityKey":"overworld:object:561"}},{"mesh":2,"matrix":[1.0,0.0,0.0,0.0,0.0,1.0,0.0,0.0,0.0,0.0,1.0,0.0,986.5,0.15186785298370567,96.5,1.0]},{"name":"Mountain outcrop","children":[9],"extras":{"veldrenEntityKey":"overworld:object:562"}},{"mesh":1,"matrix":[1.2951787154936916,0.0,0.0,0.0,0.0,1.2951787154936916,0.0,0.0,0.0,0.0,1.2951787154936916,0.0,993.5,1.006327951020187,96.5,1.0]},{"name":"Mountain outcrop","children":[11],"extras":{"veldrenEntityKey":"overworld:object:563"}},{"mesh":0,"matrix":[1.3275531317081868,0.0,0.0,0.0,0.0,1.3275531317081868,0.0,0.0,0.0,0.0,1.3275531317081868,0.0,1002.5,0.7838567918489173,95.5,1.0]},{"name":"Mountain outcrop","children":[13],"extras":{"veldrenEntityKey":"overworld:object:564"}},{"mesh":1,"matrix":[1.2951787154936916,0.0,0.0,0.0,0.0,1.2951787154936916,0.0,0.0,0.0,0.0,1.2951787154936916,0.0,1011.5,0.8339439773039771,96.5,1.0]},{"name":"Mountain outcrop","children":[15],"extras":{"veldrenEntityKey":"overworld:object:576"}},{"mesh":1,"matrix":[1.2951787154936916,0.0,0.0,0.0,0.0,1.2951787154936916,0.0,0.0,0.0,0.0,1.2951787154936916,0.0,978.5,0.49603713704852154,98.5,1.0]},{"name":"Mountain outcrop","children":[17],"extras":{"veldrenEntityKey":"overworld:object:577"}},{"mesh":0,"matrix":[1.3275531317081868,0.0,0.0,0.0,0.0,1.3275531317081868,0.0,0.0,0.0,0.0,1.3275531317081868,0.0,989.5,0.39568945672601585,95.5,1.0]},{"name":"Mountain outcrop","children":[19],"extras":{"veldrenEntityKey":"overworld:object:588"}},{"mesh":1,"matrix":[1.2951787154936916,0.0,0.0,0.0,0.0,1.2951787154936916,0.0,0.0,0.0,0.0,1.2951787154936916,0.0,912.5,0.5982861497918207,104.5,1.0]},{"name":"Mountain outcrop","children":[21],"extras":{"veldrenEntityKey":"overworld:object:589"}},{"mesh":0,"matrix":[1.3275531317081868,0.0,0.0,0.0,0.0,1.3275531317081868,0.0,0.0,0.0,0.0,1.3275531317081868,0.0,959.5,0.4120986668618647,105.5,1.0]},{"name":"Mountain outcrop","children":[23],"extras":{"veldrenEntityKey":"overworld:object:590"}},{"mesh":1,"matrix":[1.2951787154936916,0.0,0.0,0.0,0.0,1.2951787154936916,0.0,0.0,0.0,0.0,1.2951787154936916,0.0,971.5,0.6742446806336843,101.5,1.0]},{"name":"Mountain outcrop","children":[25],"extras":{"veldrenEntityKey":"overworld:object:598"}},{"mesh":1,"matrix":[1.2951787154936916,0.0,0.0,0.0,0.0,1.2951787154936916,0.0,0.0,0.0,0.0,1.2951787154936916,0.0,897.5,1.1301597980132745,100.5,1.0]},{"name":"Mountain outcrop","children":[27],"extras":{"veldrenEntityKey":"overworld:object:599"}},{"mesh":0,"matrix":[1.3275531317081868,0.0,0.0,0.0,0.0,1.3275531317081868,0.0,0.0,0.0,0.0,1.3275531317081868,0.0,918.5,1.195161382274589,108.5,1.0]},{"name":"Copper rock","children":[29],"extras":{"veldrenEntityKey":"overworld:object:600"}},{"mesh":3,"matrix":[1.0,0.0,0.0,0.0,0.0,1.0,0.0,0.0,0.0,0.0,1.0,0.0,985.5,0.7127508737317758,98.5,1.0]},{"name":"Mountain outcrop","children":[31],"extras":{"veldrenEntityKey":"overworld:object:601"}},{"mesh":0,"matrix":[1.3275531317081868,0.0,0.0,0.0,0.0,1.3275531317081868,0.0,0.0,0.0,0.0,1.3275531317081868,0.0,1002.5,1.13710520027625,96.5,1.0]},{"name":"Mountain outcrop","children":[33],"extras":{"veldrenEntityKey":"overworld:object:602"}},{"mesh":1,"matrix":[1.2951787154936916,0.0,0.0,0.0,0.0,1.2951787154936916,0.0,0.0,0.0,0.0,1.2951787154936916,0.0,1021.5,0.9365552448950637,100.5,1.0]},{"name":"Mountain outcrop","children":[35],"extras":{"veldrenEntityKey":"overworld:object:613"}},{"mesh":0,"matrix":[1.3275531317081868,0.0,0.0,0.0,0.0,1.3275531317081868,0.0,0.0,0.0,0.0,1.3275531317081868,0.0,897.5,6.975850939995079,117.5,1.0]},{"name":"Mountain outcrop","children":[37],"extras":{"veldrenEntityKey":"overworld:object:614"}},{"mesh":1,"matrix":[1.2951787154936916,0.0,0.0,0.0,0.0,1.2951787154936916,0.0,0.0,0.0,0.0,1.2951787154936916,0.0,981.5,7.070255098784181,117.5,1.0]},{"name":"Mountain outcrop","children":[39],"extras":{"veldrenEntityKey":"overworld:object:615"}},{"mesh":0,"matrix":[1.3275531317081868,0.0,0.0,0.0,0.0,1.3275531317081868,0.0,0.0,0.0,0.0,1.3275531317081868,0.0,1002.5,8.162400337845327,117.5,1.0]},{"name":"Maple tree","children":[41],"extras":{"veldrenEntityKey":"overworld:object:9105560"}},{"mesh":4,"matrix":[-0.7177712935333,0.0,0.11740368993901518,0.0,0.0,0.7273096013609082,0.0,0.0,-0.11740368993901518,0.0,-0.7177712935333,0.0,911.5,7.053303614628806,125.5,1.0]},{"name":"Tree","children":[43],"extras":{"veldrenEntityKey":"overworld:object:9105562"}},{"mesh":5,"matrix":[-0.18576070392605942,0.0,-0.734410875533435,0.0,0.0,0.7575396842574597,0.0,0.0,0.734410875533435,0.0,-0.18576070392605942,0.0,905.5,7.707156807053622,124.5,1.0]},{"name":"Oak tree","children":[45],"extras":{"veldrenEntityKey":"overworld:object:9105563"}},{"mesh":6,"matrix":[-0.47374130709066786,0.0,0.8778926528885602,0.0,0.0,0.9975601916875435,0.0,0.0,-0.8778926528885602,0.0,-0.47374130709066786,0.0,918.5,5.46148547195535,123.5,1.0]},{"name":"Maple tree","children":[47],"extras":{"veldrenEntityKey":"overworld:object:9105580"}},{"mesh":4,"matrix":[0.3670560942513915,0.0,-0.5952653875201374,0.0,0.0,0.6993361551547194,0.0,0.0,0.5952653875201374,0.0,0.3670560942513915,0.0,940.5,4.5969048682248115,123.5,1.0]},{"name":"Tree","children":[49],"extras":{"veldrenEntityKey":"overworld:object:9105582"}},{"mesh":5,"matrix":[0.6493859588567682,0.0,0.3273730685376179,0.0,0.0,0.7272380968871612,0.0,0.0,-0.3273730685376179,0.0,0.6493859588567682,0.0,933.5,4.909639438969043,124.5,1.0]},{"name":"Oak tree","children":[51],"extras":{"veldrenEntityKey":"overworld:object:9105583"}},{"mesh":6,"matrix":[-0.33902948512025616,0.0,-0.8972788000070986,0.0,0.0,0.9591924920072534,0.0,0.0,0.8972788000070986,0.0,-0.33902948512025616,0.0,946.5,4.457506676303251,122.5,1.0]},{"name":"Yew tree","children":[53],"extras":{"veldrenEntityKey":"overworld:object:9105620"}},{"mesh":7,"matrix":[-0.8006199057480246,0.0,-0.3490512869470782,0.0,0.0,0.8734008440569468,0.0,0.0,0.3490512869470782,0.0,-0.8006199057480246,0.0,984.5,9.30779419300953,125.5,1.0]},{"name":"Oak tree","children":[55],"extras":{"veldrenEntityKey":"overworld:object:9105622"}},{"mesh":6,"matrix":[0.306751017347601,0.0,-0.9088201417658484,0.0,0.0,0.9591924920072534,0.0,0.0,0.9088201417658484,0.0,0.306751017347601,0.0,979.5,7.412194644847812,120.5,1.0]},{"name":"Tree","children":[57],"extras":{"veldrenEntityKey":"overworld:object:9105641"}},{"mesh":5,"matrix":[-0.7532070590422717,0.0,-0.23102596280274362,0.0,0.0,0.7878412716277581,0.0,0.0,0.23102596280274362,0.0,-0.7532070590422717,0.0,1003.5,8.133393784866119,123.5,1.0]},{"name":"Oak tree","children":[59],"extras":{"veldrenEntityKey":"overworld:object:9105642"}},{"mesh":6,"matrix":[0.4659766358446238,0.0,0.7942191593073804,0.0,0.0,0.9208247923269633,0.0,0.0,-0.7942191593073804,0.0,0.4659766358446238,0.0,999.5,6.31815175556156,112.5,1.0]},{"name":"Maple tree","children":[61],"extras":{"veldrenEntityKey":"overworld:object:9105643"}},{"mesh":4,"matrix":[0.14715272591087253,0.0,-0.6836791156409455,0.0,0.0,0.6993361551547194,0.0,0.0,0.6836791156409455,0.0,0.14715272591087253,0.0,1011.5,7.3374891656748735,118.5,1.0]},{"name":"Yew tree","children":[63],"extras":{"veldrenEntityKey":"overworld:object:9105644"}},{"mesh":7,"matrix":[-0.7127646796513198,0.0,0.5047727665404885,0.0,0.0,0.8734008440569468,0.0,0.0,-0.5047727665404885,0.0,-0.7127646796513198,0.0,997.5,8.435897069920674,121.5,1.0]},{"name":"Tree","children":[65],"extras":{"veldrenEntityKey":"overworld:object:9105664"}},{"mesh":5,"matrix":[0.07448551799664876,0.0,-0.753868875092786,0.0,0.0,0.7575396842574597,0.0,0.0,0.753868875092786,0.0,0.07448551799664876,0.0,1022.5,8.151357159761165,127.5,1.0]}],"buffers":[{"uri":"../world-parts/d3a49cf40a43bca59e27ca2096fab65e613b5d5993f180ce0def51f1fdd95647.bin","byteLength":33588},{"uri":"../world-parts/945c10e33683e4b3baa7557ff260c79730a9992e0e5a23b5d9307a2c40355ae1.bin","byteLength":50868},{"uri":"../world-parts/8da028b270916694518619dcb4a941f2160cb1e33d2c23a2fe1d49204658ac43.bin","byteLength":15840},{"uri":"../world-parts/190836a5a05cd2db9b1c8844f8432f41f0403d878d66602a954f80a27c694e5e.bin","byteLength":18216},{"uri":"../world-parts/133dae8ce562dbc4cbf0d0d2cb7dc4cb2baafed83b6c58ebd4446a3657088e0f.bin","byteLength":180744},{"uri":"../world-parts/8480a643e36c0194bf11e79cbc019e38e5ff72b8bc295b144212e5f7a5b37347.bin","byteLength":64668},{"uri":"../world-parts/cf73d73e4a52b629e942c4cf3ba67a960257f3fda86af0eadf8051aa3c1f7c97.bin","byteLength":133656},{"uri":"../world-parts/7e2e11a73c6c1f6b77c7c18c44a87655900818e94c168e7a92bb0a48cc87a1c1.bin","byteLength":46872}],"bufferViews":[{"buffer":0,"byteOffset":0,"byteLength":4212,"target":34962},{"buffer":0,"byteOffset":4212,"byteLength":4212,"target":34962},{"buffer":0,"byteOffset":8424,"byteLength":2808,"target":34962},{"buffer":0,"byteOffset":11232,"byteLength":4212,"target":34962},{"buffer":0,"byteOffset":15444,"byteLength":4212,"target":34962},{"buffer":0,"byteOffset":19656,"byteLength":4212,"target":34962},{"buffer":0,"byteOffset":23868,"byteLength":4212,"target":34962},{"buffer":0,"byteOffset":28080,"byteLength":1404,"target":34962},{"buffer":0,"byteOffset":29484,"byteLength":4104,"target":34963},{"buffer":1,"byteOffset":0,"byteLength":6372,"target":34962},{"buffer":1,"byteOffset":6372,"byteLength":6372,"target":34962},{"buffer":1,"byteOffset":12744,"byteLength":4248,"target":34962},{"buffer":1,"byteOffset":16992,"byteLength":6372,"target":34962},{"buffer":1,"byteOffset":23364,"byteLength":6372,"target":34962},{"buffer":1,"byteOffset":29736,"byteLength":6372,"target":34962},{"buffer":1,"byteOffset":36108,"byteLength":6372,"target":34962},{"buffer":1,"byteOffset":42480,"byteLength":2124,"target":34962},{"buffer":1,"byteOffset":44604,"byteLength":6264,"target":34963},{"buffer":2,"byteOffset":0,"byteLength":2160,"target":34962},{"buffer":2,"byteOffset":2160,"byteLength":2160,"target":34962},{"buffer":2,"byteOffset":4320,"byteLength":1440,"target":34962},{"buffer":2,"byteOffset":5760,"byteLength":2160,"target":34962},{"buffer":2,"byteOffset":7920,"byteLength":2160,"target":34962},{"buffer":2,"byteOffset":10080,"byteLength":2160,"target":34962},{"buffer":2,"byteOffset":12240,"byteLength":2160,"target":34962},{"buffer":2,"byteOffset":14400,"byteLength":720,"target":34962},{"buffer":2,"byteOffset":15120,"byteLength":720,"target":34963},{"buffer":3,"byteOffset":0,"byteLength":2484,"target":34962},{"buffer":3,"byteOffset":2484,"byteLength":2484,"target":34962},{"buffer":3,"byteOffset":4968,"byteLength":1656,"target":34962},{"buffer":3,"byteOffset":6624,"byteLength":2484,"target":34962},{"buffer":3,"byteOffset":9108,"byteLength":2484,"target":34962},{"buffer":3,"byteOffset":11592,"byteLength":2484,"target":34962},{"buffer":3,"byteOffset":14076,"byteLength":2484,"target":34962},{"buffer":3,"byteOffset":16560,"byteLength":828,"target":34962},{"buffer":3,"byteOffset":17388,"byteLength":828,"target":34963},{"buffer":4,"byteOffset":0,"byteLength":21552,"target":34962},{"buffer":4,"byteOffset":21552,"byteLength":21552,"target":34962},{"buffer":4,"byteOffset":43104,"byteLength":14368,"target":34962},{"buffer":4,"byteOffset":57472,"byteLength":21552,"target":34962},{"buffer":4,"byteOffset":79024,"byteLength":21552,"target":34962},{"buffer":4,"byteOffset":100576,"byteLength":21552,"target":34962},{"buffer":4,"byteOffset":122128,"byteLength":21552,"target":34962},{"buffer":4,"byteOffset":143680,"byteLength":7184,"target":34962},{"buffer":4,"byteOffset":150864,"byteLength":17496,"target":34963},{"buffer":4,"byteOffset":168360,"byteLength":12384,"target":34963},{"buffer":5,"byteOffset":0,"byteLength":7860,"target":34962},{"buffer":5,"byteOffset":7860,"byteLength":7860,"target":34962},{"buffer":5,"byteOffset":15720,"byteLength":5240,"target":34962},{"buffer":5,"byteOffset":20960,"byteLength":7860,"target":34962},{"buffer":5,"byteOffset":28820,"byteLength":7860,"target":34962},{"buffer":5,"byteOffset":36680,"byteLength":7860,"target":34962},{"buffer":5,"byteOffset":44540,"byteLength":7860,"target":34962},{"buffer":5,"byteOffset":52400,"byteLength":2620,"target":34962},{"buffer":5,"byteOffset":55020,"byteLength":5328,"target":34963},{"buffer":5,"byteOffset":60348,"byteLength":4320,"target":34963},{"buffer":6,"byteOffset":0,"byteLength":15912,"target":34962},{"buffer":6,"byteOffset":15912,"byteLength":15912,"target":34962},{"buffer":6,"byteOffset":31824,"byteLength":10608,"target":34962},{"buffer":6,"byteOffset":42432,"byteLength":15912,"target":34962},{"buffer":6,"byteOffset":58344,"byteLength":15912,"target":34962},{"buffer":6,"byteOffset":74256,"byteLength":15912,"target":34962},{"buffer":6,"byteOffset":90168,"byteLength":15912,"target":34962},{"buffer":6,"byteOffset":106080,"byteLength":5304,"target":34962},{"buffer":6,"byteOffset":111384,"byteLength":10464,"target":34963},{"buffer":6,"byteOffset":121848,"byteLength":11808,"target":34963},{"buffer":7,"byteOffset":0,"byteLength":5784,"target":34962},{"buffer":7,"byteOffset":5784,"byteLength":5784,"target":34962},{"buffer":7,"byteOffset":11568,"byteLength":3856,"target":34962},{"buffer":7,"byteOffset":15424,"byteLength":5784,"target":34962},{"buffer":7,"byteOffset":21208,"byteLength":5784,"target":34962},{"buffer":7,"byteOffset":26992,"byteLength":5784,"target":34962},{"buffer":7,"byteOffset":32776,"byteLength":5784,"target":34962},{"buffer":7,"byteOffset":38560,"byteLength":1928,"target":34962},{"buffer":7,"byteOffset":40488,"byteLength":1776,"target":34963},{"buffer":7,"byteOffset":42264,"byteLength":4608,"target":34963}],"accessors":[{"bufferView":0,"componentType":5126,"count":351,"type":"VEC3","min":[-1.7272872924804688,-0.27113133668899536,-1.1498832702636719],"max":[1.4978611469268799,1.988665223121643,1.8392531871795654]},{"bufferView":1,"componentType":5126,"count":351,"type":"VEC3"},{"bufferView":2,"componentType":5126,"count":351,"type":"VEC2"},{"bufferView":3,"componentType":5126,"count":351,"type":"VEC3"},{"bufferView":4,"componentType":5126,"count":351,"type":"VEC3"},{"bufferView":5,"componentType":5126,"count":351,"type":"VEC3"},{"bufferView":6,"componentType":5126,"count":351,"type":"VEC3"},{"bufferView":7,"componentType":5126,"count":351,"type":"SCALAR"},{"bufferView":8,"componentType":5125,"count":1026,"type":"SCALAR"},{"bufferView":9,"componentType":5126,"count":531,"type":"VEC3","min":[-1.8242793083190918,-0.31564441323280334,-0.8904620409011841],"max":[1.5958054065704346,2.000638246536255,2.5856480598449707]},{"bufferView":10,"componentType":5126,"count":531,"type":"VEC3"},{"bufferView":11,"componentType":5126,"count":531,"type":"VEC2"},{"bufferView":12,"componentType":5126,"count":531,"type":"VEC3"},{"bufferView":13,"componentType":5126,"count":531,"type":"VEC3"},{"bufferView":14,"componentType":5126,"count":531,"type":"VEC3"},{"bufferView":15,"componentType":5126,"count":531,"type":"VEC3"},{"bufferView":16,"componentType":5126,"count":531,"type":"SCALAR"},{"bufferView":17,"componentType":5125,"count":1566,"type":"SCALAR"},{"bufferView":18,"componentType":5126,"count":180,"type":"VEC3","min":[-0.49000000953674316,0.014999999664723873,-0.4243524372577667],"max":[0.49000000953674316,0.4699999988079071,0.4243524372577667]},{"bufferView":19,"componentType":5126,"count":180,"type":"VEC3"},{"bufferView":20,"componentType":5126,"count":180,"type":"VEC2"},{"bufferView":21,"componentType":5126,"count":180,"type":"VEC3"},{"bufferView":22,"componentType":5126,"count":180,"type":"VEC3"},{"bufferView":23,"componentType":5126,"count":180,"type":"VEC3"},{"bufferView":24,"componentType":5126,"count":180,"type":"VEC3"},{"bufferView":25,"componentType":5126,"count":180,"type":"SCALAR"},{"bufferView":26,"componentType":5125,"count":180,"type":"SCALAR"},{"bufferView":27,"componentType":5126,"count":207,"type":"VEC3","min":[-0.5464262962341309,0.014999999664723873,-0.42896828055381775],"max":[0.5409427285194397,0.5899999737739563,0.42896828055381775]},{"bufferView":28,"componentType":5126,"count":207,"type":"VEC3"},{"bufferView":29,"componentType":5126,"count":207,"type":"VEC2"},{"bufferView":30,"componentType":5126,"count":207,"type":"VEC3"},{"bufferView":31,"componentType":5126,"count":207,"type":"VEC3"},{"bufferView":32,"componentType":5126,"count":207,"type":"VEC3"},{"bufferView":33,"componentType":5126,"count":207,"type":"VEC3"},{"bufferView":34,"componentType":5126,"count":207,"type":"SCALAR"},{"bufferView":35,"componentType":5125,"count":207,"type":"SCALAR"},{"bufferView":36,"componentType":5126,"count":1796,"type":"VEC3","min":[-4.721841812133789,-0.0018220000201836228,-1.3137749433517456],"max":[4.035912990570068,10.293656349182129,3.0319550037384033]},{"bufferView":37,"componentType":5126,"count":1796,"type":"VEC3"},{"bufferView":38,"componentType":5126,"count":1796,"type":"VEC2"},{"bufferView":39,"componentType":5126,"count":1796,"type":"VEC3"},{"bufferView":40,"componentType":5126,"count":1796,"type":"VEC3"},{"bufferView":41,"componentType":5126,"count":1796,"type":"VEC3"},{"bufferView":42,"componentType":5126,"count":1796,"type":"VEC3"},{"bufferView":43,"componentType":5126,"count":1796,"type":"SCALAR"},{"bufferView":44,"componentType":5125,"count":4374,"type":"SCALAR"},{"bufferView":45,"componentType":5125,"count":3096,"type":"SCALAR"},{"bufferView":46,"componentType":5126,"count":655,"type":"VEC3","min":[-2.3328819274902344,0.011172999627888203,-2.0712060928344727],"max":[1.805098056793213,5.555437088012695,2.05914306640625]},{"bufferView":47,"componentType":5126,"count":655,"type":"VEC3"},{"bufferView":48,"componentType":5126,"count":655,"type":"VEC2"},{"bufferView":49,"componentType":5126,"count":655,"type":"VEC3"},{"bufferView":50,"componentType":5126,"count":655,"type":"VEC3"},{"bufferView":51,"componentType":5126,"count":655,"type":"VEC3"},{"bufferView":52,"componentType":5126,"count":655,"type":"VEC3"},{"bufferView":53,"componentType":5126,"count":655,"type":"SCALAR"},{"bufferView":54,"componentType":5125,"count":1332,"type":"SCALAR"},{"bufferView":55,"componentType":5125,"count":1080,"type":"SCALAR"},{"bufferView":56,"componentType":5126,"count":1326,"type":"VEC3","min":[-3.6411149501800537,0.011172999627888203,-2.5864460468292236],"max":[3.095597982406616,6.3706889152526855,2.3982579708099365]},{"bufferView":57,"componentType":5126,"count":1326,"type":"VEC3"},{"bufferView":58,"componentType":5126,"count":1326,"type":"VEC2"},{"bufferView":59,"componentType":5126,"count":1326,"type":"VEC3"},{"bufferView":60,"componentType":5126,"count":1326,"type":"VEC3"},{"bufferView":61,"componentType":5126,"count":1326,"type":"VEC3"},{"bufferView":62,"componentType":5126,"count":1326,"type":"VEC3"},{"bufferView":63,"componentType":5126,"count":1326,"type":"SCALAR"},{"bufferView":64,"componentType":5125,"count":2616,"type":"SCALAR"},{"bufferView":65,"componentType":5125,"count":2952,"type":"SCALAR"},{"bufferView":66,"componentType":5126,"count":482,"type":"VEC3","min":[-3.7659718990325928,-0.07409700006246567,-3.4778990745544434],"max":[3.116921901702881,8.022987365722656,3.8158159255981445]},{"bufferView":67,"componentType":5126,"count":482,"type":"VEC3"},{"bufferView":68,"componentType":5126,"count":482,"type":"VEC2"},{"bufferView":69,"componentType":5126,"count":482,"type":"VEC3"},{"bufferView":70,"componentType":5126,"count":482,"type":"VEC3"},{"bufferView":71,"componentType":5126,"count":482,"type":"VEC3"},{"bufferView":72,"componentType":5126,"count":482,"type":"VEC3"},{"bufferView":73,"componentType":5126,"count":482,"type":"SCALAR"},{"bufferView":74,"componentType":5125,"count":444,"type":"SCALAR"},{"bufferView":75,"componentType":5125,"count":1152,"type":"SCALAR"}],"meshes":[{"name":"d3a49cf40a43bca59e27ca2096fab65e613b5d5993f180ce0def51f1fdd95647","primitives":[{"attributes":{"POSITION":0,"NORMAL":1,"TEXCOORD_0":2,"COLOR_0":3,"_VELDREN_NORMAL":4,"_VELDREN_COLOR":5,"_VELDREN_FALLBACK":6,"_VELDREN_MATERIAL":7},"indices":8,"material":0,"extras":{"mixedAtlasFallback":false}}]},{"name":"945c10e33683e4b3baa7557ff260c79730a9992e0e5a23b5d9307a2c40355ae1","primitives":[{"attributes":{"POSITION":9,"NORMAL":10,"TEXCOORD_0":11,"COLOR_0":12,"_VELDREN_NORMAL":13,"_VELDREN_COLOR":14,"_VELDREN_FALLBACK":15,"_VELDREN_MATERIAL":16},"indices":17,"material":1,"extras":{"mixedAtlasFallback":false}}]},{"name":"8da028b270916694518619dcb4a941f2160cb1e33d2c23a2fe1d49204658ac43","primitives":[{"attributes":{"POSITION":18,"NORMAL":19,"TEXCOORD_0":20,"COLOR_0":21,"_VELDREN_NORMAL":22,"_VELDREN_COLOR":23,"_VELDREN_FALLBACK":24,"_VELDREN_MATERIAL":25},"indices":26,"material":2,"extras":{"mixedAtlasFallback":false}}]},{"name":"190836a5a05cd2db9b1c8844f8432f41f0403d878d66602a954f80a27c694e5e","primitives":[{"attributes":{"POSITION":27,"NORMAL":28,"TEXCOORD_0":29,"COLOR_0":30,"_VELDREN_NORMAL":31,"_VELDREN_COLOR":32,"_VELDREN_FALLBACK":33,"_VELDREN_MATERIAL":34},"indices":35,"material":3,"extras":{"mixedAtlasFallback":false}}]},{"name":"133dae8ce562dbc4cbf0d0d2cb7dc4cb2baafed83b6c58ebd4446a3657088e0f","primitives":[{"attributes":{"POSITION":36,"NORMAL":37,"TEXCOORD_0":38,"COLOR_0":39,"_VELDREN_NORMAL":40,"_VELDREN_COLOR":41,"_VELDREN_FALLBACK":42,"_VELDREN_MATERIAL":43},"indices":44,"material":4,"extras":{"mixedAtlasFallback":false}},{"attributes":{"POSITION":36,"NORMAL":37,"TEXCOORD_0":38,"COLOR_0":39,"_VELDREN_NORMAL":40,"_VELDREN_COLOR":41,"_VELDREN_FALLBACK":42,"_VELDREN_MATERIAL":43},"indices":45,"material":5,"extras":{"mixedAtlasFallback":false}}]},{"name":"8480a643e36c0194bf11e79cbc019e38e5ff72b8bc295b144212e5f7a5b37347","primitives":[{"attributes":{"POSITION":46,"NORMAL":47,"TEXCOORD_0":48,"COLOR_0":49,"_VELDREN_NORMAL":50,"_VELDREN_COLOR":51,"_VELDREN_FALLBACK":52,"_VELDREN_MATERIAL":53},"indices":54,"material":6,"extras":{"mixedAtlasFallback":false}},{"attributes":{"POSITION":46,"NORMAL":47,"TEXCOORD_0":48,"COLOR_0":49,"_VELDREN_NORMAL":50,"_VELDREN_COLOR":51,"_VELDREN_FALLBACK":52,"_VELDREN_MATERIAL":53},"indices":55,"material":7,"extras":{"mixedAtlasFallback":false}}]},{"name":"cf73d73e4a52b629e942c4cf3ba67a960257f3fda86af0eadf8051aa3c1f7c97","primitives":[{"attributes":{"POSITION":56,"NORMAL":57,"TEXCOORD_0":58,"COLOR_0":59,"_VELDREN_NORMAL":60,"_VELDREN_COLOR":61,"_VELDREN_FALLBACK":62,"_VELDREN_MATERIAL":63},"indices":64,"material":8,"extras":{"mixedAtlasFallback":false}},{"attributes":{"POSITION":56,"NORMAL":57,"TEXCOORD_0":58,"COLOR_0":59,"_VELDREN_NORMAL":60,"_VELDREN_COLOR":61,"_VELDREN_FALLBACK":62,"_VELDREN_MATERIAL":63},"indices":65,"material":9,"extras":{"mixedAtlasFallback":false}}]},{"name":"7e2e11a73c6c1f6b77c7c18c44a87655900818e94c168e7a92bb0a48cc87a1c1","primitives":[{"attributes":{"POSITION":66,"NORMAL":67,"TEXCOORD_0":68,"COLOR_0":69,"_VELDREN_NORMAL":70,"_VELDREN_COLOR":71,"_VELDREN_FALLBACK":72,"_VELDREN_MATERIAL":73},"indices":74,"material":10,"extras":{"mixedAtlasFallback":false}},{"attributes":{"POSITION":66,"NORMAL":67,"TEXCOORD_0":68,"COLOR_0":69,"_VELDREN_NORMAL":70,"_VELDREN_COLOR":71,"_VELDREN_FALLBACK":72,"_VELDREN_MATERIAL":73},"indices":75,"material":11,"extras":{"mixedAtlasFallback":false}}]}],"materials":[{"name":"legacy-material-33","pbrMetallicRoughness":{"baseColorFactor":[1,1,1,1],"metallicFactor":0,"roughnessFactor":1,"baseColorTexture":{"index":0}},"doubleSided":true,"extras":{"legacyMaterial":33,"legacyShader":"dist/renderer-gl.js"}},{"name":"legacy-material-33","pbrMetallicRoughness":{"baseColorFactor":[1,1,1,1],"metallicFactor":0,"roughnessFactor":1,"baseColorTexture":{"index":1}},"doubleSided":true,"extras":{"legacyMaterial":33,"legacyShader":"dist/renderer-gl.js"}},{"name":"legacy-material-12","pbrMetallicRoughness":{"baseColorFactor":[1,1,1,1],"metallicFactor":0,"roughnessFactor":1},"doubleSided":true,"extras":{"legacyMaterial":12,"legacyShader":"dist/renderer-gl.js","limitation":"Browser procedural material not implemented by this glTF export; source/base attributes retained."}},{"name":"legacy-material-12","pbrMetallicRoughness":{"baseColorFactor":[1,1,1,1],"metallicFactor":0,"roughnessFactor":1},"doubleSided":true,"extras":{"legacyMaterial":12,"legacyShader":"dist/renderer-gl.js","limitation":"Browser procedural material not implemented by this glTF export; source/base attributes retained."}},{"name":"legacy-material-52","pbrMetallicRoughness":{"baseColorFactor":[1,1,1,1],"metallicFactor":0,"roughnessFactor":1,"baseColorTexture":{"index":2}},"doubleSided":true,"extras":{"legacyMaterial":52,"legacyShader":"dist/renderer-gl.js"}},{"name":"legacy-material-53","pbrMetallicRoughness":{"baseColorFactor":[1,1,1,1],"metallicFactor":0,"roughnessFactor":1,"baseColorTexture":{"index":3}},"doubleSided":true,"extras":{"legacyMaterial":53,"legacyShader":"dist/renderer-gl.js"},"alphaMode":"MASK","alphaCutoff":0.45},{"name":"legacy-material-49","pbrMetallicRoughness":{"baseColorFactor":[1,1,1,1],"metallicFactor":0,"roughnessFactor":1,"baseColorTexture":{"index":4}},"doubleSided":true,"extras":{"legacyMaterial":49,"legacyShader":"dist/renderer-gl.js"}},{"name":"legacy-material-50","pbrMetallicRoughness":{"baseColorFactor":[1,1,1,1],"metallicFactor":0,"roughnessFactor":1,"baseColorTexture":{"index":5}},"doubleSided":true,"extras":{"legacyMaterial":50,"legacyShader":"dist/renderer-gl.js"},"alphaMode":"MASK","alphaCutoff":0.45},{"name":"legacy-material-49","pbrMetallicRoughness":{"baseColorFactor":[1,1,1,1],"metallicFactor":0,"roughnessFactor":1,"baseColorTexture":{"index":6}},"doubleSided":true,"extras":{"legacyMaterial":49,"legacyShader":"dist/renderer-gl.js"}},{"name":"legacy-material-50","pbrMetallicRoughness":{"baseColorFactor":[1,1,1,1],"metallicFactor":0,"roughnessFactor":1,"baseColorTexture":{"index":7}},"doubleSided":true,"extras":{"legacyMaterial":50,"legacyShader":"dist/renderer-gl.js"},"alphaMode":"MASK","alphaCutoff":0.45},{"name":"legacy-material-49","pbrMetallicRoughness":{"baseColorFactor":[1,1,1,1],"metallicFactor":0,"roughnessFactor":1,"baseColorTexture":{"index":8}},"doubleSided":true,"extras":{"legacyMaterial":49,"legacyShader":"dist/renderer-gl.js"}},{"name":"legacy-material-54","pbrMetallicRoughness":{"baseColorFactor":[1,1,1,1],"metallicFactor":0,"roughnessFactor":1,"baseColorTexture":{"index":9}},"doubleSided":true,"extras":{"legacyMaterial":54,"legacyShader":"dist/renderer-gl.js"},"alphaMode":"MASK","alphaCutoff":0.45}],"images":[{"name":"atlas-13","uri":"../../textures/atlas/tile-13.png"},{"name":"atlas-13","uri":"../../textures/atlas/tile-13.png"},{"name":"atlas-32","uri":"../../textures/atlas/tile-32.png"},{"name":"atlas-33","uri":"../../textures/atlas/tile-33.png"},{"name":"atlas-29","uri":"../../textures/atlas/tile-29.png"},{"name":"atlas-30","uri":"../../textures/atlas/tile-30.png"},{"name":"atlas-29","uri":"../../textures/atlas/tile-29.png"},{"name":"atlas-30","uri":"../../textures/atlas/tile-30.png"},{"name":"atlas-29","uri":"../../textures/atlas/tile-29.png"},{"name":"atlas-34","uri":"../../textures/atlas/tile-34.png"}],"textures":[{"source":0,"sampler":0},{"source":1,"sampler":1},{"source":2,"sampler":2},{"source":3,"sampler":2},{"source":4,"sampler":3},{"source":5,"sampler":3},{"source":6,"sampler":4},{"source":7,"sampler":4},{"source":8,"sampler":5},{"source":9,"sampler":5}],"samplers":[{"magFilter":9729,"minFilter":9729,"wrapS":10497,"wrapT":10497},{"magFilter":9729,"minFilter":9729,"wrapS":10497,"wrapT":10497},{"magFilter":9729,"minFilter":9729,"wrapS":10497,"wrapT":10497},{"magFilter":9729,"minFilter":9729,"wrapS":10497,"wrapT":10497},{"magFilter":9729,"minFilter":9729,"wrapS":10497,"wrapT":10497},{"magFilter":9729,"minFilter":9729,"wrapS":10497,"wrapT":10497}]}
