{"asset":{"version":"2.0","generator":"Veldren static world recovery"},"scene":0,"scenes":[{"nodes":[0,2,4,6,8,10,12,14,16,18]}],"extras":{"sourceScene":"overworld","notVervesisScene":true,"gameplayIdentityExternal":true,"limitations":["Terrain stored separately.","Dynamic actors, fires, gates, crops, fish, effects and ground cover are not baked.","Roofs are closed; browser procedural materials require native support."]},"nodes":[{"name":"Oak tree","children":[1],"extras":{"veldrenEntityKey":"overworld:object:963"}},{"mesh":0,"matrix":[-0.3623115978792318,0.0,0.8465510050825013,0.0,0.0,0.9208247923269633,0.0,0.0,-0.8465510050825013,0.0,-0.3623115978792318,0.0,120.5,0.4012993289863865,516.5,1.0]},{"name":"Oak tree","children":[3],"extras":{"veldrenEntityKey":"overworld:object:982"}},{"mesh":0,"matrix":[0.8920113907654882,0.0,0.3526555195480489,0.0,0.0,0.9591924920072534,0.0,0.0,-0.3526555195480489,0.0,0.8920113907654882,0.0,112.5,0.5111345788843572,526.5,1.0]},{"name":"Maple tree","children":[5],"extras":{"veldrenEntityKey":"overworld:object:983"}},{"mesh":1,"matrix":[-0.31747630942610033,0.0,-0.6543607943519738,0.0,0.0,0.7273096013609082,0.0,0.0,0.6543607943519738,0.0,-0.31747630942610033,0.0,120.5,1.288000021081467,537.5,1.0]},{"name":"Oak tree","children":[7],"extras":{"veldrenEntityKey":"overworld:object:998"}},{"mesh":0,"matrix":[0.9504963615798278,0.0,-0.30279201221828467,0.0,0.0,0.9975601916875435,0.0,0.0,0.30279201221828467,0.0,0.9504963615798278,0.0,109.5,0.18169332971995528,520.5,1.0]},{"name":"Willow tree","children":[9],"extras":{"veldrenEntityKey":"overworld:object:999"}},{"mesh":2,"matrix":[-0.7611107095902083,0.0,-0.35293298084302444,0.0,0.0,0.8389584025562012,0.0,0.0,0.35293298084302444,0.0,-0.7611107095902083,0.0,116.5,0.866685084628814,532.5,1.0]},{"name":"Maple tree","children":[11],"extras":{"veldrenEntityKey":"overworld:object:1000"}},{"mesh":1,"matrix":[0.26847046148167175,0.0,0.6457512440703493,0.0,0.0,0.6993361551547194,0.0,0.0,-0.6457512440703493,0.0,0.26847046148167175,0.0,123.5,0.6104289396300452,545.5,1.0]},{"name":"Tree","children":[13],"extras":{"veldrenEntityKey":"overworld:object:1001"}},{"mesh":3,"matrix":[0.2691005809294383,0.0,-0.7404584705596133,0.0,0.0,0.7878412716277581,0.0,0.0,0.7404584705596133,0.0,0.2691005809294383,0.0,127.5,1.1179266798112184,548.5,1.0]},{"name":"Willow tree","children":[15],"extras":{"veldrenEntityKey":"overworld:object:1016"}},{"mesh":2,"matrix":[0.8011134787876255,0.0,0.4292607417701694,0.0,0.0,0.9088716027692181,0.0,0.0,-0.4292607417701694,0.0,0.8011134787876255,0.0,117.5,0.5243229093104422,522.5,1.0]},{"name":"Maple tree","children":[17],"extras":{"veldrenEntityKey":"overworld:object:1017"}},{"mesh":1,"matrix":[-0.22155027217162374,0.0,-0.6337533935746529,0.0,0.0,0.6713627089485306,0.0,0.0,0.6337533935746529,0.0,-0.22155027217162374,0.0,124.5,1.2012614489643327,532.5,1.0]},{"name":"Tree","children":[19],"extras":{"veldrenEntityKey":"overworld:object:1036"}},{"mesh":3,"matrix":[-0.7078489441514851,0.0,0.2698448544784936,0.0,0.0,0.7575396842574597,0.0,0.0,-0.2698448544784936,0.0,-0.7078489441514851,0.0,121.5,0.8617693227767855,527.5,1.0]}],"buffers":[{"uri":"../world-parts/cf73d73e4a52b629e942c4cf3ba67a960257f3fda86af0eadf8051aa3c1f7c97.bin","byteLength":133656},{"uri":"../world-parts/133dae8ce562dbc4cbf0d0d2cb7dc4cb2baafed83b6c58ebd4446a3657088e0f.bin","byteLength":180744},{"uri":"../world-parts/629e78b439d8b314fb62411e16a47eeeaf0f6f78bb3f3150468167c9e9d3eef3.bin","byteLength":92004},{"uri":"../world-parts/8480a643e36c0194bf11e79cbc019e38e5ff72b8bc295b144212e5f7a5b37347.bin","byteLength":64668}],"bufferViews":[{"buffer":0,"byteOffset":0,"byteLength":15912,"target":34962},{"buffer":0,"byteOffset":15912,"byteLength":15912,"target":34962},{"buffer":0,"byteOffset":31824,"byteLength":10608,"target":34962},{"buffer":0,"byteOffset":42432,"byteLength":15912,"target":34962},{"buffer":0,"byteOffset":58344,"byteLength":15912,"target":34962},{"buffer":0,"byteOffset":74256,"byteLength":15912,"target":34962},{"buffer":0,"byteOffset":90168,"byteLength":15912,"target":34962},{"buffer":0,"byteOffset":106080,"byteLength":5304,"target":34962},{"buffer":0,"byteOffset":111384,"byteLength":10464,"target":34963},{"buffer":0,"byteOffset":121848,"byteLength":11808,"target":34963},{"buffer":1,"byteOffset":0,"byteLength":21552,"target":34962},{"buffer":1,"byteOffset":21552,"byteLength":21552,"target":34962},{"buffer":1,"byteOffset":43104,"byteLength":14368,"target":34962},{"buffer":1,"byteOffset":57472,"byteLength":21552,"target":34962},{"buffer":1,"byteOffset":79024,"byteLength":21552,"target":34962},{"buffer":1,"byteOffset":100576,"byteLength":21552,"target":34962},{"buffer":1,"byteOffset":122128,"byteLength":21552,"target":34962},{"buffer":1,"byteOffset":143680,"byteLength":7184,"target":34962},{"buffer":1,"byteOffset":150864,"byteLength":17496,"target":34963},{"buffer":1,"byteOffset":168360,"byteLength":12384,"target":34963},{"buffer":2,"byteOffset":0,"byteLength":10956,"target":34962},{"buffer":2,"byteOffset":10956,"byteLength":10956,"target":34962},{"buffer":2,"byteOffset":21912,"byteLength":7304,"target":34962},{"buffer":2,"byteOffset":29216,"byteLength":10956,"target":34962},{"buffer":2,"byteOffset":40172,"byteLength":10956,"target":34962},{"buffer":2,"byteOffset":51128,"byteLength":10956,"target":34962},{"buffer":2,"byteOffset":62084,"byteLength":10956,"target":34962},{"buffer":2,"byteOffset":73040,"byteLength":3652,"target":34962},{"buffer":2,"byteOffset":76692,"byteLength":8112,"target":34963},{"buffer":2,"byteOffset":84804,"byteLength":7200,"target":34963},{"buffer":3,"byteOffset":0,"byteLength":7860,"target":34962},{"buffer":3,"byteOffset":7860,"byteLength":7860,"target":34962},{"buffer":3,"byteOffset":15720,"byteLength":5240,"target":34962},{"buffer":3,"byteOffset":20960,"byteLength":7860,"target":34962},{"buffer":3,"byteOffset":28820,"byteLength":7860,"target":34962},{"buffer":3,"byteOffset":36680,"byteLength":7860,"target":34962},{"buffer":3,"byteOffset":44540,"byteLength":7860,"target":34962},{"buffer":3,"byteOffset":52400,"byteLength":2620,"target":34962},{"buffer":3,"byteOffset":55020,"byteLength":5328,"target":34963},{"buffer":3,"byteOffset":60348,"byteLength":4320,"target":34963}],"accessors":[{"bufferView":0,"componentType":5126,"count":1326,"type":"VEC3","min":[-3.6411149501800537,0.011172999627888203,-2.5864460468292236],"max":[3.095597982406616,6.3706889152526855,2.3982579708099365]},{"bufferView":1,"componentType":5126,"count":1326,"type":"VEC3"},{"bufferView":2,"componentType":5126,"count":1326,"type":"VEC2"},{"bufferView":3,"componentType":5126,"count":1326,"type":"VEC3"},{"bufferView":4,"componentType":5126,"count":1326,"type":"VEC3"},{"bufferView":5,"componentType":5126,"count":1326,"type":"VEC3"},{"bufferView":6,"componentType":5126,"count":1326,"type":"VEC3"},{"bufferView":7,"componentType":5126,"count":1326,"type":"SCALAR"},{"bufferView":8,"componentType":5125,"count":2616,"type":"SCALAR"},{"bufferView":9,"componentType":5125,"count":2952,"type":"SCALAR"},{"bufferView":10,"componentType":5126,"count":1796,"type":"VEC3","min":[-4.721841812133789,-0.0018220000201836228,-1.3137749433517456],"max":[4.035912990570068,10.293656349182129,3.0319550037384033]},{"bufferView":11,"componentType":5126,"count":1796,"type":"VEC3"},{"bufferView":12,"componentType":5126,"count":1796,"type":"VEC2"},{"bufferView":13,"componentType":5126,"count":1796,"type":"VEC3"},{"bufferView":14,"componentType":5126,"count":1796,"type":"VEC3"},{"bufferView":15,"componentType":5126,"count":1796,"type":"VEC3"},{"bufferView":16,"componentType":5126,"count":1796,"type":"VEC3"},{"bufferView":17,"componentType":5126,"count":1796,"type":"SCALAR"},{"bufferView":18,"componentType":5125,"count":4374,"type":"SCALAR"},{"bufferView":19,"componentType":5125,"count":3096,"type":"SCALAR"},{"bufferView":20,"componentType":5126,"count":913,"type":"VEC3","min":[-2.969912052154541,-0.0013800000306218863,-2.3520750999450684],"max":[3.394526958465576,5.491145133972168,2.5843169689178467]},{"bufferView":21,"componentType":5126,"count":913,"type":"VEC3"},{"bufferView":22,"componentType":5126,"count":913,"type":"VEC2"},{"bufferView":23,"componentType":5126,"count":913,"type":"VEC3"},{"bufferView":24,"componentType":5126,"count":913,"type":"VEC3"},{"bufferView":25,"componentType":5126,"count":913,"type":"VEC3"},{"bufferView":26,"componentType":5126,"count":913,"type":"VEC3"},{"bufferView":27,"componentType":5126,"count":913,"type":"SCALAR"},{"bufferView":28,"componentType":5125,"count":2028,"type":"SCALAR"},{"bufferView":29,"componentType":5125,"count":1800,"type":"SCALAR"},{"bufferView":30,"componentType":5126,"count":655,"type":"VEC3","min":[-2.3328819274902344,0.011172999627888203,-2.0712060928344727],"max":[1.805098056793213,5.555437088012695,2.05914306640625]},{"bufferView":31,"componentType":5126,"count":655,"type":"VEC3"},{"bufferView":32,"componentType":5126,"count":655,"type":"VEC2"},{"bufferView":33,"componentType":5126,"count":655,"type":"VEC3"},{"bufferView":34,"componentType":5126,"count":655,"type":"VEC3"},{"bufferView":35,"componentType":5126,"count":655,"type":"VEC3"},{"bufferView":36,"componentType":5126,"count":655,"type":"VEC3"},{"bufferView":37,"componentType":5126,"count":655,"type":"SCALAR"},{"bufferView":38,"componentType":5125,"count":1332,"type":"SCALAR"},{"bufferView":39,"componentType":5125,"count":1080,"type":"SCALAR"}],"meshes":[{"name":"cf73d73e4a52b629e942c4cf3ba67a960257f3fda86af0eadf8051aa3c1f7c97","primitives":[{"attributes":{"POSITION":0,"NORMAL":1,"TEXCOORD_0":2,"COLOR_0":3,"_VELDREN_NORMAL":4,"_VELDREN_COLOR":5,"_VELDREN_FALLBACK":6,"_VELDREN_MATERIAL":7},"indices":8,"material":0,"extras":{"mixedAtlasFallback":false}},{"attributes":{"POSITION":0,"NORMAL":1,"TEXCOORD_0":2,"COLOR_0":3,"_VELDREN_NORMAL":4,"_VELDREN_COLOR":5,"_VELDREN_FALLBACK":6,"_VELDREN_MATERIAL":7},"indices":9,"material":1,"extras":{"mixedAtlasFallback":false}}]},{"name":"133dae8ce562dbc4cbf0d0d2cb7dc4cb2baafed83b6c58ebd4446a3657088e0f","primitives":[{"attributes":{"POSITION":10,"NORMAL":11,"TEXCOORD_0":12,"COLOR_0":13,"_VELDREN_NORMAL":14,"_VELDREN_COLOR":15,"_VELDREN_FALLBACK":16,"_VELDREN_MATERIAL":17},"indices":18,"material":2,"extras":{"mixedAtlasFallback":false}},{"attributes":{"POSITION":10,"NORMAL":11,"TEXCOORD_0":12,"COLOR_0":13,"_VELDREN_NORMAL":14,"_VELDREN_COLOR":15,"_VELDREN_FALLBACK":16,"_VELDREN_MATERIAL":17},"indices":19,"material":3,"extras":{"mixedAtlasFallback":false}}]},{"name":"629e78b439d8b314fb62411e16a47eeeaf0f6f78bb3f3150468167c9e9d3eef3","primitives":[{"attributes":{"POSITION":20,"NORMAL":21,"TEXCOORD_0":22,"COLOR_0":23,"_VELDREN_NORMAL":24,"_VELDREN_COLOR":25,"_VELDREN_FALLBACK":26,"_VELDREN_MATERIAL":27},"indices":28,"material":4,"extras":{"mixedAtlasFallback":false}},{"attributes":{"POSITION":20,"NORMAL":21,"TEXCOORD_0":22,"COLOR_0":23,"_VELDREN_NORMAL":24,"_VELDREN_COLOR":25,"_VELDREN_FALLBACK":26,"_VELDREN_MATERIAL":27},"indices":29,"material":5,"extras":{"mixedAtlasFallback":false}}]},{"name":"8480a643e36c0194bf11e79cbc019e38e5ff72b8bc295b144212e5f7a5b37347","primitives":[{"attributes":{"POSITION":30,"NORMAL":31,"TEXCOORD_0":32,"COLOR_0":33,"_VELDREN_NORMAL":34,"_VELDREN_COLOR":35,"_VELDREN_FALLBACK":36,"_VELDREN_MATERIAL":37},"indices":38,"material":6,"extras":{"mixedAtlasFallback":false}},{"attributes":{"POSITION":30,"NORMAL":31,"TEXCOORD_0":32,"COLOR_0":33,"_VELDREN_NORMAL":34,"_VELDREN_COLOR":35,"_VELDREN_FALLBACK":36,"_VELDREN_MATERIAL":37},"indices":39,"material":7,"extras":{"mixedAtlasFallback":false}}]}],"materials":[{"name":"legacy-material-49","pbrMetallicRoughness":{"baseColorFactor":[1,1,1,1],"metallicFactor":0,"roughnessFactor":1,"baseColorTexture":{"index":0}},"doubleSided":true,"extras":{"legacyMaterial":49,"legacyShader":"dist/renderer-gl.js"}},{"name":"legacy-material-50","pbrMetallicRoughness":{"baseColorFactor":[1,1,1,1],"metallicFactor":0,"roughnessFactor":1,"baseColorTexture":{"index":1}},"doubleSided":true,"extras":{"legacyMaterial":50,"legacyShader":"dist/renderer-gl.js"},"alphaMode":"MASK","alphaCutoff":0.45},{"name":"legacy-material-52","pbrMetallicRoughness":{"baseColorFactor":[1,1,1,1],"metallicFactor":0,"roughnessFactor":1,"baseColorTexture":{"index":2}},"doubleSided":true,"extras":{"legacyMaterial":52,"legacyShader":"dist/renderer-gl.js"}},{"name":"legacy-material-53","pbrMetallicRoughness":{"baseColorFactor":[1,1,1,1],"metallicFactor":0,"roughnessFactor":1,"baseColorTexture":{"index":3}},"doubleSided":true,"extras":{"legacyMaterial":53,"legacyShader":"dist/renderer-gl.js"},"alphaMode":"MASK","alphaCutoff":0.45},{"name":"legacy-material-49","pbrMetallicRoughness":{"baseColorFactor":[1,1,1,1],"metallicFactor":0,"roughnessFactor":1,"baseColorTexture":{"index":4}},"doubleSided":true,"extras":{"legacyMaterial":49,"legacyShader":"dist/renderer-gl.js"}},{"name":"legacy-material-51","pbrMetallicRoughness":{"baseColorFactor":[1,1,1,1],"metallicFactor":0,"roughnessFactor":1,"baseColorTexture":{"index":5}},"doubleSided":true,"extras":{"legacyMaterial":51,"legacyShader":"dist/renderer-gl.js"},"alphaMode":"MASK","alphaCutoff":0.45},{"name":"legacy-material-49","pbrMetallicRoughness":{"baseColorFactor":[1,1,1,1],"metallicFactor":0,"roughnessFactor":1,"baseColorTexture":{"index":6}},"doubleSided":true,"extras":{"legacyMaterial":49,"legacyShader":"dist/renderer-gl.js"}},{"name":"legacy-material-50","pbrMetallicRoughness":{"baseColorFactor":[1,1,1,1],"metallicFactor":0,"roughnessFactor":1,"baseColorTexture":{"index":7}},"doubleSided":true,"extras":{"legacyMaterial":50,"legacyShader":"dist/renderer-gl.js"},"alphaMode":"MASK","alphaCutoff":0.45}],"images":[{"name":"atlas-29","uri":"../../textures/atlas/tile-29.png"},{"name":"atlas-30","uri":"../../textures/atlas/tile-30.png"},{"name":"atlas-32","uri":"../../textures/atlas/tile-32.png"},{"name":"atlas-33","uri":"../../textures/atlas/tile-33.png"},{"name":"atlas-29","uri":"../../textures/atlas/tile-29.png"},{"name":"atlas-31","uri":"../../textures/atlas/tile-31.png"},{"name":"atlas-29","uri":"../../textures/atlas/tile-29.png"},{"name":"atlas-30","uri":"../../textures/atlas/tile-30.png"}],"textures":[{"source":0,"sampler":0},{"source":1,"sampler":0},{"source":2,"sampler":1},{"source":3,"sampler":1},{"source":4,"sampler":2},{"source":5,"sampler":2},{"source":6,"sampler":3},{"source":7,"sampler":3}],"samplers":[{"magFilter":9729,"minFilter":9729,"wrapS":10497,"wrapT":10497},{"magFilter":9729,"minFilter":9729,"wrapS":10497,"wrapT":10497},{"magFilter":9729,"minFilter":9729,"wrapS":10497,"wrapT":10497},{"magFilter":9729,"minFilter":9729,"wrapS":10497,"wrapT":10497}]}
