{"asset":{"version":"2.0","generator":"Veldren static world recovery"},"scene":0,"scenes":[{"nodes":[0,2,4,6,8,10,12,14,16,18,20,22,24,26,28,30,32,34,36,38,40,42,44,46,48,50,52,54,56,58,60,62,64,66,68,70,72,74,76,78,80,82,84,86,88,90,92]}],"extras":{"sourceScene":"overworld","notVervesisScene":true,"gameplayIdentityExternal":true,"limitations":["Terrain stored separately.","Dynamic actors, fires, gates, crops, fish, effects and ground cover are not baked.","Roofs are closed; browser procedural materials require native support."]},"nodes":[{"name":"Yew tree","children":[1],"extras":{"veldrenEntityKey":"overworld:object:1077"}},{"mesh":0,"matrix":[0.18925626986570507,0.0,-0.7836877994456853,0.0,0.0,0.8062161637448739,0.0,0.0,0.7836877994456853,0.0,0.18925626986570507,0.0,183.5,3.1633345556148136,642.5,1.0]},{"name":"Magic tree","children":[3],"extras":{"veldrenEntityKey":"overworld:object:1078"}},{"mesh":1,"matrix":[-1.1647754078239927,0.0,0.7819858073395877,0.0,0.0,1.4029267812512864,0.0,0.0,-0.7819858073395877,0.0,-1.1647754078239927,0.0,204.5,4.2109048088185,642.5,1.0]},{"name":"Maple tree","children":[5],"extras":{"veldrenEntityKey":"overworld:object:1079"}},{"mesh":2,"matrix":[0.7189956921837553,0.0,0.1096560570737696,0.0,0.0,0.7273096013609082,0.0,0.0,-0.1096560570737696,0.0,0.7189956921837553,0.0,225.5,3.7685686500136057,642.5,1.0]},{"name":"Magic tree","children":[7],"extras":{"veldrenEntityKey":"overworld:object:1099"}},{"mesh":1,"matrix":[-1.0687000999776337,0.0,0.9088914400850581,0.0,0.0,1.4029267812512864,0.0,0.0,-0.9088914400850581,0.0,-1.0687000999776337,0.0,177.5,0.8032006980431515,643.5,1.0]},{"name":"Yew tree","children":[9],"extras":{"veldrenEntityKey":"overworld:object:1100"}},{"mesh":0,"matrix":[0.8727759852485212,0.0,0.03303201436274177,0.0,0.0,0.8734008440569468,0.0,0.0,-0.03303201436274177,0.0,0.8727759852485212,0.0,188.5,0.9021662890392967,652.5,1.0]},{"name":"Maple tree","children":[11],"extras":{"veldrenEntityKey":"overworld:object:1101"}},{"mesh":2,"matrix":[-0.47708170290540086,0.0,-0.4723567885820973,0.0,0.0,0.6713627089485306,0.0,0.0,0.4723567885820973,0.0,-0.47708170290540086,0.0,246.5,3.6753298392046183,663.5,1.0]},{"name":"Yew tree","children":[13],"extras":{"veldrenEntityKey":"overworld:object:1123"}},{"mesh":0,"matrix":[0.1348741021071324,0.0,0.8289072926480261,0.0,0.0,0.8398085039009104,0.0,0.0,-0.8289072926480261,0.0,0.1348741021071324,0.0,188.5,3.196973402108383,646.5,1.0]},{"name":"Yew tree","children":[15],"extras":{"veldrenEntityKey":"overworld:object:1124"}},{"mesh":0,"matrix":[0.47958886993875743,0.0,-0.7299476352658818,0.0,0.0,0.8734008440569468,0.0,0.0,0.7299476352658818,0.0,0.47958886993875743,0.0,225.5,1.626559351433599,684.5,1.0]},{"name":"Magic tree","children":[17],"extras":{"veldrenEntityKey":"overworld:object:1125"}},{"mesh":1,"matrix":[-1.3059638464913366,0.0,0.32917294331576424,0.0,0.0,1.346809710001235,0.0,0.0,-0.32917294331576424,0.0,-1.3059638464913366,0.0,246.5,4.122952571016637,684.5,1.0]},{"name":"Yew tree","children":[19],"extras":{"veldrenEntityKey":"overworld:object:1142"}},{"mesh":0,"matrix":[0.8578140159159178,0.0,-0.1642685255841567,0.0,0.0,0.8734008440569468,0.0,0.0,0.1642685255841567,0.0,0.8578140159159178,0.0,206.5,1.3041039178199907,668.5,1.0]},{"name":"Magic tree","children":[21],"extras":{"veldrenEntityKey":"overworld:object:1143"}},{"mesh":1,"matrix":[-1.145797704238589,0.0,-0.7078446269593276,0.0,0.0,1.346809710001235,0.0,0.0,0.7078446269593276,0.0,-1.145797704238589,0.0,220.5,1.1574484209173626,680.5,1.0]},{"name":"Maple tree","children":[23],"extras":{"veldrenEntityKey":"overworld:object:1144"}},{"mesh":2,"matrix":[0.1897794780246999,0.0,0.6730934612869583,0.0,0.0,0.6993361551547194,0.0,0.0,-0.6730934612869583,0.0,0.1897794780246999,0.0,230.5,1.2123873084283683,690.5,1.0]},{"name":"Yew tree","children":[25],"extras":{"veldrenEntityKey":"overworld:object:1145"}},{"mesh":0,"matrix":[0.39381812642030667,0.0,-0.7795744465425907,0.0,0.0,0.8734008440569468,0.0,0.0,0.7795744465425907,0.0,0.39381812642030667,0.0,248.5,0.6971247756794074,705.5,1.0]},{"name":"Oak tree","children":[27],"extras":{"veldrenEntityKey":"overworld:object:1171"}},{"mesh":3,"matrix":[0.76639378466345,0.0,-0.5767935536674439,0.0,0.0,0.9591924920072534,0.0,0.0,0.5767935536674439,0.0,0.76639378466345,0.0,193.5,4.466957997049489,641.5,1.0]},{"name":"Magic tree","children":[29],"extras":{"veldrenEntityKey":"overworld:object:1172"}},{"mesh":1,"matrix":[-1.4521249803321172,0.0,-0.14192253174670266,0.0,0.0,1.4590438525013378,0.0,0.0,0.14192253174670266,0.0,-1.4521249803321172,0.0,201.5,0.6516358013479215,665.5,1.0]},{"name":"Maple tree","children":[31],"extras":{"veldrenEntityKey":"overworld:object:1173"}},{"mesh":2,"matrix":[0.448100843892653,0.0,0.4999335162493124,0.0,0.0,0.6713627089485306,0.0,0.0,-0.4999335162493124,0.0,0.448100843892653,0.0,231.5,3.697743834971088,684.5,1.0]},{"name":"Yew tree","children":[33],"extras":{"veldrenEntityKey":"overworld:object:1174"}},{"mesh":0,"matrix":[0.009921219219086428,0.0,-0.839749898858876,0.0,0.0,0.8398085039009104,0.0,0.0,0.839749898858876,0.0,0.009921219219086428,0.0,235.5,1.3286621583394056,694.5,1.0]},{"name":"Tree","children":[35],"extras":{"veldrenEntityKey":"overworld:object:1200"}},{"mesh":4,"matrix":[0.329140240437568,0.0,-0.6484920598502036,0.0,0.0,0.7272380968871612,0.0,0.0,0.6484920598502036,0.0,0.329140240437568,0.0,183.5,1.2401491760066043,647.5,1.0]},{"name":"Tree","children":[37],"extras":{"veldrenEntityKey":"overworld:object:1202"}},{"mesh":4,"matrix":[0.7304490433594854,0.0,0.29519157226326026,0.0,0.0,0.7878412716277581,0.0,0.0,-0.29519157226326026,0.0,0.7304490433594854,0.0,205.5,3.09134686532469,662.5,1.0]},{"name":"Oak tree","children":[39],"extras":{"veldrenEntityKey":"overworld:object:1203"}},{"mesh":3,"matrix":[-0.3956677398993525,0.0,-0.831483816900205,0.0,0.0,0.9208247923269633,0.0,0.0,0.831483816900205,0.0,-0.3956677398993525,0.0,213.5,0.7108244537755436,675.5,1.0]},{"name":"Yew tree","children":[41],"extras":{"veldrenEntityKey":"overworld:object:1204"}},{"mesh":0,"matrix":[-0.246932487619827,0.0,0.8026846639759412,0.0,0.0,0.8398085039009104,0.0,0.0,-0.8026846639759412,0.0,-0.246932487619827,0.0,212.5,3.161635777442654,668.5,1.0]},{"name":"Magic tree","children":[43],"extras":{"veldrenEntityKey":"overworld:object:1205"}},{"mesh":1,"matrix":[1.2590512991514535,0.0,-0.7372915228232199,0.0,0.0,1.4590438525013378,0.0,0.0,0.7372915228232199,0.0,1.2590512991514535,0.0,226.5,4.0110352595922825,677.5,1.0]},{"name":"Magic tree","children":[45],"extras":{"veldrenEntityKey":"overworld:object:1206"}},{"mesh":1,"matrix":[-1.316420594505787,0.0,-0.284487632973107,0.0,0.0,1.346809710001235,0.0,0.0,0.284487632973107,0.0,-1.316420594505787,0.0,253.5,0.6824627012335948,708.5,1.0]},{"name":"Silverwood tree","children":[47],"extras":{"veldrenEntityKey":"overworld:object:6810510"}},{"mesh":4,"matrix":[-0.0875773790913302,0.0,-0.7219456019919739,0.0,0.0,0.7272380968871612,0.0,0.0,0.7219456019919739,0.0,-0.0875773790913302,0.0,188.5,4.594848818796221,640.5,1.0]},{"name":"Silverwood tree","children":[49],"extras":{"veldrenEntityKey":"overworld:object:6810655"}},{"mesh":4,"matrix":[-0.5113964238473601,0.0,0.5588739311338676,0.0,0.0,0.7575396842574597,0.0,0.0,-0.5588739311338676,0.0,-0.5113964238473601,0.0,247.5,3.478568582386963,646.5,1.0]},{"name":"Silverwood tree","children":[51],"extras":{"veldrenEntityKey":"overworld:object:6810656"}},{"mesh":4,"matrix":[0.7848521985109205,0.0,-0.0685630787860163,0.0,0.0,0.7878412716277581,0.0,0.0,0.0685630787860163,0.0,0.7848521985109205,0.0,251.5,3.474627938481858,649.5,1.0]},{"name":"Silverwood tree","children":[53],"extras":{"veldrenEntityKey":"overworld:object:6810792"}},{"mesh":4,"matrix":[0.6768338947745561,0.0,0.2660284354131438,0.0,0.0,0.7272380968871612,0.0,0.0,-0.2660284354131438,0.0,0.6768338947745561,0.0,234.5,3.6774533370518507,657.5,1.0]},{"name":"Silverwood tree","children":[55],"extras":{"veldrenEntityKey":"overworld:object:6810793"}},{"mesh":4,"matrix":[-0.33202827483760483,0.0,-0.6808991099518751,0.0,0.0,0.7575396842574597,0.0,0.0,0.6808991099518751,0.0,-0.33202827483760483,0.0,247.5,3.532095532022747,653.5,1.0]},{"name":"Silverwood tree","children":[57],"extras":{"veldrenEntityKey":"overworld:object:6811068"}},{"mesh":4,"matrix":[-0.31255112323508466,0.0,-0.6566483419064935,0.0,0.0,0.7272380968871612,0.0,0.0,0.6566483419064935,0.0,-0.31255112323508466,0.0,238.5,3.863521204866776,673.5,1.0]},{"name":"Silverwood tree","children":[59],"extras":{"veldrenEntityKey":"overworld:object:6811069"}},{"mesh":4,"matrix":[-0.22267058521891306,0.0,0.7240747086476357,0.0,0.0,0.7575396842574597,0.0,0.0,-0.7240747086476357,0.0,-0.22267058521891306,0.0,245.5,3.77172218852724,669.5,1.0]},{"name":"Silverwood tree","children":[61],"extras":{"veldrenEntityKey":"overworld:object:6811070"}},{"mesh":4,"matrix":[0.6798114870658967,0.0,-0.3981836402130267,0.0,0.0,0.7878412716277581,0.0,0.0,0.3981836402130267,0.0,0.6798114870658967,0.0,250.5,3.7511441222904907,668.5,1.0]},{"name":"Silverwood tree","children":[63],"extras":{"veldrenEntityKey":"overworld:object:6811207"}},{"mesh":4,"matrix":[-0.5917144126306433,0.0,-0.47301207924329425,0.0,0.0,0.7575396842574597,0.0,0.0,0.47301207924329425,0.0,-0.5917144126306433,0.0,243.5,3.981087193374078,679.5,1.0]},{"name":"Silverwood tree","children":[65],"extras":{"veldrenEntityKey":"overworld:object:6811208"}},{"mesh":4,"matrix":[0.12071873862805295,0.0,0.7785376390542044,0.0,0.0,0.7878412716277581,0.0,0.0,-0.7785376390542044,0.0,0.12071873862805295,0.0,251.5,4.033820193329615,680.5,1.0]},{"name":"Silverwood tree","children":[67],"extras":{"veldrenEntityKey":"overworld:object:6811345"}},{"mesh":4,"matrix":[0.6572564942505995,0.0,-0.3766699802085418,0.0,0.0,0.7575396842574597,0.0,0.0,0.3766699802085418,0.0,0.6572564942505995,0.0,241.5,4.095203426004845,684.5,1.0]},{"name":"Silverwood tree","children":[69],"extras":{"veldrenEntityKey":"overworld:object:6811346"}},{"mesh":4,"matrix":[-0.7684736209736132,0.0,-0.17361498537783648,0.0,0.0,0.7878412716277581,0.0,0.0,0.17361498537783648,0.0,-0.7684736209736132,0.0,253.5,4.186318841501275,685.5,1.0]},{"name":"Silverwood tree","children":[71],"extras":{"veldrenEntityKey":"overworld:object:6811484"}},{"mesh":4,"matrix":[0.4436883475063561,0.0,-0.651025744166175,0.0,0.0,0.7878412716277581,0.0,0.0,0.651025744166175,0.0,0.4436883475063561,0.0,254.5,4.503451714367803,695.5,1.0]},{"name":"Magic tree","children":[73],"extras":{"veldrenEntityKey":"overworld:object:9126100"}},{"mesh":1,"matrix":[1.3562635278856943,0.0,0.3588213991377127,0.0,0.0,1.4029267812512864,0.0,0.0,-0.3588213991377127,0.0,1.3562635278856943,0.0,213.5,4.00242544401445,645.5,1.0]},{"name":"Yew tree","children":[75],"extras":{"veldrenEntityKey":"overworld:object:9126102"}},{"mesh":0,"matrix":[-0.13880395624242559,0.0,0.7941775396061967,0.0,0.0,0.8062161637448739,0.0,0.0,-0.7941775396061967,0.0,-0.13880395624242559,0.0,219.5,3.9368838976170526,645.5,1.0]},{"name":"Yew tree","children":[77],"extras":{"veldrenEntityKey":"overworld:object:9126105"}},{"mesh":0,"matrix":[0.5440892591867078,0.0,0.5949381318432706,0.0,0.0,0.8062161637448739,0.0,0.0,-0.5949381318432706,0.0,0.5440892591867078,0.0,216.5,4.001022605573409,652.5,1.0]},{"name":"Yew tree","children":[79],"extras":{"veldrenEntityKey":"overworld:object:9126108"}},{"mesh":0,"matrix":[0.8033867619009318,0.0,-0.06748491302385155,0.0,0.0,0.8062161637448739,0.0,0.0,0.06748491302385155,0.0,0.8033867619009318,0.0,207.5,4.190165694771597,650.5,1.0]},{"name":"Maple tree","children":[81],"extras":{"veldrenEntityKey":"overworld:object:9126120"}},{"mesh":2,"matrix":[-0.5550568874640492,0.0,0.37767676476774575,0.0,0.0,0.6713627089485306,0.0,0.0,-0.37767676476774575,0.0,-0.5550568874640492,0.0,243.5,3.608181438802313,657.5,1.0]},{"name":"Maple tree","children":[83],"extras":{"veldrenEntityKey":"overworld:object:9126126"}},{"mesh":2,"matrix":[0.5062835656254708,0.0,0.4409136402338546,0.0,0.0,0.6713627089485306,0.0,0.0,-0.4409136402338546,0.0,0.5062835656254708,0.0,242.5,3.536389142923019,647.5,1.0]},{"name":"Yew tree","children":[85],"extras":{"veldrenEntityKey":"overworld:object:9126127"}},{"mesh":0,"matrix":[-0.09362026917497214,0.0,-0.83457388434092,0.0,0.0,0.8398085039009104,0.0,0.0,0.83457388434092,0.0,-0.09362026917497214,0.0,253.5,3.677745813886183,660.5,1.0]},{"name":"Magic tree","children":[87],"extras":{"veldrenEntityKey":"overworld:object:9127061"}},{"mesh":1,"matrix":[1.0689097669006558,0.0,0.9930966084658287,0.0,0.0,1.4590438525013378,0.0,0.0,-0.9930966084658287,0.0,1.0689097669006558,0.0,218.5,3.7658773741935927,671.5,1.0]},{"name":"Willow tree","children":[89],"extras":{"veldrenEntityKey":"overworld:object:9128041"}},{"mesh":5,"matrix":[0.8178797766271725,0.0,-0.30789625340892063,0.0,0.0,0.8739150026627096,0.0,0.0,0.30789625340892063,0.0,0.8178797766271725,0.0,245.5,2.337833954053207,698.5,1.0]},{"name":"Willow tree","children":[91],"extras":{"veldrenEntityKey":"overworld:object:9128042"}},{"mesh":5,"matrix":[-0.8431760247392854,0.0,-0.33926653478517915,0.0,0.0,0.9088716027692181,0.0,0.0,0.33926653478517915,0.0,-0.8431760247392854,0.0,255.5,2.8919585774054717,702.5,1.0]},{"name":"Yew tree","children":[93],"extras":{"veldrenEntityKey":"overworld:object:9128049"}},{"mesh":0,"matrix":[0.6153323622548925,0.0,-0.5209132237189944,0.0,0.0,0.8062161637448739,0.0,0.0,0.5209132237189944,0.0,0.6153323622548925,0.0,244.5,4.357950009271805,691.5,1.0]}],"buffers":[{"uri":"../world-parts/7e2e11a73c6c1f6b77c7c18c44a87655900818e94c168e7a92bb0a48cc87a1c1.bin","byteLength":46872},{"uri":"../world-parts/883bf022a4c95c0b0a24ce14e7511dc7b18eb62759134961097aa30193af8da4.bin","byteLength":86364},{"uri":"../world-parts/133dae8ce562dbc4cbf0d0d2cb7dc4cb2baafed83b6c58ebd4446a3657088e0f.bin","byteLength":180744},{"uri":"../world-parts/cf73d73e4a52b629e942c4cf3ba67a960257f3fda86af0eadf8051aa3c1f7c97.bin","byteLength":133656},{"uri":"../world-parts/8480a643e36c0194bf11e79cbc019e38e5ff72b8bc295b144212e5f7a5b37347.bin","byteLength":64668},{"uri":"../world-parts/629e78b439d8b314fb62411e16a47eeeaf0f6f78bb3f3150468167c9e9d3eef3.bin","byteLength":92004}],"bufferViews":[{"buffer":0,"byteOffset":0,"byteLength":5784,"target":34962},{"buffer":0,"byteOffset":5784,"byteLength":5784,"target":34962},{"buffer":0,"byteOffset":11568,"byteLength":3856,"target":34962},{"buffer":0,"byteOffset":15424,"byteLength":5784,"target":34962},{"buffer":0,"byteOffset":21208,"byteLength":5784,"target":34962},{"buffer":0,"byteOffset":26992,"byteLength":5784,"target":34962},{"buffer":0,"byteOffset":32776,"byteLength":5784,"target":34962},{"buffer":0,"byteOffset":38560,"byteLength":1928,"target":34962},{"buffer":0,"byteOffset":40488,"byteLength":1776,"target":34963},{"buffer":0,"byteOffset":42264,"byteLength":4608,"target":34963},{"buffer":1,"byteOffset":0,"byteLength":10260,"target":34962},{"buffer":1,"byteOffset":10260,"byteLength":10260,"target":34962},{"buffer":1,"byteOffset":20520,"byteLength":6840,"target":34962},{"buffer":1,"byteOffset":27360,"byteLength":10260,"target":34962},{"buffer":1,"byteOffset":37620,"byteLength":10260,"target":34962},{"buffer":1,"byteOffset":47880,"byteLength":10260,"target":34962},{"buffer":1,"byteOffset":58140,"byteLength":10260,"target":34962},{"buffer":1,"byteOffset":68400,"byteLength":3420,"target":34962},{"buffer":1,"byteOffset":71820,"byteLength":9072,"target":34963},{"buffer":1,"byteOffset":80892,"byteLength":5472,"target":34963},{"buffer":2,"byteOffset":0,"byteLength":21552,"target":34962},{"buffer":2,"byteOffset":21552,"byteLength":21552,"target":34962},{"buffer":2,"byteOffset":43104,"byteLength":14368,"target":34962},{"buffer":2,"byteOffset":57472,"byteLength":21552,"target":34962},{"buffer":2,"byteOffset":79024,"byteLength":21552,"target":34962},{"buffer":2,"byteOffset":100576,"byteLength":21552,"target":34962},{"buffer":2,"byteOffset":122128,"byteLength":21552,"target":34962},{"buffer":2,"byteOffset":143680,"byteLength":7184,"target":34962},{"buffer":2,"byteOffset":150864,"byteLength":17496,"target":34963},{"buffer":2,"byteOffset":168360,"byteLength":12384,"target":34963},{"buffer":3,"byteOffset":0,"byteLength":15912,"target":34962},{"buffer":3,"byteOffset":15912,"byteLength":15912,"target":34962},{"buffer":3,"byteOffset":31824,"byteLength":10608,"target":34962},{"buffer":3,"byteOffset":42432,"byteLength":15912,"target":34962},{"buffer":3,"byteOffset":58344,"byteLength":15912,"target":34962},{"buffer":3,"byteOffset":74256,"byteLength":15912,"target":34962},{"buffer":3,"byteOffset":90168,"byteLength":15912,"target":34962},{"buffer":3,"byteOffset":106080,"byteLength":5304,"target":34962},{"buffer":3,"byteOffset":111384,"byteLength":10464,"target":34963},{"buffer":3,"byteOffset":121848,"byteLength":11808,"target":34963},{"buffer":4,"byteOffset":0,"byteLength":7860,"target":34962},{"buffer":4,"byteOffset":7860,"byteLength":7860,"target":34962},{"buffer":4,"byteOffset":15720,"byteLength":5240,"target":34962},{"buffer":4,"byteOffset":20960,"byteLength":7860,"target":34962},{"buffer":4,"byteOffset":28820,"byteLength":7860,"target":34962},{"buffer":4,"byteOffset":36680,"byteLength":7860,"target":34962},{"buffer":4,"byteOffset":44540,"byteLength":7860,"target":34962},{"buffer":4,"byteOffset":52400,"byteLength":2620,"target":34962},{"buffer":4,"byteOffset":55020,"byteLength":5328,"target":34963},{"buffer":4,"byteOffset":60348,"byteLength":4320,"target":34963},{"buffer":5,"byteOffset":0,"byteLength":10956,"target":34962},{"buffer":5,"byteOffset":10956,"byteLength":10956,"target":34962},{"buffer":5,"byteOffset":21912,"byteLength":7304,"target":34962},{"buffer":5,"byteOffset":29216,"byteLength":10956,"target":34962},{"buffer":5,"byteOffset":40172,"byteLength":10956,"target":34962},{"buffer":5,"byteOffset":51128,"byteLength":10956,"target":34962},{"buffer":5,"byteOffset":62084,"byteLength":10956,"target":34962},{"buffer":5,"byteOffset":73040,"byteLength":3652,"target":34962},{"buffer":5,"byteOffset":76692,"byteLength":8112,"target":34963},{"buffer":5,"byteOffset":84804,"byteLength":7200,"target":34963}],"accessors":[{"bufferView":0,"componentType":5126,"count":482,"type":"VEC3","min":[-3.7659718990325928,-0.07409700006246567,-3.4778990745544434],"max":[3.116921901702881,8.022987365722656,3.8158159255981445]},{"bufferView":1,"componentType":5126,"count":482,"type":"VEC3"},{"bufferView":2,"componentType":5126,"count":482,"type":"VEC2"},{"bufferView":3,"componentType":5126,"count":482,"type":"VEC3"},{"bufferView":4,"componentType":5126,"count":482,"type":"VEC3"},{"bufferView":5,"componentType":5126,"count":482,"type":"VEC3"},{"bufferView":6,"componentType":5126,"count":482,"type":"VEC3"},{"bufferView":7,"componentType":5126,"count":482,"type":"SCALAR"},{"bufferView":8,"componentType":5125,"count":444,"type":"SCALAR"},{"bufferView":9,"componentType":5125,"count":1152,"type":"SCALAR"},{"bufferView":10,"componentType":5126,"count":855,"type":"VEC3","min":[-3.2856340408325195,-0.0013800000306218863,-2.3520750999450684],"max":[0.9950600266456604,4.346673011779785,1.6284259557724]},{"bufferView":11,"componentType":5126,"count":855,"type":"VEC3"},{"bufferView":12,"componentType":5126,"count":855,"type":"VEC2"},{"bufferView":13,"componentType":5126,"count":855,"type":"VEC3"},{"bufferView":14,"componentType":5126,"count":855,"type":"VEC3"},{"bufferView":15,"componentType":5126,"count":855,"type":"VEC3"},{"bufferView":16,"componentType":5126,"count":855,"type":"VEC3"},{"bufferView":17,"componentType":5126,"count":855,"type":"SCALAR"},{"bufferView":18,"componentType":5125,"count":2268,"type":"SCALAR"},{"bufferView":19,"componentType":5125,"count":1368,"type":"SCALAR"},{"bufferView":20,"componentType":5126,"count":1796,"type":"VEC3","min":[-4.721841812133789,-0.0018220000201836228,-1.3137749433517456],"max":[4.035912990570068,10.293656349182129,3.0319550037384033]},{"bufferView":21,"componentType":5126,"count":1796,"type":"VEC3"},{"bufferView":22,"componentType":5126,"count":1796,"type":"VEC2"},{"bufferView":23,"componentType":5126,"count":1796,"type":"VEC3"},{"bufferView":24,"componentType":5126,"count":1796,"type":"VEC3"},{"bufferView":25,"componentType":5126,"count":1796,"type":"VEC3"},{"bufferView":26,"componentType":5126,"count":1796,"type":"VEC3"},{"bufferView":27,"componentType":5126,"count":1796,"type":"SCALAR"},{"bufferView":28,"componentType":5125,"count":4374,"type":"SCALAR"},{"bufferView":29,"componentType":5125,"count":3096,"type":"SCALAR"},{"bufferView":30,"componentType":5126,"count":1326,"type":"VEC3","min":[-3.6411149501800537,0.011172999627888203,-2.5864460468292236],"max":[3.095597982406616,6.3706889152526855,2.3982579708099365]},{"bufferView":31,"componentType":5126,"count":1326,"type":"VEC3"},{"bufferView":32,"componentType":5126,"count":1326,"type":"VEC2"},{"bufferView":33,"componentType":5126,"count":1326,"type":"VEC3"},{"bufferView":34,"componentType":5126,"count":1326,"type":"VEC3"},{"bufferView":35,"componentType":5126,"count":1326,"type":"VEC3"},{"bufferView":36,"componentType":5126,"count":1326,"type":"VEC3"},{"bufferView":37,"componentType":5126,"count":1326,"type":"SCALAR"},{"bufferView":38,"componentType":5125,"count":2616,"type":"SCALAR"},{"bufferView":39,"componentType":5125,"count":2952,"type":"SCALAR"},{"bufferView":40,"componentType":5126,"count":655,"type":"VEC3","min":[-2.3328819274902344,0.011172999627888203,-2.0712060928344727],"max":[1.805098056793213,5.555437088012695,2.05914306640625]},{"bufferView":41,"componentType":5126,"count":655,"type":"VEC3"},{"bufferView":42,"componentType":5126,"count":655,"type":"VEC2"},{"bufferView":43,"componentType":5126,"count":655,"type":"VEC3"},{"bufferView":44,"componentType":5126,"count":655,"type":"VEC3"},{"bufferView":45,"componentType":5126,"count":655,"type":"VEC3"},{"bufferView":46,"componentType":5126,"count":655,"type":"VEC3"},{"bufferView":47,"componentType":5126,"count":655,"type":"SCALAR"},{"bufferView":48,"componentType":5125,"count":1332,"type":"SCALAR"},{"bufferView":49,"componentType":5125,"count":1080,"type":"SCALAR"},{"bufferView":50,"componentType":5126,"count":913,"type":"VEC3","min":[-2.969912052154541,-0.0013800000306218863,-2.3520750999450684],"max":[3.394526958465576,5.491145133972168,2.5843169689178467]},{"bufferView":51,"componentType":5126,"count":913,"type":"VEC3"},{"bufferView":52,"componentType":5126,"count":913,"type":"VEC2"},{"bufferView":53,"componentType":5126,"count":913,"type":"VEC3"},{"bufferView":54,"componentType":5126,"count":913,"type":"VEC3"},{"bufferView":55,"componentType":5126,"count":913,"type":"VEC3"},{"bufferView":56,"componentType":5126,"count":913,"type":"VEC3"},{"bufferView":57,"componentType":5126,"count":913,"type":"SCALAR"},{"bufferView":58,"componentType":5125,"count":2028,"type":"SCALAR"},{"bufferView":59,"componentType":5125,"count":1800,"type":"SCALAR"}],"meshes":[{"name":"7e2e11a73c6c1f6b77c7c18c44a87655900818e94c168e7a92bb0a48cc87a1c1","primitives":[{"attributes":{"POSITION":0,"NORMAL":1,"TEXCOORD_0":2,"COLOR_0":3,"_VELDREN_NORMAL":4,"_VELDREN_COLOR":5,"_VELDREN_FALLBACK":6,"_VELDREN_MATERIAL":7},"indices":8,"material":0,"extras":{"mixedAtlasFallback":false}},{"attributes":{"POSITION":0,"NORMAL":1,"TEXCOORD_0":2,"COLOR_0":3,"_VELDREN_NORMAL":4,"_VELDREN_COLOR":5,"_VELDREN_FALLBACK":6,"_VELDREN_MATERIAL":7},"indices":9,"material":1,"extras":{"mixedAtlasFallback":false}}]},{"name":"883bf022a4c95c0b0a24ce14e7511dc7b18eb62759134961097aa30193af8da4","primitives":[{"attributes":{"POSITION":10,"NORMAL":11,"TEXCOORD_0":12,"COLOR_0":13,"_VELDREN_NORMAL":14,"_VELDREN_COLOR":15,"_VELDREN_FALLBACK":16,"_VELDREN_MATERIAL":17},"indices":18,"material":2,"extras":{"mixedAtlasFallback":false}},{"attributes":{"POSITION":10,"NORMAL":11,"TEXCOORD_0":12,"COLOR_0":13,"_VELDREN_NORMAL":14,"_VELDREN_COLOR":15,"_VELDREN_FALLBACK":16,"_VELDREN_MATERIAL":17},"indices":19,"material":3,"extras":{"mixedAtlasFallback":false}}]},{"name":"133dae8ce562dbc4cbf0d0d2cb7dc4cb2baafed83b6c58ebd4446a3657088e0f","primitives":[{"attributes":{"POSITION":20,"NORMAL":21,"TEXCOORD_0":22,"COLOR_0":23,"_VELDREN_NORMAL":24,"_VELDREN_COLOR":25,"_VELDREN_FALLBACK":26,"_VELDREN_MATERIAL":27},"indices":28,"material":4,"extras":{"mixedAtlasFallback":false}},{"attributes":{"POSITION":20,"NORMAL":21,"TEXCOORD_0":22,"COLOR_0":23,"_VELDREN_NORMAL":24,"_VELDREN_COLOR":25,"_VELDREN_FALLBACK":26,"_VELDREN_MATERIAL":27},"indices":29,"material":5,"extras":{"mixedAtlasFallback":false}}]},{"name":"cf73d73e4a52b629e942c4cf3ba67a960257f3fda86af0eadf8051aa3c1f7c97","primitives":[{"attributes":{"POSITION":30,"NORMAL":31,"TEXCOORD_0":32,"COLOR_0":33,"_VELDREN_NORMAL":34,"_VELDREN_COLOR":35,"_VELDREN_FALLBACK":36,"_VELDREN_MATERIAL":37},"indices":38,"material":6,"extras":{"mixedAtlasFallback":false}},{"attributes":{"POSITION":30,"NORMAL":31,"TEXCOORD_0":32,"COLOR_0":33,"_VELDREN_NORMAL":34,"_VELDREN_COLOR":35,"_VELDREN_FALLBACK":36,"_VELDREN_MATERIAL":37},"indices":39,"material":7,"extras":{"mixedAtlasFallback":false}}]},{"name":"8480a643e36c0194bf11e79cbc019e38e5ff72b8bc295b144212e5f7a5b37347","primitives":[{"attributes":{"POSITION":40,"NORMAL":41,"TEXCOORD_0":42,"COLOR_0":43,"_VELDREN_NORMAL":44,"_VELDREN_COLOR":45,"_VELDREN_FALLBACK":46,"_VELDREN_MATERIAL":47},"indices":48,"material":8,"extras":{"mixedAtlasFallback":false}},{"attributes":{"POSITION":40,"NORMAL":41,"TEXCOORD_0":42,"COLOR_0":43,"_VELDREN_NORMAL":44,"_VELDREN_COLOR":45,"_VELDREN_FALLBACK":46,"_VELDREN_MATERIAL":47},"indices":49,"material":9,"extras":{"mixedAtlasFallback":false}}]},{"name":"629e78b439d8b314fb62411e16a47eeeaf0f6f78bb3f3150468167c9e9d3eef3","primitives":[{"attributes":{"POSITION":50,"NORMAL":51,"TEXCOORD_0":52,"COLOR_0":53,"_VELDREN_NORMAL":54,"_VELDREN_COLOR":55,"_VELDREN_FALLBACK":56,"_VELDREN_MATERIAL":57},"indices":58,"material":10,"extras":{"mixedAtlasFallback":false}},{"attributes":{"POSITION":50,"NORMAL":51,"TEXCOORD_0":52,"COLOR_0":53,"_VELDREN_NORMAL":54,"_VELDREN_COLOR":55,"_VELDREN_FALLBACK":56,"_VELDREN_MATERIAL":57},"indices":59,"material":11,"extras":{"mixedAtlasFallback":false}}]}],"materials":[{"name":"legacy-material-49","pbrMetallicRoughness":{"baseColorFactor":[1,1,1,1],"metallicFactor":0,"roughnessFactor":1,"baseColorTexture":{"index":0}},"doubleSided":true,"extras":{"legacyMaterial":49,"legacyShader":"dist/renderer-gl.js"}},{"name":"legacy-material-54","pbrMetallicRoughness":{"baseColorFactor":[1,1,1,1],"metallicFactor":0,"roughnessFactor":1,"baseColorTexture":{"index":1}},"doubleSided":true,"extras":{"legacyMaterial":54,"legacyShader":"dist/renderer-gl.js"},"alphaMode":"MASK","alphaCutoff":0.45},{"name":"legacy-material-49","pbrMetallicRoughness":{"baseColorFactor":[1,1,1,1],"metallicFactor":0,"roughnessFactor":1,"baseColorTexture":{"index":2}},"doubleSided":true,"extras":{"legacyMaterial":49,"legacyShader":"dist/renderer-gl.js"}},{"name":"legacy-material-55","pbrMetallicRoughness":{"baseColorFactor":[1,1,1,1],"metallicFactor":0,"roughnessFactor":1,"baseColorTexture":{"index":3}},"doubleSided":true,"extras":{"legacyMaterial":55,"legacyShader":"dist/renderer-gl.js"},"alphaMode":"MASK","alphaCutoff":0.45},{"name":"legacy-material-52","pbrMetallicRoughness":{"baseColorFactor":[1,1,1,1],"metallicFactor":0,"roughnessFactor":1,"baseColorTexture":{"index":4}},"doubleSided":true,"extras":{"legacyMaterial":52,"legacyShader":"dist/renderer-gl.js"}},{"name":"legacy-material-53","pbrMetallicRoughness":{"baseColorFactor":[1,1,1,1],"metallicFactor":0,"roughnessFactor":1,"baseColorTexture":{"index":5}},"doubleSided":true,"extras":{"legacyMaterial":53,"legacyShader":"dist/renderer-gl.js"},"alphaMode":"MASK","alphaCutoff":0.45},{"name":"legacy-material-49","pbrMetallicRoughness":{"baseColorFactor":[1,1,1,1],"metallicFactor":0,"roughnessFactor":1,"baseColorTexture":{"index":6}},"doubleSided":true,"extras":{"legacyMaterial":49,"legacyShader":"dist/renderer-gl.js"}},{"name":"legacy-material-50","pbrMetallicRoughness":{"baseColorFactor":[1,1,1,1],"metallicFactor":0,"roughnessFactor":1,"baseColorTexture":{"index":7}},"doubleSided":true,"extras":{"legacyMaterial":50,"legacyShader":"dist/renderer-gl.js"},"alphaMode":"MASK","alphaCutoff":0.45},{"name":"legacy-material-49","pbrMetallicRoughness":{"baseColorFactor":[1,1,1,1],"metallicFactor":0,"roughnessFactor":1,"baseColorTexture":{"index":8}},"doubleSided":true,"extras":{"legacyMaterial":49,"legacyShader":"dist/renderer-gl.js"}},{"name":"legacy-material-50","pbrMetallicRoughness":{"baseColorFactor":[1,1,1,1],"metallicFactor":0,"roughnessFactor":1,"baseColorTexture":{"index":9}},"doubleSided":true,"extras":{"legacyMaterial":50,"legacyShader":"dist/renderer-gl.js"},"alphaMode":"MASK","alphaCutoff":0.45},{"name":"legacy-material-49","pbrMetallicRoughness":{"baseColorFactor":[1,1,1,1],"metallicFactor":0,"roughnessFactor":1,"baseColorTexture":{"index":10}},"doubleSided":true,"extras":{"legacyMaterial":49,"legacyShader":"dist/renderer-gl.js"}},{"name":"legacy-material-51","pbrMetallicRoughness":{"baseColorFactor":[1,1,1,1],"metallicFactor":0,"roughnessFactor":1,"baseColorTexture":{"index":11}},"doubleSided":true,"extras":{"legacyMaterial":51,"legacyShader":"dist/renderer-gl.js"},"alphaMode":"MASK","alphaCutoff":0.45}],"images":[{"name":"atlas-29","uri":"../../textures/atlas/tile-29.png"},{"name":"atlas-34","uri":"../../textures/atlas/tile-34.png"},{"name":"atlas-29","uri":"../../textures/atlas/tile-29.png"},{"name":"atlas-35","uri":"../../textures/atlas/tile-35.png"},{"name":"atlas-32","uri":"../../textures/atlas/tile-32.png"},{"name":"atlas-33","uri":"../../textures/atlas/tile-33.png"},{"name":"atlas-29","uri":"../../textures/atlas/tile-29.png"},{"name":"atlas-30","uri":"../../textures/atlas/tile-30.png"},{"name":"atlas-29","uri":"../../textures/atlas/tile-29.png"},{"name":"atlas-30","uri":"../../textures/atlas/tile-30.png"},{"name":"atlas-29","uri":"../../textures/atlas/tile-29.png"},{"name":"atlas-31","uri":"../../textures/atlas/tile-31.png"}],"textures":[{"source":0,"sampler":0},{"source":1,"sampler":0},{"source":2,"sampler":1},{"source":3,"sampler":1},{"source":4,"sampler":2},{"source":5,"sampler":2},{"source":6,"sampler":3},{"source":7,"sampler":3},{"source":8,"sampler":4},{"source":9,"sampler":4},{"source":10,"sampler":5},{"source":11,"sampler":5}],"samplers":[{"magFilter":9729,"minFilter":9729,"wrapS":10497,"wrapT":10497},{"magFilter":9729,"minFilter":9729,"wrapS":10497,"wrapT":10497},{"magFilter":9729,"minFilter":9729,"wrapS":10497,"wrapT":10497},{"magFilter":9729,"minFilter":9729,"wrapS":10497,"wrapT":10497},{"magFilter":9729,"minFilter":9729,"wrapS":10497,"wrapT":10497},{"magFilter":9729,"minFilter":9729,"wrapS":10497,"wrapT":10497}]}
