{"asset":{"version":"2.0","generator":"Veldren static world recovery"},"scene":0,"scenes":[{"nodes":[0,5,10,12,14,19,24,26,28,33,35,37,39,41,43,45,47,49,51,53,55,57,59,61,63,65,67,69,71,73,75,77,79,81,83,85,87,89,91,93,95,97,99,101,103,105,107,109,111,113,115,117,119,121,123,125,127,129,131,133,135,137,139,141,143,145,147,149,151,153,155,157,159,161,163,165,167,169,171,173,175,177,179,181,183,185,187,189,191,193,195,197,199,201,203,205,207,209,211,213,215,217,219,221,223,225,227,229,231,233,235,237,239,241,243,245,247,249,251,253,255,257,259,261,263,265,267,269,271,273,275,277,279,281,283,285,287,289,291,293,295,297,299,301]}],"extras":{"sourceScene":"overworld","notVervesisScene":true,"gameplayIdentityExternal":true,"limitations":["Terrain stored separately.","Dynamic actors, fires, gates, crops, fish, effects and ground cover are not baked.","Roofs are closed; browser procedural materials require native support."]},"nodes":[{"name":"Dining table","children":[1,2,3,4],"extras":{"veldrenEntityKey":"overworld:object:2144"}},{"mesh":0,"matrix":[0.9588829055315417,0.0,0.0,0.0,0.0,0.9588829055315417,0.0,0.0,0.0,0.0,0.9588829055315417,0.0,342.5,5.546722378467884,642.4939153127403,1.0]},{"mesh":1,"matrix":[0.8903870142199419,0.0,0.0,0.0,0.0,0.8903870142199419,0.0,0.0,0.0,0.0,0.8903870142199419,0.0,342.15990035881885,6.328605907595241,642.4999999800983,1.0]},{"mesh":2,"matrix":[0.9245011738728264,0.0,0.0,0.0,0.0,0.9245011738728264,0.0,0.0,0.0,0.0,0.9245011738728264,0.0,342.776267638674,6.33222558789864,642.3812390054587,1.0]},{"mesh":3,"matrix":[1.8683322315556792,0.0,0.0,0.0,0.0,1.8683322315556792,0.0,0.0,0.0,0.0,1.8683322315556792,0.0,342.585621678405,6.325203409526468,642.5,1.0]},{"name":"Bookcase","children":[6,7,8,9],"extras":{"veldrenEntityKey":"overworld:object:2145"}},{"mesh":4,"matrix":[4.331025043099047e-17,0.0,0.7073100209236145,0.0,0.0,0.7073100209236145,0.0,0.0,-0.7073100209236145,0.0,4.331025043099047e-17,0.0,351.6099853515625,5.560228499049844,642.5,1.0]},{"mesh":5,"matrix":[5.953652311185118e-17,0.0,0.972305178642273,0.0,0.0,0.972305178642273,0.0,0.0,-0.972305178642273,0.0,5.953652311185118e-17,0.0,351.5470275878906,5.851650038200022,642.5112915039062,1.0]},{"mesh":5,"matrix":[5.953652311185118e-17,0.0,0.972305178642273,0.0,0.0,0.972305178642273,0.0,0.0,-0.972305178642273,0.0,5.953652311185118e-17,0.0,351.5470275878906,6.331650057273508,642.5112915039062,1.0]},{"mesh":5,"matrix":[5.953652311185118e-17,0.0,0.972305178642273,0.0,0.0,0.972305178642273,0.0,0.0,-0.972305178642273,0.0,5.953652311185118e-17,0.0,351.5470275878906,6.831649997668864,642.5112915039062,1.0]},{"name":"Chair","children":[11],"extras":{"veldrenEntityKey":"overworld:object:1641400"}},{"mesh":6,"matrix":[-0.9169539213180542,0.0,-1.122944797748426e-16,0.0,0.0,0.9169539213180542,0.0,0.0,1.122944797748426e-16,0.0,-0.9169539213180542,0.0,342.5,5.55041464294918,644.4843139648438,1.0]},{"name":"Barrel","children":[13],"extras":{"veldrenEntityKey":"overworld:object:1641401"}},{"mesh":7,"matrix":[5.59163175301761e-17,0.0,0.9131826758384705,0.0,0.0,0.9131826758384705,0.0,0.0,-0.9131826758384705,0.0,5.59163175301761e-17,0.0,351.4549560546875,5.544794943813757,645.5,1.0]},{"name":"Dining table","children":[15,16,17,18],"extras":{"veldrenEntityKey":"overworld:object:2150"}},{"mesh":0,"matrix":[0.9588829055315417,0.0,0.0,0.0,0.0,0.9588829055315417,0.0,0.0,0.0,0.0,0.9588829055315417,0.0,360.5,5.600427928815737,642.4939153127403,1.0]},{"mesh":1,"matrix":[0.8903870142199419,0.0,0.0,0.0,0.0,0.8903870142199419,0.0,0.0,0.0,0.0,0.8903870142199419,0.0,360.15990035881885,6.382311457943095,642.4999999800983,1.0]},{"mesh":2,"matrix":[0.9245011738728264,0.0,0.0,0.0,0.0,0.9245011738728264,0.0,0.0,0.0,0.0,0.9245011738728264,0.0,360.776267638674,6.385931138246494,642.3812390054587,1.0]},{"mesh":3,"matrix":[1.8683322315556792,0.0,0.0,0.0,0.0,1.8683322315556792,0.0,0.0,0.0,0.0,1.8683322315556792,0.0,360.585621678405,6.378908959874321,642.5,1.0]},{"name":"Bookcase","children":[20,21,22,23],"extras":{"veldrenEntityKey":"overworld:object:2151"}},{"mesh":4,"matrix":[4.331025043099047e-17,0.0,0.7073100209236145,0.0,0.0,0.7073100209236145,0.0,0.0,-0.7073100209236145,0.0,4.331025043099047e-17,0.0,369.6099853515625,5.613934049397697,642.5,1.0]},{"mesh":5,"matrix":[5.953652311185118e-17,0.0,0.972305178642273,0.0,0.0,0.972305178642273,0.0,0.0,-0.972305178642273,0.0,5.953652311185118e-17,0.0,369.5470275878906,5.9053555885478755,642.5112915039062,1.0]},{"mesh":5,"matrix":[5.953652311185118e-17,0.0,0.972305178642273,0.0,0.0,0.972305178642273,0.0,0.0,-0.972305178642273,0.0,5.953652311185118e-17,0.0,369.5470275878906,6.385355607621362,642.5112915039062,1.0]},{"mesh":5,"matrix":[5.953652311185118e-17,0.0,0.972305178642273,0.0,0.0,0.972305178642273,0.0,0.0,-0.972305178642273,0.0,5.953652311185118e-17,0.0,369.5470275878906,6.885355548016717,642.5112915039062,1.0]},{"name":"Chair","children":[25],"extras":{"veldrenEntityKey":"overworld:object:1641500"}},{"mesh":6,"matrix":[-0.9169539213180542,0.0,-1.122944797748426e-16,0.0,0.0,0.9169539213180542,0.0,0.0,1.122944797748426e-16,0.0,-0.9169539213180542,0.0,360.5,5.6041201932970335,644.4843139648438,1.0]},{"name":"Barrel","children":[27],"extras":{"veldrenEntityKey":"overworld:object:1641501"}},{"mesh":7,"matrix":[5.59163175301761e-17,0.0,0.9131826758384705,0.0,0.0,0.9131826758384705,0.0,0.0,-0.9131826758384705,0.0,5.59163175301761e-17,0.0,369.4549560546875,5.598500494161611,645.5,1.0]},{"name":"Dining table","children":[29,30,31,32],"extras":{"veldrenEntityKey":"overworld:object:2156"}},{"mesh":0,"matrix":[0.9588829055315417,0.0,0.0,0.0,0.0,0.9588829055315417,0.0,0.0,0.0,0.0,0.9588829055315417,0.0,378.5,5.600427928815738,642.4939153127403,1.0]},{"mesh":1,"matrix":[0.8903870142199419,0.0,0.0,0.0,0.0,0.8903870142199419,0.0,0.0,0.0,0.0,0.8903870142199419,0.0,378.15990035881885,6.382311457943095,642.4999999800983,1.0]},{"mesh":2,"matrix":[0.9245011738728264,0.0,0.0,0.0,0.0,0.9245011738728264,0.0,0.0,0.0,0.0,0.9245011738728264,0.0,378.776267638674,6.3859311382464945,642.3812390054587,1.0]},{"mesh":3,"matrix":[1.8683322315556792,0.0,0.0,0.0,0.0,1.8683322315556792,0.0,0.0,0.0,0.0,1.8683322315556792,0.0,378.585621678405,6.378908959874322,642.5,1.0]},{"name":"Chair","children":[34],"extras":{"veldrenEntityKey":"overworld:object:1641600"}},{"mesh":6,"matrix":[-0.9169539213180542,0.0,-1.122944797748426e-16,0.0,0.0,0.9169539213180542,0.0,0.0,1.122944797748426e-16,0.0,-0.9169539213180542,0.0,378.5,5.604120193297034,644.4843139648438,1.0]},{"name":"Aelindor wall tower","children":[36],"extras":{"veldrenEntityKey":"overworld:object:7401575"}},{"mesh":8,"matrix":[1.0,0.0,0.0,0.0,0.0,1.0,0.0,0.0,0.0,0.0,1.0,0.0,0.0,0.0,0.0,1.0]},{"name":"Street lantern","children":[38],"extras":{"veldrenEntityKey":"overworld:object:8300149"}},{"mesh":9,"matrix":[1.0,0.0,0.0,0.0,0.0,1.0,0.0,0.0,0.0,0.0,1.0,0.0,0.0,0.0,0.0,1.0]},{"name":"Street lantern","children":[40],"extras":{"veldrenEntityKey":"overworld:object:8300150"}},{"mesh":10,"matrix":[1.0,0.0,0.0,0.0,0.0,1.0,0.0,0.0,0.0,0.0,1.0,0.0,0.0,0.0,0.0,1.0]},{"name":"Street lantern","children":[42],"extras":{"veldrenEntityKey":"overworld:object:8300466"}},{"mesh":11,"matrix":[1.0,0.0,0.0,0.0,0.0,1.0,0.0,0.0,0.0,0.0,1.0,0.0,0.0,0.0,0.0,1.0]},{"name":"Street lantern","children":[44],"extras":{"veldrenEntityKey":"overworld:object:8300467"}},{"mesh":12,"matrix":[1.0,0.0,0.0,0.0,0.0,1.0,0.0,0.0,0.0,0.0,1.0,0.0,0.0,0.0,0.0,1.0]},{"name":"Maple tree","children":[46],"extras":{"veldrenEntityKey":"overworld:object:1080"}},{"mesh":13,"matrix":[-0.42050541514395323,0.0,-0.5233575095489897,0.0,0.0,0.6713627089485306,0.0,0.0,0.5233575095489897,0.0,-0.42050541514395323,0.0,288.5,3.568717935304745,642.5,1.0]},{"name":"Yew tree","children":[48],"extras":{"veldrenEntityKey":"overworld:object:1081"}},{"mesh":14,"matrix":[-0.05516551425209969,0.0,0.8379946833134366,0.0,0.0,0.8398085039009104,0.0,0.0,-0.8379946833134366,0.0,-0.05516551425209969,0.0,309.5,4.121061318211766,642.5,1.0]},{"name":"Yew tree","children":[50],"extras":{"veldrenEntityKey":"overworld:object:1102"}},{"mesh":14,"matrix":[0.04011246578960228,0.0,0.8388499945237906,0.0,0.0,0.8398085039009104,0.0,0.0,-0.8388499945237906,0.0,0.04011246578960228,0.0,267.5,3.7965801456389685,663.5,1.0]},{"name":"Magic tree","children":[52],"extras":{"veldrenEntityKey":"overworld:object:1103"}},{"mesh":15,"matrix":[0.9341382311984546,0.0,-1.1208009317159617,0.0,0.0,1.4590438525013378,0.0,0.0,1.1208009317159617,0.0,0.9341382311984546,0.0,288.5,4.032327215978307,663.5,1.0]},{"name":"Maple tree","children":[54],"extras":{"veldrenEntityKey":"overworld:object:1104"}},{"mesh":13,"matrix":[-0.6653985476155488,0.0,0.08928975191939781,0.0,0.0,0.6713627089485306,0.0,0.0,-0.08928975191939781,0.0,-0.6653985476155488,0.0,309.5,4.527102147655662,663.5,1.0]},{"name":"Maple tree","children":[56],"extras":{"veldrenEntityKey":"overworld:object:1126"}},{"mesh":13,"matrix":[0.6151671970377417,0.0,0.33262648360482966,0.0,0.0,0.6993361551547194,0.0,0.0,-0.33262648360482966,0.0,0.6151671970377417,0.0,267.5,4.328711606525398,684.5,1.0]},{"name":"Yew tree","children":[58],"extras":{"veldrenEntityKey":"overworld:object:1146"}},{"mesh":14,"matrix":[-0.7544134908389919,0.0,0.2843321781361153,0.0,0.0,0.8062161637448739,0.0,0.0,-0.2843321781361153,0.0,-0.7544134908389919,0.0,309.5,6.056687448635742,705.5,1.0]},{"name":"Magic tree","children":[60],"extras":{"veldrenEntityKey":"overworld:object:1147"}},{"mesh":15,"matrix":[1.30171906351871,0.0,0.5231931127452539,0.0,0.0,1.4029267812512864,0.0,0.0,-0.5231931127452539,0.0,1.30171906351871,0.0,330.5,6.421901099038457,705.5,1.0]},{"name":"Maple tree","children":[62],"extras":{"veldrenEntityKey":"overworld:object:1148"}},{"mesh":13,"matrix":[-0.31375814458335016,0.0,-0.6561517224997406,0.0,0.0,0.7273096013609082,0.0,0.0,0.6561517224997406,0.0,-0.31375814458335016,0.0,351.5,6.700437421463917,705.5,1.0]},{"name":"Magic tree","children":[64],"extras":{"veldrenEntityKey":"overworld:object:1175"}},{"mesh":15,"matrix":[-0.9992355047901902,0.0,1.0631732546902406,0.0,0.0,1.4590438525013378,0.0,0.0,-1.0631732546902406,0.0,-0.9992355047901902,0.0,267.5,0.5961869330228732,714.5,1.0]},{"name":"Magic tree","children":[66],"extras":{"veldrenEntityKey":"overworld:object:1176"}},{"mesh":15,"matrix":[1.343144005524906,0.0,-0.09930042988890915,0.0,0.0,1.346809710001235,0.0,0.0,0.09930042988890915,0.0,1.343144005524906,0.0,288.5,0.6658006900368606,720.5,1.0]},{"name":"Maple tree","children":[68],"extras":{"veldrenEntityKey":"overworld:object:1177"}},{"mesh":13,"matrix":[-0.5486774866887588,0.0,-0.4336174275873752,0.0,0.0,0.6993361551547194,0.0,0.0,0.4336174275873752,0.0,-0.5486774866887588,0.0,308.5,0.6438196354047988,724.5,1.0]},{"name":"Yew tree","children":[70],"extras":{"veldrenEntityKey":"overworld:object:1178"}},{"mesh":14,"matrix":[0.1386382654196058,0.0,0.8623273541763766,0.0,0.0,0.8734008440569468,0.0,0.0,-0.8623273541763766,0.0,0.1386382654196058,0.0,330.5,1.6212693968131053,726.5,1.0]},{"name":"Maple tree","children":[72],"extras":{"veldrenEntityKey":"overworld:object:1207"}},{"mesh":13,"matrix":[0.4036991091359221,0.0,0.5710499865943861,0.0,0.0,0.6993361551547194,0.0,0.0,-0.5710499865943861,0.0,0.4036991091359221,0.0,273.5,2.851736970743053,709.5,1.0]},{"name":"Yew tree","children":[74],"extras":{"veldrenEntityKey":"overworld:object:1208"}},{"mesh":14,"matrix":[0.1108171130903724,0.0,-0.866342081308361,0.0,0.0,0.8734008440569468,0.0,0.0,0.866342081308361,0.0,0.1108171130903724,0.0,294.5,0.6785293271668779,722.5,1.0]},{"name":"Yew tree","children":[76],"extras":{"veldrenEntityKey":"overworld:object:1209"}},{"mesh":14,"matrix":[-0.6161184639108882,0.0,0.5199832123363108,0.0,0.0,0.8062161637448739,0.0,0.0,-0.5199832123363108,0.0,-0.6161184639108882,0.0,344.5,0.9150672690223682,730.5,1.0]},{"name":"Magic tree","children":[78],"extras":{"veldrenEntityKey":"overworld:object:1210"}},{"mesh":15,"matrix":[1.4017123364258401,0.0,0.05836162663691888,0.0,0.0,1.4029267812512864,0.0,0.0,-0.05836162663691888,0.0,1.4017123364258401,0.0,369.5,0.6027049070602228,733.5,1.0]},{"name":"Silverwood tree","children":[80],"extras":{"veldrenEntityKey":"overworld:object:6810519"}},{"mesh":16,"matrix":[-0.2005786124580698,0.0,0.6990303783015839,0.0,0.0,0.7272380968871612,0.0,0.0,-0.6990303783015839,0.0,-0.2005786124580698,0.0,258.5,3.3905050574567794,640.5,1.0]},{"name":"Silverwood tree","children":[82],"extras":{"veldrenEntityKey":"overworld:object:6810658"}},{"mesh":16,"matrix":[0.13021338699720555,0.0,0.7462645958851375,0.0,0.0,0.7575396842574597,0.0,0.0,-0.7462645958851375,0.0,0.13021338699720555,0.0,271.5,3.451926839052708,646.5,1.0]},{"name":"Silverwood tree","children":[84],"extras":{"veldrenEntityKey":"overworld:object:6810661"}},{"mesh":16,"matrix":[0.670446758273447,0.0,0.35265779098939204,0.0,0.0,0.7575396842574597,0.0,0.0,-0.35265779098939204,0.0,0.670446758273447,0.0,292.5,3.6693932674334655,645.5,1.0]},{"name":"Silverwood tree","children":[86],"extras":{"veldrenEntityKey":"overworld:object:6810662"}},{"mesh":16,"matrix":[-0.26568134886709227,0.0,-0.741692180182726,0.0,0.0,0.7878412716277581,0.0,0.0,0.741692180182726,0.0,-0.26568134886709227,0.0,298.5,3.863275124402906,649.5,1.0]},{"name":"Silverwood tree","children":[88],"extras":{"veldrenEntityKey":"overworld:object:6810664"}},{"mesh":16,"matrix":[0.6887099424653935,0.0,-0.3155075092199962,0.0,0.0,0.7575396842574597,0.0,0.0,0.3155075092199962,0.0,0.6887099424653935,0.0,314.5,4.309640314690515,645.5,1.0]},{"name":"Silverwood tree","children":[90],"extras":{"veldrenEntityKey":"overworld:object:6810795"}},{"mesh":16,"matrix":[0.6240142324225296,0.0,-0.3734722041841685,0.0,0.0,0.7272380968871612,0.0,0.0,0.3734722041841685,0.0,0.6240142324225296,0.0,261.5,3.570691418851613,657.5,1.0]},{"name":"Silverwood tree","children":[92],"extras":{"veldrenEntityKey":"overworld:object:6810796"}},{"mesh":16,"matrix":[-0.7419421224479877,0.0,-0.15293220773358002,0.0,0.0,0.7575396842574597,0.0,0.0,0.15293220773358002,0.0,-0.7419421224479877,0.0,269.5,3.5597564260182404,654.5,1.0]},{"name":"Silverwood tree","children":[94],"extras":{"veldrenEntityKey":"overworld:object:6810797"}},{"mesh":16,"matrix":[0.4609168048556878,0.0,0.6389441041919603,0.0,0.0,0.7878412716277581,0.0,0.0,-0.6389441041919603,0.0,0.4609168048556878,0.0,273.5,3.53823212185713,651.5,1.0]},{"name":"Silverwood tree","children":[96],"extras":{"veldrenEntityKey":"overworld:object:6810798"}},{"mesh":16,"matrix":[0.08537400099258645,0.0,-0.7222094775884473,0.0,0.0,0.7272380968871612,0.0,0.0,0.7222094775884473,0.0,0.08537400099258645,0.0,287.5,3.844181363208116,657.5,1.0]},{"name":"Silverwood tree","children":[98],"extras":{"veldrenEntityKey":"overworld:object:6810799"}},{"mesh":16,"matrix":[-0.57422372158989,0.0,0.4940986650339668,0.0,0.0,0.7575396842574597,0.0,0.0,-0.4940986650339668,0.0,-0.57422372158989,0.0,291.5,3.842678391630649,654.5,1.0]},{"name":"Silverwood tree","children":[100],"extras":{"veldrenEntityKey":"overworld:object:6810801"}},{"mesh":16,"matrix":[-0.5197333765381985,0.0,-0.5086771735356949,0.0,0.0,0.7272380968871612,0.0,0.0,0.5086771735356949,0.0,-0.5197333765381985,0.0,311.5,4.361487467881288,656.5,1.0]},{"name":"Silverwood tree","children":[102],"extras":{"veldrenEntityKey":"overworld:object:6810935"}},{"mesh":16,"matrix":[-0.7635628433155591,0.0,0.19407641172461404,0.0,0.0,0.7878412716277581,0.0,0.0,-0.19407641172461404,0.0,-0.7635628433155591,0.0,274.5,3.824188657240682,664.5,1.0]},{"name":"Silverwood tree","children":[104],"extras":{"veldrenEntityKey":"overworld:object:6810941"}},{"mesh":16,"matrix":[0.3816698608594536,0.0,0.6892183881699386,0.0,0.0,0.7878412716277581,0.0,0.0,-0.6892183881699386,0.0,0.3816698608594536,0.0,327.5,5.128295044863807,665.5,1.0]},{"name":"Silverwood tree","children":[106],"extras":{"veldrenEntityKey":"overworld:object:6811071"}},{"mesh":16,"matrix":[-0.7108441401233886,0.0,-0.15354431938792246,0.0,0.0,0.7272380968871612,0.0,0.0,0.15354431938792246,0.0,-0.7108441401233886,0.0,263.5,3.9394323928995205,673.5,1.0]},{"name":"Silverwood tree","children":[108],"extras":{"veldrenEntityKey":"overworld:object:6811072"}},{"mesh":16,"matrix":[0.43735925589645375,0.0,0.6185331474598528,0.0,0.0,0.7575396842574597,0.0,0.0,-0.6185331474598528,0.0,0.43735925589645375,0.0,266.5,3.862574458431989,669.5,1.0]},{"name":"Silverwood tree","children":[110],"extras":{"veldrenEntityKey":"overworld:object:6811078"}},{"mesh":16,"matrix":[0.48714736194794644,0.0,-0.5801325891311815,0.0,0.0,0.7575396842574597,0.0,0.0,0.5801325891311815,0.0,0.48714736194794644,0.0,315.5,4.915451290721372,670.5,1.0]},{"name":"Silverwood tree","children":[112],"extras":{"veldrenEntityKey":"overworld:object:6811080"}},{"mesh":16,"matrix":[0.5948756894190871,0.0,0.4183278184656453,0.0,0.0,0.7272380968871612,0.0,0.0,-0.4183278184656453,0.0,0.5948756894190871,0.0,329.5,5.396921020889394,672.5,1.0]},{"name":"Silverwood tree","children":[114],"extras":{"veldrenEntityKey":"overworld:object:6811210"}},{"mesh":16,"matrix":[-0.7359270186808237,0.0,0.1796602248702987,0.0,0.0,0.7575396842574597,0.0,0.0,-0.1796602248702987,0.0,-0.7359270186808237,0.0,265.5,4.133644153949296,679.5,1.0]},{"name":"Silverwood tree","children":[116],"extras":{"veldrenEntityKey":"overworld:object:6811216"}},{"mesh":16,"matrix":[0.36070651579046137,0.0,0.66615102093384,0.0,0.0,0.7575396842574597,0.0,0.0,-0.66615102093384,0.0,0.36070651579046137,0.0,316.5,5.217531767861855,678.5,1.0]},{"name":"Silverwood tree","children":[118],"extras":{"veldrenEntityKey":"overworld:object:6811217"}},{"mesh":16,"matrix":[0.1921010381793601,0.0,-0.7640622097777476,0.0,0.0,0.7878412716277581,0.0,0.0,0.7640622097777476,0.0,0.1921010381793601,0.0,326.5,5.599747324643558,681.5,1.0]},{"name":"Silverwood tree","children":[120],"extras":{"veldrenEntityKey":"overworld:object:6811219"}},{"mesh":16,"matrix":[0.7477786567773065,0.0,0.12121655700942388,0.0,0.0,0.7575396842574597,0.0,0.0,-0.12121655700942388,0.0,0.7477786567773065,0.0,343.5,5.967390245425592,678.5,1.0]},{"name":"Silverwood tree","children":[122],"extras":{"veldrenEntityKey":"overworld:object:6811220"}},{"mesh":16,"matrix":[-0.4876926538257853,0.0,-0.618748531056362,0.0,0.0,0.7878412716277581,0.0,0.0,0.618748531056362,0.0,-0.4876926538257853,0.0,347.5,6.143496677078548,681.5,1.0]},{"name":"Silverwood tree","children":[124],"extras":{"veldrenEntityKey":"overworld:object:6811347"}},{"mesh":16,"matrix":[0.4142305530088538,0.0,0.5977359772659158,0.0,0.0,0.7272380968871612,0.0,0.0,-0.5977359772659158,0.0,0.4142305530088538,0.0,261.5,4.399011421785594,689.5,1.0]},{"name":"Silverwood tree","children":[126],"extras":{"veldrenEntityKey":"overworld:object:6811357"}},{"mesh":16,"matrix":[-0.38735117813038317,0.0,0.6510187693345683,0.0,0.0,0.7575396842574597,0.0,0.0,-0.6510187693345683,0.0,-0.38735117813038317,0.0,343.5,6.186221519441444,686.5,1.0]},{"name":"Silverwood tree","children":[128],"extras":{"veldrenEntityKey":"overworld:object:6811359"}},{"mesh":16,"matrix":[-0.654485302711863,0.0,-0.317055575724858,0.0,0.0,0.7272380968871612,0.0,0.0,0.317055575724858,0.0,-0.654485302711863,0.0,356.5,6.489772382646354,688.5,1.0]},{"name":"Silverwood tree","children":[130],"extras":{"veldrenEntityKey":"overworld:object:6811360"}},{"mesh":16,"matrix":[0.2789353875591239,0.0,0.7043162803685096,0.0,0.0,0.7575396842574597,0.0,0.0,-0.7043162803685096,0.0,0.2789353875591239,0.0,366.5,6.582661276791262,687.5,1.0]},{"name":"Silverwood tree","children":[132],"extras":{"veldrenEntityKey":"overworld:object:6811486"}},{"mesh":16,"matrix":[0.6601727558137498,0.0,0.3715350665901818,0.0,0.0,0.7575396842574597,0.0,0.0,-0.3715350665901818,0.0,0.6601727558137498,0.0,266.5,4.67995845926537,695.5,1.0]},{"name":"Silverwood tree","children":[134],"extras":{"veldrenEntityKey":"overworld:object:6811498"}},{"mesh":16,"matrix":[-0.7575392582857243,0.0,0.0008033559648618288,0.0,0.0,0.7575396842574597,0.0,0.0,-0.0008033559648618288,0.0,-0.7575392582857243,0.0,364.5,6.691663313550091,694.5,1.0]},{"name":"Silverwood tree","children":[136],"extras":{"veldrenEntityKey":"overworld:object:6811499"}},{"mesh":16,"matrix":[0.5809813867956164,0.0,0.5321226338703187,0.0,0.0,0.7878412716277581,0.0,0.0,-0.5321226338703187,0.0,0.5809813867956164,0.0,370.5,6.758764823603458,697.5,1.0]},{"name":"Silverwood tree","children":[138],"extras":{"veldrenEntityKey":"overworld:object:6811500"}},{"mesh":16,"matrix":[-0.06295193273898594,0.0,-0.7245083186054431,0.0,0.0,0.7272380968871612,0.0,0.0,0.7245083186054431,0.0,-0.06295193273898594,0.0,383.5,6.762190549078982,692.5,1.0]},{"name":"Silverwood tree","children":[140],"extras":{"veldrenEntityKey":"overworld:object:6811636"}},{"mesh":16,"matrix":[0.27744093251467145,0.0,-0.7049063073843794,0.0,0.0,0.7575396842574597,0.0,0.0,0.7049063073843794,0.0,0.27744093251467145,0.0,362.5,6.739623485770053,702.5,1.0]},{"name":"Silverwood tree","children":[142],"extras":{"veldrenEntityKey":"overworld:object:6811638"}},{"mesh":16,"matrix":[0.6970057597780905,0.0,0.20750474789803441,0.0,0.0,0.7272380968871612,0.0,0.0,-0.20750474789803441,0.0,0.6970057597780905,0.0,382.5,6.739843336157916,704.5,1.0]},{"name":"Silverwood tree","children":[144],"extras":{"veldrenEntityKey":"overworld:object:6811775"}},{"mesh":16,"matrix":[-0.06077214036583603,0.0,-0.7854938677261574,0.0,0.0,0.7878412716277581,0.0,0.0,0.7854938677261574,0.0,-0.06077214036583603,0.0,373.5,6.728665650768892,713.5,1.0]},{"name":"Yew tree","children":[146],"extras":{"veldrenEntityKey":"overworld:object:9126181"}},{"mesh":14,"matrix":[0.6322664425570264,0.0,0.5527363465890117,0.0,0.0,0.8398085039009104,0.0,0.0,-0.5527363465890117,0.0,0.6322664425570264,0.0,309.5,4.244065820051372,651.5,1.0]},{"name":"Yew tree","children":[148],"extras":{"veldrenEntityKey":"overworld:object:9126184"}},{"mesh":14,"matrix":[0.8238221461290632,0.0,-0.1630809454583516,0.0,0.0,0.8398085039009104,0.0,0.0,0.1630809454583516,0.0,0.8238221461290632,0.0,305.5,4.302060888065494,657.5,1.0]},{"name":"Magic tree","children":[150],"extras":{"veldrenEntityKey":"overworld:object:9126185"}},{"mesh":15,"matrix":[-1.2460293913273115,0.0,-0.7590913775497884,0.0,0.0,1.4590438525013378,0.0,0.0,0.7590913775497884,0.0,-1.2460293913273115,0.0,300.5,3.751001976806396,641.5,1.0]},{"name":"Maple tree","children":[152],"extras":{"veldrenEntityKey":"overworld:object:9126186"}},{"mesh":13,"matrix":[0.18620638388136113,0.0,0.6450233093218698,0.0,0.0,0.6713627089485306,0.0,0.0,-0.6450233093218698,0.0,0.18620638388136113,0.0,316.5,4.4383673751521036,650.5,1.0]},{"name":"Magic tree","children":[154],"extras":{"veldrenEntityKey":"overworld:object:9126191"}},{"mesh":15,"matrix":[-0.41767779412128914,0.0,1.3979821972471322,0.0,0.0,1.4590438525013378,0.0,0.0,-1.3979821972471322,0.0,-0.41767779412128914,0.0,318.5,4.564690076810603,643.5,1.0]},{"name":"Yew tree","children":[156],"extras":{"veldrenEntityKey":"overworld:object:9126221"}},{"mesh":14,"matrix":[0.47642198157476834,0.0,-0.7320185310986042,0.0,0.0,0.8734008440569468,0.0,0.0,0.7320185310986042,0.0,0.47642198157476834,0.0,357.5,5.708103676033091,657.5,1.0]},{"name":"Magic tree","children":[158],"extras":{"veldrenEntityKey":"overworld:object:9126231"}},{"mesh":15,"matrix":[1.3319059456696782,0.0,0.19980727425039127,0.0,0.0,1.346809710001235,0.0,0.0,-0.19980727425039127,0.0,1.3319059456696782,0.0,368.5,5.603497466797134,657.5,1.0]},{"name":"Yew tree","children":[160],"extras":{"veldrenEntityKey":"overworld:object:9127101"}},{"mesh":14,"matrix":[0.4600187839366489,0.0,-0.6620930607618147,0.0,0.0,0.8062161637448739,0.0,0.0,0.6620930607618147,0.0,0.4600187839366489,0.0,271.5,4.014574641019926,670.5,1.0]},{"name":"Maple tree","children":[162],"extras":{"veldrenEntityKey":"overworld:object:9127103"}},{"mesh":13,"matrix":[0.6305895075135439,0.0,0.362403268811954,0.0,0.0,0.7273096013609082,0.0,0.0,-0.362403268811954,0.0,0.6305895075135439,0.0,279.5,3.9867605790938305,667.5,1.0]},{"name":"Magic tree","children":[164],"extras":{"veldrenEntityKey":"overworld:object:9127105"}},{"mesh":15,"matrix":[-0.5924823556575572,0.0,1.2716792881015901,0.0,0.0,1.4029267812512864,0.0,0.0,-1.2716792881015901,0.0,-0.5924823556575572,0.0,275.5,3.6616861643431062,656.5,1.0]},{"name":"Magic tree","children":[166],"extras":{"veldrenEntityKey":"overworld:object:9127108"}},{"mesh":15,"matrix":[0.6451190648090811,0.0,1.2458029321573905,0.0,0.0,1.4029267812512864,0.0,0.0,-1.2458029321573905,0.0,0.6451190648090811,0.0,282.5,3.8983871588209262,662.5,1.0]},{"name":"Maple tree","children":[168],"extras":{"veldrenEntityKey":"overworld:object:9127112"}},{"mesh":13,"matrix":[-0.43959883636173513,0.0,-0.5794239547181076,0.0,0.0,0.7273096013609082,0.0,0.0,0.5794239547181076,0.0,-0.43959883636173513,0.0,258.5,3.7867340837630254,668.5,1.0]},{"name":"Yew tree","children":[170],"extras":{"veldrenEntityKey":"overworld:object:9127141"}},{"mesh":14,"matrix":[-0.7503374803966537,0.0,-0.3771895925609386,0.0,0.0,0.8398085039009104,0.0,0.0,0.3771895925609386,0.0,-0.7503374803966537,0.0,315.5,4.789419512573792,664.5,1.0]},{"name":"Yew tree","children":[172],"extras":{"veldrenEntityKey":"overworld:object:9127144"}},{"mesh":14,"matrix":[-0.7569268125018079,0.0,0.36378582124670344,0.0,0.0,0.8398085039009104,0.0,0.0,-0.36378582124670344,0.0,-0.7569268125018079,0.0,318.5,4.710416467369319,658.5,1.0]},{"name":"Yew tree","children":[174],"extras":{"veldrenEntityKey":"overworld:object:9127147"}},{"mesh":14,"matrix":[-0.17421770285128457,0.0,0.8215391136382413,0.0,0.0,0.8398085039009104,0.0,0.0,-0.8215391136382413,0.0,-0.17421770285128457,0.0,326.5,5.05334474861929,660.5,1.0]},{"name":"Magic tree","children":[176],"extras":{"veldrenEntityKey":"overworld:object:9127163"}},{"mesh":15,"matrix":[0.6684719991920649,0.0,1.2969017502563984,0.0,0.0,1.4590438525013378,0.0,0.0,-1.2969017502563984,0.0,0.6684719991920649,0.0,340.5,5.588021946242537,658.5,1.0]},{"name":"Maple tree","children":[178],"extras":{"veldrenEntityKey":"overworld:object:9127164"}},{"mesh":13,"matrix":[0.17691876976304646,0.0,-0.6476323307805436,0.0,0.0,0.6713627089485306,0.0,0.0,0.6476323307805436,0.0,0.17691876976304646,0.0,340.5,5.763524446366891,673.5,1.0]},{"name":"Magic tree","children":[180],"extras":{"veldrenEntityKey":"overworld:object:9127169"}},{"mesh":15,"matrix":[1.0845580168133921,0.0,-0.9759830283809996,0.0,0.0,1.4590438525013378,0.0,0.0,0.9759830283809996,0.0,1.0845580168133921,0.0,346.5,5.921275081431116,672.5,1.0]},{"name":"Yew tree","children":[182],"extras":{"veldrenEntityKey":"overworld:object:9127171"}},{"mesh":14,"matrix":[0.6130851454955638,0.0,0.5739380869022102,0.0,0.0,0.8398085039009104,0.0,0.0,-0.5739380869022102,0.0,0.6130851454955638,0.0,345.5,5.6752730811509124,655.5,1.0]},{"name":"Magic tree","children":[184],"extras":{"veldrenEntityKey":"overworld:object:9127180"}},{"mesh":15,"matrix":[-0.5697729118000335,0.0,-1.2820149696984844,0.0,0.0,1.4029267812512864,0.0,0.0,1.2820149696984844,0.0,-0.5697729118000335,0.0,367.5,6.097073927894619,674.5,1.0]},{"name":"Maple tree","children":[186],"extras":{"veldrenEntityKey":"overworld:object:9127181"}},{"mesh":13,"matrix":[-0.23180609833008756,0.0,0.6893802934583676,0.0,0.0,0.7273096013609082,0.0,0.0,-0.6893802934583676,0.0,-0.23180609833008756,0.0,367.5,6.475844951750638,682.5,1.0]},{"name":"Yew tree","children":[188],"extras":{"veldrenEntityKey":"overworld:object:9127182"}},{"mesh":14,"matrix":[0.7060365250052694,0.0,-0.3892260629017345,0.0,0.0,0.8062161637448739,0.0,0.0,0.3892260629017345,0.0,0.7060365250052694,0.0,361.5,6.192639945816598,674.5,1.0]},{"name":"Magic tree","children":[190],"extras":{"veldrenEntityKey":"overworld:object:9127183"}},{"mesh":15,"matrix":[-1.3631269303389273,0.0,-0.3317959091623465,0.0,0.0,1.4029267812512864,0.0,0.0,0.3317959091623465,0.0,-1.3631269303389273,0.0,373.5,6.124475707804636,676.5,1.0]},{"name":"Maple tree","children":[192],"extras":{"veldrenEntityKey":"overworld:object:9127184"}},{"mesh":13,"matrix":[0.40430752843461615,0.0,0.6045780997380366,0.0,0.0,0.7273096013609082,0.0,0.0,-0.6045780997380366,0.0,0.40430752843461615,0.0,360.5,6.456696524209978,684.5,1.0]},{"name":"Maple tree","children":[194],"extras":{"veldrenEntityKey":"overworld:object:9127187"}},{"mesh":13,"matrix":[0.7256512295454581,0.0,0.04908716014323878,0.0,0.0,0.7273096013609082,0.0,0.0,-0.04908716014323878,0.0,0.7256512295454581,0.0,355.5,6.225821783577265,677.5,1.0]},{"name":"Yew tree","children":[196],"extras":{"veldrenEntityKey":"overworld:object:9127188"}},{"mesh":14,"matrix":[-0.5558057002184109,0.0,-0.5840072998586776,0.0,0.0,0.8062161637448739,0.0,0.0,0.5840072998586776,0.0,-0.5558057002184109,0.0,374.5,5.875124388775424,669.5,1.0]},{"name":"Yew tree","children":[198],"extras":{"veldrenEntityKey":"overworld:object:9127191"}},{"mesh":14,"matrix":[-0.8018868775729917,0.0,0.08343823020497997,0.0,0.0,0.8062161637448739,0.0,0.0,-0.08343823020497997,0.0,-0.8018868775729917,0.0,378.5,6.289515646284043,679.5,1.0]},{"name":"Magic tree","children":[200],"extras":{"veldrenEntityKey":"overworld:object:9127205"}},{"mesh":15,"matrix":[0.9432369145341672,0.0,1.1131545654499244,0.0,0.0,1.4590438525013378,0.0,0.0,-1.1131545654499244,0.0,0.9432369145341672,0.0,380.5,5.890470644635751,673.5,1.0]},{"name":"Magic tree","children":[202],"extras":{"veldrenEntityKey":"overworld:object:9128047"}},{"mesh":15,"matrix":[-0.8115835425130159,0.0,-1.1443494689447444,0.0,0.0,1.4029267812512864,0.0,0.0,1.1443494689447444,0.0,-0.8115835425130159,0.0,258.5,4.633733122303796,697.5,1.0]},{"name":"Maple tree","children":[204],"extras":{"veldrenEntityKey":"overworld:object:9128080"}},{"mesh":13,"matrix":[0.6623385431606063,0.0,0.22445202638976428,0.0,0.0,0.6993361551547194,0.0,0.0,-0.22445202638976428,0.0,0.6623385431606063,0.0,285.5,5.182534224074902,698.5,1.0]},{"name":"Yew tree","children":[206],"extras":{"veldrenEntityKey":"overworld:object:9128081"}},{"mesh":14,"matrix":[-0.41985783198773385,0.0,-0.7658645019309532,0.0,0.0,0.8734008440569468,0.0,0.0,0.7658645019309532,0.0,-0.41985783198773385,0.0,287.5,4.987873397405335,690.5,1.0]},{"name":"Magic tree","children":[208],"extras":{"veldrenEntityKey":"overworld:object:9128082"}},{"mesh":15,"matrix":[-0.32160715670570184,0.0,1.3078475567547179,0.0,0.0,1.346809710001235,0.0,0.0,-1.3078475567547179,0.0,-0.32160715670570184,0.0,291.5,5.39737096760724,700.5,1.0]},{"name":"Yew tree","children":[210],"extras":{"veldrenEntityKey":"overworld:object:9128084"}},{"mesh":14,"matrix":[-0.8628611617249693,0.0,-0.13527619888961795,0.0,0.0,0.8734008440569468,0.0,0.0,0.13527619888961795,0.0,-0.8628611617249693,0.0,294.5,5.151897602275807,690.5,1.0]},{"name":"Magic tree","children":[212],"extras":{"veldrenEntityKey":"overworld:object:9128085"}},{"mesh":15,"matrix":[0.8391900147607855,0.0,1.0534023514685182,0.0,0.0,1.346809710001235,0.0,0.0,-1.0534023514685182,0.0,0.8391900147607855,0.0,286.5,5.397064842355631,704.5,1.0]},{"name":"Yew tree","children":[214],"extras":{"veldrenEntityKey":"overworld:object:9128087"}},{"mesh":14,"matrix":[-0.6340918345843111,0.0,0.6006301521842621,0.0,0.0,0.8734008440569468,0.0,0.0,-0.6006301521842621,0.0,-0.6340918345843111,0.0,297.5,5.526849696800129,698.5,1.0]},{"name":"Magic tree","children":[216],"extras":{"veldrenEntityKey":"overworld:object:9128088"}},{"mesh":15,"matrix":[1.3466434813043164,0.0,-0.02115961280840841,0.0,0.0,1.346809710001235,0.0,0.0,0.02115961280840841,0.0,1.3466434813043164,0.0,278.5,5.1434838477618525,701.5,1.0]},{"name":"Maple tree","children":[218],"extras":{"veldrenEntityKey":"overworld:object:9128089"}},{"mesh":13,"matrix":[-0.5225794172226033,0.0,-0.46473843245622587,0.0,0.0,0.6993361551547194,0.0,0.0,0.46473843245622587,0.0,-0.5225794172226033,0.0,291.5,4.793197278870195,684.5,1.0]},{"name":"Yew tree","children":[220],"extras":{"veldrenEntityKey":"overworld:object:9128100"}},{"mesh":14,"matrix":[-0.6958625110488523,0.0,0.4071361791836819,0.0,0.0,0.8062161637448739,0.0,0.0,-0.4071361791836819,0.0,-0.6958625110488523,0.0,316.5,5.7739297472013815,692.5,1.0]},{"name":"Magic tree","children":[222],"extras":{"veldrenEntityKey":"overworld:object:9128101"}},{"mesh":15,"matrix":[1.3711584413084659,0.0,0.29686374379609404,0.0,0.0,1.4029267812512864,0.0,0.0,-0.29686374379609404,0.0,1.3711584413084659,0.0,322.5,5.865958641900198,692.5,1.0]},{"name":"Maple tree","children":[224],"extras":{"veldrenEntityKey":"overworld:object:9128102"}},{"mesh":13,"matrix":[-0.419620758810034,0.0,-0.5940519127209797,0.0,0.0,0.7273096013609082,0.0,0.0,0.5940519127209797,0.0,-0.419620758810034,0.0,313.5,5.849597337895737,698.5,1.0]},{"name":"Yew tree","children":[226],"extras":{"veldrenEntityKey":"overworld:object:9128103"}},{"mesh":14,"matrix":[-0.10259741333845189,0.0,0.799661349234637,0.0,0.0,0.8062161637448739,0.0,0.0,-0.799661349234637,0.0,-0.10259741333845189,0.0,318.5,5.618354036606204,686.5,1.0]},{"name":"Magic tree","children":[228],"extras":{"veldrenEntityKey":"overworld:object:9128104"}},{"mesh":15,"matrix":[1.0724753758674421,0.0,-0.9044335916528551,0.0,0.0,1.4029267812512864,0.0,0.0,0.9044335916528551,0.0,1.0724753758674421,0.0,323.5,6.081618700349403,698.5,1.0]},{"name":"Maple tree","children":[230],"extras":{"veldrenEntityKey":"overworld:object:9128105"}},{"mesh":13,"matrix":[-0.7266684243034331,0.0,-0.030532889678652326,0.0,0.0,0.7273096013609082,0.0,0.0,0.030532889678652326,0.0,-0.7266684243034331,0.0,309.5,5.574264030417979,693.5,1.0]},{"name":"Yew tree","children":[232],"extras":{"veldrenEntityKey":"overworld:object:9128106"}},{"mesh":14,"matrix":[0.5705439614570181,0.0,0.5696174951038934,0.0,0.0,0.8062161637448739,0.0,0.0,-0.5696174951038934,0.0,0.5705439614570181,0.0,325.5,5.836663234817388,687.5,1.0]},{"name":"Maple tree","children":[234],"extras":{"veldrenEntityKey":"overworld:object:9128108"}},{"mesh":13,"matrix":[-0.4679750392193118,0.0,0.5567572351568022,0.0,0.0,0.7273096013609082,0.0,0.0,-0.5567572351568022,0.0,-0.4679750392193118,0.0,311.5,5.301538786241746,684.5,1.0]},{"name":"Yew tree","children":[236],"extras":{"veldrenEntityKey":"overworld:object:9128109"}},{"mesh":14,"matrix":[0.7994935572237474,0.0,-0.10389684615627137,0.0,0.0,0.8062161637448739,0.0,0.0,0.10389684615627137,0.0,0.7994935572237474,0.0,330.5,6.204477922054515,695.5,1.0]},{"name":"Maple tree","children":[238],"extras":{"veldrenEntityKey":"overworld:object:9128122"}},{"mesh":13,"matrix":[0.6958634798587727,0.0,0.0696065751594284,0.0,0.0,0.6993361551547194,0.0,0.0,-0.0696065751594284,0.0,0.6958634798587727,0.0,343.5,6.387616840787442,694.5,1.0]},{"name":"Yew tree","children":[240],"extras":{"veldrenEntityKey":"overworld:object:9128123"}},{"mesh":14,"matrix":[-0.5814716606272115,0.0,-0.6517052572189519,0.0,0.0,0.8734008440569468,0.0,0.0,0.6517052572189519,0.0,-0.5814716606272115,0.0,336.5,6.0053073456811585,683.5,1.0]},{"name":"Magic tree","children":[242],"extras":{"veldrenEntityKey":"overworld:object:9128124"}},{"mesh":15,"matrix":[-0.018971089466272687,0.0,1.3466760904976645,0.0,0.0,1.346809710001235,0.0,0.0,-1.3466760904976645,0.0,-0.018971089466272687,0.0,351.5,6.413581136561708,688.5,1.0]},{"name":"Maple tree","children":[244],"extras":{"veldrenEntityKey":"overworld:object:9128125"}},{"mesh":13,"matrix":[0.4801016260197925,0.0,-0.5085012159274912,0.0,0.0,0.6993361551547194,0.0,0.0,0.5085012159274912,0.0,0.4801016260197925,0.0,337.5,6.2685412419211,694.5,1.0]},{"name":"Magic tree","children":[246],"extras":{"veldrenEntityKey":"overworld:object:9128130"}},{"mesh":15,"matrix":[1.3073231703384205,0.0,-0.3237321782738198,0.0,0.0,1.346809710001235,0.0,0.0,0.3237321782738198,0.0,1.3073231703384205,0.0,340.5,6.470382436070756,700.5,1.0]},{"name":"Maple tree","children":[248],"extras":{"veldrenEntityKey":"overworld:object:9128140"}},{"mesh":13,"matrix":[0.43471729292647054,0.0,0.5478064741651625,0.0,0.0,0.6993361551547194,0.0,0.0,-0.5478064741651625,0.0,0.43471729292647054,0.0,353.5,6.6371239113426475,699.5,1.0]},{"name":"Magic tree","children":[250],"extras":{"veldrenEntityKey":"overworld:object:9128142"}},{"mesh":15,"matrix":[-0.9795382918534874,0.0,0.9243382117744365,0.0,0.0,1.346809710001235,0.0,0.0,-0.9243382117744365,0.0,-0.9795382918534874,0.0,358.5,6.656361839888271,696.5,1.0]},{"name":"Magic tree","children":[252],"extras":{"veldrenEntityKey":"overworld:object:9128160"}},{"mesh":15,"matrix":[-1.3455130485620528,0.0,-0.05908494819208706,0.0,0.0,1.346809710001235,0.0,0.0,0.05908494819208706,0.0,-1.3455130485620528,0.0,374.5,6.780942855148771,703.5,1.0]},{"name":"Maple tree","children":[254],"extras":{"veldrenEntityKey":"overworld:object:9128161"}},{"mesh":13,"matrix":[0.4939715400296955,0.0,0.4950385596569995,0.0,0.0,0.6993361551547194,0.0,0.0,-0.4950385596569995,0.0,0.4939715400296955,0.0,380.5,6.792194842863268,699.5,1.0]},{"name":"Yew tree","children":[256],"extras":{"veldrenEntityKey":"overworld:object:9128162"}},{"mesh":14,"matrix":[-0.036433502794901436,0.0,-0.8726406100299717,0.0,0.0,0.8734008440569468,0.0,0.0,0.8726406100299717,0.0,-0.036433502794901436,0.0,376.5,6.8074600744117895,709.5,1.0]},{"name":"Yew tree","children":[258],"extras":{"veldrenEntityKey":"overworld:object:9128165"}},{"mesh":14,"matrix":[-0.7132420964995321,0.0,-0.5040979529618618,0.0,0.0,0.8734008440569468,0.0,0.0,0.5040979529618618,0.0,-0.7132420964995321,0.0,370.5,6.839803356900029,708.5,1.0]},{"name":"Magic tree","children":[260],"extras":{"veldrenEntityKey":"overworld:object:9128166"}},{"mesh":15,"matrix":[0.2846386481454631,0.0,1.3163879500115208,0.0,0.0,1.346809710001235,0.0,0.0,-1.3163879500115208,0.0,0.2846386481454631,0.0,378.5,6.780082274427122,693.5,1.0]},{"name":"Willow tree","children":[262],"extras":{"veldrenEntityKey":"overworld:object:9129066"}},{"mesh":17,"matrix":[-0.7230092659575625,0.0,-0.42556879885531984,0.0,0.0,0.8389584025562012,0.0,0.0,0.42556879885531984,0.0,-0.7230092659575625,0.0,316.5,1.044964138208875,724.5,1.0]},{"name":"Willow tree","children":[264],"extras":{"veldrenEntityKey":"overworld:object:9129068"}},{"mesh":17,"matrix":[0.3923705757206925,0.0,-0.8198127357079175,0.0,0.0,0.9088716027692181,0.0,0.0,0.8198127357079175,0.0,0.3923705757206925,0.0,303.5,2.541067028269543,718.5,1.0]},{"name":"Willow tree","children":[266],"extras":{"veldrenEntityKey":"overworld:object:9129071"}},{"mesh":17,"matrix":[-0.40952757930129297,0.0,-0.8113783039445351,0.0,0.0,0.9088716027692181,0.0,0.0,0.8113783039445351,0.0,-0.40952757930129297,0.0,313.5,2.9514115388693867,718.5,1.0]},{"name":"Maple tree","children":[268],"extras":{"veldrenEntityKey":"overworld:object:9129080"}},{"mesh":13,"matrix":[0.048893919146973205,0.0,0.7256642756138767,0.0,0.0,0.7273096013609082,0.0,0.0,-0.7256642756138767,0.0,0.048893919146973205,0.0,345.5,6.336258321074059,714.5,1.0]},{"name":"Yew tree","children":[270],"extras":{"veldrenEntityKey":"overworld:object:9129081"}},{"mesh":14,"matrix":[0.5040013044717947,0.0,-0.6292592373372285,0.0,0.0,0.8062161637448739,0.0,0.0,0.6292592373372285,0.0,0.5040013044717947,0.0,341.5,3.9219044918766643,721.5,1.0]},{"name":"Magic tree","children":[272],"extras":{"veldrenEntityKey":"overworld:object:9129082"}},{"mesh":15,"matrix":[-1.38656228026612,0.0,0.2136553217107237,0.0,0.0,1.4029267812512864,0.0,0.0,-0.2136553217107237,0.0,-1.38656228026612,0.0,339.5,6.6436488572454895,709.5,1.0]},{"name":"Maple tree","children":[274],"extras":{"veldrenEntityKey":"overworld:object:9129083"}},{"mesh":13,"matrix":[0.6044704106283878,0.0,0.40446851411019796,0.0,0.0,0.7273096013609082,0.0,0.0,-0.40446851411019796,0.0,0.6044704106283878,0.0,350.5,5.137143383088948,718.5,1.0]},{"name":"Magic tree","children":[276],"extras":{"veldrenEntityKey":"overworld:object:9129085"}},{"mesh":15,"matrix":[-0.677633926296412,0.0,1.2284200484704748,0.0,0.0,1.4029267812512864,0.0,0.0,-1.2284200484704748,0.0,-0.677633926296412,0.0,346.5,6.699232798688086,708.5,1.0]},{"name":"Yew tree","children":[278],"extras":{"veldrenEntityKey":"overworld:object:9129087"}},{"mesh":14,"matrix":[-0.736644876722628,0.0,-0.3276260494554814,0.0,0.0,0.8062161637448739,0.0,0.0,0.3276260494554814,0.0,-0.736644876722628,0.0,333.5,6.646370409755525,710.5,1.0]},{"name":"Magic tree","children":[280],"extras":{"veldrenEntityKey":"overworld:object:9129088"}},{"mesh":15,"matrix":[0.5588601186380396,0.0,1.286809590167858,0.0,0.0,1.4029267812512864,0.0,0.0,-1.286809590167858,0.0,0.5588601186380396,0.0,354.5,6.771387807859032,713.5,1.0]},{"name":"Willow tree","children":[282],"extras":{"veldrenEntityKey":"overworld:object:9129089"}},{"mesh":17,"matrix":[0.29698181588222705,0.0,-0.8589816012904947,0.0,0.0,0.9088716027692181,0.0,0.0,0.8589816012904947,0.0,0.29698181588222705,0.0,336.5,2.2977708278829843,725.5,1.0]},{"name":"Maple tree","children":[284],"extras":{"veldrenEntityKey":"overworld:object:9129092"}},{"mesh":13,"matrix":[-0.39915633213260576,0.0,-0.6079913475948552,0.0,0.0,0.7273096013609082,0.0,0.0,0.6079913475948552,0.0,-0.39915633213260576,0.0,330.5,4.635486552007981,716.5,1.0]},{"name":"Magic tree","children":[286],"extras":{"veldrenEntityKey":"overworld:object:9129100"}},{"mesh":15,"matrix":[-1.1190428097674991,0.0,-0.8461363622134176,0.0,0.0,1.4029267812512864,0.0,0.0,0.8461363622134176,0.0,-1.1190428097674991,0.0,363.5,4.82918610254973,719.5,1.0]},{"name":"Maple tree","children":[288],"extras":{"veldrenEntityKey":"overworld:object:9129101"}},{"mesh":13,"matrix":[0.13077804656939987,0.0,0.7154553506454858,0.0,0.0,0.7273096013609082,0.0,0.0,-0.7154553506454858,0.0,0.13077804656939987,0.0,368.5,6.220954928550804,715.5,1.0]},{"name":"Willow tree","children":[290],"extras":{"veldrenEntityKey":"overworld:object:9129102"}},{"mesh":17,"matrix":[0.4469209004248968,0.0,-0.7100090914791531,0.0,0.0,0.8389584025562012,0.0,0.0,0.7100090914791531,0.0,0.4469209004248968,0.0,365.5,2.5947615564391517,726.5,1.0]},{"name":"Magic tree","children":[292],"extras":{"veldrenEntityKey":"overworld:object:9129103"}},{"mesh":15,"matrix":[-1.3534365165497124,0.0,0.3693415075805519,0.0,0.0,1.4029267812512864,0.0,0.0,-0.3693415075805519,0.0,-1.3534365165497124,0.0,360.5,6.559882021684387,714.5,1.0]},{"name":"Maple tree","children":[294],"extras":{"veldrenEntityKey":"overworld:object:9129104"}},{"mesh":13,"matrix":[0.6463956431923763,0.0,0.333394554085212,0.0,0.0,0.7273096013609082,0.0,0.0,-0.333394554085212,0.0,0.6463956431923763,0.0,373.5,4.751746678163786,720.5,1.0]},{"name":"Willow tree","children":[296],"extras":{"veldrenEntityKey":"overworld:object:9129105"}},{"mesh":17,"matrix":[-0.2892652482354366,0.0,-0.7875130585475674,0.0,0.0,0.8389584025562012,0.0,0.0,0.7875130585475674,0.0,-0.2892652482354366,0.0,357.5,2.723150900293911,725.5,1.0]},{"name":"Willow tree","children":[298],"extras":{"veldrenEntityKey":"overworld:object:9129110"}},{"mesh":17,"matrix":[0.1977701871254075,0.0,-0.8870933115544659,0.0,0.0,0.9088716027692181,0.0,0.0,0.8870933115544659,0.0,0.1977701871254075,0.0,361.5,1.1798300273531632,730.5,1.0]},{"name":"Yew tree","children":[300],"extras":{"veldrenEntityKey":"overworld:object:9129125"}},{"mesh":14,"matrix":[0.8165886412918063,0.0,0.3098580728536676,0.0,0.0,0.8734008440569468,0.0,0.0,-0.3098580728536676,0.0,0.8165886412918063,0.0,379.5,4.386813793813743,722.5,1.0]},{"name":"Willow tree","children":[302],"extras":{"veldrenEntityKey":"overworld:object:9129130"}},{"mesh":17,"matrix":[0.5196211293760974,0.0,0.7026530536366243,0.0,0.0,0.8739150026627096,0.0,0.0,-0.7026530536366243,0.0,0.5196211293760974,0.0,382.5,2.4134704444509127,728.5,1.0]}],"buffers":[{"uri":"../world-parts/f4b04e3619cf212187b96076e7e940da50275113f8897ecbcd59f59213422623.bin","byteLength":117840},{"uri":"../world-parts/1f7416da9fb55b4744e69d48ce26911a903332abddb1946bc3f9f1cd1766d723.bin","byteLength":17184},{"uri":"../world-parts/2bed24ed427da899c64f0c99a7488970d5ac0a3dd007e3dcf039fbfe4113db36.bin","byteLength":31776},{"uri":"../world-parts/42a4131a7f9fe484a70590f8dd3499998303718cfb71bec957ec5894fb0867bf.bin","byteLength":53532},{"uri":"../world-parts/cb9df46869a74c2b21acdc562e58e1fd0bcaa177f7275e87e50e477c73f4776f.bin","byteLength":193944},{"uri":"../world-parts/f52aa0036ce251ef1eb08d3699186b9705c3883af59782ac743cf0836182a57c.bin","byteLength":53376},{"uri":"../world-parts/ddcc3d6e1ffba2575a9ad5c6e02f5f299d918638f3e83151b75ace5729ff5966.bin","byteLength":58704},{"uri":"../world-parts/cf4033cb853c44a487397970d48170db13d9e081d1dc04f79877a0a818a9063c.bin","byteLength":119508},{"uri":"../world-parts/4765b854edaea3e1b92a3c1b34b692f9cba6b75ebb2e412ceddaabaacea85f79.bin","byteLength":41184},{"uri":"../world-parts/02521b591c98c33f06ade8f6308a327cb384d97e87c58718fe6ab3b17b1a06ee.bin","byteLength":31152},{"uri":"../world-parts/4ed1bb9401dfbb3df3f98ed1644adbedaef97ee7baecb73575343b2f7c3ea612.bin","byteLength":31152},{"uri":"../world-parts/c5a9e2e1198d4a4404b9b77a1996b0214413ddd567cf0113aafa2bee5eff47df.bin","byteLength":31152},{"uri":"../world-parts/9d79851bd4d662bd3d19c0654d3b1c17203866ad901d59879683430a0f967ea0.bin","byteLength":31152},{"uri":"../world-parts/133dae8ce562dbc4cbf0d0d2cb7dc4cb2baafed83b6c58ebd4446a3657088e0f.bin","byteLength":180744},{"uri":"../world-parts/7e2e11a73c6c1f6b77c7c18c44a87655900818e94c168e7a92bb0a48cc87a1c1.bin","byteLength":46872},{"uri":"../world-parts/883bf022a4c95c0b0a24ce14e7511dc7b18eb62759134961097aa30193af8da4.bin","byteLength":86364},{"uri":"../world-parts/8480a643e36c0194bf11e79cbc019e38e5ff72b8bc295b144212e5f7a5b37347.bin","byteLength":64668},{"uri":"../world-parts/629e78b439d8b314fb62411e16a47eeeaf0f6f78bb3f3150468167c9e9d3eef3.bin","byteLength":92004}],"bufferViews":[{"buffer":0,"byteOffset":0,"byteLength":15144,"target":34962},{"buffer":0,"byteOffset":15144,"byteLength":15144,"target":34962},{"buffer":0,"byteOffset":30288,"byteLength":10096,"target":34962},{"buffer":0,"byteOffset":40384,"byteLength":15144,"target":34962},{"buffer":0,"byteOffset":55528,"byteLength":15144,"target":34962},{"buffer":0,"byteOffset":70672,"byteLength":15144,"target":34962},{"buffer":0,"byteOffset":85816,"byteLength":15144,"target":34962},{"buffer":0,"byteOffset":100960,"byteLength":5048,"target":34962},{"buffer":0,"byteOffset":106008,"byteLength":11352,"target":34963},{"buffer":0,"byteOffset":117360,"byteLength":480,"target":34963},{"buffer":1,"byteOffset":0,"byteLength":2160,"target":34962},{"buffer":1,"byteOffset":2160,"byteLength":2160,"target":34962},{"buffer":1,"byteOffset":4320,"byteLength":1440,"target":34962},{"buffer":1,"byteOffset":5760,"byteLength":2160,"target":34962},{"buffer":1,"byteOffset":7920,"byteLength":2160,"target":34962},{"buffer":1,"byteOffset":10080,"byteLength":2160,"target":34962},{"buffer":1,"byteOffset":12240,"byteLength":2160,"target":34962},{"buffer":1,"byteOffset":14400,"byteLength":720,"target":34962},{"buffer":1,"byteOffset":15120,"byteLength":2064,"target":34963},{"buffer":2,"byteOffset":0,"byteLength":4080,"target":34962},{"buffer":2,"byteOffset":4080,"byteLength":4080,"target":34962},{"buffer":2,"byteOffset":8160,"byteLength":2720,"target":34962},{"buffer":2,"byteOffset":10880,"byteLength":4080,"target":34962},{"buffer":2,"byteOffset":14960,"byteLength":4080,"target":34962},{"buffer":2,"byteOffset":19040,"byteLength":4080,"target":34962},{"buffer":2,"byteOffset":23120,"byteLength":4080,"target":34962},{"buffer":2,"byteOffset":27200,"byteLength":1360,"target":34962},{"buffer":2,"byteOffset":28560,"byteLength":1464,"target":34963},{"buffer":2,"byteOffset":30024,"byteLength":1752,"target":34963},{"buffer":3,"byteOffset":0,"byteLength":6396,"target":34962},{"buffer":3,"byteOffset":6396,"byteLength":6396,"target":34962},{"buffer":3,"byteOffset":12792,"byteLength":4264,"target":34962},{"buffer":3,"byteOffset":17056,"byteLength":6396,"target":34962},{"buffer":3,"byteOffset":23452,"byteLength":6396,"target":34962},{"buffer":3,"byteOffset":29848,"byteLength":6396,"target":34962},{"buffer":3,"byteOffset":36244,"byteLength":6396,"target":34962},{"buffer":3,"byteOffset":42640,"byteLength":2132,"target":34962},{"buffer":3,"byteOffset":44772,"byteLength":8760,"target":34963},{"buffer":4,"byteOffset":0,"byteLength":24024,"target":34962},{"buffer":4,"byteOffset":24024,"byteLength":24024,"target":34962},{"buffer":4,"byteOffset":48048,"byteLength":16016,"target":34962},{"buffer":4,"byteOffset":64064,"byteLength":24024,"target":34962},{"buffer":4,"byteOffset":88088,"byteLength":24024,"target":34962},{"buffer":4,"byteOffset":112112,"byteLength":24024,"target":34962},{"buffer":4,"byteOffset":136136,"byteLength":24024,"target":34962},{"buffer":4,"byteOffset":160160,"byteLength":8008,"target":34962},{"buffer":4,"byteOffset":168168,"byteLength":5712,"target":34963},{"buffer":4,"byteOffset":173880,"byteLength":20064,"target":34963},{"buffer":5,"byteOffset":0,"byteLength":6912,"target":34962},{"buffer":5,"byteOffset":6912,"byteLength":6912,"target":34962},{"buffer":5,"byteOffset":13824,"byteLength":4608,"target":34962},{"buffer":5,"byteOffset":18432,"byteLength":6912,"target":34962},{"buffer":5,"byteOffset":25344,"byteLength":6912,"target":34962},{"buffer":5,"byteOffset":32256,"byteLength":6912,"target":34962},{"buffer":5,"byteOffset":39168,"byteLength":6912,"target":34962},{"buffer":5,"byteOffset":46080,"byteLength":2304,"target":34962},{"buffer":5,"byteOffset":48384,"byteLength":4992,"target":34963},{"buffer":6,"byteOffset":0,"byteLength":7536,"target":34962},{"buffer":6,"byteOffset":7536,"byteLength":7536,"target":34962},{"buffer":6,"byteOffset":15072,"byteLength":5024,"target":34962},{"buffer":6,"byteOffset":20096,"byteLength":7536,"target":34962},{"buffer":6,"byteOffset":27632,"byteLength":7536,"target":34962},{"buffer":6,"byteOffset":35168,"byteLength":7536,"target":34962},{"buffer":6,"byteOffset":42704,"byteLength":7536,"target":34962},{"buffer":6,"byteOffset":50240,"byteLength":2512,"target":34962},{"buffer":6,"byteOffset":52752,"byteLength":4368,"target":34963},{"buffer":6,"byteOffset":57120,"byteLength":1584,"target":34963},{"buffer":7,"byteOffset":0,"byteLength":15660,"target":34962},{"buffer":7,"byteOffset":15660,"byteLength":15660,"target":34962},{"buffer":7,"byteOffset":31320,"byteLength":10440,"target":34962},{"buffer":7,"byteOffset":41760,"byteLength":15660,"target":34962},{"buffer":7,"byteOffset":57420,"byteLength":15660,"target":34962},{"buffer":7,"byteOffset":73080,"byteLength":15660,"target":34962},{"buffer":7,"byteOffset":88740,"byteLength":15660,"target":34962},{"buffer":7,"byteOffset":104400,"byteLength":5220,"target":34962},{"buffer":7,"byteOffset":109620,"byteLength":4704,"target":34963},{"buffer":7,"byteOffset":114324,"byteLength":5184,"target":34963},{"buffer":8,"byteOffset":0,"byteLength":5616,"target":34962},{"buffer":8,"byteOffset":5616,"byteLength":5616,"target":34962},{"buffer":8,"byteOffset":11232,"byteLength":3744,"target":34962},{"buffer":8,"byteOffset":14976,"byteLength":5616,"target":34962},{"buffer":8,"byteOffset":20592,"byteLength":5616,"target":34962},{"buffer":8,"byteOffset":26208,"byteLength":5616,"target":34962},{"buffer":8,"byteOffset":31824,"byteLength":5616,"target":34962},{"buffer":8,"byteOffset":37440,"byteLength":1872,"target":34962},{"buffer":8,"byteOffset":39312,"byteLength":1872,"target":34963},{"buffer":9,"byteOffset":0,"byteLength":4248,"target":34962},{"buffer":9,"byteOffset":4248,"byteLength":4248,"target":34962},{"buffer":9,"byteOffset":8496,"byteLength":2832,"target":34962},{"buffer":9,"byteOffset":11328,"byteLength":4248,"target":34962},{"buffer":9,"byteOffset":15576,"byteLength":4248,"target":34962},{"buffer":9,"byteOffset":19824,"byteLength":4248,"target":34962},{"buffer":9,"byteOffset":24072,"byteLength":4248,"target":34962},{"buffer":9,"byteOffset":28320,"byteLength":1416,"target":34962},{"buffer":9,"byteOffset":29736,"byteLength":1272,"target":34963},{"buffer":9,"byteOffset":31008,"byteLength":144,"target":34963},{"buffer":10,"byteOffset":0,"byteLength":4248,"target":34962},{"buffer":10,"byteOffset":4248,"byteLength":4248,"target":34962},{"buffer":10,"byteOffset":8496,"byteLength":2832,"target":34962},{"buffer":10,"byteOffset":11328,"byteLength":4248,"target":34962},{"buffer":10,"byteOffset":15576,"byteLength":4248,"target":34962},{"buffer":10,"byteOffset":19824,"byteLength":4248,"target":34962},{"buffer":10,"byteOffset":24072,"byteLength":4248,"target":34962},{"buffer":10,"byteOffset":28320,"byteLength":1416,"target":34962},{"buffer":10,"byteOffset":29736,"byteLength":1272,"target":34963},{"buffer":10,"byteOffset":31008,"byteLength":144,"target":34963},{"buffer":11,"byteOffset":0,"byteLength":4248,"target":34962},{"buffer":11,"byteOffset":4248,"byteLength":4248,"target":34962},{"buffer":11,"byteOffset":8496,"byteLength":2832,"target":34962},{"buffer":11,"byteOffset":11328,"byteLength":4248,"target":34962},{"buffer":11,"byteOffset":15576,"byteLength":4248,"target":34962},{"buffer":11,"byteOffset":19824,"byteLength":4248,"target":34962},{"buffer":11,"byteOffset":24072,"byteLength":4248,"target":34962},{"buffer":11,"byteOffset":28320,"byteLength":1416,"target":34962},{"buffer":11,"byteOffset":29736,"byteLength":1272,"target":34963},{"buffer":11,"byteOffset":31008,"byteLength":144,"target":34963},{"buffer":12,"byteOffset":0,"byteLength":4248,"target":34962},{"buffer":12,"byteOffset":4248,"byteLength":4248,"target":34962},{"buffer":12,"byteOffset":8496,"byteLength":2832,"target":34962},{"buffer":12,"byteOffset":11328,"byteLength":4248,"target":34962},{"buffer":12,"byteOffset":15576,"byteLength":4248,"target":34962},{"buffer":12,"byteOffset":19824,"byteLength":4248,"target":34962},{"buffer":12,"byteOffset":24072,"byteLength":4248,"target":34962},{"buffer":12,"byteOffset":28320,"byteLength":1416,"target":34962},{"buffer":12,"byteOffset":29736,"byteLength":1272,"target":34963},{"buffer":12,"byteOffset":31008,"byteLength":144,"target":34963},{"buffer":13,"byteOffset":0,"byteLength":21552,"target":34962},{"buffer":13,"byteOffset":21552,"byteLength":21552,"target":34962},{"buffer":13,"byteOffset":43104,"byteLength":14368,"target":34962},{"buffer":13,"byteOffset":57472,"byteLength":21552,"target":34962},{"buffer":13,"byteOffset":79024,"byteLength":21552,"target":34962},{"buffer":13,"byteOffset":100576,"byteLength":21552,"target":34962},{"buffer":13,"byteOffset":122128,"byteLength":21552,"target":34962},{"buffer":13,"byteOffset":143680,"byteLength":7184,"target":34962},{"buffer":13,"byteOffset":150864,"byteLength":17496,"target":34963},{"buffer":13,"byteOffset":168360,"byteLength":12384,"target":34963},{"buffer":14,"byteOffset":0,"byteLength":5784,"target":34962},{"buffer":14,"byteOffset":5784,"byteLength":5784,"target":34962},{"buffer":14,"byteOffset":11568,"byteLength":3856,"target":34962},{"buffer":14,"byteOffset":15424,"byteLength":5784,"target":34962},{"buffer":14,"byteOffset":21208,"byteLength":5784,"target":34962},{"buffer":14,"byteOffset":26992,"byteLength":5784,"target":34962},{"buffer":14,"byteOffset":32776,"byteLength":5784,"target":34962},{"buffer":14,"byteOffset":38560,"byteLength":1928,"target":34962},{"buffer":14,"byteOffset":40488,"byteLength":1776,"target":34963},{"buffer":14,"byteOffset":42264,"byteLength":4608,"target":34963},{"buffer":15,"byteOffset":0,"byteLength":10260,"target":34962},{"buffer":15,"byteOffset":10260,"byteLength":10260,"target":34962},{"buffer":15,"byteOffset":20520,"byteLength":6840,"target":34962},{"buffer":15,"byteOffset":27360,"byteLength":10260,"target":34962},{"buffer":15,"byteOffset":37620,"byteLength":10260,"target":34962},{"buffer":15,"byteOffset":47880,"byteLength":10260,"target":34962},{"buffer":15,"byteOffset":58140,"byteLength":10260,"target":34962},{"buffer":15,"byteOffset":68400,"byteLength":3420,"target":34962},{"buffer":15,"byteOffset":71820,"byteLength":9072,"target":34963},{"buffer":15,"byteOffset":80892,"byteLength":5472,"target":34963},{"buffer":16,"byteOffset":0,"byteLength":7860,"target":34962},{"buffer":16,"byteOffset":7860,"byteLength":7860,"target":34962},{"buffer":16,"byteOffset":15720,"byteLength":5240,"target":34962},{"buffer":16,"byteOffset":20960,"byteLength":7860,"target":34962},{"buffer":16,"byteOffset":28820,"byteLength":7860,"target":34962},{"buffer":16,"byteOffset":36680,"byteLength":7860,"target":34962},{"buffer":16,"byteOffset":44540,"byteLength":7860,"target":34962},{"buffer":16,"byteOffset":52400,"byteLength":2620,"target":34962},{"buffer":16,"byteOffset":55020,"byteLength":5328,"target":34963},{"buffer":16,"byteOffset":60348,"byteLength":4320,"target":34963},{"buffer":17,"byteOffset":0,"byteLength":10956,"target":34962},{"buffer":17,"byteOffset":10956,"byteLength":10956,"target":34962},{"buffer":17,"byteOffset":21912,"byteLength":7304,"target":34962},{"buffer":17,"byteOffset":29216,"byteLength":10956,"target":34962},{"buffer":17,"byteOffset":40172,"byteLength":10956,"target":34962},{"buffer":17,"byteOffset":51128,"byteLength":10956,"target":34962},{"buffer":17,"byteOffset":62084,"byteLength":10956,"target":34962},{"buffer":17,"byteOffset":73040,"byteLength":3652,"target":34962},{"buffer":17,"byteOffset":76692,"byteLength":8112,"target":34963},{"buffer":17,"byteOffset":84804,"byteLength":7200,"target":34963}],"accessors":[{"bufferView":0,"componentType":5126,"count":1262,"type":"VEC3","min":[-1.4242464303970337,0.001262865960597992,-0.5419855713844299],"max":[1.4242464303970337,0.8147094249725342,0.5546767711639404]},{"bufferView":1,"componentType":5126,"count":1262,"type":"VEC3"},{"bufferView":2,"componentType":5126,"count":1262,"type":"VEC2"},{"bufferView":3,"componentType":5126,"count":1262,"type":"VEC3"},{"bufferView":4,"componentType":5126,"count":1262,"type":"VEC3"},{"bufferView":5,"componentType":5126,"count":1262,"type":"VEC3"},{"bufferView":6,"componentType":5126,"count":1262,"type":"VEC3"},{"bufferView":7,"componentType":5126,"count":1262,"type":"SCALAR"},{"bufferView":8,"componentType":5125,"count":2838,"type":"SCALAR"},{"bufferView":9,"componentType":5125,"count":120,"type":"SCALAR"},{"bufferView":10,"componentType":5126,"count":180,"type":"VEC3","min":[-0.16652752459049225,-0.0007553889881819487,-0.16846604645252228],"max":[0.16675134003162384,0.01940305158495903,0.16846609115600586]},{"bufferView":11,"componentType":5126,"count":180,"type":"VEC3"},{"bufferView":12,"componentType":5126,"count":180,"type":"VEC2"},{"bufferView":13,"componentType":5126,"count":180,"type":"VEC3"},{"bufferView":14,"componentType":5126,"count":180,"type":"VEC3"},{"bufferView":15,"componentType":5126,"count":180,"type":"VEC3"},{"bufferView":16,"componentType":5126,"count":180,"type":"VEC3"},{"bufferView":17,"componentType":5126,"count":180,"type":"SCALAR"},{"bufferView":18,"componentType":5125,"count":516,"type":"SCALAR"},{"bufferView":19,"componentType":5126,"count":340,"type":"VEC3","min":[-0.07037083804607391,-0.004642794374376535,-0.07473406940698624],"max":[0.12171173840761185,0.1792401522397995,0.0720536932349205]},{"bufferView":20,"componentType":5126,"count":340,"type":"VEC3"},{"bufferView":21,"componentType":5126,"count":340,"type":"VEC2"},{"bufferView":22,"componentType":5126,"count":340,"type":"VEC3"},{"bufferView":23,"componentType":5126,"count":340,"type":"VEC3"},{"bufferView":24,"componentType":5126,"count":340,"type":"VEC3"},{"bufferView":25,"componentType":5126,"count":340,"type":"VEC3"},{"bufferView":26,"componentType":5126,"count":340,"type":"SCALAR"},{"bufferView":27,"componentType":5125,"count":366,"type":"SCALAR"},{"bufferView":28,"componentType":5125,"count":438,"type":"SCALAR"},{"bufferView":29,"componentType":5126,"count":533,"type":"VEC3","min":[-0.1762866973876953,0.0014611477963626385,-0.0896759033203125],"max":[0.08463096618652344,0.15667979419231415,0.0896759033203125]},{"bufferView":30,"componentType":5126,"count":533,"type":"VEC3"},{"bufferView":31,"componentType":5126,"count":533,"type":"VEC2"},{"bufferView":32,"componentType":5126,"count":533,"type":"VEC3"},{"bufferView":33,"componentType":5126,"count":533,"type":"VEC3"},{"bufferView":34,"componentType":5126,"count":533,"type":"VEC3"},{"bufferView":35,"componentType":5126,"count":533,"type":"VEC3"},{"bufferView":36,"componentType":5126,"count":533,"type":"SCALAR"},{"bufferView":37,"componentType":5125,"count":2190,"type":"SCALAR"},{"bufferView":38,"componentType":5126,"count":2002,"type":"VEC3","min":[-0.7306193113327026,-0.017383012920618057,-0.21449044346809387],"max":[0.7306193113327026,2.5274698734283447,0.2144896239042282]},{"bufferView":39,"componentType":5126,"count":2002,"type":"VEC3"},{"bufferView":40,"componentType":5126,"count":2002,"type":"VEC2"},{"bufferView":41,"componentType":5126,"count":2002,"type":"VEC3"},{"bufferView":42,"componentType":5126,"count":2002,"type":"VEC3"},{"bufferView":43,"componentType":5126,"count":2002,"type":"VEC3"},{"bufferView":44,"componentType":5126,"count":2002,"type":"VEC3"},{"bufferView":45,"componentType":5126,"count":2002,"type":"SCALAR"},{"bufferView":46,"componentType":5125,"count":1428,"type":"SCALAR"},{"bufferView":47,"componentType":5125,"count":5016,"type":"SCALAR"},{"bufferView":48,"componentType":5126,"count":576,"type":"VEC3","min":[-0.5429158210754395,-0.003822582308202982,-0.15765345096588135],"max":[0.5197001099586487,0.2944376766681671,0.0898323655128479]},{"bufferView":49,"componentType":5126,"count":576,"type":"VEC3"},{"bufferView":50,"componentType":5126,"count":576,"type":"VEC2"},{"bufferView":51,"componentType":5126,"count":576,"type":"VEC3"},{"bufferView":52,"componentType":5126,"count":576,"type":"VEC3"},{"bufferView":53,"componentType":5126,"count":576,"type":"VEC3"},{"bufferView":54,"componentType":5126,"count":576,"type":"VEC3"},{"bufferView":55,"componentType":5126,"count":576,"type":"SCALAR"},{"bufferView":56,"componentType":5125,"count":1248,"type":"SCALAR"},{"bufferView":57,"componentType":5126,"count":628,"type":"VEC3","min":[-0.29025912284851074,-0.0027060508728027344,-0.29154688119888306],"max":[0.29025912284851074,1.1205782890319824,0.25739121437072754]},{"bufferView":58,"componentType":5126,"count":628,"type":"VEC3"},{"bufferView":59,"componentType":5126,"count":628,"type":"VEC2"},{"bufferView":60,"componentType":5126,"count":628,"type":"VEC3"},{"bufferView":61,"componentType":5126,"count":628,"type":"VEC3"},{"bufferView":62,"componentType":5126,"count":628,"type":"VEC3"},{"bufferView":63,"componentType":5126,"count":628,"type":"VEC3"},{"bufferView":64,"componentType":5126,"count":628,"type":"SCALAR"},{"bufferView":65,"componentType":5125,"count":1092,"type":"SCALAR"},{"bufferView":66,"componentType":5125,"count":396,"type":"SCALAR"},{"bufferView":67,"componentType":5126,"count":1305,"type":"VEC3","min":[-0.34901556372642517,0.003436744213104248,-0.349015474319458],"max":[0.3490154445171356,0.9013950824737549,0.3490155041217804]},{"bufferView":68,"componentType":5126,"count":1305,"type":"VEC3"},{"bufferView":69,"componentType":5126,"count":1305,"type":"VEC2"},{"bufferView":70,"componentType":5126,"count":1305,"type":"VEC3"},{"bufferView":71,"componentType":5126,"count":1305,"type":"VEC3"},{"bufferView":72,"componentType":5126,"count":1305,"type":"VEC3"},{"bufferView":73,"componentType":5126,"count":1305,"type":"VEC3"},{"bufferView":74,"componentType":5126,"count":1305,"type":"SCALAR"},{"bufferView":75,"componentType":5125,"count":1176,"type":"SCALAR"},{"bufferView":76,"componentType":5125,"count":1296,"type":"SCALAR"},{"bufferView":77,"componentType":5126,"count":468,"type":"VEC3","min":[332.6000061035156,5.371511936187744,662.5999755859375],"max":[336.3999938964844,14.17151165008545,666.4000244140625]},{"bufferView":78,"componentType":5126,"count":468,"type":"VEC3"},{"bufferView":79,"componentType":5126,"count":468,"type":"VEC2"},{"bufferView":80,"componentType":5126,"count":468,"type":"VEC3"},{"bufferView":81,"componentType":5126,"count":468,"type":"VEC3"},{"bufferView":82,"componentType":5126,"count":468,"type":"VEC3"},{"bufferView":83,"componentType":5126,"count":468,"type":"VEC3"},{"bufferView":84,"componentType":5126,"count":468,"type":"SCALAR"},{"bufferView":85,"componentType":5125,"count":468,"type":"SCALAR"},{"bufferView":86,"componentType":5126,"count":354,"type":"VEC3","min":[348.07000732421875,5.572535514831543,653.0700073242188],"max":[348.92999267578125,8.948351860046387,653.9299926757812]},{"bufferView":87,"componentType":5126,"count":354,"type":"VEC3"},{"bufferView":88,"componentType":5126,"count":354,"type":"VEC2"},{"bufferView":89,"componentType":5126,"count":354,"type":"VEC3"},{"bufferView":90,"componentType":5126,"count":354,"type":"VEC3"},{"bufferView":91,"componentType":5126,"count":354,"type":"VEC3"},{"bufferView":92,"componentType":5126,"count":354,"type":"VEC3"},{"bufferView":93,"componentType":5126,"count":354,"type":"SCALAR"},{"bufferView":94,"componentType":5125,"count":318,"type":"SCALAR"},{"bufferView":95,"componentType":5125,"count":36,"type":"SCALAR"},{"bufferView":96,"componentType":5126,"count":354,"type":"VEC3","min":[366.07000732421875,5.6016387939453125,653.0700073242188],"max":[366.92999267578125,8.971638679504395,653.9299926757812]},{"bufferView":97,"componentType":5126,"count":354,"type":"VEC3"},{"bufferView":98,"componentType":5126,"count":354,"type":"VEC2"},{"bufferView":99,"componentType":5126,"count":354,"type":"VEC3"},{"bufferView":100,"componentType":5126,"count":354,"type":"VEC3"},{"bufferView":101,"componentType":5126,"count":354,"type":"VEC3"},{"bufferView":102,"componentType":5126,"count":354,"type":"VEC3"},{"bufferView":103,"componentType":5126,"count":354,"type":"SCALAR"},{"bufferView":104,"componentType":5125,"count":318,"type":"SCALAR"},{"bufferView":105,"componentType":5125,"count":36,"type":"SCALAR"},{"bufferView":106,"componentType":5126,"count":354,"type":"VEC3","min":[336.07000732421875,5.546420097351074,647.0700073242188],"max":[336.92999267578125,8.916419982910156,647.9299926757812]},{"bufferView":107,"componentType":5126,"count":354,"type":"VEC3"},{"bufferView":108,"componentType":5126,"count":354,"type":"VEC2"},{"bufferView":109,"componentType":5126,"count":354,"type":"VEC3"},{"bufferView":110,"componentType":5126,"count":354,"type":"VEC3"},{"bufferView":111,"componentType":5126,"count":354,"type":"VEC3"},{"bufferView":112,"componentType":5126,"count":354,"type":"VEC3"},{"bufferView":113,"componentType":5126,"count":354,"type":"SCALAR"},{"bufferView":114,"componentType":5125,"count":318,"type":"SCALAR"},{"bufferView":115,"componentType":5125,"count":36,"type":"SCALAR"},{"bufferView":116,"componentType":5126,"count":354,"type":"VEC3","min":[375.07000732421875,5.6016387939453125,653.0700073242188],"max":[375.92999267578125,8.971638679504395,653.9299926757812]},{"bufferView":117,"componentType":5126,"count":354,"type":"VEC3"},{"bufferView":118,"componentType":5126,"count":354,"type":"VEC2"},{"bufferView":119,"componentType":5126,"count":354,"type":"VEC3"},{"bufferView":120,"componentType":5126,"count":354,"type":"VEC3"},{"bufferView":121,"componentType":5126,"count":354,"type":"VEC3"},{"bufferView":122,"componentType":5126,"count":354,"type":"VEC3"},{"bufferView":123,"componentType":5126,"count":354,"type":"SCALAR"},{"bufferView":124,"componentType":5125,"count":318,"type":"SCALAR"},{"bufferView":125,"componentType":5125,"count":36,"type":"SCALAR"},{"bufferView":126,"componentType":5126,"count":1796,"type":"VEC3","min":[-4.721841812133789,-0.0018220000201836228,-1.3137749433517456],"max":[4.035912990570068,10.293656349182129,3.0319550037384033]},{"bufferView":127,"componentType":5126,"count":1796,"type":"VEC3"},{"bufferView":128,"componentType":5126,"count":1796,"type":"VEC2"},{"bufferView":129,"componentType":5126,"count":1796,"type":"VEC3"},{"bufferView":130,"componentType":5126,"count":1796,"type":"VEC3"},{"bufferView":131,"componentType":5126,"count":1796,"type":"VEC3"},{"bufferView":132,"componentType":5126,"count":1796,"type":"VEC3"},{"bufferView":133,"componentType":5126,"count":1796,"type":"SCALAR"},{"bufferView":134,"componentType":5125,"count":4374,"type":"SCALAR"},{"bufferView":135,"componentType":5125,"count":3096,"type":"SCALAR"},{"bufferView":136,"componentType":5126,"count":482,"type":"VEC3","min":[-3.7659718990325928,-0.07409700006246567,-3.4778990745544434],"max":[3.116921901702881,8.022987365722656,3.8158159255981445]},{"bufferView":137,"componentType":5126,"count":482,"type":"VEC3"},{"bufferView":138,"componentType":5126,"count":482,"type":"VEC2"},{"bufferView":139,"componentType":5126,"count":482,"type":"VEC3"},{"bufferView":140,"componentType":5126,"count":482,"type":"VEC3"},{"bufferView":141,"componentType":5126,"count":482,"type":"VEC3"},{"bufferView":142,"componentType":5126,"count":482,"type":"VEC3"},{"bufferView":143,"componentType":5126,"count":482,"type":"SCALAR"},{"bufferView":144,"componentType":5125,"count":444,"type":"SCALAR"},{"bufferView":145,"componentType":5125,"count":1152,"type":"SCALAR"},{"bufferView":146,"componentType":5126,"count":855,"type":"VEC3","min":[-3.2856340408325195,-0.0013800000306218863,-2.3520750999450684],"max":[0.9950600266456604,4.346673011779785,1.6284259557724]},{"bufferView":147,"componentType":5126,"count":855,"type":"VEC3"},{"bufferView":148,"componentType":5126,"count":855,"type":"VEC2"},{"bufferView":149,"componentType":5126,"count":855,"type":"VEC3"},{"bufferView":150,"componentType":5126,"count":855,"type":"VEC3"},{"bufferView":151,"componentType":5126,"count":855,"type":"VEC3"},{"bufferView":152,"componentType":5126,"count":855,"type":"VEC3"},{"bufferView":153,"componentType":5126,"count":855,"type":"SCALAR"},{"bufferView":154,"componentType":5125,"count":2268,"type":"SCALAR"},{"bufferView":155,"componentType":5125,"count":1368,"type":"SCALAR"},{"bufferView":156,"componentType":5126,"count":655,"type":"VEC3","min":[-2.3328819274902344,0.011172999627888203,-2.0712060928344727],"max":[1.805098056793213,5.555437088012695,2.05914306640625]},{"bufferView":157,"componentType":5126,"count":655,"type":"VEC3"},{"bufferView":158,"componentType":5126,"count":655,"type":"VEC2"},{"bufferView":159,"componentType":5126,"count":655,"type":"VEC3"},{"bufferView":160,"componentType":5126,"count":655,"type":"VEC3"},{"bufferView":161,"componentType":5126,"count":655,"type":"VEC3"},{"bufferView":162,"componentType":5126,"count":655,"type":"VEC3"},{"bufferView":163,"componentType":5126,"count":655,"type":"SCALAR"},{"bufferView":164,"componentType":5125,"count":1332,"type":"SCALAR"},{"bufferView":165,"componentType":5125,"count":1080,"type":"SCALAR"},{"bufferView":166,"componentType":5126,"count":913,"type":"VEC3","min":[-2.969912052154541,-0.0013800000306218863,-2.3520750999450684],"max":[3.394526958465576,5.491145133972168,2.5843169689178467]},{"bufferView":167,"componentType":5126,"count":913,"type":"VEC3"},{"bufferView":168,"componentType":5126,"count":913,"type":"VEC2"},{"bufferView":169,"componentType":5126,"count":913,"type":"VEC3"},{"bufferView":170,"componentType":5126,"count":913,"type":"VEC3"},{"bufferView":171,"componentType":5126,"count":913,"type":"VEC3"},{"bufferView":172,"componentType":5126,"count":913,"type":"VEC3"},{"bufferView":173,"componentType":5126,"count":913,"type":"SCALAR"},{"bufferView":174,"componentType":5125,"count":2028,"type":"SCALAR"},{"bufferView":175,"componentType":5125,"count":1800,"type":"SCALAR"}],"meshes":[{"name":"f4b04e3619cf212187b96076e7e940da50275113f8897ecbcd59f59213422623","primitives":[{"attributes":{"POSITION":0,"NORMAL":1,"TEXCOORD_0":2,"COLOR_0":3,"_VELDREN_NORMAL":4,"_VELDREN_COLOR":5,"_VELDREN_FALLBACK":6,"_VELDREN_MATERIAL":7},"indices":8,"material":0,"extras":{"mixedAtlasFallback":false}},{"attributes":{"POSITION":0,"NORMAL":1,"TEXCOORD_0":2,"COLOR_0":3,"_VELDREN_NORMAL":4,"_VELDREN_COLOR":5,"_VELDREN_FALLBACK":6,"_VELDREN_MATERIAL":7},"indices":9,"material":1,"extras":{"mixedAtlasFallback":false}}]},{"name":"1f7416da9fb55b4744e69d48ce26911a903332abddb1946bc3f9f1cd1766d723","primitives":[{"attributes":{"POSITION":10,"NORMAL":11,"TEXCOORD_0":12,"COLOR_0":13,"_VELDREN_NORMAL":14,"_VELDREN_COLOR":15,"_VELDREN_FALLBACK":16,"_VELDREN_MATERIAL":17},"indices":18,"material":2,"extras":{"mixedAtlasFallback":false}}]},{"name":"2bed24ed427da899c64f0c99a7488970d5ac0a3dd007e3dcf039fbfe4113db36","primitives":[{"attributes":{"POSITION":19,"NORMAL":20,"TEXCOORD_0":21,"COLOR_0":22,"_VELDREN_NORMAL":23,"_VELDREN_COLOR":24,"_VELDREN_FALLBACK":25,"_VELDREN_MATERIAL":26},"indices":27,"material":3,"extras":{"mixedAtlasFallback":false}},{"attributes":{"POSITION":19,"NORMAL":20,"TEXCOORD_0":21,"COLOR_0":22,"_VELDREN_NORMAL":23,"_VELDREN_COLOR":24,"_VELDREN_FALLBACK":25,"_VELDREN_MATERIAL":26},"indices":28,"material":4,"extras":{"mixedAtlasFallback":false}}]},{"name":"42a4131a7f9fe484a70590f8dd3499998303718cfb71bec957ec5894fb0867bf","primitives":[{"attributes":{"POSITION":29,"NORMAL":30,"TEXCOORD_0":31,"COLOR_0":32,"_VELDREN_NORMAL":33,"_VELDREN_COLOR":34,"_VELDREN_FALLBACK":35,"_VELDREN_MATERIAL":36},"indices":37,"material":5,"extras":{"mixedAtlasFallback":false}}]},{"name":"cb9df46869a74c2b21acdc562e58e1fd0bcaa177f7275e87e50e477c73f4776f","primitives":[{"attributes":{"POSITION":38,"NORMAL":39,"TEXCOORD_0":40,"COLOR_0":41,"_VELDREN_NORMAL":42,"_VELDREN_COLOR":43,"_VELDREN_FALLBACK":44,"_VELDREN_MATERIAL":45},"indices":46,"material":6,"extras":{"mixedAtlasFallback":false}},{"attributes":{"POSITION":38,"NORMAL":39,"TEXCOORD_0":40,"COLOR_0":41,"_VELDREN_NORMAL":42,"_VELDREN_COLOR":43,"_VELDREN_FALLBACK":44,"_VELDREN_MATERIAL":45},"indices":47,"material":7,"extras":{"mixedAtlasFallback":false}}]},{"name":"f52aa0036ce251ef1eb08d3699186b9705c3883af59782ac743cf0836182a57c","primitives":[{"attributes":{"POSITION":48,"NORMAL":49,"TEXCOORD_0":50,"COLOR_0":51,"_VELDREN_NORMAL":52,"_VELDREN_COLOR":53,"_VELDREN_FALLBACK":54,"_VELDREN_MATERIAL":55},"indices":56,"material":8,"extras":{"mixedAtlasFallback":false}}]},{"name":"ddcc3d6e1ffba2575a9ad5c6e02f5f299d918638f3e83151b75ace5729ff5966","primitives":[{"attributes":{"POSITION":57,"NORMAL":58,"TEXCOORD_0":59,"COLOR_0":60,"_VELDREN_NORMAL":61,"_VELDREN_COLOR":62,"_VELDREN_FALLBACK":63,"_VELDREN_MATERIAL":64},"indices":65,"material":9,"extras":{"mixedAtlasFallback":false}},{"attributes":{"POSITION":57,"NORMAL":58,"TEXCOORD_0":59,"COLOR_0":60,"_VELDREN_NORMAL":61,"_VELDREN_COLOR":62,"_VELDREN_FALLBACK":63,"_VELDREN_MATERIAL":64},"indices":66,"material":10,"extras":{"mixedAtlasFallback":false}}]},{"name":"cf4033cb853c44a487397970d48170db13d9e081d1dc04f79877a0a818a9063c","primitives":[{"attributes":{"POSITION":67,"NORMAL":68,"TEXCOORD_0":69,"COLOR_0":70,"_VELDREN_NORMAL":71,"_VELDREN_COLOR":72,"_VELDREN_FALLBACK":73,"_VELDREN_MATERIAL":74},"indices":75,"material":11,"extras":{"mixedAtlasFallback":false}},{"attributes":{"POSITION":67,"NORMAL":68,"TEXCOORD_0":69,"COLOR_0":70,"_VELDREN_NORMAL":71,"_VELDREN_COLOR":72,"_VELDREN_FALLBACK":73,"_VELDREN_MATERIAL":74},"indices":76,"material":12,"extras":{"mixedAtlasFallback":false}}]},{"name":"4765b854edaea3e1b92a3c1b34b692f9cba6b75ebb2e412ceddaabaacea85f79","primitives":[{"attributes":{"POSITION":77,"NORMAL":78,"TEXCOORD_0":79,"COLOR_0":80,"_VELDREN_NORMAL":81,"_VELDREN_COLOR":82,"_VELDREN_FALLBACK":83,"_VELDREN_MATERIAL":84},"indices":85,"material":13,"extras":{"mixedAtlasFallback":false}}]},{"name":"02521b591c98c33f06ade8f6308a327cb384d97e87c58718fe6ab3b17b1a06ee","primitives":[{"attributes":{"POSITION":86,"NORMAL":87,"TEXCOORD_0":88,"COLOR_0":89,"_VELDREN_NORMAL":90,"_VELDREN_COLOR":91,"_VELDREN_FALLBACK":92,"_VELDREN_MATERIAL":93},"indices":94,"material":14,"extras":{"mixedAtlasFallback":false}},{"attributes":{"POSITION":86,"NORMAL":87,"TEXCOORD_0":88,"COLOR_0":89,"_VELDREN_NORMAL":90,"_VELDREN_COLOR":91,"_VELDREN_FALLBACK":92,"_VELDREN_MATERIAL":93},"indices":95,"material":15,"extras":{"mixedAtlasFallback":false}}]},{"name":"4ed1bb9401dfbb3df3f98ed1644adbedaef97ee7baecb73575343b2f7c3ea612","primitives":[{"attributes":{"POSITION":96,"NORMAL":97,"TEXCOORD_0":98,"COLOR_0":99,"_VELDREN_NORMAL":100,"_VELDREN_COLOR":101,"_VELDREN_FALLBACK":102,"_VELDREN_MATERIAL":103},"indices":104,"material":16,"extras":{"mixedAtlasFallback":false}},{"attributes":{"POSITION":96,"NORMAL":97,"TEXCOORD_0":98,"COLOR_0":99,"_VELDREN_NORMAL":100,"_VELDREN_COLOR":101,"_VELDREN_FALLBACK":102,"_VELDREN_MATERIAL":103},"indices":105,"material":17,"extras":{"mixedAtlasFallback":false}}]},{"name":"c5a9e2e1198d4a4404b9b77a1996b0214413ddd567cf0113aafa2bee5eff47df","primitives":[{"attributes":{"POSITION":106,"NORMAL":107,"TEXCOORD_0":108,"COLOR_0":109,"_VELDREN_NORMAL":110,"_VELDREN_COLOR":111,"_VELDREN_FALLBACK":112,"_VELDREN_MATERIAL":113},"indices":114,"material":18,"extras":{"mixedAtlasFallback":false}},{"attributes":{"POSITION":106,"NORMAL":107,"TEXCOORD_0":108,"COLOR_0":109,"_VELDREN_NORMAL":110,"_VELDREN_COLOR":111,"_VELDREN_FALLBACK":112,"_VELDREN_MATERIAL":113},"indices":115,"material":19,"extras":{"mixedAtlasFallback":false}}]},{"name":"9d79851bd4d662bd3d19c0654d3b1c17203866ad901d59879683430a0f967ea0","primitives":[{"attributes":{"POSITION":116,"NORMAL":117,"TEXCOORD_0":118,"COLOR_0":119,"_VELDREN_NORMAL":120,"_VELDREN_COLOR":121,"_VELDREN_FALLBACK":122,"_VELDREN_MATERIAL":123},"indices":124,"material":20,"extras":{"mixedAtlasFallback":false}},{"attributes":{"POSITION":116,"NORMAL":117,"TEXCOORD_0":118,"COLOR_0":119,"_VELDREN_NORMAL":120,"_VELDREN_COLOR":121,"_VELDREN_FALLBACK":122,"_VELDREN_MATERIAL":123},"indices":125,"material":21,"extras":{"mixedAtlasFallback":false}}]},{"name":"133dae8ce562dbc4cbf0d0d2cb7dc4cb2baafed83b6c58ebd4446a3657088e0f","primitives":[{"attributes":{"POSITION":126,"NORMAL":127,"TEXCOORD_0":128,"COLOR_0":129,"_VELDREN_NORMAL":130,"_VELDREN_COLOR":131,"_VELDREN_FALLBACK":132,"_VELDREN_MATERIAL":133},"indices":134,"material":22,"extras":{"mixedAtlasFallback":false}},{"attributes":{"POSITION":126,"NORMAL":127,"TEXCOORD_0":128,"COLOR_0":129,"_VELDREN_NORMAL":130,"_VELDREN_COLOR":131,"_VELDREN_FALLBACK":132,"_VELDREN_MATERIAL":133},"indices":135,"material":23,"extras":{"mixedAtlasFallback":false}}]},{"name":"7e2e11a73c6c1f6b77c7c18c44a87655900818e94c168e7a92bb0a48cc87a1c1","primitives":[{"attributes":{"POSITION":136,"NORMAL":137,"TEXCOORD_0":138,"COLOR_0":139,"_VELDREN_NORMAL":140,"_VELDREN_COLOR":141,"_VELDREN_FALLBACK":142,"_VELDREN_MATERIAL":143},"indices":144,"material":24,"extras":{"mixedAtlasFallback":false}},{"attributes":{"POSITION":136,"NORMAL":137,"TEXCOORD_0":138,"COLOR_0":139,"_VELDREN_NORMAL":140,"_VELDREN_COLOR":141,"_VELDREN_FALLBACK":142,"_VELDREN_MATERIAL":143},"indices":145,"material":25,"extras":{"mixedAtlasFallback":false}}]},{"name":"883bf022a4c95c0b0a24ce14e7511dc7b18eb62759134961097aa30193af8da4","primitives":[{"attributes":{"POSITION":146,"NORMAL":147,"TEXCOORD_0":148,"COLOR_0":149,"_VELDREN_NORMAL":150,"_VELDREN_COLOR":151,"_VELDREN_FALLBACK":152,"_VELDREN_MATERIAL":153},"indices":154,"material":26,"extras":{"mixedAtlasFallback":false}},{"attributes":{"POSITION":146,"NORMAL":147,"TEXCOORD_0":148,"COLOR_0":149,"_VELDREN_NORMAL":150,"_VELDREN_COLOR":151,"_VELDREN_FALLBACK":152,"_VELDREN_MATERIAL":153},"indices":155,"material":27,"extras":{"mixedAtlasFallback":false}}]},{"name":"8480a643e36c0194bf11e79cbc019e38e5ff72b8bc295b144212e5f7a5b37347","primitives":[{"attributes":{"POSITION":156,"NORMAL":157,"TEXCOORD_0":158,"COLOR_0":159,"_VELDREN_NORMAL":160,"_VELDREN_COLOR":161,"_VELDREN_FALLBACK":162,"_VELDREN_MATERIAL":163},"indices":164,"material":28,"extras":{"mixedAtlasFallback":false}},{"attributes":{"POSITION":156,"NORMAL":157,"TEXCOORD_0":158,"COLOR_0":159,"_VELDREN_NORMAL":160,"_VELDREN_COLOR":161,"_VELDREN_FALLBACK":162,"_VELDREN_MATERIAL":163},"indices":165,"material":29,"extras":{"mixedAtlasFallback":false}}]},{"name":"629e78b439d8b314fb62411e16a47eeeaf0f6f78bb3f3150468167c9e9d3eef3","primitives":[{"attributes":{"POSITION":166,"NORMAL":167,"TEXCOORD_0":168,"COLOR_0":169,"_VELDREN_NORMAL":170,"_VELDREN_COLOR":171,"_VELDREN_FALLBACK":172,"_VELDREN_MATERIAL":173},"indices":174,"material":30,"extras":{"mixedAtlasFallback":false}},{"attributes":{"POSITION":166,"NORMAL":167,"TEXCOORD_0":168,"COLOR_0":169,"_VELDREN_NORMAL":170,"_VELDREN_COLOR":171,"_VELDREN_FALLBACK":172,"_VELDREN_MATERIAL":173},"indices":175,"material":31,"extras":{"mixedAtlasFallback":false}}]}],"materials":[{"name":"legacy-material-43","pbrMetallicRoughness":{"baseColorFactor":[1,1,1,1],"metallicFactor":0,"roughnessFactor":1,"baseColorTexture":{"index":0}},"doubleSided":true,"extras":{"legacyMaterial":43,"legacyShader":"dist/renderer-gl.js"}},{"name":"legacy-material-42","pbrMetallicRoughness":{"baseColorFactor":[1,1,1,1],"metallicFactor":0,"roughnessFactor":1,"baseColorTexture":{"index":1}},"doubleSided":true,"extras":{"legacyMaterial":42,"legacyShader":"dist/renderer-gl.js"}},{"name":"legacy-material-42","pbrMetallicRoughness":{"baseColorFactor":[1,1,1,1],"metallicFactor":0,"roughnessFactor":1,"baseColorTexture":{"index":2}},"doubleSided":true,"extras":{"legacyMaterial":42,"legacyShader":"dist/renderer-gl.js"}},{"name":"legacy-material-42","pbrMetallicRoughness":{"baseColorFactor":[1,1,1,1],"metallicFactor":0,"roughnessFactor":1,"baseColorTexture":{"index":3}},"doubleSided":true,"extras":{"legacyMaterial":42,"legacyShader":"dist/renderer-gl.js"}},{"name":"legacy-material-43","pbrMetallicRoughness":{"baseColorFactor":[1,1,1,1],"metallicFactor":0,"roughnessFactor":1,"baseColorTexture":{"index":4}},"doubleSided":true,"extras":{"legacyMaterial":43,"legacyShader":"dist/renderer-gl.js"}},{"name":"legacy-material-42","pbrMetallicRoughness":{"baseColorFactor":[1,1,1,1],"metallicFactor":0,"roughnessFactor":1,"baseColorTexture":{"index":5}},"doubleSided":true,"extras":{"legacyMaterial":42,"legacyShader":"dist/renderer-gl.js"}},{"name":"legacy-material-43","pbrMetallicRoughness":{"baseColorFactor":[1,1,1,1],"metallicFactor":0,"roughnessFactor":1,"baseColorTexture":{"index":6}},"doubleSided":true,"extras":{"legacyMaterial":43,"legacyShader":"dist/renderer-gl.js"}},{"name":"legacy-material-42","pbrMetallicRoughness":{"baseColorFactor":[1,1,1,1],"metallicFactor":0,"roughnessFactor":1,"baseColorTexture":{"index":7}},"doubleSided":true,"extras":{"legacyMaterial":42,"legacyShader":"dist/renderer-gl.js"}},{"name":"legacy-material-44","pbrMetallicRoughness":{"baseColorFactor":[1,1,1,1],"metallicFactor":0,"roughnessFactor":1,"baseColorTexture":{"index":8}},"doubleSided":true,"extras":{"legacyMaterial":44,"legacyShader":"dist/renderer-gl.js"}},{"name":"legacy-material-43","pbrMetallicRoughness":{"baseColorFactor":[1,1,1,1],"metallicFactor":0,"roughnessFactor":1,"baseColorTexture":{"index":9}},"doubleSided":true,"extras":{"legacyMaterial":43,"legacyShader":"dist/renderer-gl.js"}},{"name":"legacy-material-42","pbrMetallicRoughness":{"baseColorFactor":[1,1,1,1],"metallicFactor":0,"roughnessFactor":1,"baseColorTexture":{"index":10}},"doubleSided":true,"extras":{"legacyMaterial":42,"legacyShader":"dist/renderer-gl.js"}},{"name":"legacy-material-43","pbrMetallicRoughness":{"baseColorFactor":[1,1,1,1],"metallicFactor":0,"roughnessFactor":1,"baseColorTexture":{"index":11}},"doubleSided":true,"extras":{"legacyMaterial":43,"legacyShader":"dist/renderer-gl.js"}},{"name":"legacy-material-42","pbrMetallicRoughness":{"baseColorFactor":[1,1,1,1],"metallicFactor":0,"roughnessFactor":1,"baseColorTexture":{"index":12}},"doubleSided":true,"extras":{"legacyMaterial":42,"legacyShader":"dist/renderer-gl.js"}},{"name":"legacy-material-18","pbrMetallicRoughness":{"baseColorFactor":[1,1,1,1],"metallicFactor":0,"roughnessFactor":1},"doubleSided":true,"extras":{"legacyMaterial":18,"legacyShader":"dist/renderer-gl.js","limitation":"Browser procedural material not implemented by this glTF export; source/base attributes retained."}},{"name":"legacy-material-20","pbrMetallicRoughness":{"baseColorFactor":[1,1,1,1],"metallicFactor":0,"roughnessFactor":1,"baseColorTexture":{"index":13}},"doubleSided":true,"extras":{"legacyMaterial":20,"legacyShader":"dist/renderer-gl.js"}},{"name":"legacy-material-19","pbrMetallicRoughness":{"baseColorFactor":[1,1,1,1],"metallicFactor":0,"roughnessFactor":1},"doubleSided":true,"extras":{"legacyMaterial":19,"legacyShader":"dist/renderer-gl.js","limitation":"Browser procedural material not implemented by this glTF export; source/base attributes retained."}},{"name":"legacy-material-20","pbrMetallicRoughness":{"baseColorFactor":[1,1,1,1],"metallicFactor":0,"roughnessFactor":1,"baseColorTexture":{"index":14}},"doubleSided":true,"extras":{"legacyMaterial":20,"legacyShader":"dist/renderer-gl.js"}},{"name":"legacy-material-19","pbrMetallicRoughness":{"baseColorFactor":[1,1,1,1],"metallicFactor":0,"roughnessFactor":1},"doubleSided":true,"extras":{"legacyMaterial":19,"legacyShader":"dist/renderer-gl.js","limitation":"Browser procedural material not implemented by this glTF export; source/base attributes retained."}},{"name":"legacy-material-20","pbrMetallicRoughness":{"baseColorFactor":[1,1,1,1],"metallicFactor":0,"roughnessFactor":1,"baseColorTexture":{"index":15}},"doubleSided":true,"extras":{"legacyMaterial":20,"legacyShader":"dist/renderer-gl.js"}},{"name":"legacy-material-19","pbrMetallicRoughness":{"baseColorFactor":[1,1,1,1],"metallicFactor":0,"roughnessFactor":1},"doubleSided":true,"extras":{"legacyMaterial":19,"legacyShader":"dist/renderer-gl.js","limitation":"Browser procedural material not implemented by this glTF export; source/base attributes retained."}},{"name":"legacy-material-20","pbrMetallicRoughness":{"baseColorFactor":[1,1,1,1],"metallicFactor":0,"roughnessFactor":1,"baseColorTexture":{"index":16}},"doubleSided":true,"extras":{"legacyMaterial":20,"legacyShader":"dist/renderer-gl.js"}},{"name":"legacy-material-19","pbrMetallicRoughness":{"baseColorFactor":[1,1,1,1],"metallicFactor":0,"roughnessFactor":1},"doubleSided":true,"extras":{"legacyMaterial":19,"legacyShader":"dist/renderer-gl.js","limitation":"Browser procedural material not implemented by this glTF export; source/base attributes retained."}},{"name":"legacy-material-52","pbrMetallicRoughness":{"baseColorFactor":[1,1,1,1],"metallicFactor":0,"roughnessFactor":1,"baseColorTexture":{"index":17}},"doubleSided":true,"extras":{"legacyMaterial":52,"legacyShader":"dist/renderer-gl.js"}},{"name":"legacy-material-53","pbrMetallicRoughness":{"baseColorFactor":[1,1,1,1],"metallicFactor":0,"roughnessFactor":1,"baseColorTexture":{"index":18}},"doubleSided":true,"extras":{"legacyMaterial":53,"legacyShader":"dist/renderer-gl.js"},"alphaMode":"MASK","alphaCutoff":0.45},{"name":"legacy-material-49","pbrMetallicRoughness":{"baseColorFactor":[1,1,1,1],"metallicFactor":0,"roughnessFactor":1,"baseColorTexture":{"index":19}},"doubleSided":true,"extras":{"legacyMaterial":49,"legacyShader":"dist/renderer-gl.js"}},{"name":"legacy-material-54","pbrMetallicRoughness":{"baseColorFactor":[1,1,1,1],"metallicFactor":0,"roughnessFactor":1,"baseColorTexture":{"index":20}},"doubleSided":true,"extras":{"legacyMaterial":54,"legacyShader":"dist/renderer-gl.js"},"alphaMode":"MASK","alphaCutoff":0.45},{"name":"legacy-material-49","pbrMetallicRoughness":{"baseColorFactor":[1,1,1,1],"metallicFactor":0,"roughnessFactor":1,"baseColorTexture":{"index":21}},"doubleSided":true,"extras":{"legacyMaterial":49,"legacyShader":"dist/renderer-gl.js"}},{"name":"legacy-material-55","pbrMetallicRoughness":{"baseColorFactor":[1,1,1,1],"metallicFactor":0,"roughnessFactor":1,"baseColorTexture":{"index":22}},"doubleSided":true,"extras":{"legacyMaterial":55,"legacyShader":"dist/renderer-gl.js"},"alphaMode":"MASK","alphaCutoff":0.45},{"name":"legacy-material-49","pbrMetallicRoughness":{"baseColorFactor":[1,1,1,1],"metallicFactor":0,"roughnessFactor":1,"baseColorTexture":{"index":23}},"doubleSided":true,"extras":{"legacyMaterial":49,"legacyShader":"dist/renderer-gl.js"}},{"name":"legacy-material-50","pbrMetallicRoughness":{"baseColorFactor":[1,1,1,1],"metallicFactor":0,"roughnessFactor":1,"baseColorTexture":{"index":24}},"doubleSided":true,"extras":{"legacyMaterial":50,"legacyShader":"dist/renderer-gl.js"},"alphaMode":"MASK","alphaCutoff":0.45},{"name":"legacy-material-49","pbrMetallicRoughness":{"baseColorFactor":[1,1,1,1],"metallicFactor":0,"roughnessFactor":1,"baseColorTexture":{"index":25}},"doubleSided":true,"extras":{"legacyMaterial":49,"legacyShader":"dist/renderer-gl.js"}},{"name":"legacy-material-51","pbrMetallicRoughness":{"baseColorFactor":[1,1,1,1],"metallicFactor":0,"roughnessFactor":1,"baseColorTexture":{"index":26}},"doubleSided":true,"extras":{"legacyMaterial":51,"legacyShader":"dist/renderer-gl.js"},"alphaMode":"MASK","alphaCutoff":0.45}],"images":[{"name":"atlas-23","uri":"../../textures/atlas/tile-23.png"},{"name":"atlas-22","uri":"../../textures/atlas/tile-22.png"},{"name":"atlas-22","uri":"../../textures/atlas/tile-22.png"},{"name":"atlas-22","uri":"../../textures/atlas/tile-22.png"},{"name":"atlas-23","uri":"../../textures/atlas/tile-23.png"},{"name":"atlas-22","uri":"../../textures/atlas/tile-22.png"},{"name":"atlas-23","uri":"../../textures/atlas/tile-23.png"},{"name":"atlas-22","uri":"../../textures/atlas/tile-22.png"},{"name":"atlas-24","uri":"../../textures/atlas/tile-24.png"},{"name":"atlas-23","uri":"../../textures/atlas/tile-23.png"},{"name":"atlas-22","uri":"../../textures/atlas/tile-22.png"},{"name":"atlas-23","uri":"../../textures/atlas/tile-23.png"},{"name":"atlas-22","uri":"../../textures/atlas/tile-22.png"},{"name":"atlas-00","uri":"../../textures/atlas/tile-00.png"},{"name":"atlas-00","uri":"../../textures/atlas/tile-00.png"},{"name":"atlas-00","uri":"../../textures/atlas/tile-00.png"},{"name":"atlas-00","uri":"../../textures/atlas/tile-00.png"},{"name":"atlas-32","uri":"../../textures/atlas/tile-32.png"},{"name":"atlas-33","uri":"../../textures/atlas/tile-33.png"},{"name":"atlas-29","uri":"../../textures/atlas/tile-29.png"},{"name":"atlas-34","uri":"../../textures/atlas/tile-34.png"},{"name":"atlas-29","uri":"../../textures/atlas/tile-29.png"},{"name":"atlas-35","uri":"../../textures/atlas/tile-35.png"},{"name":"atlas-29","uri":"../../textures/atlas/tile-29.png"},{"name":"atlas-30","uri":"../../textures/atlas/tile-30.png"},{"name":"atlas-29","uri":"../../textures/atlas/tile-29.png"},{"name":"atlas-31","uri":"../../textures/atlas/tile-31.png"}],"textures":[{"source":0,"sampler":0},{"source":1,"sampler":0},{"source":2,"sampler":1},{"source":3,"sampler":2},{"source":4,"sampler":2},{"source":5,"sampler":3},{"source":6,"sampler":4},{"source":7,"sampler":4},{"source":8,"sampler":5},{"source":9,"sampler":6},{"source":10,"sampler":6},{"source":11,"sampler":7},{"source":12,"sampler":7},{"source":13,"sampler":8},{"source":14,"sampler":9},{"source":15,"sampler":10},{"source":16,"sampler":11},{"source":17,"sampler":12},{"source":18,"sampler":12},{"source":19,"sampler":13},{"source":20,"sampler":13},{"source":21,"sampler":14},{"source":22,"sampler":14},{"source":23,"sampler":15},{"source":24,"sampler":15},{"source":25,"sampler":16},{"source":26,"sampler":16}],"samplers":[{"magFilter":9729,"minFilter":9729,"wrapS":10497,"wrapT":10497},{"magFilter":9729,"minFilter":9729,"wrapS":10497,"wrapT":10497},{"magFilter":9729,"minFilter":9729,"wrapS":10497,"wrapT":10497},{"magFilter":9729,"minFilter":9729,"wrapS":10497,"wrapT":10497},{"magFilter":9729,"minFilter":9729,"wrapS":10497,"wrapT":10497},{"magFilter":9729,"minFilter":9729,"wrapS":10497,"wrapT":10497},{"magFilter":9729,"minFilter":9729,"wrapS":10497,"wrapT":10497},{"magFilter":9729,"minFilter":9729,"wrapS":10497,"wrapT":10497},{"magFilter":9729,"minFilter":9729,"wrapS":10497,"wrapT":10497},{"magFilter":9729,"minFilter":9729,"wrapS":10497,"wrapT":10497},{"magFilter":9729,"minFilter":9729,"wrapS":10497,"wrapT":10497},{"magFilter":9729,"minFilter":9729,"wrapS":10497,"wrapT":10497},{"magFilter":9729,"minFilter":9729,"wrapS":10497,"wrapT":10497},{"magFilter":9729,"minFilter":9729,"wrapS":10497,"wrapT":10497},{"magFilter":9729,"minFilter":9729,"wrapS":10497,"wrapT":10497},{"magFilter":9729,"minFilter":9729,"wrapS":10497,"wrapT":10497},{"magFilter":9729,"minFilter":9729,"wrapS":10497,"wrapT":10497}]}
