{"asset":{"version":"2.0","generator":"Veldren static world recovery"},"scene":0,"scenes":[{"nodes":[0,2,4,6,8,10,12,14,16,18,20,22,24,26,28,30,32,34,36,38,40,42,44,46,48,50,52,54,56,58,60,62,64,66,68,70,72,74,76,78,80,82,84,86,88,90,92,94,96,98,100,102,104,106,108,110,112,114,116,118,120,122,124,126,128,130,132,134,136,138,140,142,144,146,148,150,152,154,156,158,160,162,164,166,168,170,172,174,176,178,180,182,184,186,188,190,192,194,196,198,200,202,204]}],"extras":{"sourceScene":"overworld","notVervesisScene":true,"gameplayIdentityExternal":true,"limitations":["Terrain stored separately.","Dynamic actors, fires, gates, crops, fish, effects and ground cover are not baked.","Roofs are closed; browser procedural materials require native support."]},"nodes":[{"name":"Magic tree","children":[1],"extras":{"veldrenEntityKey":"overworld:object:1082"}},{"mesh":0,"matrix":[1.0550834201825954,0.0,-1.007773754360443,0.0,0.0,1.4590438525013378,0.0,0.0,1.007773754360443,0.0,1.0550834201825954,0.0,519.5,7.529208264676044,642.5,1.0]},{"name":"Yew tree","children":[3],"extras":{"veldrenEntityKey":"overworld:object:1083"}},{"mesh":1,"matrix":[-0.8060569272847851,0.0,0.016022879257864504,0.0,0.0,0.8062161637448739,0.0,0.0,-0.016022879257864504,0.0,-0.8060569272847851,0.0,540.5,6.272897038230375,642.5,1.0]},{"name":"Magic tree","children":[5],"extras":{"veldrenEntityKey":"overworld:object:1084"}},{"mesh":0,"matrix":[1.0522109309427674,0.0,0.927930875850486,0.0,0.0,1.4029267812512864,0.0,0.0,-0.927930875850486,0.0,1.0522109309427674,0.0,561.5,5.961909432189009,642.5,1.0]},{"name":"Magic tree","children":[7],"extras":{"veldrenEntityKey":"overworld:object:1085"}},{"mesh":0,"matrix":[-0.15362415401437884,0.0,-1.4509336934627,0.0,0.0,1.4590438525013378,0.0,0.0,1.4509336934627,0.0,-0.15362415401437884,0.0,624.5,5.704454067914599,642.5,1.0]},{"name":"Yew tree","children":[9],"extras":{"veldrenEntityKey":"overworld:object:1107"}},{"mesh":1,"matrix":[-0.4031009843121556,0.0,0.6982077764749349,0.0,0.0,0.8062161637448739,0.0,0.0,-0.6982077764749349,0.0,-0.4031009843121556,0.0,519.5,1.9981090750964614,663.5,1.0]},{"name":"Magic tree","children":[11],"extras":{"veldrenEntityKey":"overworld:object:1108"}},{"mesh":0,"matrix":[1.338339505664028,0.0,-0.4207741925677718,0.0,0.0,1.4029267812512864,0.0,0.0,0.4207741925677718,0.0,1.338339505664028,0.0,537.5,0.6771078466500533,660.5,1.0]},{"name":"Maple tree","children":[13],"extras":{"veldrenEntityKey":"overworld:object:1109"}},{"mesh":2,"matrix":[-0.6586597472977491,0.0,-0.30845841457387474,0.0,0.0,0.7273096013609082,0.0,0.0,0.30845841457387474,0.0,-0.6586597472977491,0.0,603.5,4.977838358111061,663.5,1.0]},{"name":"Yew tree","children":[15],"extras":{"veldrenEntityKey":"overworld:object:1110"}},{"mesh":1,"matrix":[0.3066826222554668,0.0,0.7456073174869008,0.0,0.0,0.8062161637448739,0.0,0.0,-0.7456073174869008,0.0,0.3066826222554668,0.0,624.5,3.9333872439318007,663.5,1.0]},{"name":"Maple tree","children":[17],"extras":{"veldrenEntityKey":"overworld:object:1129"}},{"mesh":2,"matrix":[0.6390875043756185,0.0,-0.28396869485478426,0.0,0.0,0.6993361551547194,0.0,0.0,0.28396869485478426,0.0,0.6390875043756185,0.0,566.5,0.7562511612873722,701.5,1.0]},{"name":"Yew tree","children":[19],"extras":{"veldrenEntityKey":"overworld:object:1130"}},{"mesh":1,"matrix":[-0.8278294079403508,0.0,-0.2784376155416423,0.0,0.0,0.8734008440569468,0.0,0.0,0.2784376155416423,0.0,-0.8278294079403508,0.0,588.5,0.7169300940595509,690.5,1.0]},{"name":"Magic tree","children":[21],"extras":{"veldrenEntityKey":"overworld:object:1131"}},{"mesh":0,"matrix":[0.6501151637544301,0.0,1.179511199103324,0.0,0.0,1.346809710001235,0.0,0.0,-1.179511199103324,0.0,0.6501151637544301,0.0,603.5,2.3787897634032777,684.5,1.0]},{"name":"Maple tree","children":[23],"extras":{"veldrenEntityKey":"overworld:object:1132"}},{"mesh":2,"matrix":[0.16545208535480144,0.0,-0.6794826453694996,0.0,0.0,0.6993361551547194,0.0,0.0,0.6794826453694996,0.0,0.16545208535480144,0.0,624.5,4.8465221641520175,684.5,1.0]},{"name":"Yew tree","children":[25],"extras":{"veldrenEntityKey":"overworld:object:1153"}},{"mesh":1,"matrix":[0.10497910811619834,0.0,-0.8332212851838419,0.0,0.0,0.8398085039009104,0.0,0.0,0.8332212851838419,0.0,0.10497910811619834,0.0,540.5,2.057788551867651,705.5,1.0]},{"name":"Magic tree","children":[27],"extras":{"veldrenEntityKey":"overworld:object:1154"}},{"mesh":0,"matrix":[-1.1132340031129597,0.0,0.9431431587171909,0.0,0.0,1.4590438525013378,0.0,0.0,-0.9431431587171909,0.0,-1.1132340031129597,0.0,561.5,1.7815046535834687,705.5,1.0]},{"name":"Maple tree","children":[29],"extras":{"veldrenEntityKey":"overworld:object:1155"}},{"mesh":2,"matrix":[0.6708331689217923,0.0,0.026659828226290858,0.0,0.0,0.6713627089485306,0.0,0.0,-0.026659828226290858,0.0,0.6708331689217923,0.0,582.5,3.5032643878649363,705.5,1.0]},{"name":"Yew tree","children":[31],"extras":{"veldrenEntityKey":"overworld:object:1183"}},{"mesh":1,"matrix":[-0.33626640092103843,0.0,0.7695474194849183,0.0,0.0,0.8398085039009104,0.0,0.0,-0.7695474194849183,0.0,-0.33626640092103843,0.0,524.5,1.263836338928885,706.5,1.0]},{"name":"Yew tree","children":[33],"extras":{"veldrenEntityKey":"overworld:object:1184"}},{"mesh":1,"matrix":[0.7988256829879841,0.0,-0.35313816361046,0.0,0.0,0.8734008440569468,0.0,0.0,0.35313816361046,0.0,0.7988256829879841,0.0,541.5,1.5468028230826234,716.5,1.0]},{"name":"Yew tree","children":[35],"extras":{"veldrenEntityKey":"overworld:object:1185"}},{"mesh":1,"matrix":[-0.7636627166738983,0.0,-0.25846422933501423,0.0,0.0,0.8062161637448739,0.0,0.0,0.25846422933501423,0.0,-0.7636627166738983,0.0,561.5,2.6611656135968857,726.5,1.0]},{"name":"Yew tree","children":[37],"extras":{"veldrenEntityKey":"overworld:object:1186"}},{"mesh":1,"matrix":[0.40399000788171185,0.0,0.7362543016893144,0.0,0.0,0.8398085039009104,0.0,0.0,-0.7362543016893144,0.0,0.40399000788171185,0.0,620.5,0.6912589259504495,724.5,1.0]},{"name":"Magic tree","children":[39],"extras":{"veldrenEntityKey":"overworld:object:1214"}},{"mesh":0,"matrix":[-1.4468059176580206,0.0,0.18857783579116244,0.0,0.0,1.4590438525013378,0.0,0.0,-0.18857783579116244,0.0,-1.4468059176580206,0.0,530.5,1.2950022689054554,710.5,1.0]},{"name":"Maple tree","children":[41],"extras":{"veldrenEntityKey":"overworld:object:1215"}},{"mesh":2,"matrix":[0.5491315807703852,0.0,0.38624136749877963,0.0,0.0,0.6713627089485306,0.0,0.0,-0.38624136749877963,0.0,0.5491315807703852,0.0,535.5,1.3208138687001687,713.5,1.0]},{"name":"Magic tree","children":[43],"extras":{"veldrenEntityKey":"overworld:object:1216"}},{"mesh":0,"matrix":[-0.2996139164365979,0.0,-1.3705601244125039,0.0,0.0,1.4029267812512864,0.0,0.0,1.3705601244125039,0.0,-0.2996139164365979,0.0,582.5,0.7333657510778141,735.5,1.0]},{"name":"Magic tree","children":[45],"extras":{"veldrenEntityKey":"overworld:object:1217"}},{"mesh":0,"matrix":[-0.7342838356650221,0.0,1.2608077617951947,0.0,0.0,1.4590438525013378,0.0,0.0,-1.2608077617951947,0.0,-0.7342838356650221,0.0,594.5,0.9789638536737167,733.5,1.0]},{"name":"Maple tree","children":[47],"extras":{"veldrenEntityKey":"overworld:object:1218"}},{"mesh":2,"matrix":[0.641211969363903,0.0,-0.1989349072213685,0.0,0.0,0.6713627089485306,0.0,0.0,0.1989349072213685,0.0,0.641211969363903,0.0,607.5,0.9136885047386156,729.5,1.0]},{"name":"Silverwood tree","children":[49],"extras":{"veldrenEntityKey":"overworld:object:6810553"}},{"mesh":3,"matrix":[-0.2913955649767692,0.0,0.6992531715600303,0.0,0.0,0.7575396842574597,0.0,0.0,-0.6992531715600303,0.0,-0.2913955649767692,0.0,530.5,7.036007832648289,641.5,1.0]},{"name":"Silverwood tree","children":[51],"extras":{"veldrenEntityKey":"overworld:object:6810556"}},{"mesh":3,"matrix":[0.3757322110146126,0.0,0.6577930364719303,0.0,0.0,0.7575396842574597,0.0,0.0,-0.6577930364719303,0.0,0.3757322110146126,0.0,556.5,6.209970364775948,641.5,1.0]},{"name":"Silverwood tree","children":[53],"extras":{"veldrenEntityKey":"overworld:object:6810559"}},{"mesh":3,"matrix":[0.7503371129867473,0.0,0.1042141549867625,0.0,0.0,0.7575396842574597,0.0,0.0,-0.1042141549867625,0.0,0.7503371129867473,0.0,583.5,6.741660225608449,641.5,1.0]},{"name":"Silverwood tree","children":[55],"extras":{"veldrenEntityKey":"overworld:object:6810562"}},{"mesh":3,"matrix":[0.5407739246706618,0.0,-0.5304997036956581,0.0,0.0,0.7575396842574597,0.0,0.0,0.5304997036956581,0.0,0.5407739246706618,0.0,607.5,6.749920405541504,640.5,1.0]},{"name":"Silverwood tree","children":[57],"extras":{"veldrenEntityKey":"overworld:object:6810565"}},{"mesh":3,"matrix":[-0.08980385301797544,0.0,-0.7521978737061263,0.0,0.0,0.7575396842574597,0.0,0.0,0.7521978737061263,0.0,-0.08980385301797544,0.0,629.5,5.378369714777506,640.5,1.0]},{"name":"Silverwood tree","children":[59],"extras":{"veldrenEntityKey":"overworld:object:6810689"}},{"mesh":3,"matrix":[-0.5952445107199468,0.0,0.5161180501957028,0.0,0.0,0.7878412716277581,0.0,0.0,-0.5161180501957028,0.0,-0.5952445107199468,0.0,519.5,6.044313617587222,647.5,1.0]},{"name":"Silverwood tree","children":[61],"extras":{"veldrenEntityKey":"overworld:object:6810692"}},{"mesh":3,"matrix":[0.045149097470348405,0.0,0.7865465200976074,0.0,0.0,0.7878412716277581,0.0,0.0,-0.7865465200976074,0.0,0.045149097470348405,0.0,542.5,4.509393392383399,647.5,1.0]},{"name":"Silverwood tree","children":[63],"extras":{"veldrenEntityKey":"overworld:object:6810695"}},{"mesh":3,"matrix":[0.6503922882446316,0.0,0.444616397214447,0.0,0.0,0.7878412716277581,0.0,0.0,-0.444616397214447,0.0,0.6503922882446316,0.0,564.5,4.746907036081583,646.5,1.0]},{"name":"Silverwood tree","children":[65],"extras":{"veldrenEntityKey":"overworld:object:6810701"}},{"mesh":3,"matrix":[0.2648208150479983,0.0,-0.7419998687313609,0.0,0.0,0.7878412716277581,0.0,0.0,0.7419998687313609,0.0,0.2648208150479983,0.0,609.5,6.250596886733955,646.5,1.0]},{"name":"Silverwood tree","children":[67],"extras":{"veldrenEntityKey":"overworld:object:6810702"}},{"mesh":3,"matrix":[-0.6432357394191516,0.0,0.3392978530700679,0.0,0.0,0.7272380968871612,0.0,0.0,-0.3392978530700679,0.0,-0.6432357394191516,0.0,623.5,4.71509467074878,649.5,1.0]},{"name":"Silverwood tree","children":[69],"extras":{"veldrenEntityKey":"overworld:object:6810704"}},{"mesh":3,"matrix":[-0.425810707814694,0.0,-0.6628567796970867,0.0,0.0,0.7878412716277581,0.0,0.0,0.6628567796970867,0.0,-0.425810707814694,0.0,635.5,3.6362977411609108,645.5,1.0]},{"name":"Silverwood tree","children":[71],"extras":{"veldrenEntityKey":"overworld:object:6810827"}},{"mesh":3,"matrix":[-0.26146847076444885,0.0,-0.7431878013504685,0.0,0.0,0.7878412716277581,0.0,0.0,0.7431878013504685,0.0,-0.26146847076444885,0.0,519.5,4.6215898993510445,652.5,1.0]},{"name":"Silverwood tree","children":[73],"extras":{"veldrenEntityKey":"overworld:object:6810829"}},{"mesh":3,"matrix":[0.69048914631876,0.0,-0.311594467282206,0.0,0.0,0.7575396842574597,0.0,0.0,0.311594467282206,0.0,0.69048914631876,0.0,533.5,1.8797974207766692,657.5,1.0]},{"name":"Silverwood tree","children":[75],"extras":{"veldrenEntityKey":"overworld:object:6810830"}},{"mesh":3,"matrix":[-0.7481717933425288,0.0,-0.24684577559007817,0.0,0.0,0.7878412716277581,0.0,0.0,0.24684577559007817,0.0,-0.7481717933425288,0.0,541.5,2.6298378434138727,653.5,1.0]},{"name":"Silverwood tree","children":[77],"extras":{"veldrenEntityKey":"overworld:object:6810833"}},{"mesh":3,"matrix":[-0.6523928141970852,0.0,0.44167576938751163,0.0,0.0,0.7878412716277581,0.0,0.0,-0.44167576938751163,0.0,-0.6523928141970852,0.0,562.5,2.406304561875912,653.5,1.0]},{"name":"Silverwood tree","children":[79],"extras":{"veldrenEntityKey":"overworld:object:6810838"}},{"mesh":3,"matrix":[-0.7573259024726265,0.0,0.01799585143618954,0.0,0.0,0.7575396842574597,0.0,0.0,-0.01799585143618954,0.0,-0.7573259024726265,0.0,604.5,5.272526802916216,657.5,1.0]},{"name":"Silverwood tree","children":[81],"extras":{"veldrenEntityKey":"overworld:object:6810839"}},{"mesh":3,"matrix":[0.5929085087103126,0.0,0.518799932130832,0.0,0.0,0.7878412716277581,0.0,0.0,-0.518799932130832,0.0,0.5929085087103126,0.0,610.5,5.207609523759025,654.5,1.0]},{"name":"Silverwood tree","children":[83],"extras":{"veldrenEntityKey":"overworld:object:6810841"}},{"mesh":3,"matrix":[-0.4482715063210371,0.0,0.6106709669253648,0.0,0.0,0.7575396842574597,0.0,0.0,-0.6106709669253648,0.0,-0.4482715063210371,0.0,625.5,3.639243946981504,656.5,1.0]},{"name":"Silverwood tree","children":[85],"extras":{"veldrenEntityKey":"overworld:object:6810842"}},{"mesh":3,"matrix":[0.7729129071752527,0.0,-0.1526417610024926,0.0,0.0,0.7878412716277581,0.0,0.0,0.1526417610024926,0.0,0.7729129071752527,0.0,637.5,3.0322010191071467,655.5,1.0]},{"name":"Silverwood tree","children":[87],"extras":{"veldrenEntityKey":"overworld:object:6810977"}},{"mesh":3,"matrix":[-0.7002837311645034,0.0,0.3609661551258851,0.0,0.0,0.7878412716277581,0.0,0.0,-0.3609661551258851,0.0,-0.7002837311645034,0.0,612.5,4.436392818651329,662.5,1.0]},{"name":"Silverwood tree","children":[89],"extras":{"veldrenEntityKey":"overworld:object:6810980"}},{"mesh":3,"matrix":[-0.1418568215016917,0.0,0.7749648453145987,0.0,0.0,0.7878412716277581,0.0,0.0,-0.7749648453145987,0.0,-0.1418568215016917,0.0,638.5,3.2578978480580187,662.5,1.0]},{"name":"Silverwood tree","children":[91],"extras":{"veldrenEntityKey":"overworld:object:6811103"}},{"mesh":3,"matrix":[-0.31675142930148004,0.0,0.7213614914281967,0.0,0.0,0.7878412716277581,0.0,0.0,-0.7213614914281967,0.0,-0.31675142930148004,0.0,516.5,1.7360279475856573,668.5,1.0]},{"name":"Silverwood tree","children":[93],"extras":{"veldrenEntityKey":"overworld:object:6811114"}},{"mesh":3,"matrix":[0.5653611965639825,0.0,0.5042153217075356,0.0,0.0,0.7575396842574597,0.0,0.0,-0.5042153217075356,0.0,0.5653611965639825,0.0,601.5,2.731501571988179,673.5,1.0]},{"name":"Silverwood tree","children":[95],"extras":{"veldrenEntityKey":"overworld:object:6811115"}},{"mesh":3,"matrix":[-0.07858363210659308,0.0,-0.7839122923165439,0.0,0.0,0.7878412716277581,0.0,0.0,0.7839122923165439,0.0,-0.07858363210659308,0.0,614.5,4.612523019507036,670.5,1.0]},{"name":"Silverwood tree","children":[97],"extras":{"veldrenEntityKey":"overworld:object:6811116"}},{"mesh":3,"matrix":[-0.43586557856704516,0.0,0.5821481314789863,0.0,0.0,0.7272380968871612,0.0,0.0,-0.5821481314789863,0.0,-0.43586557856704516,0.0,621.5,4.1978284329214075,668.5,1.0]},{"name":"Silverwood tree","children":[99],"extras":{"veldrenEntityKey":"overworld:object:6811117"}},{"mesh":3,"matrix":[0.7445402820395345,0.0,-0.1397359711934693,0.0,0.0,0.7575396842574597,0.0,0.0,0.1397359711934693,0.0,0.7445402820395345,0.0,626.5,4.198975618153848,673.5,1.0]},{"name":"Silverwood tree","children":[101],"extras":{"veldrenEntityKey":"overworld:object:6811118"}},{"mesh":3,"matrix":[-0.6687258633227672,0.0,-0.4165328186388951,0.0,0.0,0.7878412716277581,0.0,0.0,0.4165328186388951,0.0,-0.6687258633227672,0.0,639.5,3.5815754378010785,670.5,1.0]},{"name":"Silverwood tree","children":[103],"extras":{"veldrenEntityKey":"overworld:object:6811241"}},{"mesh":3,"matrix":[-0.5546418242110647,0.0,-0.5595232936311636,0.0,0.0,0.7878412716277581,0.0,0.0,0.5595232936311636,0.0,-0.5546418242110647,0.0,514.5,1.7756029778357372,680.5,1.0]},{"name":"Silverwood tree","children":[105],"extras":{"veldrenEntityKey":"overworld:object:6811253"}},{"mesh":3,"matrix":[0.7579996475048392,0.0,0.21477989585289967,0.0,0.0,0.7878412716277581,0.0,0.0,-0.21477989585289967,0.0,0.7579996475048392,0.0,615.5,4.674182099280908,679.5,1.0]},{"name":"Silverwood tree","children":[107],"extras":{"veldrenEntityKey":"overworld:object:6811256"}},{"mesh":3,"matrix":[0.633003954391133,0.0,-0.4690414299454062,0.0,0.0,0.7878412716277581,0.0,0.0,0.4690414299454062,0.0,0.633003954391133,0.0,639.5,3.987393513012002,678.5,1.0]},{"name":"Silverwood tree","children":[109],"extras":{"veldrenEntityKey":"overworld:object:6811390"}},{"mesh":3,"matrix":[-0.06842939476582778,0.0,-0.7544427023683602,0.0,0.0,0.7575396842574597,0.0,0.0,0.7544427023683602,0.0,-0.06842939476582778,0.0,602.5,2.750242040812518,689.5,1.0]},{"name":"Silverwood tree","children":[111],"extras":{"veldrenEntityKey":"overworld:object:6811391"}},{"mesh":3,"matrix":[-0.47813082166239496,0.0,0.6261667402988488,0.0,0.0,0.7878412716277581,0.0,0.0,-0.6261667402988488,0.0,-0.47813082166239496,0.0,615.5,4.72249998832101,685.5,1.0]},{"name":"Silverwood tree","children":[113],"extras":{"veldrenEntityKey":"overworld:object:6811393"}},{"mesh":3,"matrix":[-0.6391891924996326,0.0,-0.406575392045017,0.0,0.0,0.7575396842574597,0.0,0.0,0.406575392045017,0.0,-0.6391891924996326,0.0,629.5,4.929312321929392,689.5,1.0]},{"name":"Silverwood tree","children":[115],"extras":{"veldrenEntityKey":"overworld:object:6811394"}},{"mesh":3,"matrix":[0.20381476249006375,0.0,0.7610212952809939,0.0,0.0,0.7878412716277581,0.0,0.0,-0.7610212952809939,0.0,0.20381476249006375,0.0,637.5,4.490288507616937,686.5,1.0]},{"name":"Silverwood tree","children":[117],"extras":{"veldrenEntityKey":"overworld:object:6811517"}},{"mesh":3,"matrix":[0.02281820968318951,0.0,0.7875107609340313,0.0,0.0,0.7878412716277581,0.0,0.0,-0.7875107609340313,0.0,0.02281820968318951,0.0,513.5,2.024641166169793,697.5,1.0]},{"name":"Silverwood tree","children":[119],"extras":{"veldrenEntityKey":"overworld:object:6811526"}},{"mesh":3,"matrix":[0.28576325752267057,0.0,-0.7341888244382876,0.0,0.0,0.7878412716277581,0.0,0.0,0.7341888244382876,0.0,0.28576325752267057,0.0,591.5,2.481124246248523,696.5,1.0]},{"name":"Silverwood tree","children":[121],"extras":{"veldrenEntityKey":"overworld:object:6811529"}},{"mesh":3,"matrix":[-0.40683544863786536,0.0,-0.6746693908957703,0.0,0.0,0.7878412716277581,0.0,0.0,0.6746693908957703,0.0,-0.40683544863786536,0.0,614.5,5.754765541865015,695.5,1.0]},{"name":"Silverwood tree","children":[123],"extras":{"veldrenEntityKey":"overworld:object:6811656"}},{"mesh":3,"matrix":[0.3365622451296735,0.0,0.6446713152586624,0.0,0.0,0.7272380968871612,0.0,0.0,-0.6446713152586624,0.0,0.3365622451296735,0.0,527.5,1.7046806714645275,702.5,1.0]},{"name":"Silverwood tree","children":[125],"extras":{"veldrenEntityKey":"overworld:object:6811660"}},{"mesh":3,"matrix":[-0.4598793471280534,0.0,-0.6019778727743795,0.0,0.0,0.7575396842574597,0.0,0.0,0.6019778727743795,0.0,-0.4598793471280534,0.0,553.5,1.6984978565937587,705.5,1.0]},{"name":"Silverwood tree","children":[127],"extras":{"veldrenEntityKey":"overworld:object:6811665"}},{"mesh":3,"matrix":[-0.05883982652559464,0.0,-0.7248538641536637,0.0,0.0,0.7272380968871612,0.0,0.0,0.7248538641536637,0.0,-0.05883982652559464,0.0,593.5,3.930895888546083,701.5,1.0]},{"name":"Silverwood tree","children":[129],"extras":{"veldrenEntityKey":"overworld:object:6811667"}},{"mesh":3,"matrix":[0.7769319820822095,0.0,-0.13065437037409877,0.0,0.0,0.7878412716277581,0.0,0.0,0.13065437037409877,0.0,0.7769319820822095,0.0,613.5,6.251528308992879,701.5,1.0]},{"name":"Silverwood tree","children":[131],"extras":{"veldrenEntityKey":"overworld:object:6811668"}},{"mesh":3,"matrix":[-0.6099029556024177,0.0,-0.39609801099159214,0.0,0.0,0.7272380968871612,0.0,0.0,0.39609801099159214,0.0,-0.6099029556024177,0.0,618.5,5.992856418482193,700.5,1.0]},{"name":"Silverwood tree","children":[133],"extras":{"veldrenEntityKey":"overworld:object:6811795"}},{"mesh":3,"matrix":[0.6087611420469329,0.0,0.45086166964891317,0.0,0.0,0.7575396842574597,0.0,0.0,-0.45086166964891317,0.0,0.6087611420469329,0.0,531.5,2.3776039123251484,705.5,1.0]},{"name":"Silverwood tree","children":[135],"extras":{"veldrenEntityKey":"overworld:object:6811796"}},{"mesh":3,"matrix":[-0.14935695095724916,0.0,-0.7735543746116343,0.0,0.0,0.7878412716277581,0.0,0.0,0.7735543746116343,0.0,-0.14935695095724916,0.0,541.5,3.2291985323527763,711.5,1.0]},{"name":"Silverwood tree","children":[137],"extras":{"veldrenEntityKey":"overworld:object:6811797"}},{"mesh":3,"matrix":[-0.3812711206279551,0.0,0.6192798899844588,0.0,0.0,0.7272380968871612,0.0,0.0,-0.6192798899844588,0.0,-0.3812711206279551,0.0,548.5,3.4150086906313333,710.5,1.0]},{"name":"Silverwood tree","children":[139],"extras":{"veldrenEntityKey":"overworld:object:6811935"}},{"mesh":3,"matrix":[-0.4359991762909042,0.0,-0.5820480803487914,0.0,0.0,0.7272380968871612,0.0,0.0,0.5820480803487914,0.0,-0.4359991762909042,0.0,546.5,1.8737242821379072,718.5,1.0]},{"name":"Maple tree","children":[141],"extras":{"veldrenEntityKey":"overworld:object:9126400"}},{"mesh":2,"matrix":[-0.6992393141907435,0.0,0.011637843298671095,0.0,0.0,0.6993361551547194,0.0,0.0,-0.011637843298671095,0.0,-0.6992393141907435,0.0,578.5,6.344471922526844,644.5,1.0]},{"name":"Yew tree","children":[143],"extras":{"veldrenEntityKey":"overworld:object:9126401"}},{"mesh":1,"matrix":[0.6531891526648912,0.0,0.5798042473458681,0.0,0.0,0.8734008440569468,0.0,0.0,-0.5798042473458681,0.0,0.6531891526648912,0.0,575.5,4.381672483397741,650.5,1.0]},{"name":"Maple tree","children":[145],"extras":{"veldrenEntityKey":"overworld:object:9126403"}},{"mesh":2,"matrix":[-0.41783083129092163,0.0,0.5607927017439894,0.0,0.0,0.6993361551547194,0.0,0.0,-0.5607927017439894,0.0,-0.41783083129092163,0.0,583.5,5.755551353418153,648.5,1.0]},{"name":"Yew tree","children":[147],"extras":{"veldrenEntityKey":"overworld:object:9126404"}},{"mesh":1,"matrix":[0.8580336906245872,0.0,-0.16311719759895732,0.0,0.0,0.8734008440569468,0.0,0.0,0.16311719759895732,0.0,0.8580336906245872,0.0,569.5,4.463807864581968,648.5,1.0]},{"name":"Magic tree","children":[149],"extras":{"veldrenEntityKey":"overworld:object:9126408"}},{"mesh":0,"matrix":[-1.2609079918411503,0.0,0.4732942330778269,0.0,0.0,1.346809710001235,0.0,0.0,-0.4732942330778269,0.0,-1.2609079918411503,0.0,587.5,6.719921657981353,643.5,1.0]},{"name":"Willow tree","children":[151],"extras":{"veldrenEntityKey":"overworld:object:9126409"}},{"mesh":4,"matrix":[0.8104323160953748,0.0,0.3269967781297702,0.0,0.0,0.8739150026627096,0.0,0.0,-0.3269967781297702,0.0,0.8104323160953748,0.0,569.5,2.578256579206966,654.5,1.0]},{"name":"Magic tree","children":[153],"extras":{"veldrenEntityKey":"overworld:object:9126442"}},{"mesh":0,"matrix":[-1.3614806038165905,0.0,0.3384879894225303,0.0,0.0,1.4029267812512864,0.0,0.0,-0.3384879894225303,0.0,-1.3614806038165905,0.0,614.5,5.860087110909942,647.5,1.0]},{"name":"Yew tree","children":[155],"extras":{"veldrenEntityKey":"overworld:object:9126444"}},{"mesh":1,"matrix":[-0.2607057174208925,0.0,-0.7629004073845806,0.0,0.0,0.8062161637448739,0.0,0.0,0.7629004073845806,0.0,-0.2607057174208925,0.0,618.5,4.394371596370849,656.5,1.0]},{"name":"Magic tree","children":[157],"extras":{"veldrenEntityKey":"overworld:object:9126445"}},{"mesh":0,"matrix":[-0.5634683997428699,0.0,1.2847983950967965,0.0,0.0,1.4029267812512864,0.0,0.0,-1.2847983950967965,0.0,-0.5634683997428699,0.0,615.5,6.635867485316576,640.5,1.0]},{"name":"Maple tree","children":[159],"extras":{"veldrenEntityKey":"overworld:object:9126446"}},{"mesh":2,"matrix":[0.6656024526716874,0.0,-0.29317679176428224,0.0,0.0,0.7273096013609082,0.0,0.0,0.29317679176428224,0.0,0.6656024526716874,0.0,628.5,3.8374294262794435,651.5,1.0]},{"name":"Yew tree","children":[161],"extras":{"veldrenEntityKey":"overworld:object:9127381"}},{"mesh":1,"matrix":[0.7790426039732289,0.0,-0.3136414265030951,0.0,0.0,0.8398085039009104,0.0,0.0,0.3136414265030951,0.0,0.7790426039732289,0.0,608.5,4.914458575484242,668.5,1.0]},{"name":"Willow tree","children":[163],"extras":{"veldrenEntityKey":"overworld:object:9127385"}},{"mesh":4,"matrix":[-0.7729449124429822,0.0,0.4781252478679596,0.0,0.0,0.9088716027692181,0.0,0.0,-0.4781252478679596,0.0,-0.7729449124429822,0.0,595.5,1.7224258605880194,673.5,1.0]},{"name":"Magic tree","children":[165],"extras":{"veldrenEntityKey":"overworld:object:9127388"}},{"mesh":0,"matrix":[-0.150037843424642,0.0,1.4513089295744128,0.0,0.0,1.4590438525013378,0.0,0.0,-1.4513089295744128,0.0,-0.150037843424642,0.0,595.5,3.7169336668406037,664.5,1.0]},{"name":"Willow tree","children":[167],"extras":{"veldrenEntityKey":"overworld:object:9127390"}},{"mesh":4,"matrix":[-0.8737826507688707,0.0,-0.015208914960945018,0.0,0.0,0.8739150026627096,0.0,0.0,0.015208914960945018,0.0,-0.8737826507688707,0.0,597.5,1.216492341778184,679.5,1.0]},{"name":"Yew tree","children":[169],"extras":{"veldrenEntityKey":"overworld:object:9128341"}},{"mesh":1,"matrix":[-0.6759419183003493,0.0,0.4983782161257948,0.0,0.0,0.8398085039009104,0.0,0.0,-0.4983782161257948,0.0,-0.6759419183003493,0.0,607.5,4.741265801571489,695.5,1.0]},{"name":"Willow tree","children":[171],"extras":{"veldrenEntityKey":"overworld:object:9128342"}},{"mesh":4,"matrix":[0.9036481475001843,0.0,0.09730167439346828,0.0,0.0,0.9088716027692181,0.0,0.0,-0.09730167439346828,0.0,0.9036481475001843,0.0,597.5,2.2779677857635576,691.5,1.0]},{"name":"Maple tree","children":[173],"extras":{"veldrenEntityKey":"overworld:object:9128343"}},{"mesh":2,"matrix":[-0.4431607557221232,0.0,-0.5043177882590559,0.0,0.0,0.6713627089485306,0.0,0.0,0.5043177882590559,0.0,-0.4431607557221232,0.0,609.5,3.763088488876635,687.5,1.0]},{"name":"Yew tree","children":[175],"extras":{"veldrenEntityKey":"overworld:object:9128344"}},{"mesh":1,"matrix":[-0.018182292838746117,0.0,0.839611652760615,0.0,0.0,0.8398085039009104,0.0,0.0,-0.839611652760615,0.0,-0.018182292838746117,0.0,602.5,5.039699125479418,700.5,1.0]},{"name":"Maple tree","children":[177],"extras":{"veldrenEntityKey":"overworld:object:9128349"}},{"mesh":2,"matrix":[-0.3752046567864205,0.0,0.5567309516207032,0.0,0.0,0.6713627089485306,0.0,0.0,-0.5567309516207032,0.0,-0.3752046567864205,0.0,608.5,6.08201512822935,701.5,1.0]},{"name":"Willow tree","children":[179],"extras":{"veldrenEntityKey":"overworld:object:9128350"}},{"mesh":4,"matrix":[0.8498580606329414,0.0,-0.20363867180911213,0.0,0.0,0.8739150026627096,0.0,0.0,0.20363867180911213,0.0,0.8498580606329414,0.0,593.5,0.8660445369129003,687.5,1.0]},{"name":"Yew tree","children":[181],"extras":{"veldrenEntityKey":"overworld:object:9129260"}},{"mesh":1,"matrix":[-0.8704865824155885,0.0,-0.07128915930080829,0.0,0.0,0.8734008440569468,0.0,0.0,0.07128915930080829,0.0,-0.8704865824155885,0.0,557.5,5.069986102408677,715.5,1.0]},{"name":"Maple tree","children":[183],"extras":{"veldrenEntityKey":"overworld:object:9129262"}},{"mesh":2,"matrix":[-0.0027257376887814054,0.0,-0.6993308432070172,0.0,0.0,0.6993361551547194,0.0,0.0,0.6993308432070172,0.0,-0.0027257376887814054,0.0,550.5,3.752533248140698,715.5,1.0]},{"name":"Yew tree","children":[185],"extras":{"veldrenEntityKey":"overworld:object:9129263"}},{"mesh":1,"matrix":[-0.5880814556378756,0.0,0.6457470371083591,0.0,0.0,0.8734008440569468,0.0,0.0,-0.6457470371083591,0.0,-0.5880814556378756,0.0,563.5,4.513219547686916,713.5,1.0]},{"name":"Willow tree","children":[187],"extras":{"veldrenEntityKey":"overworld:object:9129264"}},{"mesh":4,"matrix":[0.8355998639406311,0.0,-0.07499379042328609,0.0,0.0,0.8389584025562012,0.0,0.0,0.07499379042328609,0.0,0.8355998639406311,0.0,554.5,1.8575383716155633,724.5,1.0]},{"name":"Yew tree","children":[189],"extras":{"veldrenEntityKey":"overworld:object:9129266"}},{"mesh":1,"matrix":[0.15216910574317682,0.0,0.8600427882708563,0.0,0.0,0.8734008440569468,0.0,0.0,-0.8600427882708563,0.0,0.15216910574317682,0.0,566.5,5.345029820607481,720.5,1.0]},{"name":"Maple tree","children":[191],"extras":{"veldrenEntityKey":"overworld:object:9129271"}},{"mesh":2,"matrix":[-0.26991754169460214,0.0,0.6451477184274377,0.0,0.0,0.6993361551547194,0.0,0.0,-0.6451477184274377,0.0,-0.26991754169460214,0.0,570.5,5.067309251981119,714.5,1.0]},{"name":"Willow tree","children":[193],"extras":{"veldrenEntityKey":"overworld:object:9129301"}},{"mesh":4,"matrix":[0.5514677781380816,0.0,-0.6779459576945728,0.0,0.0,0.8739150026627096,0.0,0.0,0.6779459576945728,0.0,0.5514677781380816,0.0,612.5,1.2024148020062198,726.5,1.0]},{"name":"Willow tree","children":[195],"extras":{"veldrenEntityKey":"overworld:object:9129302"}},{"mesh":4,"matrix":[-0.8992915269750578,0.0,0.1316143602771226,0.0,0.0,0.9088716027692181,0.0,0.0,-0.1316143602771226,0.0,-0.8992915269750578,0.0,601.5,0.6765145713432897,732.5,1.0]},{"name":"Yew tree","children":[197],"extras":{"veldrenEntityKey":"overworld:object:9129303"}},{"mesh":1,"matrix":[0.6666387536269379,0.0,0.4534063021686225,0.0,0.0,0.8062161637448739,0.0,0.0,-0.4534063021686225,0.0,0.6666387536269379,0.0,606.5,4.0247377864409,720.5,1.0]},{"name":"Willow tree","children":[199],"extras":{"veldrenEntityKey":"overworld:object:9129305"}},{"mesh":4,"matrix":[-0.4450065181842834,0.0,0.7924751031381291,0.0,0.0,0.9088716027692181,0.0,0.0,-0.7924751031381291,0.0,-0.4450065181842834,0.0,597.5,2.928612286674209,726.5,1.0]},{"name":"Maple tree","children":[201],"extras":{"veldrenEntityKey":"overworld:object:9129308"}},{"mesh":2,"matrix":[0.2846704959278133,0.0,0.6692846666254771,0.0,0.0,0.7273096013609082,0.0,0.0,-0.6692846666254771,0.0,0.2846704959278133,0.0,599.5,5.539220775357415,717.5,1.0]},{"name":"Yew tree","children":[203],"extras":{"veldrenEntityKey":"overworld:object:9129326"}},{"mesh":1,"matrix":[-0.3386233717557274,0.0,0.8050858628122652,0.0,0.0,0.8734008440569468,0.0,0.0,-0.8050858628122652,0.0,-0.3386233717557274,0.0,616.5,4.414215700379065,715.5,1.0]},{"name":"Willow tree","children":[205],"extras":{"veldrenEntityKey":"overworld:object:9129329"}},{"mesh":4,"matrix":[0.44818260484733075,0.0,0.7906832128182238,0.0,0.0,0.9088716027692181,0.0,0.0,-0.7906832128182238,0.0,0.44818260484733075,0.0,626.5,2.541978575324604,716.5,1.0]}],"buffers":[{"uri":"../world-parts/883bf022a4c95c0b0a24ce14e7511dc7b18eb62759134961097aa30193af8da4.bin","byteLength":86364},{"uri":"../world-parts/7e2e11a73c6c1f6b77c7c18c44a87655900818e94c168e7a92bb0a48cc87a1c1.bin","byteLength":46872},{"uri":"../world-parts/133dae8ce562dbc4cbf0d0d2cb7dc4cb2baafed83b6c58ebd4446a3657088e0f.bin","byteLength":180744},{"uri":"../world-parts/8480a643e36c0194bf11e79cbc019e38e5ff72b8bc295b144212e5f7a5b37347.bin","byteLength":64668},{"uri":"../world-parts/629e78b439d8b314fb62411e16a47eeeaf0f6f78bb3f3150468167c9e9d3eef3.bin","byteLength":92004}],"bufferViews":[{"buffer":0,"byteOffset":0,"byteLength":10260,"target":34962},{"buffer":0,"byteOffset":10260,"byteLength":10260,"target":34962},{"buffer":0,"byteOffset":20520,"byteLength":6840,"target":34962},{"buffer":0,"byteOffset":27360,"byteLength":10260,"target":34962},{"buffer":0,"byteOffset":37620,"byteLength":10260,"target":34962},{"buffer":0,"byteOffset":47880,"byteLength":10260,"target":34962},{"buffer":0,"byteOffset":58140,"byteLength":10260,"target":34962},{"buffer":0,"byteOffset":68400,"byteLength":3420,"target":34962},{"buffer":0,"byteOffset":71820,"byteLength":9072,"target":34963},{"buffer":0,"byteOffset":80892,"byteLength":5472,"target":34963},{"buffer":1,"byteOffset":0,"byteLength":5784,"target":34962},{"buffer":1,"byteOffset":5784,"byteLength":5784,"target":34962},{"buffer":1,"byteOffset":11568,"byteLength":3856,"target":34962},{"buffer":1,"byteOffset":15424,"byteLength":5784,"target":34962},{"buffer":1,"byteOffset":21208,"byteLength":5784,"target":34962},{"buffer":1,"byteOffset":26992,"byteLength":5784,"target":34962},{"buffer":1,"byteOffset":32776,"byteLength":5784,"target":34962},{"buffer":1,"byteOffset":38560,"byteLength":1928,"target":34962},{"buffer":1,"byteOffset":40488,"byteLength":1776,"target":34963},{"buffer":1,"byteOffset":42264,"byteLength":4608,"target":34963},{"buffer":2,"byteOffset":0,"byteLength":21552,"target":34962},{"buffer":2,"byteOffset":21552,"byteLength":21552,"target":34962},{"buffer":2,"byteOffset":43104,"byteLength":14368,"target":34962},{"buffer":2,"byteOffset":57472,"byteLength":21552,"target":34962},{"buffer":2,"byteOffset":79024,"byteLength":21552,"target":34962},{"buffer":2,"byteOffset":100576,"byteLength":21552,"target":34962},{"buffer":2,"byteOffset":122128,"byteLength":21552,"target":34962},{"buffer":2,"byteOffset":143680,"byteLength":7184,"target":34962},{"buffer":2,"byteOffset":150864,"byteLength":17496,"target":34963},{"buffer":2,"byteOffset":168360,"byteLength":12384,"target":34963},{"buffer":3,"byteOffset":0,"byteLength":7860,"target":34962},{"buffer":3,"byteOffset":7860,"byteLength":7860,"target":34962},{"buffer":3,"byteOffset":15720,"byteLength":5240,"target":34962},{"buffer":3,"byteOffset":20960,"byteLength":7860,"target":34962},{"buffer":3,"byteOffset":28820,"byteLength":7860,"target":34962},{"buffer":3,"byteOffset":36680,"byteLength":7860,"target":34962},{"buffer":3,"byteOffset":44540,"byteLength":7860,"target":34962},{"buffer":3,"byteOffset":52400,"byteLength":2620,"target":34962},{"buffer":3,"byteOffset":55020,"byteLength":5328,"target":34963},{"buffer":3,"byteOffset":60348,"byteLength":4320,"target":34963},{"buffer":4,"byteOffset":0,"byteLength":10956,"target":34962},{"buffer":4,"byteOffset":10956,"byteLength":10956,"target":34962},{"buffer":4,"byteOffset":21912,"byteLength":7304,"target":34962},{"buffer":4,"byteOffset":29216,"byteLength":10956,"target":34962},{"buffer":4,"byteOffset":40172,"byteLength":10956,"target":34962},{"buffer":4,"byteOffset":51128,"byteLength":10956,"target":34962},{"buffer":4,"byteOffset":62084,"byteLength":10956,"target":34962},{"buffer":4,"byteOffset":73040,"byteLength":3652,"target":34962},{"buffer":4,"byteOffset":76692,"byteLength":8112,"target":34963},{"buffer":4,"byteOffset":84804,"byteLength":7200,"target":34963}],"accessors":[{"bufferView":0,"componentType":5126,"count":855,"type":"VEC3","min":[-3.2856340408325195,-0.0013800000306218863,-2.3520750999450684],"max":[0.9950600266456604,4.346673011779785,1.6284259557724]},{"bufferView":1,"componentType":5126,"count":855,"type":"VEC3"},{"bufferView":2,"componentType":5126,"count":855,"type":"VEC2"},{"bufferView":3,"componentType":5126,"count":855,"type":"VEC3"},{"bufferView":4,"componentType":5126,"count":855,"type":"VEC3"},{"bufferView":5,"componentType":5126,"count":855,"type":"VEC3"},{"bufferView":6,"componentType":5126,"count":855,"type":"VEC3"},{"bufferView":7,"componentType":5126,"count":855,"type":"SCALAR"},{"bufferView":8,"componentType":5125,"count":2268,"type":"SCALAR"},{"bufferView":9,"componentType":5125,"count":1368,"type":"SCALAR"},{"bufferView":10,"componentType":5126,"count":482,"type":"VEC3","min":[-3.7659718990325928,-0.07409700006246567,-3.4778990745544434],"max":[3.116921901702881,8.022987365722656,3.8158159255981445]},{"bufferView":11,"componentType":5126,"count":482,"type":"VEC3"},{"bufferView":12,"componentType":5126,"count":482,"type":"VEC2"},{"bufferView":13,"componentType":5126,"count":482,"type":"VEC3"},{"bufferView":14,"componentType":5126,"count":482,"type":"VEC3"},{"bufferView":15,"componentType":5126,"count":482,"type":"VEC3"},{"bufferView":16,"componentType":5126,"count":482,"type":"VEC3"},{"bufferView":17,"componentType":5126,"count":482,"type":"SCALAR"},{"bufferView":18,"componentType":5125,"count":444,"type":"SCALAR"},{"bufferView":19,"componentType":5125,"count":1152,"type":"SCALAR"},{"bufferView":20,"componentType":5126,"count":1796,"type":"VEC3","min":[-4.721841812133789,-0.0018220000201836228,-1.3137749433517456],"max":[4.035912990570068,10.293656349182129,3.0319550037384033]},{"bufferView":21,"componentType":5126,"count":1796,"type":"VEC3"},{"bufferView":22,"componentType":5126,"count":1796,"type":"VEC2"},{"bufferView":23,"componentType":5126,"count":1796,"type":"VEC3"},{"bufferView":24,"componentType":5126,"count":1796,"type":"VEC3"},{"bufferView":25,"componentType":5126,"count":1796,"type":"VEC3"},{"bufferView":26,"componentType":5126,"count":1796,"type":"VEC3"},{"bufferView":27,"componentType":5126,"count":1796,"type":"SCALAR"},{"bufferView":28,"componentType":5125,"count":4374,"type":"SCALAR"},{"bufferView":29,"componentType":5125,"count":3096,"type":"SCALAR"},{"bufferView":30,"componentType":5126,"count":655,"type":"VEC3","min":[-2.3328819274902344,0.011172999627888203,-2.0712060928344727],"max":[1.805098056793213,5.555437088012695,2.05914306640625]},{"bufferView":31,"componentType":5126,"count":655,"type":"VEC3"},{"bufferView":32,"componentType":5126,"count":655,"type":"VEC2"},{"bufferView":33,"componentType":5126,"count":655,"type":"VEC3"},{"bufferView":34,"componentType":5126,"count":655,"type":"VEC3"},{"bufferView":35,"componentType":5126,"count":655,"type":"VEC3"},{"bufferView":36,"componentType":5126,"count":655,"type":"VEC3"},{"bufferView":37,"componentType":5126,"count":655,"type":"SCALAR"},{"bufferView":38,"componentType":5125,"count":1332,"type":"SCALAR"},{"bufferView":39,"componentType":5125,"count":1080,"type":"SCALAR"},{"bufferView":40,"componentType":5126,"count":913,"type":"VEC3","min":[-2.969912052154541,-0.0013800000306218863,-2.3520750999450684],"max":[3.394526958465576,5.491145133972168,2.5843169689178467]},{"bufferView":41,"componentType":5126,"count":913,"type":"VEC3"},{"bufferView":42,"componentType":5126,"count":913,"type":"VEC2"},{"bufferView":43,"componentType":5126,"count":913,"type":"VEC3"},{"bufferView":44,"componentType":5126,"count":913,"type":"VEC3"},{"bufferView":45,"componentType":5126,"count":913,"type":"VEC3"},{"bufferView":46,"componentType":5126,"count":913,"type":"VEC3"},{"bufferView":47,"componentType":5126,"count":913,"type":"SCALAR"},{"bufferView":48,"componentType":5125,"count":2028,"type":"SCALAR"},{"bufferView":49,"componentType":5125,"count":1800,"type":"SCALAR"}],"meshes":[{"name":"883bf022a4c95c0b0a24ce14e7511dc7b18eb62759134961097aa30193af8da4","primitives":[{"attributes":{"POSITION":0,"NORMAL":1,"TEXCOORD_0":2,"COLOR_0":3,"_VELDREN_NORMAL":4,"_VELDREN_COLOR":5,"_VELDREN_FALLBACK":6,"_VELDREN_MATERIAL":7},"indices":8,"material":0,"extras":{"mixedAtlasFallback":false}},{"attributes":{"POSITION":0,"NORMAL":1,"TEXCOORD_0":2,"COLOR_0":3,"_VELDREN_NORMAL":4,"_VELDREN_COLOR":5,"_VELDREN_FALLBACK":6,"_VELDREN_MATERIAL":7},"indices":9,"material":1,"extras":{"mixedAtlasFallback":false}}]},{"name":"7e2e11a73c6c1f6b77c7c18c44a87655900818e94c168e7a92bb0a48cc87a1c1","primitives":[{"attributes":{"POSITION":10,"NORMAL":11,"TEXCOORD_0":12,"COLOR_0":13,"_VELDREN_NORMAL":14,"_VELDREN_COLOR":15,"_VELDREN_FALLBACK":16,"_VELDREN_MATERIAL":17},"indices":18,"material":2,"extras":{"mixedAtlasFallback":false}},{"attributes":{"POSITION":10,"NORMAL":11,"TEXCOORD_0":12,"COLOR_0":13,"_VELDREN_NORMAL":14,"_VELDREN_COLOR":15,"_VELDREN_FALLBACK":16,"_VELDREN_MATERIAL":17},"indices":19,"material":3,"extras":{"mixedAtlasFallback":false}}]},{"name":"133dae8ce562dbc4cbf0d0d2cb7dc4cb2baafed83b6c58ebd4446a3657088e0f","primitives":[{"attributes":{"POSITION":20,"NORMAL":21,"TEXCOORD_0":22,"COLOR_0":23,"_VELDREN_NORMAL":24,"_VELDREN_COLOR":25,"_VELDREN_FALLBACK":26,"_VELDREN_MATERIAL":27},"indices":28,"material":4,"extras":{"mixedAtlasFallback":false}},{"attributes":{"POSITION":20,"NORMAL":21,"TEXCOORD_0":22,"COLOR_0":23,"_VELDREN_NORMAL":24,"_VELDREN_COLOR":25,"_VELDREN_FALLBACK":26,"_VELDREN_MATERIAL":27},"indices":29,"material":5,"extras":{"mixedAtlasFallback":false}}]},{"name":"8480a643e36c0194bf11e79cbc019e38e5ff72b8bc295b144212e5f7a5b37347","primitives":[{"attributes":{"POSITION":30,"NORMAL":31,"TEXCOORD_0":32,"COLOR_0":33,"_VELDREN_NORMAL":34,"_VELDREN_COLOR":35,"_VELDREN_FALLBACK":36,"_VELDREN_MATERIAL":37},"indices":38,"material":6,"extras":{"mixedAtlasFallback":false}},{"attributes":{"POSITION":30,"NORMAL":31,"TEXCOORD_0":32,"COLOR_0":33,"_VELDREN_NORMAL":34,"_VELDREN_COLOR":35,"_VELDREN_FALLBACK":36,"_VELDREN_MATERIAL":37},"indices":39,"material":7,"extras":{"mixedAtlasFallback":false}}]},{"name":"629e78b439d8b314fb62411e16a47eeeaf0f6f78bb3f3150468167c9e9d3eef3","primitives":[{"attributes":{"POSITION":40,"NORMAL":41,"TEXCOORD_0":42,"COLOR_0":43,"_VELDREN_NORMAL":44,"_VELDREN_COLOR":45,"_VELDREN_FALLBACK":46,"_VELDREN_MATERIAL":47},"indices":48,"material":8,"extras":{"mixedAtlasFallback":false}},{"attributes":{"POSITION":40,"NORMAL":41,"TEXCOORD_0":42,"COLOR_0":43,"_VELDREN_NORMAL":44,"_VELDREN_COLOR":45,"_VELDREN_FALLBACK":46,"_VELDREN_MATERIAL":47},"indices":49,"material":9,"extras":{"mixedAtlasFallback":false}}]}],"materials":[{"name":"legacy-material-49","pbrMetallicRoughness":{"baseColorFactor":[1,1,1,1],"metallicFactor":0,"roughnessFactor":1,"baseColorTexture":{"index":0}},"doubleSided":true,"extras":{"legacyMaterial":49,"legacyShader":"dist/renderer-gl.js"}},{"name":"legacy-material-55","pbrMetallicRoughness":{"baseColorFactor":[1,1,1,1],"metallicFactor":0,"roughnessFactor":1,"baseColorTexture":{"index":1}},"doubleSided":true,"extras":{"legacyMaterial":55,"legacyShader":"dist/renderer-gl.js"},"alphaMode":"MASK","alphaCutoff":0.45},{"name":"legacy-material-49","pbrMetallicRoughness":{"baseColorFactor":[1,1,1,1],"metallicFactor":0,"roughnessFactor":1,"baseColorTexture":{"index":2}},"doubleSided":true,"extras":{"legacyMaterial":49,"legacyShader":"dist/renderer-gl.js"}},{"name":"legacy-material-54","pbrMetallicRoughness":{"baseColorFactor":[1,1,1,1],"metallicFactor":0,"roughnessFactor":1,"baseColorTexture":{"index":3}},"doubleSided":true,"extras":{"legacyMaterial":54,"legacyShader":"dist/renderer-gl.js"},"alphaMode":"MASK","alphaCutoff":0.45},{"name":"legacy-material-52","pbrMetallicRoughness":{"baseColorFactor":[1,1,1,1],"metallicFactor":0,"roughnessFactor":1,"baseColorTexture":{"index":4}},"doubleSided":true,"extras":{"legacyMaterial":52,"legacyShader":"dist/renderer-gl.js"}},{"name":"legacy-material-53","pbrMetallicRoughness":{"baseColorFactor":[1,1,1,1],"metallicFactor":0,"roughnessFactor":1,"baseColorTexture":{"index":5}},"doubleSided":true,"extras":{"legacyMaterial":53,"legacyShader":"dist/renderer-gl.js"},"alphaMode":"MASK","alphaCutoff":0.45},{"name":"legacy-material-49","pbrMetallicRoughness":{"baseColorFactor":[1,1,1,1],"metallicFactor":0,"roughnessFactor":1,"baseColorTexture":{"index":6}},"doubleSided":true,"extras":{"legacyMaterial":49,"legacyShader":"dist/renderer-gl.js"}},{"name":"legacy-material-50","pbrMetallicRoughness":{"baseColorFactor":[1,1,1,1],"metallicFactor":0,"roughnessFactor":1,"baseColorTexture":{"index":7}},"doubleSided":true,"extras":{"legacyMaterial":50,"legacyShader":"dist/renderer-gl.js"},"alphaMode":"MASK","alphaCutoff":0.45},{"name":"legacy-material-49","pbrMetallicRoughness":{"baseColorFactor":[1,1,1,1],"metallicFactor":0,"roughnessFactor":1,"baseColorTexture":{"index":8}},"doubleSided":true,"extras":{"legacyMaterial":49,"legacyShader":"dist/renderer-gl.js"}},{"name":"legacy-material-51","pbrMetallicRoughness":{"baseColorFactor":[1,1,1,1],"metallicFactor":0,"roughnessFactor":1,"baseColorTexture":{"index":9}},"doubleSided":true,"extras":{"legacyMaterial":51,"legacyShader":"dist/renderer-gl.js"},"alphaMode":"MASK","alphaCutoff":0.45}],"images":[{"name":"atlas-29","uri":"../../textures/atlas/tile-29.png"},{"name":"atlas-35","uri":"../../textures/atlas/tile-35.png"},{"name":"atlas-29","uri":"../../textures/atlas/tile-29.png"},{"name":"atlas-34","uri":"../../textures/atlas/tile-34.png"},{"name":"atlas-32","uri":"../../textures/atlas/tile-32.png"},{"name":"atlas-33","uri":"../../textures/atlas/tile-33.png"},{"name":"atlas-29","uri":"../../textures/atlas/tile-29.png"},{"name":"atlas-30","uri":"../../textures/atlas/tile-30.png"},{"name":"atlas-29","uri":"../../textures/atlas/tile-29.png"},{"name":"atlas-31","uri":"../../textures/atlas/tile-31.png"}],"textures":[{"source":0,"sampler":0},{"source":1,"sampler":0},{"source":2,"sampler":1},{"source":3,"sampler":1},{"source":4,"sampler":2},{"source":5,"sampler":2},{"source":6,"sampler":3},{"source":7,"sampler":3},{"source":8,"sampler":4},{"source":9,"sampler":4}],"samplers":[{"magFilter":9729,"minFilter":9729,"wrapS":10497,"wrapT":10497},{"magFilter":9729,"minFilter":9729,"wrapS":10497,"wrapT":10497},{"magFilter":9729,"minFilter":9729,"wrapS":10497,"wrapT":10497},{"magFilter":9729,"minFilter":9729,"wrapS":10497,"wrapT":10497},{"magFilter":9729,"minFilter":9729,"wrapS":10497,"wrapT":10497}]}
