{"asset":{"version":"2.0","generator":"Veldren static world recovery"},"scene":0,"scenes":[{"nodes":[0,2,4,6,8,10,12,14,16,18,20,22,24,26,28,30,32,34,36,38,40,42,44,46,48,50,52,54,56,58,60,62,64,66,68,70,72,74,76,78,80,82,84,86,88,90,92,94,96,98,100,102,104,106,108,110,112,114,116,118,120,122,124,126,128,130,132,134,136,138,140,142,144,146,148,150,152,154,156,158,160,162,164,166,168,170]}],"extras":{"sourceScene":"overworld","notVervesisScene":true,"gameplayIdentityExternal":true,"limitations":["Terrain stored separately.","Dynamic actors, fires, gates, crops, fish, effects and ground cover are not baked.","Roofs are closed; browser procedural materials require native support."]},"nodes":[{"name":"Mountain outcrop","children":[1],"extras":{"veldrenEntityKey":"overworld:object:722"}},{"mesh":0,"matrix":[1.2951787154936916,0.0,0.0,0.0,0.0,1.2951787154936916,0.0,0.0,0.0,0.0,1.2951787154936916,0.0,1107.5,3.0481036925133362,264.5,1.0]},{"name":"Eldrite rock","children":[3],"extras":{"veldrenEntityKey":"overworld:object:739"}},{"mesh":1,"matrix":[1.0,0.0,0.0,0.0,0.0,1.0,0.0,0.0,0.0,0.0,1.0,0.0,1044.5,9.441133582185314,285.5,1.0]},{"name":"Mountain outcrop","children":[5],"extras":{"veldrenEntityKey":"overworld:object:740"}},{"mesh":0,"matrix":[1.2951787154936916,0.0,0.0,0.0,0.0,1.2951787154936916,0.0,0.0,0.0,0.0,1.2951787154936916,0.0,1065.5,9.28832781358307,285.5,1.0]},{"name":"Mountain outcrop","children":[7],"extras":{"veldrenEntityKey":"overworld:object:741"}},{"mesh":2,"matrix":[1.3275531317081868,0.0,0.0,0.0,0.0,1.3275531317081868,0.0,0.0,0.0,0.0,1.3275531317081868,0.0,1086.5,8.340189455710506,285.5,1.0]},{"name":"Mountain outcrop","children":[9],"extras":{"veldrenEntityKey":"overworld:object:742"}},{"mesh":0,"matrix":[1.2951787154936916,0.0,0.0,0.0,0.0,1.2951787154936916,0.0,0.0,0.0,0.0,1.2951787154936916,0.0,1107.5,3.627348707253051,285.5,1.0]},{"name":"Mountain outcrop","children":[11],"extras":{"veldrenEntityKey":"overworld:object:760"}},{"mesh":0,"matrix":[1.2951787154936916,0.0,0.0,0.0,0.0,1.2951787154936916,0.0,0.0,0.0,0.0,1.2951787154936916,0.0,1044.5,8.868277693076195,306.5,1.0]},{"name":"Mountain outcrop","children":[13],"extras":{"veldrenEntityKey":"overworld:object:761"}},{"mesh":2,"matrix":[1.3275531317081868,0.0,0.0,0.0,0.0,1.3275531317081868,0.0,0.0,0.0,0.0,1.3275531317081868,0.0,1065.5,8.58026732861814,306.5,1.0]},{"name":"Mountain outcrop","children":[15],"extras":{"veldrenEntityKey":"overworld:object:779"}},{"mesh":2,"matrix":[1.3275531317081868,0.0,0.0,0.0,0.0,1.3275531317081868,0.0,0.0,0.0,0.0,1.3275531317081868,0.0,1044.5,7.701897358200659,327.5,1.0]},{"name":"Gold rock","children":[17],"extras":{"veldrenEntityKey":"overworld:object:799"}},{"mesh":3,"matrix":[1.0,0.0,0.0,0.0,0.0,1.0,0.0,0.0,0.0,0.0,1.0,0.0,1063.5,0.49979595311934777,352.5,1.0]},{"name":"Mountain outcrop","children":[19],"extras":{"veldrenEntityKey":"overworld:object:800"}},{"mesh":0,"matrix":[1.2951787154936916,0.0,0.0,0.0,0.0,1.2951787154936916,0.0,0.0,0.0,0.0,1.2951787154936916,0.0,1064.5,0.6001797660101391,352.5,1.0]},{"name":"Mountain outcrop","children":[21],"extras":{"veldrenEntityKey":"overworld:object:801"}},{"mesh":2,"matrix":[1.3275531317081868,0.0,0.0,0.0,0.0,1.3275531317081868,0.0,0.0,0.0,0.0,1.3275531317081868,0.0,1072.5,0.5547910731715765,325.5,1.0]},{"name":"Mountain outcrop","children":[23],"extras":{"veldrenEntityKey":"overworld:object:823"}},{"mesh":2,"matrix":[1.3275531317081868,0.0,0.0,0.0,0.0,1.3275531317081868,0.0,0.0,0.0,0.0,1.3275531317081868,0.0,1063.5,0.8550493029831375,370.5,1.0]},{"name":"Mountain outcrop","children":[25],"extras":{"veldrenEntityKey":"overworld:object:824"}},{"mesh":0,"matrix":[1.2951787154936916,0.0,0.0,0.0,0.0,1.2951787154936916,0.0,0.0,0.0,0.0,1.2951787154936916,0.0,1064.5,0.6574351170075539,369.5,1.0]},{"name":"Mountain outcrop","children":[27],"extras":{"veldrenEntityKey":"overworld:object:862"}},{"mesh":0,"matrix":[1.2951787154936916,0.0,0.0,0.0,0.0,1.2951787154936916,0.0,0.0,0.0,0.0,1.2951787154936916,0.0,1059.5,0.8975397313465364,379.5,1.0]},{"name":"Mountain pine","children":[29],"extras":{"veldrenEntityKey":"overworld:object:6803993"}},{"mesh":4,"matrix":[0.787565870754689,0.0,0.020829510374737188,0.0,0.0,0.7878412716277581,0.0,0.0,-0.020829510374737188,0.0,0.787565870754689,0.0,1041.5,10.194871993735527,257.5,1.0]},{"name":"Mountain pine","children":[31],"extras":{"veldrenEntityKey":"overworld:object:6803996"}},{"mesh":4,"matrix":[0.49748339439085193,0.0,-0.6109043636981152,0.0,0.0,0.7878412716277581,0.0,0.0,0.6109043636981152,0.0,0.49748339439085193,0.0,1067.5,9.268079931655347,257.5,1.0]},{"name":"Mountain pine","children":[33],"extras":{"veldrenEntityKey":"overworld:object:6803999"}},{"mesh":4,"matrix":[-0.1799102238038042,0.0,-0.7670242373295044,0.0,0.0,0.7878412716277581,0.0,0.0,0.7670242373295044,0.0,-0.1799102238038042,0.0,1093.5,5.6887470519308065,257.5,1.0]},{"name":"Mountain pine","children":[35],"extras":{"veldrenEntityKey":"overworld:object:6804129"}},{"mesh":4,"matrix":[0.6423227804030783,0.0,0.34102301291748466,0.0,0.0,0.7272380968871612,0.0,0.0,-0.34102301291748466,0.0,0.6423227804030783,0.0,1030.5,10.189712491775273,265.5,1.0]},{"name":"Mountain pine","children":[37],"extras":{"veldrenEntityKey":"overworld:object:6804130"}},{"mesh":4,"matrix":[-0.2527196225689226,0.0,-0.7141422586526531,0.0,0.0,0.7575396842574597,0.0,0.0,0.7141422586526531,0.0,-0.2527196225689226,0.0,1036.5,10.217029104091457,262.5,1.0]},{"name":"Mountain pine","children":[39],"extras":{"veldrenEntityKey":"overworld:object:6804132"}},{"mesh":4,"matrix":[0.6623209240874404,0.0,-0.30034354176512473,0.0,0.0,0.7272380968871612,0.0,0.0,0.30034354176512473,0.0,0.6623209240874404,0.0,1055.5,9.720770333973617,264.5,1.0]},{"name":"Mountain pine","children":[41],"extras":{"veldrenEntityKey":"overworld:object:6804135"}},{"mesh":4,"matrix":[0.1666751751528271,0.0,-0.7078803822340569,0.0,0.0,0.7272380968871612,0.0,0.0,0.7078803822340569,0.0,0.1666751751528271,0.0,1078.5,8.612391861663799,264.5,1.0]},{"name":"Mountain pine","children":[43],"extras":{"veldrenEntityKey":"overworld:object:6804138"}},{"mesh":4,"matrix":[-0.45873400582652035,0.0,-0.5643034303124641,0.0,0.0,0.7272380968871612,0.0,0.0,0.5643034303124641,0.0,-0.45873400582652035,0.0,1099.5,5.226648562436513,264.5,1.0]},{"name":"Mountain pine","children":[45],"extras":{"veldrenEntityKey":"overworld:object:6804268"}},{"mesh":4,"matrix":[0.7570516001612109,0.0,0.02718911396573768,0.0,0.0,0.7575396842574597,0.0,0.0,-0.02718911396573768,0.0,0.7570516001612109,0.0,1034.5,10.051751695453842,270.5,1.0]},{"name":"Mountain pine","children":[47],"extras":{"veldrenEntityKey":"overworld:object:6804269"}},{"mesh":4,"matrix":[-0.5609220943038342,0.0,-0.5532271444911605,0.0,0.0,0.7878412716277581,0.0,0.0,0.5532271444911605,0.0,-0.5609220943038342,0.0,1043.5,9.859325914042206,273.5,1.0]},{"name":"Mountain pine","children":[49],"extras":{"veldrenEntityKey":"overworld:object:6804271"}},{"mesh":4,"matrix":[0.4838832105186486,0.0,-0.5828579688080595,0.0,0.0,0.7575396842574597,0.0,0.0,0.5828579688080595,0.0,0.4838832105186486,0.0,1057.5,9.5574239313867,269.5,1.0]},{"name":"Mountain pine","children":[51],"extras":{"veldrenEntityKey":"overworld:object:6804272"}},{"mesh":4,"matrix":[-0.7806386755748804,0.0,0.10628794605570054,0.0,0.0,0.7878412716277581,0.0,0.0,-0.10628794605570054,0.0,-0.7806386755748804,0.0,1070.5,8.914884623522806,273.5,1.0]},{"name":"Mountain pine","children":[53],"extras":{"veldrenEntityKey":"overworld:object:6804274"}},{"mesh":4,"matrix":[-0.16600802233487355,0.0,-0.7391263151487408,0.0,0.0,0.7575396842574597,0.0,0.0,0.7391263151487408,0.0,-0.16600802233487355,0.0,1082.5,8.337583292847013,269.5,1.0]},{"name":"Mountain pine","children":[55],"extras":{"veldrenEntityKey":"overworld:object:6804275"}},{"mesh":4,"matrix":[-0.3925961624006277,0.0,0.6830535283184934,0.0,0.0,0.7878412716277581,0.0,0.0,-0.6830535283184934,0.0,-0.3925961624006277,0.0,1095.5,7.588195128321206,273.5,1.0]},{"name":"Mountain pine","children":[57],"extras":{"veldrenEntityKey":"overworld:object:6804405"}},{"mesh":4,"matrix":[-0.23611641298104866,0.0,-0.6878403078367994,0.0,0.0,0.7272380968871612,0.0,0.0,0.6878403078367994,0.0,-0.23611641298104866,0.0,1031.5,9.684219515895059,281.5,1.0]},{"name":"Mountain pine","children":[59],"extras":{"veldrenEntityKey":"overworld:object:6804408"}},{"mesh":4,"matrix":[-0.6888622241113704,0.0,-0.2331181798067156,0.0,0.0,0.7272380968871612,0.0,0.0,0.2331181798067156,0.0,-0.6888622241113704,0.0,1053.5,9.383042244463777,281.5,1.0]},{"name":"Mountain pine","children":[61],"extras":{"veldrenEntityKey":"overworld:object:6804409"}},{"mesh":4,"matrix":[0.36444015812143454,0.0,0.6641157612745804,0.0,0.0,0.7575396842574597,0.0,0.0,-0.6641157612745804,0.0,0.36444015812143454,0.0,1057.5,9.347179177154112,278.5,1.0]},{"name":"Mountain pine","children":[63],"extras":{"veldrenEntityKey":"overworld:object:6804411"}},{"mesh":4,"matrix":[-0.6053006570664278,0.0,0.40309597383130835,0.0,0.0,0.7272380968871612,0.0,0.0,-0.40309597383130835,0.0,-0.6053006570664278,0.0,1074.5,8.603383058890362,280.5,1.0]},{"name":"Mountain pine","children":[65],"extras":{"veldrenEntityKey":"overworld:object:6804412"}},{"mesh":4,"matrix":[0.7484473041119318,0.0,0.11701711922822713,0.0,0.0,0.7575396842574597,0.0,0.0,-0.11701711922822713,0.0,0.7484473041119318,0.0,1084.5,8.127880995199773,279.5,1.0]},{"name":"Mountain pine","children":[67],"extras":{"veldrenEntityKey":"overworld:object:6804414"}},{"mesh":4,"matrix":[-0.05048780375253476,0.0,0.7254834465625702,0.0,0.0,0.7272380968871612,0.0,0.0,-0.7254834465625702,0.0,-0.05048780375253476,0.0,1097.5,7.18010306981312,280.5,1.0]},{"name":"Mountain pine","children":[69],"extras":{"veldrenEntityKey":"overworld:object:6804544"}},{"mesh":4,"matrix":[-0.5342933446058282,0.0,-0.5370260656009254,0.0,0.0,0.7575396842574597,0.0,0.0,0.5370260656009254,0.0,-0.5342933446058282,0.0,1033.5,9.429912071655504,287.5,1.0]},{"name":"Mountain pine","children":[71],"extras":{"veldrenEntityKey":"overworld:object:6804545"}},{"mesh":4,"matrix":[0.03170576218459041,0.0,0.787203032212362,0.0,0.0,0.7878412716277581,0.0,0.0,-0.787203032212362,0.0,0.03170576218459041,0.0,1047.5,9.361178347557967,288.5,1.0]},{"name":"Mountain pine","children":[73],"extras":{"veldrenEntityKey":"overworld:object:6804547"}},{"mesh":4,"matrix":[-0.7515470605293897,0.0,0.09509673514125273,0.0,0.0,0.7575396842574597,0.0,0.0,-0.09509673514125273,0.0,-0.7515470605293897,0.0,1059.5,9.046228559486346,286.5,1.0]},{"name":"Mountain pine","children":[75],"extras":{"veldrenEntityKey":"overworld:object:6804548"}},{"mesh":4,"matrix":[0.6427018986622711,0.0,0.45566230778500294,0.0,0.0,0.7878412716277581,0.0,0.0,-0.45566230778500294,0.0,0.6427018986622711,0.0,1071.5,8.545144552076412,289.5,1.0]},{"name":"Mountain pine","children":[77],"extras":{"veldrenEntityKey":"overworld:object:6804550"}},{"mesh":4,"matrix":[-0.38369069257141597,0.0,0.6531828424407357,0.0,0.0,0.7575396842574597,0.0,0.0,-0.6531828424407357,0.0,-0.38369069257141597,0.0,1083.5,8.097894328521152,286.5,1.0]},{"name":"Mountain pine","children":[79],"extras":{"veldrenEntityKey":"overworld:object:6804551"}},{"mesh":4,"matrix":[0.7533283549880481,0.0,-0.2306301343082562,0.0,0.0,0.7878412716277581,0.0,0.0,0.2306301343082562,0.0,0.7533283549880481,0.0,1093.5,7.398692990312724,289.5,1.0]},{"name":"Mountain pine","children":[81],"extras":{"veldrenEntityKey":"overworld:object:6804681"}},{"mesh":4,"matrix":[-0.2974558529078553,0.0,0.6636228334942375,0.0,0.0,0.7272380968871612,0.0,0.0,-0.6636228334942375,0.0,-0.2974558529078553,0.0,1028.5,8.920774129066508,297.5,1.0]},{"name":"Mountain pine","children":[83],"extras":{"veldrenEntityKey":"overworld:object:6804682"}},{"mesh":4,"matrix":[0.6957114201130402,0.0,-0.2997532204150417,0.0,0.0,0.7575396842574597,0.0,0.0,0.2997532204150417,0.0,0.6957114201130402,0.0,1034.5,9.146800304688181,293.5,1.0]},{"name":"Mountain pine","children":[85],"extras":{"veldrenEntityKey":"overworld:object:6804684"}},{"mesh":4,"matrix":[0.3438175128702722,0.0,0.6408313096344157,0.0,0.0,0.7272380968871612,0.0,0.0,-0.6408313096344157,0.0,0.3438175128702722,0.0,1050.5,8.831639622286167,297.5,1.0]},{"name":"Mountain pine","children":[87],"extras":{"veldrenEntityKey":"overworld:object:6804685"}},{"mesh":4,"matrix":[0.18753517962613844,0.0,-0.7339597602235994,0.0,0.0,0.7575396842574597,0.0,0.0,0.7339597602235994,0.0,0.18753517962613844,0.0,1060.5,8.748776315127518,294.5,1.0]},{"name":"Mountain pine","children":[89],"extras":{"veldrenEntityKey":"overworld:object:6804687"}},{"mesh":4,"matrix":[0.7174149021858173,0.0,0.11912643571338115,0.0,0.0,0.7272380968871612,0.0,0.0,-0.11912643571338115,0.0,0.7174149021858173,0.0,1073.5,8.285593217713567,297.5,1.0]},{"name":"Mountain pine","children":[91],"extras":{"veldrenEntityKey":"overworld:object:6804688"}},{"mesh":4,"matrix":[-0.4666448590158305,0.0,-0.5967486479071297,0.0,0.0,0.7575396842574597,0.0,0.0,0.5967486479071297,0.0,-0.4666448590158305,0.0,1087.5,7.815970844003947,294.5,1.0]},{"name":"Mountain pine","children":[93],"extras":{"veldrenEntityKey":"overworld:object:6804690"}},{"mesh":4,"matrix":[0.5324754858714335,0.0,-0.49532323437331405,0.0,0.0,0.7272380968871612,0.0,0.0,0.49532323437331405,0.0,0.5324754858714335,0.0,1099.5,3.132393155907116,296.5,1.0]},{"name":"Mountain pine","children":[95],"extras":{"veldrenEntityKey":"overworld:object:6804820"}},{"mesh":4,"matrix":[0.023326611624293333,0.0,0.7571804556478073,0.0,0.0,0.7575396842574597,0.0,0.0,-0.7571804556478073,0.0,0.023326611624293333,0.0,1035.5,8.626886524084258,303.5,1.0]},{"name":"Mountain pine","children":[97],"extras":{"veldrenEntityKey":"overworld:object:6804821"}},{"mesh":4,"matrix":[0.5146132898863643,0.0,-0.5965459170528079,0.0,0.0,0.7878412716277581,0.0,0.0,0.5965459170528079,0.0,0.5146132898863643,0.0,1046.5,8.54149213477426,304.5,1.0]},{"name":"Mountain pine","children":[99],"extras":{"veldrenEntityKey":"overworld:object:6804823"}},{"mesh":4,"matrix":[0.6138114493339037,0.0,0.4439615725392279,0.0,0.0,0.7575396842574597,0.0,0.0,-0.4439615725392279,0.0,0.6138114493339037,0.0,1062.5,8.375218891197067,303.5,1.0]},{"name":"Mountain pine","children":[101],"extras":{"veldrenEntityKey":"overworld:object:6804824"}},{"mesh":4,"matrix":[-0.15807890991035028,0.0,-0.771819232412356,0.0,0.0,0.7878412716277581,0.0,0.0,0.771819232412356,0.0,-0.15807890991035028,0.0,1068.5,8.220316217253348,304.5,1.0]},{"name":"Mountain pine","children":[103],"extras":{"veldrenEntityKey":"overworld:object:6804826"}},{"mesh":4,"matrix":[0.7264190013536251,0.0,-0.21489952930914846,0.0,0.0,0.7575396842574597,0.0,0.0,0.21489952930914846,0.0,0.7264190013536251,0.0,1087.5,4.886729289962815,302.5,1.0]},{"name":"Mountain pine","children":[105],"extras":{"veldrenEntityKey":"overworld:object:6804958"}},{"mesh":4,"matrix":[-0.7128437001707658,0.0,-0.25635957628250006,0.0,0.0,0.7575396842574597,0.0,0.0,0.25635957628250006,0.0,-0.7128437001707658,0.0,1037.5,8.298814853141492,309.5,1.0]},{"name":"Mountain pine","children":[107],"extras":{"veldrenEntityKey":"overworld:object:6804960"}},{"mesh":4,"matrix":[0.18668921506579136,0.0,-0.7028672609690815,0.0,0.0,0.7272380968871612,0.0,0.0,0.7028672609690815,0.0,0.18668921506579136,0.0,1049.5,8.070278443751949,313.5,1.0]},{"name":"Mountain pine","children":[109],"extras":{"veldrenEntityKey":"overworld:object:6804961"}},{"mesh":4,"matrix":[-0.6383503043005655,0.0,0.4078912382293435,0.0,0.0,0.7575396842574597,0.0,0.0,-0.4078912382293435,0.0,-0.6383503043005655,0.0,1063.5,8.13325458622239,309.5,1.0]},{"name":"Mountain pine","children":[111],"extras":{"veldrenEntityKey":"overworld:object:6804963"}},{"mesh":4,"matrix":[-0.44254125249183207,0.0,-0.5770896718942565,0.0,0.0,0.7272380968871612,0.0,0.0,0.5770896718942565,0.0,-0.44254125249183207,0.0,1076.5,3.6623549466771954,313.5,1.0]},{"name":"Mountain pine","children":[113],"extras":{"veldrenEntityKey":"overworld:object:6804964"}},{"mesh":4,"matrix":[-0.06687512228674172,0.0,0.7545820639559524,0.0,0.0,0.7575396842574597,0.0,0.0,-0.7545820639559524,0.0,-0.06687512228674172,0.0,1086.5,1.5114403041616264,310.5,1.0]},{"name":"Mountain pine","children":[115],"extras":{"veldrenEntityKey":"overworld:object:6805095"}},{"mesh":4,"matrix":[0.015518234061221435,0.0,0.7270725094347064,0.0,0.0,0.7272380968871612,0.0,0.0,-0.7270725094347064,0.0,0.015518234061221435,0.0,1025.5,7.8958574990990265,315.5,1.0]},{"name":"Mountain pine","children":[117],"extras":{"veldrenEntityKey":"overworld:object:6805096"}},{"mesh":4,"matrix":[0.5002229605178314,0.0,-0.5688966188998381,0.0,0.0,0.7575396842574597,0.0,0.0,0.5688966188998381,0.0,0.5002229605178314,0.0,1039.5,7.688624750904887,320.5,1.0]},{"name":"Mountain pine","children":[119],"extras":{"veldrenEntityKey":"overworld:object:6805099"}},{"mesh":4,"matrix":[-0.14497371039289011,0.0,-0.7435381607690422,0.0,0.0,0.7575396842574597,0.0,0.0,0.7435381607690422,0.0,-0.14497371039289011,0.0,1063.5,5.586378350493147,319.5,1.0]},{"name":"Mountain pine","children":[121],"extras":{"veldrenEntityKey":"overworld:object:6805233"}},{"mesh":4,"matrix":[-0.6819719045889209,0.0,-0.25256597339194337,0.0,0.0,0.7272380968871612,0.0,0.0,0.25256597339194337,0.0,-0.6819719045889209,0.0,1026.5,7.126166642647952,329.5,1.0]},{"name":"Mountain pine","children":[123],"extras":{"veldrenEntityKey":"overworld:object:6805235"}},{"mesh":4,"matrix":[0.20943862518355644,0.0,-0.7594928120537182,0.0,0.0,0.7878412716277581,0.0,0.0,0.7594928120537182,0.0,0.20943862518355644,0.0,1042.5,7.428146650980281,325.5,1.0]},{"name":"Mountain pine","children":[125],"extras":{"veldrenEntityKey":"overworld:object:6805236"}},{"mesh":4,"matrix":[-0.616492061264501,0.0,0.38576260570706805,0.0,0.0,0.7272380968871612,0.0,0.0,-0.38576260570706805,0.0,-0.616492061264501,0.0,1052.5,6.082737536803998,329.5,1.0]},{"name":"Mountain pine","children":[127],"extras":{"veldrenEntityKey":"overworld:object:6805372"}},{"mesh":4,"matrix":[-0.7539422993621674,0.0,0.07373860900084558,0.0,0.0,0.7575396842574597,0.0,0.0,-0.07373860900084558,0.0,-0.7539422993621674,0.0,1038.5,6.829919618030987,336.5,1.0]},{"name":"Mountain pine","children":[129],"extras":{"veldrenEntityKey":"overworld:object:6805509"}},{"mesh":4,"matrix":[0.32550006950586274,0.0,0.6503268057797853,0.0,0.0,0.7272380968871612,0.0,0.0,-0.6503268057797853,0.0,0.32550006950586274,0.0,1029.5,6.364549184360116,345.5,1.0]},{"name":"Mountain pine","children":[131],"extras":{"veldrenEntityKey":"overworld:object:6805511"}},{"mesh":4,"matrix":[-0.6717887504271087,0.0,0.4115747126338383,0.0,0.0,0.7878412716277581,0.0,0.0,-0.4115747126338383,0.0,-0.6717887504271087,0.0,1041.5,6.615538391867489,341.5,1.0]},{"name":"Mountain pine","children":[133],"extras":{"veldrenEntityKey":"overworld:object:6805648"}},{"mesh":4,"matrix":[0.6009701383008332,0.0,0.4611954749296322,0.0,0.0,0.7575396842574597,0.0,0.0,-0.4611954749296322,0.0,0.6009701383008332,0.0,1035.5,6.111416665051035,352.5,1.0]},{"name":"Mountain pine","children":[135],"extras":{"veldrenEntityKey":"overworld:object:6805649"}},{"mesh":4,"matrix":[-0.1361203564115301,0.0,-0.7759929882740184,0.0,0.0,0.7878412716277581,0.0,0.0,0.7759929882740184,0.0,-0.1361203564115301,0.0,1043.5,6.258829937658581,350.5,1.0]},{"name":"Mountain pine","children":[137],"extras":{"veldrenEntityKey":"overworld:object:6805785"}},{"mesh":4,"matrix":[0.206552989602362,0.0,-0.6972883994807217,0.0,0.0,0.7272380968871612,0.0,0.0,0.6972883994807217,0.0,0.206552989602362,0.0,1031.5,5.821868852314065,361.5,1.0]},{"name":"Mountain pine","children":[139],"extras":{"veldrenEntityKey":"overworld:object:6805787"}},{"mesh":4,"matrix":[0.7717626363494453,0.0,0.15835498860154887,0.0,0.0,0.7878412716277581,0.0,0.0,-0.15835498860154887,0.0,0.7717626363494453,0.0,1044.5,5.999107808936304,358.5,1.0]},{"name":"Mountain pine","children":[141],"extras":{"veldrenEntityKey":"overworld:object:6805788"}},{"mesh":4,"matrix":[-0.42599229750727113,0.0,-0.5894114115187598,0.0,0.0,0.7272380968871612,0.0,0.0,0.5894114115187598,0.0,-0.42599229750727113,0.0,1054.5,3.4648157279631895,361.5,1.0]},{"name":"Mountain pine","children":[143],"extras":{"veldrenEntityKey":"overworld:object:6805924"}},{"mesh":4,"matrix":[-0.12382270870295486,0.0,-0.747351530428857,0.0,0.0,0.7575396842574597,0.0,0.0,0.747351530428857,0.0,-0.12382270870295486,0.0,1033.5,5.658915299552271,369.5,1.0]},{"name":"Mountain pine","children":[145],"extras":{"veldrenEntityKey":"overworld:object:6805925"}},{"mesh":4,"matrix":[-0.4307023538366693,0.0,0.6596888294336924,0.0,0.0,0.7878412716277581,0.0,0.0,-0.6596888294336924,0.0,-0.4307023538366693,0.0,1046.5,5.793384878091671,366.5,1.0]},{"name":"Mountain pine","children":[147],"extras":{"veldrenEntityKey":"overworld:object:6805927"}},{"mesh":4,"matrix":[-0.6674044587825382,0.0,-0.35838200515940943,0.0,0.0,0.7575396842574597,0.0,0.0,0.35838200515940943,0.0,-0.6674044587825382,0.0,1058.5,2.1417642922152553,368.5,1.0]},{"name":"Mountain pine","children":[149],"extras":{"veldrenEntityKey":"overworld:object:6806061"}},{"mesh":4,"matrix":[-0.6271872499511997,0.0,0.3681187350063991,0.0,0.0,0.7272380968871612,0.0,0.0,-0.3681187350063991,0.0,-0.6271872499511997,0.0,1029.5,5.602627846459089,376.5,1.0]},{"name":"Mountain pine","children":[151],"extras":{"veldrenEntityKey":"overworld:object:6806063"}},{"mesh":4,"matrix":[-0.45543237661418945,0.0,-0.6428648533024605,0.0,0.0,0.7878412716277581,0.0,0.0,0.6428648533024605,0.0,-0.45543237661418945,0.0,1047.5,4.994356437130627,374.5,1.0]},{"name":"Oak tree","children":[153],"extras":{"veldrenEntityKey":"overworld:object:9111441"}},{"mesh":5,"matrix":[0.9003108062192162,0.0,0.1932841182531559,0.0,0.0,0.9208247923269633,0.0,0.0,-0.1932841182531559,0.0,0.9003108062192162,0.0,1062.5,9.41650257365823,265.5,1.0]},{"name":"Yew tree","children":[155],"extras":{"veldrenEntityKey":"overworld:object:9111443"}},{"mesh":6,"matrix":[-0.10964056156708894,0.0,0.8664917666421538,0.0,0.0,0.8734008440569468,0.0,0.0,-0.8664917666421538,0.0,-0.10964056156708894,0.0,1071.5,9.065747775798693,264.5,1.0]},{"name":"Yew tree","children":[157],"extras":{"veldrenEntityKey":"overworld:object:9111483"}},{"mesh":6,"matrix":[0.8061185793007388,0.0,-0.012543475979957157,0.0,0.0,0.8062161637448739,0.0,0.0,0.012543475979957157,0.0,0.8061185793007388,0.0,1104.5,4.468729099266488,270.5,1.0]},{"name":"Tree","children":[159],"extras":{"veldrenEntityKey":"overworld:object:9111484"}},{"mesh":4,"matrix":[-0.5659952757847161,0.0,-0.503503446874274,0.0,0.0,0.7575396842574597,0.0,0.0,0.503503446874274,0.0,-0.5659952757847161,0.0,1090.5,7.88954502530307,269.5,1.0]},{"name":"Yew tree","children":[161],"extras":{"veldrenEntityKey":"overworld:object:9112423"}},{"mesh":6,"matrix":[0.6987798714226768,0.0,0.46581650305543354,0.0,0.0,0.8398085039009104,0.0,0.0,-0.46581650305543354,0.0,0.6987798714226768,0.0,1088.5,7.9197795499674655,289.5,1.0]},{"name":"Tree","children":[163],"extras":{"veldrenEntityKey":"overworld:object:9112424"}},{"mesh":4,"matrix":[-0.18745366432679286,0.0,-0.7652156513104661,0.0,0.0,0.7878412716277581,0.0,0.0,0.7652156513104661,0.0,-0.18745366432679286,0.0,1075.5,8.485514990739148,284.5,1.0]},{"name":"Yew tree","children":[165],"extras":{"veldrenEntityKey":"overworld:object:9112440"}},{"mesh":6,"matrix":[-0.6439219204241159,0.0,-0.4851278832234032,0.0,0.0,0.8062161637448739,0.0,0.0,0.4851278832234032,0.0,-0.6439219204241159,0.0,1102.5,5.158546592600011,284.5,1.0]},{"name":"Tree","children":[167],"extras":{"veldrenEntityKey":"overworld:object:9112441"}},{"mesh":4,"matrix":[0.13750939965641862,0.0,0.744954722269094,0.0,0.0,0.7575396842574597,0.0,0.0,-0.744954722269094,0.0,0.13750939965641862,0.0,1099.5,5.033252429440999,290.5,1.0]},{"name":"Tree","children":[169],"extras":{"veldrenEntityKey":"overworld:object:9114300"}},{"mesh":4,"matrix":[-0.6601949033301212,0.0,0.30498842466721926,0.0,0.0,0.7272380968871612,0.0,0.0,-0.30498842466721926,0.0,-0.6601949033301212,0.0,1030.5,6.733747373911173,337.5,1.0]},{"name":"Oak tree","children":[171],"extras":{"veldrenEntityKey":"overworld:object:9114301"}},{"mesh":5,"matrix":[0.9135205178471667,0.0,0.29245597992745725,0.0,0.0,0.9591924920072534,0.0,0.0,-0.29245597992745725,0.0,0.9135205178471667,0.0,1025.5,6.575472507043608,340.5,1.0]}],"buffers":[{"uri":"../world-parts/945c10e33683e4b3baa7557ff260c79730a9992e0e5a23b5d9307a2c40355ae1.bin","byteLength":50868},{"uri":"../world-parts/41a0ea4834ebc597b74c322625d4b3fb4d4337c8b31ded8edc607916fcb69662.bin","byteLength":12936},{"uri":"../world-parts/d3a49cf40a43bca59e27ca2096fab65e613b5d5993f180ce0def51f1fdd95647.bin","byteLength":33588},{"uri":"../world-parts/c2f99fb65c8e764f8a2546544009dc024b5346effe67d789fc80594bcf5ea2c0.bin","byteLength":18216},{"uri":"../world-parts/8480a643e36c0194bf11e79cbc019e38e5ff72b8bc295b144212e5f7a5b37347.bin","byteLength":64668},{"uri":"../world-parts/cf73d73e4a52b629e942c4cf3ba67a960257f3fda86af0eadf8051aa3c1f7c97.bin","byteLength":133656},{"uri":"../world-parts/7e2e11a73c6c1f6b77c7c18c44a87655900818e94c168e7a92bb0a48cc87a1c1.bin","byteLength":46872}],"bufferViews":[{"buffer":0,"byteOffset":0,"byteLength":6372,"target":34962},{"buffer":0,"byteOffset":6372,"byteLength":6372,"target":34962},{"buffer":0,"byteOffset":12744,"byteLength":4248,"target":34962},{"buffer":0,"byteOffset":16992,"byteLength":6372,"target":34962},{"buffer":0,"byteOffset":23364,"byteLength":6372,"target":34962},{"buffer":0,"byteOffset":29736,"byteLength":6372,"target":34962},{"buffer":0,"byteOffset":36108,"byteLength":6372,"target":34962},{"buffer":0,"byteOffset":42480,"byteLength":2124,"target":34962},{"buffer":0,"byteOffset":44604,"byteLength":6264,"target":34963},{"buffer":1,"byteOffset":0,"byteLength":1764,"target":34962},{"buffer":1,"byteOffset":1764,"byteLength":1764,"target":34962},{"buffer":1,"byteOffset":3528,"byteLength":1176,"target":34962},{"buffer":1,"byteOffset":4704,"byteLength":1764,"target":34962},{"buffer":1,"byteOffset":6468,"byteLength":1764,"target":34962},{"buffer":1,"byteOffset":8232,"byteLength":1764,"target":34962},{"buffer":1,"byteOffset":9996,"byteLength":1764,"target":34962},{"buffer":1,"byteOffset":11760,"byteLength":588,"target":34962},{"buffer":1,"byteOffset":12348,"byteLength":588,"target":34963},{"buffer":2,"byteOffset":0,"byteLength":4212,"target":34962},{"buffer":2,"byteOffset":4212,"byteLength":4212,"target":34962},{"buffer":2,"byteOffset":8424,"byteLength":2808,"target":34962},{"buffer":2,"byteOffset":11232,"byteLength":4212,"target":34962},{"buffer":2,"byteOffset":15444,"byteLength":4212,"target":34962},{"buffer":2,"byteOffset":19656,"byteLength":4212,"target":34962},{"buffer":2,"byteOffset":23868,"byteLength":4212,"target":34962},{"buffer":2,"byteOffset":28080,"byteLength":1404,"target":34962},{"buffer":2,"byteOffset":29484,"byteLength":4104,"target":34963},{"buffer":3,"byteOffset":0,"byteLength":2484,"target":34962},{"buffer":3,"byteOffset":2484,"byteLength":2484,"target":34962},{"buffer":3,"byteOffset":4968,"byteLength":1656,"target":34962},{"buffer":3,"byteOffset":6624,"byteLength":2484,"target":34962},{"buffer":3,"byteOffset":9108,"byteLength":2484,"target":34962},{"buffer":3,"byteOffset":11592,"byteLength":2484,"target":34962},{"buffer":3,"byteOffset":14076,"byteLength":2484,"target":34962},{"buffer":3,"byteOffset":16560,"byteLength":828,"target":34962},{"buffer":3,"byteOffset":17388,"byteLength":828,"target":34963},{"buffer":4,"byteOffset":0,"byteLength":7860,"target":34962},{"buffer":4,"byteOffset":7860,"byteLength":7860,"target":34962},{"buffer":4,"byteOffset":15720,"byteLength":5240,"target":34962},{"buffer":4,"byteOffset":20960,"byteLength":7860,"target":34962},{"buffer":4,"byteOffset":28820,"byteLength":7860,"target":34962},{"buffer":4,"byteOffset":36680,"byteLength":7860,"target":34962},{"buffer":4,"byteOffset":44540,"byteLength":7860,"target":34962},{"buffer":4,"byteOffset":52400,"byteLength":2620,"target":34962},{"buffer":4,"byteOffset":55020,"byteLength":5328,"target":34963},{"buffer":4,"byteOffset":60348,"byteLength":4320,"target":34963},{"buffer":5,"byteOffset":0,"byteLength":15912,"target":34962},{"buffer":5,"byteOffset":15912,"byteLength":15912,"target":34962},{"buffer":5,"byteOffset":31824,"byteLength":10608,"target":34962},{"buffer":5,"byteOffset":42432,"byteLength":15912,"target":34962},{"buffer":5,"byteOffset":58344,"byteLength":15912,"target":34962},{"buffer":5,"byteOffset":74256,"byteLength":15912,"target":34962},{"buffer":5,"byteOffset":90168,"byteLength":15912,"target":34962},{"buffer":5,"byteOffset":106080,"byteLength":5304,"target":34962},{"buffer":5,"byteOffset":111384,"byteLength":10464,"target":34963},{"buffer":5,"byteOffset":121848,"byteLength":11808,"target":34963},{"buffer":6,"byteOffset":0,"byteLength":5784,"target":34962},{"buffer":6,"byteOffset":5784,"byteLength":5784,"target":34962},{"buffer":6,"byteOffset":11568,"byteLength":3856,"target":34962},{"buffer":6,"byteOffset":15424,"byteLength":5784,"target":34962},{"buffer":6,"byteOffset":21208,"byteLength":5784,"target":34962},{"buffer":6,"byteOffset":26992,"byteLength":5784,"target":34962},{"buffer":6,"byteOffset":32776,"byteLength":5784,"target":34962},{"buffer":6,"byteOffset":38560,"byteLength":1928,"target":34962},{"buffer":6,"byteOffset":40488,"byteLength":1776,"target":34963},{"buffer":6,"byteOffset":42264,"byteLength":4608,"target":34963}],"accessors":[{"bufferView":0,"componentType":5126,"count":531,"type":"VEC3","min":[-1.8242793083190918,-0.31564441323280334,-0.8904620409011841],"max":[1.5958054065704346,2.000638246536255,2.5856480598449707]},{"bufferView":1,"componentType":5126,"count":531,"type":"VEC3"},{"bufferView":2,"componentType":5126,"count":531,"type":"VEC2"},{"bufferView":3,"componentType":5126,"count":531,"type":"VEC3"},{"bufferView":4,"componentType":5126,"count":531,"type":"VEC3"},{"bufferView":5,"componentType":5126,"count":531,"type":"VEC3"},{"bufferView":6,"componentType":5126,"count":531,"type":"VEC3"},{"bufferView":7,"componentType":5126,"count":531,"type":"SCALAR"},{"bufferView":8,"componentType":5125,"count":1566,"type":"SCALAR"},{"bufferView":9,"componentType":5126,"count":147,"type":"VEC3","min":[-0.4207952618598938,0.014999999664723873,-0.29482752084732056],"max":[0.519493579864502,0.9599999785423279,0.3897172808647156]},{"bufferView":10,"componentType":5126,"count":147,"type":"VEC3"},{"bufferView":11,"componentType":5126,"count":147,"type":"VEC2"},{"bufferView":12,"componentType":5126,"count":147,"type":"VEC3"},{"bufferView":13,"componentType":5126,"count":147,"type":"VEC3"},{"bufferView":14,"componentType":5126,"count":147,"type":"VEC3"},{"bufferView":15,"componentType":5126,"count":147,"type":"VEC3"},{"bufferView":16,"componentType":5126,"count":147,"type":"SCALAR"},{"bufferView":17,"componentType":5125,"count":147,"type":"SCALAR"},{"bufferView":18,"componentType":5126,"count":351,"type":"VEC3","min":[-1.7272872924804688,-0.27113133668899536,-1.1498832702636719],"max":[1.4978611469268799,1.988665223121643,1.8392531871795654]},{"bufferView":19,"componentType":5126,"count":351,"type":"VEC3"},{"bufferView":20,"componentType":5126,"count":351,"type":"VEC2"},{"bufferView":21,"componentType":5126,"count":351,"type":"VEC3"},{"bufferView":22,"componentType":5126,"count":351,"type":"VEC3"},{"bufferView":23,"componentType":5126,"count":351,"type":"VEC3"},{"bufferView":24,"componentType":5126,"count":351,"type":"VEC3"},{"bufferView":25,"componentType":5126,"count":351,"type":"SCALAR"},{"bufferView":26,"componentType":5125,"count":1026,"type":"SCALAR"},{"bufferView":27,"componentType":5126,"count":207,"type":"VEC3","min":[-0.4144456684589386,0.014999999664723873,-0.44846683740615845],"max":[0.5123918652534485,0.6399999856948853,0.44846683740615845]},{"bufferView":28,"componentType":5126,"count":207,"type":"VEC3"},{"bufferView":29,"componentType":5126,"count":207,"type":"VEC2"},{"bufferView":30,"componentType":5126,"count":207,"type":"VEC3"},{"bufferView":31,"componentType":5126,"count":207,"type":"VEC3"},{"bufferView":32,"componentType":5126,"count":207,"type":"VEC3"},{"bufferView":33,"componentType":5126,"count":207,"type":"VEC3"},{"bufferView":34,"componentType":5126,"count":207,"type":"SCALAR"},{"bufferView":35,"componentType":5125,"count":207,"type":"SCALAR"},{"bufferView":36,"componentType":5126,"count":655,"type":"VEC3","min":[-2.3328819274902344,0.011172999627888203,-2.0712060928344727],"max":[1.805098056793213,5.555437088012695,2.05914306640625]},{"bufferView":37,"componentType":5126,"count":655,"type":"VEC3"},{"bufferView":38,"componentType":5126,"count":655,"type":"VEC2"},{"bufferView":39,"componentType":5126,"count":655,"type":"VEC3"},{"bufferView":40,"componentType":5126,"count":655,"type":"VEC3"},{"bufferView":41,"componentType":5126,"count":655,"type":"VEC3"},{"bufferView":42,"componentType":5126,"count":655,"type":"VEC3"},{"bufferView":43,"componentType":5126,"count":655,"type":"SCALAR"},{"bufferView":44,"componentType":5125,"count":1332,"type":"SCALAR"},{"bufferView":45,"componentType":5125,"count":1080,"type":"SCALAR"},{"bufferView":46,"componentType":5126,"count":1326,"type":"VEC3","min":[-3.6411149501800537,0.011172999627888203,-2.5864460468292236],"max":[3.095597982406616,6.3706889152526855,2.3982579708099365]},{"bufferView":47,"componentType":5126,"count":1326,"type":"VEC3"},{"bufferView":48,"componentType":5126,"count":1326,"type":"VEC2"},{"bufferView":49,"componentType":5126,"count":1326,"type":"VEC3"},{"bufferView":50,"componentType":5126,"count":1326,"type":"VEC3"},{"bufferView":51,"componentType":5126,"count":1326,"type":"VEC3"},{"bufferView":52,"componentType":5126,"count":1326,"type":"VEC3"},{"bufferView":53,"componentType":5126,"count":1326,"type":"SCALAR"},{"bufferView":54,"componentType":5125,"count":2616,"type":"SCALAR"},{"bufferView":55,"componentType":5125,"count":2952,"type":"SCALAR"},{"bufferView":56,"componentType":5126,"count":482,"type":"VEC3","min":[-3.7659718990325928,-0.07409700006246567,-3.4778990745544434],"max":[3.116921901702881,8.022987365722656,3.8158159255981445]},{"bufferView":57,"componentType":5126,"count":482,"type":"VEC3"},{"bufferView":58,"componentType":5126,"count":482,"type":"VEC2"},{"bufferView":59,"componentType":5126,"count":482,"type":"VEC3"},{"bufferView":60,"componentType":5126,"count":482,"type":"VEC3"},{"bufferView":61,"componentType":5126,"count":482,"type":"VEC3"},{"bufferView":62,"componentType":5126,"count":482,"type":"VEC3"},{"bufferView":63,"componentType":5126,"count":482,"type":"SCALAR"},{"bufferView":64,"componentType":5125,"count":444,"type":"SCALAR"},{"bufferView":65,"componentType":5125,"count":1152,"type":"SCALAR"}],"meshes":[{"name":"945c10e33683e4b3baa7557ff260c79730a9992e0e5a23b5d9307a2c40355ae1","primitives":[{"attributes":{"POSITION":0,"NORMAL":1,"TEXCOORD_0":2,"COLOR_0":3,"_VELDREN_NORMAL":4,"_VELDREN_COLOR":5,"_VELDREN_FALLBACK":6,"_VELDREN_MATERIAL":7},"indices":8,"material":0,"extras":{"mixedAtlasFallback":false}}]},{"name":"41a0ea4834ebc597b74c322625d4b3fb4d4337c8b31ded8edc607916fcb69662","primitives":[{"attributes":{"POSITION":9,"NORMAL":10,"TEXCOORD_0":11,"COLOR_0":12,"_VELDREN_NORMAL":13,"_VELDREN_COLOR":14,"_VELDREN_FALLBACK":15,"_VELDREN_MATERIAL":16},"indices":17,"material":1,"extras":{"mixedAtlasFallback":false}}]},{"name":"d3a49cf40a43bca59e27ca2096fab65e613b5d5993f180ce0def51f1fdd95647","primitives":[{"attributes":{"POSITION":18,"NORMAL":19,"TEXCOORD_0":20,"COLOR_0":21,"_VELDREN_NORMAL":22,"_VELDREN_COLOR":23,"_VELDREN_FALLBACK":24,"_VELDREN_MATERIAL":25},"indices":26,"material":2,"extras":{"mixedAtlasFallback":false}}]},{"name":"c2f99fb65c8e764f8a2546544009dc024b5346effe67d789fc80594bcf5ea2c0","primitives":[{"attributes":{"POSITION":27,"NORMAL":28,"TEXCOORD_0":29,"COLOR_0":30,"_VELDREN_NORMAL":31,"_VELDREN_COLOR":32,"_VELDREN_FALLBACK":33,"_VELDREN_MATERIAL":34},"indices":35,"material":3,"extras":{"mixedAtlasFallback":false}}]},{"name":"8480a643e36c0194bf11e79cbc019e38e5ff72b8bc295b144212e5f7a5b37347","primitives":[{"attributes":{"POSITION":36,"NORMAL":37,"TEXCOORD_0":38,"COLOR_0":39,"_VELDREN_NORMAL":40,"_VELDREN_COLOR":41,"_VELDREN_FALLBACK":42,"_VELDREN_MATERIAL":43},"indices":44,"material":4,"extras":{"mixedAtlasFallback":false}},{"attributes":{"POSITION":36,"NORMAL":37,"TEXCOORD_0":38,"COLOR_0":39,"_VELDREN_NORMAL":40,"_VELDREN_COLOR":41,"_VELDREN_FALLBACK":42,"_VELDREN_MATERIAL":43},"indices":45,"material":5,"extras":{"mixedAtlasFallback":false}}]},{"name":"cf73d73e4a52b629e942c4cf3ba67a960257f3fda86af0eadf8051aa3c1f7c97","primitives":[{"attributes":{"POSITION":46,"NORMAL":47,"TEXCOORD_0":48,"COLOR_0":49,"_VELDREN_NORMAL":50,"_VELDREN_COLOR":51,"_VELDREN_FALLBACK":52,"_VELDREN_MATERIAL":53},"indices":54,"material":6,"extras":{"mixedAtlasFallback":false}},{"attributes":{"POSITION":46,"NORMAL":47,"TEXCOORD_0":48,"COLOR_0":49,"_VELDREN_NORMAL":50,"_VELDREN_COLOR":51,"_VELDREN_FALLBACK":52,"_VELDREN_MATERIAL":53},"indices":55,"material":7,"extras":{"mixedAtlasFallback":false}}]},{"name":"7e2e11a73c6c1f6b77c7c18c44a87655900818e94c168e7a92bb0a48cc87a1c1","primitives":[{"attributes":{"POSITION":56,"NORMAL":57,"TEXCOORD_0":58,"COLOR_0":59,"_VELDREN_NORMAL":60,"_VELDREN_COLOR":61,"_VELDREN_FALLBACK":62,"_VELDREN_MATERIAL":63},"indices":64,"material":8,"extras":{"mixedAtlasFallback":false}},{"attributes":{"POSITION":56,"NORMAL":57,"TEXCOORD_0":58,"COLOR_0":59,"_VELDREN_NORMAL":60,"_VELDREN_COLOR":61,"_VELDREN_FALLBACK":62,"_VELDREN_MATERIAL":63},"indices":65,"material":9,"extras":{"mixedAtlasFallback":false}}]}],"materials":[{"name":"legacy-material-33","pbrMetallicRoughness":{"baseColorFactor":[1,1,1,1],"metallicFactor":0,"roughnessFactor":1,"baseColorTexture":{"index":0}},"doubleSided":true,"extras":{"legacyMaterial":33,"legacyShader":"dist/renderer-gl.js"}},{"name":"legacy-material-12","pbrMetallicRoughness":{"baseColorFactor":[1,1,1,1],"metallicFactor":0,"roughnessFactor":1},"doubleSided":true,"extras":{"legacyMaterial":12,"legacyShader":"dist/renderer-gl.js","limitation":"Browser procedural material not implemented by this glTF export; source/base attributes retained."}},{"name":"legacy-material-33","pbrMetallicRoughness":{"baseColorFactor":[1,1,1,1],"metallicFactor":0,"roughnessFactor":1,"baseColorTexture":{"index":1}},"doubleSided":true,"extras":{"legacyMaterial":33,"legacyShader":"dist/renderer-gl.js"}},{"name":"legacy-material-12","pbrMetallicRoughness":{"baseColorFactor":[1,1,1,1],"metallicFactor":0,"roughnessFactor":1},"doubleSided":true,"extras":{"legacyMaterial":12,"legacyShader":"dist/renderer-gl.js","limitation":"Browser procedural material not implemented by this glTF export; source/base attributes retained."}},{"name":"legacy-material-49","pbrMetallicRoughness":{"baseColorFactor":[1,1,1,1],"metallicFactor":0,"roughnessFactor":1,"baseColorTexture":{"index":2}},"doubleSided":true,"extras":{"legacyMaterial":49,"legacyShader":"dist/renderer-gl.js"}},{"name":"legacy-material-50","pbrMetallicRoughness":{"baseColorFactor":[1,1,1,1],"metallicFactor":0,"roughnessFactor":1,"baseColorTexture":{"index":3}},"doubleSided":true,"extras":{"legacyMaterial":50,"legacyShader":"dist/renderer-gl.js"},"alphaMode":"MASK","alphaCutoff":0.45},{"name":"legacy-material-49","pbrMetallicRoughness":{"baseColorFactor":[1,1,1,1],"metallicFactor":0,"roughnessFactor":1,"baseColorTexture":{"index":4}},"doubleSided":true,"extras":{"legacyMaterial":49,"legacyShader":"dist/renderer-gl.js"}},{"name":"legacy-material-50","pbrMetallicRoughness":{"baseColorFactor":[1,1,1,1],"metallicFactor":0,"roughnessFactor":1,"baseColorTexture":{"index":5}},"doubleSided":true,"extras":{"legacyMaterial":50,"legacyShader":"dist/renderer-gl.js"},"alphaMode":"MASK","alphaCutoff":0.45},{"name":"legacy-material-49","pbrMetallicRoughness":{"baseColorFactor":[1,1,1,1],"metallicFactor":0,"roughnessFactor":1,"baseColorTexture":{"index":6}},"doubleSided":true,"extras":{"legacyMaterial":49,"legacyShader":"dist/renderer-gl.js"}},{"name":"legacy-material-54","pbrMetallicRoughness":{"baseColorFactor":[1,1,1,1],"metallicFactor":0,"roughnessFactor":1,"baseColorTexture":{"index":7}},"doubleSided":true,"extras":{"legacyMaterial":54,"legacyShader":"dist/renderer-gl.js"},"alphaMode":"MASK","alphaCutoff":0.45}],"images":[{"name":"atlas-13","uri":"../../textures/atlas/tile-13.png"},{"name":"atlas-13","uri":"../../textures/atlas/tile-13.png"},{"name":"atlas-29","uri":"../../textures/atlas/tile-29.png"},{"name":"atlas-30","uri":"../../textures/atlas/tile-30.png"},{"name":"atlas-29","uri":"../../textures/atlas/tile-29.png"},{"name":"atlas-30","uri":"../../textures/atlas/tile-30.png"},{"name":"atlas-29","uri":"../../textures/atlas/tile-29.png"},{"name":"atlas-34","uri":"../../textures/atlas/tile-34.png"}],"textures":[{"source":0,"sampler":0},{"source":1,"sampler":1},{"source":2,"sampler":2},{"source":3,"sampler":2},{"source":4,"sampler":3},{"source":5,"sampler":3},{"source":6,"sampler":4},{"source":7,"sampler":4}],"samplers":[{"magFilter":9729,"minFilter":9729,"wrapS":10497,"wrapT":10497},{"magFilter":9729,"minFilter":9729,"wrapS":10497,"wrapT":10497},{"magFilter":9729,"minFilter":9729,"wrapS":10497,"wrapT":10497},{"magFilter":9729,"minFilter":9729,"wrapS":10497,"wrapT":10497},{"magFilter":9729,"minFilter":9729,"wrapS":10497,"wrapT":10497}]}
