{"asset":{"version":"2.0","generator":"Veldren static world recovery"},"scene":0,"scenes":[{"nodes":[0,2,4,6,8,10,12,14,16,18,20,22,24,26,29,32,34,36,38,40,42]}],"extras":{"sourceScene":"quest_underiron","notVervesisScene":true,"gameplayIdentityExternal":true,"limitations":["Terrain stored separately.","Dynamic actors, fires, gates, crops, fish, effects and ground cover are not baked.","Roofs are closed; browser procedural materials require native support."]},"nodes":[{"name":"Ladder to the surface","children":[1],"extras":{"veldrenEntityKey":"quest_underiron:object:5800010"}},{"mesh":0,"matrix":[1.0,0.0,0.0,0.0,0.0,1.0,0.0,0.0,0.0,0.0,1.0,0.0,0.0,0.0,0.0,1.0]},{"name":"Ventilation wheel","children":[3],"extras":{"veldrenEntityKey":"quest_underiron:object:6100012"}},{"mesh":1,"matrix":[1.0,0.0,0.0,0.0,0.0,1.0,0.0,0.0,0.0,0.0,1.0,0.0,0.0,0.0,0.0,1.0]},{"name":"Masked agents\u2019 field orders","children":[5],"extras":{"veldrenEntityKey":"quest_underiron:object:6100019"}},{"mesh":2,"matrix":[0.8639803339195133,0.0,0.0,0.0,0.0,0.8639803339195133,0.0,0.0,0.0,0.0,0.8639803339195133,0.0,14.499934688624233,0.0021595414236872147,69.49993417365182,1.0]},{"name":"Survivors\u2019 bedroll","children":[7],"extras":{"veldrenEntityKey":"quest_underiron:object:6600046"}},{"mesh":3,"matrix":[1.0,0.0,0.0,0.0,0.0,1.0,0.0,0.0,0.0,0.0,1.0,0.0,0.0,0.0,0.0,1.0]},{"name":"Survivors\u2019 water barrel","children":[9],"extras":{"veldrenEntityKey":"quest_underiron:object:6600047"}},{"mesh":4,"matrix":[0.9131826779272897,0.0,0.0,0.0,0.0,0.9131826779272897,0.0,0.0,0.0,0.0,0.9131826779272897,0.0,15.500000054429929,-0.003138375283873653,29.499999986392517,1.0]},{"name":"Ward support frame","children":[11],"extras":{"veldrenEntityKey":"quest_underiron:object:6600048"}},{"mesh":5,"matrix":[1.0,0.0,0.0,0.0,0.0,1.0,0.0,0.0,0.0,0.0,1.0,0.0,0.0,0.0,0.0,1.0]},{"name":"Wardkeeper threshold","children":[13],"extras":{"veldrenEntityKey":"quest_underiron:object:6600049"}},{"mesh":6,"matrix":[1.0,0.0,0.0,0.0,0.0,1.0,0.0,0.0,0.0,0.0,1.0,0.0,0.0,0.0,0.0,1.0]},{"name":"Broken ward relief","children":[15],"extras":{"veldrenEntityKey":"quest_underiron:object:6600050"}},{"mesh":7,"matrix":[1.0,0.0,0.0,0.0,0.0,1.0,0.0,0.0,0.0,0.0,1.0,0.0,0.0,0.0,0.0,1.0]},{"name":"Fresh mining frame","children":[17],"extras":{"veldrenEntityKey":"quest_underiron:object:6600051"}},{"mesh":8,"matrix":[1.0,0.0,0.0,0.0,0.0,1.0,0.0,0.0,0.0,0.0,1.0,0.0,0.0,0.0,0.0,1.0]},{"name":"Intruders\u2019 supply tent","children":[19],"extras":{"veldrenEntityKey":"quest_underiron:object:6600052"}},{"mesh":9,"matrix":[1.0,0.0,0.0,0.0,0.0,1.0,0.0,0.0,0.0,0.0,1.0,0.0,0.0,0.0,0.0,1.0]},{"name":"Discarded field bedroll","children":[21],"extras":{"veldrenEntityKey":"quest_underiron:object:6600053"}},{"mesh":10,"matrix":[1.0,0.0,0.0,0.0,0.0,1.0,0.0,0.0,0.0,0.0,1.0,0.0,0.0,0.0,0.0,1.0]},{"name":"Barricade beside the supply route","children":[23],"extras":{"veldrenEntityKey":"quest_underiron:object:6600054"}},{"mesh":11,"matrix":[1.0,0.0,0.0,0.0,0.0,1.0,0.0,0.0,0.0,0.0,1.0,0.0,0.0,0.0,0.0,1.0]},{"name":"Stolen seal-token chest","children":[25],"extras":{"veldrenEntityKey":"quest_underiron:object:6600055"}},{"mesh":12,"matrix":[1.0,0.0,0.0,0.0,0.0,1.0,0.0,0.0,0.0,0.0,1.0,0.0,0.0,0.0,0.0,1.0]},{"name":"Abandoned excavation tools","children":[27,28],"extras":{"veldrenEntityKey":"quest_underiron:object:6600056"}},{"mesh":13,"matrix":[4.601546394749576e-17,0.0,-0.7514895556748855,0.0,0.0,0.7514895556748855,0.0,0.0,0.7514895556748855,0.0,4.601546394749576e-17,0.0,12.5,0.4311388113132429,75.49709332894568,1.0]},{"mesh":14,"matrix":[1.3661726624646224,0.0,0.0,0.0,0.0,1.3661726624646224,0.0,0.0,0.0,0.0,1.3661726624646224,0.0,12.948640257557571,-0.0009650076227388876,75.71053629898326,1.0]},{"name":"Damaged ward inscription","children":[30,31],"extras":{"veldrenEntityKey":"quest_underiron:object:6600057"}},{"mesh":15,"matrix":[0.983469646699017,0.0,0.0,0.0,0.0,0.983469646699017,0.0,0.0,0.0,0.0,0.983469646699017,0.0,20.5,-0.0012419903400975219,70.49375929511832,1.0]},{"mesh":16,"matrix":[1.0,0.0,0.0,0.0,0.0,1.0,0.0,0.0,0.0,0.0,1.0,0.0,0.0,0.0,0.0,1.0]},{"name":"Wardkeeper statue","children":[33],"extras":{"veldrenEntityKey":"quest_underiron:object:6600058"}},{"mesh":17,"matrix":[1.0,0.0,0.0,0.0,0.0,1.0,0.0,0.0,0.0,0.0,1.0,0.0,0.0,0.0,0.0,1.0]},{"name":"Agent barricade","children":[35],"extras":{"veldrenEntityKey":"quest_underiron:object:6600059"}},{"mesh":18,"matrix":[1.0,0.0,0.0,0.0,0.0,1.0,0.0,0.0,0.0,0.0,1.0,0.0,0.0,0.0,0.0,1.0]},{"name":"Recent mining struts","children":[37],"extras":{"veldrenEntityKey":"quest_underiron:object:6600060"}},{"mesh":19,"matrix":[1.0,0.0,0.0,0.0,0.0,1.0,0.0,0.0,0.0,0.0,1.0,0.0,0.0,0.0,0.0,1.0]},{"name":"Broken inner seal","children":[39],"extras":{"veldrenEntityKey":"quest_underiron:object:6600061"}},{"mesh":20,"matrix":[1.0,0.0,0.0,0.0,0.0,1.0,0.0,0.0,0.0,0.0,1.0,0.0,0.0,0.0,0.0,1.0]},{"name":"Evacuated family bedding","children":[41],"extras":{"veldrenEntityKey":"quest_underiron:object:6600062"}},{"mesh":21,"matrix":[1.0,0.0,0.0,0.0,0.0,1.0,0.0,0.0,0.0,0.0,1.0,0.0,0.0,0.0,0.0,1.0]},{"name":"Final seal anchor","children":[43],"extras":{"veldrenEntityKey":"quest_underiron:object:6600063"}},{"mesh":22,"matrix":[1.0,0.0,0.0,0.0,0.0,1.0,0.0,0.0,0.0,0.0,1.0,0.0,0.0,0.0,0.0,1.0]}],"buffers":[{"uri":"../world-parts/d10733fcb4cb9e6b925d6bda7418bcc89a63a33f30e84bb39a7e4ce82a68fcab.bin","byteLength":54384},{"uri":"../world-parts/9684c94f4d2bcb7d5542e18d8e1cac95c3bf85e273d846a05af733e7c30503c2.bin","byteLength":60192},{"uri":"../world-parts/8c606c767d7974315c7bb6356ec371eba10870d54f739fa0df01dc9a7e966490.bin","byteLength":157080},{"uri":"../world-parts/3974b27f2c707f47732da4e7f00d3c05c3050aec0dc72c676e69fb00913a4374.bin","byteLength":8448},{"uri":"../world-parts/cf4033cb853c44a487397970d48170db13d9e081d1dc04f79877a0a818a9063c.bin","byteLength":119508},{"uri":"../world-parts/2657cb539b77dc99f443c49270d4e1b5ca64ad9d2a9fdcd00bc16556db1b405e.bin","byteLength":15840},{"uri":"../world-parts/986cb9932d085116411a89bb303f625d7397189fdcf23efc5cc386d4f2d26464.bin","byteLength":12144},{"uri":"../world-parts/061d1c9ff3d5351eb7883f73074916814f7cbe29689e6542aff227574e7e9d88.bin","byteLength":25344},{"uri":"../world-parts/5d00fe1c318c064f8eadf12c0a4ea41af37ba51aff7421936323a8dd5d9256db.bin","byteLength":15840},{"uri":"../world-parts/36b975c85ddc816026f4d7396aa64a8dc013881b506208e38789e03a86fd7cdd.bin","byteLength":17688},{"uri":"../world-parts/05f87d058f1648476fb488e5f72315ab431e8916387759942a6115e107bcbe45.bin","byteLength":8448},{"uri":"../world-parts/a5ab9a1a11172dab0d60104b71b5148a84c78d979ff9881b6043840fa9182806.bin","byteLength":15840},{"uri":"../world-parts/e7c48dd5ffc84f1c8bceff10d4810265eeefa2fc7908eac023df9a729ca81db3.bin","byteLength":9504},{"uri":"../world-parts/07f83272cd508b9654a4521d48dbf3e5ae515f8eca44fc3f7ff72f08aa404d3e.bin","byteLength":64080},{"uri":"../world-parts/9e417f8a31493ebc5f04240e9e4919f67c7c6fd9d7d0105ec8349264d7ee9488.bin","byteLength":81768},{"uri":"../world-parts/f4b04e3619cf212187b96076e7e940da50275113f8897ecbcd59f59213422623.bin","byteLength":117840},{"uri":"../world-parts/0bd9eab461115f25959f680b713efb4e1d7b7affc5c8d825501660dfa9cd5497.bin","byteLength":6336},{"uri":"../world-parts/baff7db62527b0e7d128cd4467786ceb89d5c30309e52a5aa037c08c77b971ab.bin","byteLength":762432},{"uri":"../world-parts/5f9d181fc1e0fefe413a21ea3dc7dd51236f236fd86abe48a774e7c6a2d1c239.bin","byteLength":15840},{"uri":"../world-parts/ecda10dc4bd26299e3e9becc4c96f4f42553f164685b56e47bfed91aa06123fe.bin","byteLength":15840},{"uri":"../world-parts/ba7ce6883896f5c7a646854bc127c117fecb5af4a9b93b5ca747b8a06856c81f.bin","byteLength":25344},{"uri":"../world-parts/fc73c0bcf3d0a6d0f5d976e4478f328dc8617e8dd84d94206d6def879f8dcab1.bin","byteLength":8448},{"uri":"../world-parts/b87669fbefeb55a247d32a319b7654dbd3ef9f5656e1c92a2f0059b6b53b4776.bin","byteLength":25344}],"bufferViews":[{"buffer":0,"byteOffset":0,"byteLength":7416,"target":34962},{"buffer":0,"byteOffset":7416,"byteLength":7416,"target":34962},{"buffer":0,"byteOffset":14832,"byteLength":4944,"target":34962},{"buffer":0,"byteOffset":19776,"byteLength":7416,"target":34962},{"buffer":0,"byteOffset":27192,"byteLength":7416,"target":34962},{"buffer":0,"byteOffset":34608,"byteLength":7416,"target":34962},{"buffer":0,"byteOffset":42024,"byteLength":7416,"target":34962},{"buffer":0,"byteOffset":49440,"byteLength":2472,"target":34962},{"buffer":0,"byteOffset":51912,"byteLength":432,"target":34963},{"buffer":0,"byteOffset":52344,"byteLength":24,"target":34963},{"buffer":0,"byteOffset":52368,"byteLength":2016,"target":34963},{"buffer":1,"byteOffset":0,"byteLength":8208,"target":34962},{"buffer":1,"byteOffset":8208,"byteLength":8208,"target":34962},{"buffer":1,"byteOffset":16416,"byteLength":5472,"target":34962},{"buffer":1,"byteOffset":21888,"byteLength":8208,"target":34962},{"buffer":1,"byteOffset":30096,"byteLength":8208,"target":34962},{"buffer":1,"byteOffset":38304,"byteLength":8208,"target":34962},{"buffer":1,"byteOffset":46512,"byteLength":8208,"target":34962},{"buffer":1,"byteOffset":54720,"byteLength":2736,"target":34962},{"buffer":1,"byteOffset":57456,"byteLength":2736,"target":34963},{"buffer":2,"byteOffset":0,"byteLength":19824,"target":34962},{"buffer":2,"byteOffset":19824,"byteLength":19824,"target":34962},{"buffer":2,"byteOffset":39648,"byteLength":13216,"target":34962},{"buffer":2,"byteOffset":52864,"byteLength":19824,"target":34962},{"buffer":2,"byteOffset":72688,"byteLength":19824,"target":34962},{"buffer":2,"byteOffset":92512,"byteLength":19824,"target":34962},{"buffer":2,"byteOffset":112336,"byteLength":19824,"target":34962},{"buffer":2,"byteOffset":132160,"byteLength":6608,"target":34962},{"buffer":2,"byteOffset":138768,"byteLength":18312,"target":34963},{"buffer":3,"byteOffset":0,"byteLength":1152,"target":34962},{"buffer":3,"byteOffset":1152,"byteLength":1152,"target":34962},{"buffer":3,"byteOffset":2304,"byteLength":768,"target":34962},{"buffer":3,"byteOffset":3072,"byteLength":1152,"target":34962},{"buffer":3,"byteOffset":4224,"byteLength":1152,"target":34962},{"buffer":3,"byteOffset":5376,"byteLength":1152,"target":34962},{"buffer":3,"byteOffset":6528,"byteLength":1152,"target":34962},{"buffer":3,"byteOffset":7680,"byteLength":384,"target":34962},{"buffer":3,"byteOffset":8064,"byteLength":384,"target":34963},{"buffer":4,"byteOffset":0,"byteLength":15660,"target":34962},{"buffer":4,"byteOffset":15660,"byteLength":15660,"target":34962},{"buffer":4,"byteOffset":31320,"byteLength":10440,"target":34962},{"buffer":4,"byteOffset":41760,"byteLength":15660,"target":34962},{"buffer":4,"byteOffset":57420,"byteLength":15660,"target":34962},{"buffer":4,"byteOffset":73080,"byteLength":15660,"target":34962},{"buffer":4,"byteOffset":88740,"byteLength":15660,"target":34962},{"buffer":4,"byteOffset":104400,"byteLength":5220,"target":34962},{"buffer":4,"byteOffset":109620,"byteLength":4704,"target":34963},{"buffer":4,"byteOffset":114324,"byteLength":5184,"target":34963},{"buffer":5,"byteOffset":0,"byteLength":2160,"target":34962},{"buffer":5,"byteOffset":2160,"byteLength":2160,"target":34962},{"buffer":5,"byteOffset":4320,"byteLength":1440,"target":34962},{"buffer":5,"byteOffset":5760,"byteLength":2160,"target":34962},{"buffer":5,"byteOffset":7920,"byteLength":2160,"target":34962},{"buffer":5,"byteOffset":10080,"byteLength":2160,"target":34962},{"buffer":5,"byteOffset":12240,"byteLength":2160,"target":34962},{"buffer":5,"byteOffset":14400,"byteLength":720,"target":34962},{"buffer":5,"byteOffset":15120,"byteLength":720,"target":34963},{"buffer":6,"byteOffset":0,"byteLength":1656,"target":34962},{"buffer":6,"byteOffset":1656,"byteLength":1656,"target":34962},{"buffer":6,"byteOffset":3312,"byteLength":1104,"target":34962},{"buffer":6,"byteOffset":4416,"byteLength":1656,"target":34962},{"buffer":6,"byteOffset":6072,"byteLength":1656,"target":34962},{"buffer":6,"byteOffset":7728,"byteLength":1656,"target":34962},{"buffer":6,"byteOffset":9384,"byteLength":1656,"target":34962},{"buffer":6,"byteOffset":11040,"byteLength":552,"target":34962},{"buffer":6,"byteOffset":11592,"byteLength":552,"target":34963},{"buffer":7,"byteOffset":0,"byteLength":3456,"target":34962},{"buffer":7,"byteOffset":3456,"byteLength":3456,"target":34962},{"buffer":7,"byteOffset":6912,"byteLength":2304,"target":34962},{"buffer":7,"byteOffset":9216,"byteLength":3456,"target":34962},{"buffer":7,"byteOffset":12672,"byteLength":3456,"target":34962},{"buffer":7,"byteOffset":16128,"byteLength":3456,"target":34962},{"buffer":7,"byteOffset":19584,"byteLength":3456,"target":34962},{"buffer":7,"byteOffset":23040,"byteLength":1152,"target":34962},{"buffer":7,"byteOffset":24192,"byteLength":1152,"target":34963},{"buffer":8,"byteOffset":0,"byteLength":2160,"target":34962},{"buffer":8,"byteOffset":2160,"byteLength":2160,"target":34962},{"buffer":8,"byteOffset":4320,"byteLength":1440,"target":34962},{"buffer":8,"byteOffset":5760,"byteLength":2160,"target":34962},{"buffer":8,"byteOffset":7920,"byteLength":2160,"target":34962},{"buffer":8,"byteOffset":10080,"byteLength":2160,"target":34962},{"buffer":8,"byteOffset":12240,"byteLength":2160,"target":34962},{"buffer":8,"byteOffset":14400,"byteLength":720,"target":34962},{"buffer":8,"byteOffset":15120,"byteLength":720,"target":34963},{"buffer":9,"byteOffset":0,"byteLength":2412,"target":34962},{"buffer":9,"byteOffset":2412,"byteLength":2412,"target":34962},{"buffer":9,"byteOffset":4824,"byteLength":1608,"target":34962},{"buffer":9,"byteOffset":6432,"byteLength":2412,"target":34962},{"buffer":9,"byteOffset":8844,"byteLength":2412,"target":34962},{"buffer":9,"byteOffset":11256,"byteLength":2412,"target":34962},{"buffer":9,"byteOffset":13668,"byteLength":2412,"target":34962},{"buffer":9,"byteOffset":16080,"byteLength":804,"target":34962},{"buffer":9,"byteOffset":16884,"byteLength":84,"target":34963},{"buffer":9,"byteOffset":16968,"byteLength":720,"target":34963},{"buffer":10,"byteOffset":0,"byteLength":1152,"target":34962},{"buffer":10,"byteOffset":1152,"byteLength":1152,"target":34962},{"buffer":10,"byteOffset":2304,"byteLength":768,"target":34962},{"buffer":10,"byteOffset":3072,"byteLength":1152,"target":34962},{"buffer":10,"byteOffset":4224,"byteLength":1152,"target":34962},{"buffer":10,"byteOffset":5376,"byteLength":1152,"target":34962},{"buffer":10,"byteOffset":6528,"byteLength":1152,"target":34962},{"buffer":10,"byteOffset":7680,"byteLength":384,"target":34962},{"buffer":10,"byteOffset":8064,"byteLength":384,"target":34963},{"buffer":11,"byteOffset":0,"byteLength":2160,"target":34962},{"buffer":11,"byteOffset":2160,"byteLength":2160,"target":34962},{"buffer":11,"byteOffset":4320,"byteLength":1440,"target":34962},{"buffer":11,"byteOffset":5760,"byteLength":2160,"target":34962},{"buffer":11,"byteOffset":7920,"byteLength":2160,"target":34962},{"buffer":11,"byteOffset":10080,"byteLength":2160,"target":34962},{"buffer":11,"byteOffset":12240,"byteLength":2160,"target":34962},{"buffer":11,"byteOffset":14400,"byteLength":720,"target":34962},{"buffer":11,"byteOffset":15120,"byteLength":720,"target":34963},{"buffer":12,"byteOffset":0,"byteLength":1296,"target":34962},{"buffer":12,"byteOffset":1296,"byteLength":1296,"target":34962},{"buffer":12,"byteOffset":2592,"byteLength":864,"target":34962},{"buffer":12,"byteOffset":3456,"byteLength":1296,"target":34962},{"buffer":12,"byteOffset":4752,"byteLength":1296,"target":34962},{"buffer":12,"byteOffset":6048,"byteLength":1296,"target":34962},{"buffer":12,"byteOffset":7344,"byteLength":1296,"target":34962},{"buffer":12,"byteOffset":8640,"byteLength":432,"target":34962},{"buffer":12,"byteOffset":9072,"byteLength":432,"target":34963},{"buffer":13,"byteOffset":0,"byteLength":7824,"target":34962},{"buffer":13,"byteOffset":7824,"byteLength":7824,"target":34962},{"buffer":13,"byteOffset":15648,"byteLength":5216,"target":34962},{"buffer":13,"byteOffset":20864,"byteLength":7824,"target":34962},{"buffer":13,"byteOffset":28688,"byteLength":7824,"target":34962},{"buffer":13,"byteOffset":36512,"byteLength":7824,"target":34962},{"buffer":13,"byteOffset":44336,"byteLength":7824,"target":34962},{"buffer":13,"byteOffset":52160,"byteLength":2608,"target":34962},{"buffer":13,"byteOffset":54768,"byteLength":9312,"target":34963},{"buffer":14,"byteOffset":0,"byteLength":10008,"target":34962},{"buffer":14,"byteOffset":10008,"byteLength":10008,"target":34962},{"buffer":14,"byteOffset":20016,"byteLength":6672,"target":34962},{"buffer":14,"byteOffset":26688,"byteLength":10008,"target":34962},{"buffer":14,"byteOffset":36696,"byteLength":10008,"target":34962},{"buffer":14,"byteOffset":46704,"byteLength":10008,"target":34962},{"buffer":14,"byteOffset":56712,"byteLength":10008,"target":34962},{"buffer":14,"byteOffset":66720,"byteLength":3336,"target":34962},{"buffer":14,"byteOffset":70056,"byteLength":7728,"target":34963},{"buffer":14,"byteOffset":77784,"byteLength":3984,"target":34963},{"buffer":15,"byteOffset":0,"byteLength":15144,"target":34962},{"buffer":15,"byteOffset":15144,"byteLength":15144,"target":34962},{"buffer":15,"byteOffset":30288,"byteLength":10096,"target":34962},{"buffer":15,"byteOffset":40384,"byteLength":15144,"target":34962},{"buffer":15,"byteOffset":55528,"byteLength":15144,"target":34962},{"buffer":15,"byteOffset":70672,"byteLength":15144,"target":34962},{"buffer":15,"byteOffset":85816,"byteLength":15144,"target":34962},{"buffer":15,"byteOffset":100960,"byteLength":5048,"target":34962},{"buffer":15,"byteOffset":106008,"byteLength":11352,"target":34963},{"buffer":15,"byteOffset":117360,"byteLength":480,"target":34963},{"buffer":16,"byteOffset":0,"byteLength":864,"target":34962},{"buffer":16,"byteOffset":864,"byteLength":864,"target":34962},{"buffer":16,"byteOffset":1728,"byteLength":576,"target":34962},{"buffer":16,"byteOffset":2304,"byteLength":864,"target":34962},{"buffer":16,"byteOffset":3168,"byteLength":864,"target":34962},{"buffer":16,"byteOffset":4032,"byteLength":864,"target":34962},{"buffer":16,"byteOffset":4896,"byteLength":864,"target":34962},{"buffer":16,"byteOffset":5760,"byteLength":288,"target":34962},{"buffer":16,"byteOffset":6048,"byteLength":288,"target":34963},{"buffer":17,"byteOffset":0,"byteLength":103968,"target":34962},{"buffer":17,"byteOffset":103968,"byteLength":103968,"target":34962},{"buffer":17,"byteOffset":207936,"byteLength":69312,"target":34962},{"buffer":17,"byteOffset":277248,"byteLength":103968,"target":34962},{"buffer":17,"byteOffset":381216,"byteLength":103968,"target":34962},{"buffer":17,"byteOffset":485184,"byteLength":103968,"target":34962},{"buffer":17,"byteOffset":589152,"byteLength":103968,"target":34962},{"buffer":17,"byteOffset":693120,"byteLength":34656,"target":34962},{"buffer":17,"byteOffset":727776,"byteLength":34320,"target":34963},{"buffer":17,"byteOffset":762096,"byteLength":336,"target":34963},{"buffer":18,"byteOffset":0,"byteLength":2160,"target":34962},{"buffer":18,"byteOffset":2160,"byteLength":2160,"target":34962},{"buffer":18,"byteOffset":4320,"byteLength":1440,"target":34962},{"buffer":18,"byteOffset":5760,"byteLength":2160,"target":34962},{"buffer":18,"byteOffset":7920,"byteLength":2160,"target":34962},{"buffer":18,"byteOffset":10080,"byteLength":2160,"target":34962},{"buffer":18,"byteOffset":12240,"byteLength":2160,"target":34962},{"buffer":18,"byteOffset":14400,"byteLength":720,"target":34962},{"buffer":18,"byteOffset":15120,"byteLength":720,"target":34963},{"buffer":19,"byteOffset":0,"byteLength":2160,"target":34962},{"buffer":19,"byteOffset":2160,"byteLength":2160,"target":34962},{"buffer":19,"byteOffset":4320,"byteLength":1440,"target":34962},{"buffer":19,"byteOffset":5760,"byteLength":2160,"target":34962},{"buffer":19,"byteOffset":7920,"byteLength":2160,"target":34962},{"buffer":19,"byteOffset":10080,"byteLength":2160,"target":34962},{"buffer":19,"byteOffset":12240,"byteLength":2160,"target":34962},{"buffer":19,"byteOffset":14400,"byteLength":720,"target":34962},{"buffer":19,"byteOffset":15120,"byteLength":720,"target":34963},{"buffer":20,"byteOffset":0,"byteLength":3456,"target":34962},{"buffer":20,"byteOffset":3456,"byteLength":3456,"target":34962},{"buffer":20,"byteOffset":6912,"byteLength":2304,"target":34962},{"buffer":20,"byteOffset":9216,"byteLength":3456,"target":34962},{"buffer":20,"byteOffset":12672,"byteLength":3456,"target":34962},{"buffer":20,"byteOffset":16128,"byteLength":3456,"target":34962},{"buffer":20,"byteOffset":19584,"byteLength":3456,"target":34962},{"buffer":20,"byteOffset":23040,"byteLength":1152,"target":34962},{"buffer":20,"byteOffset":24192,"byteLength":1152,"target":34963},{"buffer":21,"byteOffset":0,"byteLength":1152,"target":34962},{"buffer":21,"byteOffset":1152,"byteLength":1152,"target":34962},{"buffer":21,"byteOffset":2304,"byteLength":768,"target":34962},{"buffer":21,"byteOffset":3072,"byteLength":1152,"target":34962},{"buffer":21,"byteOffset":4224,"byteLength":1152,"target":34962},{"buffer":21,"byteOffset":5376,"byteLength":1152,"target":34962},{"buffer":21,"byteOffset":6528,"byteLength":1152,"target":34962},{"buffer":21,"byteOffset":7680,"byteLength":384,"target":34962},{"buffer":21,"byteOffset":8064,"byteLength":384,"target":34963},{"buffer":22,"byteOffset":0,"byteLength":3456,"target":34962},{"buffer":22,"byteOffset":3456,"byteLength":3456,"target":34962},{"buffer":22,"byteOffset":6912,"byteLength":2304,"target":34962},{"buffer":22,"byteOffset":9216,"byteLength":3456,"target":34962},{"buffer":22,"byteOffset":12672,"byteLength":3456,"target":34962},{"buffer":22,"byteOffset":16128,"byteLength":3456,"target":34962},{"buffer":22,"byteOffset":19584,"byteLength":3456,"target":34962},{"buffer":22,"byteOffset":23040,"byteLength":1152,"target":34962},{"buffer":22,"byteOffset":24192,"byteLength":1152,"target":34963}],"accessors":[{"bufferView":0,"componentType":5126,"count":618,"type":"VEC3","min":[25.149999618530273,-0.021243557333946228,121.89836120605469],"max":[27.850000381469727,4.105000019073486,124.0250015258789]},{"bufferView":1,"componentType":5126,"count":618,"type":"VEC3"},{"bufferView":2,"componentType":5126,"count":618,"type":"VEC2"},{"bufferView":3,"componentType":5126,"count":618,"type":"VEC3"},{"bufferView":4,"componentType":5126,"count":618,"type":"VEC3"},{"bufferView":5,"componentType":5126,"count":618,"type":"VEC3"},{"bufferView":6,"componentType":5126,"count":618,"type":"VEC3"},{"bufferView":7,"componentType":5126,"count":618,"type":"SCALAR"},{"bufferView":8,"componentType":5125,"count":108,"type":"SCALAR"},{"bufferView":9,"componentType":5125,"count":6,"type":"SCALAR"},{"bufferView":10,"componentType":5125,"count":504,"type":"SCALAR"},{"bufferView":11,"componentType":5126,"count":684,"type":"VEC3","min":[30.905000686645508,0.0,27.25],"max":[32.095001220703125,1.6376432180404663,28.049999237060547]},{"bufferView":12,"componentType":5126,"count":684,"type":"VEC3"},{"bufferView":13,"componentType":5126,"count":684,"type":"VEC2"},{"bufferView":14,"componentType":5126,"count":684,"type":"VEC3"},{"bufferView":15,"componentType":5126,"count":684,"type":"VEC3"},{"bufferView":16,"componentType":5126,"count":684,"type":"VEC3"},{"bufferView":17,"componentType":5126,"count":684,"type":"VEC3"},{"bufferView":18,"componentType":5126,"count":684,"type":"SCALAR"},{"bufferView":19,"componentType":5125,"count":684,"type":"SCALAR"},{"bufferView":20,"componentType":5126,"count":1652,"type":"VEC3","min":[-0.2534816861152649,-0.00249952613376081,-0.2555173337459564],"max":[0.25363287329673767,1.444292664527893,0.2556697130203247]},{"bufferView":21,"componentType":5126,"count":1652,"type":"VEC3"},{"bufferView":22,"componentType":5126,"count":1652,"type":"VEC2"},{"bufferView":23,"componentType":5126,"count":1652,"type":"VEC3"},{"bufferView":24,"componentType":5126,"count":1652,"type":"VEC3"},{"bufferView":25,"componentType":5126,"count":1652,"type":"VEC3"},{"bufferView":26,"componentType":5126,"count":1652,"type":"VEC3"},{"bufferView":27,"componentType":5126,"count":1652,"type":"SCALAR"},{"bufferView":28,"componentType":5125,"count":4578,"type":"SCALAR"},{"bufferView":29,"componentType":5126,"count":96,"type":"VEC3","min":[10.175000190734863,0.009999999776482582,27.700000762939453],"max":[10.824999809265137,0.375,29.299999237060547]},{"bufferView":30,"componentType":5126,"count":96,"type":"VEC3"},{"bufferView":31,"componentType":5126,"count":96,"type":"VEC2"},{"bufferView":32,"componentType":5126,"count":96,"type":"VEC3"},{"bufferView":33,"componentType":5126,"count":96,"type":"VEC3"},{"bufferView":34,"componentType":5126,"count":96,"type":"VEC3"},{"bufferView":35,"componentType":5126,"count":96,"type":"VEC3"},{"bufferView":36,"componentType":5126,"count":96,"type":"SCALAR"},{"bufferView":37,"componentType":5125,"count":96,"type":"SCALAR"},{"bufferView":38,"componentType":5126,"count":1305,"type":"VEC3","min":[-0.34901556372642517,0.003436744213104248,-0.349015474319458],"max":[0.3490154445171356,0.9013950824737549,0.3490155041217804]},{"bufferView":39,"componentType":5126,"count":1305,"type":"VEC3"},{"bufferView":40,"componentType":5126,"count":1305,"type":"VEC2"},{"bufferView":41,"componentType":5126,"count":1305,"type":"VEC3"},{"bufferView":42,"componentType":5126,"count":1305,"type":"VEC3"},{"bufferView":43,"componentType":5126,"count":1305,"type":"VEC3"},{"bufferView":44,"componentType":5126,"count":1305,"type":"VEC3"},{"bufferView":45,"componentType":5126,"count":1305,"type":"SCALAR"},{"bufferView":46,"componentType":5125,"count":1176,"type":"SCALAR"},{"bufferView":47,"componentType":5125,"count":1296,"type":"SCALAR"},{"bufferView":48,"componentType":5126,"count":180,"type":"VEC3","min":[20.22930335998535,-0.0367826372385025,38.36000061035156],"max":[22.77069664001465,2.5212435722351074,38.87023162841797]},{"bufferView":49,"componentType":5126,"count":180,"type":"VEC3"},{"bufferView":50,"componentType":5126,"count":180,"type":"VEC2"},{"bufferView":51,"componentType":5126,"count":180,"type":"VEC3"},{"bufferView":52,"componentType":5126,"count":180,"type":"VEC3"},{"bufferView":53,"componentType":5126,"count":180,"type":"VEC3"},{"bufferView":54,"componentType":5126,"count":180,"type":"VEC3"},{"bufferView":55,"componentType":5126,"count":180,"type":"SCALAR"},{"bufferView":56,"componentType":5125,"count":180,"type":"SCALAR"},{"bufferView":57,"componentType":5126,"count":138,"type":"VEC3","min":[22.850000381469727,0.0,114.93708038330078],"max":[24.149999618530273,2.5,116.06291961669922]},{"bufferView":58,"componentType":5126,"count":138,"type":"VEC3"},{"bufferView":59,"componentType":5126,"count":138,"type":"VEC2"},{"bufferView":60,"componentType":5126,"count":138,"type":"VEC3"},{"bufferView":61,"componentType":5126,"count":138,"type":"VEC3"},{"bufferView":62,"componentType":5126,"count":138,"type":"VEC3"},{"bufferView":63,"componentType":5126,"count":138,"type":"VEC3"},{"bufferView":64,"componentType":5126,"count":138,"type":"SCALAR"},{"bufferView":65,"componentType":5125,"count":138,"type":"SCALAR"},{"bufferView":66,"componentType":5126,"count":288,"type":"VEC3","min":[29.709999084472656,0.0,113.36143493652344],"max":[31.290000915527344,1.100000023841858,113.69999694824219]},{"bufferView":67,"componentType":5126,"count":288,"type":"VEC3"},{"bufferView":68,"componentType":5126,"count":288,"type":"VEC2"},{"bufferView":69,"componentType":5126,"count":288,"type":"VEC3"},{"bufferView":70,"componentType":5126,"count":288,"type":"VEC3"},{"bufferView":71,"componentType":5126,"count":288,"type":"VEC3"},{"bufferView":72,"componentType":5126,"count":288,"type":"VEC3"},{"bufferView":73,"componentType":5126,"count":288,"type":"SCALAR"},{"bufferView":74,"componentType":5125,"count":288,"type":"SCALAR"},{"bufferView":75,"componentType":5126,"count":180,"type":"VEC3","min":[24.22930335998535,-0.0367826372385025,106.36000061035156],"max":[26.77069664001465,2.5212435722351074,106.87023162841797]},{"bufferView":76,"componentType":5126,"count":180,"type":"VEC3"},{"bufferView":77,"componentType":5126,"count":180,"type":"VEC2"},{"bufferView":78,"componentType":5126,"count":180,"type":"VEC3"},{"bufferView":79,"componentType":5126,"count":180,"type":"VEC3"},{"bufferView":80,"componentType":5126,"count":180,"type":"VEC3"},{"bufferView":81,"componentType":5126,"count":180,"type":"VEC3"},{"bufferView":82,"componentType":5126,"count":180,"type":"SCALAR"},{"bufferView":83,"componentType":5125,"count":180,"type":"SCALAR"},{"bufferView":84,"componentType":5126,"count":201,"type":"VEC3","min":[30.440000534057617,-0.05196152254939079,98.9000015258789],"max":[34.560001373291016,2.577942371368408,102.0999984741211]},{"bufferView":85,"componentType":5126,"count":201,"type":"VEC3"},{"bufferView":86,"componentType":5126,"count":201,"type":"VEC2"},{"bufferView":87,"componentType":5126,"count":201,"type":"VEC3"},{"bufferView":88,"componentType":5126,"count":201,"type":"VEC3"},{"bufferView":89,"componentType":5126,"count":201,"type":"VEC3"},{"bufferView":90,"componentType":5126,"count":201,"type":"VEC3"},{"bufferView":91,"componentType":5126,"count":201,"type":"SCALAR"},{"bufferView":92,"componentType":5125,"count":21,"type":"SCALAR"},{"bufferView":93,"componentType":5125,"count":180,"type":"SCALAR"},{"bufferView":94,"componentType":5126,"count":96,"type":"VEC3","min":[29.174999237060547,0.009999999776482582,100.69999694824219],"max":[29.825000762939453,0.375,102.30000305175781]},{"bufferView":95,"componentType":5126,"count":96,"type":"VEC3"},{"bufferView":96,"componentType":5126,"count":96,"type":"VEC2"},{"bufferView":97,"componentType":5126,"count":96,"type":"VEC3"},{"bufferView":98,"componentType":5126,"count":96,"type":"VEC3"},{"bufferView":99,"componentType":5126,"count":96,"type":"VEC3"},{"bufferView":100,"componentType":5126,"count":96,"type":"VEC3"},{"bufferView":101,"componentType":5126,"count":96,"type":"SCALAR"},{"bufferView":102,"componentType":5125,"count":96,"type":"SCALAR"},{"bufferView":103,"componentType":5126,"count":180,"type":"VEC3","min":[21.010000228881836,0.0,97.17500305175781],"max":[23.989999771118164,1.0,97.82499694824219]},{"bufferView":104,"componentType":5126,"count":180,"type":"VEC3"},{"bufferView":105,"componentType":5126,"count":180,"type":"VEC2"},{"bufferView":106,"componentType":5126,"count":180,"type":"VEC3"},{"bufferView":107,"componentType":5126,"count":180,"type":"VEC3"},{"bufferView":108,"componentType":5126,"count":180,"type":"VEC3"},{"bufferView":109,"componentType":5126,"count":180,"type":"VEC3"},{"bufferView":110,"componentType":5126,"count":180,"type":"SCALAR"},{"bufferView":111,"componentType":5125,"count":180,"type":"SCALAR"},{"bufferView":112,"componentType":5126,"count":108,"type":"VEC3","min":[13.9399995803833,0.029999999329447746,86.30000305175781],"max":[14.899999618530273,0.07000000029802322,87.0]},{"bufferView":113,"componentType":5126,"count":108,"type":"VEC3"},{"bufferView":114,"componentType":5126,"count":108,"type":"VEC2"},{"bufferView":115,"componentType":5126,"count":108,"type":"VEC3"},{"bufferView":116,"componentType":5126,"count":108,"type":"VEC3"},{"bufferView":117,"componentType":5126,"count":108,"type":"VEC3"},{"bufferView":118,"componentType":5126,"count":108,"type":"VEC3"},{"bufferView":119,"componentType":5126,"count":108,"type":"SCALAR"},{"bufferView":120,"componentType":5125,"count":108,"type":"SCALAR"},{"bufferView":121,"componentType":5126,"count":652,"type":"VEC3","min":[-0.4102936387062073,-0.49387088418006897,-0.06782905012369156],"max":[0.4025578796863556,0.7037505507469177,0.06782905012369156]},{"bufferView":122,"componentType":5126,"count":652,"type":"VEC3"},{"bufferView":123,"componentType":5126,"count":652,"type":"VEC2"},{"bufferView":124,"componentType":5126,"count":652,"type":"VEC3"},{"bufferView":125,"componentType":5126,"count":652,"type":"VEC3"},{"bufferView":126,"componentType":5126,"count":652,"type":"VEC3"},{"bufferView":127,"componentType":5126,"count":652,"type":"VEC3"},{"bufferView":128,"componentType":5126,"count":652,"type":"SCALAR"},{"bufferView":129,"componentType":5125,"count":2328,"type":"SCALAR"},{"bufferView":130,"componentType":5126,"count":834,"type":"VEC3","min":[-0.2159692943096161,0.0007063584635034204,-0.19943936169147491],"max":[0.21795988082885742,0.2934951186180115,0.18401481211185455]},{"bufferView":131,"componentType":5126,"count":834,"type":"VEC3"},{"bufferView":132,"componentType":5126,"count":834,"type":"VEC2"},{"bufferView":133,"componentType":5126,"count":834,"type":"VEC3"},{"bufferView":134,"componentType":5126,"count":834,"type":"VEC3"},{"bufferView":135,"componentType":5126,"count":834,"type":"VEC3"},{"bufferView":136,"componentType":5126,"count":834,"type":"VEC3"},{"bufferView":137,"componentType":5126,"count":834,"type":"SCALAR"},{"bufferView":138,"componentType":5125,"count":1932,"type":"SCALAR"},{"bufferView":139,"componentType":5125,"count":996,"type":"SCALAR"},{"bufferView":140,"componentType":5126,"count":1262,"type":"VEC3","min":[-1.4242464303970337,0.001262865960597992,-0.5419855713844299],"max":[1.4242464303970337,0.8147094249725342,0.5546767711639404]},{"bufferView":141,"componentType":5126,"count":1262,"type":"VEC3"},{"bufferView":142,"componentType":5126,"count":1262,"type":"VEC2"},{"bufferView":143,"componentType":5126,"count":1262,"type":"VEC3"},{"bufferView":144,"componentType":5126,"count":1262,"type":"VEC3"},{"bufferView":145,"componentType":5126,"count":1262,"type":"VEC3"},{"bufferView":146,"componentType":5126,"count":1262,"type":"VEC3"},{"bufferView":147,"componentType":5126,"count":1262,"type":"SCALAR"},{"bufferView":148,"componentType":5125,"count":2838,"type":"SCALAR"},{"bufferView":149,"componentType":5125,"count":120,"type":"SCALAR"},{"bufferView":150,"componentType":5126,"count":72,"type":"VEC3","min":[20.174999237060547,0.8050000071525574,70.28500366210938],"max":[20.825000762939453,0.8974999785423279,70.71499633789062]},{"bufferView":151,"componentType":5126,"count":72,"type":"VEC3"},{"bufferView":152,"componentType":5126,"count":72,"type":"VEC2"},{"bufferView":153,"componentType":5126,"count":72,"type":"VEC3"},{"bufferView":154,"componentType":5126,"count":72,"type":"VEC3"},{"bufferView":155,"componentType":5126,"count":72,"type":"VEC3"},{"bufferView":156,"componentType":5126,"count":72,"type":"VEC3"},{"bufferView":157,"componentType":5126,"count":72,"type":"SCALAR"},{"bufferView":158,"componentType":5125,"count":72,"type":"SCALAR"},{"bufferView":159,"componentType":5126,"count":8664,"type":"VEC3","min":[37.900001525878906,0.0,56.900001525878906],"max":[39.099998474121094,2.192631721496582,58.099998474121094]},{"bufferView":160,"componentType":5126,"count":8664,"type":"VEC3"},{"bufferView":161,"componentType":5126,"count":8664,"type":"VEC2"},{"bufferView":162,"componentType":5126,"count":8664,"type":"VEC3"},{"bufferView":163,"componentType":5126,"count":8664,"type":"VEC3"},{"bufferView":164,"componentType":5126,"count":8664,"type":"VEC3"},{"bufferView":165,"componentType":5126,"count":8664,"type":"VEC3"},{"bufferView":166,"componentType":5126,"count":8664,"type":"SCALAR"},{"bufferView":167,"componentType":5125,"count":8580,"type":"SCALAR"},{"bufferView":168,"componentType":5125,"count":84,"type":"SCALAR"},{"bufferView":169,"componentType":5126,"count":180,"type":"VEC3","min":[39.0099983215332,0.0,48.17499923706055],"max":[41.9900016784668,1.0,48.82500076293945]},{"bufferView":170,"componentType":5126,"count":180,"type":"VEC3"},{"bufferView":171,"componentType":5126,"count":180,"type":"VEC2"},{"bufferView":172,"componentType":5126,"count":180,"type":"VEC3"},{"bufferView":173,"componentType":5126,"count":180,"type":"VEC3"},{"bufferView":174,"componentType":5126,"count":180,"type":"VEC3"},{"bufferView":175,"componentType":5126,"count":180,"type":"VEC3"},{"bufferView":176,"componentType":5126,"count":180,"type":"SCALAR"},{"bufferView":177,"componentType":5125,"count":180,"type":"SCALAR"},{"bufferView":178,"componentType":5126,"count":180,"type":"VEC3","min":[32.229305267333984,-0.0367826372385025,42.36000061035156],"max":[34.770694732666016,2.5212435722351074,42.87023162841797]},{"bufferView":179,"componentType":5126,"count":180,"type":"VEC3"},{"bufferView":180,"componentType":5126,"count":180,"type":"VEC2"},{"bufferView":181,"componentType":5126,"count":180,"type":"VEC3"},{"bufferView":182,"componentType":5126,"count":180,"type":"VEC3"},{"bufferView":183,"componentType":5126,"count":180,"type":"VEC3"},{"bufferView":184,"componentType":5126,"count":180,"type":"VEC3"},{"bufferView":185,"componentType":5126,"count":180,"type":"SCALAR"},{"bufferView":186,"componentType":5125,"count":180,"type":"SCALAR"},{"bufferView":187,"componentType":5126,"count":288,"type":"VEC3","min":[17.709999084472656,0.0,35.36143493652344],"max":[19.290000915527344,1.100000023841858,35.70000076293945]},{"bufferView":188,"componentType":5126,"count":288,"type":"VEC3"},{"bufferView":189,"componentType":5126,"count":288,"type":"VEC2"},{"bufferView":190,"componentType":5126,"count":288,"type":"VEC3"},{"bufferView":191,"componentType":5126,"count":288,"type":"VEC3"},{"bufferView":192,"componentType":5126,"count":288,"type":"VEC3"},{"bufferView":193,"componentType":5126,"count":288,"type":"VEC3"},{"bufferView":194,"componentType":5126,"count":288,"type":"SCALAR"},{"bufferView":195,"componentType":5125,"count":288,"type":"SCALAR"},{"bufferView":196,"componentType":5126,"count":96,"type":"VEC3","min":[10.175000190734863,0.009999999776482582,30.700000762939453],"max":[10.824999809265137,0.375,32.29999923706055]},{"bufferView":197,"componentType":5126,"count":96,"type":"VEC3"},{"bufferView":198,"componentType":5126,"count":96,"type":"VEC2"},{"bufferView":199,"componentType":5126,"count":96,"type":"VEC3"},{"bufferView":200,"componentType":5126,"count":96,"type":"VEC3"},{"bufferView":201,"componentType":5126,"count":96,"type":"VEC3"},{"bufferView":202,"componentType":5126,"count":96,"type":"VEC3"},{"bufferView":203,"componentType":5126,"count":96,"type":"SCALAR"},{"bufferView":204,"componentType":5125,"count":96,"type":"SCALAR"},{"bufferView":205,"componentType":5126,"count":288,"type":"VEC3","min":[26.709999084472656,0.0,15.361435890197754],"max":[28.290000915527344,1.100000023841858,15.699999809265137]},{"bufferView":206,"componentType":5126,"count":288,"type":"VEC3"},{"bufferView":207,"componentType":5126,"count":288,"type":"VEC2"},{"bufferView":208,"componentType":5126,"count":288,"type":"VEC3"},{"bufferView":209,"componentType":5126,"count":288,"type":"VEC3"},{"bufferView":210,"componentType":5126,"count":288,"type":"VEC3"},{"bufferView":211,"componentType":5126,"count":288,"type":"VEC3"},{"bufferView":212,"componentType":5126,"count":288,"type":"SCALAR"},{"bufferView":213,"componentType":5125,"count":288,"type":"SCALAR"}],"meshes":[{"name":"d10733fcb4cb9e6b925d6bda7418bcc89a63a33f30e84bb39a7e4ce82a68fcab","primitives":[{"attributes":{"POSITION":0,"NORMAL":1,"TEXCOORD_0":2,"COLOR_0":3,"_VELDREN_NORMAL":4,"_VELDREN_COLOR":5,"_VELDREN_FALLBACK":6,"_VELDREN_MATERIAL":7},"indices":8,"material":0,"extras":{"mixedAtlasFallback":false}},{"attributes":{"POSITION":0,"NORMAL":1,"TEXCOORD_0":2,"COLOR_0":3,"_VELDREN_NORMAL":4,"_VELDREN_COLOR":5,"_VELDREN_FALLBACK":6,"_VELDREN_MATERIAL":7},"indices":9,"material":1,"extras":{"mixedAtlasFallback":false}},{"attributes":{"POSITION":0,"NORMAL":1,"TEXCOORD_0":2,"COLOR_0":3,"_VELDREN_NORMAL":4,"_VELDREN_COLOR":5,"_VELDREN_FALLBACK":6,"_VELDREN_MATERIAL":7},"indices":10,"material":2,"extras":{"mixedAtlasFallback":false}}]},{"name":"9684c94f4d2bcb7d5542e18d8e1cac95c3bf85e273d846a05af733e7c30503c2","primitives":[{"attributes":{"POSITION":11,"NORMAL":12,"TEXCOORD_0":13,"COLOR_0":14,"_VELDREN_NORMAL":15,"_VELDREN_COLOR":16,"_VELDREN_FALLBACK":17,"_VELDREN_MATERIAL":18},"indices":19,"material":3,"extras":{"mixedAtlasFallback":false}}]},{"name":"8c606c767d7974315c7bb6356ec371eba10870d54f739fa0df01dc9a7e966490","primitives":[{"attributes":{"POSITION":20,"NORMAL":21,"TEXCOORD_0":22,"COLOR_0":23,"_VELDREN_NORMAL":24,"_VELDREN_COLOR":25,"_VELDREN_FALLBACK":26,"_VELDREN_MATERIAL":27},"indices":28,"material":4,"extras":{"mixedAtlasFallback":false}}]},{"name":"3974b27f2c707f47732da4e7f00d3c05c3050aec0dc72c676e69fb00913a4374","primitives":[{"attributes":{"POSITION":29,"NORMAL":30,"TEXCOORD_0":31,"COLOR_0":32,"_VELDREN_NORMAL":33,"_VELDREN_COLOR":34,"_VELDREN_FALLBACK":35,"_VELDREN_MATERIAL":36},"indices":37,"material":5,"extras":{"mixedAtlasFallback":false}}]},{"name":"cf4033cb853c44a487397970d48170db13d9e081d1dc04f79877a0a818a9063c","primitives":[{"attributes":{"POSITION":38,"NORMAL":39,"TEXCOORD_0":40,"COLOR_0":41,"_VELDREN_NORMAL":42,"_VELDREN_COLOR":43,"_VELDREN_FALLBACK":44,"_VELDREN_MATERIAL":45},"indices":46,"material":6,"extras":{"mixedAtlasFallback":false}},{"attributes":{"POSITION":38,"NORMAL":39,"TEXCOORD_0":40,"COLOR_0":41,"_VELDREN_NORMAL":42,"_VELDREN_COLOR":43,"_VELDREN_FALLBACK":44,"_VELDREN_MATERIAL":45},"indices":47,"material":7,"extras":{"mixedAtlasFallback":false}}]},{"name":"2657cb539b77dc99f443c49270d4e1b5ca64ad9d2a9fdcd00bc16556db1b405e","primitives":[{"attributes":{"POSITION":48,"NORMAL":49,"TEXCOORD_0":50,"COLOR_0":51,"_VELDREN_NORMAL":52,"_VELDREN_COLOR":53,"_VELDREN_FALLBACK":54,"_VELDREN_MATERIAL":55},"indices":56,"material":8,"extras":{"mixedAtlasFallback":false}}]},{"name":"986cb9932d085116411a89bb303f625d7397189fdcf23efc5cc386d4f2d26464","primitives":[{"attributes":{"POSITION":57,"NORMAL":58,"TEXCOORD_0":59,"COLOR_0":60,"_VELDREN_NORMAL":61,"_VELDREN_COLOR":62,"_VELDREN_FALLBACK":63,"_VELDREN_MATERIAL":64},"indices":65,"material":9,"extras":{"mixedAtlasFallback":false}}]},{"name":"061d1c9ff3d5351eb7883f73074916814f7cbe29689e6542aff227574e7e9d88","primitives":[{"attributes":{"POSITION":66,"NORMAL":67,"TEXCOORD_0":68,"COLOR_0":69,"_VELDREN_NORMAL":70,"_VELDREN_COLOR":71,"_VELDREN_FALLBACK":72,"_VELDREN_MATERIAL":73},"indices":74,"material":10,"extras":{"mixedAtlasFallback":false}}]},{"name":"5d00fe1c318c064f8eadf12c0a4ea41af37ba51aff7421936323a8dd5d9256db","primitives":[{"attributes":{"POSITION":75,"NORMAL":76,"TEXCOORD_0":77,"COLOR_0":78,"_VELDREN_NORMAL":79,"_VELDREN_COLOR":80,"_VELDREN_FALLBACK":81,"_VELDREN_MATERIAL":82},"indices":83,"material":11,"extras":{"mixedAtlasFallback":false}}]},{"name":"36b975c85ddc816026f4d7396aa64a8dc013881b506208e38789e03a86fd7cdd","primitives":[{"attributes":{"POSITION":84,"NORMAL":85,"TEXCOORD_0":86,"COLOR_0":87,"_VELDREN_NORMAL":88,"_VELDREN_COLOR":89,"_VELDREN_FALLBACK":90,"_VELDREN_MATERIAL":91},"indices":92,"material":12,"extras":{"mixedAtlasFallback":false}},{"attributes":{"POSITION":84,"NORMAL":85,"TEXCOORD_0":86,"COLOR_0":87,"_VELDREN_NORMAL":88,"_VELDREN_COLOR":89,"_VELDREN_FALLBACK":90,"_VELDREN_MATERIAL":91},"indices":93,"material":13,"extras":{"mixedAtlasFallback":false}}]},{"name":"05f87d058f1648476fb488e5f72315ab431e8916387759942a6115e107bcbe45","primitives":[{"attributes":{"POSITION":94,"NORMAL":95,"TEXCOORD_0":96,"COLOR_0":97,"_VELDREN_NORMAL":98,"_VELDREN_COLOR":99,"_VELDREN_FALLBACK":100,"_VELDREN_MATERIAL":101},"indices":102,"material":14,"extras":{"mixedAtlasFallback":false}}]},{"name":"a5ab9a1a11172dab0d60104b71b5148a84c78d979ff9881b6043840fa9182806","primitives":[{"attributes":{"POSITION":103,"NORMAL":104,"TEXCOORD_0":105,"COLOR_0":106,"_VELDREN_NORMAL":107,"_VELDREN_COLOR":108,"_VELDREN_FALLBACK":109,"_VELDREN_MATERIAL":110},"indices":111,"material":15,"extras":{"mixedAtlasFallback":false}}]},{"name":"e7c48dd5ffc84f1c8bceff10d4810265eeefa2fc7908eac023df9a729ca81db3","primitives":[{"attributes":{"POSITION":112,"NORMAL":113,"TEXCOORD_0":114,"COLOR_0":115,"_VELDREN_NORMAL":116,"_VELDREN_COLOR":117,"_VELDREN_FALLBACK":118,"_VELDREN_MATERIAL":119},"indices":120,"material":16,"extras":{"mixedAtlasFallback":false}}]},{"name":"07f83272cd508b9654a4521d48dbf3e5ae515f8eca44fc3f7ff72f08aa404d3e","primitives":[{"attributes":{"POSITION":121,"NORMAL":122,"TEXCOORD_0":123,"COLOR_0":124,"_VELDREN_NORMAL":125,"_VELDREN_COLOR":126,"_VELDREN_FALLBACK":127,"_VELDREN_MATERIAL":128},"indices":129,"material":17,"extras":{"mixedAtlasFallback":false}}]},{"name":"9e417f8a31493ebc5f04240e9e4919f67c7c6fd9d7d0105ec8349264d7ee9488","primitives":[{"attributes":{"POSITION":130,"NORMAL":131,"TEXCOORD_0":132,"COLOR_0":133,"_VELDREN_NORMAL":134,"_VELDREN_COLOR":135,"_VELDREN_FALLBACK":136,"_VELDREN_MATERIAL":137},"indices":138,"material":18,"extras":{"mixedAtlasFallback":false}},{"attributes":{"POSITION":130,"NORMAL":131,"TEXCOORD_0":132,"COLOR_0":133,"_VELDREN_NORMAL":134,"_VELDREN_COLOR":135,"_VELDREN_FALLBACK":136,"_VELDREN_MATERIAL":137},"indices":139,"material":19,"extras":{"mixedAtlasFallback":false}}]},{"name":"f4b04e3619cf212187b96076e7e940da50275113f8897ecbcd59f59213422623","primitives":[{"attributes":{"POSITION":140,"NORMAL":141,"TEXCOORD_0":142,"COLOR_0":143,"_VELDREN_NORMAL":144,"_VELDREN_COLOR":145,"_VELDREN_FALLBACK":146,"_VELDREN_MATERIAL":147},"indices":148,"material":20,"extras":{"mixedAtlasFallback":false}},{"attributes":{"POSITION":140,"NORMAL":141,"TEXCOORD_0":142,"COLOR_0":143,"_VELDREN_NORMAL":144,"_VELDREN_COLOR":145,"_VELDREN_FALLBACK":146,"_VELDREN_MATERIAL":147},"indices":149,"material":21,"extras":{"mixedAtlasFallback":false}}]},{"name":"0bd9eab461115f25959f680b713efb4e1d7b7affc5c8d825501660dfa9cd5497","primitives":[{"attributes":{"POSITION":150,"NORMAL":151,"TEXCOORD_0":152,"COLOR_0":153,"_VELDREN_NORMAL":154,"_VELDREN_COLOR":155,"_VELDREN_FALLBACK":156,"_VELDREN_MATERIAL":157},"indices":158,"material":22,"extras":{"mixedAtlasFallback":false}}]},{"name":"baff7db62527b0e7d128cd4467786ceb89d5c30309e52a5aa037c08c77b971ab","primitives":[{"attributes":{"POSITION":159,"NORMAL":160,"TEXCOORD_0":161,"COLOR_0":162,"_VELDREN_NORMAL":163,"_VELDREN_COLOR":164,"_VELDREN_FALLBACK":165,"_VELDREN_MATERIAL":166},"indices":167,"material":23,"extras":{"mixedAtlasFallback":false}},{"attributes":{"POSITION":159,"NORMAL":160,"TEXCOORD_0":161,"COLOR_0":162,"_VELDREN_NORMAL":163,"_VELDREN_COLOR":164,"_VELDREN_FALLBACK":165,"_VELDREN_MATERIAL":166},"indices":168,"material":24,"extras":{"mixedAtlasFallback":false}}]},{"name":"5f9d181fc1e0fefe413a21ea3dc7dd51236f236fd86abe48a774e7c6a2d1c239","primitives":[{"attributes":{"POSITION":169,"NORMAL":170,"TEXCOORD_0":171,"COLOR_0":172,"_VELDREN_NORMAL":173,"_VELDREN_COLOR":174,"_VELDREN_FALLBACK":175,"_VELDREN_MATERIAL":176},"indices":177,"material":25,"extras":{"mixedAtlasFallback":false}}]},{"name":"ecda10dc4bd26299e3e9becc4c96f4f42553f164685b56e47bfed91aa06123fe","primitives":[{"attributes":{"POSITION":178,"NORMAL":179,"TEXCOORD_0":180,"COLOR_0":181,"_VELDREN_NORMAL":182,"_VELDREN_COLOR":183,"_VELDREN_FALLBACK":184,"_VELDREN_MATERIAL":185},"indices":186,"material":26,"extras":{"mixedAtlasFallback":false}}]},{"name":"ba7ce6883896f5c7a646854bc127c117fecb5af4a9b93b5ca747b8a06856c81f","primitives":[{"attributes":{"POSITION":187,"NORMAL":188,"TEXCOORD_0":189,"COLOR_0":190,"_VELDREN_NORMAL":191,"_VELDREN_COLOR":192,"_VELDREN_FALLBACK":193,"_VELDREN_MATERIAL":194},"indices":195,"material":27,"extras":{"mixedAtlasFallback":false}}]},{"name":"fc73c0bcf3d0a6d0f5d976e4478f328dc8617e8dd84d94206d6def879f8dcab1","primitives":[{"attributes":{"POSITION":196,"NORMAL":197,"TEXCOORD_0":198,"COLOR_0":199,"_VELDREN_NORMAL":200,"_VELDREN_COLOR":201,"_VELDREN_FALLBACK":202,"_VELDREN_MATERIAL":203},"indices":204,"material":28,"extras":{"mixedAtlasFallback":false}}]},{"name":"b87669fbefeb55a247d32a319b7654dbd3ef9f5656e1c92a2f0059b6b53b4776","primitives":[{"attributes":{"POSITION":205,"NORMAL":206,"TEXCOORD_0":207,"COLOR_0":208,"_VELDREN_NORMAL":209,"_VELDREN_COLOR":210,"_VELDREN_FALLBACK":211,"_VELDREN_MATERIAL":212},"indices":213,"material":29,"extras":{"mixedAtlasFallback":false}}]}],"materials":[{"name":"legacy-material-18","pbrMetallicRoughness":{"baseColorFactor":[1,1,1,1],"metallicFactor":0,"roughnessFactor":1},"doubleSided":true,"extras":{"legacyMaterial":18,"legacyShader":"dist/renderer-gl.js","limitation":"Browser procedural material not implemented by this glTF export; source/base attributes retained."}},{"name":"legacy-material-7","pbrMetallicRoughness":{"baseColorFactor":[1,1,1,1],"metallicFactor":0,"roughnessFactor":1},"doubleSided":true,"extras":{"legacyMaterial":7,"legacyShader":"dist/renderer-gl.js","limitation":"Browser procedural material not implemented by this glTF export; source/base attributes retained."}},{"name":"legacy-material-20","pbrMetallicRoughness":{"baseColorFactor":[1,1,1,1],"metallicFactor":0,"roughnessFactor":1,"baseColorTexture":{"index":0}},"doubleSided":true,"extras":{"legacyMaterial":20,"legacyShader":"dist/renderer-gl.js"}},{"name":"legacy-material-20","pbrMetallicRoughness":{"baseColorFactor":[1,1,1,1],"metallicFactor":0,"roughnessFactor":1,"baseColorTexture":{"index":1}},"doubleSided":true,"extras":{"legacyMaterial":20,"legacyShader":"dist/renderer-gl.js"}},{"name":"legacy-material-43","pbrMetallicRoughness":{"baseColorFactor":[1,1,1,1],"metallicFactor":0,"roughnessFactor":1,"baseColorTexture":{"index":2}},"doubleSided":true,"extras":{"legacyMaterial":43,"legacyShader":"dist/renderer-gl.js"}},{"name":"legacy-material-20","pbrMetallicRoughness":{"baseColorFactor":[1,1,1,1],"metallicFactor":0,"roughnessFactor":1,"baseColorTexture":{"index":3}},"doubleSided":true,"extras":{"legacyMaterial":20,"legacyShader":"dist/renderer-gl.js"}},{"name":"legacy-material-43","pbrMetallicRoughness":{"baseColorFactor":[1,1,1,1],"metallicFactor":0,"roughnessFactor":1,"baseColorTexture":{"index":4}},"doubleSided":true,"extras":{"legacyMaterial":43,"legacyShader":"dist/renderer-gl.js"}},{"name":"legacy-material-42","pbrMetallicRoughness":{"baseColorFactor":[1,1,1,1],"metallicFactor":0,"roughnessFactor":1,"baseColorTexture":{"index":5}},"doubleSided":true,"extras":{"legacyMaterial":42,"legacyShader":"dist/renderer-gl.js"}},{"name":"legacy-material-20","pbrMetallicRoughness":{"baseColorFactor":[1,1,1,1],"metallicFactor":0,"roughnessFactor":1,"baseColorTexture":{"index":6}},"doubleSided":true,"extras":{"legacyMaterial":20,"legacyShader":"dist/renderer-gl.js"}},{"name":"legacy-material-20","pbrMetallicRoughness":{"baseColorFactor":[1,1,1,1],"metallicFactor":0,"roughnessFactor":1,"baseColorTexture":{"index":7}},"doubleSided":true,"extras":{"legacyMaterial":20,"legacyShader":"dist/renderer-gl.js"}},{"name":"legacy-material-20","pbrMetallicRoughness":{"baseColorFactor":[1,1,1,1],"metallicFactor":0,"roughnessFactor":1,"baseColorTexture":{"index":8}},"doubleSided":true,"extras":{"legacyMaterial":20,"legacyShader":"dist/renderer-gl.js"}},{"name":"legacy-material-20","pbrMetallicRoughness":{"baseColorFactor":[1,1,1,1],"metallicFactor":0,"roughnessFactor":1,"baseColorTexture":{"index":9}},"doubleSided":true,"extras":{"legacyMaterial":20,"legacyShader":"dist/renderer-gl.js"}},{"name":"legacy-material-13","pbrMetallicRoughness":{"baseColorFactor":[1,1,1,1],"metallicFactor":0,"roughnessFactor":1},"doubleSided":true,"extras":{"legacyMaterial":13,"legacyShader":"dist/renderer-gl.js","limitation":"Browser procedural material not implemented by this glTF export; source/base attributes retained."}},{"name":"legacy-material-20","pbrMetallicRoughness":{"baseColorFactor":[1,1,1,1],"metallicFactor":0,"roughnessFactor":1,"baseColorTexture":{"index":10}},"doubleSided":true,"extras":{"legacyMaterial":20,"legacyShader":"dist/renderer-gl.js"}},{"name":"legacy-material-20","pbrMetallicRoughness":{"baseColorFactor":[1,1,1,1],"metallicFactor":0,"roughnessFactor":1,"baseColorTexture":{"index":11}},"doubleSided":true,"extras":{"legacyMaterial":20,"legacyShader":"dist/renderer-gl.js"}},{"name":"legacy-material-20","pbrMetallicRoughness":{"baseColorFactor":[1,1,1,1],"metallicFactor":0,"roughnessFactor":1,"baseColorTexture":{"index":12}},"doubleSided":true,"extras":{"legacyMaterial":20,"legacyShader":"dist/renderer-gl.js"}},{"name":"legacy-material-20","pbrMetallicRoughness":{"baseColorFactor":[1,1,1,1],"metallicFactor":0,"roughnessFactor":1,"baseColorTexture":{"index":13}},"doubleSided":true,"extras":{"legacyMaterial":20,"legacyShader":"dist/renderer-gl.js"}},{"name":"legacy-material-44","pbrMetallicRoughness":{"baseColorFactor":[1,1,1,1],"metallicFactor":0,"roughnessFactor":1,"baseColorTexture":{"index":14}},"doubleSided":true,"extras":{"legacyMaterial":44,"legacyShader":"dist/renderer-gl.js"}},{"name":"legacy-material-43","pbrMetallicRoughness":{"baseColorFactor":[1,1,1,1],"metallicFactor":0,"roughnessFactor":1,"baseColorTexture":{"index":15}},"doubleSided":true,"extras":{"legacyMaterial":43,"legacyShader":"dist/renderer-gl.js"}},{"name":"legacy-material-42","pbrMetallicRoughness":{"baseColorFactor":[1,1,1,1],"metallicFactor":0,"roughnessFactor":1,"baseColorTexture":{"index":16}},"doubleSided":true,"extras":{"legacyMaterial":42,"legacyShader":"dist/renderer-gl.js"}},{"name":"legacy-material-43","pbrMetallicRoughness":{"baseColorFactor":[1,1,1,1],"metallicFactor":0,"roughnessFactor":1,"baseColorTexture":{"index":17}},"doubleSided":true,"extras":{"legacyMaterial":43,"legacyShader":"dist/renderer-gl.js"}},{"name":"legacy-material-42","pbrMetallicRoughness":{"baseColorFactor":[1,1,1,1],"metallicFactor":0,"roughnessFactor":1,"baseColorTexture":{"index":18}},"doubleSided":true,"extras":{"legacyMaterial":42,"legacyShader":"dist/renderer-gl.js"}},{"name":"legacy-material-20","pbrMetallicRoughness":{"baseColorFactor":[1,1,1,1],"metallicFactor":0,"roughnessFactor":1,"baseColorTexture":{"index":19}},"doubleSided":true,"extras":{"legacyMaterial":20,"legacyShader":"dist/renderer-gl.js"}},{"name":"legacy-material-12","pbrMetallicRoughness":{"baseColorFactor":[1,1,1,1],"metallicFactor":0,"roughnessFactor":1},"doubleSided":true,"extras":{"legacyMaterial":12,"legacyShader":"dist/renderer-gl.js","limitation":"Browser procedural material not implemented by this glTF export; source/base attributes retained."}},{"name":"legacy-material-20","pbrMetallicRoughness":{"baseColorFactor":[1,1,1,1],"metallicFactor":0,"roughnessFactor":1,"baseColorTexture":{"index":20}},"doubleSided":true,"extras":{"legacyMaterial":20,"legacyShader":"dist/renderer-gl.js"}},{"name":"legacy-material-20","pbrMetallicRoughness":{"baseColorFactor":[1,1,1,1],"metallicFactor":0,"roughnessFactor":1,"baseColorTexture":{"index":21}},"doubleSided":true,"extras":{"legacyMaterial":20,"legacyShader":"dist/renderer-gl.js"}},{"name":"legacy-material-20","pbrMetallicRoughness":{"baseColorFactor":[1,1,1,1],"metallicFactor":0,"roughnessFactor":1,"baseColorTexture":{"index":22}},"doubleSided":true,"extras":{"legacyMaterial":20,"legacyShader":"dist/renderer-gl.js"}},{"name":"legacy-material-20","pbrMetallicRoughness":{"baseColorFactor":[1,1,1,1],"metallicFactor":0,"roughnessFactor":1,"baseColorTexture":{"index":23}},"doubleSided":true,"extras":{"legacyMaterial":20,"legacyShader":"dist/renderer-gl.js"}},{"name":"legacy-material-20","pbrMetallicRoughness":{"baseColorFactor":[1,1,1,1],"metallicFactor":0,"roughnessFactor":1,"baseColorTexture":{"index":24}},"doubleSided":true,"extras":{"legacyMaterial":20,"legacyShader":"dist/renderer-gl.js"}},{"name":"legacy-material-20","pbrMetallicRoughness":{"baseColorFactor":[1,1,1,1],"metallicFactor":0,"roughnessFactor":1,"baseColorTexture":{"index":25}},"doubleSided":true,"extras":{"legacyMaterial":20,"legacyShader":"dist/renderer-gl.js"}}],"images":[{"name":"atlas-00","uri":"../../textures/atlas/tile-00.png"},{"name":"atlas-00","uri":"../../textures/atlas/tile-00.png"},{"name":"atlas-23","uri":"../../textures/atlas/tile-23.png"},{"name":"atlas-00","uri":"../../textures/atlas/tile-00.png"},{"name":"atlas-23","uri":"../../textures/atlas/tile-23.png"},{"name":"atlas-22","uri":"../../textures/atlas/tile-22.png"},{"name":"atlas-00","uri":"../../textures/atlas/tile-00.png"},{"name":"atlas-00","uri":"../../textures/atlas/tile-00.png"},{"name":"atlas-00","uri":"../../textures/atlas/tile-00.png"},{"name":"atlas-00","uri":"../../textures/atlas/tile-00.png"},{"name":"atlas-00","uri":"../../textures/atlas/tile-00.png"},{"name":"atlas-00","uri":"../../textures/atlas/tile-00.png"},{"name":"atlas-00","uri":"../../textures/atlas/tile-00.png"},{"name":"atlas-00","uri":"../../textures/atlas/tile-00.png"},{"name":"atlas-24","uri":"../../textures/atlas/tile-24.png"},{"name":"atlas-23","uri":"../../textures/atlas/tile-23.png"},{"name":"atlas-22","uri":"../../textures/atlas/tile-22.png"},{"name":"atlas-23","uri":"../../textures/atlas/tile-23.png"},{"name":"atlas-22","uri":"../../textures/atlas/tile-22.png"},{"name":"atlas-00","uri":"../../textures/atlas/tile-00.png"},{"name":"atlas-00","uri":"../../textures/atlas/tile-00.png"},{"name":"atlas-00","uri":"../../textures/atlas/tile-00.png"},{"name":"atlas-00","uri":"../../textures/atlas/tile-00.png"},{"name":"atlas-00","uri":"../../textures/atlas/tile-00.png"},{"name":"atlas-00","uri":"../../textures/atlas/tile-00.png"},{"name":"atlas-00","uri":"../../textures/atlas/tile-00.png"}],"textures":[{"source":0,"sampler":0},{"source":1,"sampler":1},{"source":2,"sampler":2},{"source":3,"sampler":3},{"source":4,"sampler":4},{"source":5,"sampler":4},{"source":6,"sampler":5},{"source":7,"sampler":6},{"source":8,"sampler":7},{"source":9,"sampler":8},{"source":10,"sampler":9},{"source":11,"sampler":10},{"source":12,"sampler":11},{"source":13,"sampler":12},{"source":14,"sampler":13},{"source":15,"sampler":14},{"source":16,"sampler":14},{"source":17,"sampler":15},{"source":18,"sampler":15},{"source":19,"sampler":16},{"source":20,"sampler":17},{"source":21,"sampler":18},{"source":22,"sampler":19},{"source":23,"sampler":20},{"source":24,"sampler":21},{"source":25,"sampler":22}],"samplers":[{"magFilter":9729,"minFilter":9729,"wrapS":10497,"wrapT":10497},{"magFilter":9729,"minFilter":9729,"wrapS":10497,"wrapT":10497},{"magFilter":9729,"minFilter":9729,"wrapS":10497,"wrapT":10497},{"magFilter":9729,"minFilter":9729,"wrapS":10497,"wrapT":10497},{"magFilter":9729,"minFilter":9729,"wrapS":10497,"wrapT":10497},{"magFilter":9729,"minFilter":9729,"wrapS":10497,"wrapT":10497},{"magFilter":9729,"minFilter":9729,"wrapS":10497,"wrapT":10497},{"magFilter":9729,"minFilter":9729,"wrapS":10497,"wrapT":10497},{"magFilter":9729,"minFilter":9729,"wrapS":10497,"wrapT":10497},{"magFilter":9729,"minFilter":9729,"wrapS":10497,"wrapT":10497},{"magFilter":9729,"minFilter":9729,"wrapS":10497,"wrapT":10497},{"magFilter":9729,"minFilter":9729,"wrapS":10497,"wrapT":10497},{"magFilter":9729,"minFilter":9729,"wrapS":10497,"wrapT":10497},{"magFilter":9729,"minFilter":9729,"wrapS":10497,"wrapT":10497},{"magFilter":9729,"minFilter":9729,"wrapS":10497,"wrapT":10497},{"magFilter":9729,"minFilter":9729,"wrapS":10497,"wrapT":10497},{"magFilter":9729,"minFilter":9729,"wrapS":10497,"wrapT":10497},{"magFilter":9729,"minFilter":9729,"wrapS":10497,"wrapT":10497},{"magFilter":9729,"minFilter":9729,"wrapS":10497,"wrapT":10497},{"magFilter":9729,"minFilter":9729,"wrapS":10497,"wrapT":10497},{"magFilter":9729,"minFilter":9729,"wrapS":10497,"wrapT":10497},{"magFilter":9729,"minFilter":9729,"wrapS":10497,"wrapT":10497},{"magFilter":9729,"minFilter":9729,"wrapS":10497,"wrapT":10497}]}
