{"asset":{"version":"2.0","generator":"Veldren static world recovery"},"scene":0,"scenes":[{"nodes":[0,2,4]}],"extras":{"sourceScene":"realm_fernwatch_2","notVervesisScene":true,"gameplayIdentityExternal":true,"limitations":["Terrain stored separately.","Dynamic actors, fires, gates, crops, fish, effects and ground cover are not baked.","Roofs are closed; browser procedural materials require native support."]},"nodes":[{"name":"Exit to the road","children":[1],"extras":{"veldrenEntityKey":"realm_fernwatch_2:object:2382"}},{"mesh":0,"matrix":[1.0,0.0,0.0,0.0,0.0,1.0,0.0,0.0,0.0,0.0,1.0,0.0,0.0,0.0,0.0,1.0]},{"name":"Smithing anvil","children":[3],"extras":{"veldrenEntityKey":"realm_fernwatch_2:object:2383"}},{"mesh":1,"matrix":[0.894372438365878,0.0,0.0,0.0,0.0,0.894372438365878,0.0,0.0,0.0,0.0,0.894372438365878,0.0,5.452843811431085,-0.001280358973080662,7.442960355578448,1.0]},{"name":"Coal rock","children":[5],"extras":{"veldrenEntityKey":"realm_fernwatch_2:object:2385"}},{"mesh":2,"matrix":[1.0,0.0,0.0,0.0,0.0,1.0,0.0,0.0,0.0,0.0,1.0,0.0,3.5,0.0,3.5,1.0]}],"buffers":[{"uri":"../world-parts/b932791e2e642917e7b6c7fe9f891673e9680c5f2345e784416e4144e1ee92cd.bin","byteLength":3168},{"uri":"../world-parts/b7e1f3c480d365573cb99253e0b1e7ee9b26e4c36b6d7ffdde8a82f703c7bf8b.bin","byteLength":329280},{"uri":"../world-parts/8da028b270916694518619dcb4a941f2160cb1e33d2c23a2fe1d49204658ac43.bin","byteLength":15840}],"bufferViews":[{"buffer":0,"byteOffset":0,"byteLength":432,"target":34962},{"buffer":0,"byteOffset":432,"byteLength":432,"target":34962},{"buffer":0,"byteOffset":864,"byteLength":288,"target":34962},{"buffer":0,"byteOffset":1152,"byteLength":432,"target":34962},{"buffer":0,"byteOffset":1584,"byteLength":432,"target":34962},{"buffer":0,"byteOffset":2016,"byteLength":432,"target":34962},{"buffer":0,"byteOffset":2448,"byteLength":432,"target":34962},{"buffer":0,"byteOffset":2880,"byteLength":144,"target":34962},{"buffer":0,"byteOffset":3024,"byteLength":144,"target":34963},{"buffer":1,"byteOffset":0,"byteLength":40512,"target":34962},{"buffer":1,"byteOffset":40512,"byteLength":40512,"target":34962},{"buffer":1,"byteOffset":81024,"byteLength":27008,"target":34962},{"buffer":1,"byteOffset":108032,"byteLength":40512,"target":34962},{"buffer":1,"byteOffset":148544,"byteLength":40512,"target":34962},{"buffer":1,"byteOffset":189056,"byteLength":40512,"target":34962},{"buffer":1,"byteOffset":229568,"byteLength":40512,"target":34962},{"buffer":1,"byteOffset":270080,"byteLength":13504,"target":34962},{"buffer":1,"byteOffset":283584,"byteLength":1104,"target":34963},{"buffer":1,"byteOffset":284688,"byteLength":17352,"target":34963},{"buffer":1,"byteOffset":302040,"byteLength":27240,"target":34963},{"buffer":2,"byteOffset":0,"byteLength":2160,"target":34962},{"buffer":2,"byteOffset":2160,"byteLength":2160,"target":34962},{"buffer":2,"byteOffset":4320,"byteLength":1440,"target":34962},{"buffer":2,"byteOffset":5760,"byteLength":2160,"target":34962},{"buffer":2,"byteOffset":7920,"byteLength":2160,"target":34962},{"buffer":2,"byteOffset":10080,"byteLength":2160,"target":34962},{"buffer":2,"byteOffset":12240,"byteLength":2160,"target":34962},{"buffer":2,"byteOffset":14400,"byteLength":720,"target":34962},{"buffer":2,"byteOffset":15120,"byteLength":720,"target":34963}],"accessors":[{"bufferView":0,"componentType":5126,"count":36,"type":"VEC3","min":[8.100000381469727,0.0,12.225000381469727],"max":[8.899999618530273,0.05000000074505806,12.774999618530273]},{"bufferView":1,"componentType":5126,"count":36,"type":"VEC3"},{"bufferView":2,"componentType":5126,"count":36,"type":"VEC2"},{"bufferView":3,"componentType":5126,"count":36,"type":"VEC3"},{"bufferView":4,"componentType":5126,"count":36,"type":"VEC3"},{"bufferView":5,"componentType":5126,"count":36,"type":"VEC3"},{"bufferView":6,"componentType":5126,"count":36,"type":"VEC3"},{"bufferView":7,"componentType":5126,"count":36,"type":"SCALAR"},{"bufferView":8,"componentType":5125,"count":36,"type":"SCALAR"},{"bufferView":9,"componentType":5126,"count":3376,"type":"VEC3","min":[-0.41191795468330383,0.0014315724838525057,-0.3469201326370239],"max":[0.5173688530921936,1.0748099088668823,0.4744724631309509]},{"bufferView":10,"componentType":5126,"count":3376,"type":"VEC3"},{"bufferView":11,"componentType":5126,"count":3376,"type":"VEC2"},{"bufferView":12,"componentType":5126,"count":3376,"type":"VEC3"},{"bufferView":13,"componentType":5126,"count":3376,"type":"VEC3"},{"bufferView":14,"componentType":5126,"count":3376,"type":"VEC3"},{"bufferView":15,"componentType":5126,"count":3376,"type":"VEC3"},{"bufferView":16,"componentType":5126,"count":3376,"type":"SCALAR"},{"bufferView":17,"componentType":5125,"count":276,"type":"SCALAR"},{"bufferView":18,"componentType":5125,"count":4338,"type":"SCALAR"},{"bufferView":19,"componentType":5125,"count":6810,"type":"SCALAR"},{"bufferView":20,"componentType":5126,"count":180,"type":"VEC3","min":[-0.49000000953674316,0.014999999664723873,-0.4243524372577667],"max":[0.49000000953674316,0.4699999988079071,0.4243524372577667]},{"bufferView":21,"componentType":5126,"count":180,"type":"VEC3"},{"bufferView":22,"componentType":5126,"count":180,"type":"VEC2"},{"bufferView":23,"componentType":5126,"count":180,"type":"VEC3"},{"bufferView":24,"componentType":5126,"count":180,"type":"VEC3"},{"bufferView":25,"componentType":5126,"count":180,"type":"VEC3"},{"bufferView":26,"componentType":5126,"count":180,"type":"VEC3"},{"bufferView":27,"componentType":5126,"count":180,"type":"SCALAR"},{"bufferView":28,"componentType":5125,"count":180,"type":"SCALAR"}],"meshes":[{"name":"b932791e2e642917e7b6c7fe9f891673e9680c5f2345e784416e4144e1ee92cd","primitives":[{"attributes":{"POSITION":0,"NORMAL":1,"TEXCOORD_0":2,"COLOR_0":3,"_VELDREN_NORMAL":4,"_VELDREN_COLOR":5,"_VELDREN_FALLBACK":6,"_VELDREN_MATERIAL":7},"indices":8,"material":0,"extras":{"mixedAtlasFallback":false}}]},{"name":"b7e1f3c480d365573cb99253e0b1e7ee9b26e4c36b6d7ffdde8a82f703c7bf8b","primitives":[{"attributes":{"POSITION":9,"NORMAL":10,"TEXCOORD_0":11,"COLOR_0":12,"_VELDREN_NORMAL":13,"_VELDREN_COLOR":14,"_VELDREN_FALLBACK":15,"_VELDREN_MATERIAL":16},"indices":17,"material":1,"extras":{"mixedAtlasFallback":false}},{"attributes":{"POSITION":9,"NORMAL":10,"TEXCOORD_0":11,"COLOR_0":12,"_VELDREN_NORMAL":13,"_VELDREN_COLOR":14,"_VELDREN_FALLBACK":15,"_VELDREN_MATERIAL":16},"indices":18,"material":2,"extras":{"mixedAtlasFallback":false}},{"attributes":{"POSITION":9,"NORMAL":10,"TEXCOORD_0":11,"COLOR_0":12,"_VELDREN_NORMAL":13,"_VELDREN_COLOR":14,"_VELDREN_FALLBACK":15,"_VELDREN_MATERIAL":16},"indices":19,"material":3,"extras":{"mixedAtlasFallback":false}}]},{"name":"8da028b270916694518619dcb4a941f2160cb1e33d2c23a2fe1d49204658ac43","primitives":[{"attributes":{"POSITION":20,"NORMAL":21,"TEXCOORD_0":22,"COLOR_0":23,"_VELDREN_NORMAL":24,"_VELDREN_COLOR":25,"_VELDREN_FALLBACK":26,"_VELDREN_MATERIAL":27},"indices":28,"material":4,"extras":{"mixedAtlasFallback":false}}]}],"materials":[{"name":"legacy-material-20","pbrMetallicRoughness":{"baseColorFactor":[1,1,1,1],"metallicFactor":0,"roughnessFactor":1,"baseColorTexture":{"index":0}},"doubleSided":true,"extras":{"legacyMaterial":20,"legacyShader":"dist/renderer-gl.js"}},{"name":"legacy-material-43","pbrMetallicRoughness":{"baseColorFactor":[1,1,1,1],"metallicFactor":0,"roughnessFactor":1,"baseColorTexture":{"index":1}},"doubleSided":true,"extras":{"legacyMaterial":43,"legacyShader":"dist/renderer-gl.js"}},{"name":"legacy-material-42","pbrMetallicRoughness":{"baseColorFactor":[1,1,1,1],"metallicFactor":0,"roughnessFactor":1,"baseColorTexture":{"index":2}},"doubleSided":true,"extras":{"legacyMaterial":42,"legacyShader":"dist/renderer-gl.js"}},{"name":"legacy-material-44","pbrMetallicRoughness":{"baseColorFactor":[1,1,1,1],"metallicFactor":0,"roughnessFactor":1,"baseColorTexture":{"index":3}},"doubleSided":true,"extras":{"legacyMaterial":44,"legacyShader":"dist/renderer-gl.js"}},{"name":"legacy-material-12","pbrMetallicRoughness":{"baseColorFactor":[1,1,1,1],"metallicFactor":0,"roughnessFactor":1},"doubleSided":true,"extras":{"legacyMaterial":12,"legacyShader":"dist/renderer-gl.js","limitation":"Browser procedural material not implemented by this glTF export; source/base attributes retained."}}],"images":[{"name":"atlas-00","uri":"../../textures/atlas/tile-00.png"},{"name":"atlas-23","uri":"../../textures/atlas/tile-23.png"},{"name":"atlas-22","uri":"../../textures/atlas/tile-22.png"},{"name":"atlas-24","uri":"../../textures/atlas/tile-24.png"}],"textures":[{"source":0,"sampler":0},{"source":1,"sampler":1},{"source":2,"sampler":1},{"source":3,"sampler":1}],"samplers":[{"magFilter":9729,"minFilter":9729,"wrapS":10497,"wrapT":10497},{"magFilter":9729,"minFilter":9729,"wrapS":10497,"wrapT":10497}]}
