{"asset":{"version":"2.0","generator":"Veldren static world recovery"},"scene":0,"scenes":[{"nodes":[0,2,7,9,11,13,15,17,22,24,26,28,30,35,37,39,41,43,45,47,49,51,53,55,60]}],"extras":{"sourceScene":"realm_crownreach_25_lower","notVervesisScene":true,"gameplayIdentityExternal":true,"limitations":["Terrain stored separately.","Dynamic actors, fires, gates, crops, fish, effects and ground cover are not baked.","Roofs are closed; browser procedural materials require native support."]},"nodes":[{"name":"Weapon rack","children":[1],"extras":{"veldrenEntityKey":"realm_crownreach_25_lower:object:7400268"}},{"mesh":0,"matrix":[1.1718860155454773,0.0,0.0,0.0,0.0,1.1718860155454773,0.0,0.0,0.0,0.0,1.1718860155454773,0.0,3.5,0.003957553055671179,2.713665143849623,1.0]},{"name":"Guard duty table","children":[3,4,5,6],"extras":{"veldrenEntityKey":"realm_crownreach_25_lower:object:7400269"}},{"mesh":1,"matrix":[0.9588829055315417,0.0,0.0,0.0,0.0,0.9588829055315417,0.0,0.0,0.0,0.0,0.9588829055315417,0.0,5.5,-0.001210940581595084,6.493915312740371,1.0]},{"mesh":2,"matrix":[0.8903870142199419,0.0,0.0,0.0,0.0,0.8903870142199419,0.0,0.0,0.0,0.0,0.8903870142199419,0.0,5.159900358818818,0.7806725885457619,6.499999980098299,1.0]},{"mesh":3,"matrix":[0.9245011738728264,0.0,0.0,0.0,0.0,0.9245011738728264,0.0,0.0,0.0,0.0,0.9245011738728264,0.0,5.776267638674035,0.7842922688491613,6.381239005458748,1.0]},{"mesh":4,"matrix":[1.8683322315556792,0.0,0.0,0.0,0.0,1.8683322315556792,0.0,0.0,0.0,0.0,1.8683322315556792,0.0,5.585621678404976,0.7772700904769891,6.5,1.0]},{"name":"Secure treasury chest","children":[8],"extras":{"veldrenEntityKey":"realm_crownreach_25_lower:object:7400270"}},{"mesh":5,"matrix":[1.0486178136353188,0.0,0.0,0.0,0.0,1.0486178136353188,0.0,0.0,0.0,0.0,1.0486178136353188,0.0,17.500443267675298,0.023800355289167158,2.545,1.0]},{"name":"Secure treasury chest","children":[10],"extras":{"veldrenEntityKey":"realm_crownreach_25_lower:object:7400271"}},{"mesh":5,"matrix":[1.0486178136353188,0.0,0.0,0.0,0.0,1.0486178136353188,0.0,0.0,0.0,0.0,1.0486178136353188,0.0,20.500443267675298,0.023800355289167158,2.545,1.0]},{"name":"Secure treasury chest","children":[12],"extras":{"veldrenEntityKey":"realm_crownreach_25_lower:object:7400272"}},{"mesh":5,"matrix":[1.0486178136353188,0.0,0.0,0.0,0.0,1.0486178136353188,0.0,0.0,0.0,0.0,1.0486178136353188,0.0,23.500443267675298,0.023800355289167158,2.545,1.0]},{"name":"Secure treasury chest","children":[14],"extras":{"veldrenEntityKey":"realm_crownreach_25_lower:object:7400273"}},{"mesh":5,"matrix":[1.0486178136353188,0.0,0.0,0.0,0.0,1.0486178136353188,0.0,0.0,0.0,0.0,1.0486178136353188,0.0,26.500443267675298,0.023800355289167158,2.545,1.0]},{"name":"Secure treasury chest","children":[16],"extras":{"veldrenEntityKey":"realm_crownreach_25_lower:object:7400274"}},{"mesh":5,"matrix":[1.0486178136353188,0.0,0.0,0.0,0.0,1.0486178136353188,0.0,0.0,0.0,0.0,1.0486178136353188,0.0,29.500443267675298,0.023800355289167158,2.545,1.0]},{"name":"Service table","children":[18,19,20,21],"extras":{"veldrenEntityKey":"realm_crownreach_25_lower:object:7400275"}},{"mesh":1,"matrix":[0.9588829055315417,0.0,0.0,0.0,0.0,0.9588829055315417,0.0,0.0,0.0,0.0,0.9588829055315417,0.0,21.5,-0.001210940581595084,6.493915312740371,1.0]},{"mesh":2,"matrix":[0.8903870142199419,0.0,0.0,0.0,0.0,0.8903870142199419,0.0,0.0,0.0,0.0,0.8903870142199419,0.0,21.159900358818817,0.7806725885457619,6.499999980098299,1.0]},{"mesh":3,"matrix":[0.9245011738728264,0.0,0.0,0.0,0.0,0.9245011738728264,0.0,0.0,0.0,0.0,0.9245011738728264,0.0,21.776267638674035,0.7842922688491613,6.381239005458748,1.0]},{"mesh":4,"matrix":[1.8683322315556792,0.0,0.0,0.0,0.0,1.8683322315556792,0.0,0.0,0.0,0.0,1.8683322315556792,0.0,21.585621678404976,0.7772700904769891,6.5,1.0]},{"name":"Barrel","children":[23],"extras":{"veldrenEntityKey":"realm_crownreach_25_lower:object:7400276"}},{"mesh":6,"matrix":[0.9131826779272897,0.0,0.0,0.0,0.0,0.9131826779272897,0.0,0.0,0.0,0.0,0.9131826779272897,0.0,35.50000005442993,-0.003138375283873653,2.444999986392518,1.0]},{"name":"Barrel","children":[25],"extras":{"veldrenEntityKey":"realm_crownreach_25_lower:object:7400277"}},{"mesh":6,"matrix":[0.9131826779272897,0.0,0.0,0.0,0.0,0.9131826779272897,0.0,0.0,0.0,0.0,0.9131826779272897,0.0,38.50000005442993,-0.003138375283873653,2.444999986392518,1.0]},{"name":"Barrel","children":[27],"extras":{"veldrenEntityKey":"realm_crownreach_25_lower:object:7400278"}},{"mesh":6,"matrix":[0.9131826779272897,0.0,0.0,0.0,0.0,0.9131826779272897,0.0,0.0,0.0,0.0,0.9131826779272897,0.0,41.50000005442993,-0.003138375283873653,2.444999986392518,1.0]},{"name":"Barrel","children":[29],"extras":{"veldrenEntityKey":"realm_crownreach_25_lower:object:7400279"}},{"mesh":6,"matrix":[0.9131826779272897,0.0,0.0,0.0,0.0,0.9131826779272897,0.0,0.0,0.0,0.0,0.9131826779272897,0.0,44.50000005442993,-0.003138375283873653,2.444999986392518,1.0]},{"name":"Service table","children":[31,32,33,34],"extras":{"veldrenEntityKey":"realm_crownreach_25_lower:object:7400280"}},{"mesh":1,"matrix":[0.9588829055315417,0.0,0.0,0.0,0.0,0.9588829055315417,0.0,0.0,0.0,0.0,0.9588829055315417,0.0,37.5,-0.001210940581595084,6.493915312740371,1.0]},{"mesh":2,"matrix":[0.8903870142199419,0.0,0.0,0.0,0.0,0.8903870142199419,0.0,0.0,0.0,0.0,0.8903870142199419,0.0,37.15990035881882,0.7806725885457619,6.499999980098299,1.0]},{"mesh":3,"matrix":[0.9245011738728264,0.0,0.0,0.0,0.0,0.9245011738728264,0.0,0.0,0.0,0.0,0.9245011738728264,0.0,37.776267638674035,0.7842922688491613,6.381239005458748,1.0]},{"mesh":4,"matrix":[1.8683322315556792,0.0,0.0,0.0,0.0,1.8683322315556792,0.0,0.0,0.0,0.0,1.8683322315556792,0.0,37.585621678404976,0.7772700904769891,6.5,1.0]},{"name":"Bed","children":[36],"extras":{"veldrenEntityKey":"realm_crownreach_25_lower:object:7400281"}},{"mesh":7,"matrix":[1.0185025013877824,0.0,0.0,0.0,0.0,1.0185025013877824,0.0,0.0,0.0,0.0,1.0185025013877824,0.0,3.5,-0.0004617108858158083,17.43,1.0]},{"name":"Barrel","children":[38],"extras":{"veldrenEntityKey":"realm_crownreach_25_lower:object:7400282"}},{"mesh":6,"matrix":[0.9131826779272897,0.0,0.0,0.0,0.0,0.9131826779272897,0.0,0.0,0.0,0.0,0.9131826779272897,0.0,9.500000054429929,-0.003138375283873653,16.444999986392517,1.0]},{"name":"Cell bars","children":[40],"extras":{"veldrenEntityKey":"realm_crownreach_25_lower:object:7400283"}},{"mesh":8,"matrix":[1.0,0.0,0.0,0.0,0.0,1.0,0.0,0.0,0.0,0.0,1.0,0.0,0.0,0.0,0.0,1.0]},{"name":"Bed","children":[42],"extras":{"veldrenEntityKey":"realm_crownreach_25_lower:object:7400284"}},{"mesh":9,"matrix":[1.0795054353721547,0.0,0.0,0.0,0.0,1.0795054353721547,0.0,0.0,0.0,0.0,1.0795054353721547,0.0,13.5,-0.0004893649354120636,17.43,1.0]},{"name":"Barrel","children":[44],"extras":{"veldrenEntityKey":"realm_crownreach_25_lower:object:7400285"}},{"mesh":6,"matrix":[0.9131826779272897,0.0,0.0,0.0,0.0,0.9131826779272897,0.0,0.0,0.0,0.0,0.9131826779272897,0.0,19.50000005442993,-0.003138375283873653,16.444999986392517,1.0]},{"name":"Cell bars","children":[46],"extras":{"veldrenEntityKey":"realm_crownreach_25_lower:object:7400286"}},{"mesh":10,"matrix":[1.0,0.0,0.0,0.0,0.0,1.0,0.0,0.0,0.0,0.0,1.0,0.0,0.0,0.0,0.0,1.0]},{"name":"Ancestor memorial","children":[48],"extras":{"veldrenEntityKey":"realm_crownreach_25_lower:object:7400287"}},{"mesh":11,"matrix":[1.0,0.0,0.0,0.0,0.0,1.0,0.0,0.0,0.0,0.0,1.0,0.0,0.0,0.0,0.0,1.0]},{"name":"Barrel","children":[50],"extras":{"veldrenEntityKey":"realm_crownreach_25_lower:object:7400289"}},{"mesh":6,"matrix":[0.9131826779272897,0.0,0.0,0.0,0.0,0.9131826779272897,0.0,0.0,0.0,0.0,0.9131826779272897,0.0,38.50000005442993,-0.003138375283873653,16.444999986392517,1.0]},{"name":"Barrel","children":[52],"extras":{"veldrenEntityKey":"realm_crownreach_25_lower:object:7400290"}},{"mesh":6,"matrix":[0.9131826779272897,0.0,0.0,0.0,0.0,0.9131826779272897,0.0,0.0,0.0,0.0,0.9131826779272897,0.0,39.50000005442993,-0.003138375283873653,16.444999986392517,1.0]},{"name":"Barrel","children":[54],"extras":{"veldrenEntityKey":"realm_crownreach_25_lower:object:7400291"}},{"mesh":6,"matrix":[0.9131826779272897,0.0,0.0,0.0,0.0,0.9131826779272897,0.0,0.0,0.0,0.0,0.9131826779272897,0.0,44.50000005442993,-0.003138375283873653,16.444999986392517,1.0]},{"name":"Service table","children":[56,57,58,59],"extras":{"veldrenEntityKey":"realm_crownreach_25_lower:object:7400292"}},{"mesh":1,"matrix":[0.9588829055315417,0.0,0.0,0.0,0.0,0.9588829055315417,0.0,0.0,0.0,0.0,0.9588829055315417,0.0,39.5,-0.001210940581595084,19.49391531274037,1.0]},{"mesh":2,"matrix":[0.8903870142199419,0.0,0.0,0.0,0.0,0.8903870142199419,0.0,0.0,0.0,0.0,0.8903870142199419,0.0,39.15990035881882,0.7806725885457619,19.4999999800983,1.0]},{"mesh":3,"matrix":[0.9245011738728264,0.0,0.0,0.0,0.0,0.9245011738728264,0.0,0.0,0.0,0.0,0.9245011738728264,0.0,39.776267638674035,0.7842922688491613,19.381239005458745,1.0]},{"mesh":4,"matrix":[1.8683322315556792,0.0,0.0,0.0,0.0,1.8683322315556792,0.0,0.0,0.0,0.0,1.8683322315556792,0.0,39.585621678404976,0.7772700904769891,19.5,1.0]},{"name":"Stone stairs up to the guard hall","children":[61],"extras":{"veldrenEntityKey":"realm_crownreach_25_lower:object:7400293"}},{"mesh":12,"matrix":[1.0,0.0,0.0,0.0,0.0,1.0,0.0,0.0,0.0,0.0,1.0,0.0,0.0,0.0,0.0,1.0]}],"buffers":[{"uri":"../world-parts/71361f5f0e3651cbf9e718aa09a4ed053c36007d4373acffa9b28be748bc7f9b.bin","byteLength":192504},{"uri":"../world-parts/f4b04e3619cf212187b96076e7e940da50275113f8897ecbcd59f59213422623.bin","byteLength":117840},{"uri":"../world-parts/1f7416da9fb55b4744e69d48ce26911a903332abddb1946bc3f9f1cd1766d723.bin","byteLength":17184},{"uri":"../world-parts/2bed24ed427da899c64f0c99a7488970d5ac0a3dd007e3dcf039fbfe4113db36.bin","byteLength":31776},{"uri":"../world-parts/42a4131a7f9fe484a70590f8dd3499998303718cfb71bec957ec5894fb0867bf.bin","byteLength":53532},{"uri":"../world-parts/974a21d8ae8e0859926ffd9e6f304d80a7c46e7e5ee3150935a76e128408bac6.bin","byteLength":299352},{"uri":"../world-parts/cf4033cb853c44a487397970d48170db13d9e081d1dc04f79877a0a818a9063c.bin","byteLength":119508},{"uri":"../world-parts/9a2512b436b63bb7ea06e287302379ec7cd545afa3634b62d51eac88505a4bb8.bin","byteLength":161496},{"uri":"../world-parts/e3fe9d3b5f93801ba8b4803d19258d72148059742439f7cfdaa7a1ddfd143e37.bin","byteLength":44352},{"uri":"../world-parts/c2df40a66453636f63457faec436195ffd3d73cde0dcddf7486ad93257fea071.bin","byteLength":159960},{"uri":"../world-parts/7115f5440ded7b24d7b522a2d96c2952e50165fbe7e8778681e663ada4bbd376.bin","byteLength":44352},{"uri":"../world-parts/8aef12da615da3fc4668247d6341e49fd20b15b20cfdeaea319093078e99530c.bin","byteLength":44352},{"uri":"../world-parts/97e439d878671f9507f9978ddc745abfa1106d322e0fae931b45108a10f36bf1.bin","byteLength":44352}],"bufferViews":[{"buffer":0,"byteOffset":0,"byteLength":23928,"target":34962},{"buffer":0,"byteOffset":23928,"byteLength":23928,"target":34962},{"buffer":0,"byteOffset":47856,"byteLength":15952,"target":34962},{"buffer":0,"byteOffset":63808,"byteLength":23928,"target":34962},{"buffer":0,"byteOffset":87736,"byteLength":23928,"target":34962},{"buffer":0,"byteOffset":111664,"byteLength":23928,"target":34962},{"buffer":0,"byteOffset":135592,"byteLength":23928,"target":34962},{"buffer":0,"byteOffset":159520,"byteLength":7976,"target":34962},{"buffer":0,"byteOffset":167496,"byteLength":11472,"target":34963},{"buffer":0,"byteOffset":178968,"byteLength":13536,"target":34963},{"buffer":1,"byteOffset":0,"byteLength":15144,"target":34962},{"buffer":1,"byteOffset":15144,"byteLength":15144,"target":34962},{"buffer":1,"byteOffset":30288,"byteLength":10096,"target":34962},{"buffer":1,"byteOffset":40384,"byteLength":15144,"target":34962},{"buffer":1,"byteOffset":55528,"byteLength":15144,"target":34962},{"buffer":1,"byteOffset":70672,"byteLength":15144,"target":34962},{"buffer":1,"byteOffset":85816,"byteLength":15144,"target":34962},{"buffer":1,"byteOffset":100960,"byteLength":5048,"target":34962},{"buffer":1,"byteOffset":106008,"byteLength":11352,"target":34963},{"buffer":1,"byteOffset":117360,"byteLength":480,"target":34963},{"buffer":2,"byteOffset":0,"byteLength":2160,"target":34962},{"buffer":2,"byteOffset":2160,"byteLength":2160,"target":34962},{"buffer":2,"byteOffset":4320,"byteLength":1440,"target":34962},{"buffer":2,"byteOffset":5760,"byteLength":2160,"target":34962},{"buffer":2,"byteOffset":7920,"byteLength":2160,"target":34962},{"buffer":2,"byteOffset":10080,"byteLength":2160,"target":34962},{"buffer":2,"byteOffset":12240,"byteLength":2160,"target":34962},{"buffer":2,"byteOffset":14400,"byteLength":720,"target":34962},{"buffer":2,"byteOffset":15120,"byteLength":2064,"target":34963},{"buffer":3,"byteOffset":0,"byteLength":4080,"target":34962},{"buffer":3,"byteOffset":4080,"byteLength":4080,"target":34962},{"buffer":3,"byteOffset":8160,"byteLength":2720,"target":34962},{"buffer":3,"byteOffset":10880,"byteLength":4080,"target":34962},{"buffer":3,"byteOffset":14960,"byteLength":4080,"target":34962},{"buffer":3,"byteOffset":19040,"byteLength":4080,"target":34962},{"buffer":3,"byteOffset":23120,"byteLength":4080,"target":34962},{"buffer":3,"byteOffset":27200,"byteLength":1360,"target":34962},{"buffer":3,"byteOffset":28560,"byteLength":1464,"target":34963},{"buffer":3,"byteOffset":30024,"byteLength":1752,"target":34963},{"buffer":4,"byteOffset":0,"byteLength":6396,"target":34962},{"buffer":4,"byteOffset":6396,"byteLength":6396,"target":34962},{"buffer":4,"byteOffset":12792,"byteLength":4264,"target":34962},{"buffer":4,"byteOffset":17056,"byteLength":6396,"target":34962},{"buffer":4,"byteOffset":23452,"byteLength":6396,"target":34962},{"buffer":4,"byteOffset":29848,"byteLength":6396,"target":34962},{"buffer":4,"byteOffset":36244,"byteLength":6396,"target":34962},{"buffer":4,"byteOffset":42640,"byteLength":2132,"target":34962},{"buffer":4,"byteOffset":44772,"byteLength":8760,"target":34963},{"buffer":5,"byteOffset":0,"byteLength":38400,"target":34962},{"buffer":5,"byteOffset":38400,"byteLength":38400,"target":34962},{"buffer":5,"byteOffset":76800,"byteLength":25600,"target":34962},{"buffer":5,"byteOffset":102400,"byteLength":38400,"target":34962},{"buffer":5,"byteOffset":140800,"byteLength":38400,"target":34962},{"buffer":5,"byteOffset":179200,"byteLength":38400,"target":34962},{"buffer":5,"byteOffset":217600,"byteLength":38400,"target":34962},{"buffer":5,"byteOffset":256000,"byteLength":12800,"target":34962},{"buffer":5,"byteOffset":268800,"byteLength":4416,"target":34963},{"buffer":5,"byteOffset":273216,"byteLength":26136,"target":34963},{"buffer":6,"byteOffset":0,"byteLength":15660,"target":34962},{"buffer":6,"byteOffset":15660,"byteLength":15660,"target":34962},{"buffer":6,"byteOffset":31320,"byteLength":10440,"target":34962},{"buffer":6,"byteOffset":41760,"byteLength":15660,"target":34962},{"buffer":6,"byteOffset":57420,"byteLength":15660,"target":34962},{"buffer":6,"byteOffset":73080,"byteLength":15660,"target":34962},{"buffer":6,"byteOffset":88740,"byteLength":15660,"target":34962},{"buffer":6,"byteOffset":104400,"byteLength":5220,"target":34962},{"buffer":6,"byteOffset":109620,"byteLength":4704,"target":34963},{"buffer":6,"byteOffset":114324,"byteLength":5184,"target":34963},{"buffer":7,"byteOffset":0,"byteLength":20328,"target":34962},{"buffer":7,"byteOffset":20328,"byteLength":20328,"target":34962},{"buffer":7,"byteOffset":40656,"byteLength":13552,"target":34962},{"buffer":7,"byteOffset":54208,"byteLength":20328,"target":34962},{"buffer":7,"byteOffset":74536,"byteLength":20328,"target":34962},{"buffer":7,"byteOffset":94864,"byteLength":20328,"target":34962},{"buffer":7,"byteOffset":115192,"byteLength":20328,"target":34962},{"buffer":7,"byteOffset":135520,"byteLength":6776,"target":34962},{"buffer":7,"byteOffset":142296,"byteLength":11952,"target":34963},{"buffer":7,"byteOffset":154248,"byteLength":2112,"target":34963},{"buffer":7,"byteOffset":156360,"byteLength":5136,"target":34963},{"buffer":8,"byteOffset":0,"byteLength":6048,"target":34962},{"buffer":8,"byteOffset":6048,"byteLength":6048,"target":34962},{"buffer":8,"byteOffset":12096,"byteLength":4032,"target":34962},{"buffer":8,"byteOffset":16128,"byteLength":6048,"target":34962},{"buffer":8,"byteOffset":22176,"byteLength":6048,"target":34962},{"buffer":8,"byteOffset":28224,"byteLength":6048,"target":34962},{"buffer":8,"byteOffset":34272,"byteLength":6048,"target":34962},{"buffer":8,"byteOffset":40320,"byteLength":2016,"target":34962},{"buffer":8,"byteOffset":42336,"byteLength":2016,"target":34963},{"buffer":9,"byteOffset":0,"byteLength":20136,"target":34962},{"buffer":9,"byteOffset":20136,"byteLength":20136,"target":34962},{"buffer":9,"byteOffset":40272,"byteLength":13424,"target":34962},{"buffer":9,"byteOffset":53696,"byteLength":20136,"target":34962},{"buffer":9,"byteOffset":73832,"byteLength":20136,"target":34962},{"buffer":9,"byteOffset":93968,"byteLength":20136,"target":34962},{"buffer":9,"byteOffset":114104,"byteLength":20136,"target":34962},{"buffer":9,"byteOffset":134240,"byteLength":6712,"target":34962},{"buffer":9,"byteOffset":140952,"byteLength":11760,"target":34963},{"buffer":9,"byteOffset":152712,"byteLength":2112,"target":34963},{"buffer":9,"byteOffset":154824,"byteLength":5136,"target":34963},{"buffer":10,"byteOffset":0,"byteLength":6048,"target":34962},{"buffer":10,"byteOffset":6048,"byteLength":6048,"target":34962},{"buffer":10,"byteOffset":12096,"byteLength":4032,"target":34962},{"buffer":10,"byteOffset":16128,"byteLength":6048,"target":34962},{"buffer":10,"byteOffset":22176,"byteLength":6048,"target":34962},{"buffer":10,"byteOffset":28224,"byteLength":6048,"target":34962},{"buffer":10,"byteOffset":34272,"byteLength":6048,"target":34962},{"buffer":10,"byteOffset":40320,"byteLength":2016,"target":34962},{"buffer":10,"byteOffset":42336,"byteLength":2016,"target":34963},{"buffer":11,"byteOffset":0,"byteLength":6048,"target":34962},{"buffer":11,"byteOffset":6048,"byteLength":6048,"target":34962},{"buffer":11,"byteOffset":12096,"byteLength":4032,"target":34962},{"buffer":11,"byteOffset":16128,"byteLength":6048,"target":34962},{"buffer":11,"byteOffset":22176,"byteLength":6048,"target":34962},{"buffer":11,"byteOffset":28224,"byteLength":6048,"target":34962},{"buffer":11,"byteOffset":34272,"byteLength":6048,"target":34962},{"buffer":11,"byteOffset":40320,"byteLength":2016,"target":34962},{"buffer":11,"byteOffset":42336,"byteLength":2016,"target":34963},{"buffer":12,"byteOffset":0,"byteLength":6048,"target":34962},{"buffer":12,"byteOffset":6048,"byteLength":6048,"target":34962},{"buffer":12,"byteOffset":12096,"byteLength":4032,"target":34962},{"buffer":12,"byteOffset":16128,"byteLength":6048,"target":34962},{"buffer":12,"byteOffset":22176,"byteLength":6048,"target":34962},{"buffer":12,"byteOffset":28224,"byteLength":6048,"target":34962},{"buffer":12,"byteOffset":34272,"byteLength":6048,"target":34962},{"buffer":12,"byteOffset":40320,"byteLength":2016,"target":34962},{"buffer":12,"byteOffset":42336,"byteLength":2016,"target":34963}],"accessors":[{"bufferView":0,"componentType":5126,"count":1994,"type":"VEC3","min":[-0.6930983662605286,-0.0033770801965147257,-0.49469810724258423],"max":[0.6930983662605286,1.1059458255767822,0.488442987203598]},{"bufferView":1,"componentType":5126,"count":1994,"type":"VEC3"},{"bufferView":2,"componentType":5126,"count":1994,"type":"VEC2"},{"bufferView":3,"componentType":5126,"count":1994,"type":"VEC3"},{"bufferView":4,"componentType":5126,"count":1994,"type":"VEC3"},{"bufferView":5,"componentType":5126,"count":1994,"type":"VEC3"},{"bufferView":6,"componentType":5126,"count":1994,"type":"VEC3"},{"bufferView":7,"componentType":5126,"count":1994,"type":"SCALAR"},{"bufferView":8,"componentType":5125,"count":2868,"type":"SCALAR"},{"bufferView":9,"componentType":5125,"count":3384,"type":"SCALAR"},{"bufferView":10,"componentType":5126,"count":1262,"type":"VEC3","min":[-1.4242464303970337,0.001262865960597992,-0.5419855713844299],"max":[1.4242464303970337,0.8147094249725342,0.5546767711639404]},{"bufferView":11,"componentType":5126,"count":1262,"type":"VEC3"},{"bufferView":12,"componentType":5126,"count":1262,"type":"VEC2"},{"bufferView":13,"componentType":5126,"count":1262,"type":"VEC3"},{"bufferView":14,"componentType":5126,"count":1262,"type":"VEC3"},{"bufferView":15,"componentType":5126,"count":1262,"type":"VEC3"},{"bufferView":16,"componentType":5126,"count":1262,"type":"VEC3"},{"bufferView":17,"componentType":5126,"count":1262,"type":"SCALAR"},{"bufferView":18,"componentType":5125,"count":2838,"type":"SCALAR"},{"bufferView":19,"componentType":5125,"count":120,"type":"SCALAR"},{"bufferView":20,"componentType":5126,"count":180,"type":"VEC3","min":[-0.16652752459049225,-0.0007553889881819487,-0.16846604645252228],"max":[0.16675134003162384,0.01940305158495903,0.16846609115600586]},{"bufferView":21,"componentType":5126,"count":180,"type":"VEC3"},{"bufferView":22,"componentType":5126,"count":180,"type":"VEC2"},{"bufferView":23,"componentType":5126,"count":180,"type":"VEC3"},{"bufferView":24,"componentType":5126,"count":180,"type":"VEC3"},{"bufferView":25,"componentType":5126,"count":180,"type":"VEC3"},{"bufferView":26,"componentType":5126,"count":180,"type":"VEC3"},{"bufferView":27,"componentType":5126,"count":180,"type":"SCALAR"},{"bufferView":28,"componentType":5125,"count":516,"type":"SCALAR"},{"bufferView":29,"componentType":5126,"count":340,"type":"VEC3","min":[-0.07037083804607391,-0.004642794374376535,-0.07473406940698624],"max":[0.12171173840761185,0.1792401522397995,0.0720536932349205]},{"bufferView":30,"componentType":5126,"count":340,"type":"VEC3"},{"bufferView":31,"componentType":5126,"count":340,"type":"VEC2"},{"bufferView":32,"componentType":5126,"count":340,"type":"VEC3"},{"bufferView":33,"componentType":5126,"count":340,"type":"VEC3"},{"bufferView":34,"componentType":5126,"count":340,"type":"VEC3"},{"bufferView":35,"componentType":5126,"count":340,"type":"VEC3"},{"bufferView":36,"componentType":5126,"count":340,"type":"SCALAR"},{"bufferView":37,"componentType":5125,"count":366,"type":"SCALAR"},{"bufferView":38,"componentType":5125,"count":438,"type":"SCALAR"},{"bufferView":39,"componentType":5126,"count":533,"type":"VEC3","min":[-0.1762866973876953,0.0014611477963626385,-0.0896759033203125],"max":[0.08463096618652344,0.15667979419231415,0.0896759033203125]},{"bufferView":40,"componentType":5126,"count":533,"type":"VEC3"},{"bufferView":41,"componentType":5126,"count":533,"type":"VEC2"},{"bufferView":42,"componentType":5126,"count":533,"type":"VEC3"},{"bufferView":43,"componentType":5126,"count":533,"type":"VEC3"},{"bufferView":44,"componentType":5126,"count":533,"type":"VEC3"},{"bufferView":45,"componentType":5126,"count":533,"type":"VEC3"},{"bufferView":46,"componentType":5126,"count":533,"type":"SCALAR"},{"bufferView":47,"componentType":5125,"count":2190,"type":"SCALAR"},{"bufferView":48,"componentType":5126,"count":3200,"type":"VEC3","min":[-0.638446033000946,-0.022696882486343384,-0.3777054250240326],"max":[0.6376006007194519,0.6925303339958191,0.3777054250240326]},{"bufferView":49,"componentType":5126,"count":3200,"type":"VEC3"},{"bufferView":50,"componentType":5126,"count":3200,"type":"VEC2"},{"bufferView":51,"componentType":5126,"count":3200,"type":"VEC3"},{"bufferView":52,"componentType":5126,"count":3200,"type":"VEC3"},{"bufferView":53,"componentType":5126,"count":3200,"type":"VEC3"},{"bufferView":54,"componentType":5126,"count":3200,"type":"VEC3"},{"bufferView":55,"componentType":5126,"count":3200,"type":"SCALAR"},{"bufferView":56,"componentType":5125,"count":1104,"type":"SCALAR"},{"bufferView":57,"componentType":5125,"count":6534,"type":"SCALAR"},{"bufferView":58,"componentType":5126,"count":1305,"type":"VEC3","min":[-0.34901556372642517,0.003436744213104248,-0.349015474319458],"max":[0.3490154445171356,0.9013950824737549,0.3490155041217804]},{"bufferView":59,"componentType":5126,"count":1305,"type":"VEC3"},{"bufferView":60,"componentType":5126,"count":1305,"type":"VEC2"},{"bufferView":61,"componentType":5126,"count":1305,"type":"VEC3"},{"bufferView":62,"componentType":5126,"count":1305,"type":"VEC3"},{"bufferView":63,"componentType":5126,"count":1305,"type":"VEC3"},{"bufferView":64,"componentType":5126,"count":1305,"type":"VEC3"},{"bufferView":65,"componentType":5126,"count":1305,"type":"SCALAR"},{"bufferView":66,"componentType":5125,"count":1176,"type":"SCALAR"},{"bufferView":67,"componentType":5125,"count":1296,"type":"SCALAR"},{"bufferView":68,"componentType":5126,"count":1694,"type":"VEC3","min":[-0.9378617405891418,0.0004533232713583857,-1.205949068069458],"max":[0.9378617405891418,0.8055568933486938,1.205949068069458]},{"bufferView":69,"componentType":5126,"count":1694,"type":"VEC3"},{"bufferView":70,"componentType":5126,"count":1694,"type":"VEC2"},{"bufferView":71,"componentType":5126,"count":1694,"type":"VEC3"},{"bufferView":72,"componentType":5126,"count":1694,"type":"VEC3"},{"bufferView":73,"componentType":5126,"count":1694,"type":"VEC3"},{"bufferView":74,"componentType":5126,"count":1694,"type":"VEC3"},{"bufferView":75,"componentType":5126,"count":1694,"type":"SCALAR"},{"bufferView":76,"componentType":5125,"count":2988,"type":"SCALAR"},{"bufferView":77,"componentType":5125,"count":528,"type":"SCALAR"},{"bufferView":78,"componentType":5125,"count":1284,"type":"SCALAR"},{"bufferView":79,"componentType":5126,"count":504,"type":"VEC3","min":[1.965000033378601,0.30000001192092896,15.944999694824219],"max":[11.03499984741211,2.5999999046325684,16.05500030517578]},{"bufferView":80,"componentType":5126,"count":504,"type":"VEC3"},{"bufferView":81,"componentType":5126,"count":504,"type":"VEC2"},{"bufferView":82,"componentType":5126,"count":504,"type":"VEC3"},{"bufferView":83,"componentType":5126,"count":504,"type":"VEC3"},{"bufferView":84,"componentType":5126,"count":504,"type":"VEC3"},{"bufferView":85,"componentType":5126,"count":504,"type":"VEC3"},{"bufferView":86,"componentType":5126,"count":504,"type":"SCALAR"},{"bufferView":87,"componentType":5125,"count":504,"type":"SCALAR"},{"bufferView":88,"componentType":5126,"count":1678,"type":"VEC3","min":[-0.9378617405891418,0.0004533232713583857,-1.205949068069458],"max":[0.9378617405891418,0.7600604295730591,1.205949068069458]},{"bufferView":89,"componentType":5126,"count":1678,"type":"VEC3"},{"bufferView":90,"componentType":5126,"count":1678,"type":"VEC2"},{"bufferView":91,"componentType":5126,"count":1678,"type":"VEC3"},{"bufferView":92,"componentType":5126,"count":1678,"type":"VEC3"},{"bufferView":93,"componentType":5126,"count":1678,"type":"VEC3"},{"bufferView":94,"componentType":5126,"count":1678,"type":"VEC3"},{"bufferView":95,"componentType":5126,"count":1678,"type":"SCALAR"},{"bufferView":96,"componentType":5125,"count":2940,"type":"SCALAR"},{"bufferView":97,"componentType":5125,"count":528,"type":"SCALAR"},{"bufferView":98,"componentType":5125,"count":1284,"type":"SCALAR"},{"bufferView":99,"componentType":5126,"count":504,"type":"VEC3","min":[11.96500015258789,0.30000001192092896,15.944999694824219],"max":[21.03499984741211,2.5999999046325684,16.05500030517578]},{"bufferView":100,"componentType":5126,"count":504,"type":"VEC3"},{"bufferView":101,"componentType":5126,"count":504,"type":"VEC2"},{"bufferView":102,"componentType":5126,"count":504,"type":"VEC3"},{"bufferView":103,"componentType":5126,"count":504,"type":"VEC3"},{"bufferView":104,"componentType":5126,"count":504,"type":"VEC3"},{"bufferView":105,"componentType":5126,"count":504,"type":"VEC3"},{"bufferView":106,"componentType":5126,"count":504,"type":"SCALAR"},{"bufferView":107,"componentType":5125,"count":504,"type":"SCALAR"},{"bufferView":108,"componentType":5126,"count":504,"type":"VEC3","min":[29.235000610351562,0.0,17.247970581054688],"max":[29.764999389648438,0.699999988079071,17.752029418945312]},{"bufferView":109,"componentType":5126,"count":504,"type":"VEC3"},{"bufferView":110,"componentType":5126,"count":504,"type":"VEC2"},{"bufferView":111,"componentType":5126,"count":504,"type":"VEC3"},{"bufferView":112,"componentType":5126,"count":504,"type":"VEC3"},{"bufferView":113,"componentType":5126,"count":504,"type":"VEC3"},{"bufferView":114,"componentType":5126,"count":504,"type":"VEC3"},{"bufferView":115,"componentType":5126,"count":504,"type":"SCALAR"},{"bufferView":116,"componentType":5125,"count":504,"type":"SCALAR"},{"bufferView":117,"componentType":5126,"count":504,"type":"VEC3","min":[35.64500045776367,0.0,11.272799491882324],"max":[37.35499954223633,2.439100980758667,13.62720012664795]},{"bufferView":118,"componentType":5126,"count":504,"type":"VEC3"},{"bufferView":119,"componentType":5126,"count":504,"type":"VEC2"},{"bufferView":120,"componentType":5126,"count":504,"type":"VEC3"},{"bufferView":121,"componentType":5126,"count":504,"type":"VEC3"},{"bufferView":122,"componentType":5126,"count":504,"type":"VEC3"},{"bufferView":123,"componentType":5126,"count":504,"type":"VEC3"},{"bufferView":124,"componentType":5126,"count":504,"type":"SCALAR"},{"bufferView":125,"componentType":5125,"count":504,"type":"SCALAR"}],"meshes":[{"name":"71361f5f0e3651cbf9e718aa09a4ed053c36007d4373acffa9b28be748bc7f9b","primitives":[{"attributes":{"POSITION":0,"NORMAL":1,"TEXCOORD_0":2,"COLOR_0":3,"_VELDREN_NORMAL":4,"_VELDREN_COLOR":5,"_VELDREN_FALLBACK":6,"_VELDREN_MATERIAL":7},"indices":8,"material":0,"extras":{"mixedAtlasFallback":false}},{"attributes":{"POSITION":0,"NORMAL":1,"TEXCOORD_0":2,"COLOR_0":3,"_VELDREN_NORMAL":4,"_VELDREN_COLOR":5,"_VELDREN_FALLBACK":6,"_VELDREN_MATERIAL":7},"indices":9,"material":1,"extras":{"mixedAtlasFallback":false}}]},{"name":"f4b04e3619cf212187b96076e7e940da50275113f8897ecbcd59f59213422623","primitives":[{"attributes":{"POSITION":10,"NORMAL":11,"TEXCOORD_0":12,"COLOR_0":13,"_VELDREN_NORMAL":14,"_VELDREN_COLOR":15,"_VELDREN_FALLBACK":16,"_VELDREN_MATERIAL":17},"indices":18,"material":2,"extras":{"mixedAtlasFallback":false}},{"attributes":{"POSITION":10,"NORMAL":11,"TEXCOORD_0":12,"COLOR_0":13,"_VELDREN_NORMAL":14,"_VELDREN_COLOR":15,"_VELDREN_FALLBACK":16,"_VELDREN_MATERIAL":17},"indices":19,"material":3,"extras":{"mixedAtlasFallback":false}}]},{"name":"1f7416da9fb55b4744e69d48ce26911a903332abddb1946bc3f9f1cd1766d723","primitives":[{"attributes":{"POSITION":20,"NORMAL":21,"TEXCOORD_0":22,"COLOR_0":23,"_VELDREN_NORMAL":24,"_VELDREN_COLOR":25,"_VELDREN_FALLBACK":26,"_VELDREN_MATERIAL":27},"indices":28,"material":4,"extras":{"mixedAtlasFallback":false}}]},{"name":"2bed24ed427da899c64f0c99a7488970d5ac0a3dd007e3dcf039fbfe4113db36","primitives":[{"attributes":{"POSITION":29,"NORMAL":30,"TEXCOORD_0":31,"COLOR_0":32,"_VELDREN_NORMAL":33,"_VELDREN_COLOR":34,"_VELDREN_FALLBACK":35,"_VELDREN_MATERIAL":36},"indices":37,"material":5,"extras":{"mixedAtlasFallback":false}},{"attributes":{"POSITION":29,"NORMAL":30,"TEXCOORD_0":31,"COLOR_0":32,"_VELDREN_NORMAL":33,"_VELDREN_COLOR":34,"_VELDREN_FALLBACK":35,"_VELDREN_MATERIAL":36},"indices":38,"material":6,"extras":{"mixedAtlasFallback":false}}]},{"name":"42a4131a7f9fe484a70590f8dd3499998303718cfb71bec957ec5894fb0867bf","primitives":[{"attributes":{"POSITION":39,"NORMAL":40,"TEXCOORD_0":41,"COLOR_0":42,"_VELDREN_NORMAL":43,"_VELDREN_COLOR":44,"_VELDREN_FALLBACK":45,"_VELDREN_MATERIAL":46},"indices":47,"material":7,"extras":{"mixedAtlasFallback":false}}]},{"name":"974a21d8ae8e0859926ffd9e6f304d80a7c46e7e5ee3150935a76e128408bac6","primitives":[{"attributes":{"POSITION":48,"NORMAL":49,"TEXCOORD_0":50,"COLOR_0":51,"_VELDREN_NORMAL":52,"_VELDREN_COLOR":53,"_VELDREN_FALLBACK":54,"_VELDREN_MATERIAL":55},"indices":56,"material":8,"extras":{"mixedAtlasFallback":false}},{"attributes":{"POSITION":48,"NORMAL":49,"TEXCOORD_0":50,"COLOR_0":51,"_VELDREN_NORMAL":52,"_VELDREN_COLOR":53,"_VELDREN_FALLBACK":54,"_VELDREN_MATERIAL":55},"indices":57,"material":9,"extras":{"mixedAtlasFallback":false}}]},{"name":"cf4033cb853c44a487397970d48170db13d9e081d1dc04f79877a0a818a9063c","primitives":[{"attributes":{"POSITION":58,"NORMAL":59,"TEXCOORD_0":60,"COLOR_0":61,"_VELDREN_NORMAL":62,"_VELDREN_COLOR":63,"_VELDREN_FALLBACK":64,"_VELDREN_MATERIAL":65},"indices":66,"material":10,"extras":{"mixedAtlasFallback":false}},{"attributes":{"POSITION":58,"NORMAL":59,"TEXCOORD_0":60,"COLOR_0":61,"_VELDREN_NORMAL":62,"_VELDREN_COLOR":63,"_VELDREN_FALLBACK":64,"_VELDREN_MATERIAL":65},"indices":67,"material":11,"extras":{"mixedAtlasFallback":false}}]},{"name":"9a2512b436b63bb7ea06e287302379ec7cd545afa3634b62d51eac88505a4bb8","primitives":[{"attributes":{"POSITION":68,"NORMAL":69,"TEXCOORD_0":70,"COLOR_0":71,"_VELDREN_NORMAL":72,"_VELDREN_COLOR":73,"_VELDREN_FALLBACK":74,"_VELDREN_MATERIAL":75},"indices":76,"material":12,"extras":{"mixedAtlasFallback":false}},{"attributes":{"POSITION":68,"NORMAL":69,"TEXCOORD_0":70,"COLOR_0":71,"_VELDREN_NORMAL":72,"_VELDREN_COLOR":73,"_VELDREN_FALLBACK":74,"_VELDREN_MATERIAL":75},"indices":77,"material":13,"extras":{"mixedAtlasFallback":false}},{"attributes":{"POSITION":68,"NORMAL":69,"TEXCOORD_0":70,"COLOR_0":71,"_VELDREN_NORMAL":72,"_VELDREN_COLOR":73,"_VELDREN_FALLBACK":74,"_VELDREN_MATERIAL":75},"indices":78,"material":14,"extras":{"mixedAtlasFallback":false}}]},{"name":"e3fe9d3b5f93801ba8b4803d19258d72148059742439f7cfdaa7a1ddfd143e37","primitives":[{"attributes":{"POSITION":79,"NORMAL":80,"TEXCOORD_0":81,"COLOR_0":82,"_VELDREN_NORMAL":83,"_VELDREN_COLOR":84,"_VELDREN_FALLBACK":85,"_VELDREN_MATERIAL":86},"indices":87,"material":15,"extras":{"mixedAtlasFallback":false}}]},{"name":"c2df40a66453636f63457faec436195ffd3d73cde0dcddf7486ad93257fea071","primitives":[{"attributes":{"POSITION":88,"NORMAL":89,"TEXCOORD_0":90,"COLOR_0":91,"_VELDREN_NORMAL":92,"_VELDREN_COLOR":93,"_VELDREN_FALLBACK":94,"_VELDREN_MATERIAL":95},"indices":96,"material":16,"extras":{"mixedAtlasFallback":false}},{"attributes":{"POSITION":88,"NORMAL":89,"TEXCOORD_0":90,"COLOR_0":91,"_VELDREN_NORMAL":92,"_VELDREN_COLOR":93,"_VELDREN_FALLBACK":94,"_VELDREN_MATERIAL":95},"indices":97,"material":17,"extras":{"mixedAtlasFallback":false}},{"attributes":{"POSITION":88,"NORMAL":89,"TEXCOORD_0":90,"COLOR_0":91,"_VELDREN_NORMAL":92,"_VELDREN_COLOR":93,"_VELDREN_FALLBACK":94,"_VELDREN_MATERIAL":95},"indices":98,"material":18,"extras":{"mixedAtlasFallback":false}}]},{"name":"7115f5440ded7b24d7b522a2d96c2952e50165fbe7e8778681e663ada4bbd376","primitives":[{"attributes":{"POSITION":99,"NORMAL":100,"TEXCOORD_0":101,"COLOR_0":102,"_VELDREN_NORMAL":103,"_VELDREN_COLOR":104,"_VELDREN_FALLBACK":105,"_VELDREN_MATERIAL":106},"indices":107,"material":19,"extras":{"mixedAtlasFallback":false}}]},{"name":"8aef12da615da3fc4668247d6341e49fd20b15b20cfdeaea319093078e99530c","primitives":[{"attributes":{"POSITION":108,"NORMAL":109,"TEXCOORD_0":110,"COLOR_0":111,"_VELDREN_NORMAL":112,"_VELDREN_COLOR":113,"_VELDREN_FALLBACK":114,"_VELDREN_MATERIAL":115},"indices":116,"material":20,"extras":{"mixedAtlasFallback":false}}]},{"name":"97e439d878671f9507f9978ddc745abfa1106d322e0fae931b45108a10f36bf1","primitives":[{"attributes":{"POSITION":117,"NORMAL":118,"TEXCOORD_0":119,"COLOR_0":120,"_VELDREN_NORMAL":121,"_VELDREN_COLOR":122,"_VELDREN_FALLBACK":123,"_VELDREN_MATERIAL":124},"indices":125,"material":21,"extras":{"mixedAtlasFallback":false}}]}],"materials":[{"name":"legacy-material-43","pbrMetallicRoughness":{"baseColorFactor":[1,1,1,1],"metallicFactor":0,"roughnessFactor":1,"baseColorTexture":{"index":0}},"doubleSided":true,"extras":{"legacyMaterial":43,"legacyShader":"dist/renderer-gl.js"}},{"name":"legacy-material-42","pbrMetallicRoughness":{"baseColorFactor":[1,1,1,1],"metallicFactor":0,"roughnessFactor":1,"baseColorTexture":{"index":1}},"doubleSided":true,"extras":{"legacyMaterial":42,"legacyShader":"dist/renderer-gl.js"}},{"name":"legacy-material-43","pbrMetallicRoughness":{"baseColorFactor":[1,1,1,1],"metallicFactor":0,"roughnessFactor":1,"baseColorTexture":{"index":2}},"doubleSided":true,"extras":{"legacyMaterial":43,"legacyShader":"dist/renderer-gl.js"}},{"name":"legacy-material-42","pbrMetallicRoughness":{"baseColorFactor":[1,1,1,1],"metallicFactor":0,"roughnessFactor":1,"baseColorTexture":{"index":3}},"doubleSided":true,"extras":{"legacyMaterial":42,"legacyShader":"dist/renderer-gl.js"}},{"name":"legacy-material-42","pbrMetallicRoughness":{"baseColorFactor":[1,1,1,1],"metallicFactor":0,"roughnessFactor":1,"baseColorTexture":{"index":4}},"doubleSided":true,"extras":{"legacyMaterial":42,"legacyShader":"dist/renderer-gl.js"}},{"name":"legacy-material-42","pbrMetallicRoughness":{"baseColorFactor":[1,1,1,1],"metallicFactor":0,"roughnessFactor":1,"baseColorTexture":{"index":5}},"doubleSided":true,"extras":{"legacyMaterial":42,"legacyShader":"dist/renderer-gl.js"}},{"name":"legacy-material-43","pbrMetallicRoughness":{"baseColorFactor":[1,1,1,1],"metallicFactor":0,"roughnessFactor":1,"baseColorTexture":{"index":6}},"doubleSided":true,"extras":{"legacyMaterial":43,"legacyShader":"dist/renderer-gl.js"}},{"name":"legacy-material-42","pbrMetallicRoughness":{"baseColorFactor":[1,1,1,1],"metallicFactor":0,"roughnessFactor":1,"baseColorTexture":{"index":7}},"doubleSided":true,"extras":{"legacyMaterial":42,"legacyShader":"dist/renderer-gl.js"}},{"name":"legacy-material-43","pbrMetallicRoughness":{"baseColorFactor":[1,1,1,1],"metallicFactor":0,"roughnessFactor":1,"baseColorTexture":{"index":8}},"doubleSided":true,"extras":{"legacyMaterial":43,"legacyShader":"dist/renderer-gl.js"}},{"name":"legacy-material-42","pbrMetallicRoughness":{"baseColorFactor":[1,1,1,1],"metallicFactor":0,"roughnessFactor":1,"baseColorTexture":{"index":9}},"doubleSided":true,"extras":{"legacyMaterial":42,"legacyShader":"dist/renderer-gl.js"}},{"name":"legacy-material-43","pbrMetallicRoughness":{"baseColorFactor":[1,1,1,1],"metallicFactor":0,"roughnessFactor":1,"baseColorTexture":{"index":10}},"doubleSided":true,"extras":{"legacyMaterial":43,"legacyShader":"dist/renderer-gl.js"}},{"name":"legacy-material-42","pbrMetallicRoughness":{"baseColorFactor":[1,1,1,1],"metallicFactor":0,"roughnessFactor":1,"baseColorTexture":{"index":11}},"doubleSided":true,"extras":{"legacyMaterial":42,"legacyShader":"dist/renderer-gl.js"}},{"name":"legacy-material-43","pbrMetallicRoughness":{"baseColorFactor":[1,1,1,1],"metallicFactor":0,"roughnessFactor":1,"baseColorTexture":{"index":12}},"doubleSided":true,"extras":{"legacyMaterial":43,"legacyShader":"dist/renderer-gl.js"}},{"name":"legacy-material-42","pbrMetallicRoughness":{"baseColorFactor":[1,1,1,1],"metallicFactor":0,"roughnessFactor":1,"baseColorTexture":{"index":13}},"doubleSided":true,"extras":{"legacyMaterial":42,"legacyShader":"dist/renderer-gl.js"}},{"name":"legacy-material-45","pbrMetallicRoughness":{"baseColorFactor":[1,1,1,1],"metallicFactor":0,"roughnessFactor":1,"baseColorTexture":{"index":14}},"doubleSided":true,"extras":{"legacyMaterial":45,"legacyShader":"dist/renderer-gl.js"}},{"name":"legacy-material-20","pbrMetallicRoughness":{"baseColorFactor":[1,1,1,1],"metallicFactor":0,"roughnessFactor":1,"baseColorTexture":{"index":15}},"doubleSided":true,"extras":{"legacyMaterial":20,"legacyShader":"dist/renderer-gl.js"}},{"name":"legacy-material-43","pbrMetallicRoughness":{"baseColorFactor":[1,1,1,1],"metallicFactor":0,"roughnessFactor":1,"baseColorTexture":{"index":16}},"doubleSided":true,"extras":{"legacyMaterial":43,"legacyShader":"dist/renderer-gl.js"}},{"name":"legacy-material-42","pbrMetallicRoughness":{"baseColorFactor":[1,1,1,1],"metallicFactor":0,"roughnessFactor":1,"baseColorTexture":{"index":17}},"doubleSided":true,"extras":{"legacyMaterial":42,"legacyShader":"dist/renderer-gl.js"}},{"name":"legacy-material-45","pbrMetallicRoughness":{"baseColorFactor":[1,1,1,1],"metallicFactor":0,"roughnessFactor":1,"baseColorTexture":{"index":18}},"doubleSided":true,"extras":{"legacyMaterial":45,"legacyShader":"dist/renderer-gl.js"}},{"name":"legacy-material-20","pbrMetallicRoughness":{"baseColorFactor":[1,1,1,1],"metallicFactor":0,"roughnessFactor":1,"baseColorTexture":{"index":19}},"doubleSided":true,"extras":{"legacyMaterial":20,"legacyShader":"dist/renderer-gl.js"}},{"name":"legacy-material-20","pbrMetallicRoughness":{"baseColorFactor":[1,1,1,1],"metallicFactor":0,"roughnessFactor":1,"baseColorTexture":{"index":20}},"doubleSided":true,"extras":{"legacyMaterial":20,"legacyShader":"dist/renderer-gl.js"}},{"name":"legacy-material-18","pbrMetallicRoughness":{"baseColorFactor":[1,1,1,1],"metallicFactor":0,"roughnessFactor":1},"doubleSided":true,"extras":{"legacyMaterial":18,"legacyShader":"dist/renderer-gl.js","limitation":"Browser procedural material not implemented by this glTF export; source/base attributes retained."}}],"images":[{"name":"atlas-23","uri":"../../textures/atlas/tile-23.png"},{"name":"atlas-22","uri":"../../textures/atlas/tile-22.png"},{"name":"atlas-23","uri":"../../textures/atlas/tile-23.png"},{"name":"atlas-22","uri":"../../textures/atlas/tile-22.png"},{"name":"atlas-22","uri":"../../textures/atlas/tile-22.png"},{"name":"atlas-22","uri":"../../textures/atlas/tile-22.png"},{"name":"atlas-23","uri":"../../textures/atlas/tile-23.png"},{"name":"atlas-22","uri":"../../textures/atlas/tile-22.png"},{"name":"atlas-23","uri":"../../textures/atlas/tile-23.png"},{"name":"atlas-22","uri":"../../textures/atlas/tile-22.png"},{"name":"atlas-23","uri":"../../textures/atlas/tile-23.png"},{"name":"atlas-22","uri":"../../textures/atlas/tile-22.png"},{"name":"atlas-23","uri":"../../textures/atlas/tile-23.png"},{"name":"atlas-22","uri":"../../textures/atlas/tile-22.png"},{"name":"atlas-25","uri":"../../textures/atlas/tile-25.png"},{"name":"atlas-00","uri":"../../textures/atlas/tile-00.png"},{"name":"atlas-23","uri":"../../textures/atlas/tile-23.png"},{"name":"atlas-22","uri":"../../textures/atlas/tile-22.png"},{"name":"atlas-25","uri":"../../textures/atlas/tile-25.png"},{"name":"atlas-00","uri":"../../textures/atlas/tile-00.png"},{"name":"atlas-00","uri":"../../textures/atlas/tile-00.png"}],"textures":[{"source":0,"sampler":0},{"source":1,"sampler":0},{"source":2,"sampler":1},{"source":3,"sampler":1},{"source":4,"sampler":2},{"source":5,"sampler":3},{"source":6,"sampler":3},{"source":7,"sampler":4},{"source":8,"sampler":5},{"source":9,"sampler":5},{"source":10,"sampler":6},{"source":11,"sampler":6},{"source":12,"sampler":7},{"source":13,"sampler":7},{"source":14,"sampler":7},{"source":15,"sampler":8},{"source":16,"sampler":9},{"source":17,"sampler":9},{"source":18,"sampler":9},{"source":19,"sampler":10},{"source":20,"sampler":11}],"samplers":[{"magFilter":9729,"minFilter":9729,"wrapS":10497,"wrapT":10497},{"magFilter":9729,"minFilter":9729,"wrapS":10497,"wrapT":10497},{"magFilter":9729,"minFilter":9729,"wrapS":10497,"wrapT":10497},{"magFilter":9729,"minFilter":9729,"wrapS":10497,"wrapT":10497},{"magFilter":9729,"minFilter":9729,"wrapS":10497,"wrapT":10497},{"magFilter":9729,"minFilter":9729,"wrapS":10497,"wrapT":10497},{"magFilter":9729,"minFilter":9729,"wrapS":10497,"wrapT":10497},{"magFilter":9729,"minFilter":9729,"wrapS":10497,"wrapT":10497},{"magFilter":9729,"minFilter":9729,"wrapS":10497,"wrapT":10497},{"magFilter":9729,"minFilter":9729,"wrapS":10497,"wrapT":10497},{"magFilter":9729,"minFilter":9729,"wrapS":10497,"wrapT":10497},{"magFilter":9729,"minFilter":9729,"wrapS":10497,"wrapT":10497}]}
