{"asset":{"version":"2.0","generator":"Veldren static world recovery"},"scene":0,"scenes":[{"nodes":[0,2,4,9,11,16,21,26,28]}],"extras":{"sourceScene":"realm_moonwillow_11_upper","notVervesisScene":true,"gameplayIdentityExternal":true,"limitations":["Terrain stored separately.","Dynamic actors, fires, gates, crops, fish, effects and ground cover are not baked.","Roofs are closed; browser procedural materials require native support."]},"nodes":[{"name":"Bed","children":[1],"extras":{"veldrenEntityKey":"realm_moonwillow_11_upper:object:7401326"}},{"mesh":0,"matrix":[1.0795054353721547,0.0,0.0,0.0,0.0,1.0795054353721547,0.0,0.0,0.0,0.0,1.0795054353721547,0.0,3.5,-0.0004893649354120636,3.43,1.0]},{"name":"Storage chest","children":[3],"extras":{"veldrenEntityKey":"realm_moonwillow_11_upper:object:7401327"}},{"mesh":1,"matrix":[6.420932594916734e-17,0.0,1.0486178398132324,0.0,0.0,1.0486178398132324,0.0,0.0,-1.0486178398132324,0.0,6.420932594916734e-17,0.0,8.454999923706055,0.023800354450941086,7.500443458557129,1.0]},{"name":"Dining table","children":[5,6,7,8],"extras":{"veldrenEntityKey":"realm_moonwillow_11_upper:object:7401328"}},{"mesh":2,"matrix":[0.9588829055315417,0.0,0.0,0.0,0.0,0.9588829055315417,0.0,0.0,0.0,0.0,0.9588829055315417,0.0,7.5,-0.001210940581595084,4.493915312740371,1.0]},{"mesh":3,"matrix":[0.8903870142199419,0.0,0.0,0.0,0.0,0.8903870142199419,0.0,0.0,0.0,0.0,0.8903870142199419,0.0,7.159900358818818,0.7806725885457619,4.499999980098299,1.0]},{"mesh":4,"matrix":[0.9245011738728264,0.0,0.0,0.0,0.0,0.9245011738728264,0.0,0.0,0.0,0.0,0.9245011738728264,0.0,7.776267638674035,0.7842922688491613,4.381239005458748,1.0]},{"mesh":5,"matrix":[1.8683322315556792,0.0,0.0,0.0,0.0,1.8683322315556792,0.0,0.0,0.0,0.0,1.8683322315556792,0.0,7.585621678404976,0.7772700904769891,4.5,1.0]},{"name":"Chair","children":[10],"extras":{"veldrenEntityKey":"realm_moonwillow_11_upper:object:7401329"}},{"mesh":6,"matrix":[-0.9169539213180542,0.0,-1.122944797748426e-16,0.0,0.0,0.9169539213180542,0.0,0.0,1.122944797748426e-16,0.0,-0.9169539213180542,0.0,7.5,0.0024813238997012377,6.484340190887451,1.0]},{"name":"Bookcase","children":[12,13,14,15],"extras":{"veldrenEntityKey":"realm_moonwillow_11_upper:object:7401330"}},{"mesh":7,"matrix":[0.707310041242665,0.0,0.0,0.0,0.0,0.707310041242665,0.0,0.0,0.0,0.0,0.707310041242665,0.0,12.5,0.012295179585804138,2.290000289842876,1.0]},{"mesh":8,"matrix":[0.9723051974650617,0.0,0.0,0.0,0.0,0.9723051974650617,0.0,0.0,0.0,0.0,0.9723051974650617,0.0,12.511286378290851,0.30371671664600375,2.3529713969418533,1.0]},{"mesh":8,"matrix":[0.9723051974650617,0.0,0.0,0.0,0.0,0.9723051974650617,0.0,0.0,0.0,0.0,0.9723051974650617,0.0,12.511286378290851,0.7837167166460037,2.3529713969418533,1.0]},{"mesh":8,"matrix":[0.9723051974650617,0.0,0.0,0.0,0.0,0.9723051974650617,0.0,0.0,0.0,0.0,0.9723051974650617,0.0,12.511286378290851,1.2837167166460037,2.3529713969418533,1.0]},{"name":"Bookcase","children":[17,18,19,20],"extras":{"veldrenEntityKey":"realm_moonwillow_11_upper:object:7401331"}},{"mesh":7,"matrix":[0.707310041242665,0.0,0.0,0.0,0.0,0.707310041242665,0.0,0.0,0.0,0.0,0.707310041242665,0.0,15.5,0.012295179585804138,2.290000289842876,1.0]},{"mesh":8,"matrix":[0.9723051974650617,0.0,0.0,0.0,0.0,0.9723051974650617,0.0,0.0,0.0,0.0,0.9723051974650617,0.0,15.511286378290851,0.30371671664600375,2.3529713969418533,1.0]},{"mesh":8,"matrix":[0.9723051974650617,0.0,0.0,0.0,0.0,0.9723051974650617,0.0,0.0,0.0,0.0,0.9723051974650617,0.0,15.511286378290851,0.7837167166460037,2.3529713969418533,1.0]},{"mesh":8,"matrix":[0.9723051974650617,0.0,0.0,0.0,0.0,0.9723051974650617,0.0,0.0,0.0,0.0,0.9723051974650617,0.0,15.511286378290851,1.2837167166460037,2.3529713969418533,1.0]},{"name":"Reading table","children":[22,23,24,25],"extras":{"veldrenEntityKey":"realm_moonwillow_11_upper:object:7401332"}},{"mesh":2,"matrix":[0.9588829055315417,0.0,0.0,0.0,0.0,0.9588829055315417,0.0,0.0,0.0,0.0,0.9588829055315417,0.0,12.5,-0.001210940581595084,4.493915312740371,1.0]},{"mesh":9,"matrix":[0.24191449349746375,0.0,0.0,0.0,0.0,0.24191449349746375,0.0,0.0,0.0,0.0,0.24191449349746375,0.0,12.149981712814785,0.7806046715986324,4.499981568622511,1.0]},{"mesh":8,"matrix":[0.6705553085965944,0.0,0.0,0.0,0.0,0.6705553085965944,0.0,0.0,0.0,0.0,0.6705553085965944,0.0,13.057783709166106,0.7825632528593129,4.522738894442657,1.0]},{"mesh":5,"matrix":[1.9327574809196684,0.0,0.0,0.0,0.0,1.9327574809196684,0.0,0.0,0.0,0.0,1.9327574809196684,0.0,13.588574150074114,0.7771759556658508,4.5,1.0]},{"name":"Chair","children":[27],"extras":{"veldrenEntityKey":"realm_moonwillow_11_upper:object:7401333"}},{"mesh":6,"matrix":[-0.9169539213180542,0.0,-1.122944797748426e-16,0.0,0.0,0.9169539213180542,0.0,0.0,1.122944797748426e-16,0.0,-0.9169539213180542,0.0,12.5,0.0024813238997012377,6.484340190887451,1.0]},{"name":"Wooden stairs to the ground floor","children":[29],"extras":{"veldrenEntityKey":"realm_moonwillow_11_upper:object:7401335"}},{"mesh":10,"matrix":[1.0,0.0,0.0,0.0,0.0,1.0,0.0,0.0,0.0,0.0,1.0,0.0,0.0,0.0,0.0,1.0]}],"buffers":[{"uri":"../world-parts/c2df40a66453636f63457faec436195ffd3d73cde0dcddf7486ad93257fea071.bin","byteLength":159960},{"uri":"../world-parts/974a21d8ae8e0859926ffd9e6f304d80a7c46e7e5ee3150935a76e128408bac6.bin","byteLength":299352},{"uri":"../world-parts/f4b04e3619cf212187b96076e7e940da50275113f8897ecbcd59f59213422623.bin","byteLength":117840},{"uri":"../world-parts/1f7416da9fb55b4744e69d48ce26911a903332abddb1946bc3f9f1cd1766d723.bin","byteLength":17184},{"uri":"../world-parts/2bed24ed427da899c64f0c99a7488970d5ac0a3dd007e3dcf039fbfe4113db36.bin","byteLength":31776},{"uri":"../world-parts/42a4131a7f9fe484a70590f8dd3499998303718cfb71bec957ec5894fb0867bf.bin","byteLength":53532},{"uri":"../world-parts/ddcc3d6e1ffba2575a9ad5c6e02f5f299d918638f3e83151b75ace5729ff5966.bin","byteLength":58704},{"uri":"../world-parts/cb9df46869a74c2b21acdc562e58e1fd0bcaa177f7275e87e50e477c73f4776f.bin","byteLength":193944},{"uri":"../world-parts/f52aa0036ce251ef1eb08d3699186b9705c3883af59782ac743cf0836182a57c.bin","byteLength":53376},{"uri":"../world-parts/8c606c767d7974315c7bb6356ec371eba10870d54f739fa0df01dc9a7e966490.bin","byteLength":157080},{"uri":"../world-parts/82100af1b928c00468f69366df486273076c34d42de27ff785a86b896db877c4.bin","byteLength":44352}],"bufferViews":[{"buffer":0,"byteOffset":0,"byteLength":20136,"target":34962},{"buffer":0,"byteOffset":20136,"byteLength":20136,"target":34962},{"buffer":0,"byteOffset":40272,"byteLength":13424,"target":34962},{"buffer":0,"byteOffset":53696,"byteLength":20136,"target":34962},{"buffer":0,"byteOffset":73832,"byteLength":20136,"target":34962},{"buffer":0,"byteOffset":93968,"byteLength":20136,"target":34962},{"buffer":0,"byteOffset":114104,"byteLength":20136,"target":34962},{"buffer":0,"byteOffset":134240,"byteLength":6712,"target":34962},{"buffer":0,"byteOffset":140952,"byteLength":11760,"target":34963},{"buffer":0,"byteOffset":152712,"byteLength":2112,"target":34963},{"buffer":0,"byteOffset":154824,"byteLength":5136,"target":34963},{"buffer":1,"byteOffset":0,"byteLength":38400,"target":34962},{"buffer":1,"byteOffset":38400,"byteLength":38400,"target":34962},{"buffer":1,"byteOffset":76800,"byteLength":25600,"target":34962},{"buffer":1,"byteOffset":102400,"byteLength":38400,"target":34962},{"buffer":1,"byteOffset":140800,"byteLength":38400,"target":34962},{"buffer":1,"byteOffset":179200,"byteLength":38400,"target":34962},{"buffer":1,"byteOffset":217600,"byteLength":38400,"target":34962},{"buffer":1,"byteOffset":256000,"byteLength":12800,"target":34962},{"buffer":1,"byteOffset":268800,"byteLength":4416,"target":34963},{"buffer":1,"byteOffset":273216,"byteLength":26136,"target":34963},{"buffer":2,"byteOffset":0,"byteLength":15144,"target":34962},{"buffer":2,"byteOffset":15144,"byteLength":15144,"target":34962},{"buffer":2,"byteOffset":30288,"byteLength":10096,"target":34962},{"buffer":2,"byteOffset":40384,"byteLength":15144,"target":34962},{"buffer":2,"byteOffset":55528,"byteLength":15144,"target":34962},{"buffer":2,"byteOffset":70672,"byteLength":15144,"target":34962},{"buffer":2,"byteOffset":85816,"byteLength":15144,"target":34962},{"buffer":2,"byteOffset":100960,"byteLength":5048,"target":34962},{"buffer":2,"byteOffset":106008,"byteLength":11352,"target":34963},{"buffer":2,"byteOffset":117360,"byteLength":480,"target":34963},{"buffer":3,"byteOffset":0,"byteLength":2160,"target":34962},{"buffer":3,"byteOffset":2160,"byteLength":2160,"target":34962},{"buffer":3,"byteOffset":4320,"byteLength":1440,"target":34962},{"buffer":3,"byteOffset":5760,"byteLength":2160,"target":34962},{"buffer":3,"byteOffset":7920,"byteLength":2160,"target":34962},{"buffer":3,"byteOffset":10080,"byteLength":2160,"target":34962},{"buffer":3,"byteOffset":12240,"byteLength":2160,"target":34962},{"buffer":3,"byteOffset":14400,"byteLength":720,"target":34962},{"buffer":3,"byteOffset":15120,"byteLength":2064,"target":34963},{"buffer":4,"byteOffset":0,"byteLength":4080,"target":34962},{"buffer":4,"byteOffset":4080,"byteLength":4080,"target":34962},{"buffer":4,"byteOffset":8160,"byteLength":2720,"target":34962},{"buffer":4,"byteOffset":10880,"byteLength":4080,"target":34962},{"buffer":4,"byteOffset":14960,"byteLength":4080,"target":34962},{"buffer":4,"byteOffset":19040,"byteLength":4080,"target":34962},{"buffer":4,"byteOffset":23120,"byteLength":4080,"target":34962},{"buffer":4,"byteOffset":27200,"byteLength":1360,"target":34962},{"buffer":4,"byteOffset":28560,"byteLength":1464,"target":34963},{"buffer":4,"byteOffset":30024,"byteLength":1752,"target":34963},{"buffer":5,"byteOffset":0,"byteLength":6396,"target":34962},{"buffer":5,"byteOffset":6396,"byteLength":6396,"target":34962},{"buffer":5,"byteOffset":12792,"byteLength":4264,"target":34962},{"buffer":5,"byteOffset":17056,"byteLength":6396,"target":34962},{"buffer":5,"byteOffset":23452,"byteLength":6396,"target":34962},{"buffer":5,"byteOffset":29848,"byteLength":6396,"target":34962},{"buffer":5,"byteOffset":36244,"byteLength":6396,"target":34962},{"buffer":5,"byteOffset":42640,"byteLength":2132,"target":34962},{"buffer":5,"byteOffset":44772,"byteLength":8760,"target":34963},{"buffer":6,"byteOffset":0,"byteLength":7536,"target":34962},{"buffer":6,"byteOffset":7536,"byteLength":7536,"target":34962},{"buffer":6,"byteOffset":15072,"byteLength":5024,"target":34962},{"buffer":6,"byteOffset":20096,"byteLength":7536,"target":34962},{"buffer":6,"byteOffset":27632,"byteLength":7536,"target":34962},{"buffer":6,"byteOffset":35168,"byteLength":7536,"target":34962},{"buffer":6,"byteOffset":42704,"byteLength":7536,"target":34962},{"buffer":6,"byteOffset":50240,"byteLength":2512,"target":34962},{"buffer":6,"byteOffset":52752,"byteLength":4368,"target":34963},{"buffer":6,"byteOffset":57120,"byteLength":1584,"target":34963},{"buffer":7,"byteOffset":0,"byteLength":24024,"target":34962},{"buffer":7,"byteOffset":24024,"byteLength":24024,"target":34962},{"buffer":7,"byteOffset":48048,"byteLength":16016,"target":34962},{"buffer":7,"byteOffset":64064,"byteLength":24024,"target":34962},{"buffer":7,"byteOffset":88088,"byteLength":24024,"target":34962},{"buffer":7,"byteOffset":112112,"byteLength":24024,"target":34962},{"buffer":7,"byteOffset":136136,"byteLength":24024,"target":34962},{"buffer":7,"byteOffset":160160,"byteLength":8008,"target":34962},{"buffer":7,"byteOffset":168168,"byteLength":5712,"target":34963},{"buffer":7,"byteOffset":173880,"byteLength":20064,"target":34963},{"buffer":8,"byteOffset":0,"byteLength":6912,"target":34962},{"buffer":8,"byteOffset":6912,"byteLength":6912,"target":34962},{"buffer":8,"byteOffset":13824,"byteLength":4608,"target":34962},{"buffer":8,"byteOffset":18432,"byteLength":6912,"target":34962},{"buffer":8,"byteOffset":25344,"byteLength":6912,"target":34962},{"buffer":8,"byteOffset":32256,"byteLength":6912,"target":34962},{"buffer":8,"byteOffset":39168,"byteLength":6912,"target":34962},{"buffer":8,"byteOffset":46080,"byteLength":2304,"target":34962},{"buffer":8,"byteOffset":48384,"byteLength":4992,"target":34963},{"buffer":9,"byteOffset":0,"byteLength":19824,"target":34962},{"buffer":9,"byteOffset":19824,"byteLength":19824,"target":34962},{"buffer":9,"byteOffset":39648,"byteLength":13216,"target":34962},{"buffer":9,"byteOffset":52864,"byteLength":19824,"target":34962},{"buffer":9,"byteOffset":72688,"byteLength":19824,"target":34962},{"buffer":9,"byteOffset":92512,"byteLength":19824,"target":34962},{"buffer":9,"byteOffset":112336,"byteLength":19824,"target":34962},{"buffer":9,"byteOffset":132160,"byteLength":6608,"target":34962},{"buffer":9,"byteOffset":138768,"byteLength":18312,"target":34963},{"buffer":10,"byteOffset":0,"byteLength":6048,"target":34962},{"buffer":10,"byteOffset":6048,"byteLength":6048,"target":34962},{"buffer":10,"byteOffset":12096,"byteLength":4032,"target":34962},{"buffer":10,"byteOffset":16128,"byteLength":6048,"target":34962},{"buffer":10,"byteOffset":22176,"byteLength":6048,"target":34962},{"buffer":10,"byteOffset":28224,"byteLength":6048,"target":34962},{"buffer":10,"byteOffset":34272,"byteLength":6048,"target":34962},{"buffer":10,"byteOffset":40320,"byteLength":2016,"target":34962},{"buffer":10,"byteOffset":42336,"byteLength":2016,"target":34963}],"accessors":[{"bufferView":0,"componentType":5126,"count":1678,"type":"VEC3","min":[-0.9378617405891418,0.0004533232713583857,-1.205949068069458],"max":[0.9378617405891418,0.7600604295730591,1.205949068069458]},{"bufferView":1,"componentType":5126,"count":1678,"type":"VEC3"},{"bufferView":2,"componentType":5126,"count":1678,"type":"VEC2"},{"bufferView":3,"componentType":5126,"count":1678,"type":"VEC3"},{"bufferView":4,"componentType":5126,"count":1678,"type":"VEC3"},{"bufferView":5,"componentType":5126,"count":1678,"type":"VEC3"},{"bufferView":6,"componentType":5126,"count":1678,"type":"VEC3"},{"bufferView":7,"componentType":5126,"count":1678,"type":"SCALAR"},{"bufferView":8,"componentType":5125,"count":2940,"type":"SCALAR"},{"bufferView":9,"componentType":5125,"count":528,"type":"SCALAR"},{"bufferView":10,"componentType":5125,"count":1284,"type":"SCALAR"},{"bufferView":11,"componentType":5126,"count":3200,"type":"VEC3","min":[-0.638446033000946,-0.022696882486343384,-0.3777054250240326],"max":[0.6376006007194519,0.6925303339958191,0.3777054250240326]},{"bufferView":12,"componentType":5126,"count":3200,"type":"VEC3"},{"bufferView":13,"componentType":5126,"count":3200,"type":"VEC2"},{"bufferView":14,"componentType":5126,"count":3200,"type":"VEC3"},{"bufferView":15,"componentType":5126,"count":3200,"type":"VEC3"},{"bufferView":16,"componentType":5126,"count":3200,"type":"VEC3"},{"bufferView":17,"componentType":5126,"count":3200,"type":"VEC3"},{"bufferView":18,"componentType":5126,"count":3200,"type":"SCALAR"},{"bufferView":19,"componentType":5125,"count":1104,"type":"SCALAR"},{"bufferView":20,"componentType":5125,"count":6534,"type":"SCALAR"},{"bufferView":21,"componentType":5126,"count":1262,"type":"VEC3","min":[-1.4242464303970337,0.001262865960597992,-0.5419855713844299],"max":[1.4242464303970337,0.8147094249725342,0.5546767711639404]},{"bufferView":22,"componentType":5126,"count":1262,"type":"VEC3"},{"bufferView":23,"componentType":5126,"count":1262,"type":"VEC2"},{"bufferView":24,"componentType":5126,"count":1262,"type":"VEC3"},{"bufferView":25,"componentType":5126,"count":1262,"type":"VEC3"},{"bufferView":26,"componentType":5126,"count":1262,"type":"VEC3"},{"bufferView":27,"componentType":5126,"count":1262,"type":"VEC3"},{"bufferView":28,"componentType":5126,"count":1262,"type":"SCALAR"},{"bufferView":29,"componentType":5125,"count":2838,"type":"SCALAR"},{"bufferView":30,"componentType":5125,"count":120,"type":"SCALAR"},{"bufferView":31,"componentType":5126,"count":180,"type":"VEC3","min":[-0.16652752459049225,-0.0007553889881819487,-0.16846604645252228],"max":[0.16675134003162384,0.01940305158495903,0.16846609115600586]},{"bufferView":32,"componentType":5126,"count":180,"type":"VEC3"},{"bufferView":33,"componentType":5126,"count":180,"type":"VEC2"},{"bufferView":34,"componentType":5126,"count":180,"type":"VEC3"},{"bufferView":35,"componentType":5126,"count":180,"type":"VEC3"},{"bufferView":36,"componentType":5126,"count":180,"type":"VEC3"},{"bufferView":37,"componentType":5126,"count":180,"type":"VEC3"},{"bufferView":38,"componentType":5126,"count":180,"type":"SCALAR"},{"bufferView":39,"componentType":5125,"count":516,"type":"SCALAR"},{"bufferView":40,"componentType":5126,"count":340,"type":"VEC3","min":[-0.07037083804607391,-0.004642794374376535,-0.07473406940698624],"max":[0.12171173840761185,0.1792401522397995,0.0720536932349205]},{"bufferView":41,"componentType":5126,"count":340,"type":"VEC3"},{"bufferView":42,"componentType":5126,"count":340,"type":"VEC2"},{"bufferView":43,"componentType":5126,"count":340,"type":"VEC3"},{"bufferView":44,"componentType":5126,"count":340,"type":"VEC3"},{"bufferView":45,"componentType":5126,"count":340,"type":"VEC3"},{"bufferView":46,"componentType":5126,"count":340,"type":"VEC3"},{"bufferView":47,"componentType":5126,"count":340,"type":"SCALAR"},{"bufferView":48,"componentType":5125,"count":366,"type":"SCALAR"},{"bufferView":49,"componentType":5125,"count":438,"type":"SCALAR"},{"bufferView":50,"componentType":5126,"count":533,"type":"VEC3","min":[-0.1762866973876953,0.0014611477963626385,-0.0896759033203125],"max":[0.08463096618652344,0.15667979419231415,0.0896759033203125]},{"bufferView":51,"componentType":5126,"count":533,"type":"VEC3"},{"bufferView":52,"componentType":5126,"count":533,"type":"VEC2"},{"bufferView":53,"componentType":5126,"count":533,"type":"VEC3"},{"bufferView":54,"componentType":5126,"count":533,"type":"VEC3"},{"bufferView":55,"componentType":5126,"count":533,"type":"VEC3"},{"bufferView":56,"componentType":5126,"count":533,"type":"VEC3"},{"bufferView":57,"componentType":5126,"count":533,"type":"SCALAR"},{"bufferView":58,"componentType":5125,"count":2190,"type":"SCALAR"},{"bufferView":59,"componentType":5126,"count":628,"type":"VEC3","min":[-0.29025912284851074,-0.0027060508728027344,-0.29154688119888306],"max":[0.29025912284851074,1.1205782890319824,0.25739121437072754]},{"bufferView":60,"componentType":5126,"count":628,"type":"VEC3"},{"bufferView":61,"componentType":5126,"count":628,"type":"VEC2"},{"bufferView":62,"componentType":5126,"count":628,"type":"VEC3"},{"bufferView":63,"componentType":5126,"count":628,"type":"VEC3"},{"bufferView":64,"componentType":5126,"count":628,"type":"VEC3"},{"bufferView":65,"componentType":5126,"count":628,"type":"VEC3"},{"bufferView":66,"componentType":5126,"count":628,"type":"SCALAR"},{"bufferView":67,"componentType":5125,"count":1092,"type":"SCALAR"},{"bufferView":68,"componentType":5125,"count":396,"type":"SCALAR"},{"bufferView":69,"componentType":5126,"count":2002,"type":"VEC3","min":[-0.7306193113327026,-0.017383012920618057,-0.21449044346809387],"max":[0.7306193113327026,2.5274698734283447,0.2144896239042282]},{"bufferView":70,"componentType":5126,"count":2002,"type":"VEC3"},{"bufferView":71,"componentType":5126,"count":2002,"type":"VEC2"},{"bufferView":72,"componentType":5126,"count":2002,"type":"VEC3"},{"bufferView":73,"componentType":5126,"count":2002,"type":"VEC3"},{"bufferView":74,"componentType":5126,"count":2002,"type":"VEC3"},{"bufferView":75,"componentType":5126,"count":2002,"type":"VEC3"},{"bufferView":76,"componentType":5126,"count":2002,"type":"SCALAR"},{"bufferView":77,"componentType":5125,"count":1428,"type":"SCALAR"},{"bufferView":78,"componentType":5125,"count":5016,"type":"SCALAR"},{"bufferView":79,"componentType":5126,"count":576,"type":"VEC3","min":[-0.5429158210754395,-0.003822582308202982,-0.15765345096588135],"max":[0.5197001099586487,0.2944376766681671,0.0898323655128479]},{"bufferView":80,"componentType":5126,"count":576,"type":"VEC3"},{"bufferView":81,"componentType":5126,"count":576,"type":"VEC2"},{"bufferView":82,"componentType":5126,"count":576,"type":"VEC3"},{"bufferView":83,"componentType":5126,"count":576,"type":"VEC3"},{"bufferView":84,"componentType":5126,"count":576,"type":"VEC3"},{"bufferView":85,"componentType":5126,"count":576,"type":"VEC3"},{"bufferView":86,"componentType":5126,"count":576,"type":"SCALAR"},{"bufferView":87,"componentType":5125,"count":1248,"type":"SCALAR"},{"bufferView":88,"componentType":5126,"count":1652,"type":"VEC3","min":[-0.2534816861152649,-0.00249952613376081,-0.2555173337459564],"max":[0.25363287329673767,1.444292664527893,0.2556697130203247]},{"bufferView":89,"componentType":5126,"count":1652,"type":"VEC3"},{"bufferView":90,"componentType":5126,"count":1652,"type":"VEC2"},{"bufferView":91,"componentType":5126,"count":1652,"type":"VEC3"},{"bufferView":92,"componentType":5126,"count":1652,"type":"VEC3"},{"bufferView":93,"componentType":5126,"count":1652,"type":"VEC3"},{"bufferView":94,"componentType":5126,"count":1652,"type":"VEC3"},{"bufferView":95,"componentType":5126,"count":1652,"type":"SCALAR"},{"bufferView":96,"componentType":5125,"count":4578,"type":"SCALAR"},{"bufferView":97,"componentType":5126,"count":504,"type":"VEC3","min":[9.645000457763672,0.0,12.272799491882324],"max":[11.354999542236328,2.439100980758667,14.62720012664795]},{"bufferView":98,"componentType":5126,"count":504,"type":"VEC3"},{"bufferView":99,"componentType":5126,"count":504,"type":"VEC2"},{"bufferView":100,"componentType":5126,"count":504,"type":"VEC3"},{"bufferView":101,"componentType":5126,"count":504,"type":"VEC3"},{"bufferView":102,"componentType":5126,"count":504,"type":"VEC3"},{"bufferView":103,"componentType":5126,"count":504,"type":"VEC3"},{"bufferView":104,"componentType":5126,"count":504,"type":"SCALAR"},{"bufferView":105,"componentType":5125,"count":504,"type":"SCALAR"}],"meshes":[{"name":"c2df40a66453636f63457faec436195ffd3d73cde0dcddf7486ad93257fea071","primitives":[{"attributes":{"POSITION":0,"NORMAL":1,"TEXCOORD_0":2,"COLOR_0":3,"_VELDREN_NORMAL":4,"_VELDREN_COLOR":5,"_VELDREN_FALLBACK":6,"_VELDREN_MATERIAL":7},"indices":8,"material":0,"extras":{"mixedAtlasFallback":false}},{"attributes":{"POSITION":0,"NORMAL":1,"TEXCOORD_0":2,"COLOR_0":3,"_VELDREN_NORMAL":4,"_VELDREN_COLOR":5,"_VELDREN_FALLBACK":6,"_VELDREN_MATERIAL":7},"indices":9,"material":1,"extras":{"mixedAtlasFallback":false}},{"attributes":{"POSITION":0,"NORMAL":1,"TEXCOORD_0":2,"COLOR_0":3,"_VELDREN_NORMAL":4,"_VELDREN_COLOR":5,"_VELDREN_FALLBACK":6,"_VELDREN_MATERIAL":7},"indices":10,"material":2,"extras":{"mixedAtlasFallback":false}}]},{"name":"974a21d8ae8e0859926ffd9e6f304d80a7c46e7e5ee3150935a76e128408bac6","primitives":[{"attributes":{"POSITION":11,"NORMAL":12,"TEXCOORD_0":13,"COLOR_0":14,"_VELDREN_NORMAL":15,"_VELDREN_COLOR":16,"_VELDREN_FALLBACK":17,"_VELDREN_MATERIAL":18},"indices":19,"material":3,"extras":{"mixedAtlasFallback":false}},{"attributes":{"POSITION":11,"NORMAL":12,"TEXCOORD_0":13,"COLOR_0":14,"_VELDREN_NORMAL":15,"_VELDREN_COLOR":16,"_VELDREN_FALLBACK":17,"_VELDREN_MATERIAL":18},"indices":20,"material":4,"extras":{"mixedAtlasFallback":false}}]},{"name":"f4b04e3619cf212187b96076e7e940da50275113f8897ecbcd59f59213422623","primitives":[{"attributes":{"POSITION":21,"NORMAL":22,"TEXCOORD_0":23,"COLOR_0":24,"_VELDREN_NORMAL":25,"_VELDREN_COLOR":26,"_VELDREN_FALLBACK":27,"_VELDREN_MATERIAL":28},"indices":29,"material":5,"extras":{"mixedAtlasFallback":false}},{"attributes":{"POSITION":21,"NORMAL":22,"TEXCOORD_0":23,"COLOR_0":24,"_VELDREN_NORMAL":25,"_VELDREN_COLOR":26,"_VELDREN_FALLBACK":27,"_VELDREN_MATERIAL":28},"indices":30,"material":6,"extras":{"mixedAtlasFallback":false}}]},{"name":"1f7416da9fb55b4744e69d48ce26911a903332abddb1946bc3f9f1cd1766d723","primitives":[{"attributes":{"POSITION":31,"NORMAL":32,"TEXCOORD_0":33,"COLOR_0":34,"_VELDREN_NORMAL":35,"_VELDREN_COLOR":36,"_VELDREN_FALLBACK":37,"_VELDREN_MATERIAL":38},"indices":39,"material":7,"extras":{"mixedAtlasFallback":false}}]},{"name":"2bed24ed427da899c64f0c99a7488970d5ac0a3dd007e3dcf039fbfe4113db36","primitives":[{"attributes":{"POSITION":40,"NORMAL":41,"TEXCOORD_0":42,"COLOR_0":43,"_VELDREN_NORMAL":44,"_VELDREN_COLOR":45,"_VELDREN_FALLBACK":46,"_VELDREN_MATERIAL":47},"indices":48,"material":8,"extras":{"mixedAtlasFallback":false}},{"attributes":{"POSITION":40,"NORMAL":41,"TEXCOORD_0":42,"COLOR_0":43,"_VELDREN_NORMAL":44,"_VELDREN_COLOR":45,"_VELDREN_FALLBACK":46,"_VELDREN_MATERIAL":47},"indices":49,"material":9,"extras":{"mixedAtlasFallback":false}}]},{"name":"42a4131a7f9fe484a70590f8dd3499998303718cfb71bec957ec5894fb0867bf","primitives":[{"attributes":{"POSITION":50,"NORMAL":51,"TEXCOORD_0":52,"COLOR_0":53,"_VELDREN_NORMAL":54,"_VELDREN_COLOR":55,"_VELDREN_FALLBACK":56,"_VELDREN_MATERIAL":57},"indices":58,"material":10,"extras":{"mixedAtlasFallback":false}}]},{"name":"ddcc3d6e1ffba2575a9ad5c6e02f5f299d918638f3e83151b75ace5729ff5966","primitives":[{"attributes":{"POSITION":59,"NORMAL":60,"TEXCOORD_0":61,"COLOR_0":62,"_VELDREN_NORMAL":63,"_VELDREN_COLOR":64,"_VELDREN_FALLBACK":65,"_VELDREN_MATERIAL":66},"indices":67,"material":11,"extras":{"mixedAtlasFallback":false}},{"attributes":{"POSITION":59,"NORMAL":60,"TEXCOORD_0":61,"COLOR_0":62,"_VELDREN_NORMAL":63,"_VELDREN_COLOR":64,"_VELDREN_FALLBACK":65,"_VELDREN_MATERIAL":66},"indices":68,"material":12,"extras":{"mixedAtlasFallback":false}}]},{"name":"cb9df46869a74c2b21acdc562e58e1fd0bcaa177f7275e87e50e477c73f4776f","primitives":[{"attributes":{"POSITION":69,"NORMAL":70,"TEXCOORD_0":71,"COLOR_0":72,"_VELDREN_NORMAL":73,"_VELDREN_COLOR":74,"_VELDREN_FALLBACK":75,"_VELDREN_MATERIAL":76},"indices":77,"material":13,"extras":{"mixedAtlasFallback":false}},{"attributes":{"POSITION":69,"NORMAL":70,"TEXCOORD_0":71,"COLOR_0":72,"_VELDREN_NORMAL":73,"_VELDREN_COLOR":74,"_VELDREN_FALLBACK":75,"_VELDREN_MATERIAL":76},"indices":78,"material":14,"extras":{"mixedAtlasFallback":false}}]},{"name":"f52aa0036ce251ef1eb08d3699186b9705c3883af59782ac743cf0836182a57c","primitives":[{"attributes":{"POSITION":79,"NORMAL":80,"TEXCOORD_0":81,"COLOR_0":82,"_VELDREN_NORMAL":83,"_VELDREN_COLOR":84,"_VELDREN_FALLBACK":85,"_VELDREN_MATERIAL":86},"indices":87,"material":15,"extras":{"mixedAtlasFallback":false}}]},{"name":"8c606c767d7974315c7bb6356ec371eba10870d54f739fa0df01dc9a7e966490","primitives":[{"attributes":{"POSITION":88,"NORMAL":89,"TEXCOORD_0":90,"COLOR_0":91,"_VELDREN_NORMAL":92,"_VELDREN_COLOR":93,"_VELDREN_FALLBACK":94,"_VELDREN_MATERIAL":95},"indices":96,"material":16,"extras":{"mixedAtlasFallback":false}}]},{"name":"82100af1b928c00468f69366df486273076c34d42de27ff785a86b896db877c4","primitives":[{"attributes":{"POSITION":97,"NORMAL":98,"TEXCOORD_0":99,"COLOR_0":100,"_VELDREN_NORMAL":101,"_VELDREN_COLOR":102,"_VELDREN_FALLBACK":103,"_VELDREN_MATERIAL":104},"indices":105,"material":17,"extras":{"mixedAtlasFallback":false}}]}],"materials":[{"name":"legacy-material-43","pbrMetallicRoughness":{"baseColorFactor":[1,1,1,1],"metallicFactor":0,"roughnessFactor":1,"baseColorTexture":{"index":0}},"doubleSided":true,"extras":{"legacyMaterial":43,"legacyShader":"dist/renderer-gl.js"}},{"name":"legacy-material-42","pbrMetallicRoughness":{"baseColorFactor":[1,1,1,1],"metallicFactor":0,"roughnessFactor":1,"baseColorTexture":{"index":1}},"doubleSided":true,"extras":{"legacyMaterial":42,"legacyShader":"dist/renderer-gl.js"}},{"name":"legacy-material-45","pbrMetallicRoughness":{"baseColorFactor":[1,1,1,1],"metallicFactor":0,"roughnessFactor":1,"baseColorTexture":{"index":2}},"doubleSided":true,"extras":{"legacyMaterial":45,"legacyShader":"dist/renderer-gl.js"}},{"name":"legacy-material-43","pbrMetallicRoughness":{"baseColorFactor":[1,1,1,1],"metallicFactor":0,"roughnessFactor":1,"baseColorTexture":{"index":3}},"doubleSided":true,"extras":{"legacyMaterial":43,"legacyShader":"dist/renderer-gl.js"}},{"name":"legacy-material-42","pbrMetallicRoughness":{"baseColorFactor":[1,1,1,1],"metallicFactor":0,"roughnessFactor":1,"baseColorTexture":{"index":4}},"doubleSided":true,"extras":{"legacyMaterial":42,"legacyShader":"dist/renderer-gl.js"}},{"name":"legacy-material-43","pbrMetallicRoughness":{"baseColorFactor":[1,1,1,1],"metallicFactor":0,"roughnessFactor":1,"baseColorTexture":{"index":5}},"doubleSided":true,"extras":{"legacyMaterial":43,"legacyShader":"dist/renderer-gl.js"}},{"name":"legacy-material-42","pbrMetallicRoughness":{"baseColorFactor":[1,1,1,1],"metallicFactor":0,"roughnessFactor":1,"baseColorTexture":{"index":6}},"doubleSided":true,"extras":{"legacyMaterial":42,"legacyShader":"dist/renderer-gl.js"}},{"name":"legacy-material-42","pbrMetallicRoughness":{"baseColorFactor":[1,1,1,1],"metallicFactor":0,"roughnessFactor":1,"baseColorTexture":{"index":7}},"doubleSided":true,"extras":{"legacyMaterial":42,"legacyShader":"dist/renderer-gl.js"}},{"name":"legacy-material-42","pbrMetallicRoughness":{"baseColorFactor":[1,1,1,1],"metallicFactor":0,"roughnessFactor":1,"baseColorTexture":{"index":8}},"doubleSided":true,"extras":{"legacyMaterial":42,"legacyShader":"dist/renderer-gl.js"}},{"name":"legacy-material-43","pbrMetallicRoughness":{"baseColorFactor":[1,1,1,1],"metallicFactor":0,"roughnessFactor":1,"baseColorTexture":{"index":9}},"doubleSided":true,"extras":{"legacyMaterial":43,"legacyShader":"dist/renderer-gl.js"}},{"name":"legacy-material-42","pbrMetallicRoughness":{"baseColorFactor":[1,1,1,1],"metallicFactor":0,"roughnessFactor":1,"baseColorTexture":{"index":10}},"doubleSided":true,"extras":{"legacyMaterial":42,"legacyShader":"dist/renderer-gl.js"}},{"name":"legacy-material-43","pbrMetallicRoughness":{"baseColorFactor":[1,1,1,1],"metallicFactor":0,"roughnessFactor":1,"baseColorTexture":{"index":11}},"doubleSided":true,"extras":{"legacyMaterial":43,"legacyShader":"dist/renderer-gl.js"}},{"name":"legacy-material-42","pbrMetallicRoughness":{"baseColorFactor":[1,1,1,1],"metallicFactor":0,"roughnessFactor":1,"baseColorTexture":{"index":12}},"doubleSided":true,"extras":{"legacyMaterial":42,"legacyShader":"dist/renderer-gl.js"}},{"name":"legacy-material-43","pbrMetallicRoughness":{"baseColorFactor":[1,1,1,1],"metallicFactor":0,"roughnessFactor":1,"baseColorTexture":{"index":13}},"doubleSided":true,"extras":{"legacyMaterial":43,"legacyShader":"dist/renderer-gl.js"}},{"name":"legacy-material-42","pbrMetallicRoughness":{"baseColorFactor":[1,1,1,1],"metallicFactor":0,"roughnessFactor":1,"baseColorTexture":{"index":14}},"doubleSided":true,"extras":{"legacyMaterial":42,"legacyShader":"dist/renderer-gl.js"}},{"name":"legacy-material-44","pbrMetallicRoughness":{"baseColorFactor":[1,1,1,1],"metallicFactor":0,"roughnessFactor":1,"baseColorTexture":{"index":15}},"doubleSided":true,"extras":{"legacyMaterial":44,"legacyShader":"dist/renderer-gl.js"}},{"name":"legacy-material-43","pbrMetallicRoughness":{"baseColorFactor":[1,1,1,1],"metallicFactor":0,"roughnessFactor":1,"baseColorTexture":{"index":16}},"doubleSided":true,"extras":{"legacyMaterial":43,"legacyShader":"dist/renderer-gl.js"}},{"name":"legacy-material-5","pbrMetallicRoughness":{"baseColorFactor":[1,1,1,1],"metallicFactor":0,"roughnessFactor":1},"doubleSided":true,"extras":{"legacyMaterial":5,"legacyShader":"dist/renderer-gl.js","limitation":"Browser procedural material not implemented by this glTF export; source/base attributes retained."}}],"images":[{"name":"atlas-23","uri":"../../textures/atlas/tile-23.png"},{"name":"atlas-22","uri":"../../textures/atlas/tile-22.png"},{"name":"atlas-25","uri":"../../textures/atlas/tile-25.png"},{"name":"atlas-23","uri":"../../textures/atlas/tile-23.png"},{"name":"atlas-22","uri":"../../textures/atlas/tile-22.png"},{"name":"atlas-23","uri":"../../textures/atlas/tile-23.png"},{"name":"atlas-22","uri":"../../textures/atlas/tile-22.png"},{"name":"atlas-22","uri":"../../textures/atlas/tile-22.png"},{"name":"atlas-22","uri":"../../textures/atlas/tile-22.png"},{"name":"atlas-23","uri":"../../textures/atlas/tile-23.png"},{"name":"atlas-22","uri":"../../textures/atlas/tile-22.png"},{"name":"atlas-23","uri":"../../textures/atlas/tile-23.png"},{"name":"atlas-22","uri":"../../textures/atlas/tile-22.png"},{"name":"atlas-23","uri":"../../textures/atlas/tile-23.png"},{"name":"atlas-22","uri":"../../textures/atlas/tile-22.png"},{"name":"atlas-24","uri":"../../textures/atlas/tile-24.png"},{"name":"atlas-23","uri":"../../textures/atlas/tile-23.png"}],"textures":[{"source":0,"sampler":0},{"source":1,"sampler":0},{"source":2,"sampler":0},{"source":3,"sampler":1},{"source":4,"sampler":1},{"source":5,"sampler":2},{"source":6,"sampler":2},{"source":7,"sampler":3},{"source":8,"sampler":4},{"source":9,"sampler":4},{"source":10,"sampler":5},{"source":11,"sampler":6},{"source":12,"sampler":6},{"source":13,"sampler":7},{"source":14,"sampler":7},{"source":15,"sampler":8},{"source":16,"sampler":9}],"samplers":[{"magFilter":9729,"minFilter":9729,"wrapS":10497,"wrapT":10497},{"magFilter":9729,"minFilter":9729,"wrapS":10497,"wrapT":10497},{"magFilter":9729,"minFilter":9729,"wrapS":10497,"wrapT":10497},{"magFilter":9729,"minFilter":9729,"wrapS":10497,"wrapT":10497},{"magFilter":9729,"minFilter":9729,"wrapS":10497,"wrapT":10497},{"magFilter":9729,"minFilter":9729,"wrapS":10497,"wrapT":10497},{"magFilter":9729,"minFilter":9729,"wrapS":10497,"wrapT":10497},{"magFilter":9729,"minFilter":9729,"wrapS":10497,"wrapT":10497},{"magFilter":9729,"minFilter":9729,"wrapS":10497,"wrapT":10497},{"magFilter":9729,"minFilter":9729,"wrapS":10497,"wrapT":10497}]}
