{"asset":{"version":"2.0","generator":"Veldren static world recovery"},"scene":0,"scenes":[{"nodes":[0,2,4,6,8,10,12,14]}],"extras":{"sourceScene":"realm_copperdelve_5","notVervesisScene":true,"gameplayIdentityExternal":true,"limitations":["Terrain stored separately.","Dynamic actors, fires, gates, crops, fish, effects and ground cover are not baked.","Roofs are closed; browser procedural materials require native support."]},"nodes":[{"name":"Ladder to the surface","children":[1],"extras":{"veldrenEntityKey":"realm_copperdelve_5:object:1921"}},{"mesh":0,"matrix":[1.0,0.0,0.0,0.0,0.0,1.0,0.0,0.0,0.0,0.0,1.0,0.0,0.0,0.0,0.0,1.0]},{"name":"Iron rock","children":[3],"extras":{"veldrenEntityKey":"realm_copperdelve_5:object:1922"}},{"mesh":1,"matrix":[1.0,0.0,0.0,0.0,0.0,1.0,0.0,0.0,0.0,0.0,1.0,0.0,4.5,0.0,4.5,1.0]},{"name":"Coal rock","children":[5],"extras":{"veldrenEntityKey":"realm_copperdelve_5:object:1923"}},{"mesh":2,"matrix":[1.0,0.0,0.0,0.0,0.0,1.0,0.0,0.0,0.0,0.0,1.0,0.0,7.5,0.0,9.5,1.0]},{"name":"Gold rock","children":[7],"extras":{"veldrenEntityKey":"realm_copperdelve_5:object:1924"}},{"mesh":3,"matrix":[1.0,0.0,0.0,0.0,0.0,1.0,0.0,0.0,0.0,0.0,1.0,0.0,13.5,0.0,5.5,1.0]},{"name":"Windsteel rock","children":[9],"extras":{"veldrenEntityKey":"realm_copperdelve_5:object:1925"}},{"mesh":4,"matrix":[1.0,0.0,0.0,0.0,0.0,1.0,0.0,0.0,0.0,0.0,1.0,0.0,18.5,0.0,4.5,1.0]},{"name":"Deepiron rock","children":[11],"extras":{"veldrenEntityKey":"realm_copperdelve_5:object:1926"}},{"mesh":5,"matrix":[1.0,0.0,0.0,0.0,0.0,1.0,0.0,0.0,0.0,0.0,1.0,0.0,22.5,0.0,8.5,1.0]},{"name":"Eldrite rock","children":[13],"extras":{"veldrenEntityKey":"realm_copperdelve_5:object:1927"}},{"mesh":6,"matrix":[1.0,0.0,0.0,0.0,0.0,1.0,0.0,0.0,0.0,0.0,1.0,0.0,15.5,0.0,17.5,1.0]},{"name":"Copper rock","children":[15],"extras":{"veldrenEntityKey":"realm_copperdelve_5:object:1928"}},{"mesh":7,"matrix":[1.0,0.0,0.0,0.0,0.0,1.0,0.0,0.0,0.0,0.0,1.0,0.0,21.5,0.0,18.5,1.0]}],"buffers":[{"uri":"../world-parts/2e725e11fc9579c0b82d02b8beeacbf3aa87d15795e288a393a795520e3e0910.bin","byteLength":54384},{"uri":"../world-parts/0ebd686c038365e5ed11b51921b90ade9f303127887d4c318d91c7da438733d9.bin","byteLength":12936},{"uri":"../world-parts/8da028b270916694518619dcb4a941f2160cb1e33d2c23a2fe1d49204658ac43.bin","byteLength":15840},{"uri":"../world-parts/c2f99fb65c8e764f8a2546544009dc024b5346effe67d789fc80594bcf5ea2c0.bin","byteLength":18216},{"uri":"../world-parts/d6cf58b94d56bdd65531ce0bdf248b46e6b1f474d175469428677508901503fb.bin","byteLength":15840},{"uri":"../world-parts/da53ad6b011baf1b325d66115a05765e353bcc1b17574a84aedf0d88b3c7ad3d.bin","byteLength":10296},{"uri":"../world-parts/41a0ea4834ebc597b74c322625d4b3fb4d4337c8b31ded8edc607916fcb69662.bin","byteLength":12936},{"uri":"../world-parts/190836a5a05cd2db9b1c8844f8432f41f0403d878d66602a954f80a27c694e5e.bin","byteLength":18216}],"bufferViews":[{"buffer":0,"byteOffset":0,"byteLength":7416,"target":34962},{"buffer":0,"byteOffset":7416,"byteLength":7416,"target":34962},{"buffer":0,"byteOffset":14832,"byteLength":4944,"target":34962},{"buffer":0,"byteOffset":19776,"byteLength":7416,"target":34962},{"buffer":0,"byteOffset":27192,"byteLength":7416,"target":34962},{"buffer":0,"byteOffset":34608,"byteLength":7416,"target":34962},{"buffer":0,"byteOffset":42024,"byteLength":7416,"target":34962},{"buffer":0,"byteOffset":49440,"byteLength":2472,"target":34962},{"buffer":0,"byteOffset":51912,"byteLength":432,"target":34963},{"buffer":0,"byteOffset":52344,"byteLength":24,"target":34963},{"buffer":0,"byteOffset":52368,"byteLength":2016,"target":34963},{"buffer":1,"byteOffset":0,"byteLength":1764,"target":34962},{"buffer":1,"byteOffset":1764,"byteLength":1764,"target":34962},{"buffer":1,"byteOffset":3528,"byteLength":1176,"target":34962},{"buffer":1,"byteOffset":4704,"byteLength":1764,"target":34962},{"buffer":1,"byteOffset":6468,"byteLength":1764,"target":34962},{"buffer":1,"byteOffset":8232,"byteLength":1764,"target":34962},{"buffer":1,"byteOffset":9996,"byteLength":1764,"target":34962},{"buffer":1,"byteOffset":11760,"byteLength":588,"target":34962},{"buffer":1,"byteOffset":12348,"byteLength":588,"target":34963},{"buffer":2,"byteOffset":0,"byteLength":2160,"target":34962},{"buffer":2,"byteOffset":2160,"byteLength":2160,"target":34962},{"buffer":2,"byteOffset":4320,"byteLength":1440,"target":34962},{"buffer":2,"byteOffset":5760,"byteLength":2160,"target":34962},{"buffer":2,"byteOffset":7920,"byteLength":2160,"target":34962},{"buffer":2,"byteOffset":10080,"byteLength":2160,"target":34962},{"buffer":2,"byteOffset":12240,"byteLength":2160,"target":34962},{"buffer":2,"byteOffset":14400,"byteLength":720,"target":34962},{"buffer":2,"byteOffset":15120,"byteLength":720,"target":34963},{"buffer":3,"byteOffset":0,"byteLength":2484,"target":34962},{"buffer":3,"byteOffset":2484,"byteLength":2484,"target":34962},{"buffer":3,"byteOffset":4968,"byteLength":1656,"target":34962},{"buffer":3,"byteOffset":6624,"byteLength":2484,"target":34962},{"buffer":3,"byteOffset":9108,"byteLength":2484,"target":34962},{"buffer":3,"byteOffset":11592,"byteLength":2484,"target":34962},{"buffer":3,"byteOffset":14076,"byteLength":2484,"target":34962},{"buffer":3,"byteOffset":16560,"byteLength":828,"target":34962},{"buffer":3,"byteOffset":17388,"byteLength":828,"target":34963},{"buffer":4,"byteOffset":0,"byteLength":2160,"target":34962},{"buffer":4,"byteOffset":2160,"byteLength":2160,"target":34962},{"buffer":4,"byteOffset":4320,"byteLength":1440,"target":34962},{"buffer":4,"byteOffset":5760,"byteLength":2160,"target":34962},{"buffer":4,"byteOffset":7920,"byteLength":2160,"target":34962},{"buffer":4,"byteOffset":10080,"byteLength":2160,"target":34962},{"buffer":4,"byteOffset":12240,"byteLength":2160,"target":34962},{"buffer":4,"byteOffset":14400,"byteLength":720,"target":34962},{"buffer":4,"byteOffset":15120,"byteLength":720,"target":34963},{"buffer":5,"byteOffset":0,"byteLength":1404,"target":34962},{"buffer":5,"byteOffset":1404,"byteLength":1404,"target":34962},{"buffer":5,"byteOffset":2808,"byteLength":936,"target":34962},{"buffer":5,"byteOffset":3744,"byteLength":1404,"target":34962},{"buffer":5,"byteOffset":5148,"byteLength":1404,"target":34962},{"buffer":5,"byteOffset":6552,"byteLength":1404,"target":34962},{"buffer":5,"byteOffset":7956,"byteLength":1404,"target":34962},{"buffer":5,"byteOffset":9360,"byteLength":468,"target":34962},{"buffer":5,"byteOffset":9828,"byteLength":468,"target":34963},{"buffer":6,"byteOffset":0,"byteLength":1764,"target":34962},{"buffer":6,"byteOffset":1764,"byteLength":1764,"target":34962},{"buffer":6,"byteOffset":3528,"byteLength":1176,"target":34962},{"buffer":6,"byteOffset":4704,"byteLength":1764,"target":34962},{"buffer":6,"byteOffset":6468,"byteLength":1764,"target":34962},{"buffer":6,"byteOffset":8232,"byteLength":1764,"target":34962},{"buffer":6,"byteOffset":9996,"byteLength":1764,"target":34962},{"buffer":6,"byteOffset":11760,"byteLength":588,"target":34962},{"buffer":6,"byteOffset":12348,"byteLength":588,"target":34963},{"buffer":7,"byteOffset":0,"byteLength":2484,"target":34962},{"buffer":7,"byteOffset":2484,"byteLength":2484,"target":34962},{"buffer":7,"byteOffset":4968,"byteLength":1656,"target":34962},{"buffer":7,"byteOffset":6624,"byteLength":2484,"target":34962},{"buffer":7,"byteOffset":9108,"byteLength":2484,"target":34962},{"buffer":7,"byteOffset":11592,"byteLength":2484,"target":34962},{"buffer":7,"byteOffset":14076,"byteLength":2484,"target":34962},{"buffer":7,"byteOffset":16560,"byteLength":828,"target":34962},{"buffer":7,"byteOffset":17388,"byteLength":828,"target":34963}],"accessors":[{"bufferView":0,"componentType":5126,"count":618,"type":"VEC3","min":[12.149999618530273,-0.021243557333946228,19.89836311340332],"max":[14.850000381469727,4.105000019073486,22.024999618530273]},{"bufferView":1,"componentType":5126,"count":618,"type":"VEC3"},{"bufferView":2,"componentType":5126,"count":618,"type":"VEC2"},{"bufferView":3,"componentType":5126,"count":618,"type":"VEC3"},{"bufferView":4,"componentType":5126,"count":618,"type":"VEC3"},{"bufferView":5,"componentType":5126,"count":618,"type":"VEC3"},{"bufferView":6,"componentType":5126,"count":618,"type":"VEC3"},{"bufferView":7,"componentType":5126,"count":618,"type":"SCALAR"},{"bufferView":8,"componentType":5125,"count":108,"type":"SCALAR"},{"bufferView":9,"componentType":5125,"count":6,"type":"SCALAR"},{"bufferView":10,"componentType":5125,"count":504,"type":"SCALAR"},{"bufferView":11,"componentType":5126,"count":147,"type":"VEC3","min":[-0.5247570872306824,0.014999999664723873,-0.38042259216308594],"max":[0.4000000059604645,0.7900000214576721,0.4397660195827484]},{"bufferView":12,"componentType":5126,"count":147,"type":"VEC3"},{"bufferView":13,"componentType":5126,"count":147,"type":"VEC2"},{"bufferView":14,"componentType":5126,"count":147,"type":"VEC3"},{"bufferView":15,"componentType":5126,"count":147,"type":"VEC3"},{"bufferView":16,"componentType":5126,"count":147,"type":"VEC3"},{"bufferView":17,"componentType":5126,"count":147,"type":"VEC3"},{"bufferView":18,"componentType":5126,"count":147,"type":"SCALAR"},{"bufferView":19,"componentType":5125,"count":147,"type":"SCALAR"},{"bufferView":20,"componentType":5126,"count":180,"type":"VEC3","min":[-0.49000000953674316,0.014999999664723873,-0.4243524372577667],"max":[0.49000000953674316,0.4699999988079071,0.4243524372577667]},{"bufferView":21,"componentType":5126,"count":180,"type":"VEC3"},{"bufferView":22,"componentType":5126,"count":180,"type":"VEC2"},{"bufferView":23,"componentType":5126,"count":180,"type":"VEC3"},{"bufferView":24,"componentType":5126,"count":180,"type":"VEC3"},{"bufferView":25,"componentType":5126,"count":180,"type":"VEC3"},{"bufferView":26,"componentType":5126,"count":180,"type":"VEC3"},{"bufferView":27,"componentType":5126,"count":180,"type":"SCALAR"},{"bufferView":28,"componentType":5125,"count":180,"type":"SCALAR"},{"bufferView":29,"componentType":5126,"count":207,"type":"VEC3","min":[-0.4144456684589386,0.014999999664723873,-0.44846683740615845],"max":[0.5123918652534485,0.6399999856948853,0.44846683740615845]},{"bufferView":30,"componentType":5126,"count":207,"type":"VEC3"},{"bufferView":31,"componentType":5126,"count":207,"type":"VEC2"},{"bufferView":32,"componentType":5126,"count":207,"type":"VEC3"},{"bufferView":33,"componentType":5126,"count":207,"type":"VEC3"},{"bufferView":34,"componentType":5126,"count":207,"type":"VEC3"},{"bufferView":35,"componentType":5126,"count":207,"type":"VEC3"},{"bufferView":36,"componentType":5126,"count":207,"type":"SCALAR"},{"bufferView":37,"componentType":5125,"count":207,"type":"SCALAR"},{"bufferView":38,"componentType":5126,"count":180,"type":"VEC3","min":[-0.5,0.014999999664723873,-0.31011882424354553],"max":[0.5001188516616821,0.8600000143051147,0.3398558497428894]},{"bufferView":39,"componentType":5126,"count":180,"type":"VEC3"},{"bufferView":40,"componentType":5126,"count":180,"type":"VEC2"},{"bufferView":41,"componentType":5126,"count":180,"type":"VEC3"},{"bufferView":42,"componentType":5126,"count":180,"type":"VEC3"},{"bufferView":43,"componentType":5126,"count":180,"type":"VEC3"},{"bufferView":44,"componentType":5126,"count":180,"type":"VEC3"},{"bufferView":45,"componentType":5126,"count":180,"type":"SCALAR"},{"bufferView":46,"componentType":5125,"count":180,"type":"SCALAR"},{"bufferView":47,"componentType":5126,"count":117,"type":"VEC3","min":[-0.5400000214576721,0.014999999664723873,-0.41999998688697815],"max":[0.530580461025238,0.6800000071525574,0.41999998688697815]},{"bufferView":48,"componentType":5126,"count":117,"type":"VEC3"},{"bufferView":49,"componentType":5126,"count":117,"type":"VEC2"},{"bufferView":50,"componentType":5126,"count":117,"type":"VEC3"},{"bufferView":51,"componentType":5126,"count":117,"type":"VEC3"},{"bufferView":52,"componentType":5126,"count":117,"type":"VEC3"},{"bufferView":53,"componentType":5126,"count":117,"type":"VEC3"},{"bufferView":54,"componentType":5126,"count":117,"type":"SCALAR"},{"bufferView":55,"componentType":5125,"count":117,"type":"SCALAR"},{"bufferView":56,"componentType":5126,"count":147,"type":"VEC3","min":[-0.4207952618598938,0.014999999664723873,-0.29482752084732056],"max":[0.519493579864502,0.9599999785423279,0.3897172808647156]},{"bufferView":57,"componentType":5126,"count":147,"type":"VEC3"},{"bufferView":58,"componentType":5126,"count":147,"type":"VEC2"},{"bufferView":59,"componentType":5126,"count":147,"type":"VEC3"},{"bufferView":60,"componentType":5126,"count":147,"type":"VEC3"},{"bufferView":61,"componentType":5126,"count":147,"type":"VEC3"},{"bufferView":62,"componentType":5126,"count":147,"type":"VEC3"},{"bufferView":63,"componentType":5126,"count":147,"type":"SCALAR"},{"bufferView":64,"componentType":5125,"count":147,"type":"SCALAR"},{"bufferView":65,"componentType":5126,"count":207,"type":"VEC3","min":[-0.5464262962341309,0.014999999664723873,-0.42896828055381775],"max":[0.5409427285194397,0.5899999737739563,0.42896828055381775]},{"bufferView":66,"componentType":5126,"count":207,"type":"VEC3"},{"bufferView":67,"componentType":5126,"count":207,"type":"VEC2"},{"bufferView":68,"componentType":5126,"count":207,"type":"VEC3"},{"bufferView":69,"componentType":5126,"count":207,"type":"VEC3"},{"bufferView":70,"componentType":5126,"count":207,"type":"VEC3"},{"bufferView":71,"componentType":5126,"count":207,"type":"VEC3"},{"bufferView":72,"componentType":5126,"count":207,"type":"SCALAR"},{"bufferView":73,"componentType":5125,"count":207,"type":"SCALAR"}],"meshes":[{"name":"2e725e11fc9579c0b82d02b8beeacbf3aa87d15795e288a393a795520e3e0910","primitives":[{"attributes":{"POSITION":0,"NORMAL":1,"TEXCOORD_0":2,"COLOR_0":3,"_VELDREN_NORMAL":4,"_VELDREN_COLOR":5,"_VELDREN_FALLBACK":6,"_VELDREN_MATERIAL":7},"indices":8,"material":0,"extras":{"mixedAtlasFallback":false}},{"attributes":{"POSITION":0,"NORMAL":1,"TEXCOORD_0":2,"COLOR_0":3,"_VELDREN_NORMAL":4,"_VELDREN_COLOR":5,"_VELDREN_FALLBACK":6,"_VELDREN_MATERIAL":7},"indices":9,"material":1,"extras":{"mixedAtlasFallback":false}},{"attributes":{"POSITION":0,"NORMAL":1,"TEXCOORD_0":2,"COLOR_0":3,"_VELDREN_NORMAL":4,"_VELDREN_COLOR":5,"_VELDREN_FALLBACK":6,"_VELDREN_MATERIAL":7},"indices":10,"material":2,"extras":{"mixedAtlasFallback":false}}]},{"name":"0ebd686c038365e5ed11b51921b90ade9f303127887d4c318d91c7da438733d9","primitives":[{"attributes":{"POSITION":11,"NORMAL":12,"TEXCOORD_0":13,"COLOR_0":14,"_VELDREN_NORMAL":15,"_VELDREN_COLOR":16,"_VELDREN_FALLBACK":17,"_VELDREN_MATERIAL":18},"indices":19,"material":3,"extras":{"mixedAtlasFallback":false}}]},{"name":"8da028b270916694518619dcb4a941f2160cb1e33d2c23a2fe1d49204658ac43","primitives":[{"attributes":{"POSITION":20,"NORMAL":21,"TEXCOORD_0":22,"COLOR_0":23,"_VELDREN_NORMAL":24,"_VELDREN_COLOR":25,"_VELDREN_FALLBACK":26,"_VELDREN_MATERIAL":27},"indices":28,"material":4,"extras":{"mixedAtlasFallback":false}}]},{"name":"c2f99fb65c8e764f8a2546544009dc024b5346effe67d789fc80594bcf5ea2c0","primitives":[{"attributes":{"POSITION":29,"NORMAL":30,"TEXCOORD_0":31,"COLOR_0":32,"_VELDREN_NORMAL":33,"_VELDREN_COLOR":34,"_VELDREN_FALLBACK":35,"_VELDREN_MATERIAL":36},"indices":37,"material":5,"extras":{"mixedAtlasFallback":false}}]},{"name":"d6cf58b94d56bdd65531ce0bdf248b46e6b1f474d175469428677508901503fb","primitives":[{"attributes":{"POSITION":38,"NORMAL":39,"TEXCOORD_0":40,"COLOR_0":41,"_VELDREN_NORMAL":42,"_VELDREN_COLOR":43,"_VELDREN_FALLBACK":44,"_VELDREN_MATERIAL":45},"indices":46,"material":6,"extras":{"mixedAtlasFallback":false}}]},{"name":"da53ad6b011baf1b325d66115a05765e353bcc1b17574a84aedf0d88b3c7ad3d","primitives":[{"attributes":{"POSITION":47,"NORMAL":48,"TEXCOORD_0":49,"COLOR_0":50,"_VELDREN_NORMAL":51,"_VELDREN_COLOR":52,"_VELDREN_FALLBACK":53,"_VELDREN_MATERIAL":54},"indices":55,"material":7,"extras":{"mixedAtlasFallback":false}}]},{"name":"41a0ea4834ebc597b74c322625d4b3fb4d4337c8b31ded8edc607916fcb69662","primitives":[{"attributes":{"POSITION":56,"NORMAL":57,"TEXCOORD_0":58,"COLOR_0":59,"_VELDREN_NORMAL":60,"_VELDREN_COLOR":61,"_VELDREN_FALLBACK":62,"_VELDREN_MATERIAL":63},"indices":64,"material":8,"extras":{"mixedAtlasFallback":false}}]},{"name":"190836a5a05cd2db9b1c8844f8432f41f0403d878d66602a954f80a27c694e5e","primitives":[{"attributes":{"POSITION":65,"NORMAL":66,"TEXCOORD_0":67,"COLOR_0":68,"_VELDREN_NORMAL":69,"_VELDREN_COLOR":70,"_VELDREN_FALLBACK":71,"_VELDREN_MATERIAL":72},"indices":73,"material":9,"extras":{"mixedAtlasFallback":false}}]}],"materials":[{"name":"legacy-material-18","pbrMetallicRoughness":{"baseColorFactor":[1,1,1,1],"metallicFactor":0,"roughnessFactor":1},"doubleSided":true,"extras":{"legacyMaterial":18,"legacyShader":"dist/renderer-gl.js","limitation":"Browser procedural material not implemented by this glTF export; source/base attributes retained."}},{"name":"legacy-material-7","pbrMetallicRoughness":{"baseColorFactor":[1,1,1,1],"metallicFactor":0,"roughnessFactor":1},"doubleSided":true,"extras":{"legacyMaterial":7,"legacyShader":"dist/renderer-gl.js","limitation":"Browser procedural material not implemented by this glTF export; source/base attributes retained."}},{"name":"legacy-material-20","pbrMetallicRoughness":{"baseColorFactor":[1,1,1,1],"metallicFactor":0,"roughnessFactor":1,"baseColorTexture":{"index":0}},"doubleSided":true,"extras":{"legacyMaterial":20,"legacyShader":"dist/renderer-gl.js"}},{"name":"legacy-material-12","pbrMetallicRoughness":{"baseColorFactor":[1,1,1,1],"metallicFactor":0,"roughnessFactor":1},"doubleSided":true,"extras":{"legacyMaterial":12,"legacyShader":"dist/renderer-gl.js","limitation":"Browser procedural material not implemented by this glTF export; source/base attributes retained."}},{"name":"legacy-material-12","pbrMetallicRoughness":{"baseColorFactor":[1,1,1,1],"metallicFactor":0,"roughnessFactor":1},"doubleSided":true,"extras":{"legacyMaterial":12,"legacyShader":"dist/renderer-gl.js","limitation":"Browser procedural material not implemented by this glTF export; source/base attributes retained."}},{"name":"legacy-material-12","pbrMetallicRoughness":{"baseColorFactor":[1,1,1,1],"metallicFactor":0,"roughnessFactor":1},"doubleSided":true,"extras":{"legacyMaterial":12,"legacyShader":"dist/renderer-gl.js","limitation":"Browser procedural material not implemented by this glTF export; source/base attributes retained."}},{"name":"legacy-material-12","pbrMetallicRoughness":{"baseColorFactor":[1,1,1,1],"metallicFactor":0,"roughnessFactor":1},"doubleSided":true,"extras":{"legacyMaterial":12,"legacyShader":"dist/renderer-gl.js","limitation":"Browser procedural material not implemented by this glTF export; source/base attributes retained."}},{"name":"legacy-material-12","pbrMetallicRoughness":{"baseColorFactor":[1,1,1,1],"metallicFactor":0,"roughnessFactor":1},"doubleSided":true,"extras":{"legacyMaterial":12,"legacyShader":"dist/renderer-gl.js","limitation":"Browser procedural material not implemented by this glTF export; source/base attributes retained."}},{"name":"legacy-material-12","pbrMetallicRoughness":{"baseColorFactor":[1,1,1,1],"metallicFactor":0,"roughnessFactor":1},"doubleSided":true,"extras":{"legacyMaterial":12,"legacyShader":"dist/renderer-gl.js","limitation":"Browser procedural material not implemented by this glTF export; source/base attributes retained."}},{"name":"legacy-material-12","pbrMetallicRoughness":{"baseColorFactor":[1,1,1,1],"metallicFactor":0,"roughnessFactor":1},"doubleSided":true,"extras":{"legacyMaterial":12,"legacyShader":"dist/renderer-gl.js","limitation":"Browser procedural material not implemented by this glTF export; source/base attributes retained."}}],"images":[{"name":"atlas-00","uri":"../../textures/atlas/tile-00.png"}],"textures":[{"source":0,"sampler":0}],"samplers":[{"magFilter":9729,"minFilter":9729,"wrapS":10497,"wrapT":10497}]}
