{"asset":{"version":"2.0","generator":"Veldren static world recovery"},"scene":0,"scenes":[{"nodes":[0,2]}],"extras":{"sourceScene":"realm_moonwillow_4","notVervesisScene":true,"gameplayIdentityExternal":true,"limitations":["Terrain stored separately.","Dynamic actors, fires, gates, crops, fish, effects and ground cover are not baked.","Roofs are closed; browser procedural materials require native support."]},"nodes":[{"name":"Exit to the road","children":[1],"extras":{"veldrenEntityKey":"realm_moonwillow_4:object:2242"}},{"mesh":0,"matrix":[1.0,0.0,0.0,0.0,0.0,1.0,0.0,0.0,0.0,0.0,1.0,0.0,0.0,0.0,0.0,1.0]},{"name":"Altar","children":[3,4,5,6],"extras":{"veldrenEntityKey":"realm_moonwillow_4:object:2244"}},{"mesh":1,"matrix":[0.19353159479797102,0.0,0.0,0.0,0.0,0.19353159479797102,0.0,0.0,0.0,0.0,0.19353159479797102,0.0,8.499985370251828,0.8804837372789059,2.4999852548980086,1.0]},{"mesh":2,"matrix":[0.7665253369981578,0.0,0.0,0.0,0.0,0.7665253369981578,0.0,0.0,0.0,0.0,0.7665253369981578,0.0,8.045128220123395,0.878879993192989,2.5,1.0]},{"mesh":2,"matrix":[0.7665253369981578,0.0,0.0,0.0,0.0,0.7665253369981578,0.0,0.0,0.0,0.0,0.7665253369981578,0.0,9.025128220123396,0.878879993192989,2.5,1.0]},{"mesh":3,"matrix":[1.0,0.0,0.0,0.0,0.0,1.0,0.0,0.0,0.0,0.0,1.0,0.0,0.0,0.0,0.0,1.0]}],"buffers":[{"uri":"../world-parts/b932791e2e642917e7b6c7fe9f891673e9680c5f2345e784416e4144e1ee92cd.bin","byteLength":3168},{"uri":"../world-parts/8c606c767d7974315c7bb6356ec371eba10870d54f739fa0df01dc9a7e966490.bin","byteLength":157080},{"uri":"../world-parts/42a4131a7f9fe484a70590f8dd3499998303718cfb71bec957ec5894fb0867bf.bin","byteLength":53532},{"uri":"../world-parts/f9c29c267ff746eeb73387aa673a406f3a8f3647d501b961529ade5d0048b72e.bin","byteLength":20064}],"bufferViews":[{"buffer":0,"byteOffset":0,"byteLength":432,"target":34962},{"buffer":0,"byteOffset":432,"byteLength":432,"target":34962},{"buffer":0,"byteOffset":864,"byteLength":288,"target":34962},{"buffer":0,"byteOffset":1152,"byteLength":432,"target":34962},{"buffer":0,"byteOffset":1584,"byteLength":432,"target":34962},{"buffer":0,"byteOffset":2016,"byteLength":432,"target":34962},{"buffer":0,"byteOffset":2448,"byteLength":432,"target":34962},{"buffer":0,"byteOffset":2880,"byteLength":144,"target":34962},{"buffer":0,"byteOffset":3024,"byteLength":144,"target":34963},{"buffer":1,"byteOffset":0,"byteLength":19824,"target":34962},{"buffer":1,"byteOffset":19824,"byteLength":19824,"target":34962},{"buffer":1,"byteOffset":39648,"byteLength":13216,"target":34962},{"buffer":1,"byteOffset":52864,"byteLength":19824,"target":34962},{"buffer":1,"byteOffset":72688,"byteLength":19824,"target":34962},{"buffer":1,"byteOffset":92512,"byteLength":19824,"target":34962},{"buffer":1,"byteOffset":112336,"byteLength":19824,"target":34962},{"buffer":1,"byteOffset":132160,"byteLength":6608,"target":34962},{"buffer":1,"byteOffset":138768,"byteLength":18312,"target":34963},{"buffer":2,"byteOffset":0,"byteLength":6396,"target":34962},{"buffer":2,"byteOffset":6396,"byteLength":6396,"target":34962},{"buffer":2,"byteOffset":12792,"byteLength":4264,"target":34962},{"buffer":2,"byteOffset":17056,"byteLength":6396,"target":34962},{"buffer":2,"byteOffset":23452,"byteLength":6396,"target":34962},{"buffer":2,"byteOffset":29848,"byteLength":6396,"target":34962},{"buffer":2,"byteOffset":36244,"byteLength":6396,"target":34962},{"buffer":2,"byteOffset":42640,"byteLength":2132,"target":34962},{"buffer":2,"byteOffset":44772,"byteLength":8760,"target":34963},{"buffer":3,"byteOffset":0,"byteLength":2736,"target":34962},{"buffer":3,"byteOffset":2736,"byteLength":2736,"target":34962},{"buffer":3,"byteOffset":5472,"byteLength":1824,"target":34962},{"buffer":3,"byteOffset":7296,"byteLength":2736,"target":34962},{"buffer":3,"byteOffset":10032,"byteLength":2736,"target":34962},{"buffer":3,"byteOffset":12768,"byteLength":2736,"target":34962},{"buffer":3,"byteOffset":15504,"byteLength":2736,"target":34962},{"buffer":3,"byteOffset":18240,"byteLength":912,"target":34962},{"buffer":3,"byteOffset":19152,"byteLength":912,"target":34963}],"accessors":[{"bufferView":0,"componentType":5126,"count":36,"type":"VEC3","min":[8.100000381469727,0.0,12.225000381469727],"max":[8.899999618530273,0.05000000074505806,12.774999618530273]},{"bufferView":1,"componentType":5126,"count":36,"type":"VEC3"},{"bufferView":2,"componentType":5126,"count":36,"type":"VEC2"},{"bufferView":3,"componentType":5126,"count":36,"type":"VEC3"},{"bufferView":4,"componentType":5126,"count":36,"type":"VEC3"},{"bufferView":5,"componentType":5126,"count":36,"type":"VEC3"},{"bufferView":6,"componentType":5126,"count":36,"type":"VEC3"},{"bufferView":7,"componentType":5126,"count":36,"type":"SCALAR"},{"bufferView":8,"componentType":5125,"count":36,"type":"SCALAR"},{"bufferView":9,"componentType":5126,"count":1652,"type":"VEC3","min":[-0.2534816861152649,-0.00249952613376081,-0.2555173337459564],"max":[0.25363287329673767,1.444292664527893,0.2556697130203247]},{"bufferView":10,"componentType":5126,"count":1652,"type":"VEC3"},{"bufferView":11,"componentType":5126,"count":1652,"type":"VEC2"},{"bufferView":12,"componentType":5126,"count":1652,"type":"VEC3"},{"bufferView":13,"componentType":5126,"count":1652,"type":"VEC3"},{"bufferView":14,"componentType":5126,"count":1652,"type":"VEC3"},{"bufferView":15,"componentType":5126,"count":1652,"type":"VEC3"},{"bufferView":16,"componentType":5126,"count":1652,"type":"SCALAR"},{"bufferView":17,"componentType":5125,"count":4578,"type":"SCALAR"},{"bufferView":18,"componentType":5126,"count":533,"type":"VEC3","min":[-0.1762866973876953,0.0014611477963626385,-0.0896759033203125],"max":[0.08463096618652344,0.15667979419231415,0.0896759033203125]},{"bufferView":19,"componentType":5126,"count":533,"type":"VEC3"},{"bufferView":20,"componentType":5126,"count":533,"type":"VEC2"},{"bufferView":21,"componentType":5126,"count":533,"type":"VEC3"},{"bufferView":22,"componentType":5126,"count":533,"type":"VEC3"},{"bufferView":23,"componentType":5126,"count":533,"type":"VEC3"},{"bufferView":24,"componentType":5126,"count":533,"type":"VEC3"},{"bufferView":25,"componentType":5126,"count":533,"type":"SCALAR"},{"bufferView":26,"componentType":5125,"count":2190,"type":"SCALAR"},{"bufferView":27,"componentType":5126,"count":228,"type":"VEC3","min":[7.824999809265137,0.004999999888241291,2.109999895095825],"max":[9.175000190734863,0.875,2.890000104904175]},{"bufferView":28,"componentType":5126,"count":228,"type":"VEC3"},{"bufferView":29,"componentType":5126,"count":228,"type":"VEC2"},{"bufferView":30,"componentType":5126,"count":228,"type":"VEC3"},{"bufferView":31,"componentType":5126,"count":228,"type":"VEC3"},{"bufferView":32,"componentType":5126,"count":228,"type":"VEC3"},{"bufferView":33,"componentType":5126,"count":228,"type":"VEC3"},{"bufferView":34,"componentType":5126,"count":228,"type":"SCALAR"},{"bufferView":35,"componentType":5125,"count":228,"type":"SCALAR"}],"meshes":[{"name":"b932791e2e642917e7b6c7fe9f891673e9680c5f2345e784416e4144e1ee92cd","primitives":[{"attributes":{"POSITION":0,"NORMAL":1,"TEXCOORD_0":2,"COLOR_0":3,"_VELDREN_NORMAL":4,"_VELDREN_COLOR":5,"_VELDREN_FALLBACK":6,"_VELDREN_MATERIAL":7},"indices":8,"material":0,"extras":{"mixedAtlasFallback":false}}]},{"name":"8c606c767d7974315c7bb6356ec371eba10870d54f739fa0df01dc9a7e966490","primitives":[{"attributes":{"POSITION":9,"NORMAL":10,"TEXCOORD_0":11,"COLOR_0":12,"_VELDREN_NORMAL":13,"_VELDREN_COLOR":14,"_VELDREN_FALLBACK":15,"_VELDREN_MATERIAL":16},"indices":17,"material":1,"extras":{"mixedAtlasFallback":false}}]},{"name":"42a4131a7f9fe484a70590f8dd3499998303718cfb71bec957ec5894fb0867bf","primitives":[{"attributes":{"POSITION":18,"NORMAL":19,"TEXCOORD_0":20,"COLOR_0":21,"_VELDREN_NORMAL":22,"_VELDREN_COLOR":23,"_VELDREN_FALLBACK":24,"_VELDREN_MATERIAL":25},"indices":26,"material":2,"extras":{"mixedAtlasFallback":false}}]},{"name":"f9c29c267ff746eeb73387aa673a406f3a8f3647d501b961529ade5d0048b72e","primitives":[{"attributes":{"POSITION":27,"NORMAL":28,"TEXCOORD_0":29,"COLOR_0":30,"_VELDREN_NORMAL":31,"_VELDREN_COLOR":32,"_VELDREN_FALLBACK":33,"_VELDREN_MATERIAL":34},"indices":35,"material":3,"extras":{"mixedAtlasFallback":false}}]}],"materials":[{"name":"legacy-material-20","pbrMetallicRoughness":{"baseColorFactor":[1,1,1,1],"metallicFactor":0,"roughnessFactor":1,"baseColorTexture":{"index":0}},"doubleSided":true,"extras":{"legacyMaterial":20,"legacyShader":"dist/renderer-gl.js"}},{"name":"legacy-material-43","pbrMetallicRoughness":{"baseColorFactor":[1,1,1,1],"metallicFactor":0,"roughnessFactor":1,"baseColorTexture":{"index":1}},"doubleSided":true,"extras":{"legacyMaterial":43,"legacyShader":"dist/renderer-gl.js"}},{"name":"legacy-material-42","pbrMetallicRoughness":{"baseColorFactor":[1,1,1,1],"metallicFactor":0,"roughnessFactor":1,"baseColorTexture":{"index":2}},"doubleSided":true,"extras":{"legacyMaterial":42,"legacyShader":"dist/renderer-gl.js"}},{"name":"legacy-material-18","pbrMetallicRoughness":{"baseColorFactor":[1,1,1,1],"metallicFactor":0,"roughnessFactor":1},"doubleSided":true,"extras":{"legacyMaterial":18,"legacyShader":"dist/renderer-gl.js","limitation":"Browser procedural material not implemented by this glTF export; source/base attributes retained."}}],"images":[{"name":"atlas-00","uri":"../../textures/atlas/tile-00.png"},{"name":"atlas-23","uri":"../../textures/atlas/tile-23.png"},{"name":"atlas-22","uri":"../../textures/atlas/tile-22.png"}],"textures":[{"source":0,"sampler":0},{"source":1,"sampler":1},{"source":2,"sampler":2}],"samplers":[{"magFilter":9729,"minFilter":9729,"wrapS":10497,"wrapT":10497},{"magFilter":9729,"minFilter":9729,"wrapS":10497,"wrapT":10497},{"magFilter":9729,"minFilter":9729,"wrapS":10497,"wrapT":10497}]}
