{"asset":{"version":"2.0","generator":"Veldren static world recovery"},"scene":0,"scenes":[{"nodes":[0,2,4,9]}],"extras":{"sourceScene":"realm_moonwillow_9","notVervesisScene":true,"gameplayIdentityExternal":true,"limitations":["Terrain stored separately.","Dynamic actors, fires, gates, crops, fish, effects and ground cover are not baked.","Roofs are closed; browser procedural materials require native support."]},"nodes":[{"name":"Exit to the road","children":[1],"extras":{"veldrenEntityKey":"realm_moonwillow_9:object:2271"}},{"mesh":0,"matrix":[1.0,0.0,0.0,0.0,0.0,1.0,0.0,0.0,0.0,0.0,1.0,0.0,0.0,0.0,0.0,1.0]},{"name":"Bed","children":[3],"extras":{"veldrenEntityKey":"realm_moonwillow_9:object:2273"}},{"mesh":1,"matrix":[1.0185025013877824,0.0,0.0,0.0,0.0,1.0185025013877824,0.0,0.0,0.0,0.0,1.0185025013877824,0.0,3.5,-0.0004617108858158083,2.43,1.0]},{"name":"Dining table","children":[5,6,7,8],"extras":{"veldrenEntityKey":"realm_moonwillow_9:object:2274"}},{"mesh":2,"matrix":[0.9588829055315417,0.0,0.0,0.0,0.0,0.9588829055315417,0.0,0.0,0.0,0.0,0.9588829055315417,0.0,5.5,-0.001210940581595084,7.493915312740371,1.0]},{"mesh":3,"matrix":[0.8903870142199419,0.0,0.0,0.0,0.0,0.8903870142199419,0.0,0.0,0.0,0.0,0.8903870142199419,0.0,5.159900358818818,0.7806725885457619,7.499999980098299,1.0]},{"mesh":4,"matrix":[0.9245011738728264,0.0,0.0,0.0,0.0,0.9245011738728264,0.0,0.0,0.0,0.0,0.9245011738728264,0.0,5.776267638674035,0.7842922688491613,7.381239005458748,1.0]},{"mesh":5,"matrix":[1.8683322315556792,0.0,0.0,0.0,0.0,1.8683322315556792,0.0,0.0,0.0,0.0,1.8683322315556792,0.0,5.585621678404976,0.7772700904769891,7.5,1.0]},{"name":"Bookcase","children":[10,11,12,13],"extras":{"veldrenEntityKey":"realm_moonwillow_9:object:2275"}},{"mesh":6,"matrix":[4.331025043099047e-17,0.0,0.7073100209236145,0.0,0.0,0.7073100209236145,0.0,0.0,-0.7073100209236145,0.0,4.331025043099047e-17,0.0,14.709999084472656,0.01229518000036478,7.5,1.0]},{"mesh":7,"matrix":[5.953652311185118e-17,0.0,0.972305178642273,0.0,0.0,0.972305178642273,0.0,0.0,-0.972305178642273,0.0,5.953652311185118e-17,0.0,14.647027969360352,0.3037167191505432,7.51128625869751,1.0]},{"mesh":7,"matrix":[5.953652311185118e-17,0.0,0.972305178642273,0.0,0.0,0.972305178642273,0.0,0.0,-0.972305178642273,0.0,5.953652311185118e-17,0.0,14.647027969360352,0.7837167382240295,7.51128625869751,1.0]},{"mesh":7,"matrix":[5.953652311185118e-17,0.0,0.972305178642273,0.0,0.0,0.972305178642273,0.0,0.0,-0.972305178642273,0.0,5.953652311185118e-17,0.0,14.647027969360352,1.2837166786193848,7.51128625869751,1.0]}],"buffers":[{"uri":"../world-parts/b932791e2e642917e7b6c7fe9f891673e9680c5f2345e784416e4144e1ee92cd.bin","byteLength":3168},{"uri":"../world-parts/9a2512b436b63bb7ea06e287302379ec7cd545afa3634b62d51eac88505a4bb8.bin","byteLength":161496},{"uri":"../world-parts/f4b04e3619cf212187b96076e7e940da50275113f8897ecbcd59f59213422623.bin","byteLength":117840},{"uri":"../world-parts/1f7416da9fb55b4744e69d48ce26911a903332abddb1946bc3f9f1cd1766d723.bin","byteLength":17184},{"uri":"../world-parts/2bed24ed427da899c64f0c99a7488970d5ac0a3dd007e3dcf039fbfe4113db36.bin","byteLength":31776},{"uri":"../world-parts/42a4131a7f9fe484a70590f8dd3499998303718cfb71bec957ec5894fb0867bf.bin","byteLength":53532},{"uri":"../world-parts/cb9df46869a74c2b21acdc562e58e1fd0bcaa177f7275e87e50e477c73f4776f.bin","byteLength":193944},{"uri":"../world-parts/f52aa0036ce251ef1eb08d3699186b9705c3883af59782ac743cf0836182a57c.bin","byteLength":53376}],"bufferViews":[{"buffer":0,"byteOffset":0,"byteLength":432,"target":34962},{"buffer":0,"byteOffset":432,"byteLength":432,"target":34962},{"buffer":0,"byteOffset":864,"byteLength":288,"target":34962},{"buffer":0,"byteOffset":1152,"byteLength":432,"target":34962},{"buffer":0,"byteOffset":1584,"byteLength":432,"target":34962},{"buffer":0,"byteOffset":2016,"byteLength":432,"target":34962},{"buffer":0,"byteOffset":2448,"byteLength":432,"target":34962},{"buffer":0,"byteOffset":2880,"byteLength":144,"target":34962},{"buffer":0,"byteOffset":3024,"byteLength":144,"target":34963},{"buffer":1,"byteOffset":0,"byteLength":20328,"target":34962},{"buffer":1,"byteOffset":20328,"byteLength":20328,"target":34962},{"buffer":1,"byteOffset":40656,"byteLength":13552,"target":34962},{"buffer":1,"byteOffset":54208,"byteLength":20328,"target":34962},{"buffer":1,"byteOffset":74536,"byteLength":20328,"target":34962},{"buffer":1,"byteOffset":94864,"byteLength":20328,"target":34962},{"buffer":1,"byteOffset":115192,"byteLength":20328,"target":34962},{"buffer":1,"byteOffset":135520,"byteLength":6776,"target":34962},{"buffer":1,"byteOffset":142296,"byteLength":11952,"target":34963},{"buffer":1,"byteOffset":154248,"byteLength":2112,"target":34963},{"buffer":1,"byteOffset":156360,"byteLength":5136,"target":34963},{"buffer":2,"byteOffset":0,"byteLength":15144,"target":34962},{"buffer":2,"byteOffset":15144,"byteLength":15144,"target":34962},{"buffer":2,"byteOffset":30288,"byteLength":10096,"target":34962},{"buffer":2,"byteOffset":40384,"byteLength":15144,"target":34962},{"buffer":2,"byteOffset":55528,"byteLength":15144,"target":34962},{"buffer":2,"byteOffset":70672,"byteLength":15144,"target":34962},{"buffer":2,"byteOffset":85816,"byteLength":15144,"target":34962},{"buffer":2,"byteOffset":100960,"byteLength":5048,"target":34962},{"buffer":2,"byteOffset":106008,"byteLength":11352,"target":34963},{"buffer":2,"byteOffset":117360,"byteLength":480,"target":34963},{"buffer":3,"byteOffset":0,"byteLength":2160,"target":34962},{"buffer":3,"byteOffset":2160,"byteLength":2160,"target":34962},{"buffer":3,"byteOffset":4320,"byteLength":1440,"target":34962},{"buffer":3,"byteOffset":5760,"byteLength":2160,"target":34962},{"buffer":3,"byteOffset":7920,"byteLength":2160,"target":34962},{"buffer":3,"byteOffset":10080,"byteLength":2160,"target":34962},{"buffer":3,"byteOffset":12240,"byteLength":2160,"target":34962},{"buffer":3,"byteOffset":14400,"byteLength":720,"target":34962},{"buffer":3,"byteOffset":15120,"byteLength":2064,"target":34963},{"buffer":4,"byteOffset":0,"byteLength":4080,"target":34962},{"buffer":4,"byteOffset":4080,"byteLength":4080,"target":34962},{"buffer":4,"byteOffset":8160,"byteLength":2720,"target":34962},{"buffer":4,"byteOffset":10880,"byteLength":4080,"target":34962},{"buffer":4,"byteOffset":14960,"byteLength":4080,"target":34962},{"buffer":4,"byteOffset":19040,"byteLength":4080,"target":34962},{"buffer":4,"byteOffset":23120,"byteLength":4080,"target":34962},{"buffer":4,"byteOffset":27200,"byteLength":1360,"target":34962},{"buffer":4,"byteOffset":28560,"byteLength":1464,"target":34963},{"buffer":4,"byteOffset":30024,"byteLength":1752,"target":34963},{"buffer":5,"byteOffset":0,"byteLength":6396,"target":34962},{"buffer":5,"byteOffset":6396,"byteLength":6396,"target":34962},{"buffer":5,"byteOffset":12792,"byteLength":4264,"target":34962},{"buffer":5,"byteOffset":17056,"byteLength":6396,"target":34962},{"buffer":5,"byteOffset":23452,"byteLength":6396,"target":34962},{"buffer":5,"byteOffset":29848,"byteLength":6396,"target":34962},{"buffer":5,"byteOffset":36244,"byteLength":6396,"target":34962},{"buffer":5,"byteOffset":42640,"byteLength":2132,"target":34962},{"buffer":5,"byteOffset":44772,"byteLength":8760,"target":34963},{"buffer":6,"byteOffset":0,"byteLength":24024,"target":34962},{"buffer":6,"byteOffset":24024,"byteLength":24024,"target":34962},{"buffer":6,"byteOffset":48048,"byteLength":16016,"target":34962},{"buffer":6,"byteOffset":64064,"byteLength":24024,"target":34962},{"buffer":6,"byteOffset":88088,"byteLength":24024,"target":34962},{"buffer":6,"byteOffset":112112,"byteLength":24024,"target":34962},{"buffer":6,"byteOffset":136136,"byteLength":24024,"target":34962},{"buffer":6,"byteOffset":160160,"byteLength":8008,"target":34962},{"buffer":6,"byteOffset":168168,"byteLength":5712,"target":34963},{"buffer":6,"byteOffset":173880,"byteLength":20064,"target":34963},{"buffer":7,"byteOffset":0,"byteLength":6912,"target":34962},{"buffer":7,"byteOffset":6912,"byteLength":6912,"target":34962},{"buffer":7,"byteOffset":13824,"byteLength":4608,"target":34962},{"buffer":7,"byteOffset":18432,"byteLength":6912,"target":34962},{"buffer":7,"byteOffset":25344,"byteLength":6912,"target":34962},{"buffer":7,"byteOffset":32256,"byteLength":6912,"target":34962},{"buffer":7,"byteOffset":39168,"byteLength":6912,"target":34962},{"buffer":7,"byteOffset":46080,"byteLength":2304,"target":34962},{"buffer":7,"byteOffset":48384,"byteLength":4992,"target":34963}],"accessors":[{"bufferView":0,"componentType":5126,"count":36,"type":"VEC3","min":[8.100000381469727,0.0,12.225000381469727],"max":[8.899999618530273,0.05000000074505806,12.774999618530273]},{"bufferView":1,"componentType":5126,"count":36,"type":"VEC3"},{"bufferView":2,"componentType":5126,"count":36,"type":"VEC2"},{"bufferView":3,"componentType":5126,"count":36,"type":"VEC3"},{"bufferView":4,"componentType":5126,"count":36,"type":"VEC3"},{"bufferView":5,"componentType":5126,"count":36,"type":"VEC3"},{"bufferView":6,"componentType":5126,"count":36,"type":"VEC3"},{"bufferView":7,"componentType":5126,"count":36,"type":"SCALAR"},{"bufferView":8,"componentType":5125,"count":36,"type":"SCALAR"},{"bufferView":9,"componentType":5126,"count":1694,"type":"VEC3","min":[-0.9378617405891418,0.0004533232713583857,-1.205949068069458],"max":[0.9378617405891418,0.8055568933486938,1.205949068069458]},{"bufferView":10,"componentType":5126,"count":1694,"type":"VEC3"},{"bufferView":11,"componentType":5126,"count":1694,"type":"VEC2"},{"bufferView":12,"componentType":5126,"count":1694,"type":"VEC3"},{"bufferView":13,"componentType":5126,"count":1694,"type":"VEC3"},{"bufferView":14,"componentType":5126,"count":1694,"type":"VEC3"},{"bufferView":15,"componentType":5126,"count":1694,"type":"VEC3"},{"bufferView":16,"componentType":5126,"count":1694,"type":"SCALAR"},{"bufferView":17,"componentType":5125,"count":2988,"type":"SCALAR"},{"bufferView":18,"componentType":5125,"count":528,"type":"SCALAR"},{"bufferView":19,"componentType":5125,"count":1284,"type":"SCALAR"},{"bufferView":20,"componentType":5126,"count":1262,"type":"VEC3","min":[-1.4242464303970337,0.001262865960597992,-0.5419855713844299],"max":[1.4242464303970337,0.8147094249725342,0.5546767711639404]},{"bufferView":21,"componentType":5126,"count":1262,"type":"VEC3"},{"bufferView":22,"componentType":5126,"count":1262,"type":"VEC2"},{"bufferView":23,"componentType":5126,"count":1262,"type":"VEC3"},{"bufferView":24,"componentType":5126,"count":1262,"type":"VEC3"},{"bufferView":25,"componentType":5126,"count":1262,"type":"VEC3"},{"bufferView":26,"componentType":5126,"count":1262,"type":"VEC3"},{"bufferView":27,"componentType":5126,"count":1262,"type":"SCALAR"},{"bufferView":28,"componentType":5125,"count":2838,"type":"SCALAR"},{"bufferView":29,"componentType":5125,"count":120,"type":"SCALAR"},{"bufferView":30,"componentType":5126,"count":180,"type":"VEC3","min":[-0.16652752459049225,-0.0007553889881819487,-0.16846604645252228],"max":[0.16675134003162384,0.01940305158495903,0.16846609115600586]},{"bufferView":31,"componentType":5126,"count":180,"type":"VEC3"},{"bufferView":32,"componentType":5126,"count":180,"type":"VEC2"},{"bufferView":33,"componentType":5126,"count":180,"type":"VEC3"},{"bufferView":34,"componentType":5126,"count":180,"type":"VEC3"},{"bufferView":35,"componentType":5126,"count":180,"type":"VEC3"},{"bufferView":36,"componentType":5126,"count":180,"type":"VEC3"},{"bufferView":37,"componentType":5126,"count":180,"type":"SCALAR"},{"bufferView":38,"componentType":5125,"count":516,"type":"SCALAR"},{"bufferView":39,"componentType":5126,"count":340,"type":"VEC3","min":[-0.07037083804607391,-0.004642794374376535,-0.07473406940698624],"max":[0.12171173840761185,0.1792401522397995,0.0720536932349205]},{"bufferView":40,"componentType":5126,"count":340,"type":"VEC3"},{"bufferView":41,"componentType":5126,"count":340,"type":"VEC2"},{"bufferView":42,"componentType":5126,"count":340,"type":"VEC3"},{"bufferView":43,"componentType":5126,"count":340,"type":"VEC3"},{"bufferView":44,"componentType":5126,"count":340,"type":"VEC3"},{"bufferView":45,"componentType":5126,"count":340,"type":"VEC3"},{"bufferView":46,"componentType":5126,"count":340,"type":"SCALAR"},{"bufferView":47,"componentType":5125,"count":366,"type":"SCALAR"},{"bufferView":48,"componentType":5125,"count":438,"type":"SCALAR"},{"bufferView":49,"componentType":5126,"count":533,"type":"VEC3","min":[-0.1762866973876953,0.0014611477963626385,-0.0896759033203125],"max":[0.08463096618652344,0.15667979419231415,0.0896759033203125]},{"bufferView":50,"componentType":5126,"count":533,"type":"VEC3"},{"bufferView":51,"componentType":5126,"count":533,"type":"VEC2"},{"bufferView":52,"componentType":5126,"count":533,"type":"VEC3"},{"bufferView":53,"componentType":5126,"count":533,"type":"VEC3"},{"bufferView":54,"componentType":5126,"count":533,"type":"VEC3"},{"bufferView":55,"componentType":5126,"count":533,"type":"VEC3"},{"bufferView":56,"componentType":5126,"count":533,"type":"SCALAR"},{"bufferView":57,"componentType":5125,"count":2190,"type":"SCALAR"},{"bufferView":58,"componentType":5126,"count":2002,"type":"VEC3","min":[-0.7306193113327026,-0.017383012920618057,-0.21449044346809387],"max":[0.7306193113327026,2.5274698734283447,0.2144896239042282]},{"bufferView":59,"componentType":5126,"count":2002,"type":"VEC3"},{"bufferView":60,"componentType":5126,"count":2002,"type":"VEC2"},{"bufferView":61,"componentType":5126,"count":2002,"type":"VEC3"},{"bufferView":62,"componentType":5126,"count":2002,"type":"VEC3"},{"bufferView":63,"componentType":5126,"count":2002,"type":"VEC3"},{"bufferView":64,"componentType":5126,"count":2002,"type":"VEC3"},{"bufferView":65,"componentType":5126,"count":2002,"type":"SCALAR"},{"bufferView":66,"componentType":5125,"count":1428,"type":"SCALAR"},{"bufferView":67,"componentType":5125,"count":5016,"type":"SCALAR"},{"bufferView":68,"componentType":5126,"count":576,"type":"VEC3","min":[-0.5429158210754395,-0.003822582308202982,-0.15765345096588135],"max":[0.5197001099586487,0.2944376766681671,0.0898323655128479]},{"bufferView":69,"componentType":5126,"count":576,"type":"VEC3"},{"bufferView":70,"componentType":5126,"count":576,"type":"VEC2"},{"bufferView":71,"componentType":5126,"count":576,"type":"VEC3"},{"bufferView":72,"componentType":5126,"count":576,"type":"VEC3"},{"bufferView":73,"componentType":5126,"count":576,"type":"VEC3"},{"bufferView":74,"componentType":5126,"count":576,"type":"VEC3"},{"bufferView":75,"componentType":5126,"count":576,"type":"SCALAR"},{"bufferView":76,"componentType":5125,"count":1248,"type":"SCALAR"}],"meshes":[{"name":"b932791e2e642917e7b6c7fe9f891673e9680c5f2345e784416e4144e1ee92cd","primitives":[{"attributes":{"POSITION":0,"NORMAL":1,"TEXCOORD_0":2,"COLOR_0":3,"_VELDREN_NORMAL":4,"_VELDREN_COLOR":5,"_VELDREN_FALLBACK":6,"_VELDREN_MATERIAL":7},"indices":8,"material":0,"extras":{"mixedAtlasFallback":false}}]},{"name":"9a2512b436b63bb7ea06e287302379ec7cd545afa3634b62d51eac88505a4bb8","primitives":[{"attributes":{"POSITION":9,"NORMAL":10,"TEXCOORD_0":11,"COLOR_0":12,"_VELDREN_NORMAL":13,"_VELDREN_COLOR":14,"_VELDREN_FALLBACK":15,"_VELDREN_MATERIAL":16},"indices":17,"material":1,"extras":{"mixedAtlasFallback":false}},{"attributes":{"POSITION":9,"NORMAL":10,"TEXCOORD_0":11,"COLOR_0":12,"_VELDREN_NORMAL":13,"_VELDREN_COLOR":14,"_VELDREN_FALLBACK":15,"_VELDREN_MATERIAL":16},"indices":18,"material":2,"extras":{"mixedAtlasFallback":false}},{"attributes":{"POSITION":9,"NORMAL":10,"TEXCOORD_0":11,"COLOR_0":12,"_VELDREN_NORMAL":13,"_VELDREN_COLOR":14,"_VELDREN_FALLBACK":15,"_VELDREN_MATERIAL":16},"indices":19,"material":3,"extras":{"mixedAtlasFallback":false}}]},{"name":"f4b04e3619cf212187b96076e7e940da50275113f8897ecbcd59f59213422623","primitives":[{"attributes":{"POSITION":20,"NORMAL":21,"TEXCOORD_0":22,"COLOR_0":23,"_VELDREN_NORMAL":24,"_VELDREN_COLOR":25,"_VELDREN_FALLBACK":26,"_VELDREN_MATERIAL":27},"indices":28,"material":4,"extras":{"mixedAtlasFallback":false}},{"attributes":{"POSITION":20,"NORMAL":21,"TEXCOORD_0":22,"COLOR_0":23,"_VELDREN_NORMAL":24,"_VELDREN_COLOR":25,"_VELDREN_FALLBACK":26,"_VELDREN_MATERIAL":27},"indices":29,"material":5,"extras":{"mixedAtlasFallback":false}}]},{"name":"1f7416da9fb55b4744e69d48ce26911a903332abddb1946bc3f9f1cd1766d723","primitives":[{"attributes":{"POSITION":30,"NORMAL":31,"TEXCOORD_0":32,"COLOR_0":33,"_VELDREN_NORMAL":34,"_VELDREN_COLOR":35,"_VELDREN_FALLBACK":36,"_VELDREN_MATERIAL":37},"indices":38,"material":6,"extras":{"mixedAtlasFallback":false}}]},{"name":"2bed24ed427da899c64f0c99a7488970d5ac0a3dd007e3dcf039fbfe4113db36","primitives":[{"attributes":{"POSITION":39,"NORMAL":40,"TEXCOORD_0":41,"COLOR_0":42,"_VELDREN_NORMAL":43,"_VELDREN_COLOR":44,"_VELDREN_FALLBACK":45,"_VELDREN_MATERIAL":46},"indices":47,"material":7,"extras":{"mixedAtlasFallback":false}},{"attributes":{"POSITION":39,"NORMAL":40,"TEXCOORD_0":41,"COLOR_0":42,"_VELDREN_NORMAL":43,"_VELDREN_COLOR":44,"_VELDREN_FALLBACK":45,"_VELDREN_MATERIAL":46},"indices":48,"material":8,"extras":{"mixedAtlasFallback":false}}]},{"name":"42a4131a7f9fe484a70590f8dd3499998303718cfb71bec957ec5894fb0867bf","primitives":[{"attributes":{"POSITION":49,"NORMAL":50,"TEXCOORD_0":51,"COLOR_0":52,"_VELDREN_NORMAL":53,"_VELDREN_COLOR":54,"_VELDREN_FALLBACK":55,"_VELDREN_MATERIAL":56},"indices":57,"material":9,"extras":{"mixedAtlasFallback":false}}]},{"name":"cb9df46869a74c2b21acdc562e58e1fd0bcaa177f7275e87e50e477c73f4776f","primitives":[{"attributes":{"POSITION":58,"NORMAL":59,"TEXCOORD_0":60,"COLOR_0":61,"_VELDREN_NORMAL":62,"_VELDREN_COLOR":63,"_VELDREN_FALLBACK":64,"_VELDREN_MATERIAL":65},"indices":66,"material":10,"extras":{"mixedAtlasFallback":false}},{"attributes":{"POSITION":58,"NORMAL":59,"TEXCOORD_0":60,"COLOR_0":61,"_VELDREN_NORMAL":62,"_VELDREN_COLOR":63,"_VELDREN_FALLBACK":64,"_VELDREN_MATERIAL":65},"indices":67,"material":11,"extras":{"mixedAtlasFallback":false}}]},{"name":"f52aa0036ce251ef1eb08d3699186b9705c3883af59782ac743cf0836182a57c","primitives":[{"attributes":{"POSITION":68,"NORMAL":69,"TEXCOORD_0":70,"COLOR_0":71,"_VELDREN_NORMAL":72,"_VELDREN_COLOR":73,"_VELDREN_FALLBACK":74,"_VELDREN_MATERIAL":75},"indices":76,"material":12,"extras":{"mixedAtlasFallback":false}}]}],"materials":[{"name":"legacy-material-20","pbrMetallicRoughness":{"baseColorFactor":[1,1,1,1],"metallicFactor":0,"roughnessFactor":1,"baseColorTexture":{"index":0}},"doubleSided":true,"extras":{"legacyMaterial":20,"legacyShader":"dist/renderer-gl.js"}},{"name":"legacy-material-43","pbrMetallicRoughness":{"baseColorFactor":[1,1,1,1],"metallicFactor":0,"roughnessFactor":1,"baseColorTexture":{"index":1}},"doubleSided":true,"extras":{"legacyMaterial":43,"legacyShader":"dist/renderer-gl.js"}},{"name":"legacy-material-42","pbrMetallicRoughness":{"baseColorFactor":[1,1,1,1],"metallicFactor":0,"roughnessFactor":1,"baseColorTexture":{"index":2}},"doubleSided":true,"extras":{"legacyMaterial":42,"legacyShader":"dist/renderer-gl.js"}},{"name":"legacy-material-45","pbrMetallicRoughness":{"baseColorFactor":[1,1,1,1],"metallicFactor":0,"roughnessFactor":1,"baseColorTexture":{"index":3}},"doubleSided":true,"extras":{"legacyMaterial":45,"legacyShader":"dist/renderer-gl.js"}},{"name":"legacy-material-43","pbrMetallicRoughness":{"baseColorFactor":[1,1,1,1],"metallicFactor":0,"roughnessFactor":1,"baseColorTexture":{"index":4}},"doubleSided":true,"extras":{"legacyMaterial":43,"legacyShader":"dist/renderer-gl.js"}},{"name":"legacy-material-42","pbrMetallicRoughness":{"baseColorFactor":[1,1,1,1],"metallicFactor":0,"roughnessFactor":1,"baseColorTexture":{"index":5}},"doubleSided":true,"extras":{"legacyMaterial":42,"legacyShader":"dist/renderer-gl.js"}},{"name":"legacy-material-42","pbrMetallicRoughness":{"baseColorFactor":[1,1,1,1],"metallicFactor":0,"roughnessFactor":1,"baseColorTexture":{"index":6}},"doubleSided":true,"extras":{"legacyMaterial":42,"legacyShader":"dist/renderer-gl.js"}},{"name":"legacy-material-42","pbrMetallicRoughness":{"baseColorFactor":[1,1,1,1],"metallicFactor":0,"roughnessFactor":1,"baseColorTexture":{"index":7}},"doubleSided":true,"extras":{"legacyMaterial":42,"legacyShader":"dist/renderer-gl.js"}},{"name":"legacy-material-43","pbrMetallicRoughness":{"baseColorFactor":[1,1,1,1],"metallicFactor":0,"roughnessFactor":1,"baseColorTexture":{"index":8}},"doubleSided":true,"extras":{"legacyMaterial":43,"legacyShader":"dist/renderer-gl.js"}},{"name":"legacy-material-42","pbrMetallicRoughness":{"baseColorFactor":[1,1,1,1],"metallicFactor":0,"roughnessFactor":1,"baseColorTexture":{"index":9}},"doubleSided":true,"extras":{"legacyMaterial":42,"legacyShader":"dist/renderer-gl.js"}},{"name":"legacy-material-43","pbrMetallicRoughness":{"baseColorFactor":[1,1,1,1],"metallicFactor":0,"roughnessFactor":1,"baseColorTexture":{"index":10}},"doubleSided":true,"extras":{"legacyMaterial":43,"legacyShader":"dist/renderer-gl.js"}},{"name":"legacy-material-42","pbrMetallicRoughness":{"baseColorFactor":[1,1,1,1],"metallicFactor":0,"roughnessFactor":1,"baseColorTexture":{"index":11}},"doubleSided":true,"extras":{"legacyMaterial":42,"legacyShader":"dist/renderer-gl.js"}},{"name":"legacy-material-44","pbrMetallicRoughness":{"baseColorFactor":[1,1,1,1],"metallicFactor":0,"roughnessFactor":1,"baseColorTexture":{"index":12}},"doubleSided":true,"extras":{"legacyMaterial":44,"legacyShader":"dist/renderer-gl.js"}}],"images":[{"name":"atlas-00","uri":"../../textures/atlas/tile-00.png"},{"name":"atlas-23","uri":"../../textures/atlas/tile-23.png"},{"name":"atlas-22","uri":"../../textures/atlas/tile-22.png"},{"name":"atlas-25","uri":"../../textures/atlas/tile-25.png"},{"name":"atlas-23","uri":"../../textures/atlas/tile-23.png"},{"name":"atlas-22","uri":"../../textures/atlas/tile-22.png"},{"name":"atlas-22","uri":"../../textures/atlas/tile-22.png"},{"name":"atlas-22","uri":"../../textures/atlas/tile-22.png"},{"name":"atlas-23","uri":"../../textures/atlas/tile-23.png"},{"name":"atlas-22","uri":"../../textures/atlas/tile-22.png"},{"name":"atlas-23","uri":"../../textures/atlas/tile-23.png"},{"name":"atlas-22","uri":"../../textures/atlas/tile-22.png"},{"name":"atlas-24","uri":"../../textures/atlas/tile-24.png"}],"textures":[{"source":0,"sampler":0},{"source":1,"sampler":1},{"source":2,"sampler":1},{"source":3,"sampler":1},{"source":4,"sampler":2},{"source":5,"sampler":2},{"source":6,"sampler":3},{"source":7,"sampler":4},{"source":8,"sampler":4},{"source":9,"sampler":5},{"source":10,"sampler":6},{"source":11,"sampler":6},{"source":12,"sampler":7}],"samplers":[{"magFilter":9729,"minFilter":9729,"wrapS":10497,"wrapT":10497},{"magFilter":9729,"minFilter":9729,"wrapS":10497,"wrapT":10497},{"magFilter":9729,"minFilter":9729,"wrapS":10497,"wrapT":10497},{"magFilter":9729,"minFilter":9729,"wrapS":10497,"wrapT":10497},{"magFilter":9729,"minFilter":9729,"wrapS":10497,"wrapT":10497},{"magFilter":9729,"minFilter":9729,"wrapS":10497,"wrapT":10497},{"magFilter":9729,"minFilter":9729,"wrapS":10497,"wrapT":10497},{"magFilter":9729,"minFilter":9729,"wrapS":10497,"wrapT":10497}]}
