{"asset":{"version":"2.0","generator":"Veldren static world recovery"},"scene":0,"scenes":[{"nodes":[0,2,7,12,17,22]}],"extras":{"sourceScene":"realm_stonehearth_3","notVervesisScene":true,"gameplayIdentityExternal":true,"limitations":["Terrain stored separately.","Dynamic actors, fires, gates, crops, fish, effects and ground cover are not baked.","Roofs are closed; browser procedural materials require native support."]},"nodes":[{"name":"Exit to the road","children":[1],"extras":{"veldrenEntityKey":"realm_stonehearth_3:object:1989"}},{"mesh":0,"matrix":[1.0,0.0,0.0,0.0,0.0,1.0,0.0,0.0,0.0,0.0,1.0,0.0,0.0,0.0,0.0,1.0]},{"name":"Bookcase","children":[3,4,5,6],"extras":{"veldrenEntityKey":"realm_stonehearth_3:object:1991"}},{"mesh":1,"matrix":[0.707310041242665,0.0,0.0,0.0,0.0,0.707310041242665,0.0,0.0,0.0,0.0,0.707310041242665,0.0,2.5,0.012295179585804138,1.2900002898428757,1.0]},{"mesh":2,"matrix":[0.9723051974650617,0.0,0.0,0.0,0.0,0.9723051974650617,0.0,0.0,0.0,0.0,0.9723051974650617,0.0,2.5112863782908517,0.30371671664600375,1.3529713969418533,1.0]},{"mesh":2,"matrix":[0.9723051974650617,0.0,0.0,0.0,0.0,0.9723051974650617,0.0,0.0,0.0,0.0,0.9723051974650617,0.0,2.5112863782908517,0.7837167166460037,1.3529713969418533,1.0]},{"mesh":2,"matrix":[0.9723051974650617,0.0,0.0,0.0,0.0,0.9723051974650617,0.0,0.0,0.0,0.0,0.9723051974650617,0.0,2.5112863782908517,1.2837167166460037,1.3529713969418533,1.0]},{"name":"Bookcase","children":[8,9,10,11],"extras":{"veldrenEntityKey":"realm_stonehearth_3:object:1992"}},{"mesh":1,"matrix":[0.707310041242665,0.0,0.0,0.0,0.0,0.707310041242665,0.0,0.0,0.0,0.0,0.707310041242665,0.0,4.5,0.012295179585804138,1.2900002898428757,1.0]},{"mesh":2,"matrix":[0.9723051974650617,0.0,0.0,0.0,0.0,0.9723051974650617,0.0,0.0,0.0,0.0,0.9723051974650617,0.0,4.511286378290851,0.30371671664600375,1.3529713969418533,1.0]},{"mesh":2,"matrix":[0.9723051974650617,0.0,0.0,0.0,0.0,0.9723051974650617,0.0,0.0,0.0,0.0,0.9723051974650617,0.0,4.511286378290851,0.7837167166460037,1.3529713969418533,1.0]},{"mesh":2,"matrix":[0.9723051974650617,0.0,0.0,0.0,0.0,0.9723051974650617,0.0,0.0,0.0,0.0,0.9723051974650617,0.0,4.511286378290851,1.2837167166460037,1.3529713969418533,1.0]},{"name":"Bookcase","children":[13,14,15,16],"extras":{"veldrenEntityKey":"realm_stonehearth_3:object:1993"}},{"mesh":1,"matrix":[0.707310041242665,0.0,0.0,0.0,0.0,0.707310041242665,0.0,0.0,0.0,0.0,0.707310041242665,0.0,10.5,0.012295179585804138,1.2900002898428757,1.0]},{"mesh":2,"matrix":[0.9723051974650617,0.0,0.0,0.0,0.0,0.9723051974650617,0.0,0.0,0.0,0.0,0.9723051974650617,0.0,10.511286378290851,0.30371671664600375,1.3529713969418533,1.0]},{"mesh":2,"matrix":[0.9723051974650617,0.0,0.0,0.0,0.0,0.9723051974650617,0.0,0.0,0.0,0.0,0.9723051974650617,0.0,10.511286378290851,0.7837167166460037,1.3529713969418533,1.0]},{"mesh":2,"matrix":[0.9723051974650617,0.0,0.0,0.0,0.0,0.9723051974650617,0.0,0.0,0.0,0.0,0.9723051974650617,0.0,10.511286378290851,1.2837167166460037,1.3529713969418533,1.0]},{"name":"Bookcase","children":[18,19,20,21],"extras":{"veldrenEntityKey":"realm_stonehearth_3:object:1994"}},{"mesh":1,"matrix":[0.707310041242665,0.0,0.0,0.0,0.0,0.707310041242665,0.0,0.0,0.0,0.0,0.707310041242665,0.0,12.5,0.012295179585804138,1.2900002898428757,1.0]},{"mesh":2,"matrix":[0.9723051974650617,0.0,0.0,0.0,0.0,0.9723051974650617,0.0,0.0,0.0,0.0,0.9723051974650617,0.0,12.511286378290851,0.30371671664600375,1.3529713969418533,1.0]},{"mesh":2,"matrix":[0.9723051974650617,0.0,0.0,0.0,0.0,0.9723051974650617,0.0,0.0,0.0,0.0,0.9723051974650617,0.0,12.511286378290851,0.7837167166460037,1.3529713969418533,1.0]},{"mesh":2,"matrix":[0.9723051974650617,0.0,0.0,0.0,0.0,0.9723051974650617,0.0,0.0,0.0,0.0,0.9723051974650617,0.0,12.511286378290851,1.2837167166460037,1.3529713969418533,1.0]},{"name":"Reading table","children":[23,24,25,26],"extras":{"veldrenEntityKey":"realm_stonehearth_3:object:1995"}},{"mesh":3,"matrix":[0.9588829055315417,0.0,0.0,0.0,0.0,0.9588829055315417,0.0,0.0,0.0,0.0,0.9588829055315417,0.0,5.5,-0.001210940581595084,7.493915312740371,1.0]},{"mesh":4,"matrix":[0.24191449349746375,0.0,0.0,0.0,0.0,0.24191449349746375,0.0,0.0,0.0,0.0,0.24191449349746375,0.0,5.149981712814785,0.7806046715986324,7.499981568622511,1.0]},{"mesh":2,"matrix":[0.6705553085965944,0.0,0.0,0.0,0.0,0.6705553085965944,0.0,0.0,0.0,0.0,0.6705553085965944,0.0,6.057783709166104,0.7825632528593129,7.522738894442657,1.0]},{"mesh":5,"matrix":[1.9327574809196684,0.0,0.0,0.0,0.0,1.9327574809196684,0.0,0.0,0.0,0.0,1.9327574809196684,0.0,6.5885741500741135,0.7771759556658508,7.5,1.0]}],"buffers":[{"uri":"../world-parts/b932791e2e642917e7b6c7fe9f891673e9680c5f2345e784416e4144e1ee92cd.bin","byteLength":3168},{"uri":"../world-parts/cb9df46869a74c2b21acdc562e58e1fd0bcaa177f7275e87e50e477c73f4776f.bin","byteLength":193944},{"uri":"../world-parts/f52aa0036ce251ef1eb08d3699186b9705c3883af59782ac743cf0836182a57c.bin","byteLength":53376},{"uri":"../world-parts/f4b04e3619cf212187b96076e7e940da50275113f8897ecbcd59f59213422623.bin","byteLength":117840},{"uri":"../world-parts/8c606c767d7974315c7bb6356ec371eba10870d54f739fa0df01dc9a7e966490.bin","byteLength":157080},{"uri":"../world-parts/42a4131a7f9fe484a70590f8dd3499998303718cfb71bec957ec5894fb0867bf.bin","byteLength":53532}],"bufferViews":[{"buffer":0,"byteOffset":0,"byteLength":432,"target":34962},{"buffer":0,"byteOffset":432,"byteLength":432,"target":34962},{"buffer":0,"byteOffset":864,"byteLength":288,"target":34962},{"buffer":0,"byteOffset":1152,"byteLength":432,"target":34962},{"buffer":0,"byteOffset":1584,"byteLength":432,"target":34962},{"buffer":0,"byteOffset":2016,"byteLength":432,"target":34962},{"buffer":0,"byteOffset":2448,"byteLength":432,"target":34962},{"buffer":0,"byteOffset":2880,"byteLength":144,"target":34962},{"buffer":0,"byteOffset":3024,"byteLength":144,"target":34963},{"buffer":1,"byteOffset":0,"byteLength":24024,"target":34962},{"buffer":1,"byteOffset":24024,"byteLength":24024,"target":34962},{"buffer":1,"byteOffset":48048,"byteLength":16016,"target":34962},{"buffer":1,"byteOffset":64064,"byteLength":24024,"target":34962},{"buffer":1,"byteOffset":88088,"byteLength":24024,"target":34962},{"buffer":1,"byteOffset":112112,"byteLength":24024,"target":34962},{"buffer":1,"byteOffset":136136,"byteLength":24024,"target":34962},{"buffer":1,"byteOffset":160160,"byteLength":8008,"target":34962},{"buffer":1,"byteOffset":168168,"byteLength":5712,"target":34963},{"buffer":1,"byteOffset":173880,"byteLength":20064,"target":34963},{"buffer":2,"byteOffset":0,"byteLength":6912,"target":34962},{"buffer":2,"byteOffset":6912,"byteLength":6912,"target":34962},{"buffer":2,"byteOffset":13824,"byteLength":4608,"target":34962},{"buffer":2,"byteOffset":18432,"byteLength":6912,"target":34962},{"buffer":2,"byteOffset":25344,"byteLength":6912,"target":34962},{"buffer":2,"byteOffset":32256,"byteLength":6912,"target":34962},{"buffer":2,"byteOffset":39168,"byteLength":6912,"target":34962},{"buffer":2,"byteOffset":46080,"byteLength":2304,"target":34962},{"buffer":2,"byteOffset":48384,"byteLength":4992,"target":34963},{"buffer":3,"byteOffset":0,"byteLength":15144,"target":34962},{"buffer":3,"byteOffset":15144,"byteLength":15144,"target":34962},{"buffer":3,"byteOffset":30288,"byteLength":10096,"target":34962},{"buffer":3,"byteOffset":40384,"byteLength":15144,"target":34962},{"buffer":3,"byteOffset":55528,"byteLength":15144,"target":34962},{"buffer":3,"byteOffset":70672,"byteLength":15144,"target":34962},{"buffer":3,"byteOffset":85816,"byteLength":15144,"target":34962},{"buffer":3,"byteOffset":100960,"byteLength":5048,"target":34962},{"buffer":3,"byteOffset":106008,"byteLength":11352,"target":34963},{"buffer":3,"byteOffset":117360,"byteLength":480,"target":34963},{"buffer":4,"byteOffset":0,"byteLength":19824,"target":34962},{"buffer":4,"byteOffset":19824,"byteLength":19824,"target":34962},{"buffer":4,"byteOffset":39648,"byteLength":13216,"target":34962},{"buffer":4,"byteOffset":52864,"byteLength":19824,"target":34962},{"buffer":4,"byteOffset":72688,"byteLength":19824,"target":34962},{"buffer":4,"byteOffset":92512,"byteLength":19824,"target":34962},{"buffer":4,"byteOffset":112336,"byteLength":19824,"target":34962},{"buffer":4,"byteOffset":132160,"byteLength":6608,"target":34962},{"buffer":4,"byteOffset":138768,"byteLength":18312,"target":34963},{"buffer":5,"byteOffset":0,"byteLength":6396,"target":34962},{"buffer":5,"byteOffset":6396,"byteLength":6396,"target":34962},{"buffer":5,"byteOffset":12792,"byteLength":4264,"target":34962},{"buffer":5,"byteOffset":17056,"byteLength":6396,"target":34962},{"buffer":5,"byteOffset":23452,"byteLength":6396,"target":34962},{"buffer":5,"byteOffset":29848,"byteLength":6396,"target":34962},{"buffer":5,"byteOffset":36244,"byteLength":6396,"target":34962},{"buffer":5,"byteOffset":42640,"byteLength":2132,"target":34962},{"buffer":5,"byteOffset":44772,"byteLength":8760,"target":34963}],"accessors":[{"bufferView":0,"componentType":5126,"count":36,"type":"VEC3","min":[8.100000381469727,0.0,12.225000381469727],"max":[8.899999618530273,0.05000000074505806,12.774999618530273]},{"bufferView":1,"componentType":5126,"count":36,"type":"VEC3"},{"bufferView":2,"componentType":5126,"count":36,"type":"VEC2"},{"bufferView":3,"componentType":5126,"count":36,"type":"VEC3"},{"bufferView":4,"componentType":5126,"count":36,"type":"VEC3"},{"bufferView":5,"componentType":5126,"count":36,"type":"VEC3"},{"bufferView":6,"componentType":5126,"count":36,"type":"VEC3"},{"bufferView":7,"componentType":5126,"count":36,"type":"SCALAR"},{"bufferView":8,"componentType":5125,"count":36,"type":"SCALAR"},{"bufferView":9,"componentType":5126,"count":2002,"type":"VEC3","min":[-0.7306193113327026,-0.017383012920618057,-0.21449044346809387],"max":[0.7306193113327026,2.5274698734283447,0.2144896239042282]},{"bufferView":10,"componentType":5126,"count":2002,"type":"VEC3"},{"bufferView":11,"componentType":5126,"count":2002,"type":"VEC2"},{"bufferView":12,"componentType":5126,"count":2002,"type":"VEC3"},{"bufferView":13,"componentType":5126,"count":2002,"type":"VEC3"},{"bufferView":14,"componentType":5126,"count":2002,"type":"VEC3"},{"bufferView":15,"componentType":5126,"count":2002,"type":"VEC3"},{"bufferView":16,"componentType":5126,"count":2002,"type":"SCALAR"},{"bufferView":17,"componentType":5125,"count":1428,"type":"SCALAR"},{"bufferView":18,"componentType":5125,"count":5016,"type":"SCALAR"},{"bufferView":19,"componentType":5126,"count":576,"type":"VEC3","min":[-0.5429158210754395,-0.003822582308202982,-0.15765345096588135],"max":[0.5197001099586487,0.2944376766681671,0.0898323655128479]},{"bufferView":20,"componentType":5126,"count":576,"type":"VEC3"},{"bufferView":21,"componentType":5126,"count":576,"type":"VEC2"},{"bufferView":22,"componentType":5126,"count":576,"type":"VEC3"},{"bufferView":23,"componentType":5126,"count":576,"type":"VEC3"},{"bufferView":24,"componentType":5126,"count":576,"type":"VEC3"},{"bufferView":25,"componentType":5126,"count":576,"type":"VEC3"},{"bufferView":26,"componentType":5126,"count":576,"type":"SCALAR"},{"bufferView":27,"componentType":5125,"count":1248,"type":"SCALAR"},{"bufferView":28,"componentType":5126,"count":1262,"type":"VEC3","min":[-1.4242464303970337,0.001262865960597992,-0.5419855713844299],"max":[1.4242464303970337,0.8147094249725342,0.5546767711639404]},{"bufferView":29,"componentType":5126,"count":1262,"type":"VEC3"},{"bufferView":30,"componentType":5126,"count":1262,"type":"VEC2"},{"bufferView":31,"componentType":5126,"count":1262,"type":"VEC3"},{"bufferView":32,"componentType":5126,"count":1262,"type":"VEC3"},{"bufferView":33,"componentType":5126,"count":1262,"type":"VEC3"},{"bufferView":34,"componentType":5126,"count":1262,"type":"VEC3"},{"bufferView":35,"componentType":5126,"count":1262,"type":"SCALAR"},{"bufferView":36,"componentType":5125,"count":2838,"type":"SCALAR"},{"bufferView":37,"componentType":5125,"count":120,"type":"SCALAR"},{"bufferView":38,"componentType":5126,"count":1652,"type":"VEC3","min":[-0.2534816861152649,-0.00249952613376081,-0.2555173337459564],"max":[0.25363287329673767,1.444292664527893,0.2556697130203247]},{"bufferView":39,"componentType":5126,"count":1652,"type":"VEC3"},{"bufferView":40,"componentType":5126,"count":1652,"type":"VEC2"},{"bufferView":41,"componentType":5126,"count":1652,"type":"VEC3"},{"bufferView":42,"componentType":5126,"count":1652,"type":"VEC3"},{"bufferView":43,"componentType":5126,"count":1652,"type":"VEC3"},{"bufferView":44,"componentType":5126,"count":1652,"type":"VEC3"},{"bufferView":45,"componentType":5126,"count":1652,"type":"SCALAR"},{"bufferView":46,"componentType":5125,"count":4578,"type":"SCALAR"},{"bufferView":47,"componentType":5126,"count":533,"type":"VEC3","min":[-0.1762866973876953,0.0014611477963626385,-0.0896759033203125],"max":[0.08463096618652344,0.15667979419231415,0.0896759033203125]},{"bufferView":48,"componentType":5126,"count":533,"type":"VEC3"},{"bufferView":49,"componentType":5126,"count":533,"type":"VEC2"},{"bufferView":50,"componentType":5126,"count":533,"type":"VEC3"},{"bufferView":51,"componentType":5126,"count":533,"type":"VEC3"},{"bufferView":52,"componentType":5126,"count":533,"type":"VEC3"},{"bufferView":53,"componentType":5126,"count":533,"type":"VEC3"},{"bufferView":54,"componentType":5126,"count":533,"type":"SCALAR"},{"bufferView":55,"componentType":5125,"count":2190,"type":"SCALAR"}],"meshes":[{"name":"b932791e2e642917e7b6c7fe9f891673e9680c5f2345e784416e4144e1ee92cd","primitives":[{"attributes":{"POSITION":0,"NORMAL":1,"TEXCOORD_0":2,"COLOR_0":3,"_VELDREN_NORMAL":4,"_VELDREN_COLOR":5,"_VELDREN_FALLBACK":6,"_VELDREN_MATERIAL":7},"indices":8,"material":0,"extras":{"mixedAtlasFallback":false}}]},{"name":"cb9df46869a74c2b21acdc562e58e1fd0bcaa177f7275e87e50e477c73f4776f","primitives":[{"attributes":{"POSITION":9,"NORMAL":10,"TEXCOORD_0":11,"COLOR_0":12,"_VELDREN_NORMAL":13,"_VELDREN_COLOR":14,"_VELDREN_FALLBACK":15,"_VELDREN_MATERIAL":16},"indices":17,"material":1,"extras":{"mixedAtlasFallback":false}},{"attributes":{"POSITION":9,"NORMAL":10,"TEXCOORD_0":11,"COLOR_0":12,"_VELDREN_NORMAL":13,"_VELDREN_COLOR":14,"_VELDREN_FALLBACK":15,"_VELDREN_MATERIAL":16},"indices":18,"material":2,"extras":{"mixedAtlasFallback":false}}]},{"name":"f52aa0036ce251ef1eb08d3699186b9705c3883af59782ac743cf0836182a57c","primitives":[{"attributes":{"POSITION":19,"NORMAL":20,"TEXCOORD_0":21,"COLOR_0":22,"_VELDREN_NORMAL":23,"_VELDREN_COLOR":24,"_VELDREN_FALLBACK":25,"_VELDREN_MATERIAL":26},"indices":27,"material":3,"extras":{"mixedAtlasFallback":false}}]},{"name":"f4b04e3619cf212187b96076e7e940da50275113f8897ecbcd59f59213422623","primitives":[{"attributes":{"POSITION":28,"NORMAL":29,"TEXCOORD_0":30,"COLOR_0":31,"_VELDREN_NORMAL":32,"_VELDREN_COLOR":33,"_VELDREN_FALLBACK":34,"_VELDREN_MATERIAL":35},"indices":36,"material":4,"extras":{"mixedAtlasFallback":false}},{"attributes":{"POSITION":28,"NORMAL":29,"TEXCOORD_0":30,"COLOR_0":31,"_VELDREN_NORMAL":32,"_VELDREN_COLOR":33,"_VELDREN_FALLBACK":34,"_VELDREN_MATERIAL":35},"indices":37,"material":5,"extras":{"mixedAtlasFallback":false}}]},{"name":"8c606c767d7974315c7bb6356ec371eba10870d54f739fa0df01dc9a7e966490","primitives":[{"attributes":{"POSITION":38,"NORMAL":39,"TEXCOORD_0":40,"COLOR_0":41,"_VELDREN_NORMAL":42,"_VELDREN_COLOR":43,"_VELDREN_FALLBACK":44,"_VELDREN_MATERIAL":45},"indices":46,"material":6,"extras":{"mixedAtlasFallback":false}}]},{"name":"42a4131a7f9fe484a70590f8dd3499998303718cfb71bec957ec5894fb0867bf","primitives":[{"attributes":{"POSITION":47,"NORMAL":48,"TEXCOORD_0":49,"COLOR_0":50,"_VELDREN_NORMAL":51,"_VELDREN_COLOR":52,"_VELDREN_FALLBACK":53,"_VELDREN_MATERIAL":54},"indices":55,"material":7,"extras":{"mixedAtlasFallback":false}}]}],"materials":[{"name":"legacy-material-20","pbrMetallicRoughness":{"baseColorFactor":[1,1,1,1],"metallicFactor":0,"roughnessFactor":1,"baseColorTexture":{"index":0}},"doubleSided":true,"extras":{"legacyMaterial":20,"legacyShader":"dist/renderer-gl.js"}},{"name":"legacy-material-43","pbrMetallicRoughness":{"baseColorFactor":[1,1,1,1],"metallicFactor":0,"roughnessFactor":1,"baseColorTexture":{"index":1}},"doubleSided":true,"extras":{"legacyMaterial":43,"legacyShader":"dist/renderer-gl.js"}},{"name":"legacy-material-42","pbrMetallicRoughness":{"baseColorFactor":[1,1,1,1],"metallicFactor":0,"roughnessFactor":1,"baseColorTexture":{"index":2}},"doubleSided":true,"extras":{"legacyMaterial":42,"legacyShader":"dist/renderer-gl.js"}},{"name":"legacy-material-44","pbrMetallicRoughness":{"baseColorFactor":[1,1,1,1],"metallicFactor":0,"roughnessFactor":1,"baseColorTexture":{"index":3}},"doubleSided":true,"extras":{"legacyMaterial":44,"legacyShader":"dist/renderer-gl.js"}},{"name":"legacy-material-43","pbrMetallicRoughness":{"baseColorFactor":[1,1,1,1],"metallicFactor":0,"roughnessFactor":1,"baseColorTexture":{"index":4}},"doubleSided":true,"extras":{"legacyMaterial":43,"legacyShader":"dist/renderer-gl.js"}},{"name":"legacy-material-42","pbrMetallicRoughness":{"baseColorFactor":[1,1,1,1],"metallicFactor":0,"roughnessFactor":1,"baseColorTexture":{"index":5}},"doubleSided":true,"extras":{"legacyMaterial":42,"legacyShader":"dist/renderer-gl.js"}},{"name":"legacy-material-43","pbrMetallicRoughness":{"baseColorFactor":[1,1,1,1],"metallicFactor":0,"roughnessFactor":1,"baseColorTexture":{"index":6}},"doubleSided":true,"extras":{"legacyMaterial":43,"legacyShader":"dist/renderer-gl.js"}},{"name":"legacy-material-42","pbrMetallicRoughness":{"baseColorFactor":[1,1,1,1],"metallicFactor":0,"roughnessFactor":1,"baseColorTexture":{"index":7}},"doubleSided":true,"extras":{"legacyMaterial":42,"legacyShader":"dist/renderer-gl.js"}}],"images":[{"name":"atlas-00","uri":"../../textures/atlas/tile-00.png"},{"name":"atlas-23","uri":"../../textures/atlas/tile-23.png"},{"name":"atlas-22","uri":"../../textures/atlas/tile-22.png"},{"name":"atlas-24","uri":"../../textures/atlas/tile-24.png"},{"name":"atlas-23","uri":"../../textures/atlas/tile-23.png"},{"name":"atlas-22","uri":"../../textures/atlas/tile-22.png"},{"name":"atlas-23","uri":"../../textures/atlas/tile-23.png"},{"name":"atlas-22","uri":"../../textures/atlas/tile-22.png"}],"textures":[{"source":0,"sampler":0},{"source":1,"sampler":1},{"source":2,"sampler":1},{"source":3,"sampler":2},{"source":4,"sampler":3},{"source":5,"sampler":3},{"source":6,"sampler":4},{"source":7,"sampler":5}],"samplers":[{"magFilter":9729,"minFilter":9729,"wrapS":10497,"wrapT":10497},{"magFilter":9729,"minFilter":9729,"wrapS":10497,"wrapT":10497},{"magFilter":9729,"minFilter":9729,"wrapS":10497,"wrapT":10497},{"magFilter":9729,"minFilter":9729,"wrapS":10497,"wrapT":10497},{"magFilter":9729,"minFilter":9729,"wrapS":10497,"wrapT":10497},{"magFilter":9729,"minFilter":9729,"wrapS":10497,"wrapT":10497}]}
