{"asset":{"version":"2.0","generator":"Veldren static world recovery"},"scene":0,"scenes":[{"nodes":[0,2,4,6,11,13,18,23,28,33,38,43,45,50,55,60,65,70,72,74,76,78,83,85,90,92,94,96,98,103,105,107]}],"extras":{"sourceScene":"realm_crownreach_25_upper","notVervesisScene":true,"gameplayIdentityExternal":true,"limitations":["Terrain stored separately.","Dynamic actors, fires, gates, crops, fish, effects and ground cover are not baked.","Roofs are closed; browser procedural materials require native support."]},"nodes":[{"name":"Bed","children":[1],"extras":{"veldrenEntityKey":"realm_crownreach_25_upper:object:7400234"}},{"mesh":0,"matrix":[1.0795054353721547,0.0,0.0,0.0,0.0,1.0795054353721547,0.0,0.0,0.0,0.0,1.0795054353721547,0.0,3.5,-0.0004893649354120636,3.43,1.0]},{"name":"Bed","children":[3],"extras":{"veldrenEntityKey":"realm_crownreach_25_upper:object:7400235"}},{"mesh":1,"matrix":[1.0185025013877824,0.0,0.0,0.0,0.0,1.0185025013877824,0.0,0.0,0.0,0.0,1.0185025013877824,0.0,13.5,-0.0004617108858158083,3.43,1.0]},{"name":"Storage chest","children":[5],"extras":{"veldrenEntityKey":"realm_crownreach_25_upper:object:7400236"}},{"mesh":2,"matrix":[-1.0486178398132324,0.0,-1.2841865189833467e-16,0.0,0.0,1.0486178398132324,0.0,0.0,1.2841865189833467e-16,0.0,-1.0486178398132324,0.0,13.499556541442871,0.023800354450941086,10.454999923706055,1.0]},{"name":"Dining table","children":[7,8,9,10],"extras":{"veldrenEntityKey":"realm_crownreach_25_upper:object:7400237"}},{"mesh":3,"matrix":[0.9588829055315417,0.0,0.0,0.0,0.0,0.9588829055315417,0.0,0.0,0.0,0.0,0.9588829055315417,0.0,5.5,-0.001210940581595084,6.493915312740371,1.0]},{"mesh":4,"matrix":[0.8903870142199419,0.0,0.0,0.0,0.0,0.8903870142199419,0.0,0.0,0.0,0.0,0.8903870142199419,0.0,5.159900358818818,0.7806725885457619,6.499999980098299,1.0]},{"mesh":5,"matrix":[0.9245011738728264,0.0,0.0,0.0,0.0,0.9245011738728264,0.0,0.0,0.0,0.0,0.9245011738728264,0.0,5.776267638674035,0.7842922688491613,6.381239005458748,1.0]},{"mesh":6,"matrix":[1.8683322315556792,0.0,0.0,0.0,0.0,1.8683322315556792,0.0,0.0,0.0,0.0,1.8683322315556792,0.0,5.585621678404976,0.7772700904769891,6.5,1.0]},{"name":"Chair","children":[12],"extras":{"veldrenEntityKey":"realm_crownreach_25_upper:object:7400238"}},{"mesh":7,"matrix":[-0.9169539213180542,0.0,-1.122944797748426e-16,0.0,0.0,0.9169539213180542,0.0,0.0,1.122944797748426e-16,0.0,-0.9169539213180542,0.0,5.5,0.0024813238997012377,8.48434066772461,1.0]},{"name":"Bookcase","children":[14,15,16,17],"extras":{"veldrenEntityKey":"realm_crownreach_25_upper:object:7400239"}},{"mesh":8,"matrix":[0.707310041242665,0.0,0.0,0.0,0.0,0.707310041242665,0.0,0.0,0.0,0.0,0.707310041242665,0.0,18.5,0.012295179585804138,2.290000289842876,1.0]},{"mesh":9,"matrix":[0.9723051974650617,0.0,0.0,0.0,0.0,0.9723051974650617,0.0,0.0,0.0,0.0,0.9723051974650617,0.0,18.51128637829085,0.30371671664600375,2.3529713969418533,1.0]},{"mesh":9,"matrix":[0.9723051974650617,0.0,0.0,0.0,0.0,0.9723051974650617,0.0,0.0,0.0,0.0,0.9723051974650617,0.0,18.51128637829085,0.7837167166460037,2.3529713969418533,1.0]},{"mesh":9,"matrix":[0.9723051974650617,0.0,0.0,0.0,0.0,0.9723051974650617,0.0,0.0,0.0,0.0,0.9723051974650617,0.0,18.51128637829085,1.2837167166460037,2.3529713969418533,1.0]},{"name":"Bookcase","children":[19,20,21,22],"extras":{"veldrenEntityKey":"realm_crownreach_25_upper:object:7400240"}},{"mesh":8,"matrix":[0.707310041242665,0.0,0.0,0.0,0.0,0.707310041242665,0.0,0.0,0.0,0.0,0.707310041242665,0.0,21.5,0.012295179585804138,2.290000289842876,1.0]},{"mesh":9,"matrix":[0.9723051974650617,0.0,0.0,0.0,0.0,0.9723051974650617,0.0,0.0,0.0,0.0,0.9723051974650617,0.0,21.51128637829085,0.30371671664600375,2.3529713969418533,1.0]},{"mesh":9,"matrix":[0.9723051974650617,0.0,0.0,0.0,0.0,0.9723051974650617,0.0,0.0,0.0,0.0,0.9723051974650617,0.0,21.51128637829085,0.7837167166460037,2.3529713969418533,1.0]},{"mesh":9,"matrix":[0.9723051974650617,0.0,0.0,0.0,0.0,0.9723051974650617,0.0,0.0,0.0,0.0,0.9723051974650617,0.0,21.51128637829085,1.2837167166460037,2.3529713969418533,1.0]},{"name":"Bookcase","children":[24,25,26,27],"extras":{"veldrenEntityKey":"realm_crownreach_25_upper:object:7400241"}},{"mesh":8,"matrix":[0.707310041242665,0.0,0.0,0.0,0.0,0.707310041242665,0.0,0.0,0.0,0.0,0.707310041242665,0.0,24.5,0.012295179585804138,2.290000289842876,1.0]},{"mesh":9,"matrix":[0.9723051974650617,0.0,0.0,0.0,0.0,0.9723051974650617,0.0,0.0,0.0,0.0,0.9723051974650617,0.0,24.51128637829085,0.30371671664600375,2.3529713969418533,1.0]},{"mesh":9,"matrix":[0.9723051974650617,0.0,0.0,0.0,0.0,0.9723051974650617,0.0,0.0,0.0,0.0,0.9723051974650617,0.0,24.51128637829085,0.7837167166460037,2.3529713969418533,1.0]},{"mesh":9,"matrix":[0.9723051974650617,0.0,0.0,0.0,0.0,0.9723051974650617,0.0,0.0,0.0,0.0,0.9723051974650617,0.0,24.51128637829085,1.2837167166460037,2.3529713969418533,1.0]},{"name":"Bookcase","children":[29,30,31,32],"extras":{"veldrenEntityKey":"realm_crownreach_25_upper:object:7400242"}},{"mesh":8,"matrix":[0.707310041242665,0.0,0.0,0.0,0.0,0.707310041242665,0.0,0.0,0.0,0.0,0.707310041242665,0.0,27.5,0.012295179585804138,2.290000289842876,1.0]},{"mesh":9,"matrix":[0.9723051974650617,0.0,0.0,0.0,0.0,0.9723051974650617,0.0,0.0,0.0,0.0,0.9723051974650617,0.0,27.51128637829085,0.30371671664600375,2.3529713969418533,1.0]},{"mesh":9,"matrix":[0.9723051974650617,0.0,0.0,0.0,0.0,0.9723051974650617,0.0,0.0,0.0,0.0,0.9723051974650617,0.0,27.51128637829085,0.7837167166460037,2.3529713969418533,1.0]},{"mesh":9,"matrix":[0.9723051974650617,0.0,0.0,0.0,0.0,0.9723051974650617,0.0,0.0,0.0,0.0,0.9723051974650617,0.0,27.51128637829085,1.2837167166460037,2.3529713969418533,1.0]},{"name":"Bookcase","children":[34,35,36,37],"extras":{"veldrenEntityKey":"realm_crownreach_25_upper:object:7400243"}},{"mesh":8,"matrix":[0.707310041242665,0.0,0.0,0.0,0.0,0.707310041242665,0.0,0.0,0.0,0.0,0.707310041242665,0.0,30.5,0.012295179585804138,2.290000289842876,1.0]},{"mesh":9,"matrix":[0.9723051974650617,0.0,0.0,0.0,0.0,0.9723051974650617,0.0,0.0,0.0,0.0,0.9723051974650617,0.0,30.51128637829085,0.30371671664600375,2.3529713969418533,1.0]},{"mesh":9,"matrix":[0.9723051974650617,0.0,0.0,0.0,0.0,0.9723051974650617,0.0,0.0,0.0,0.0,0.9723051974650617,0.0,30.51128637829085,0.7837167166460037,2.3529713969418533,1.0]},{"mesh":9,"matrix":[0.9723051974650617,0.0,0.0,0.0,0.0,0.9723051974650617,0.0,0.0,0.0,0.0,0.9723051974650617,0.0,30.51128637829085,1.2837167166460037,2.3529713969418533,1.0]},{"name":"Council table","children":[39,40,41,42],"extras":{"veldrenEntityKey":"realm_crownreach_25_upper:object:7400244"}},{"mesh":3,"matrix":[0.9588829055315417,0.0,0.0,0.0,0.0,0.9588829055315417,0.0,0.0,0.0,0.0,0.9588829055315417,0.0,21.5,-0.001210940581595084,6.493915312740371,1.0]},{"mesh":10,"matrix":[0.24191449349746375,0.0,0.0,0.0,0.0,0.24191449349746375,0.0,0.0,0.0,0.0,0.24191449349746375,0.0,21.149981712814785,0.7806046715986324,6.499981568622511,1.0]},{"mesh":9,"matrix":[0.6705553085965944,0.0,0.0,0.0,0.0,0.6705553085965944,0.0,0.0,0.0,0.0,0.6705553085965944,0.0,22.057783709166106,0.7825632528593129,6.522738894442657,1.0]},{"mesh":6,"matrix":[1.9327574809196684,0.0,0.0,0.0,0.0,1.9327574809196684,0.0,0.0,0.0,0.0,1.9327574809196684,0.0,22.588574150074113,0.7771759556658508,6.5,1.0]},{"name":"Chair","children":[44],"extras":{"veldrenEntityKey":"realm_crownreach_25_upper:object:7400245"}},{"mesh":7,"matrix":[-0.9169539213180542,0.0,-1.122944797748426e-16,0.0,0.0,0.9169539213180542,0.0,0.0,1.122944797748426e-16,0.0,-0.9169539213180542,0.0,21.5,0.0024813238997012377,8.48434066772461,1.0]},{"name":"Bookcase","children":[46,47,48,49],"extras":{"veldrenEntityKey":"realm_crownreach_25_upper:object:7400246"}},{"mesh":8,"matrix":[0.707310041242665,0.0,0.0,0.0,0.0,0.707310041242665,0.0,0.0,0.0,0.0,0.707310041242665,0.0,35.5,0.012295179585804138,2.290000289842876,1.0]},{"mesh":9,"matrix":[0.9723051974650617,0.0,0.0,0.0,0.0,0.9723051974650617,0.0,0.0,0.0,0.0,0.9723051974650617,0.0,35.511286378290855,0.30371671664600375,2.3529713969418533,1.0]},{"mesh":9,"matrix":[0.9723051974650617,0.0,0.0,0.0,0.0,0.9723051974650617,0.0,0.0,0.0,0.0,0.9723051974650617,0.0,35.511286378290855,0.7837167166460037,2.3529713969418533,1.0]},{"mesh":9,"matrix":[0.9723051974650617,0.0,0.0,0.0,0.0,0.9723051974650617,0.0,0.0,0.0,0.0,0.9723051974650617,0.0,35.511286378290855,1.2837167166460037,2.3529713969418533,1.0]},{"name":"Bookcase","children":[51,52,53,54],"extras":{"veldrenEntityKey":"realm_crownreach_25_upper:object:7400247"}},{"mesh":8,"matrix":[0.707310041242665,0.0,0.0,0.0,0.0,0.707310041242665,0.0,0.0,0.0,0.0,0.707310041242665,0.0,38.5,0.012295179585804138,2.290000289842876,1.0]},{"mesh":9,"matrix":[0.9723051974650617,0.0,0.0,0.0,0.0,0.9723051974650617,0.0,0.0,0.0,0.0,0.9723051974650617,0.0,38.511286378290855,0.30371671664600375,2.3529713969418533,1.0]},{"mesh":9,"matrix":[0.9723051974650617,0.0,0.0,0.0,0.0,0.9723051974650617,0.0,0.0,0.0,0.0,0.9723051974650617,0.0,38.511286378290855,0.7837167166460037,2.3529713969418533,1.0]},{"mesh":9,"matrix":[0.9723051974650617,0.0,0.0,0.0,0.0,0.9723051974650617,0.0,0.0,0.0,0.0,0.9723051974650617,0.0,38.511286378290855,1.2837167166460037,2.3529713969418533,1.0]},{"name":"Bookcase","children":[56,57,58,59],"extras":{"veldrenEntityKey":"realm_crownreach_25_upper:object:7400248"}},{"mesh":8,"matrix":[0.707310041242665,0.0,0.0,0.0,0.0,0.707310041242665,0.0,0.0,0.0,0.0,0.707310041242665,0.0,41.5,0.012295179585804138,2.290000289842876,1.0]},{"mesh":9,"matrix":[0.9723051974650617,0.0,0.0,0.0,0.0,0.9723051974650617,0.0,0.0,0.0,0.0,0.9723051974650617,0.0,41.511286378290855,0.30371671664600375,2.3529713969418533,1.0]},{"mesh":9,"matrix":[0.9723051974650617,0.0,0.0,0.0,0.0,0.9723051974650617,0.0,0.0,0.0,0.0,0.9723051974650617,0.0,41.511286378290855,0.7837167166460037,2.3529713969418533,1.0]},{"mesh":9,"matrix":[0.9723051974650617,0.0,0.0,0.0,0.0,0.9723051974650617,0.0,0.0,0.0,0.0,0.9723051974650617,0.0,41.511286378290855,1.2837167166460037,2.3529713969418533,1.0]},{"name":"Bookcase","children":[61,62,63,64],"extras":{"veldrenEntityKey":"realm_crownreach_25_upper:object:7400249"}},{"mesh":8,"matrix":[0.707310041242665,0.0,0.0,0.0,0.0,0.707310041242665,0.0,0.0,0.0,0.0,0.707310041242665,0.0,44.5,0.012295179585804138,2.290000289842876,1.0]},{"mesh":9,"matrix":[0.9723051974650617,0.0,0.0,0.0,0.0,0.9723051974650617,0.0,0.0,0.0,0.0,0.9723051974650617,0.0,44.511286378290855,0.30371671664600375,2.3529713969418533,1.0]},{"mesh":9,"matrix":[0.9723051974650617,0.0,0.0,0.0,0.0,0.9723051974650617,0.0,0.0,0.0,0.0,0.9723051974650617,0.0,44.511286378290855,0.7837167166460037,2.3529713969418533,1.0]},{"mesh":9,"matrix":[0.9723051974650617,0.0,0.0,0.0,0.0,0.9723051974650617,0.0,0.0,0.0,0.0,0.9723051974650617,0.0,44.511286378290855,1.2837167166460037,2.3529713969418533,1.0]},{"name":"Reading table","children":[66,67,68,69],"extras":{"veldrenEntityKey":"realm_crownreach_25_upper:object:7400250"}},{"mesh":3,"matrix":[0.9588829055315417,0.0,0.0,0.0,0.0,0.9588829055315417,0.0,0.0,0.0,0.0,0.9588829055315417,0.0,37.5,-0.001210940581595084,6.493915312740371,1.0]},{"mesh":10,"matrix":[0.24191449349746375,0.0,0.0,0.0,0.0,0.24191449349746375,0.0,0.0,0.0,0.0,0.24191449349746375,0.0,37.149981712814785,0.7806046715986324,6.499981568622511,1.0]},{"mesh":9,"matrix":[0.6705553085965944,0.0,0.0,0.0,0.0,0.6705553085965944,0.0,0.0,0.0,0.0,0.6705553085965944,0.0,38.0577837091661,0.7825632528593129,6.522738894442657,1.0]},{"mesh":6,"matrix":[1.9327574809196684,0.0,0.0,0.0,0.0,1.9327574809196684,0.0,0.0,0.0,0.0,1.9327574809196684,0.0,38.588574150074116,0.7771759556658508,6.5,1.0]},{"name":"Chair","children":[71],"extras":{"veldrenEntityKey":"realm_crownreach_25_upper:object:7400251"}},{"mesh":7,"matrix":[-0.9169539213180542,0.0,-1.122944797748426e-16,0.0,0.0,0.9169539213180542,0.0,0.0,1.122944797748426e-16,0.0,-0.9169539213180542,0.0,37.5,0.0024813238997012377,8.48434066772461,1.0]},{"name":"Bed","children":[73],"extras":{"veldrenEntityKey":"realm_crownreach_25_upper:object:7400252"}},{"mesh":0,"matrix":[1.0795054353721547,0.0,0.0,0.0,0.0,1.0795054353721547,0.0,0.0,0.0,0.0,1.0795054353721547,0.0,3.5,-0.0004893649354120636,18.43,1.0]},{"name":"Bed","children":[75],"extras":{"veldrenEntityKey":"realm_crownreach_25_upper:object:7400253"}},{"mesh":1,"matrix":[1.0185025013877824,0.0,0.0,0.0,0.0,1.0185025013877824,0.0,0.0,0.0,0.0,1.0185025013877824,0.0,13.5,-0.0004617108858158083,18.43,1.0]},{"name":"Storage chest","children":[77],"extras":{"veldrenEntityKey":"realm_crownreach_25_upper:object:7400254"}},{"mesh":2,"matrix":[-1.0486178398132324,0.0,-1.2841865189833467e-16,0.0,0.0,1.0486178398132324,0.0,0.0,1.2841865189833467e-16,0.0,-1.0486178398132324,0.0,13.499556541442871,0.023800354450941086,23.454999923706055,1.0]},{"name":"Dining table","children":[79,80,81,82],"extras":{"veldrenEntityKey":"realm_crownreach_25_upper:object:7400255"}},{"mesh":3,"matrix":[0.9588829055315417,0.0,0.0,0.0,0.0,0.9588829055315417,0.0,0.0,0.0,0.0,0.9588829055315417,0.0,5.5,-0.001210940581595084,20.49391531274037,1.0]},{"mesh":4,"matrix":[0.8903870142199419,0.0,0.0,0.0,0.0,0.8903870142199419,0.0,0.0,0.0,0.0,0.8903870142199419,0.0,5.159900358818818,0.7806725885457619,20.4999999800983,1.0]},{"mesh":5,"matrix":[0.9245011738728264,0.0,0.0,0.0,0.0,0.9245011738728264,0.0,0.0,0.0,0.0,0.9245011738728264,0.0,5.776267638674035,0.7842922688491613,20.381239005458745,1.0]},{"mesh":6,"matrix":[1.8683322315556792,0.0,0.0,0.0,0.0,1.8683322315556792,0.0,0.0,0.0,0.0,1.8683322315556792,0.0,5.585621678404976,0.7772700904769891,20.5,1.0]},{"name":"Chair","children":[84],"extras":{"veldrenEntityKey":"realm_crownreach_25_upper:object:7400256"}},{"mesh":7,"matrix":[-0.9169539213180542,0.0,-1.122944797748426e-16,0.0,0.0,0.9169539213180542,0.0,0.0,1.122944797748426e-16,0.0,-0.9169539213180542,0.0,5.5,0.0024813238997012377,22.48434066772461,1.0]},{"name":"Altar","children":[86,87,88,89],"extras":{"veldrenEntityKey":"realm_crownreach_25_upper:object:7400257"}},{"mesh":10,"matrix":[-0.1935315877199173,0.0,-2.3700785883730725e-17,0.0,0.0,0.1935315877199173,0.0,0.0,2.3700785883730725e-17,0.0,-0.1935315877199173,0.0,24.500015258789062,0.8804837465286255,22.500015258789062,1.0]},{"mesh":6,"matrix":[-0.7665253281593323,0.0,-9.387228741311493e-17,0.0,0.0,0.7665253281593323,0.0,0.0,9.387228741311493e-17,0.0,-0.7665253281593323,0.0,24.954872131347656,0.878879964351654,22.5,1.0]},{"mesh":6,"matrix":[-0.7665253281593323,0.0,-9.387228741311493e-17,0.0,0.0,0.7665253281593323,0.0,0.0,9.387228741311493e-17,0.0,-0.7665253281593323,0.0,23.974872589111328,0.878879964351654,22.5,1.0]},{"mesh":11,"matrix":[1.0,0.0,0.0,0.0,0.0,1.0,0.0,0.0,0.0,0.0,1.0,0.0,0.0,0.0,0.0,1.0]},{"name":"Bench","children":[91],"extras":{"veldrenEntityKey":"realm_crownreach_25_upper:object:7400259"}},{"mesh":12,"matrix":[5.5121463135961645e-17,0.0,-0.9002017378807068,0.0,0.0,0.9002017378807068,0.0,0.0,0.9002017378807068,0.0,5.5121463135961645e-17,0.0,21.495487213134766,0.006537420675158501,22.5,1.0]},{"name":"Bed","children":[93],"extras":{"veldrenEntityKey":"realm_crownreach_25_upper:object:7400260"}},{"mesh":0,"matrix":[1.0795054353721547,0.0,0.0,0.0,0.0,1.0795054353721547,0.0,0.0,0.0,0.0,1.0795054353721547,0.0,35.5,-0.0004893649354120636,18.43,1.0]},{"name":"Bed","children":[95],"extras":{"veldrenEntityKey":"realm_crownreach_25_upper:object:7400261"}},{"mesh":1,"matrix":[1.0185025013877824,0.0,0.0,0.0,0.0,1.0185025013877824,0.0,0.0,0.0,0.0,1.0185025013877824,0.0,45.5,-0.0004617108858158083,18.43,1.0]},{"name":"Storage chest","children":[97],"extras":{"veldrenEntityKey":"realm_crownreach_25_upper:object:7400262"}},{"mesh":2,"matrix":[-1.0486178398132324,0.0,-1.2841865189833467e-16,0.0,0.0,1.0486178398132324,0.0,0.0,1.2841865189833467e-16,0.0,-1.0486178398132324,0.0,45.49955749511719,0.023800354450941086,23.454999923706055,1.0]},{"name":"Dining table","children":[99,100,101,102],"extras":{"veldrenEntityKey":"realm_crownreach_25_upper:object:7400263"}},{"mesh":3,"matrix":[0.9588829055315417,0.0,0.0,0.0,0.0,0.9588829055315417,0.0,0.0,0.0,0.0,0.9588829055315417,0.0,37.5,-0.001210940581595084,20.49391531274037,1.0]},{"mesh":4,"matrix":[0.8903870142199419,0.0,0.0,0.0,0.0,0.8903870142199419,0.0,0.0,0.0,0.0,0.8903870142199419,0.0,37.15990035881882,0.7806725885457619,20.4999999800983,1.0]},{"mesh":5,"matrix":[0.9245011738728264,0.0,0.0,0.0,0.0,0.9245011738728264,0.0,0.0,0.0,0.0,0.9245011738728264,0.0,37.776267638674035,0.7842922688491613,20.381239005458745,1.0]},{"mesh":6,"matrix":[1.8683322315556792,0.0,0.0,0.0,0.0,1.8683322315556792,0.0,0.0,0.0,0.0,1.8683322315556792,0.0,37.585621678404976,0.7772700904769891,20.5,1.0]},{"name":"Chair","children":[104],"extras":{"veldrenEntityKey":"realm_crownreach_25_upper:object:7400264"}},{"mesh":7,"matrix":[-0.9169539213180542,0.0,-1.122944797748426e-16,0.0,0.0,0.9169539213180542,0.0,0.0,1.122944797748426e-16,0.0,-0.9169539213180542,0.0,37.5,0.0024813238997012377,22.48434066772461,1.0]},{"name":"Stone stairs down to the guard hall","children":[106],"extras":{"veldrenEntityKey":"realm_crownreach_25_upper:object:7400265"}},{"mesh":13,"matrix":[1.0,0.0,0.0,0.0,0.0,1.0,0.0,0.0,0.0,0.0,1.0,0.0,0.0,0.0,0.0,1.0]},{"name":"Spiral stairs to the watchtower","children":[108],"extras":{"veldrenEntityKey":"realm_crownreach_25_upper:object:7400267"}},{"mesh":14,"matrix":[1.0,0.0,0.0,0.0,0.0,1.0,0.0,0.0,0.0,0.0,1.0,0.0,0.0,0.0,0.0,1.0]}],"buffers":[{"uri":"../world-parts/c2df40a66453636f63457faec436195ffd3d73cde0dcddf7486ad93257fea071.bin","byteLength":159960},{"uri":"../world-parts/9a2512b436b63bb7ea06e287302379ec7cd545afa3634b62d51eac88505a4bb8.bin","byteLength":161496},{"uri":"../world-parts/974a21d8ae8e0859926ffd9e6f304d80a7c46e7e5ee3150935a76e128408bac6.bin","byteLength":299352},{"uri":"../world-parts/f4b04e3619cf212187b96076e7e940da50275113f8897ecbcd59f59213422623.bin","byteLength":117840},{"uri":"../world-parts/1f7416da9fb55b4744e69d48ce26911a903332abddb1946bc3f9f1cd1766d723.bin","byteLength":17184},{"uri":"../world-parts/2bed24ed427da899c64f0c99a7488970d5ac0a3dd007e3dcf039fbfe4113db36.bin","byteLength":31776},{"uri":"../world-parts/42a4131a7f9fe484a70590f8dd3499998303718cfb71bec957ec5894fb0867bf.bin","byteLength":53532},{"uri":"../world-parts/ddcc3d6e1ffba2575a9ad5c6e02f5f299d918638f3e83151b75ace5729ff5966.bin","byteLength":58704},{"uri":"../world-parts/cb9df46869a74c2b21acdc562e58e1fd0bcaa177f7275e87e50e477c73f4776f.bin","byteLength":193944},{"uri":"../world-parts/f52aa0036ce251ef1eb08d3699186b9705c3883af59782ac743cf0836182a57c.bin","byteLength":53376},{"uri":"../world-parts/8c606c767d7974315c7bb6356ec371eba10870d54f739fa0df01dc9a7e966490.bin","byteLength":157080},{"uri":"../world-parts/6a3924d97e4c1a9c89e29118967d89c158e52052d1b46cdb3ca7423f560edddb.bin","byteLength":20064},{"uri":"../world-parts/808fd5c41983b9f83a909094468f5d007a25e97b9a570c95194c20f799468121.bin","byteLength":40296},{"uri":"../world-parts/5f574c5417d5684fbdbf260cc649d06a16f8d4be18c41171c78d8ea63ed324a1.bin","byteLength":53856},{"uri":"../world-parts/d14f6404aaf17b450c27abef9ed13839bb05b87f291cf3bdc659907d2f79c6e2.bin","byteLength":39072}],"bufferViews":[{"buffer":0,"byteOffset":0,"byteLength":20136,"target":34962},{"buffer":0,"byteOffset":20136,"byteLength":20136,"target":34962},{"buffer":0,"byteOffset":40272,"byteLength":13424,"target":34962},{"buffer":0,"byteOffset":53696,"byteLength":20136,"target":34962},{"buffer":0,"byteOffset":73832,"byteLength":20136,"target":34962},{"buffer":0,"byteOffset":93968,"byteLength":20136,"target":34962},{"buffer":0,"byteOffset":114104,"byteLength":20136,"target":34962},{"buffer":0,"byteOffset":134240,"byteLength":6712,"target":34962},{"buffer":0,"byteOffset":140952,"byteLength":11760,"target":34963},{"buffer":0,"byteOffset":152712,"byteLength":2112,"target":34963},{"buffer":0,"byteOffset":154824,"byteLength":5136,"target":34963},{"buffer":1,"byteOffset":0,"byteLength":20328,"target":34962},{"buffer":1,"byteOffset":20328,"byteLength":20328,"target":34962},{"buffer":1,"byteOffset":40656,"byteLength":13552,"target":34962},{"buffer":1,"byteOffset":54208,"byteLength":20328,"target":34962},{"buffer":1,"byteOffset":74536,"byteLength":20328,"target":34962},{"buffer":1,"byteOffset":94864,"byteLength":20328,"target":34962},{"buffer":1,"byteOffset":115192,"byteLength":20328,"target":34962},{"buffer":1,"byteOffset":135520,"byteLength":6776,"target":34962},{"buffer":1,"byteOffset":142296,"byteLength":11952,"target":34963},{"buffer":1,"byteOffset":154248,"byteLength":2112,"target":34963},{"buffer":1,"byteOffset":156360,"byteLength":5136,"target":34963},{"buffer":2,"byteOffset":0,"byteLength":38400,"target":34962},{"buffer":2,"byteOffset":38400,"byteLength":38400,"target":34962},{"buffer":2,"byteOffset":76800,"byteLength":25600,"target":34962},{"buffer":2,"byteOffset":102400,"byteLength":38400,"target":34962},{"buffer":2,"byteOffset":140800,"byteLength":38400,"target":34962},{"buffer":2,"byteOffset":179200,"byteLength":38400,"target":34962},{"buffer":2,"byteOffset":217600,"byteLength":38400,"target":34962},{"buffer":2,"byteOffset":256000,"byteLength":12800,"target":34962},{"buffer":2,"byteOffset":268800,"byteLength":4416,"target":34963},{"buffer":2,"byteOffset":273216,"byteLength":26136,"target":34963},{"buffer":3,"byteOffset":0,"byteLength":15144,"target":34962},{"buffer":3,"byteOffset":15144,"byteLength":15144,"target":34962},{"buffer":3,"byteOffset":30288,"byteLength":10096,"target":34962},{"buffer":3,"byteOffset":40384,"byteLength":15144,"target":34962},{"buffer":3,"byteOffset":55528,"byteLength":15144,"target":34962},{"buffer":3,"byteOffset":70672,"byteLength":15144,"target":34962},{"buffer":3,"byteOffset":85816,"byteLength":15144,"target":34962},{"buffer":3,"byteOffset":100960,"byteLength":5048,"target":34962},{"buffer":3,"byteOffset":106008,"byteLength":11352,"target":34963},{"buffer":3,"byteOffset":117360,"byteLength":480,"target":34963},{"buffer":4,"byteOffset":0,"byteLength":2160,"target":34962},{"buffer":4,"byteOffset":2160,"byteLength":2160,"target":34962},{"buffer":4,"byteOffset":4320,"byteLength":1440,"target":34962},{"buffer":4,"byteOffset":5760,"byteLength":2160,"target":34962},{"buffer":4,"byteOffset":7920,"byteLength":2160,"target":34962},{"buffer":4,"byteOffset":10080,"byteLength":2160,"target":34962},{"buffer":4,"byteOffset":12240,"byteLength":2160,"target":34962},{"buffer":4,"byteOffset":14400,"byteLength":720,"target":34962},{"buffer":4,"byteOffset":15120,"byteLength":2064,"target":34963},{"buffer":5,"byteOffset":0,"byteLength":4080,"target":34962},{"buffer":5,"byteOffset":4080,"byteLength":4080,"target":34962},{"buffer":5,"byteOffset":8160,"byteLength":2720,"target":34962},{"buffer":5,"byteOffset":10880,"byteLength":4080,"target":34962},{"buffer":5,"byteOffset":14960,"byteLength":4080,"target":34962},{"buffer":5,"byteOffset":19040,"byteLength":4080,"target":34962},{"buffer":5,"byteOffset":23120,"byteLength":4080,"target":34962},{"buffer":5,"byteOffset":27200,"byteLength":1360,"target":34962},{"buffer":5,"byteOffset":28560,"byteLength":1464,"target":34963},{"buffer":5,"byteOffset":30024,"byteLength":1752,"target":34963},{"buffer":6,"byteOffset":0,"byteLength":6396,"target":34962},{"buffer":6,"byteOffset":6396,"byteLength":6396,"target":34962},{"buffer":6,"byteOffset":12792,"byteLength":4264,"target":34962},{"buffer":6,"byteOffset":17056,"byteLength":6396,"target":34962},{"buffer":6,"byteOffset":23452,"byteLength":6396,"target":34962},{"buffer":6,"byteOffset":29848,"byteLength":6396,"target":34962},{"buffer":6,"byteOffset":36244,"byteLength":6396,"target":34962},{"buffer":6,"byteOffset":42640,"byteLength":2132,"target":34962},{"buffer":6,"byteOffset":44772,"byteLength":8760,"target":34963},{"buffer":7,"byteOffset":0,"byteLength":7536,"target":34962},{"buffer":7,"byteOffset":7536,"byteLength":7536,"target":34962},{"buffer":7,"byteOffset":15072,"byteLength":5024,"target":34962},{"buffer":7,"byteOffset":20096,"byteLength":7536,"target":34962},{"buffer":7,"byteOffset":27632,"byteLength":7536,"target":34962},{"buffer":7,"byteOffset":35168,"byteLength":7536,"target":34962},{"buffer":7,"byteOffset":42704,"byteLength":7536,"target":34962},{"buffer":7,"byteOffset":50240,"byteLength":2512,"target":34962},{"buffer":7,"byteOffset":52752,"byteLength":4368,"target":34963},{"buffer":7,"byteOffset":57120,"byteLength":1584,"target":34963},{"buffer":8,"byteOffset":0,"byteLength":24024,"target":34962},{"buffer":8,"byteOffset":24024,"byteLength":24024,"target":34962},{"buffer":8,"byteOffset":48048,"byteLength":16016,"target":34962},{"buffer":8,"byteOffset":64064,"byteLength":24024,"target":34962},{"buffer":8,"byteOffset":88088,"byteLength":24024,"target":34962},{"buffer":8,"byteOffset":112112,"byteLength":24024,"target":34962},{"buffer":8,"byteOffset":136136,"byteLength":24024,"target":34962},{"buffer":8,"byteOffset":160160,"byteLength":8008,"target":34962},{"buffer":8,"byteOffset":168168,"byteLength":5712,"target":34963},{"buffer":8,"byteOffset":173880,"byteLength":20064,"target":34963},{"buffer":9,"byteOffset":0,"byteLength":6912,"target":34962},{"buffer":9,"byteOffset":6912,"byteLength":6912,"target":34962},{"buffer":9,"byteOffset":13824,"byteLength":4608,"target":34962},{"buffer":9,"byteOffset":18432,"byteLength":6912,"target":34962},{"buffer":9,"byteOffset":25344,"byteLength":6912,"target":34962},{"buffer":9,"byteOffset":32256,"byteLength":6912,"target":34962},{"buffer":9,"byteOffset":39168,"byteLength":6912,"target":34962},{"buffer":9,"byteOffset":46080,"byteLength":2304,"target":34962},{"buffer":9,"byteOffset":48384,"byteLength":4992,"target":34963},{"buffer":10,"byteOffset":0,"byteLength":19824,"target":34962},{"buffer":10,"byteOffset":19824,"byteLength":19824,"target":34962},{"buffer":10,"byteOffset":39648,"byteLength":13216,"target":34962},{"buffer":10,"byteOffset":52864,"byteLength":19824,"target":34962},{"buffer":10,"byteOffset":72688,"byteLength":19824,"target":34962},{"buffer":10,"byteOffset":92512,"byteLength":19824,"target":34962},{"buffer":10,"byteOffset":112336,"byteLength":19824,"target":34962},{"buffer":10,"byteOffset":132160,"byteLength":6608,"target":34962},{"buffer":10,"byteOffset":138768,"byteLength":18312,"target":34963},{"buffer":11,"byteOffset":0,"byteLength":2736,"target":34962},{"buffer":11,"byteOffset":2736,"byteLength":2736,"target":34962},{"buffer":11,"byteOffset":5472,"byteLength":1824,"target":34962},{"buffer":11,"byteOffset":7296,"byteLength":2736,"target":34962},{"buffer":11,"byteOffset":10032,"byteLength":2736,"target":34962},{"buffer":11,"byteOffset":12768,"byteLength":2736,"target":34962},{"buffer":11,"byteOffset":15504,"byteLength":2736,"target":34962},{"buffer":11,"byteOffset":18240,"byteLength":912,"target":34962},{"buffer":11,"byteOffset":19152,"byteLength":912,"target":34963},{"buffer":12,"byteOffset":0,"byteLength":5064,"target":34962},{"buffer":12,"byteOffset":5064,"byteLength":5064,"target":34962},{"buffer":12,"byteOffset":10128,"byteLength":3376,"target":34962},{"buffer":12,"byteOffset":13504,"byteLength":5064,"target":34962},{"buffer":12,"byteOffset":18568,"byteLength":5064,"target":34962},{"buffer":12,"byteOffset":23632,"byteLength":5064,"target":34962},{"buffer":12,"byteOffset":28696,"byteLength":5064,"target":34962},{"buffer":12,"byteOffset":33760,"byteLength":1688,"target":34962},{"buffer":12,"byteOffset":35448,"byteLength":3024,"target":34963},{"buffer":12,"byteOffset":38472,"byteLength":1824,"target":34963},{"buffer":13,"byteOffset":0,"byteLength":7344,"target":34962},{"buffer":13,"byteOffset":7344,"byteLength":7344,"target":34962},{"buffer":13,"byteOffset":14688,"byteLength":4896,"target":34962},{"buffer":13,"byteOffset":19584,"byteLength":7344,"target":34962},{"buffer":13,"byteOffset":26928,"byteLength":7344,"target":34962},{"buffer":13,"byteOffset":34272,"byteLength":7344,"target":34962},{"buffer":13,"byteOffset":41616,"byteLength":7344,"target":34962},{"buffer":13,"byteOffset":48960,"byteLength":2448,"target":34962},{"buffer":13,"byteOffset":51408,"byteLength":2448,"target":34963},{"buffer":14,"byteOffset":0,"byteLength":5328,"target":34962},{"buffer":14,"byteOffset":5328,"byteLength":5328,"target":34962},{"buffer":14,"byteOffset":10656,"byteLength":3552,"target":34962},{"buffer":14,"byteOffset":14208,"byteLength":5328,"target":34962},{"buffer":14,"byteOffset":19536,"byteLength":5328,"target":34962},{"buffer":14,"byteOffset":24864,"byteLength":5328,"target":34962},{"buffer":14,"byteOffset":30192,"byteLength":5328,"target":34962},{"buffer":14,"byteOffset":35520,"byteLength":1776,"target":34962},{"buffer":14,"byteOffset":37296,"byteLength":1776,"target":34963}],"accessors":[{"bufferView":0,"componentType":5126,"count":1678,"type":"VEC3","min":[-0.9378617405891418,0.0004533232713583857,-1.205949068069458],"max":[0.9378617405891418,0.7600604295730591,1.205949068069458]},{"bufferView":1,"componentType":5126,"count":1678,"type":"VEC3"},{"bufferView":2,"componentType":5126,"count":1678,"type":"VEC2"},{"bufferView":3,"componentType":5126,"count":1678,"type":"VEC3"},{"bufferView":4,"componentType":5126,"count":1678,"type":"VEC3"},{"bufferView":5,"componentType":5126,"count":1678,"type":"VEC3"},{"bufferView":6,"componentType":5126,"count":1678,"type":"VEC3"},{"bufferView":7,"componentType":5126,"count":1678,"type":"SCALAR"},{"bufferView":8,"componentType":5125,"count":2940,"type":"SCALAR"},{"bufferView":9,"componentType":5125,"count":528,"type":"SCALAR"},{"bufferView":10,"componentType":5125,"count":1284,"type":"SCALAR"},{"bufferView":11,"componentType":5126,"count":1694,"type":"VEC3","min":[-0.9378617405891418,0.0004533232713583857,-1.205949068069458],"max":[0.9378617405891418,0.8055568933486938,1.205949068069458]},{"bufferView":12,"componentType":5126,"count":1694,"type":"VEC3"},{"bufferView":13,"componentType":5126,"count":1694,"type":"VEC2"},{"bufferView":14,"componentType":5126,"count":1694,"type":"VEC3"},{"bufferView":15,"componentType":5126,"count":1694,"type":"VEC3"},{"bufferView":16,"componentType":5126,"count":1694,"type":"VEC3"},{"bufferView":17,"componentType":5126,"count":1694,"type":"VEC3"},{"bufferView":18,"componentType":5126,"count":1694,"type":"SCALAR"},{"bufferView":19,"componentType":5125,"count":2988,"type":"SCALAR"},{"bufferView":20,"componentType":5125,"count":528,"type":"SCALAR"},{"bufferView":21,"componentType":5125,"count":1284,"type":"SCALAR"},{"bufferView":22,"componentType":5126,"count":3200,"type":"VEC3","min":[-0.638446033000946,-0.022696882486343384,-0.3777054250240326],"max":[0.6376006007194519,0.6925303339958191,0.3777054250240326]},{"bufferView":23,"componentType":5126,"count":3200,"type":"VEC3"},{"bufferView":24,"componentType":5126,"count":3200,"type":"VEC2"},{"bufferView":25,"componentType":5126,"count":3200,"type":"VEC3"},{"bufferView":26,"componentType":5126,"count":3200,"type":"VEC3"},{"bufferView":27,"componentType":5126,"count":3200,"type":"VEC3"},{"bufferView":28,"componentType":5126,"count":3200,"type":"VEC3"},{"bufferView":29,"componentType":5126,"count":3200,"type":"SCALAR"},{"bufferView":30,"componentType":5125,"count":1104,"type":"SCALAR"},{"bufferView":31,"componentType":5125,"count":6534,"type":"SCALAR"},{"bufferView":32,"componentType":5126,"count":1262,"type":"VEC3","min":[-1.4242464303970337,0.001262865960597992,-0.5419855713844299],"max":[1.4242464303970337,0.8147094249725342,0.5546767711639404]},{"bufferView":33,"componentType":5126,"count":1262,"type":"VEC3"},{"bufferView":34,"componentType":5126,"count":1262,"type":"VEC2"},{"bufferView":35,"componentType":5126,"count":1262,"type":"VEC3"},{"bufferView":36,"componentType":5126,"count":1262,"type":"VEC3"},{"bufferView":37,"componentType":5126,"count":1262,"type":"VEC3"},{"bufferView":38,"componentType":5126,"count":1262,"type":"VEC3"},{"bufferView":39,"componentType":5126,"count":1262,"type":"SCALAR"},{"bufferView":40,"componentType":5125,"count":2838,"type":"SCALAR"},{"bufferView":41,"componentType":5125,"count":120,"type":"SCALAR"},{"bufferView":42,"componentType":5126,"count":180,"type":"VEC3","min":[-0.16652752459049225,-0.0007553889881819487,-0.16846604645252228],"max":[0.16675134003162384,0.01940305158495903,0.16846609115600586]},{"bufferView":43,"componentType":5126,"count":180,"type":"VEC3"},{"bufferView":44,"componentType":5126,"count":180,"type":"VEC2"},{"bufferView":45,"componentType":5126,"count":180,"type":"VEC3"},{"bufferView":46,"componentType":5126,"count":180,"type":"VEC3"},{"bufferView":47,"componentType":5126,"count":180,"type":"VEC3"},{"bufferView":48,"componentType":5126,"count":180,"type":"VEC3"},{"bufferView":49,"componentType":5126,"count":180,"type":"SCALAR"},{"bufferView":50,"componentType":5125,"count":516,"type":"SCALAR"},{"bufferView":51,"componentType":5126,"count":340,"type":"VEC3","min":[-0.07037083804607391,-0.004642794374376535,-0.07473406940698624],"max":[0.12171173840761185,0.1792401522397995,0.0720536932349205]},{"bufferView":52,"componentType":5126,"count":340,"type":"VEC3"},{"bufferView":53,"componentType":5126,"count":340,"type":"VEC2"},{"bufferView":54,"componentType":5126,"count":340,"type":"VEC3"},{"bufferView":55,"componentType":5126,"count":340,"type":"VEC3"},{"bufferView":56,"componentType":5126,"count":340,"type":"VEC3"},{"bufferView":57,"componentType":5126,"count":340,"type":"VEC3"},{"bufferView":58,"componentType":5126,"count":340,"type":"SCALAR"},{"bufferView":59,"componentType":5125,"count":366,"type":"SCALAR"},{"bufferView":60,"componentType":5125,"count":438,"type":"SCALAR"},{"bufferView":61,"componentType":5126,"count":533,"type":"VEC3","min":[-0.1762866973876953,0.0014611477963626385,-0.0896759033203125],"max":[0.08463096618652344,0.15667979419231415,0.0896759033203125]},{"bufferView":62,"componentType":5126,"count":533,"type":"VEC3"},{"bufferView":63,"componentType":5126,"count":533,"type":"VEC2"},{"bufferView":64,"componentType":5126,"count":533,"type":"VEC3"},{"bufferView":65,"componentType":5126,"count":533,"type":"VEC3"},{"bufferView":66,"componentType":5126,"count":533,"type":"VEC3"},{"bufferView":67,"componentType":5126,"count":533,"type":"VEC3"},{"bufferView":68,"componentType":5126,"count":533,"type":"SCALAR"},{"bufferView":69,"componentType":5125,"count":2190,"type":"SCALAR"},{"bufferView":70,"componentType":5126,"count":628,"type":"VEC3","min":[-0.29025912284851074,-0.0027060508728027344,-0.29154688119888306],"max":[0.29025912284851074,1.1205782890319824,0.25739121437072754]},{"bufferView":71,"componentType":5126,"count":628,"type":"VEC3"},{"bufferView":72,"componentType":5126,"count":628,"type":"VEC2"},{"bufferView":73,"componentType":5126,"count":628,"type":"VEC3"},{"bufferView":74,"componentType":5126,"count":628,"type":"VEC3"},{"bufferView":75,"componentType":5126,"count":628,"type":"VEC3"},{"bufferView":76,"componentType":5126,"count":628,"type":"VEC3"},{"bufferView":77,"componentType":5126,"count":628,"type":"SCALAR"},{"bufferView":78,"componentType":5125,"count":1092,"type":"SCALAR"},{"bufferView":79,"componentType":5125,"count":396,"type":"SCALAR"},{"bufferView":80,"componentType":5126,"count":2002,"type":"VEC3","min":[-0.7306193113327026,-0.017383012920618057,-0.21449044346809387],"max":[0.7306193113327026,2.5274698734283447,0.2144896239042282]},{"bufferView":81,"componentType":5126,"count":2002,"type":"VEC3"},{"bufferView":82,"componentType":5126,"count":2002,"type":"VEC2"},{"bufferView":83,"componentType":5126,"count":2002,"type":"VEC3"},{"bufferView":84,"componentType":5126,"count":2002,"type":"VEC3"},{"bufferView":85,"componentType":5126,"count":2002,"type":"VEC3"},{"bufferView":86,"componentType":5126,"count":2002,"type":"VEC3"},{"bufferView":87,"componentType":5126,"count":2002,"type":"SCALAR"},{"bufferView":88,"componentType":5125,"count":1428,"type":"SCALAR"},{"bufferView":89,"componentType":5125,"count":5016,"type":"SCALAR"},{"bufferView":90,"componentType":5126,"count":576,"type":"VEC3","min":[-0.5429158210754395,-0.003822582308202982,-0.15765345096588135],"max":[0.5197001099586487,0.2944376766681671,0.0898323655128479]},{"bufferView":91,"componentType":5126,"count":576,"type":"VEC3"},{"bufferView":92,"componentType":5126,"count":576,"type":"VEC2"},{"bufferView":93,"componentType":5126,"count":576,"type":"VEC3"},{"bufferView":94,"componentType":5126,"count":576,"type":"VEC3"},{"bufferView":95,"componentType":5126,"count":576,"type":"VEC3"},{"bufferView":96,"componentType":5126,"count":576,"type":"VEC3"},{"bufferView":97,"componentType":5126,"count":576,"type":"SCALAR"},{"bufferView":98,"componentType":5125,"count":1248,"type":"SCALAR"},{"bufferView":99,"componentType":5126,"count":1652,"type":"VEC3","min":[-0.2534816861152649,-0.00249952613376081,-0.2555173337459564],"max":[0.25363287329673767,1.444292664527893,0.2556697130203247]},{"bufferView":100,"componentType":5126,"count":1652,"type":"VEC3"},{"bufferView":101,"componentType":5126,"count":1652,"type":"VEC2"},{"bufferView":102,"componentType":5126,"count":1652,"type":"VEC3"},{"bufferView":103,"componentType":5126,"count":1652,"type":"VEC3"},{"bufferView":104,"componentType":5126,"count":1652,"type":"VEC3"},{"bufferView":105,"componentType":5126,"count":1652,"type":"VEC3"},{"bufferView":106,"componentType":5126,"count":1652,"type":"SCALAR"},{"bufferView":107,"componentType":5125,"count":4578,"type":"SCALAR"},{"bufferView":108,"componentType":5126,"count":228,"type":"VEC3","min":[23.825000762939453,0.004999999888241291,22.110000610351562],"max":[25.174999237060547,0.875,22.889999389648438]},{"bufferView":109,"componentType":5126,"count":228,"type":"VEC3"},{"bufferView":110,"componentType":5126,"count":228,"type":"VEC2"},{"bufferView":111,"componentType":5126,"count":228,"type":"VEC3"},{"bufferView":112,"componentType":5126,"count":228,"type":"VEC3"},{"bufferView":113,"componentType":5126,"count":228,"type":"VEC3"},{"bufferView":114,"componentType":5126,"count":228,"type":"VEC3"},{"bufferView":115,"componentType":5126,"count":228,"type":"SCALAR"},{"bufferView":116,"componentType":5125,"count":228,"type":"SCALAR"},{"bufferView":117,"componentType":5126,"count":422,"type":"VEC3","min":[-1.3883408308029175,-0.007262172643095255,-0.2621202766895294],"max":[1.3883408308029175,0.525951623916626,0.2721467912197113]},{"bufferView":118,"componentType":5126,"count":422,"type":"VEC3"},{"bufferView":119,"componentType":5126,"count":422,"type":"VEC2"},{"bufferView":120,"componentType":5126,"count":422,"type":"VEC3"},{"bufferView":121,"componentType":5126,"count":422,"type":"VEC3"},{"bufferView":122,"componentType":5126,"count":422,"type":"VEC3"},{"bufferView":123,"componentType":5126,"count":422,"type":"VEC3"},{"bufferView":124,"componentType":5126,"count":422,"type":"SCALAR"},{"bufferView":125,"componentType":5125,"count":756,"type":"SCALAR"},{"bufferView":126,"componentType":5125,"count":456,"type":"SCALAR"},{"bufferView":127,"componentType":5126,"count":612,"type":"VEC3","min":[34.665000915527344,-2.700000047683716,12.0],"max":[36.334999084472656,0.699999988079071,15.0]},{"bufferView":128,"componentType":5126,"count":612,"type":"VEC3"},{"bufferView":129,"componentType":5126,"count":612,"type":"VEC2"},{"bufferView":130,"componentType":5126,"count":612,"type":"VEC3"},{"bufferView":131,"componentType":5126,"count":612,"type":"VEC3"},{"bufferView":132,"componentType":5126,"count":612,"type":"VEC3"},{"bufferView":133,"componentType":5126,"count":612,"type":"VEC3"},{"bufferView":134,"componentType":5126,"count":612,"type":"SCALAR"},{"bufferView":135,"componentType":5125,"count":612,"type":"SCALAR"},{"bufferView":136,"componentType":5126,"count":444,"type":"VEC3","min":[43.60550308227539,0.0,12.612358093261719],"max":[45.400001525878906,2.4000000953674316,14.398622512817383]},{"bufferView":137,"componentType":5126,"count":444,"type":"VEC3"},{"bufferView":138,"componentType":5126,"count":444,"type":"VEC2"},{"bufferView":139,"componentType":5126,"count":444,"type":"VEC3"},{"bufferView":140,"componentType":5126,"count":444,"type":"VEC3"},{"bufferView":141,"componentType":5126,"count":444,"type":"VEC3"},{"bufferView":142,"componentType":5126,"count":444,"type":"VEC3"},{"bufferView":143,"componentType":5126,"count":444,"type":"SCALAR"},{"bufferView":144,"componentType":5125,"count":444,"type":"SCALAR"}],"meshes":[{"name":"c2df40a66453636f63457faec436195ffd3d73cde0dcddf7486ad93257fea071","primitives":[{"attributes":{"POSITION":0,"NORMAL":1,"TEXCOORD_0":2,"COLOR_0":3,"_VELDREN_NORMAL":4,"_VELDREN_COLOR":5,"_VELDREN_FALLBACK":6,"_VELDREN_MATERIAL":7},"indices":8,"material":0,"extras":{"mixedAtlasFallback":false}},{"attributes":{"POSITION":0,"NORMAL":1,"TEXCOORD_0":2,"COLOR_0":3,"_VELDREN_NORMAL":4,"_VELDREN_COLOR":5,"_VELDREN_FALLBACK":6,"_VELDREN_MATERIAL":7},"indices":9,"material":1,"extras":{"mixedAtlasFallback":false}},{"attributes":{"POSITION":0,"NORMAL":1,"TEXCOORD_0":2,"COLOR_0":3,"_VELDREN_NORMAL":4,"_VELDREN_COLOR":5,"_VELDREN_FALLBACK":6,"_VELDREN_MATERIAL":7},"indices":10,"material":2,"extras":{"mixedAtlasFallback":false}}]},{"name":"9a2512b436b63bb7ea06e287302379ec7cd545afa3634b62d51eac88505a4bb8","primitives":[{"attributes":{"POSITION":11,"NORMAL":12,"TEXCOORD_0":13,"COLOR_0":14,"_VELDREN_NORMAL":15,"_VELDREN_COLOR":16,"_VELDREN_FALLBACK":17,"_VELDREN_MATERIAL":18},"indices":19,"material":3,"extras":{"mixedAtlasFallback":false}},{"attributes":{"POSITION":11,"NORMAL":12,"TEXCOORD_0":13,"COLOR_0":14,"_VELDREN_NORMAL":15,"_VELDREN_COLOR":16,"_VELDREN_FALLBACK":17,"_VELDREN_MATERIAL":18},"indices":20,"material":4,"extras":{"mixedAtlasFallback":false}},{"attributes":{"POSITION":11,"NORMAL":12,"TEXCOORD_0":13,"COLOR_0":14,"_VELDREN_NORMAL":15,"_VELDREN_COLOR":16,"_VELDREN_FALLBACK":17,"_VELDREN_MATERIAL":18},"indices":21,"material":5,"extras":{"mixedAtlasFallback":false}}]},{"name":"974a21d8ae8e0859926ffd9e6f304d80a7c46e7e5ee3150935a76e128408bac6","primitives":[{"attributes":{"POSITION":22,"NORMAL":23,"TEXCOORD_0":24,"COLOR_0":25,"_VELDREN_NORMAL":26,"_VELDREN_COLOR":27,"_VELDREN_FALLBACK":28,"_VELDREN_MATERIAL":29},"indices":30,"material":6,"extras":{"mixedAtlasFallback":false}},{"attributes":{"POSITION":22,"NORMAL":23,"TEXCOORD_0":24,"COLOR_0":25,"_VELDREN_NORMAL":26,"_VELDREN_COLOR":27,"_VELDREN_FALLBACK":28,"_VELDREN_MATERIAL":29},"indices":31,"material":7,"extras":{"mixedAtlasFallback":false}}]},{"name":"f4b04e3619cf212187b96076e7e940da50275113f8897ecbcd59f59213422623","primitives":[{"attributes":{"POSITION":32,"NORMAL":33,"TEXCOORD_0":34,"COLOR_0":35,"_VELDREN_NORMAL":36,"_VELDREN_COLOR":37,"_VELDREN_FALLBACK":38,"_VELDREN_MATERIAL":39},"indices":40,"material":8,"extras":{"mixedAtlasFallback":false}},{"attributes":{"POSITION":32,"NORMAL":33,"TEXCOORD_0":34,"COLOR_0":35,"_VELDREN_NORMAL":36,"_VELDREN_COLOR":37,"_VELDREN_FALLBACK":38,"_VELDREN_MATERIAL":39},"indices":41,"material":9,"extras":{"mixedAtlasFallback":false}}]},{"name":"1f7416da9fb55b4744e69d48ce26911a903332abddb1946bc3f9f1cd1766d723","primitives":[{"attributes":{"POSITION":42,"NORMAL":43,"TEXCOORD_0":44,"COLOR_0":45,"_VELDREN_NORMAL":46,"_VELDREN_COLOR":47,"_VELDREN_FALLBACK":48,"_VELDREN_MATERIAL":49},"indices":50,"material":10,"extras":{"mixedAtlasFallback":false}}]},{"name":"2bed24ed427da899c64f0c99a7488970d5ac0a3dd007e3dcf039fbfe4113db36","primitives":[{"attributes":{"POSITION":51,"NORMAL":52,"TEXCOORD_0":53,"COLOR_0":54,"_VELDREN_NORMAL":55,"_VELDREN_COLOR":56,"_VELDREN_FALLBACK":57,"_VELDREN_MATERIAL":58},"indices":59,"material":11,"extras":{"mixedAtlasFallback":false}},{"attributes":{"POSITION":51,"NORMAL":52,"TEXCOORD_0":53,"COLOR_0":54,"_VELDREN_NORMAL":55,"_VELDREN_COLOR":56,"_VELDREN_FALLBACK":57,"_VELDREN_MATERIAL":58},"indices":60,"material":12,"extras":{"mixedAtlasFallback":false}}]},{"name":"42a4131a7f9fe484a70590f8dd3499998303718cfb71bec957ec5894fb0867bf","primitives":[{"attributes":{"POSITION":61,"NORMAL":62,"TEXCOORD_0":63,"COLOR_0":64,"_VELDREN_NORMAL":65,"_VELDREN_COLOR":66,"_VELDREN_FALLBACK":67,"_VELDREN_MATERIAL":68},"indices":69,"material":13,"extras":{"mixedAtlasFallback":false}}]},{"name":"ddcc3d6e1ffba2575a9ad5c6e02f5f299d918638f3e83151b75ace5729ff5966","primitives":[{"attributes":{"POSITION":70,"NORMAL":71,"TEXCOORD_0":72,"COLOR_0":73,"_VELDREN_NORMAL":74,"_VELDREN_COLOR":75,"_VELDREN_FALLBACK":76,"_VELDREN_MATERIAL":77},"indices":78,"material":14,"extras":{"mixedAtlasFallback":false}},{"attributes":{"POSITION":70,"NORMAL":71,"TEXCOORD_0":72,"COLOR_0":73,"_VELDREN_NORMAL":74,"_VELDREN_COLOR":75,"_VELDREN_FALLBACK":76,"_VELDREN_MATERIAL":77},"indices":79,"material":15,"extras":{"mixedAtlasFallback":false}}]},{"name":"cb9df46869a74c2b21acdc562e58e1fd0bcaa177f7275e87e50e477c73f4776f","primitives":[{"attributes":{"POSITION":80,"NORMAL":81,"TEXCOORD_0":82,"COLOR_0":83,"_VELDREN_NORMAL":84,"_VELDREN_COLOR":85,"_VELDREN_FALLBACK":86,"_VELDREN_MATERIAL":87},"indices":88,"material":16,"extras":{"mixedAtlasFallback":false}},{"attributes":{"POSITION":80,"NORMAL":81,"TEXCOORD_0":82,"COLOR_0":83,"_VELDREN_NORMAL":84,"_VELDREN_COLOR":85,"_VELDREN_FALLBACK":86,"_VELDREN_MATERIAL":87},"indices":89,"material":17,"extras":{"mixedAtlasFallback":false}}]},{"name":"f52aa0036ce251ef1eb08d3699186b9705c3883af59782ac743cf0836182a57c","primitives":[{"attributes":{"POSITION":90,"NORMAL":91,"TEXCOORD_0":92,"COLOR_0":93,"_VELDREN_NORMAL":94,"_VELDREN_COLOR":95,"_VELDREN_FALLBACK":96,"_VELDREN_MATERIAL":97},"indices":98,"material":18,"extras":{"mixedAtlasFallback":false}}]},{"name":"8c606c767d7974315c7bb6356ec371eba10870d54f739fa0df01dc9a7e966490","primitives":[{"attributes":{"POSITION":99,"NORMAL":100,"TEXCOORD_0":101,"COLOR_0":102,"_VELDREN_NORMAL":103,"_VELDREN_COLOR":104,"_VELDREN_FALLBACK":105,"_VELDREN_MATERIAL":106},"indices":107,"material":19,"extras":{"mixedAtlasFallback":false}}]},{"name":"6a3924d97e4c1a9c89e29118967d89c158e52052d1b46cdb3ca7423f560edddb","primitives":[{"attributes":{"POSITION":108,"NORMAL":109,"TEXCOORD_0":110,"COLOR_0":111,"_VELDREN_NORMAL":112,"_VELDREN_COLOR":113,"_VELDREN_FALLBACK":114,"_VELDREN_MATERIAL":115},"indices":116,"material":20,"extras":{"mixedAtlasFallback":false}}]},{"name":"808fd5c41983b9f83a909094468f5d007a25e97b9a570c95194c20f799468121","primitives":[{"attributes":{"POSITION":117,"NORMAL":118,"TEXCOORD_0":119,"COLOR_0":120,"_VELDREN_NORMAL":121,"_VELDREN_COLOR":122,"_VELDREN_FALLBACK":123,"_VELDREN_MATERIAL":124},"indices":125,"material":21,"extras":{"mixedAtlasFallback":false}},{"attributes":{"POSITION":117,"NORMAL":118,"TEXCOORD_0":119,"COLOR_0":120,"_VELDREN_NORMAL":121,"_VELDREN_COLOR":122,"_VELDREN_FALLBACK":123,"_VELDREN_MATERIAL":124},"indices":126,"material":22,"extras":{"mixedAtlasFallback":false}}]},{"name":"5f574c5417d5684fbdbf260cc649d06a16f8d4be18c41171c78d8ea63ed324a1","primitives":[{"attributes":{"POSITION":127,"NORMAL":128,"TEXCOORD_0":129,"COLOR_0":130,"_VELDREN_NORMAL":131,"_VELDREN_COLOR":132,"_VELDREN_FALLBACK":133,"_VELDREN_MATERIAL":134},"indices":135,"material":23,"extras":{"mixedAtlasFallback":false}}]},{"name":"d14f6404aaf17b450c27abef9ed13839bb05b87f291cf3bdc659907d2f79c6e2","primitives":[{"attributes":{"POSITION":136,"NORMAL":137,"TEXCOORD_0":138,"COLOR_0":139,"_VELDREN_NORMAL":140,"_VELDREN_COLOR":141,"_VELDREN_FALLBACK":142,"_VELDREN_MATERIAL":143},"indices":144,"material":24,"extras":{"mixedAtlasFallback":false}}]}],"materials":[{"name":"legacy-material-43","pbrMetallicRoughness":{"baseColorFactor":[1,1,1,1],"metallicFactor":0,"roughnessFactor":1,"baseColorTexture":{"index":0}},"doubleSided":true,"extras":{"legacyMaterial":43,"legacyShader":"dist/renderer-gl.js"}},{"name":"legacy-material-42","pbrMetallicRoughness":{"baseColorFactor":[1,1,1,1],"metallicFactor":0,"roughnessFactor":1,"baseColorTexture":{"index":1}},"doubleSided":true,"extras":{"legacyMaterial":42,"legacyShader":"dist/renderer-gl.js"}},{"name":"legacy-material-45","pbrMetallicRoughness":{"baseColorFactor":[1,1,1,1],"metallicFactor":0,"roughnessFactor":1,"baseColorTexture":{"index":2}},"doubleSided":true,"extras":{"legacyMaterial":45,"legacyShader":"dist/renderer-gl.js"}},{"name":"legacy-material-43","pbrMetallicRoughness":{"baseColorFactor":[1,1,1,1],"metallicFactor":0,"roughnessFactor":1,"baseColorTexture":{"index":3}},"doubleSided":true,"extras":{"legacyMaterial":43,"legacyShader":"dist/renderer-gl.js"}},{"name":"legacy-material-42","pbrMetallicRoughness":{"baseColorFactor":[1,1,1,1],"metallicFactor":0,"roughnessFactor":1,"baseColorTexture":{"index":4}},"doubleSided":true,"extras":{"legacyMaterial":42,"legacyShader":"dist/renderer-gl.js"}},{"name":"legacy-material-45","pbrMetallicRoughness":{"baseColorFactor":[1,1,1,1],"metallicFactor":0,"roughnessFactor":1,"baseColorTexture":{"index":5}},"doubleSided":true,"extras":{"legacyMaterial":45,"legacyShader":"dist/renderer-gl.js"}},{"name":"legacy-material-43","pbrMetallicRoughness":{"baseColorFactor":[1,1,1,1],"metallicFactor":0,"roughnessFactor":1,"baseColorTexture":{"index":6}},"doubleSided":true,"extras":{"legacyMaterial":43,"legacyShader":"dist/renderer-gl.js"}},{"name":"legacy-material-42","pbrMetallicRoughness":{"baseColorFactor":[1,1,1,1],"metallicFactor":0,"roughnessFactor":1,"baseColorTexture":{"index":7}},"doubleSided":true,"extras":{"legacyMaterial":42,"legacyShader":"dist/renderer-gl.js"}},{"name":"legacy-material-43","pbrMetallicRoughness":{"baseColorFactor":[1,1,1,1],"metallicFactor":0,"roughnessFactor":1,"baseColorTexture":{"index":8}},"doubleSided":true,"extras":{"legacyMaterial":43,"legacyShader":"dist/renderer-gl.js"}},{"name":"legacy-material-42","pbrMetallicRoughness":{"baseColorFactor":[1,1,1,1],"metallicFactor":0,"roughnessFactor":1,"baseColorTexture":{"index":9}},"doubleSided":true,"extras":{"legacyMaterial":42,"legacyShader":"dist/renderer-gl.js"}},{"name":"legacy-material-42","pbrMetallicRoughness":{"baseColorFactor":[1,1,1,1],"metallicFactor":0,"roughnessFactor":1,"baseColorTexture":{"index":10}},"doubleSided":true,"extras":{"legacyMaterial":42,"legacyShader":"dist/renderer-gl.js"}},{"name":"legacy-material-42","pbrMetallicRoughness":{"baseColorFactor":[1,1,1,1],"metallicFactor":0,"roughnessFactor":1,"baseColorTexture":{"index":11}},"doubleSided":true,"extras":{"legacyMaterial":42,"legacyShader":"dist/renderer-gl.js"}},{"name":"legacy-material-43","pbrMetallicRoughness":{"baseColorFactor":[1,1,1,1],"metallicFactor":0,"roughnessFactor":1,"baseColorTexture":{"index":12}},"doubleSided":true,"extras":{"legacyMaterial":43,"legacyShader":"dist/renderer-gl.js"}},{"name":"legacy-material-42","pbrMetallicRoughness":{"baseColorFactor":[1,1,1,1],"metallicFactor":0,"roughnessFactor":1,"baseColorTexture":{"index":13}},"doubleSided":true,"extras":{"legacyMaterial":42,"legacyShader":"dist/renderer-gl.js"}},{"name":"legacy-material-43","pbrMetallicRoughness":{"baseColorFactor":[1,1,1,1],"metallicFactor":0,"roughnessFactor":1,"baseColorTexture":{"index":14}},"doubleSided":true,"extras":{"legacyMaterial":43,"legacyShader":"dist/renderer-gl.js"}},{"name":"legacy-material-42","pbrMetallicRoughness":{"baseColorFactor":[1,1,1,1],"metallicFactor":0,"roughnessFactor":1,"baseColorTexture":{"index":15}},"doubleSided":true,"extras":{"legacyMaterial":42,"legacyShader":"dist/renderer-gl.js"}},{"name":"legacy-material-43","pbrMetallicRoughness":{"baseColorFactor":[1,1,1,1],"metallicFactor":0,"roughnessFactor":1,"baseColorTexture":{"index":16}},"doubleSided":true,"extras":{"legacyMaterial":43,"legacyShader":"dist/renderer-gl.js"}},{"name":"legacy-material-42","pbrMetallicRoughness":{"baseColorFactor":[1,1,1,1],"metallicFactor":0,"roughnessFactor":1,"baseColorTexture":{"index":17}},"doubleSided":true,"extras":{"legacyMaterial":42,"legacyShader":"dist/renderer-gl.js"}},{"name":"legacy-material-44","pbrMetallicRoughness":{"baseColorFactor":[1,1,1,1],"metallicFactor":0,"roughnessFactor":1,"baseColorTexture":{"index":18}},"doubleSided":true,"extras":{"legacyMaterial":44,"legacyShader":"dist/renderer-gl.js"}},{"name":"legacy-material-43","pbrMetallicRoughness":{"baseColorFactor":[1,1,1,1],"metallicFactor":0,"roughnessFactor":1,"baseColorTexture":{"index":19}},"doubleSided":true,"extras":{"legacyMaterial":43,"legacyShader":"dist/renderer-gl.js"}},{"name":"legacy-material-18","pbrMetallicRoughness":{"baseColorFactor":[1,1,1,1],"metallicFactor":0,"roughnessFactor":1},"doubleSided":true,"extras":{"legacyMaterial":18,"legacyShader":"dist/renderer-gl.js","limitation":"Browser procedural material not implemented by this glTF export; source/base attributes retained."}},{"name":"legacy-material-43","pbrMetallicRoughness":{"baseColorFactor":[1,1,1,1],"metallicFactor":0,"roughnessFactor":1,"baseColorTexture":{"index":20}},"doubleSided":true,"extras":{"legacyMaterial":43,"legacyShader":"dist/renderer-gl.js"}},{"name":"legacy-material-42","pbrMetallicRoughness":{"baseColorFactor":[1,1,1,1],"metallicFactor":0,"roughnessFactor":1,"baseColorTexture":{"index":21}},"doubleSided":true,"extras":{"legacyMaterial":42,"legacyShader":"dist/renderer-gl.js"}},{"name":"legacy-material-18","pbrMetallicRoughness":{"baseColorFactor":[1,1,1,1],"metallicFactor":0,"roughnessFactor":1},"doubleSided":true,"extras":{"legacyMaterial":18,"legacyShader":"dist/renderer-gl.js","limitation":"Browser procedural material not implemented by this glTF export; source/base attributes retained."}},{"name":"legacy-material-18","pbrMetallicRoughness":{"baseColorFactor":[1,1,1,1],"metallicFactor":0,"roughnessFactor":1},"doubleSided":true,"extras":{"legacyMaterial":18,"legacyShader":"dist/renderer-gl.js","limitation":"Browser procedural material not implemented by this glTF export; source/base attributes retained."}}],"images":[{"name":"atlas-23","uri":"../../textures/atlas/tile-23.png"},{"name":"atlas-22","uri":"../../textures/atlas/tile-22.png"},{"name":"atlas-25","uri":"../../textures/atlas/tile-25.png"},{"name":"atlas-23","uri":"../../textures/atlas/tile-23.png"},{"name":"atlas-22","uri":"../../textures/atlas/tile-22.png"},{"name":"atlas-25","uri":"../../textures/atlas/tile-25.png"},{"name":"atlas-23","uri":"../../textures/atlas/tile-23.png"},{"name":"atlas-22","uri":"../../textures/atlas/tile-22.png"},{"name":"atlas-23","uri":"../../textures/atlas/tile-23.png"},{"name":"atlas-22","uri":"../../textures/atlas/tile-22.png"},{"name":"atlas-22","uri":"../../textures/atlas/tile-22.png"},{"name":"atlas-22","uri":"../../textures/atlas/tile-22.png"},{"name":"atlas-23","uri":"../../textures/atlas/tile-23.png"},{"name":"atlas-22","uri":"../../textures/atlas/tile-22.png"},{"name":"atlas-23","uri":"../../textures/atlas/tile-23.png"},{"name":"atlas-22","uri":"../../textures/atlas/tile-22.png"},{"name":"atlas-23","uri":"../../textures/atlas/tile-23.png"},{"name":"atlas-22","uri":"../../textures/atlas/tile-22.png"},{"name":"atlas-24","uri":"../../textures/atlas/tile-24.png"},{"name":"atlas-23","uri":"../../textures/atlas/tile-23.png"},{"name":"atlas-23","uri":"../../textures/atlas/tile-23.png"},{"name":"atlas-22","uri":"../../textures/atlas/tile-22.png"}],"textures":[{"source":0,"sampler":0},{"source":1,"sampler":0},{"source":2,"sampler":0},{"source":3,"sampler":1},{"source":4,"sampler":1},{"source":5,"sampler":1},{"source":6,"sampler":2},{"source":7,"sampler":2},{"source":8,"sampler":3},{"source":9,"sampler":3},{"source":10,"sampler":4},{"source":11,"sampler":5},{"source":12,"sampler":5},{"source":13,"sampler":6},{"source":14,"sampler":7},{"source":15,"sampler":7},{"source":16,"sampler":8},{"source":17,"sampler":8},{"source":18,"sampler":9},{"source":19,"sampler":10},{"source":20,"sampler":11},{"source":21,"sampler":11}],"samplers":[{"magFilter":9729,"minFilter":9729,"wrapS":10497,"wrapT":10497},{"magFilter":9729,"minFilter":9729,"wrapS":10497,"wrapT":10497},{"magFilter":9729,"minFilter":9729,"wrapS":10497,"wrapT":10497},{"magFilter":9729,"minFilter":9729,"wrapS":10497,"wrapT":10497},{"magFilter":9729,"minFilter":9729,"wrapS":10497,"wrapT":10497},{"magFilter":9729,"minFilter":9729,"wrapS":10497,"wrapT":10497},{"magFilter":9729,"minFilter":9729,"wrapS":10497,"wrapT":10497},{"magFilter":9729,"minFilter":9729,"wrapS":10497,"wrapT":10497},{"magFilter":9729,"minFilter":9729,"wrapS":10497,"wrapT":10497},{"magFilter":9729,"minFilter":9729,"wrapS":10497,"wrapT":10497},{"magFilter":9729,"minFilter":9729,"wrapS":10497,"wrapT":10497},{"magFilter":9729,"minFilter":9729,"wrapS":10497,"wrapT":10497}]}
