{"asset":{"version":"2.0","generator":"Veldren static world recovery"},"scene":0,"scenes":[{"nodes":[0,2,5,10,15,17,19,21,23,25]}],"extras":{"sourceScene":"realm_ironhollow_25","notVervesisScene":true,"gameplayIdentityExternal":true,"limitations":["Terrain stored separately.","Dynamic actors, fires, gates, crops, fish, effects and ground cover are not baked.","Roofs are closed; browser procedural materials require native support."]},"nodes":[{"name":"Exit to the road","children":[1],"extras":{"veldrenEntityKey":"realm_ironhollow_25:object:1717"}},{"mesh":0,"matrix":[1.0,0.0,0.0,0.0,0.0,1.0,0.0,0.0,0.0,0.0,1.0,0.0,0.0,0.0,0.0,1.0]},{"name":"Royal throne","children":[3,4],"extras":{"veldrenEntityKey":"realm_ironhollow_25:object:1719"}},{"mesh":1,"matrix":[1.1573205054298132,0.0,0.0,0.0,0.0,1.1573205054298132,0.0,0.0,0.0,0.0,1.1573205054298132,0.0,12.5,0.003131768163830848,2.5197645267984266,1.0]},{"mesh":2,"matrix":[1.0,0.0,0.0,0.0,0.0,1.0,0.0,0.0,0.0,0.0,1.0,0.0,0.0,0.0,0.0,1.0]},{"name":"Banquet table","children":[6,7,8,9],"extras":{"veldrenEntityKey":"realm_ironhollow_25:object:1721"}},{"mesh":3,"matrix":[5.871464969010829e-17,0.0,-0.9588829278945923,0.0,0.0,0.9588829278945923,0.0,0.0,0.9588829278945923,0.0,5.871464969010829e-17,0.0,9.493915557861328,-0.0012109405361115932,11.5,1.0]},{"mesh":4,"matrix":[5.452048333371737e-17,0.0,-0.8903869986534119,0.0,0.0,0.8903869986534119,0.0,0.0,0.8903869986534119,0.0,5.452048333371737e-17,0.0,9.5,0.7806726098060608,11.840099334716797,1.0]},{"mesh":5,"matrix":[5.660937576948733e-17,0.0,-0.9245011806488037,0.0,0.0,0.9245011806488037,0.0,0.0,0.9245011806488037,0.0,5.660937576948733e-17,0.0,9.38123893737793,0.7842922806739807,11.223731994628906,1.0]},{"mesh":6,"matrix":[1.1440236096875434e-16,0.0,-1.8683322668075562,0.0,0.0,1.8683322668075562,0.0,0.0,1.8683322668075562,0.0,1.1440236096875434e-16,0.0,9.5,0.7772700786590576,11.41437816619873,1.0]},{"name":"Banquet table","children":[11,12,13,14],"extras":{"veldrenEntityKey":"realm_ironhollow_25:object:1724"}},{"mesh":3,"matrix":[5.871464969010829e-17,0.0,-0.9588829278945923,0.0,0.0,0.9588829278945923,0.0,0.0,0.9588829278945923,0.0,5.871464969010829e-17,0.0,15.493915557861328,-0.0012109405361115932,11.5,1.0]},{"mesh":4,"matrix":[5.452048333371737e-17,0.0,-0.8903869986534119,0.0,0.0,0.8903869986534119,0.0,0.0,0.8903869986534119,0.0,5.452048333371737e-17,0.0,15.5,0.7806726098060608,11.840099334716797,1.0]},{"mesh":5,"matrix":[5.660937576948733e-17,0.0,-0.9245011806488037,0.0,0.0,0.9245011806488037,0.0,0.0,0.9245011806488037,0.0,5.660937576948733e-17,0.0,15.38123893737793,0.7842922806739807,11.223731994628906,1.0]},{"mesh":6,"matrix":[1.1440236096875434e-16,0.0,-1.8683322668075562,0.0,0.0,1.8683322668075562,0.0,0.0,1.8683322668075562,0.0,1.1440236096875434e-16,0.0,15.5,0.7772700786590576,11.41437816619873,1.0]},{"name":"Stone pillar","children":[16],"extras":{"veldrenEntityKey":"realm_ironhollow_25:object:1726"}},{"mesh":7,"matrix":[1.0,0.0,0.0,0.0,0.0,1.0,0.0,0.0,0.0,0.0,1.0,0.0,0.0,0.0,0.0,1.0]},{"name":"Stone pillar","children":[18],"extras":{"veldrenEntityKey":"realm_ironhollow_25:object:1727"}},{"mesh":8,"matrix":[1.0,0.0,0.0,0.0,0.0,1.0,0.0,0.0,0.0,0.0,1.0,0.0,0.0,0.0,0.0,1.0]},{"name":"Stone pillar","children":[20],"extras":{"veldrenEntityKey":"realm_ironhollow_25:object:1728"}},{"mesh":9,"matrix":[1.0,0.0,0.0,0.0,0.0,1.0,0.0,0.0,0.0,0.0,1.0,0.0,0.0,0.0,0.0,1.0]},{"name":"Stone pillar","children":[22],"extras":{"veldrenEntityKey":"realm_ironhollow_25:object:1729"}},{"mesh":10,"matrix":[1.0,0.0,0.0,0.0,0.0,1.0,0.0,0.0,0.0,0.0,1.0,0.0,0.0,0.0,0.0,1.0]},{"name":"Stone pillar","children":[24],"extras":{"veldrenEntityKey":"realm_ironhollow_25:object:1730"}},{"mesh":11,"matrix":[1.0,0.0,0.0,0.0,0.0,1.0,0.0,0.0,0.0,0.0,1.0,0.0,0.0,0.0,0.0,1.0]},{"name":"Stone pillar","children":[26],"extras":{"veldrenEntityKey":"realm_ironhollow_25:object:1731"}},{"mesh":12,"matrix":[1.0,0.0,0.0,0.0,0.0,1.0,0.0,0.0,0.0,0.0,1.0,0.0,0.0,0.0,0.0,1.0]}],"buffers":[{"uri":"../world-parts/2356a6a7db6876ce43a0b7217dd27af7d9b5e16b8810bbb14ebe2ef92881f537.bin","byteLength":3168},{"uri":"../world-parts/ddcc3d6e1ffba2575a9ad5c6e02f5f299d918638f3e83151b75ace5729ff5966.bin","byteLength":58704},{"uri":"../world-parts/859ab934b6d6ed159eb8cce04a7012f0eda16e9f5f9cb3173c3d33dd6ced0a69.bin","byteLength":10296},{"uri":"../world-parts/f4b04e3619cf212187b96076e7e940da50275113f8897ecbcd59f59213422623.bin","byteLength":117840},{"uri":"../world-parts/1f7416da9fb55b4744e69d48ce26911a903332abddb1946bc3f9f1cd1766d723.bin","byteLength":17184},{"uri":"../world-parts/2bed24ed427da899c64f0c99a7488970d5ac0a3dd007e3dcf039fbfe4113db36.bin","byteLength":31776},{"uri":"../world-parts/42a4131a7f9fe484a70590f8dd3499998303718cfb71bec957ec5894fb0867bf.bin","byteLength":53532},{"uri":"../world-parts/f55cbd8f29472d8615efadf3aa2067f62617267dd54fb82dea97a95c22e70549.bin","byteLength":36960},{"uri":"../world-parts/4db007c200a4f5a572637b1e116c0c572c10bdf9fc0fa7cb56bf4042a585d0af.bin","byteLength":36960},{"uri":"../world-parts/d07d540f7f6728e2b5a4a5b0b979a3e92c148d81289b977da528b1bfa188e24a.bin","byteLength":36960},{"uri":"../world-parts/d668517afebe5ab17348212c084e2fe5e3c491f7ee12447456a9b785d8c52ec7.bin","byteLength":36960},{"uri":"../world-parts/219d69e559b16a6dd1674d66741d37afdc902183bfb3e53af14e3e2edb357142.bin","byteLength":36960},{"uri":"../world-parts/89bd533611a85e3f1b98fc9d3f2c3375add5ce8ef3922707a5682893ef0ed6cb.bin","byteLength":36960}],"bufferViews":[{"buffer":0,"byteOffset":0,"byteLength":432,"target":34962},{"buffer":0,"byteOffset":432,"byteLength":432,"target":34962},{"buffer":0,"byteOffset":864,"byteLength":288,"target":34962},{"buffer":0,"byteOffset":1152,"byteLength":432,"target":34962},{"buffer":0,"byteOffset":1584,"byteLength":432,"target":34962},{"buffer":0,"byteOffset":2016,"byteLength":432,"target":34962},{"buffer":0,"byteOffset":2448,"byteLength":432,"target":34962},{"buffer":0,"byteOffset":2880,"byteLength":144,"target":34962},{"buffer":0,"byteOffset":3024,"byteLength":144,"target":34963},{"buffer":1,"byteOffset":0,"byteLength":7536,"target":34962},{"buffer":1,"byteOffset":7536,"byteLength":7536,"target":34962},{"buffer":1,"byteOffset":15072,"byteLength":5024,"target":34962},{"buffer":1,"byteOffset":20096,"byteLength":7536,"target":34962},{"buffer":1,"byteOffset":27632,"byteLength":7536,"target":34962},{"buffer":1,"byteOffset":35168,"byteLength":7536,"target":34962},{"buffer":1,"byteOffset":42704,"byteLength":7536,"target":34962},{"buffer":1,"byteOffset":50240,"byteLength":2512,"target":34962},{"buffer":1,"byteOffset":52752,"byteLength":4368,"target":34963},{"buffer":1,"byteOffset":57120,"byteLength":1584,"target":34963},{"buffer":2,"byteOffset":0,"byteLength":1404,"target":34962},{"buffer":2,"byteOffset":1404,"byteLength":1404,"target":34962},{"buffer":2,"byteOffset":2808,"byteLength":936,"target":34962},{"buffer":2,"byteOffset":3744,"byteLength":1404,"target":34962},{"buffer":2,"byteOffset":5148,"byteLength":1404,"target":34962},{"buffer":2,"byteOffset":6552,"byteLength":1404,"target":34962},{"buffer":2,"byteOffset":7956,"byteLength":1404,"target":34962},{"buffer":2,"byteOffset":9360,"byteLength":468,"target":34962},{"buffer":2,"byteOffset":9828,"byteLength":144,"target":34963},{"buffer":2,"byteOffset":9972,"byteLength":36,"target":34963},{"buffer":2,"byteOffset":10008,"byteLength":288,"target":34963},{"buffer":3,"byteOffset":0,"byteLength":15144,"target":34962},{"buffer":3,"byteOffset":15144,"byteLength":15144,"target":34962},{"buffer":3,"byteOffset":30288,"byteLength":10096,"target":34962},{"buffer":3,"byteOffset":40384,"byteLength":15144,"target":34962},{"buffer":3,"byteOffset":55528,"byteLength":15144,"target":34962},{"buffer":3,"byteOffset":70672,"byteLength":15144,"target":34962},{"buffer":3,"byteOffset":85816,"byteLength":15144,"target":34962},{"buffer":3,"byteOffset":100960,"byteLength":5048,"target":34962},{"buffer":3,"byteOffset":106008,"byteLength":11352,"target":34963},{"buffer":3,"byteOffset":117360,"byteLength":480,"target":34963},{"buffer":4,"byteOffset":0,"byteLength":2160,"target":34962},{"buffer":4,"byteOffset":2160,"byteLength":2160,"target":34962},{"buffer":4,"byteOffset":4320,"byteLength":1440,"target":34962},{"buffer":4,"byteOffset":5760,"byteLength":2160,"target":34962},{"buffer":4,"byteOffset":7920,"byteLength":2160,"target":34962},{"buffer":4,"byteOffset":10080,"byteLength":2160,"target":34962},{"buffer":4,"byteOffset":12240,"byteLength":2160,"target":34962},{"buffer":4,"byteOffset":14400,"byteLength":720,"target":34962},{"buffer":4,"byteOffset":15120,"byteLength":2064,"target":34963},{"buffer":5,"byteOffset":0,"byteLength":4080,"target":34962},{"buffer":5,"byteOffset":4080,"byteLength":4080,"target":34962},{"buffer":5,"byteOffset":8160,"byteLength":2720,"target":34962},{"buffer":5,"byteOffset":10880,"byteLength":4080,"target":34962},{"buffer":5,"byteOffset":14960,"byteLength":4080,"target":34962},{"buffer":5,"byteOffset":19040,"byteLength":4080,"target":34962},{"buffer":5,"byteOffset":23120,"byteLength":4080,"target":34962},{"buffer":5,"byteOffset":27200,"byteLength":1360,"target":34962},{"buffer":5,"byteOffset":28560,"byteLength":1464,"target":34963},{"buffer":5,"byteOffset":30024,"byteLength":1752,"target":34963},{"buffer":6,"byteOffset":0,"byteLength":6396,"target":34962},{"buffer":6,"byteOffset":6396,"byteLength":6396,"target":34962},{"buffer":6,"byteOffset":12792,"byteLength":4264,"target":34962},{"buffer":6,"byteOffset":17056,"byteLength":6396,"target":34962},{"buffer":6,"byteOffset":23452,"byteLength":6396,"target":34962},{"buffer":6,"byteOffset":29848,"byteLength":6396,"target":34962},{"buffer":6,"byteOffset":36244,"byteLength":6396,"target":34962},{"buffer":6,"byteOffset":42640,"byteLength":2132,"target":34962},{"buffer":6,"byteOffset":44772,"byteLength":8760,"target":34963},{"buffer":7,"byteOffset":0,"byteLength":5040,"target":34962},{"buffer":7,"byteOffset":5040,"byteLength":5040,"target":34962},{"buffer":7,"byteOffset":10080,"byteLength":3360,"target":34962},{"buffer":7,"byteOffset":13440,"byteLength":5040,"target":34962},{"buffer":7,"byteOffset":18480,"byteLength":5040,"target":34962},{"buffer":7,"byteOffset":23520,"byteLength":5040,"target":34962},{"buffer":7,"byteOffset":28560,"byteLength":5040,"target":34962},{"buffer":7,"byteOffset":33600,"byteLength":1680,"target":34962},{"buffer":7,"byteOffset":35280,"byteLength":1680,"target":34963},{"buffer":8,"byteOffset":0,"byteLength":5040,"target":34962},{"buffer":8,"byteOffset":5040,"byteLength":5040,"target":34962},{"buffer":8,"byteOffset":10080,"byteLength":3360,"target":34962},{"buffer":8,"byteOffset":13440,"byteLength":5040,"target":34962},{"buffer":8,"byteOffset":18480,"byteLength":5040,"target":34962},{"buffer":8,"byteOffset":23520,"byteLength":5040,"target":34962},{"buffer":8,"byteOffset":28560,"byteLength":5040,"target":34962},{"buffer":8,"byteOffset":33600,"byteLength":1680,"target":34962},{"buffer":8,"byteOffset":35280,"byteLength":1680,"target":34963},{"buffer":9,"byteOffset":0,"byteLength":5040,"target":34962},{"buffer":9,"byteOffset":5040,"byteLength":5040,"target":34962},{"buffer":9,"byteOffset":10080,"byteLength":3360,"target":34962},{"buffer":9,"byteOffset":13440,"byteLength":5040,"target":34962},{"buffer":9,"byteOffset":18480,"byteLength":5040,"target":34962},{"buffer":9,"byteOffset":23520,"byteLength":5040,"target":34962},{"buffer":9,"byteOffset":28560,"byteLength":5040,"target":34962},{"buffer":9,"byteOffset":33600,"byteLength":1680,"target":34962},{"buffer":9,"byteOffset":35280,"byteLength":1680,"target":34963},{"buffer":10,"byteOffset":0,"byteLength":5040,"target":34962},{"buffer":10,"byteOffset":5040,"byteLength":5040,"target":34962},{"buffer":10,"byteOffset":10080,"byteLength":3360,"target":34962},{"buffer":10,"byteOffset":13440,"byteLength":5040,"target":34962},{"buffer":10,"byteOffset":18480,"byteLength":5040,"target":34962},{"buffer":10,"byteOffset":23520,"byteLength":5040,"target":34962},{"buffer":10,"byteOffset":28560,"byteLength":5040,"target":34962},{"buffer":10,"byteOffset":33600,"byteLength":1680,"target":34962},{"buffer":10,"byteOffset":35280,"byteLength":1680,"target":34963},{"buffer":11,"byteOffset":0,"byteLength":5040,"target":34962},{"buffer":11,"byteOffset":5040,"byteLength":5040,"target":34962},{"buffer":11,"byteOffset":10080,"byteLength":3360,"target":34962},{"buffer":11,"byteOffset":13440,"byteLength":5040,"target":34962},{"buffer":11,"byteOffset":18480,"byteLength":5040,"target":34962},{"buffer":11,"byteOffset":23520,"byteLength":5040,"target":34962},{"buffer":11,"byteOffset":28560,"byteLength":5040,"target":34962},{"buffer":11,"byteOffset":33600,"byteLength":1680,"target":34962},{"buffer":11,"byteOffset":35280,"byteLength":1680,"target":34963},{"buffer":12,"byteOffset":0,"byteLength":5040,"target":34962},{"buffer":12,"byteOffset":5040,"byteLength":5040,"target":34962},{"buffer":12,"byteOffset":10080,"byteLength":3360,"target":34962},{"buffer":12,"byteOffset":13440,"byteLength":5040,"target":34962},{"buffer":12,"byteOffset":18480,"byteLength":5040,"target":34962},{"buffer":12,"byteOffset":23520,"byteLength":5040,"target":34962},{"buffer":12,"byteOffset":28560,"byteLength":5040,"target":34962},{"buffer":12,"byteOffset":33600,"byteLength":1680,"target":34962},{"buffer":12,"byteOffset":35280,"byteLength":1680,"target":34963}],"accessors":[{"bufferView":0,"componentType":5126,"count":36,"type":"VEC3","min":[12.100000381469727,0.0,20.225000381469727],"max":[12.899999618530273,0.05000000074505806,20.774999618530273]},{"bufferView":1,"componentType":5126,"count":36,"type":"VEC3"},{"bufferView":2,"componentType":5126,"count":36,"type":"VEC2"},{"bufferView":3,"componentType":5126,"count":36,"type":"VEC3"},{"bufferView":4,"componentType":5126,"count":36,"type":"VEC3"},{"bufferView":5,"componentType":5126,"count":36,"type":"VEC3"},{"bufferView":6,"componentType":5126,"count":36,"type":"VEC3"},{"bufferView":7,"componentType":5126,"count":36,"type":"SCALAR"},{"bufferView":8,"componentType":5125,"count":36,"type":"SCALAR"},{"bufferView":9,"componentType":5126,"count":628,"type":"VEC3","min":[-0.29025912284851074,-0.0027060508728027344,-0.29154688119888306],"max":[0.29025912284851074,1.1205782890319824,0.25739121437072754]},{"bufferView":10,"componentType":5126,"count":628,"type":"VEC3"},{"bufferView":11,"componentType":5126,"count":628,"type":"VEC2"},{"bufferView":12,"componentType":5126,"count":628,"type":"VEC3"},{"bufferView":13,"componentType":5126,"count":628,"type":"VEC3"},{"bufferView":14,"componentType":5126,"count":628,"type":"VEC3"},{"bufferView":15,"componentType":5126,"count":628,"type":"VEC3"},{"bufferView":16,"componentType":5126,"count":628,"type":"SCALAR"},{"bufferView":17,"componentType":5125,"count":1092,"type":"SCALAR"},{"bufferView":18,"componentType":5125,"count":396,"type":"SCALAR"},{"bufferView":19,"componentType":5126,"count":117,"type":"VEC3","min":[12.095000267028809,0.7200000286102295,2.200000047683716],"max":[12.904999732971191,1.9600000381469727,2.3603107929229736]},{"bufferView":20,"componentType":5126,"count":117,"type":"VEC3"},{"bufferView":21,"componentType":5126,"count":117,"type":"VEC2"},{"bufferView":22,"componentType":5126,"count":117,"type":"VEC3"},{"bufferView":23,"componentType":5126,"count":117,"type":"VEC3"},{"bufferView":24,"componentType":5126,"count":117,"type":"VEC3"},{"bufferView":25,"componentType":5126,"count":117,"type":"VEC3"},{"bufferView":26,"componentType":5126,"count":117,"type":"SCALAR"},{"bufferView":27,"componentType":5125,"count":36,"type":"SCALAR"},{"bufferView":28,"componentType":5125,"count":9,"type":"SCALAR"},{"bufferView":29,"componentType":5125,"count":72,"type":"SCALAR"},{"bufferView":30,"componentType":5126,"count":1262,"type":"VEC3","min":[-1.4242464303970337,0.001262865960597992,-0.5419855713844299],"max":[1.4242464303970337,0.8147094249725342,0.5546767711639404]},{"bufferView":31,"componentType":5126,"count":1262,"type":"VEC3"},{"bufferView":32,"componentType":5126,"count":1262,"type":"VEC2"},{"bufferView":33,"componentType":5126,"count":1262,"type":"VEC3"},{"bufferView":34,"componentType":5126,"count":1262,"type":"VEC3"},{"bufferView":35,"componentType":5126,"count":1262,"type":"VEC3"},{"bufferView":36,"componentType":5126,"count":1262,"type":"VEC3"},{"bufferView":37,"componentType":5126,"count":1262,"type":"SCALAR"},{"bufferView":38,"componentType":5125,"count":2838,"type":"SCALAR"},{"bufferView":39,"componentType":5125,"count":120,"type":"SCALAR"},{"bufferView":40,"componentType":5126,"count":180,"type":"VEC3","min":[-0.16652752459049225,-0.0007553889881819487,-0.16846604645252228],"max":[0.16675134003162384,0.01940305158495903,0.16846609115600586]},{"bufferView":41,"componentType":5126,"count":180,"type":"VEC3"},{"bufferView":42,"componentType":5126,"count":180,"type":"VEC2"},{"bufferView":43,"componentType":5126,"count":180,"type":"VEC3"},{"bufferView":44,"componentType":5126,"count":180,"type":"VEC3"},{"bufferView":45,"componentType":5126,"count":180,"type":"VEC3"},{"bufferView":46,"componentType":5126,"count":180,"type":"VEC3"},{"bufferView":47,"componentType":5126,"count":180,"type":"SCALAR"},{"bufferView":48,"componentType":5125,"count":516,"type":"SCALAR"},{"bufferView":49,"componentType":5126,"count":340,"type":"VEC3","min":[-0.07037083804607391,-0.004642794374376535,-0.07473406940698624],"max":[0.12171173840761185,0.1792401522397995,0.0720536932349205]},{"bufferView":50,"componentType":5126,"count":340,"type":"VEC3"},{"bufferView":51,"componentType":5126,"count":340,"type":"VEC2"},{"bufferView":52,"componentType":5126,"count":340,"type":"VEC3"},{"bufferView":53,"componentType":5126,"count":340,"type":"VEC3"},{"bufferView":54,"componentType":5126,"count":340,"type":"VEC3"},{"bufferView":55,"componentType":5126,"count":340,"type":"VEC3"},{"bufferView":56,"componentType":5126,"count":340,"type":"SCALAR"},{"bufferView":57,"componentType":5125,"count":366,"type":"SCALAR"},{"bufferView":58,"componentType":5125,"count":438,"type":"SCALAR"},{"bufferView":59,"componentType":5126,"count":533,"type":"VEC3","min":[-0.1762866973876953,0.0014611477963626385,-0.0896759033203125],"max":[0.08463096618652344,0.15667979419231415,0.0896759033203125]},{"bufferView":60,"componentType":5126,"count":533,"type":"VEC3"},{"bufferView":61,"componentType":5126,"count":533,"type":"VEC2"},{"bufferView":62,"componentType":5126,"count":533,"type":"VEC3"},{"bufferView":63,"componentType":5126,"count":533,"type":"VEC3"},{"bufferView":64,"componentType":5126,"count":533,"type":"VEC3"},{"bufferView":65,"componentType":5126,"count":533,"type":"VEC3"},{"bufferView":66,"componentType":5126,"count":533,"type":"SCALAR"},{"bufferView":67,"componentType":5125,"count":2190,"type":"SCALAR"},{"bufferView":68,"componentType":5126,"count":420,"type":"VEC3","min":[3.043750047683716,0.0,4.043749809265137],"max":[3.956249952316284,3.0,4.956250190734863]},{"bufferView":69,"componentType":5126,"count":420,"type":"VEC3"},{"bufferView":70,"componentType":5126,"count":420,"type":"VEC2"},{"bufferView":71,"componentType":5126,"count":420,"type":"VEC3"},{"bufferView":72,"componentType":5126,"count":420,"type":"VEC3"},{"bufferView":73,"componentType":5126,"count":420,"type":"VEC3"},{"bufferView":74,"componentType":5126,"count":420,"type":"VEC3"},{"bufferView":75,"componentType":5126,"count":420,"type":"SCALAR"},{"bufferView":76,"componentType":5125,"count":420,"type":"SCALAR"},{"bufferView":77,"componentType":5126,"count":420,"type":"VEC3","min":[3.043750047683716,0.0,10.043749809265137],"max":[3.956249952316284,3.0,10.956250190734863]},{"bufferView":78,"componentType":5126,"count":420,"type":"VEC3"},{"bufferView":79,"componentType":5126,"count":420,"type":"VEC2"},{"bufferView":80,"componentType":5126,"count":420,"type":"VEC3"},{"bufferView":81,"componentType":5126,"count":420,"type":"VEC3"},{"bufferView":82,"componentType":5126,"count":420,"type":"VEC3"},{"bufferView":83,"componentType":5126,"count":420,"type":"VEC3"},{"bufferView":84,"componentType":5126,"count":420,"type":"SCALAR"},{"bufferView":85,"componentType":5125,"count":420,"type":"SCALAR"},{"bufferView":86,"componentType":5126,"count":420,"type":"VEC3","min":[3.043750047683716,0.0,16.043750762939453],"max":[3.956249952316284,3.0,16.956249237060547]},{"bufferView":87,"componentType":5126,"count":420,"type":"VEC3"},{"bufferView":88,"componentType":5126,"count":420,"type":"VEC2"},{"bufferView":89,"componentType":5126,"count":420,"type":"VEC3"},{"bufferView":90,"componentType":5126,"count":420,"type":"VEC3"},{"bufferView":91,"componentType":5126,"count":420,"type":"VEC3"},{"bufferView":92,"componentType":5126,"count":420,"type":"VEC3"},{"bufferView":93,"componentType":5126,"count":420,"type":"SCALAR"},{"bufferView":94,"componentType":5125,"count":420,"type":"SCALAR"},{"bufferView":95,"componentType":5126,"count":420,"type":"VEC3","min":[20.043750762939453,0.0,4.043749809265137],"max":[20.956249237060547,3.0,4.956250190734863]},{"bufferView":96,"componentType":5126,"count":420,"type":"VEC3"},{"bufferView":97,"componentType":5126,"count":420,"type":"VEC2"},{"bufferView":98,"componentType":5126,"count":420,"type":"VEC3"},{"bufferView":99,"componentType":5126,"count":420,"type":"VEC3"},{"bufferView":100,"componentType":5126,"count":420,"type":"VEC3"},{"bufferView":101,"componentType":5126,"count":420,"type":"VEC3"},{"bufferView":102,"componentType":5126,"count":420,"type":"SCALAR"},{"bufferView":103,"componentType":5125,"count":420,"type":"SCALAR"},{"bufferView":104,"componentType":5126,"count":420,"type":"VEC3","min":[20.043750762939453,0.0,10.043749809265137],"max":[20.956249237060547,3.0,10.956250190734863]},{"bufferView":105,"componentType":5126,"count":420,"type":"VEC3"},{"bufferView":106,"componentType":5126,"count":420,"type":"VEC2"},{"bufferView":107,"componentType":5126,"count":420,"type":"VEC3"},{"bufferView":108,"componentType":5126,"count":420,"type":"VEC3"},{"bufferView":109,"componentType":5126,"count":420,"type":"VEC3"},{"bufferView":110,"componentType":5126,"count":420,"type":"VEC3"},{"bufferView":111,"componentType":5126,"count":420,"type":"SCALAR"},{"bufferView":112,"componentType":5125,"count":420,"type":"SCALAR"},{"bufferView":113,"componentType":5126,"count":420,"type":"VEC3","min":[20.043750762939453,0.0,16.043750762939453],"max":[20.956249237060547,3.0,16.956249237060547]},{"bufferView":114,"componentType":5126,"count":420,"type":"VEC3"},{"bufferView":115,"componentType":5126,"count":420,"type":"VEC2"},{"bufferView":116,"componentType":5126,"count":420,"type":"VEC3"},{"bufferView":117,"componentType":5126,"count":420,"type":"VEC3"},{"bufferView":118,"componentType":5126,"count":420,"type":"VEC3"},{"bufferView":119,"componentType":5126,"count":420,"type":"VEC3"},{"bufferView":120,"componentType":5126,"count":420,"type":"SCALAR"},{"bufferView":121,"componentType":5125,"count":420,"type":"SCALAR"}],"meshes":[{"name":"2356a6a7db6876ce43a0b7217dd27af7d9b5e16b8810bbb14ebe2ef92881f537","primitives":[{"attributes":{"POSITION":0,"NORMAL":1,"TEXCOORD_0":2,"COLOR_0":3,"_VELDREN_NORMAL":4,"_VELDREN_COLOR":5,"_VELDREN_FALLBACK":6,"_VELDREN_MATERIAL":7},"indices":8,"material":0,"extras":{"mixedAtlasFallback":false}}]},{"name":"ddcc3d6e1ffba2575a9ad5c6e02f5f299d918638f3e83151b75ace5729ff5966","primitives":[{"attributes":{"POSITION":9,"NORMAL":10,"TEXCOORD_0":11,"COLOR_0":12,"_VELDREN_NORMAL":13,"_VELDREN_COLOR":14,"_VELDREN_FALLBACK":15,"_VELDREN_MATERIAL":16},"indices":17,"material":1,"extras":{"mixedAtlasFallback":false}},{"attributes":{"POSITION":9,"NORMAL":10,"TEXCOORD_0":11,"COLOR_0":12,"_VELDREN_NORMAL":13,"_VELDREN_COLOR":14,"_VELDREN_FALLBACK":15,"_VELDREN_MATERIAL":16},"indices":18,"material":2,"extras":{"mixedAtlasFallback":false}}]},{"name":"859ab934b6d6ed159eb8cce04a7012f0eda16e9f5f9cb3173c3d33dd6ced0a69","primitives":[{"attributes":{"POSITION":19,"NORMAL":20,"TEXCOORD_0":21,"COLOR_0":22,"_VELDREN_NORMAL":23,"_VELDREN_COLOR":24,"_VELDREN_FALLBACK":25,"_VELDREN_MATERIAL":26},"indices":27,"material":3,"extras":{"mixedAtlasFallback":false}},{"attributes":{"POSITION":19,"NORMAL":20,"TEXCOORD_0":21,"COLOR_0":22,"_VELDREN_NORMAL":23,"_VELDREN_COLOR":24,"_VELDREN_FALLBACK":25,"_VELDREN_MATERIAL":26},"indices":28,"material":4,"extras":{"mixedAtlasFallback":false}},{"attributes":{"POSITION":19,"NORMAL":20,"TEXCOORD_0":21,"COLOR_0":22,"_VELDREN_NORMAL":23,"_VELDREN_COLOR":24,"_VELDREN_FALLBACK":25,"_VELDREN_MATERIAL":26},"indices":29,"material":5,"extras":{"mixedAtlasFallback":false}}]},{"name":"f4b04e3619cf212187b96076e7e940da50275113f8897ecbcd59f59213422623","primitives":[{"attributes":{"POSITION":30,"NORMAL":31,"TEXCOORD_0":32,"COLOR_0":33,"_VELDREN_NORMAL":34,"_VELDREN_COLOR":35,"_VELDREN_FALLBACK":36,"_VELDREN_MATERIAL":37},"indices":38,"material":6,"extras":{"mixedAtlasFallback":false}},{"attributes":{"POSITION":30,"NORMAL":31,"TEXCOORD_0":32,"COLOR_0":33,"_VELDREN_NORMAL":34,"_VELDREN_COLOR":35,"_VELDREN_FALLBACK":36,"_VELDREN_MATERIAL":37},"indices":39,"material":7,"extras":{"mixedAtlasFallback":false}}]},{"name":"1f7416da9fb55b4744e69d48ce26911a903332abddb1946bc3f9f1cd1766d723","primitives":[{"attributes":{"POSITION":40,"NORMAL":41,"TEXCOORD_0":42,"COLOR_0":43,"_VELDREN_NORMAL":44,"_VELDREN_COLOR":45,"_VELDREN_FALLBACK":46,"_VELDREN_MATERIAL":47},"indices":48,"material":8,"extras":{"mixedAtlasFallback":false}}]},{"name":"2bed24ed427da899c64f0c99a7488970d5ac0a3dd007e3dcf039fbfe4113db36","primitives":[{"attributes":{"POSITION":49,"NORMAL":50,"TEXCOORD_0":51,"COLOR_0":52,"_VELDREN_NORMAL":53,"_VELDREN_COLOR":54,"_VELDREN_FALLBACK":55,"_VELDREN_MATERIAL":56},"indices":57,"material":9,"extras":{"mixedAtlasFallback":false}},{"attributes":{"POSITION":49,"NORMAL":50,"TEXCOORD_0":51,"COLOR_0":52,"_VELDREN_NORMAL":53,"_VELDREN_COLOR":54,"_VELDREN_FALLBACK":55,"_VELDREN_MATERIAL":56},"indices":58,"material":10,"extras":{"mixedAtlasFallback":false}}]},{"name":"42a4131a7f9fe484a70590f8dd3499998303718cfb71bec957ec5894fb0867bf","primitives":[{"attributes":{"POSITION":59,"NORMAL":60,"TEXCOORD_0":61,"COLOR_0":62,"_VELDREN_NORMAL":63,"_VELDREN_COLOR":64,"_VELDREN_FALLBACK":65,"_VELDREN_MATERIAL":66},"indices":67,"material":11,"extras":{"mixedAtlasFallback":false}}]},{"name":"f55cbd8f29472d8615efadf3aa2067f62617267dd54fb82dea97a95c22e70549","primitives":[{"attributes":{"POSITION":68,"NORMAL":69,"TEXCOORD_0":70,"COLOR_0":71,"_VELDREN_NORMAL":72,"_VELDREN_COLOR":73,"_VELDREN_FALLBACK":74,"_VELDREN_MATERIAL":75},"indices":76,"material":12,"extras":{"mixedAtlasFallback":false}}]},{"name":"4db007c200a4f5a572637b1e116c0c572c10bdf9fc0fa7cb56bf4042a585d0af","primitives":[{"attributes":{"POSITION":77,"NORMAL":78,"TEXCOORD_0":79,"COLOR_0":80,"_VELDREN_NORMAL":81,"_VELDREN_COLOR":82,"_VELDREN_FALLBACK":83,"_VELDREN_MATERIAL":84},"indices":85,"material":13,"extras":{"mixedAtlasFallback":false}}]},{"name":"d07d540f7f6728e2b5a4a5b0b979a3e92c148d81289b977da528b1bfa188e24a","primitives":[{"attributes":{"POSITION":86,"NORMAL":87,"TEXCOORD_0":88,"COLOR_0":89,"_VELDREN_NORMAL":90,"_VELDREN_COLOR":91,"_VELDREN_FALLBACK":92,"_VELDREN_MATERIAL":93},"indices":94,"material":14,"extras":{"mixedAtlasFallback":false}}]},{"name":"d668517afebe5ab17348212c084e2fe5e3c491f7ee12447456a9b785d8c52ec7","primitives":[{"attributes":{"POSITION":95,"NORMAL":96,"TEXCOORD_0":97,"COLOR_0":98,"_VELDREN_NORMAL":99,"_VELDREN_COLOR":100,"_VELDREN_FALLBACK":101,"_VELDREN_MATERIAL":102},"indices":103,"material":15,"extras":{"mixedAtlasFallback":false}}]},{"name":"219d69e559b16a6dd1674d66741d37afdc902183bfb3e53af14e3e2edb357142","primitives":[{"attributes":{"POSITION":104,"NORMAL":105,"TEXCOORD_0":106,"COLOR_0":107,"_VELDREN_NORMAL":108,"_VELDREN_COLOR":109,"_VELDREN_FALLBACK":110,"_VELDREN_MATERIAL":111},"indices":112,"material":16,"extras":{"mixedAtlasFallback":false}}]},{"name":"89bd533611a85e3f1b98fc9d3f2c3375add5ce8ef3922707a5682893ef0ed6cb","primitives":[{"attributes":{"POSITION":113,"NORMAL":114,"TEXCOORD_0":115,"COLOR_0":116,"_VELDREN_NORMAL":117,"_VELDREN_COLOR":118,"_VELDREN_FALLBACK":119,"_VELDREN_MATERIAL":120},"indices":121,"material":17,"extras":{"mixedAtlasFallback":false}}]}],"materials":[{"name":"legacy-material-20","pbrMetallicRoughness":{"baseColorFactor":[1,1,1,1],"metallicFactor":0,"roughnessFactor":1,"baseColorTexture":{"index":0}},"doubleSided":true,"extras":{"legacyMaterial":20,"legacyShader":"dist/renderer-gl.js"}},{"name":"legacy-material-43","pbrMetallicRoughness":{"baseColorFactor":[1,1,1,1],"metallicFactor":0,"roughnessFactor":1,"baseColorTexture":{"index":1}},"doubleSided":true,"extras":{"legacyMaterial":43,"legacyShader":"dist/renderer-gl.js"}},{"name":"legacy-material-42","pbrMetallicRoughness":{"baseColorFactor":[1,1,1,1],"metallicFactor":0,"roughnessFactor":1,"baseColorTexture":{"index":2}},"doubleSided":true,"extras":{"legacyMaterial":42,"legacyShader":"dist/renderer-gl.js"}},{"name":"legacy-material-5","pbrMetallicRoughness":{"baseColorFactor":[1,1,1,1],"metallicFactor":0,"roughnessFactor":1},"doubleSided":true,"extras":{"legacyMaterial":5,"legacyShader":"dist/renderer-gl.js","limitation":"Browser procedural material not implemented by this glTF export; source/base attributes retained."}},{"name":"legacy-material-13","pbrMetallicRoughness":{"baseColorFactor":[1,1,1,1],"metallicFactor":0,"roughnessFactor":1},"doubleSided":true,"extras":{"legacyMaterial":13,"legacyShader":"dist/renderer-gl.js","limitation":"Browser procedural material not implemented by this glTF export; source/base attributes retained."}},{"name":"legacy-material-20","pbrMetallicRoughness":{"baseColorFactor":[1,1,1,1],"metallicFactor":0,"roughnessFactor":1,"baseColorTexture":{"index":3}},"doubleSided":true,"extras":{"legacyMaterial":20,"legacyShader":"dist/renderer-gl.js"}},{"name":"legacy-material-43","pbrMetallicRoughness":{"baseColorFactor":[1,1,1,1],"metallicFactor":0,"roughnessFactor":1,"baseColorTexture":{"index":4}},"doubleSided":true,"extras":{"legacyMaterial":43,"legacyShader":"dist/renderer-gl.js"}},{"name":"legacy-material-42","pbrMetallicRoughness":{"baseColorFactor":[1,1,1,1],"metallicFactor":0,"roughnessFactor":1,"baseColorTexture":{"index":5}},"doubleSided":true,"extras":{"legacyMaterial":42,"legacyShader":"dist/renderer-gl.js"}},{"name":"legacy-material-42","pbrMetallicRoughness":{"baseColorFactor":[1,1,1,1],"metallicFactor":0,"roughnessFactor":1,"baseColorTexture":{"index":6}},"doubleSided":true,"extras":{"legacyMaterial":42,"legacyShader":"dist/renderer-gl.js"}},{"name":"legacy-material-42","pbrMetallicRoughness":{"baseColorFactor":[1,1,1,1],"metallicFactor":0,"roughnessFactor":1,"baseColorTexture":{"index":7}},"doubleSided":true,"extras":{"legacyMaterial":42,"legacyShader":"dist/renderer-gl.js"}},{"name":"legacy-material-43","pbrMetallicRoughness":{"baseColorFactor":[1,1,1,1],"metallicFactor":0,"roughnessFactor":1,"baseColorTexture":{"index":8}},"doubleSided":true,"extras":{"legacyMaterial":43,"legacyShader":"dist/renderer-gl.js"}},{"name":"legacy-material-42","pbrMetallicRoughness":{"baseColorFactor":[1,1,1,1],"metallicFactor":0,"roughnessFactor":1,"baseColorTexture":{"index":9}},"doubleSided":true,"extras":{"legacyMaterial":42,"legacyShader":"dist/renderer-gl.js"}},{"name":"legacy-material-18","pbrMetallicRoughness":{"baseColorFactor":[1,1,1,1],"metallicFactor":0,"roughnessFactor":1},"doubleSided":true,"extras":{"legacyMaterial":18,"legacyShader":"dist/renderer-gl.js","limitation":"Browser procedural material not implemented by this glTF export; source/base attributes retained."}},{"name":"legacy-material-18","pbrMetallicRoughness":{"baseColorFactor":[1,1,1,1],"metallicFactor":0,"roughnessFactor":1},"doubleSided":true,"extras":{"legacyMaterial":18,"legacyShader":"dist/renderer-gl.js","limitation":"Browser procedural material not implemented by this glTF export; source/base attributes retained."}},{"name":"legacy-material-18","pbrMetallicRoughness":{"baseColorFactor":[1,1,1,1],"metallicFactor":0,"roughnessFactor":1},"doubleSided":true,"extras":{"legacyMaterial":18,"legacyShader":"dist/renderer-gl.js","limitation":"Browser procedural material not implemented by this glTF export; source/base attributes retained."}},{"name":"legacy-material-18","pbrMetallicRoughness":{"baseColorFactor":[1,1,1,1],"metallicFactor":0,"roughnessFactor":1},"doubleSided":true,"extras":{"legacyMaterial":18,"legacyShader":"dist/renderer-gl.js","limitation":"Browser procedural material not implemented by this glTF export; source/base attributes retained."}},{"name":"legacy-material-18","pbrMetallicRoughness":{"baseColorFactor":[1,1,1,1],"metallicFactor":0,"roughnessFactor":1},"doubleSided":true,"extras":{"legacyMaterial":18,"legacyShader":"dist/renderer-gl.js","limitation":"Browser procedural material not implemented by this glTF export; source/base attributes retained."}},{"name":"legacy-material-18","pbrMetallicRoughness":{"baseColorFactor":[1,1,1,1],"metallicFactor":0,"roughnessFactor":1},"doubleSided":true,"extras":{"legacyMaterial":18,"legacyShader":"dist/renderer-gl.js","limitation":"Browser procedural material not implemented by this glTF export; source/base attributes retained."}}],"images":[{"name":"atlas-00","uri":"../../textures/atlas/tile-00.png"},{"name":"atlas-23","uri":"../../textures/atlas/tile-23.png"},{"name":"atlas-22","uri":"../../textures/atlas/tile-22.png"},{"name":"atlas-00","uri":"../../textures/atlas/tile-00.png"},{"name":"atlas-23","uri":"../../textures/atlas/tile-23.png"},{"name":"atlas-22","uri":"../../textures/atlas/tile-22.png"},{"name":"atlas-22","uri":"../../textures/atlas/tile-22.png"},{"name":"atlas-22","uri":"../../textures/atlas/tile-22.png"},{"name":"atlas-23","uri":"../../textures/atlas/tile-23.png"},{"name":"atlas-22","uri":"../../textures/atlas/tile-22.png"}],"textures":[{"source":0,"sampler":0},{"source":1,"sampler":1},{"source":2,"sampler":1},{"source":3,"sampler":2},{"source":4,"sampler":3},{"source":5,"sampler":3},{"source":6,"sampler":4},{"source":7,"sampler":5},{"source":8,"sampler":5},{"source":9,"sampler":6}],"samplers":[{"magFilter":9729,"minFilter":9729,"wrapS":10497,"wrapT":10497},{"magFilter":9729,"minFilter":9729,"wrapS":10497,"wrapT":10497},{"magFilter":9729,"minFilter":9729,"wrapS":10497,"wrapT":10497},{"magFilter":9729,"minFilter":9729,"wrapS":10497,"wrapT":10497},{"magFilter":9729,"minFilter":9729,"wrapS":10497,"wrapT":10497},{"magFilter":9729,"minFilter":9729,"wrapS":10497,"wrapT":10497},{"magFilter":9729,"minFilter":9729,"wrapS":10497,"wrapT":10497}]}
