{"asset":{"version":"2.0","generator":"Veldren static world recovery"},"scene":0,"scenes":[{"nodes":[0,2,4,6,8]}],"extras":{"sourceScene":"stoneInn","notVervesisScene":true,"gameplayIdentityExternal":true,"limitations":["Terrain stored separately.","Dynamic actors, fires, gates, crops, fish, effects and ground cover are not baked.","Roofs are closed; browser procedural materials require native support."]},"nodes":[{"name":"Exit to the road","children":[1],"extras":{"veldrenEntityKey":"stoneInn:object:201"}},{"mesh":0,"matrix":[1.0,0.0,0.0,0.0,0.0,1.0,0.0,0.0,0.0,0.0,1.0,0.0,0.0,0.0,0.0,1.0]},{"name":"Barrel","children":[3],"extras":{"veldrenEntityKey":"stoneInn:object:205"}},{"mesh":1,"matrix":[5.59163175301761e-17,0.0,-0.9131826758384705,0.0,0.0,0.9131826758384705,0.0,0.0,0.9131826758384705,0.0,5.59163175301761e-17,0.0,1.445000171661377,-0.003138375235721469,7.499999523162842,1.0]},{"name":"Barrel","children":[5],"extras":{"veldrenEntityKey":"stoneInn:object:206"}},{"mesh":1,"matrix":[5.59163175301761e-17,0.0,-0.9131826758384705,0.0,0.0,0.9131826758384705,0.0,0.0,0.9131826758384705,0.0,5.59163175301761e-17,0.0,1.445000171661377,-0.003138375235721469,6.5,1.0]},{"name":"Barrel","children":[7],"extras":{"veldrenEntityKey":"stoneInn:object:207"}},{"mesh":1,"matrix":[-0.9131826758384705,0.0,-1.118326350603522e-16,0.0,0.0,0.9131826758384705,0.0,0.0,1.118326350603522e-16,0.0,-0.9131826758384705,0.0,9.5,-0.003138375235721469,10.555000305175781,1.0]},{"name":"Barrel","children":[9],"extras":{"veldrenEntityKey":"stoneInn:object:208"}},{"mesh":1,"matrix":[5.59163175301761e-17,0.0,0.9131826758384705,0.0,0.0,0.9131826758384705,0.0,0.0,-0.9131826758384705,0.0,5.59163175301761e-17,0.0,12.555000305175781,-0.003138375235721469,7.5,1.0]}],"buffers":[{"uri":"../world-parts/9b1e8d24c83f2cb2d2683c226d16ac4140f04bdc688472a54ca071e9b6d0a861.bin","byteLength":3168},{"uri":"../world-parts/cf4033cb853c44a487397970d48170db13d9e081d1dc04f79877a0a818a9063c.bin","byteLength":119508}],"bufferViews":[{"buffer":0,"byteOffset":0,"byteLength":432,"target":34962},{"buffer":0,"byteOffset":432,"byteLength":432,"target":34962},{"buffer":0,"byteOffset":864,"byteLength":288,"target":34962},{"buffer":0,"byteOffset":1152,"byteLength":432,"target":34962},{"buffer":0,"byteOffset":1584,"byteLength":432,"target":34962},{"buffer":0,"byteOffset":2016,"byteLength":432,"target":34962},{"buffer":0,"byteOffset":2448,"byteLength":432,"target":34962},{"buffer":0,"byteOffset":2880,"byteLength":144,"target":34962},{"buffer":0,"byteOffset":3024,"byteLength":144,"target":34963},{"buffer":1,"byteOffset":0,"byteLength":15660,"target":34962},{"buffer":1,"byteOffset":15660,"byteLength":15660,"target":34962},{"buffer":1,"byteOffset":31320,"byteLength":10440,"target":34962},{"buffer":1,"byteOffset":41760,"byteLength":15660,"target":34962},{"buffer":1,"byteOffset":57420,"byteLength":15660,"target":34962},{"buffer":1,"byteOffset":73080,"byteLength":15660,"target":34962},{"buffer":1,"byteOffset":88740,"byteLength":15660,"target":34962},{"buffer":1,"byteOffset":104400,"byteLength":5220,"target":34962},{"buffer":1,"byteOffset":109620,"byteLength":4704,"target":34963},{"buffer":1,"byteOffset":114324,"byteLength":5184,"target":34963}],"accessors":[{"bufferView":0,"componentType":5126,"count":36,"type":"VEC3","min":[7.099999904632568,0.0,10.225000381469727],"max":[7.900000095367432,0.05000000074505806,10.774999618530273]},{"bufferView":1,"componentType":5126,"count":36,"type":"VEC3"},{"bufferView":2,"componentType":5126,"count":36,"type":"VEC2"},{"bufferView":3,"componentType":5126,"count":36,"type":"VEC3"},{"bufferView":4,"componentType":5126,"count":36,"type":"VEC3"},{"bufferView":5,"componentType":5126,"count":36,"type":"VEC3"},{"bufferView":6,"componentType":5126,"count":36,"type":"VEC3"},{"bufferView":7,"componentType":5126,"count":36,"type":"SCALAR"},{"bufferView":8,"componentType":5125,"count":36,"type":"SCALAR"},{"bufferView":9,"componentType":5126,"count":1305,"type":"VEC3","min":[-0.34901556372642517,0.003436744213104248,-0.349015474319458],"max":[0.3490154445171356,0.9013950824737549,0.3490155041217804]},{"bufferView":10,"componentType":5126,"count":1305,"type":"VEC3"},{"bufferView":11,"componentType":5126,"count":1305,"type":"VEC2"},{"bufferView":12,"componentType":5126,"count":1305,"type":"VEC3"},{"bufferView":13,"componentType":5126,"count":1305,"type":"VEC3"},{"bufferView":14,"componentType":5126,"count":1305,"type":"VEC3"},{"bufferView":15,"componentType":5126,"count":1305,"type":"VEC3"},{"bufferView":16,"componentType":5126,"count":1305,"type":"SCALAR"},{"bufferView":17,"componentType":5125,"count":1176,"type":"SCALAR"},{"bufferView":18,"componentType":5125,"count":1296,"type":"SCALAR"}],"meshes":[{"name":"9b1e8d24c83f2cb2d2683c226d16ac4140f04bdc688472a54ca071e9b6d0a861","primitives":[{"attributes":{"POSITION":0,"NORMAL":1,"TEXCOORD_0":2,"COLOR_0":3,"_VELDREN_NORMAL":4,"_VELDREN_COLOR":5,"_VELDREN_FALLBACK":6,"_VELDREN_MATERIAL":7},"indices":8,"material":0,"extras":{"mixedAtlasFallback":false}}]},{"name":"cf4033cb853c44a487397970d48170db13d9e081d1dc04f79877a0a818a9063c","primitives":[{"attributes":{"POSITION":9,"NORMAL":10,"TEXCOORD_0":11,"COLOR_0":12,"_VELDREN_NORMAL":13,"_VELDREN_COLOR":14,"_VELDREN_FALLBACK":15,"_VELDREN_MATERIAL":16},"indices":17,"material":1,"extras":{"mixedAtlasFallback":false}},{"attributes":{"POSITION":9,"NORMAL":10,"TEXCOORD_0":11,"COLOR_0":12,"_VELDREN_NORMAL":13,"_VELDREN_COLOR":14,"_VELDREN_FALLBACK":15,"_VELDREN_MATERIAL":16},"indices":18,"material":2,"extras":{"mixedAtlasFallback":false}}]}],"materials":[{"name":"legacy-material-20","pbrMetallicRoughness":{"baseColorFactor":[1,1,1,1],"metallicFactor":0,"roughnessFactor":1,"baseColorTexture":{"index":0}},"doubleSided":true,"extras":{"legacyMaterial":20,"legacyShader":"dist/renderer-gl.js"}},{"name":"legacy-material-43","pbrMetallicRoughness":{"baseColorFactor":[1,1,1,1],"metallicFactor":0,"roughnessFactor":1,"baseColorTexture":{"index":1}},"doubleSided":true,"extras":{"legacyMaterial":43,"legacyShader":"dist/renderer-gl.js"}},{"name":"legacy-material-42","pbrMetallicRoughness":{"baseColorFactor":[1,1,1,1],"metallicFactor":0,"roughnessFactor":1,"baseColorTexture":{"index":2}},"doubleSided":true,"extras":{"legacyMaterial":42,"legacyShader":"dist/renderer-gl.js"}}],"images":[{"name":"atlas-00","uri":"../../textures/atlas/tile-00.png"},{"name":"atlas-23","uri":"../../textures/atlas/tile-23.png"},{"name":"atlas-22","uri":"../../textures/atlas/tile-22.png"}],"textures":[{"source":0,"sampler":0},{"source":1,"sampler":1},{"source":2,"sampler":1}],"samplers":[{"magFilter":9729,"minFilter":9729,"wrapS":10497,"wrapT":10497},{"magFilter":9729,"minFilter":9729,"wrapS":10497,"wrapT":10497}]}
