{"asset":{"version":"2.0","generator":"Veldren static world recovery"},"scene":0,"scenes":[{"nodes":[0,2,4,6,8]}],"extras":{"sourceScene":"stoneShop","notVervesisScene":true,"gameplayIdentityExternal":true,"limitations":["Terrain stored separately.","Dynamic actors, fires, gates, crops, fish, effects and ground cover are not baked.","Roofs are closed; browser procedural materials require native support."]},"nodes":[{"name":"Exit to the road","children":[1],"extras":{"veldrenEntityKey":"stoneShop:object:209"}},{"mesh":0,"matrix":[1.0,0.0,0.0,0.0,0.0,1.0,0.0,0.0,0.0,0.0,1.0,0.0,0.0,0.0,0.0,1.0]},{"name":"Supplies","children":[3],"extras":{"veldrenEntityKey":"stoneShop:object:211"}},{"mesh":1,"matrix":[4.9331698465180434e-17,0.0,-0.8056477308273315,0.0,0.0,0.8056477308273315,0.0,0.0,0.8056477308273315,0.0,4.9331698465180434e-17,0.0,1.5449999570846558,0.04224139451980591,3.4962010383605957,1.0]},{"name":"Supplies","children":[5],"extras":{"veldrenEntityKey":"stoneShop:object:212"}},{"mesh":1,"matrix":[0.8056477473438997,0.0,0.0,0.0,0.0,0.8056477473438997,0.0,0.0,0.0,0.0,0.8056477473438997,0.0,3.5037990368072496,0.042241394260404394,1.5450000000000002,1.0]},{"name":"Supplies","children":[7],"extras":{"veldrenEntityKey":"stoneShop:object:213"}},{"mesh":1,"matrix":[0.8056477473438997,0.0,0.0,0.0,0.0,0.8056477473438997,0.0,0.0,0.0,0.0,0.8056477473438997,0.0,9.50379903680725,0.042241394260404394,1.5450000000000002,1.0]},{"name":"Supplies","children":[9],"extras":{"veldrenEntityKey":"stoneShop:object:214"}},{"mesh":1,"matrix":[4.9331698465180434e-17,0.0,0.8056477308273315,0.0,0.0,0.8056477308273315,0.0,0.0,-0.8056477308273315,0.0,4.9331698465180434e-17,0.0,12.454999923706055,0.04224139451980591,3.5037992000579834,1.0]}],"buffers":[{"uri":"../world-parts/9b1e8d24c83f2cb2d2683c226d16ac4140f04bdc688472a54ca071e9b6d0a861.bin","byteLength":3168},{"uri":"../world-parts/74009865807e4ce8cc332a7a091d5f55106ae6e43d3a0e6f2ddc38f44b9fec6a.bin","byteLength":138696}],"bufferViews":[{"buffer":0,"byteOffset":0,"byteLength":432,"target":34962},{"buffer":0,"byteOffset":432,"byteLength":432,"target":34962},{"buffer":0,"byteOffset":864,"byteLength":288,"target":34962},{"buffer":0,"byteOffset":1152,"byteLength":432,"target":34962},{"buffer":0,"byteOffset":1584,"byteLength":432,"target":34962},{"buffer":0,"byteOffset":2016,"byteLength":432,"target":34962},{"buffer":0,"byteOffset":2448,"byteLength":432,"target":34962},{"buffer":0,"byteOffset":2880,"byteLength":144,"target":34962},{"buffer":0,"byteOffset":3024,"byteLength":144,"target":34963},{"buffer":1,"byteOffset":0,"byteLength":17112,"target":34962},{"buffer":1,"byteOffset":17112,"byteLength":17112,"target":34962},{"buffer":1,"byteOffset":34224,"byteLength":11408,"target":34962},{"buffer":1,"byteOffset":45632,"byteLength":17112,"target":34962},{"buffer":1,"byteOffset":62744,"byteLength":17112,"target":34962},{"buffer":1,"byteOffset":79856,"byteLength":17112,"target":34962},{"buffer":1,"byteOffset":96968,"byteLength":17112,"target":34962},{"buffer":1,"byteOffset":114080,"byteLength":5704,"target":34962},{"buffer":1,"byteOffset":119784,"byteLength":3936,"target":34963},{"buffer":1,"byteOffset":123720,"byteLength":14976,"target":34963}],"accessors":[{"bufferView":0,"componentType":5126,"count":36,"type":"VEC3","min":[7.099999904632568,0.0,10.225000381469727],"max":[7.900000095367432,0.05000000074505806,10.774999618530273]},{"bufferView":1,"componentType":5126,"count":36,"type":"VEC3"},{"bufferView":2,"componentType":5126,"count":36,"type":"VEC2"},{"bufferView":3,"componentType":5126,"count":36,"type":"VEC3"},{"bufferView":4,"componentType":5126,"count":36,"type":"VEC3"},{"bufferView":5,"componentType":5126,"count":36,"type":"VEC3"},{"bufferView":6,"componentType":5126,"count":36,"type":"VEC3"},{"bufferView":7,"componentType":5126,"count":36,"type":"SCALAR"},{"bufferView":8,"componentType":5125,"count":36,"type":"SCALAR"},{"bufferView":9,"componentType":5126,"count":1426,"type":"VEC3","min":[-0.42584478855133057,-0.05243159085512161,-0.4541466534137726],"max":[0.4164137542247772,0.8784963488578796,0.4541466534137726]},{"bufferView":10,"componentType":5126,"count":1426,"type":"VEC3"},{"bufferView":11,"componentType":5126,"count":1426,"type":"VEC2"},{"bufferView":12,"componentType":5126,"count":1426,"type":"VEC3"},{"bufferView":13,"componentType":5126,"count":1426,"type":"VEC3"},{"bufferView":14,"componentType":5126,"count":1426,"type":"VEC3"},{"bufferView":15,"componentType":5126,"count":1426,"type":"VEC3"},{"bufferView":16,"componentType":5126,"count":1426,"type":"SCALAR"},{"bufferView":17,"componentType":5125,"count":984,"type":"SCALAR"},{"bufferView":18,"componentType":5125,"count":3744,"type":"SCALAR"}],"meshes":[{"name":"9b1e8d24c83f2cb2d2683c226d16ac4140f04bdc688472a54ca071e9b6d0a861","primitives":[{"attributes":{"POSITION":0,"NORMAL":1,"TEXCOORD_0":2,"COLOR_0":3,"_VELDREN_NORMAL":4,"_VELDREN_COLOR":5,"_VELDREN_FALLBACK":6,"_VELDREN_MATERIAL":7},"indices":8,"material":0,"extras":{"mixedAtlasFallback":false}}]},{"name":"74009865807e4ce8cc332a7a091d5f55106ae6e43d3a0e6f2ddc38f44b9fec6a","primitives":[{"attributes":{"POSITION":9,"NORMAL":10,"TEXCOORD_0":11,"COLOR_0":12,"_VELDREN_NORMAL":13,"_VELDREN_COLOR":14,"_VELDREN_FALLBACK":15,"_VELDREN_MATERIAL":16},"indices":17,"material":1,"extras":{"mixedAtlasFallback":false}},{"attributes":{"POSITION":9,"NORMAL":10,"TEXCOORD_0":11,"COLOR_0":12,"_VELDREN_NORMAL":13,"_VELDREN_COLOR":14,"_VELDREN_FALLBACK":15,"_VELDREN_MATERIAL":16},"indices":18,"material":2,"extras":{"mixedAtlasFallback":false}}]}],"materials":[{"name":"legacy-material-20","pbrMetallicRoughness":{"baseColorFactor":[1,1,1,1],"metallicFactor":0,"roughnessFactor":1,"baseColorTexture":{"index":0}},"doubleSided":true,"extras":{"legacyMaterial":20,"legacyShader":"dist/renderer-gl.js"}},{"name":"legacy-material-43","pbrMetallicRoughness":{"baseColorFactor":[1,1,1,1],"metallicFactor":0,"roughnessFactor":1,"baseColorTexture":{"index":1}},"doubleSided":true,"extras":{"legacyMaterial":43,"legacyShader":"dist/renderer-gl.js"}},{"name":"legacy-material-42","pbrMetallicRoughness":{"baseColorFactor":[1,1,1,1],"metallicFactor":0,"roughnessFactor":1,"baseColorTexture":{"index":2}},"doubleSided":true,"extras":{"legacyMaterial":42,"legacyShader":"dist/renderer-gl.js"}}],"images":[{"name":"atlas-00","uri":"../../textures/atlas/tile-00.png"},{"name":"atlas-23","uri":"../../textures/atlas/tile-23.png"},{"name":"atlas-22","uri":"../../textures/atlas/tile-22.png"}],"textures":[{"source":0,"sampler":0},{"source":1,"sampler":1},{"source":2,"sampler":1}],"samplers":[{"magFilter":9729,"minFilter":9729,"wrapS":10497,"wrapT":10497},{"magFilter":9729,"minFilter":9729,"wrapS":10497,"wrapT":10497}]}
