{"asset":{"version":"2.0","generator":"Veldren static world recovery"},"scene":0,"scenes":[{"nodes":[0,14,16,18,20,22,25,28,30,32,34,36]}],"extras":{"sourceScene":"story_shrine","notVervesisScene":true,"gameplayIdentityExternal":true,"limitations":["Terrain stored separately.","Dynamic actors, fires, gates, crops, fish, effects and ground cover are not baked.","Roofs are closed; browser procedural materials require native support."]},"nodes":[{"name":"Cave opening to the surface","children":[1,2,3,4,5,6,7,8,9,10,11,12,13],"extras":{"veldrenEntityKey":"story_shrine:object:5800014"}},{"mesh":0,"matrix":[0.3820556104183197,0.0,-1.6375902891159058,0.0,0.0,1.6815673112869263,0.0,0.0,1.6375902891159058,0.0,0.3820556104183197,0.0,34.479373931884766,0.4559255838394165,107.18045806884766,1.0]},{"mesh":0,"matrix":[0.3820556104183197,0.0,1.6375902891159058,0.0,0.0,1.6815673112869263,0.0,0.0,-1.6375902891159058,0.0,0.3820556104183197,0.0,26.608280181884766,0.4559255838394165,107.55616760253906,1.0]},{"mesh":0,"matrix":[0.8839312791824341,0.0,-1.9314249753952026,0.0,0.0,2.124084949493408,0.0,0.0,1.9314249753952026,0.0,0.8839312791824341,0.0,34.935665130615234,0.575905978679657,110.97376251220703,1.0]},{"mesh":0,"matrix":[0.8839312791824341,0.0,1.9314249753952026,0.0,0.0,2.124084949493408,0.0,0.0,-1.9314249753952026,0.0,0.8839312791824341,0.0,26.267131805419922,0.575905978679657,111.41688537597656,1.0]},{"mesh":0,"matrix":[-2.5666027069091797,0.0,-3.1431817720720785e-16,0.0,0.0,2.5666027069091797,0.0,0.0,3.1431817720720785e-16,0.0,-2.5666027069091797,0.0,30.205577850341797,0.6958864331245422,115.3846664428711,1.0]},{"mesh":0,"matrix":[-1.2671947479248047,0.0,-1.9735387563705444,0.0,0.0,2.345343828201294,0.0,0.0,1.9735387563705444,0.0,-1.2671947479248047,0.0,32.17438888549805,0.6358962059020996,113.21039581298828,1.0]},{"mesh":0,"matrix":[-1.2671947479248047,0.0,1.9735387563705444,0.0,0.0,2.345343828201294,0.0,0.0,-1.9735387563705444,0.0,-1.2671947479248047,0.0,28.53488540649414,0.6358962059020996,113.66316986083984,1.0]},{"mesh":0,"matrix":[-1.1837092638015747,0.0,-0.3661641776561737,0.0,0.0,1.2390495538711548,0.0,0.0,0.3661641776561737,0.0,-1.1837092638015747,0.0,32.93800354003906,0.33594515919685364,108.66600036621094,1.0]},{"mesh":0,"matrix":[-1.1837092638015747,0.0,0.3661641776561737,0.0,0.0,1.2390495538711548,0.0,0.0,-0.3661641776561737,0.0,-1.1837092638015747,0.0,27.790424346923828,0.33594515919685364,108.75000762939453,1.0]},{"mesh":1,"matrix":[-0.9497977495193481,0.0,-1.1631666866443886e-16,0.0,0.0,0.9497977495193481,0.0,0.0,1.1631666866443886e-16,0.0,-0.9497977495193481,0.0,30.391498565673828,2.99979829788208,109.50504302978516,1.0]},{"mesh":2,"matrix":[-1.056781530380249,0.0,-1.2941841547389076e-16,0.0,0.0,1.056781530380249,0.0,0.0,1.2941841547389076e-16,0.0,-1.056781530380249,0.0,32.150001525878906,0.0,107.68291473388672,1.0]},{"mesh":2,"matrix":[-1.056781530380249,0.0,-1.2941841547389076e-16,0.0,0.0,1.056781530380249,0.0,0.0,1.2941841547389076e-16,0.0,-1.056781530380249,0.0,28.850000381469727,0.0,107.68291473388672,1.0]},{"mesh":3,"matrix":[1.0,0.0,0.0,0.0,0.0,1.0,0.0,0.0,0.0,0.0,1.0,0.0,0.0,0.0,0.0,1.0]},{"name":"Oathstone of the Lantern","children":[15],"extras":{"veldrenEntityKey":"story_shrine:object:6300020"}},{"mesh":4,"matrix":[1.0,0.0,0.0,0.0,0.0,1.0,0.0,0.0,0.0,0.0,1.0,0.0,0.0,0.0,0.0,1.0]},{"name":"Oathstone of the Hand","children":[17],"extras":{"veldrenEntityKey":"story_shrine:object:6300021"}},{"mesh":5,"matrix":[1.0,0.0,0.0,0.0,0.0,1.0,0.0,0.0,0.0,0.0,1.0,0.0,0.0,0.0,0.0,1.0]},{"name":"Shrine of the Borrowed Voice","children":[19],"extras":{"veldrenEntityKey":"story_shrine:object:6300022"}},{"mesh":6,"matrix":[1.0,0.0,0.0,0.0,0.0,1.0,0.0,0.0,0.0,0.0,1.0,0.0,0.0,0.0,0.0,1.0]},{"name":"Abandoned pilgrim bedroll","children":[21],"extras":{"veldrenEntityKey":"story_shrine:object:6600021"}},{"mesh":7,"matrix":[1.0,0.0,0.0,0.0,0.0,1.0,0.0,0.0,0.0,0.0,1.0,0.0,0.0,0.0,0.0,1.0]},{"name":"Recent excavation tools","children":[23,24],"extras":{"veldrenEntityKey":"story_shrine:object:6600022"}},{"mesh":8,"matrix":[4.601546394749576e-17,0.0,-0.7514895556748855,0.0,0.0,0.7514895556748855,0.0,0.0,0.7514895556748855,0.0,4.601546394749576e-17,0.0,20.5,0.4311388113132429,81.49709332894568,1.0]},{"mesh":9,"matrix":[1.3661726624646224,0.0,0.0,0.0,0.0,1.3661726624646224,0.0,0.0,0.0,0.0,1.3661726624646224,0.0,20.94864025755757,-0.0009650076227388876,81.71053629898326,1.0]},{"name":"Damaged inscription","children":[26,27],"extras":{"veldrenEntityKey":"story_shrine:object:6600024"}},{"mesh":10,"matrix":[0.983469646699017,0.0,0.0,0.0,0.0,0.983469646699017,0.0,0.0,0.0,0.0,0.983469646699017,0.0,44.5,-0.0012419903400975219,34.49375929511833,1.0]},{"mesh":11,"matrix":[1.0,0.0,0.0,0.0,0.0,1.0,0.0,0.0,0.0,0.0,1.0,0.0,0.0,0.0,0.0,1.0]},{"name":"Unmarked research supplies","children":[29],"extras":{"veldrenEntityKey":"story_shrine:object:6600025"}},{"mesh":12,"matrix":[1.0,0.0,0.0,0.0,0.0,1.0,0.0,0.0,0.0,0.0,1.0,0.0,0.0,0.0,0.0,1.0]},{"name":"Empty seal-fragment socket","children":[31],"extras":{"veldrenEntityKey":"story_shrine:object:6600026"}},{"mesh":13,"matrix":[1.0,0.0,0.0,0.0,0.0,1.0,0.0,0.0,0.0,0.0,1.0,0.0,0.0,0.0,0.0,1.0]},{"name":"Weathered pilgrim statue","children":[33],"extras":{"veldrenEntityKey":"story_shrine:object:6600027"}},{"mesh":14,"matrix":[1.0,0.0,0.0,0.0,0.0,1.0,0.0,0.0,0.0,0.0,1.0,0.0,0.0,0.0,0.0,1.0]},{"name":"Old waymarker","children":[35],"extras":{"veldrenEntityKey":"story_shrine:object:6600028"}},{"mesh":15,"matrix":[1.0,0.0,0.0,0.0,0.0,1.0,0.0,0.0,0.0,0.0,1.0,0.0,0.0,0.0,0.0,1.0]},{"name":"Old waymarker","children":[37],"extras":{"veldrenEntityKey":"story_shrine:object:6600029"}},{"mesh":16,"matrix":[1.0,0.0,0.0,0.0,0.0,1.0,0.0,0.0,0.0,0.0,1.0,0.0,0.0,0.0,0.0,1.0]}],"buffers":[{"uri":"../world-parts/87518852959993e1050fc7f2474bd1a5f55b7770b81ad0bc7ad85c610949f148.bin","byteLength":33588},{"uri":"../world-parts/8c4654b75a5b0dd366624e9b3ae860c1198466904b9672745d0dc93f6a1a18ba.bin","byteLength":50868},{"uri":"../world-parts/5fb692d9d4e99bd87aee423f7a04df49ce0569c26298299884ad45022f8ac0ae.bin","byteLength":7056},{"uri":"../world-parts/c79792678659f49faf3fa8b9aa877967d37fc947d0ee13cdab22f8bdcaa0d197.bin","byteLength":3696},{"uri":"../world-parts/1a18c99bb8c96c97e3e58866b2154025b068b33e663422a73bca82cb5db5703f.bin","byteLength":69960},{"uri":"../world-parts/d1a6a77ace8c3542d4eb2bc12676ee78b040f6fdf70388d298927ed479c69732.bin","byteLength":67848},{"uri":"../world-parts/d9e9251dcf0e00db8148228fa53c0409384de6a49cb8a46bd6eb5c39cb872180.bin","byteLength":112200},{"uri":"../world-parts/f7a887972abbd68bffa32bceaca28c0920e2de74fd20465825e1b69eaacbc926.bin","byteLength":8448},{"uri":"../world-parts/07f83272cd508b9654a4521d48dbf3e5ae515f8eca44fc3f7ff72f08aa404d3e.bin","byteLength":64080},{"uri":"../world-parts/9e417f8a31493ebc5f04240e9e4919f67c7c6fd9d7d0105ec8349264d7ee9488.bin","byteLength":81768},{"uri":"../world-parts/f4b04e3619cf212187b96076e7e940da50275113f8897ecbcd59f59213422623.bin","byteLength":117840},{"uri":"../world-parts/901171515319fdd4449f12258f25713d7ebe9d9f3a1222cc8870012884a47574.bin","byteLength":6336},{"uri":"../world-parts/9ec50ccf88ba5fa0538e90f79fc0994c8832aa741ec02ff2743fcf786ac80f55.bin","byteLength":9504},{"uri":"../world-parts/9e03faf75fb0ba75b1e4ab128eec42b29df0758e3260f7874a2d74dbea4fa067.bin","byteLength":25344},{"uri":"../world-parts/6aca5b4e30698e7731f1cef234d540465884224c3f7a64c212ea77d4b31c24e2.bin","byteLength":762432},{"uri":"../world-parts/e515243804de356d18408ebd1940946f362c41140d9ba6527c9389556964512c.bin","byteLength":15840},{"uri":"../world-parts/e92e6818b72114ec7acca8b5cac761b90c25baa42af36c20c4d338a966e2d033.bin","byteLength":15840}],"bufferViews":[{"buffer":0,"byteOffset":0,"byteLength":4212,"target":34962},{"buffer":0,"byteOffset":4212,"byteLength":4212,"target":34962},{"buffer":0,"byteOffset":8424,"byteLength":2808,"target":34962},{"buffer":0,"byteOffset":11232,"byteLength":4212,"target":34962},{"buffer":0,"byteOffset":15444,"byteLength":4212,"target":34962},{"buffer":0,"byteOffset":19656,"byteLength":4212,"target":34962},{"buffer":0,"byteOffset":23868,"byteLength":4212,"target":34962},{"buffer":0,"byteOffset":28080,"byteLength":1404,"target":34962},{"buffer":0,"byteOffset":29484,"byteLength":4104,"target":34963},{"buffer":1,"byteOffset":0,"byteLength":6372,"target":34962},{"buffer":1,"byteOffset":6372,"byteLength":6372,"target":34962},{"buffer":1,"byteOffset":12744,"byteLength":4248,"target":34962},{"buffer":1,"byteOffset":16992,"byteLength":6372,"target":34962},{"buffer":1,"byteOffset":23364,"byteLength":6372,"target":34962},{"buffer":1,"byteOffset":29736,"byteLength":6372,"target":34962},{"buffer":1,"byteOffset":36108,"byteLength":6372,"target":34962},{"buffer":1,"byteOffset":42480,"byteLength":2124,"target":34962},{"buffer":1,"byteOffset":44604,"byteLength":6264,"target":34963},{"buffer":2,"byteOffset":0,"byteLength":912,"target":34962},{"buffer":2,"byteOffset":912,"byteLength":912,"target":34962},{"buffer":2,"byteOffset":1824,"byteLength":608,"target":34962},{"buffer":2,"byteOffset":2432,"byteLength":912,"target":34962},{"buffer":2,"byteOffset":3344,"byteLength":912,"target":34962},{"buffer":2,"byteOffset":4256,"byteLength":912,"target":34962},{"buffer":2,"byteOffset":5168,"byteLength":912,"target":34962},{"buffer":2,"byteOffset":6080,"byteLength":304,"target":34962},{"buffer":2,"byteOffset":6384,"byteLength":600,"target":34963},{"buffer":2,"byteOffset":6984,"byteLength":24,"target":34963},{"buffer":2,"byteOffset":7008,"byteLength":48,"target":34963},{"buffer":3,"byteOffset":0,"byteLength":504,"target":34962},{"buffer":3,"byteOffset":504,"byteLength":504,"target":34962},{"buffer":3,"byteOffset":1008,"byteLength":336,"target":34962},{"buffer":3,"byteOffset":1344,"byteLength":504,"target":34962},{"buffer":3,"byteOffset":1848,"byteLength":504,"target":34962},{"buffer":3,"byteOffset":2352,"byteLength":504,"target":34962},{"buffer":3,"byteOffset":2856,"byteLength":504,"target":34962},{"buffer":3,"byteOffset":3360,"byteLength":168,"target":34962},{"buffer":3,"byteOffset":3528,"byteLength":24,"target":34963},{"buffer":3,"byteOffset":3552,"byteLength":144,"target":34963},{"buffer":4,"byteOffset":0,"byteLength":9540,"target":34962},{"buffer":4,"byteOffset":9540,"byteLength":9540,"target":34962},{"buffer":4,"byteOffset":19080,"byteLength":6360,"target":34962},{"buffer":4,"byteOffset":25440,"byteLength":9540,"target":34962},{"buffer":4,"byteOffset":34980,"byteLength":9540,"target":34962},{"buffer":4,"byteOffset":44520,"byteLength":9540,"target":34962},{"buffer":4,"byteOffset":54060,"byteLength":9540,"target":34962},{"buffer":4,"byteOffset":63600,"byteLength":3180,"target":34962},{"buffer":4,"byteOffset":66780,"byteLength":2796,"target":34963},{"buffer":4,"byteOffset":69576,"byteLength":384,"target":34963},{"buffer":5,"byteOffset":0,"byteLength":9252,"target":34962},{"buffer":5,"byteOffset":9252,"byteLength":9252,"target":34962},{"buffer":5,"byteOffset":18504,"byteLength":6168,"target":34962},{"buffer":5,"byteOffset":24672,"byteLength":9252,"target":34962},{"buffer":5,"byteOffset":33924,"byteLength":9252,"target":34962},{"buffer":5,"byteOffset":43176,"byteLength":9252,"target":34962},{"buffer":5,"byteOffset":52428,"byteLength":9252,"target":34962},{"buffer":5,"byteOffset":61680,"byteLength":3084,"target":34962},{"buffer":5,"byteOffset":64764,"byteLength":2796,"target":34963},{"buffer":5,"byteOffset":67560,"byteLength":288,"target":34963},{"buffer":6,"byteOffset":0,"byteLength":15300,"target":34962},{"buffer":6,"byteOffset":15300,"byteLength":15300,"target":34962},{"buffer":6,"byteOffset":30600,"byteLength":10200,"target":34962},{"buffer":6,"byteOffset":40800,"byteLength":15300,"target":34962},{"buffer":6,"byteOffset":56100,"byteLength":15300,"target":34962},{"buffer":6,"byteOffset":71400,"byteLength":15300,"target":34962},{"buffer":6,"byteOffset":86700,"byteLength":15300,"target":34962},{"buffer":6,"byteOffset":102000,"byteLength":5100,"target":34962},{"buffer":6,"byteOffset":107100,"byteLength":3180,"target":34963},{"buffer":6,"byteOffset":110280,"byteLength":1920,"target":34963},{"buffer":7,"byteOffset":0,"byteLength":1152,"target":34962},{"buffer":7,"byteOffset":1152,"byteLength":1152,"target":34962},{"buffer":7,"byteOffset":2304,"byteLength":768,"target":34962},{"buffer":7,"byteOffset":3072,"byteLength":1152,"target":34962},{"buffer":7,"byteOffset":4224,"byteLength":1152,"target":34962},{"buffer":7,"byteOffset":5376,"byteLength":1152,"target":34962},{"buffer":7,"byteOffset":6528,"byteLength":1152,"target":34962},{"buffer":7,"byteOffset":7680,"byteLength":384,"target":34962},{"buffer":7,"byteOffset":8064,"byteLength":384,"target":34963},{"buffer":8,"byteOffset":0,"byteLength":7824,"target":34962},{"buffer":8,"byteOffset":7824,"byteLength":7824,"target":34962},{"buffer":8,"byteOffset":15648,"byteLength":5216,"target":34962},{"buffer":8,"byteOffset":20864,"byteLength":7824,"target":34962},{"buffer":8,"byteOffset":28688,"byteLength":7824,"target":34962},{"buffer":8,"byteOffset":36512,"byteLength":7824,"target":34962},{"buffer":8,"byteOffset":44336,"byteLength":7824,"target":34962},{"buffer":8,"byteOffset":52160,"byteLength":2608,"target":34962},{"buffer":8,"byteOffset":54768,"byteLength":9312,"target":34963},{"buffer":9,"byteOffset":0,"byteLength":10008,"target":34962},{"buffer":9,"byteOffset":10008,"byteLength":10008,"target":34962},{"buffer":9,"byteOffset":20016,"byteLength":6672,"target":34962},{"buffer":9,"byteOffset":26688,"byteLength":10008,"target":34962},{"buffer":9,"byteOffset":36696,"byteLength":10008,"target":34962},{"buffer":9,"byteOffset":46704,"byteLength":10008,"target":34962},{"buffer":9,"byteOffset":56712,"byteLength":10008,"target":34962},{"buffer":9,"byteOffset":66720,"byteLength":3336,"target":34962},{"buffer":9,"byteOffset":70056,"byteLength":7728,"target":34963},{"buffer":9,"byteOffset":77784,"byteLength":3984,"target":34963},{"buffer":10,"byteOffset":0,"byteLength":15144,"target":34962},{"buffer":10,"byteOffset":15144,"byteLength":15144,"target":34962},{"buffer":10,"byteOffset":30288,"byteLength":10096,"target":34962},{"buffer":10,"byteOffset":40384,"byteLength":15144,"target":34962},{"buffer":10,"byteOffset":55528,"byteLength":15144,"target":34962},{"buffer":10,"byteOffset":70672,"byteLength":15144,"target":34962},{"buffer":10,"byteOffset":85816,"byteLength":15144,"target":34962},{"buffer":10,"byteOffset":100960,"byteLength":5048,"target":34962},{"buffer":10,"byteOffset":106008,"byteLength":11352,"target":34963},{"buffer":10,"byteOffset":117360,"byteLength":480,"target":34963},{"buffer":11,"byteOffset":0,"byteLength":864,"target":34962},{"buffer":11,"byteOffset":864,"byteLength":864,"target":34962},{"buffer":11,"byteOffset":1728,"byteLength":576,"target":34962},{"buffer":11,"byteOffset":2304,"byteLength":864,"target":34962},{"buffer":11,"byteOffset":3168,"byteLength":864,"target":34962},{"buffer":11,"byteOffset":4032,"byteLength":864,"target":34962},{"buffer":11,"byteOffset":4896,"byteLength":864,"target":34962},{"buffer":11,"byteOffset":5760,"byteLength":288,"target":34962},{"buffer":11,"byteOffset":6048,"byteLength":288,"target":34963},{"buffer":12,"byteOffset":0,"byteLength":1296,"target":34962},{"buffer":12,"byteOffset":1296,"byteLength":1296,"target":34962},{"buffer":12,"byteOffset":2592,"byteLength":864,"target":34962},{"buffer":12,"byteOffset":3456,"byteLength":1296,"target":34962},{"buffer":12,"byteOffset":4752,"byteLength":1296,"target":34962},{"buffer":12,"byteOffset":6048,"byteLength":1296,"target":34962},{"buffer":12,"byteOffset":7344,"byteLength":1296,"target":34962},{"buffer":12,"byteOffset":8640,"byteLength":432,"target":34962},{"buffer":12,"byteOffset":9072,"byteLength":432,"target":34963},{"buffer":13,"byteOffset":0,"byteLength":3456,"target":34962},{"buffer":13,"byteOffset":3456,"byteLength":3456,"target":34962},{"buffer":13,"byteOffset":6912,"byteLength":2304,"target":34962},{"buffer":13,"byteOffset":9216,"byteLength":3456,"target":34962},{"buffer":13,"byteOffset":12672,"byteLength":3456,"target":34962},{"buffer":13,"byteOffset":16128,"byteLength":3456,"target":34962},{"buffer":13,"byteOffset":19584,"byteLength":3456,"target":34962},{"buffer":13,"byteOffset":23040,"byteLength":1152,"target":34962},{"buffer":13,"byteOffset":24192,"byteLength":1152,"target":34963},{"buffer":14,"byteOffset":0,"byteLength":103968,"target":34962},{"buffer":14,"byteOffset":103968,"byteLength":103968,"target":34962},{"buffer":14,"byteOffset":207936,"byteLength":69312,"target":34962},{"buffer":14,"byteOffset":277248,"byteLength":103968,"target":34962},{"buffer":14,"byteOffset":381216,"byteLength":103968,"target":34962},{"buffer":14,"byteOffset":485184,"byteLength":103968,"target":34962},{"buffer":14,"byteOffset":589152,"byteLength":103968,"target":34962},{"buffer":14,"byteOffset":693120,"byteLength":34656,"target":34962},{"buffer":14,"byteOffset":727776,"byteLength":34320,"target":34963},{"buffer":14,"byteOffset":762096,"byteLength":336,"target":34963},{"buffer":15,"byteOffset":0,"byteLength":2160,"target":34962},{"buffer":15,"byteOffset":2160,"byteLength":2160,"target":34962},{"buffer":15,"byteOffset":4320,"byteLength":1440,"target":34962},{"buffer":15,"byteOffset":5760,"byteLength":2160,"target":34962},{"buffer":15,"byteOffset":7920,"byteLength":2160,"target":34962},{"buffer":15,"byteOffset":10080,"byteLength":2160,"target":34962},{"buffer":15,"byteOffset":12240,"byteLength":2160,"target":34962},{"buffer":15,"byteOffset":14400,"byteLength":720,"target":34962},{"buffer":15,"byteOffset":15120,"byteLength":720,"target":34963},{"buffer":16,"byteOffset":0,"byteLength":2160,"target":34962},{"buffer":16,"byteOffset":2160,"byteLength":2160,"target":34962},{"buffer":16,"byteOffset":4320,"byteLength":1440,"target":34962},{"buffer":16,"byteOffset":5760,"byteLength":2160,"target":34962},{"buffer":16,"byteOffset":7920,"byteLength":2160,"target":34962},{"buffer":16,"byteOffset":10080,"byteLength":2160,"target":34962},{"buffer":16,"byteOffset":12240,"byteLength":2160,"target":34962},{"buffer":16,"byteOffset":14400,"byteLength":720,"target":34962},{"buffer":16,"byteOffset":15120,"byteLength":720,"target":34963}],"accessors":[{"bufferView":0,"componentType":5126,"count":351,"type":"VEC3","min":[-1.7272872924804688,-0.27113133668899536,-1.1498832702636719],"max":[1.4978611469268799,1.988665223121643,1.8392531871795654]},{"bufferView":1,"componentType":5126,"count":351,"type":"VEC3"},{"bufferView":2,"componentType":5126,"count":351,"type":"VEC2"},{"bufferView":3,"componentType":5126,"count":351,"type":"VEC3"},{"bufferView":4,"componentType":5126,"count":351,"type":"VEC3"},{"bufferView":5,"componentType":5126,"count":351,"type":"VEC3"},{"bufferView":6,"componentType":5126,"count":351,"type":"VEC3"},{"bufferView":7,"componentType":5126,"count":351,"type":"SCALAR"},{"bufferView":8,"componentType":5125,"count":1026,"type":"SCALAR"},{"bufferView":9,"componentType":5126,"count":531,"type":"VEC3","min":[-1.8242793083190918,-0.31564441323280334,-0.8904620409011841],"max":[1.5958054065704346,2.000638246536255,2.5856480598449707]},{"bufferView":10,"componentType":5126,"count":531,"type":"VEC3"},{"bufferView":11,"componentType":5126,"count":531,"type":"VEC2"},{"bufferView":12,"componentType":5126,"count":531,"type":"VEC3"},{"bufferView":13,"componentType":5126,"count":531,"type":"VEC3"},{"bufferView":14,"componentType":5126,"count":531,"type":"VEC3"},{"bufferView":15,"componentType":5126,"count":531,"type":"VEC3"},{"bufferView":16,"componentType":5126,"count":531,"type":"SCALAR"},{"bufferView":17,"componentType":5125,"count":1566,"type":"SCALAR"},{"bufferView":18,"componentType":5126,"count":76,"type":"VEC3","min":[-1.0000001192092896,0.0,-0.3140353262424469],"max":[1.0,3.1226887702941895,0.09244640171527863]},{"bufferView":19,"componentType":5126,"count":76,"type":"VEC3"},{"bufferView":20,"componentType":5126,"count":76,"type":"VEC2"},{"bufferView":21,"componentType":5126,"count":76,"type":"VEC3"},{"bufferView":22,"componentType":5126,"count":76,"type":"VEC3"},{"bufferView":23,"componentType":5126,"count":76,"type":"VEC3"},{"bufferView":24,"componentType":5126,"count":76,"type":"VEC3"},{"bufferView":25,"componentType":5126,"count":76,"type":"SCALAR"},{"bufferView":26,"componentType":5125,"count":150,"type":"SCALAR"},{"bufferView":27,"componentType":5125,"count":6,"type":"SCALAR"},{"bufferView":28,"componentType":5125,"count":12,"type":"SCALAR"},{"bufferView":29,"componentType":5126,"count":42,"type":"VEC3","min":[28.799999237060547,0.0,107.62000274658203],"max":[32.20000076293945,3.055884599685669,108.0]},{"bufferView":30,"componentType":5126,"count":42,"type":"VEC3"},{"bufferView":31,"componentType":5126,"count":42,"type":"VEC2"},{"bufferView":32,"componentType":5126,"count":42,"type":"VEC3"},{"bufferView":33,"componentType":5126,"count":42,"type":"VEC3"},{"bufferView":34,"componentType":5126,"count":42,"type":"VEC3"},{"bufferView":35,"componentType":5126,"count":42,"type":"VEC3"},{"bufferView":36,"componentType":5126,"count":42,"type":"SCALAR"},{"bufferView":37,"componentType":5125,"count":6,"type":"SCALAR"},{"bufferView":38,"componentType":5125,"count":36,"type":"SCALAR"},{"bufferView":39,"componentType":5126,"count":795,"type":"VEC3","min":[16.17565155029297,0.0,58.18577194213867],"max":[16.860000610351562,1.25,58.80710220336914]},{"bufferView":40,"componentType":5126,"count":795,"type":"VEC3"},{"bufferView":41,"componentType":5126,"count":795,"type":"VEC2"},{"bufferView":42,"componentType":5126,"count":795,"type":"VEC3"},{"bufferView":43,"componentType":5126,"count":795,"type":"VEC3"},{"bufferView":44,"componentType":5126,"count":795,"type":"VEC3"},{"bufferView":45,"componentType":5126,"count":795,"type":"VEC3"},{"bufferView":46,"componentType":5126,"count":795,"type":"SCALAR"},{"bufferView":47,"componentType":5125,"count":699,"type":"SCALAR"},{"bufferView":48,"componentType":5125,"count":96,"type":"SCALAR"},{"bufferView":49,"componentType":5126,"count":771,"type":"VEC3","min":[44.17565155029297,0.0,28.185771942138672],"max":[44.86000061035156,1.25,28.80710220336914]},{"bufferView":50,"componentType":5126,"count":771,"type":"VEC3"},{"bufferView":51,"componentType":5126,"count":771,"type":"VEC2"},{"bufferView":52,"componentType":5126,"count":771,"type":"VEC3"},{"bufferView":53,"componentType":5126,"count":771,"type":"VEC3"},{"bufferView":54,"componentType":5126,"count":771,"type":"VEC3"},{"bufferView":55,"componentType":5126,"count":771,"type":"VEC3"},{"bufferView":56,"componentType":5126,"count":771,"type":"SCALAR"},{"bufferView":57,"componentType":5125,"count":699,"type":"SCALAR"},{"bufferView":58,"componentType":5125,"count":72,"type":"SCALAR"},{"bufferView":59,"componentType":5126,"count":1275,"type":"VEC3","min":[26.76673698425293,0.0,10.850000381469727],"max":[28.260000228881836,1.4500000476837158,12.149999618530273]},{"bufferView":60,"componentType":5126,"count":1275,"type":"VEC3"},{"bufferView":61,"componentType":5126,"count":1275,"type":"VEC2"},{"bufferView":62,"componentType":5126,"count":1275,"type":"VEC3"},{"bufferView":63,"componentType":5126,"count":1275,"type":"VEC3"},{"bufferView":64,"componentType":5126,"count":1275,"type":"VEC3"},{"bufferView":65,"componentType":5126,"count":1275,"type":"VEC3"},{"bufferView":66,"componentType":5126,"count":1275,"type":"SCALAR"},{"bufferView":67,"componentType":5125,"count":795,"type":"SCALAR"},{"bufferView":68,"componentType":5125,"count":480,"type":"SCALAR"},{"bufferView":69,"componentType":5126,"count":96,"type":"VEC3","min":[25.174999237060547,0.009999999776482582,89.69999694824219],"max":[25.825000762939453,0.375,91.30000305175781]},{"bufferView":70,"componentType":5126,"count":96,"type":"VEC3"},{"bufferView":71,"componentType":5126,"count":96,"type":"VEC2"},{"bufferView":72,"componentType":5126,"count":96,"type":"VEC3"},{"bufferView":73,"componentType":5126,"count":96,"type":"VEC3"},{"bufferView":74,"componentType":5126,"count":96,"type":"VEC3"},{"bufferView":75,"componentType":5126,"count":96,"type":"VEC3"},{"bufferView":76,"componentType":5126,"count":96,"type":"SCALAR"},{"bufferView":77,"componentType":5125,"count":96,"type":"SCALAR"},{"bufferView":78,"componentType":5126,"count":652,"type":"VEC3","min":[-0.4102936387062073,-0.49387088418006897,-0.06782905012369156],"max":[0.4025578796863556,0.7037505507469177,0.06782905012369156]},{"bufferView":79,"componentType":5126,"count":652,"type":"VEC3"},{"bufferView":80,"componentType":5126,"count":652,"type":"VEC2"},{"bufferView":81,"componentType":5126,"count":652,"type":"VEC3"},{"bufferView":82,"componentType":5126,"count":652,"type":"VEC3"},{"bufferView":83,"componentType":5126,"count":652,"type":"VEC3"},{"bufferView":84,"componentType":5126,"count":652,"type":"VEC3"},{"bufferView":85,"componentType":5126,"count":652,"type":"SCALAR"},{"bufferView":86,"componentType":5125,"count":2328,"type":"SCALAR"},{"bufferView":87,"componentType":5126,"count":834,"type":"VEC3","min":[-0.2159692943096161,0.0007063584635034204,-0.19943936169147491],"max":[0.21795988082885742,0.2934951186180115,0.18401481211185455]},{"bufferView":88,"componentType":5126,"count":834,"type":"VEC3"},{"bufferView":89,"componentType":5126,"count":834,"type":"VEC2"},{"bufferView":90,"componentType":5126,"count":834,"type":"VEC3"},{"bufferView":91,"componentType":5126,"count":834,"type":"VEC3"},{"bufferView":92,"componentType":5126,"count":834,"type":"VEC3"},{"bufferView":93,"componentType":5126,"count":834,"type":"VEC3"},{"bufferView":94,"componentType":5126,"count":834,"type":"SCALAR"},{"bufferView":95,"componentType":5125,"count":1932,"type":"SCALAR"},{"bufferView":96,"componentType":5125,"count":996,"type":"SCALAR"},{"bufferView":97,"componentType":5126,"count":1262,"type":"VEC3","min":[-1.4242464303970337,0.001262865960597992,-0.5419855713844299],"max":[1.4242464303970337,0.8147094249725342,0.5546767711639404]},{"bufferView":98,"componentType":5126,"count":1262,"type":"VEC3"},{"bufferView":99,"componentType":5126,"count":1262,"type":"VEC2"},{"bufferView":100,"componentType":5126,"count":1262,"type":"VEC3"},{"bufferView":101,"componentType":5126,"count":1262,"type":"VEC3"},{"bufferView":102,"componentType":5126,"count":1262,"type":"VEC3"},{"bufferView":103,"componentType":5126,"count":1262,"type":"VEC3"},{"bufferView":104,"componentType":5126,"count":1262,"type":"SCALAR"},{"bufferView":105,"componentType":5125,"count":2838,"type":"SCALAR"},{"bufferView":106,"componentType":5125,"count":120,"type":"SCALAR"},{"bufferView":107,"componentType":5126,"count":72,"type":"VEC3","min":[44.17499923706055,0.8050000071525574,34.28499984741211],"max":[44.82500076293945,0.8974999785423279,34.71500015258789]},{"bufferView":108,"componentType":5126,"count":72,"type":"VEC3"},{"bufferView":109,"componentType":5126,"count":72,"type":"VEC2"},{"bufferView":110,"componentType":5126,"count":72,"type":"VEC3"},{"bufferView":111,"componentType":5126,"count":72,"type":"VEC3"},{"bufferView":112,"componentType":5126,"count":72,"type":"VEC3"},{"bufferView":113,"componentType":5126,"count":72,"type":"VEC3"},{"bufferView":114,"componentType":5126,"count":72,"type":"SCALAR"},{"bufferView":115,"componentType":5125,"count":72,"type":"SCALAR"},{"bufferView":116,"componentType":5126,"count":108,"type":"VEC3","min":[47.939998626708984,0.029999999329447746,23.299999237060547],"max":[48.900001525878906,0.07000000029802322,24.0]},{"bufferView":117,"componentType":5126,"count":108,"type":"VEC3"},{"bufferView":118,"componentType":5126,"count":108,"type":"VEC2"},{"bufferView":119,"componentType":5126,"count":108,"type":"VEC3"},{"bufferView":120,"componentType":5126,"count":108,"type":"VEC3"},{"bufferView":121,"componentType":5126,"count":108,"type":"VEC3"},{"bufferView":122,"componentType":5126,"count":108,"type":"VEC3"},{"bufferView":123,"componentType":5126,"count":108,"type":"SCALAR"},{"bufferView":124,"componentType":5125,"count":108,"type":"SCALAR"},{"bufferView":125,"componentType":5126,"count":288,"type":"VEC3","min":[25.709999084472656,0.0,17.36143684387207],"max":[27.290000915527344,1.100000023841858,17.700000762939453]},{"bufferView":126,"componentType":5126,"count":288,"type":"VEC3"},{"bufferView":127,"componentType":5126,"count":288,"type":"VEC2"},{"bufferView":128,"componentType":5126,"count":288,"type":"VEC3"},{"bufferView":129,"componentType":5126,"count":288,"type":"VEC3"},{"bufferView":130,"componentType":5126,"count":288,"type":"VEC3"},{"bufferView":131,"componentType":5126,"count":288,"type":"VEC3"},{"bufferView":132,"componentType":5126,"count":288,"type":"SCALAR"},{"bufferView":133,"componentType":5125,"count":288,"type":"SCALAR"},{"bufferView":134,"componentType":5126,"count":8664,"type":"VEC3","min":[34.900001525878906,0.0,87.9000015258789],"max":[36.099998474121094,2.192631721496582,89.0999984741211]},{"bufferView":135,"componentType":5126,"count":8664,"type":"VEC3"},{"bufferView":136,"componentType":5126,"count":8664,"type":"VEC2"},{"bufferView":137,"componentType":5126,"count":8664,"type":"VEC3"},{"bufferView":138,"componentType":5126,"count":8664,"type":"VEC3"},{"bufferView":139,"componentType":5126,"count":8664,"type":"VEC3"},{"bufferView":140,"componentType":5126,"count":8664,"type":"VEC3"},{"bufferView":141,"componentType":5126,"count":8664,"type":"SCALAR"},{"bufferView":142,"componentType":5125,"count":8580,"type":"SCALAR"},{"bufferView":143,"componentType":5125,"count":84,"type":"SCALAR"},{"bufferView":144,"componentType":5126,"count":180,"type":"VEC3","min":[13.149999618530273,0.0,50.439998626708984],"max":[13.850000381469727,1.399999976158142,50.58000183105469]},{"bufferView":145,"componentType":5126,"count":180,"type":"VEC3"},{"bufferView":146,"componentType":5126,"count":180,"type":"VEC2"},{"bufferView":147,"componentType":5126,"count":180,"type":"VEC3"},{"bufferView":148,"componentType":5126,"count":180,"type":"VEC3"},{"bufferView":149,"componentType":5126,"count":180,"type":"VEC3"},{"bufferView":150,"componentType":5126,"count":180,"type":"VEC3"},{"bufferView":151,"componentType":5126,"count":180,"type":"SCALAR"},{"bufferView":152,"componentType":5125,"count":180,"type":"SCALAR"},{"bufferView":153,"componentType":5126,"count":180,"type":"VEC3","min":[46.150001525878906,0.0,43.439998626708984],"max":[46.849998474121094,1.399999976158142,43.58000183105469]},{"bufferView":154,"componentType":5126,"count":180,"type":"VEC3"},{"bufferView":155,"componentType":5126,"count":180,"type":"VEC2"},{"bufferView":156,"componentType":5126,"count":180,"type":"VEC3"},{"bufferView":157,"componentType":5126,"count":180,"type":"VEC3"},{"bufferView":158,"componentType":5126,"count":180,"type":"VEC3"},{"bufferView":159,"componentType":5126,"count":180,"type":"VEC3"},{"bufferView":160,"componentType":5126,"count":180,"type":"SCALAR"},{"bufferView":161,"componentType":5125,"count":180,"type":"SCALAR"}],"meshes":[{"name":"87518852959993e1050fc7f2474bd1a5f55b7770b81ad0bc7ad85c610949f148","primitives":[{"attributes":{"POSITION":0,"NORMAL":1,"TEXCOORD_0":2,"COLOR_0":3,"_VELDREN_NORMAL":4,"_VELDREN_COLOR":5,"_VELDREN_FALLBACK":6,"_VELDREN_MATERIAL":7},"indices":8,"material":0,"extras":{"mixedAtlasFallback":false}}]},{"name":"8c4654b75a5b0dd366624e9b3ae860c1198466904b9672745d0dc93f6a1a18ba","primitives":[{"attributes":{"POSITION":9,"NORMAL":10,"TEXCOORD_0":11,"COLOR_0":12,"_VELDREN_NORMAL":13,"_VELDREN_COLOR":14,"_VELDREN_FALLBACK":15,"_VELDREN_MATERIAL":16},"indices":17,"material":1,"extras":{"mixedAtlasFallback":false}}]},{"name":"5fb692d9d4e99bd87aee423f7a04df49ce0569c26298299884ad45022f8ac0ae","primitives":[{"attributes":{"POSITION":18,"NORMAL":19,"TEXCOORD_0":20,"COLOR_0":21,"_VELDREN_NORMAL":22,"_VELDREN_COLOR":23,"_VELDREN_FALLBACK":24,"_VELDREN_MATERIAL":25},"indices":26,"material":2,"extras":{"mixedAtlasFallback":false}},{"attributes":{"POSITION":18,"NORMAL":19,"TEXCOORD_0":20,"COLOR_0":21,"_VELDREN_NORMAL":22,"_VELDREN_COLOR":23,"_VELDREN_FALLBACK":24,"_VELDREN_MATERIAL":25},"indices":27,"material":3,"extras":{"mixedAtlasFallback":false}},{"attributes":{"POSITION":18,"NORMAL":19,"TEXCOORD_0":20,"COLOR_0":21,"_VELDREN_NORMAL":22,"_VELDREN_COLOR":23,"_VELDREN_FALLBACK":24,"_VELDREN_MATERIAL":25},"indices":28,"material":4,"extras":{"mixedAtlasFallback":false}}]},{"name":"c79792678659f49faf3fa8b9aa877967d37fc947d0ee13cdab22f8bdcaa0d197","primitives":[{"attributes":{"POSITION":29,"NORMAL":30,"TEXCOORD_0":31,"COLOR_0":32,"_VELDREN_NORMAL":33,"_VELDREN_COLOR":34,"_VELDREN_FALLBACK":35,"_VELDREN_MATERIAL":36},"indices":37,"material":5,"extras":{"mixedAtlasFallback":false}},{"attributes":{"POSITION":29,"NORMAL":30,"TEXCOORD_0":31,"COLOR_0":32,"_VELDREN_NORMAL":33,"_VELDREN_COLOR":34,"_VELDREN_FALLBACK":35,"_VELDREN_MATERIAL":36},"indices":38,"material":6,"extras":{"mixedAtlasFallback":false}}]},{"name":"1a18c99bb8c96c97e3e58866b2154025b068b33e663422a73bca82cb5db5703f","primitives":[{"attributes":{"POSITION":39,"NORMAL":40,"TEXCOORD_0":41,"COLOR_0":42,"_VELDREN_NORMAL":43,"_VELDREN_COLOR":44,"_VELDREN_FALLBACK":45,"_VELDREN_MATERIAL":46},"indices":47,"material":7,"extras":{"mixedAtlasFallback":false}},{"attributes":{"POSITION":39,"NORMAL":40,"TEXCOORD_0":41,"COLOR_0":42,"_VELDREN_NORMAL":43,"_VELDREN_COLOR":44,"_VELDREN_FALLBACK":45,"_VELDREN_MATERIAL":46},"indices":48,"material":8,"extras":{"mixedAtlasFallback":false}}]},{"name":"d1a6a77ace8c3542d4eb2bc12676ee78b040f6fdf70388d298927ed479c69732","primitives":[{"attributes":{"POSITION":49,"NORMAL":50,"TEXCOORD_0":51,"COLOR_0":52,"_VELDREN_NORMAL":53,"_VELDREN_COLOR":54,"_VELDREN_FALLBACK":55,"_VELDREN_MATERIAL":56},"indices":57,"material":9,"extras":{"mixedAtlasFallback":false}},{"attributes":{"POSITION":49,"NORMAL":50,"TEXCOORD_0":51,"COLOR_0":52,"_VELDREN_NORMAL":53,"_VELDREN_COLOR":54,"_VELDREN_FALLBACK":55,"_VELDREN_MATERIAL":56},"indices":58,"material":10,"extras":{"mixedAtlasFallback":false}}]},{"name":"d9e9251dcf0e00db8148228fa53c0409384de6a49cb8a46bd6eb5c39cb872180","primitives":[{"attributes":{"POSITION":59,"NORMAL":60,"TEXCOORD_0":61,"COLOR_0":62,"_VELDREN_NORMAL":63,"_VELDREN_COLOR":64,"_VELDREN_FALLBACK":65,"_VELDREN_MATERIAL":66},"indices":67,"material":11,"extras":{"mixedAtlasFallback":false}},{"attributes":{"POSITION":59,"NORMAL":60,"TEXCOORD_0":61,"COLOR_0":62,"_VELDREN_NORMAL":63,"_VELDREN_COLOR":64,"_VELDREN_FALLBACK":65,"_VELDREN_MATERIAL":66},"indices":68,"material":12,"extras":{"mixedAtlasFallback":false}}]},{"name":"f7a887972abbd68bffa32bceaca28c0920e2de74fd20465825e1b69eaacbc926","primitives":[{"attributes":{"POSITION":69,"NORMAL":70,"TEXCOORD_0":71,"COLOR_0":72,"_VELDREN_NORMAL":73,"_VELDREN_COLOR":74,"_VELDREN_FALLBACK":75,"_VELDREN_MATERIAL":76},"indices":77,"material":13,"extras":{"mixedAtlasFallback":false}}]},{"name":"07f83272cd508b9654a4521d48dbf3e5ae515f8eca44fc3f7ff72f08aa404d3e","primitives":[{"attributes":{"POSITION":78,"NORMAL":79,"TEXCOORD_0":80,"COLOR_0":81,"_VELDREN_NORMAL":82,"_VELDREN_COLOR":83,"_VELDREN_FALLBACK":84,"_VELDREN_MATERIAL":85},"indices":86,"material":14,"extras":{"mixedAtlasFallback":false}}]},{"name":"9e417f8a31493ebc5f04240e9e4919f67c7c6fd9d7d0105ec8349264d7ee9488","primitives":[{"attributes":{"POSITION":87,"NORMAL":88,"TEXCOORD_0":89,"COLOR_0":90,"_VELDREN_NORMAL":91,"_VELDREN_COLOR":92,"_VELDREN_FALLBACK":93,"_VELDREN_MATERIAL":94},"indices":95,"material":15,"extras":{"mixedAtlasFallback":false}},{"attributes":{"POSITION":87,"NORMAL":88,"TEXCOORD_0":89,"COLOR_0":90,"_VELDREN_NORMAL":91,"_VELDREN_COLOR":92,"_VELDREN_FALLBACK":93,"_VELDREN_MATERIAL":94},"indices":96,"material":16,"extras":{"mixedAtlasFallback":false}}]},{"name":"f4b04e3619cf212187b96076e7e940da50275113f8897ecbcd59f59213422623","primitives":[{"attributes":{"POSITION":97,"NORMAL":98,"TEXCOORD_0":99,"COLOR_0":100,"_VELDREN_NORMAL":101,"_VELDREN_COLOR":102,"_VELDREN_FALLBACK":103,"_VELDREN_MATERIAL":104},"indices":105,"material":17,"extras":{"mixedAtlasFallback":false}},{"attributes":{"POSITION":97,"NORMAL":98,"TEXCOORD_0":99,"COLOR_0":100,"_VELDREN_NORMAL":101,"_VELDREN_COLOR":102,"_VELDREN_FALLBACK":103,"_VELDREN_MATERIAL":104},"indices":106,"material":18,"extras":{"mixedAtlasFallback":false}}]},{"name":"901171515319fdd4449f12258f25713d7ebe9d9f3a1222cc8870012884a47574","primitives":[{"attributes":{"POSITION":107,"NORMAL":108,"TEXCOORD_0":109,"COLOR_0":110,"_VELDREN_NORMAL":111,"_VELDREN_COLOR":112,"_VELDREN_FALLBACK":113,"_VELDREN_MATERIAL":114},"indices":115,"material":19,"extras":{"mixedAtlasFallback":false}}]},{"name":"9ec50ccf88ba5fa0538e90f79fc0994c8832aa741ec02ff2743fcf786ac80f55","primitives":[{"attributes":{"POSITION":116,"NORMAL":117,"TEXCOORD_0":118,"COLOR_0":119,"_VELDREN_NORMAL":120,"_VELDREN_COLOR":121,"_VELDREN_FALLBACK":122,"_VELDREN_MATERIAL":123},"indices":124,"material":20,"extras":{"mixedAtlasFallback":false}}]},{"name":"9e03faf75fb0ba75b1e4ab128eec42b29df0758e3260f7874a2d74dbea4fa067","primitives":[{"attributes":{"POSITION":125,"NORMAL":126,"TEXCOORD_0":127,"COLOR_0":128,"_VELDREN_NORMAL":129,"_VELDREN_COLOR":130,"_VELDREN_FALLBACK":131,"_VELDREN_MATERIAL":132},"indices":133,"material":21,"extras":{"mixedAtlasFallback":false}}]},{"name":"6aca5b4e30698e7731f1cef234d540465884224c3f7a64c212ea77d4b31c24e2","primitives":[{"attributes":{"POSITION":134,"NORMAL":135,"TEXCOORD_0":136,"COLOR_0":137,"_VELDREN_NORMAL":138,"_VELDREN_COLOR":139,"_VELDREN_FALLBACK":140,"_VELDREN_MATERIAL":141},"indices":142,"material":22,"extras":{"mixedAtlasFallback":false}},{"attributes":{"POSITION":134,"NORMAL":135,"TEXCOORD_0":136,"COLOR_0":137,"_VELDREN_NORMAL":138,"_VELDREN_COLOR":139,"_VELDREN_FALLBACK":140,"_VELDREN_MATERIAL":141},"indices":143,"material":23,"extras":{"mixedAtlasFallback":false}}]},{"name":"e515243804de356d18408ebd1940946f362c41140d9ba6527c9389556964512c","primitives":[{"attributes":{"POSITION":144,"NORMAL":145,"TEXCOORD_0":146,"COLOR_0":147,"_VELDREN_NORMAL":148,"_VELDREN_COLOR":149,"_VELDREN_FALLBACK":150,"_VELDREN_MATERIAL":151},"indices":152,"material":24,"extras":{"mixedAtlasFallback":false}}]},{"name":"e92e6818b72114ec7acca8b5cac761b90c25baa42af36c20c4d338a966e2d033","primitives":[{"attributes":{"POSITION":153,"NORMAL":154,"TEXCOORD_0":155,"COLOR_0":156,"_VELDREN_NORMAL":157,"_VELDREN_COLOR":158,"_VELDREN_FALLBACK":159,"_VELDREN_MATERIAL":160},"indices":161,"material":25,"extras":{"mixedAtlasFallback":false}}]}],"materials":[{"name":"legacy-material-33","pbrMetallicRoughness":{"baseColorFactor":[1,1,1,1],"metallicFactor":0,"roughnessFactor":1,"baseColorTexture":{"index":0}},"doubleSided":true,"extras":{"legacyMaterial":33,"legacyShader":"dist/renderer-gl.js"}},{"name":"legacy-material-33","pbrMetallicRoughness":{"baseColorFactor":[1,1,1,1],"metallicFactor":0,"roughnessFactor":1,"baseColorTexture":{"index":1}},"doubleSided":true,"extras":{"legacyMaterial":33,"legacyShader":"dist/renderer-gl.js"}},{"name":"legacy-material-21","pbrMetallicRoughness":{"baseColorFactor":[1,1,1,1],"metallicFactor":0,"roughnessFactor":1,"baseColorTexture":{"index":2}},"doubleSided":true,"extras":{"legacyMaterial":21,"legacyShader":"dist/renderer-gl.js"}},{"name":"legacy-material-22","pbrMetallicRoughness":{"baseColorFactor":[1,1,1,1],"metallicFactor":0,"roughnessFactor":1,"baseColorTexture":{"index":3}},"doubleSided":true,"extras":{"legacyMaterial":22,"legacyShader":"dist/renderer-gl.js"}},{"name":"legacy-material-25","pbrMetallicRoughness":{"baseColorFactor":[1,1,1,1],"metallicFactor":0,"roughnessFactor":1,"baseColorTexture":{"index":4}},"doubleSided":true,"extras":{"legacyMaterial":25,"legacyShader":"dist/renderer-gl.js"}},{"name":"legacy-material-7","pbrMetallicRoughness":{"baseColorFactor":[1,1,1,1],"metallicFactor":0,"roughnessFactor":1},"doubleSided":true,"extras":{"legacyMaterial":7,"legacyShader":"dist/renderer-gl.js","limitation":"Browser procedural material not implemented by this glTF export; source/base attributes retained."}},{"name":"legacy-material-20","pbrMetallicRoughness":{"baseColorFactor":[1,1,1,1],"metallicFactor":0,"roughnessFactor":1,"baseColorTexture":{"index":5}},"doubleSided":true,"extras":{"legacyMaterial":20,"legacyShader":"dist/renderer-gl.js"}},{"name":"legacy-material-20","pbrMetallicRoughness":{"baseColorFactor":[1,1,1,1],"metallicFactor":0,"roughnessFactor":1,"baseColorTexture":{"index":6}},"doubleSided":true,"extras":{"legacyMaterial":20,"legacyShader":"dist/renderer-gl.js"}},{"name":"legacy-material-19","pbrMetallicRoughness":{"baseColorFactor":[1,1,1,1],"metallicFactor":0,"roughnessFactor":1},"doubleSided":true,"extras":{"legacyMaterial":19,"legacyShader":"dist/renderer-gl.js","limitation":"Browser procedural material not implemented by this glTF export; source/base attributes retained."}},{"name":"legacy-material-20","pbrMetallicRoughness":{"baseColorFactor":[1,1,1,1],"metallicFactor":0,"roughnessFactor":1,"baseColorTexture":{"index":7}},"doubleSided":true,"extras":{"legacyMaterial":20,"legacyShader":"dist/renderer-gl.js"}},{"name":"legacy-material-19","pbrMetallicRoughness":{"baseColorFactor":[1,1,1,1],"metallicFactor":0,"roughnessFactor":1},"doubleSided":true,"extras":{"legacyMaterial":19,"legacyShader":"dist/renderer-gl.js","limitation":"Browser procedural material not implemented by this glTF export; source/base attributes retained."}},{"name":"legacy-material-20","pbrMetallicRoughness":{"baseColorFactor":[1,1,1,1],"metallicFactor":0,"roughnessFactor":1,"baseColorTexture":{"index":8}},"doubleSided":true,"extras":{"legacyMaterial":20,"legacyShader":"dist/renderer-gl.js"}},{"name":"legacy-material-19","pbrMetallicRoughness":{"baseColorFactor":[1,1,1,1],"metallicFactor":0,"roughnessFactor":1},"doubleSided":true,"extras":{"legacyMaterial":19,"legacyShader":"dist/renderer-gl.js","limitation":"Browser procedural material not implemented by this glTF export; source/base attributes retained."}},{"name":"legacy-material-20","pbrMetallicRoughness":{"baseColorFactor":[1,1,1,1],"metallicFactor":0,"roughnessFactor":1,"baseColorTexture":{"index":9}},"doubleSided":true,"extras":{"legacyMaterial":20,"legacyShader":"dist/renderer-gl.js"}},{"name":"legacy-material-44","pbrMetallicRoughness":{"baseColorFactor":[1,1,1,1],"metallicFactor":0,"roughnessFactor":1,"baseColorTexture":{"index":10}},"doubleSided":true,"extras":{"legacyMaterial":44,"legacyShader":"dist/renderer-gl.js"}},{"name":"legacy-material-43","pbrMetallicRoughness":{"baseColorFactor":[1,1,1,1],"metallicFactor":0,"roughnessFactor":1,"baseColorTexture":{"index":11}},"doubleSided":true,"extras":{"legacyMaterial":43,"legacyShader":"dist/renderer-gl.js"}},{"name":"legacy-material-42","pbrMetallicRoughness":{"baseColorFactor":[1,1,1,1],"metallicFactor":0,"roughnessFactor":1,"baseColorTexture":{"index":12}},"doubleSided":true,"extras":{"legacyMaterial":42,"legacyShader":"dist/renderer-gl.js"}},{"name":"legacy-material-43","pbrMetallicRoughness":{"baseColorFactor":[1,1,1,1],"metallicFactor":0,"roughnessFactor":1,"baseColorTexture":{"index":13}},"doubleSided":true,"extras":{"legacyMaterial":43,"legacyShader":"dist/renderer-gl.js"}},{"name":"legacy-material-42","pbrMetallicRoughness":{"baseColorFactor":[1,1,1,1],"metallicFactor":0,"roughnessFactor":1,"baseColorTexture":{"index":14}},"doubleSided":true,"extras":{"legacyMaterial":42,"legacyShader":"dist/renderer-gl.js"}},{"name":"legacy-material-20","pbrMetallicRoughness":{"baseColorFactor":[1,1,1,1],"metallicFactor":0,"roughnessFactor":1,"baseColorTexture":{"index":15}},"doubleSided":true,"extras":{"legacyMaterial":20,"legacyShader":"dist/renderer-gl.js"}},{"name":"legacy-material-20","pbrMetallicRoughness":{"baseColorFactor":[1,1,1,1],"metallicFactor":0,"roughnessFactor":1,"baseColorTexture":{"index":16}},"doubleSided":true,"extras":{"legacyMaterial":20,"legacyShader":"dist/renderer-gl.js"}},{"name":"legacy-material-20","pbrMetallicRoughness":{"baseColorFactor":[1,1,1,1],"metallicFactor":0,"roughnessFactor":1,"baseColorTexture":{"index":17}},"doubleSided":true,"extras":{"legacyMaterial":20,"legacyShader":"dist/renderer-gl.js"}},{"name":"legacy-material-12","pbrMetallicRoughness":{"baseColorFactor":[1,1,1,1],"metallicFactor":0,"roughnessFactor":1},"doubleSided":true,"extras":{"legacyMaterial":12,"legacyShader":"dist/renderer-gl.js","limitation":"Browser procedural material not implemented by this glTF export; source/base attributes retained."}},{"name":"legacy-material-20","pbrMetallicRoughness":{"baseColorFactor":[1,1,1,1],"metallicFactor":0,"roughnessFactor":1,"baseColorTexture":{"index":18}},"doubleSided":true,"extras":{"legacyMaterial":20,"legacyShader":"dist/renderer-gl.js"}},{"name":"legacy-material-20","pbrMetallicRoughness":{"baseColorFactor":[1,1,1,1],"metallicFactor":0,"roughnessFactor":1,"baseColorTexture":{"index":19}},"doubleSided":true,"extras":{"legacyMaterial":20,"legacyShader":"dist/renderer-gl.js"}},{"name":"legacy-material-20","pbrMetallicRoughness":{"baseColorFactor":[1,1,1,1],"metallicFactor":0,"roughnessFactor":1,"baseColorTexture":{"index":20}},"doubleSided":true,"extras":{"legacyMaterial":20,"legacyShader":"dist/renderer-gl.js"}}],"images":[{"name":"atlas-13","uri":"../../textures/atlas/tile-13.png"},{"name":"atlas-13","uri":"../../textures/atlas/tile-13.png"},{"name":"atlas-01","uri":"../../textures/atlas/tile-01.png"},{"name":"atlas-02","uri":"../../textures/atlas/tile-02.png"},{"name":"atlas-05","uri":"../../textures/atlas/tile-05.png"},{"name":"atlas-00","uri":"../../textures/atlas/tile-00.png"},{"name":"atlas-00","uri":"../../textures/atlas/tile-00.png"},{"name":"atlas-00","uri":"../../textures/atlas/tile-00.png"},{"name":"atlas-00","uri":"../../textures/atlas/tile-00.png"},{"name":"atlas-00","uri":"../../textures/atlas/tile-00.png"},{"name":"atlas-24","uri":"../../textures/atlas/tile-24.png"},{"name":"atlas-23","uri":"../../textures/atlas/tile-23.png"},{"name":"atlas-22","uri":"../../textures/atlas/tile-22.png"},{"name":"atlas-23","uri":"../../textures/atlas/tile-23.png"},{"name":"atlas-22","uri":"../../textures/atlas/tile-22.png"},{"name":"atlas-00","uri":"../../textures/atlas/tile-00.png"},{"name":"atlas-00","uri":"../../textures/atlas/tile-00.png"},{"name":"atlas-00","uri":"../../textures/atlas/tile-00.png"},{"name":"atlas-00","uri":"../../textures/atlas/tile-00.png"},{"name":"atlas-00","uri":"../../textures/atlas/tile-00.png"},{"name":"atlas-00","uri":"../../textures/atlas/tile-00.png"}],"textures":[{"source":0,"sampler":0},{"source":1,"sampler":1},{"source":2,"sampler":2},{"source":3,"sampler":2},{"source":4,"sampler":2},{"source":5,"sampler":3},{"source":6,"sampler":4},{"source":7,"sampler":5},{"source":8,"sampler":6},{"source":9,"sampler":7},{"source":10,"sampler":8},{"source":11,"sampler":9},{"source":12,"sampler":9},{"source":13,"sampler":10},{"source":14,"sampler":10},{"source":15,"sampler":11},{"source":16,"sampler":12},{"source":17,"sampler":13},{"source":18,"sampler":14},{"source":19,"sampler":15},{"source":20,"sampler":16}],"samplers":[{"magFilter":9729,"minFilter":9729,"wrapS":10497,"wrapT":10497},{"magFilter":9729,"minFilter":9729,"wrapS":10497,"wrapT":10497},{"magFilter":9729,"minFilter":9729,"wrapS":10497,"wrapT":10497},{"magFilter":9729,"minFilter":9729,"wrapS":10497,"wrapT":10497},{"magFilter":9729,"minFilter":9729,"wrapS":10497,"wrapT":10497},{"magFilter":9729,"minFilter":9729,"wrapS":10497,"wrapT":10497},{"magFilter":9729,"minFilter":9729,"wrapS":10497,"wrapT":10497},{"magFilter":9729,"minFilter":9729,"wrapS":10497,"wrapT":10497},{"magFilter":9729,"minFilter":9729,"wrapS":10497,"wrapT":10497},{"magFilter":9729,"minFilter":9729,"wrapS":10497,"wrapT":10497},{"magFilter":9729,"minFilter":9729,"wrapS":10497,"wrapT":10497},{"magFilter":9729,"minFilter":9729,"wrapS":10497,"wrapT":10497},{"magFilter":9729,"minFilter":9729,"wrapS":10497,"wrapT":10497},{"magFilter":9729,"minFilter":9729,"wrapS":10497,"wrapT":10497},{"magFilter":9729,"minFilter":9729,"wrapS":10497,"wrapT":10497},{"magFilter":9729,"minFilter":9729,"wrapS":10497,"wrapT":10497},{"magFilter":9729,"minFilter":9729,"wrapS":10497,"wrapT":10497}]}
