{"asset":{"version":"2.0","generator":"Veldren static world recovery"},"scene":0,"scenes":[{"nodes":[0,12,14,16,18,20,22,24,26,28,30,32,34,36]}],"extras":{"sourceScene":"story_mine","notVervesisScene":true,"gameplayIdentityExternal":true,"limitations":["Terrain stored separately.","Dynamic actors, fires, gates, crops, fish, effects and ground cover are not baked.","Roofs are closed; browser procedural materials require native support."]},"nodes":[{"name":"Cave opening to the surface","children":[1,2,3,4,5,6,7,8,9,10,11],"extras":{"veldrenEntityKey":"story_mine:object:5800012"}},{"mesh":0,"matrix":[0.3820556104183197,0.0,-1.6375902891159058,0.0,0.0,1.6815673112869263,0.0,0.0,1.6375902891159058,0.0,0.3820556104183197,0.0,29.479373931884766,0.4559255838394165,88.18045806884766,1.0]},{"mesh":0,"matrix":[0.3820556104183197,0.0,1.6375902891159058,0.0,0.0,1.6815673112869263,0.0,0.0,-1.6375902891159058,0.0,0.3820556104183197,0.0,21.608280181884766,0.4559255838394165,88.55616760253906,1.0]},{"mesh":0,"matrix":[0.8839312791824341,0.0,-1.9314249753952026,0.0,0.0,2.124084949493408,0.0,0.0,1.9314249753952026,0.0,0.8839312791824341,0.0,29.935665130615234,0.575905978679657,91.97376251220703,1.0]},{"mesh":0,"matrix":[0.8839312791824341,0.0,1.9314249753952026,0.0,0.0,2.124084949493408,0.0,0.0,-1.9314249753952026,0.0,0.8839312791824341,0.0,21.267131805419922,0.575905978679657,92.41688537597656,1.0]},{"mesh":0,"matrix":[-2.5666027069091797,0.0,-3.1431817720720785e-16,0.0,0.0,2.5666027069091797,0.0,0.0,3.1431817720720785e-16,0.0,-2.5666027069091797,0.0,25.205577850341797,0.6958864331245422,96.3846664428711,1.0]},{"mesh":0,"matrix":[-1.2671947479248047,0.0,-1.9735387563705444,0.0,0.0,2.345343828201294,0.0,0.0,1.9735387563705444,0.0,-1.2671947479248047,0.0,27.174386978149414,0.6358962059020996,94.21039581298828,1.0]},{"mesh":0,"matrix":[-1.2671947479248047,0.0,1.9735387563705444,0.0,0.0,2.345343828201294,0.0,0.0,-1.9735387563705444,0.0,-1.2671947479248047,0.0,23.53488540649414,0.6358962059020996,94.66316986083984,1.0]},{"mesh":0,"matrix":[-1.1837092638015747,0.0,-0.3661641776561737,0.0,0.0,1.2390495538711548,0.0,0.0,0.3661641776561737,0.0,-1.1837092638015747,0.0,27.93800163269043,0.33594515919685364,89.66600036621094,1.0]},{"mesh":0,"matrix":[-1.1837092638015747,0.0,0.3661641776561737,0.0,0.0,1.2390495538711548,0.0,0.0,-0.3661641776561737,0.0,-1.1837092638015747,0.0,22.790424346923828,0.33594515919685364,89.75000762939453,1.0]},{"mesh":1,"matrix":[-0.9497977495193481,0.0,-1.1631666866443886e-16,0.0,0.0,0.9497977495193481,0.0,0.0,1.1631666866443886e-16,0.0,-0.9497977495193481,0.0,25.391498565673828,2.99979829788208,90.50504302978516,1.0]},{"mesh":2,"matrix":[1.0,0.0,0.0,0.0,0.0,1.0,0.0,0.0,0.0,0.0,1.0,0.0,0.0,0.0,0.0,1.0]},{"name":"Broken freight lift","children":[13],"extras":{"veldrenEntityKey":"story_mine:object:6300010"}},{"mesh":3,"matrix":[1.0,0.0,0.0,0.0,0.0,1.0,0.0,0.0,0.0,0.0,1.0,0.0,0.0,0.0,0.0,1.0]},{"name":"Blocked ventilation grate","children":[15],"extras":{"veldrenEntityKey":"story_mine:object:6300011"}},{"mesh":4,"matrix":[1.0,0.0,0.0,0.0,0.0,1.0,0.0,0.0,0.0,0.0,1.0,0.0,0.0,0.0,0.0,1.0]},{"name":"Collapsed iron support","children":[17],"extras":{"veldrenEntityKey":"story_mine:object:6300012"}},{"mesh":5,"matrix":[0.5531471382117445,0.0,0.0,0.0,0.0,0.5531471382117445,0.0,0.0,0.0,0.0,0.5531471382117445,0.0,14.56345320792196,0.14997552296904276,47.309338501644355,1.0]},{"name":"Underground rescue anvil","children":[19],"extras":{"veldrenEntityKey":"story_mine:object:6300013"}},{"mesh":6,"matrix":[1.3972018441218685,0.0,0.0,0.0,0.0,1.3972018441218685,0.0,0.0,0.0,0.0,1.3972018441218685,0.0,34.49999983344056,-0.00024395252693572972,45.50373501214427,1.0]},{"name":"Unrecorded excavation and coded supplies","children":[21],"extras":{"veldrenEntityKey":"story_mine:object:6300014"}},{"mesh":7,"matrix":[0.8639803339195133,0.0,0.0,0.0,0.0,0.8639803339195133,0.0,0.0,0.0,0.0,0.8639803339195133,0.0,31.499934688624233,0.0021595414236872147,24.499934173651823,1.0]},{"name":"Freight rail cart","children":[23],"extras":{"veldrenEntityKey":"story_mine:object:6600041"}},{"mesh":8,"matrix":[0.6079429908988053,0.0,0.0,0.0,0.0,0.6079429908988053,0.0,0.0,0.0,0.0,0.6079429908988053,0.0,25.86264836328463,0.0023703052483361295,67.5,1.0]},{"name":"Mine support frame","children":[25],"extras":{"veldrenEntityKey":"story_mine:object:6600042"}},{"mesh":9,"matrix":[1.0,0.0,0.0,0.0,0.0,1.0,0.0,0.0,0.0,0.0,1.0,0.0,0.0,0.0,0.0,1.0]},{"name":"Salvage crate","children":[27],"extras":{"veldrenEntityKey":"story_mine:object:6600043"}},{"mesh":10,"matrix":[0.8056477473438997,0.0,0.0,0.0,0.0,0.8056477473438997,0.0,0.0,0.0,0.0,0.8056477473438997,0.0,35.50379903680725,0.042241394260404394,42.5,1.0]},{"name":"Miners\u2019 refuge bedroll","children":[29],"extras":{"veldrenEntityKey":"story_mine:object:6600044"}},{"mesh":11,"matrix":[1.0,0.0,0.0,0.0,0.0,1.0,0.0,0.0,0.0,0.0,1.0,0.0,0.0,0.0,0.0,1.0]},{"name":"Miners\u2019 refuge bedroll","children":[31],"extras":{"veldrenEntityKey":"story_mine:object:6600045"}},{"mesh":12,"matrix":[1.0,0.0,0.0,0.0,0.0,1.0,0.0,0.0,0.0,0.0,1.0,0.0,0.0,0.0,0.0,1.0]},{"name":"Ironhollow copper seam","children":[33],"extras":{"veldrenEntityKey":"story_mine:object:6600072"}},{"mesh":13,"matrix":[1.0,0.0,0.0,0.0,0.0,1.0,0.0,0.0,0.0,0.0,1.0,0.0,9.5,0.0,53.5,1.0]},{"name":"Ironhollow tin seam","children":[35],"extras":{"veldrenEntityKey":"story_mine:object:6600073"}},{"mesh":14,"matrix":[1.0,0.0,0.0,0.0,0.0,1.0,0.0,0.0,0.0,0.0,1.0,0.0,38.5,0.0,31.5,1.0]},{"name":"Lower-workings iron seam","children":[37],"extras":{"veldrenEntityKey":"story_mine:object:6600074"}},{"mesh":15,"matrix":[1.0,0.0,0.0,0.0,0.0,1.0,0.0,0.0,0.0,0.0,1.0,0.0,24.5,0.0,25.5,1.0]}],"buffers":[{"uri":"../world-parts/87518852959993e1050fc7f2474bd1a5f55b7770b81ad0bc7ad85c610949f148.bin","byteLength":33588},{"uri":"../world-parts/8c4654b75a5b0dd366624e9b3ae860c1198466904b9672745d0dc93f6a1a18ba.bin","byteLength":50868},{"uri":"../world-parts/c463c67bfe50d2ca556fa04c1e31199b15b95a54b1d9495e9722f97c21788fc0.bin","byteLength":10032},{"uri":"../world-parts/a868b19bc2858dd2a7d2e71e8a588c8494b46154ad3cad9397d8dab7dbddc978.bin","byteLength":101376},{"uri":"../world-parts/12a004dcc8bd2a26f8b76c3348a51e2cffabe21222c1584be8738c2e218d70d8.bin","byteLength":22176},{"uri":"../world-parts/d3a49cf40a43bca59e27ca2096fab65e613b5d5993f180ce0def51f1fdd95647.bin","byteLength":33588},{"uri":"../world-parts/1baadcfcbf00e0b06154296be4bff518d0f1d751a7aae25922816476adf85ce8.bin","byteLength":132336},{"uri":"../world-parts/8c606c767d7974315c7bb6356ec371eba10870d54f739fa0df01dc9a7e966490.bin","byteLength":157080},{"uri":"../world-parts/f8547e62fd3990b0a17590b45c34f3b8f1488b0c85139cc3a570a7849054fe57.bin","byteLength":421116},{"uri":"../world-parts/3ae7c610f198789b985dc6529f0db24a238cd99fbf20a2f232d9a6c663c9abf6.bin","byteLength":15840},{"uri":"../world-parts/74009865807e4ce8cc332a7a091d5f55106ae6e43d3a0e6f2ddc38f44b9fec6a.bin","byteLength":138696},{"uri":"../world-parts/0d5f7b2e5d8f98f17642b87239fe4d5f072b4215179f18cd0cd75006086b0b14.bin","byteLength":8448},{"uri":"../world-parts/56cb13edb371f1213dad7329544c19adf87e33acdb3701f75e541f9931ee3545.bin","byteLength":8448},{"uri":"../world-parts/190836a5a05cd2db9b1c8844f8432f41f0403d878d66602a954f80a27c694e5e.bin","byteLength":18216},{"uri":"../world-parts/3cce8cbb5507a2461b5cef9058fc382eb0223360f3ac806ab4c9e0a3cd439a7d.bin","byteLength":12936},{"uri":"../world-parts/0ebd686c038365e5ed11b51921b90ade9f303127887d4c318d91c7da438733d9.bin","byteLength":12936}],"bufferViews":[{"buffer":0,"byteOffset":0,"byteLength":4212,"target":34962},{"buffer":0,"byteOffset":4212,"byteLength":4212,"target":34962},{"buffer":0,"byteOffset":8424,"byteLength":2808,"target":34962},{"buffer":0,"byteOffset":11232,"byteLength":4212,"target":34962},{"buffer":0,"byteOffset":15444,"byteLength":4212,"target":34962},{"buffer":0,"byteOffset":19656,"byteLength":4212,"target":34962},{"buffer":0,"byteOffset":23868,"byteLength":4212,"target":34962},{"buffer":0,"byteOffset":28080,"byteLength":1404,"target":34962},{"buffer":0,"byteOffset":29484,"byteLength":4104,"target":34963},{"buffer":1,"byteOffset":0,"byteLength":6372,"target":34962},{"buffer":1,"byteOffset":6372,"byteLength":6372,"target":34962},{"buffer":1,"byteOffset":12744,"byteLength":4248,"target":34962},{"buffer":1,"byteOffset":16992,"byteLength":6372,"target":34962},{"buffer":1,"byteOffset":23364,"byteLength":6372,"target":34962},{"buffer":1,"byteOffset":29736,"byteLength":6372,"target":34962},{"buffer":1,"byteOffset":36108,"byteLength":6372,"target":34962},{"buffer":1,"byteOffset":42480,"byteLength":2124,"target":34962},{"buffer":1,"byteOffset":44604,"byteLength":6264,"target":34963},{"buffer":2,"byteOffset":0,"byteLength":1368,"target":34962},{"buffer":2,"byteOffset":1368,"byteLength":1368,"target":34962},{"buffer":2,"byteOffset":2736,"byteLength":912,"target":34962},{"buffer":2,"byteOffset":3648,"byteLength":1368,"target":34962},{"buffer":2,"byteOffset":5016,"byteLength":1368,"target":34962},{"buffer":2,"byteOffset":6384,"byteLength":1368,"target":34962},{"buffer":2,"byteOffset":7752,"byteLength":1368,"target":34962},{"buffer":2,"byteOffset":9120,"byteLength":456,"target":34962},{"buffer":2,"byteOffset":9576,"byteLength":24,"target":34963},{"buffer":2,"byteOffset":9600,"byteLength":432,"target":34963},{"buffer":3,"byteOffset":0,"byteLength":13824,"target":34962},{"buffer":3,"byteOffset":13824,"byteLength":13824,"target":34962},{"buffer":3,"byteOffset":27648,"byteLength":9216,"target":34962},{"buffer":3,"byteOffset":36864,"byteLength":13824,"target":34962},{"buffer":3,"byteOffset":50688,"byteLength":13824,"target":34962},{"buffer":3,"byteOffset":64512,"byteLength":13824,"target":34962},{"buffer":3,"byteOffset":78336,"byteLength":13824,"target":34962},{"buffer":3,"byteOffset":92160,"byteLength":4608,"target":34962},{"buffer":3,"byteOffset":96768,"byteLength":4608,"target":34963},{"buffer":4,"byteOffset":0,"byteLength":3024,"target":34962},{"buffer":4,"byteOffset":3024,"byteLength":3024,"target":34962},{"buffer":4,"byteOffset":6048,"byteLength":2016,"target":34962},{"buffer":4,"byteOffset":8064,"byteLength":3024,"target":34962},{"buffer":4,"byteOffset":11088,"byteLength":3024,"target":34962},{"buffer":4,"byteOffset":14112,"byteLength":3024,"target":34962},{"buffer":4,"byteOffset":17136,"byteLength":3024,"target":34962},{"buffer":4,"byteOffset":20160,"byteLength":1008,"target":34962},{"buffer":4,"byteOffset":21168,"byteLength":1008,"target":34963},{"buffer":5,"byteOffset":0,"byteLength":4212,"target":34962},{"buffer":5,"byteOffset":4212,"byteLength":4212,"target":34962},{"buffer":5,"byteOffset":8424,"byteLength":2808,"target":34962},{"buffer":5,"byteOffset":11232,"byteLength":4212,"target":34962},{"buffer":5,"byteOffset":15444,"byteLength":4212,"target":34962},{"buffer":5,"byteOffset":19656,"byteLength":4212,"target":34962},{"buffer":5,"byteOffset":23868,"byteLength":4212,"target":34962},{"buffer":5,"byteOffset":28080,"byteLength":1404,"target":34962},{"buffer":5,"byteOffset":29484,"byteLength":4104,"target":34963},{"buffer":6,"byteOffset":0,"byteLength":16560,"target":34962},{"buffer":6,"byteOffset":16560,"byteLength":16560,"target":34962},{"buffer":6,"byteOffset":33120,"byteLength":11040,"target":34962},{"buffer":6,"byteOffset":44160,"byteLength":16560,"target":34962},{"buffer":6,"byteOffset":60720,"byteLength":16560,"target":34962},{"buffer":6,"byteOffset":77280,"byteLength":16560,"target":34962},{"buffer":6,"byteOffset":93840,"byteLength":16560,"target":34962},{"buffer":6,"byteOffset":110400,"byteLength":5520,"target":34962},{"buffer":6,"byteOffset":115920,"byteLength":1968,"target":34963},{"buffer":6,"byteOffset":117888,"byteLength":14448,"target":34963},{"buffer":7,"byteOffset":0,"byteLength":19824,"target":34962},{"buffer":7,"byteOffset":19824,"byteLength":19824,"target":34962},{"buffer":7,"byteOffset":39648,"byteLength":13216,"target":34962},{"buffer":7,"byteOffset":52864,"byteLength":19824,"target":34962},{"buffer":7,"byteOffset":72688,"byteLength":19824,"target":34962},{"buffer":7,"byteOffset":92512,"byteLength":19824,"target":34962},{"buffer":7,"byteOffset":112336,"byteLength":19824,"target":34962},{"buffer":7,"byteOffset":132160,"byteLength":6608,"target":34962},{"buffer":7,"byteOffset":138768,"byteLength":18312,"target":34963},{"buffer":8,"byteOffset":0,"byteLength":53412,"target":34962},{"buffer":8,"byteOffset":53412,"byteLength":53412,"target":34962},{"buffer":8,"byteOffset":106824,"byteLength":35608,"target":34962},{"buffer":8,"byteOffset":142432,"byteLength":53412,"target":34962},{"buffer":8,"byteOffset":195844,"byteLength":53412,"target":34962},{"buffer":8,"byteOffset":249256,"byteLength":53412,"target":34962},{"buffer":8,"byteOffset":302668,"byteLength":53412,"target":34962},{"buffer":8,"byteOffset":356080,"byteLength":17804,"target":34962},{"buffer":8,"byteOffset":373884,"byteLength":26616,"target":34963},{"buffer":8,"byteOffset":400500,"byteLength":15528,"target":34963},{"buffer":8,"byteOffset":416028,"byteLength":5088,"target":34963},{"buffer":9,"byteOffset":0,"byteLength":2160,"target":34962},{"buffer":9,"byteOffset":2160,"byteLength":2160,"target":34962},{"buffer":9,"byteOffset":4320,"byteLength":1440,"target":34962},{"buffer":9,"byteOffset":5760,"byteLength":2160,"target":34962},{"buffer":9,"byteOffset":7920,"byteLength":2160,"target":34962},{"buffer":9,"byteOffset":10080,"byteLength":2160,"target":34962},{"buffer":9,"byteOffset":12240,"byteLength":2160,"target":34962},{"buffer":9,"byteOffset":14400,"byteLength":720,"target":34962},{"buffer":9,"byteOffset":15120,"byteLength":720,"target":34963},{"buffer":10,"byteOffset":0,"byteLength":17112,"target":34962},{"buffer":10,"byteOffset":17112,"byteLength":17112,"target":34962},{"buffer":10,"byteOffset":34224,"byteLength":11408,"target":34962},{"buffer":10,"byteOffset":45632,"byteLength":17112,"target":34962},{"buffer":10,"byteOffset":62744,"byteLength":17112,"target":34962},{"buffer":10,"byteOffset":79856,"byteLength":17112,"target":34962},{"buffer":10,"byteOffset":96968,"byteLength":17112,"target":34962},{"buffer":10,"byteOffset":114080,"byteLength":5704,"target":34962},{"buffer":10,"byteOffset":119784,"byteLength":3936,"target":34963},{"buffer":10,"byteOffset":123720,"byteLength":14976,"target":34963},{"buffer":11,"byteOffset":0,"byteLength":1152,"target":34962},{"buffer":11,"byteOffset":1152,"byteLength":1152,"target":34962},{"buffer":11,"byteOffset":2304,"byteLength":768,"target":34962},{"buffer":11,"byteOffset":3072,"byteLength":1152,"target":34962},{"buffer":11,"byteOffset":4224,"byteLength":1152,"target":34962},{"buffer":11,"byteOffset":5376,"byteLength":1152,"target":34962},{"buffer":11,"byteOffset":6528,"byteLength":1152,"target":34962},{"buffer":11,"byteOffset":7680,"byteLength":384,"target":34962},{"buffer":11,"byteOffset":8064,"byteLength":384,"target":34963},{"buffer":12,"byteOffset":0,"byteLength":1152,"target":34962},{"buffer":12,"byteOffset":1152,"byteLength":1152,"target":34962},{"buffer":12,"byteOffset":2304,"byteLength":768,"target":34962},{"buffer":12,"byteOffset":3072,"byteLength":1152,"target":34962},{"buffer":12,"byteOffset":4224,"byteLength":1152,"target":34962},{"buffer":12,"byteOffset":5376,"byteLength":1152,"target":34962},{"buffer":12,"byteOffset":6528,"byteLength":1152,"target":34962},{"buffer":12,"byteOffset":7680,"byteLength":384,"target":34962},{"buffer":12,"byteOffset":8064,"byteLength":384,"target":34963},{"buffer":13,"byteOffset":0,"byteLength":2484,"target":34962},{"buffer":13,"byteOffset":2484,"byteLength":2484,"target":34962},{"buffer":13,"byteOffset":4968,"byteLength":1656,"target":34962},{"buffer":13,"byteOffset":6624,"byteLength":2484,"target":34962},{"buffer":13,"byteOffset":9108,"byteLength":2484,"target":34962},{"buffer":13,"byteOffset":11592,"byteLength":2484,"target":34962},{"buffer":13,"byteOffset":14076,"byteLength":2484,"target":34962},{"buffer":13,"byteOffset":16560,"byteLength":828,"target":34962},{"buffer":13,"byteOffset":17388,"byteLength":828,"target":34963},{"buffer":14,"byteOffset":0,"byteLength":1764,"target":34962},{"buffer":14,"byteOffset":1764,"byteLength":1764,"target":34962},{"buffer":14,"byteOffset":3528,"byteLength":1176,"target":34962},{"buffer":14,"byteOffset":4704,"byteLength":1764,"target":34962},{"buffer":14,"byteOffset":6468,"byteLength":1764,"target":34962},{"buffer":14,"byteOffset":8232,"byteLength":1764,"target":34962},{"buffer":14,"byteOffset":9996,"byteLength":1764,"target":34962},{"buffer":14,"byteOffset":11760,"byteLength":588,"target":34962},{"buffer":14,"byteOffset":12348,"byteLength":588,"target":34963},{"buffer":15,"byteOffset":0,"byteLength":1764,"target":34962},{"buffer":15,"byteOffset":1764,"byteLength":1764,"target":34962},{"buffer":15,"byteOffset":3528,"byteLength":1176,"target":34962},{"buffer":15,"byteOffset":4704,"byteLength":1764,"target":34962},{"buffer":15,"byteOffset":6468,"byteLength":1764,"target":34962},{"buffer":15,"byteOffset":8232,"byteLength":1764,"target":34962},{"buffer":15,"byteOffset":9996,"byteLength":1764,"target":34962},{"buffer":15,"byteOffset":11760,"byteLength":588,"target":34962},{"buffer":15,"byteOffset":12348,"byteLength":588,"target":34963}],"accessors":[{"bufferView":0,"componentType":5126,"count":351,"type":"VEC3","min":[-1.7272872924804688,-0.27113133668899536,-1.1498832702636719],"max":[1.4978611469268799,1.988665223121643,1.8392531871795654]},{"bufferView":1,"componentType":5126,"count":351,"type":"VEC3"},{"bufferView":2,"componentType":5126,"count":351,"type":"VEC2"},{"bufferView":3,"componentType":5126,"count":351,"type":"VEC3"},{"bufferView":4,"componentType":5126,"count":351,"type":"VEC3"},{"bufferView":5,"componentType":5126,"count":351,"type":"VEC3"},{"bufferView":6,"componentType":5126,"count":351,"type":"VEC3"},{"bufferView":7,"componentType":5126,"count":351,"type":"SCALAR"},{"bufferView":8,"componentType":5125,"count":1026,"type":"SCALAR"},{"bufferView":9,"componentType":5126,"count":531,"type":"VEC3","min":[-1.8242793083190918,-0.31564441323280334,-0.8904620409011841],"max":[1.5958054065704346,2.000638246536255,2.5856480598449707]},{"bufferView":10,"componentType":5126,"count":531,"type":"VEC3"},{"bufferView":11,"componentType":5126,"count":531,"type":"VEC2"},{"bufferView":12,"componentType":5126,"count":531,"type":"VEC3"},{"bufferView":13,"componentType":5126,"count":531,"type":"VEC3"},{"bufferView":14,"componentType":5126,"count":531,"type":"VEC3"},{"bufferView":15,"componentType":5126,"count":531,"type":"VEC3"},{"bufferView":16,"componentType":5126,"count":531,"type":"SCALAR"},{"bufferView":17,"componentType":5125,"count":1566,"type":"SCALAR"},{"bufferView":18,"componentType":5126,"count":114,"type":"VEC3","min":[23.799999237060547,0.0,88.62000274658203],"max":[27.200000762939453,3.055884599685669,89.0]},{"bufferView":19,"componentType":5126,"count":114,"type":"VEC3"},{"bufferView":20,"componentType":5126,"count":114,"type":"VEC2"},{"bufferView":21,"componentType":5126,"count":114,"type":"VEC3"},{"bufferView":22,"componentType":5126,"count":114,"type":"VEC3"},{"bufferView":23,"componentType":5126,"count":114,"type":"VEC3"},{"bufferView":24,"componentType":5126,"count":114,"type":"VEC3"},{"bufferView":25,"componentType":5126,"count":114,"type":"SCALAR"},{"bufferView":26,"componentType":5125,"count":6,"type":"SCALAR"},{"bufferView":27,"componentType":5125,"count":108,"type":"SCALAR"},{"bufferView":28,"componentType":5126,"count":1152,"type":"VEC3","min":[24.700000762939453,0.0,65.05680847167969],"max":[26.5,2.369999885559082,65.88999938964844]},{"bufferView":29,"componentType":5126,"count":1152,"type":"VEC3"},{"bufferView":30,"componentType":5126,"count":1152,"type":"VEC2"},{"bufferView":31,"componentType":5126,"count":1152,"type":"VEC3"},{"bufferView":32,"componentType":5126,"count":1152,"type":"VEC3"},{"bufferView":33,"componentType":5126,"count":1152,"type":"VEC3"},{"bufferView":34,"componentType":5126,"count":1152,"type":"VEC3"},{"bufferView":35,"componentType":5126,"count":1152,"type":"SCALAR"},{"bufferView":36,"componentType":5125,"count":1152,"type":"SCALAR"},{"bufferView":37,"componentType":5126,"count":252,"type":"VEC3","min":[12.050000190734863,0.004999999888241291,57.150001525878906],"max":[12.949999809265137,0.42750000953674316,57.849998474121094]},{"bufferView":38,"componentType":5126,"count":252,"type":"VEC3"},{"bufferView":39,"componentType":5126,"count":252,"type":"VEC2"},{"bufferView":40,"componentType":5126,"count":252,"type":"VEC3"},{"bufferView":41,"componentType":5126,"count":252,"type":"VEC3"},{"bufferView":42,"componentType":5126,"count":252,"type":"VEC3"},{"bufferView":43,"componentType":5126,"count":252,"type":"VEC3"},{"bufferView":44,"componentType":5126,"count":252,"type":"SCALAR"},{"bufferView":45,"componentType":5125,"count":252,"type":"SCALAR"},{"bufferView":46,"componentType":5126,"count":351,"type":"VEC3","min":[-1.7272872924804688,-0.27113133668899536,-1.1498832702636719],"max":[1.4978611469268799,1.988665223121643,1.8392531871795654]},{"bufferView":47,"componentType":5126,"count":351,"type":"VEC3"},{"bufferView":48,"componentType":5126,"count":351,"type":"VEC2"},{"bufferView":49,"componentType":5126,"count":351,"type":"VEC3"},{"bufferView":50,"componentType":5126,"count":351,"type":"VEC3"},{"bufferView":51,"componentType":5126,"count":351,"type":"VEC3"},{"bufferView":52,"componentType":5126,"count":351,"type":"VEC3"},{"bufferView":53,"componentType":5126,"count":351,"type":"SCALAR"},{"bufferView":54,"componentType":5125,"count":1026,"type":"SCALAR"},{"bufferView":55,"componentType":5126,"count":1380,"type":"VEC3","min":[-1.009548306465149,0.00017460077651776373,-0.5147912502288818],"max":[1.009548544883728,0.8948198556900024,0.5094448328018188]},{"bufferView":56,"componentType":5126,"count":1380,"type":"VEC3"},{"bufferView":57,"componentType":5126,"count":1380,"type":"VEC2"},{"bufferView":58,"componentType":5126,"count":1380,"type":"VEC3"},{"bufferView":59,"componentType":5126,"count":1380,"type":"VEC3"},{"bufferView":60,"componentType":5126,"count":1380,"type":"VEC3"},{"bufferView":61,"componentType":5126,"count":1380,"type":"VEC3"},{"bufferView":62,"componentType":5126,"count":1380,"type":"SCALAR"},{"bufferView":63,"componentType":5125,"count":492,"type":"SCALAR"},{"bufferView":64,"componentType":5125,"count":3612,"type":"SCALAR"},{"bufferView":65,"componentType":5126,"count":1652,"type":"VEC3","min":[-0.2534816861152649,-0.00249952613376081,-0.2555173337459564],"max":[0.25363287329673767,1.444292664527893,0.2556697130203247]},{"bufferView":66,"componentType":5126,"count":1652,"type":"VEC3"},{"bufferView":67,"componentType":5126,"count":1652,"type":"VEC2"},{"bufferView":68,"componentType":5126,"count":1652,"type":"VEC3"},{"bufferView":69,"componentType":5126,"count":1652,"type":"VEC3"},{"bufferView":70,"componentType":5126,"count":1652,"type":"VEC3"},{"bufferView":71,"componentType":5126,"count":1652,"type":"VEC3"},{"bufferView":72,"componentType":5126,"count":1652,"type":"SCALAR"},{"bufferView":73,"componentType":5125,"count":4578,"type":"SCALAR"},{"bufferView":74,"componentType":5126,"count":4451,"type":"VEC3","min":[-2.1067893505096436,-0.0038988939486443996,-0.5298508405685425],"max":[0.9137552380561829,2.627926826477051,0.5298508405685425]},{"bufferView":75,"componentType":5126,"count":4451,"type":"VEC3"},{"bufferView":76,"componentType":5126,"count":4451,"type":"VEC2"},{"bufferView":77,"componentType":5126,"count":4451,"type":"VEC3"},{"bufferView":78,"componentType":5126,"count":4451,"type":"VEC3"},{"bufferView":79,"componentType":5126,"count":4451,"type":"VEC3"},{"bufferView":80,"componentType":5126,"count":4451,"type":"VEC3"},{"bufferView":81,"componentType":5126,"count":4451,"type":"SCALAR"},{"bufferView":82,"componentType":5125,"count":6654,"type":"SCALAR"},{"bufferView":83,"componentType":5125,"count":3882,"type":"SCALAR"},{"bufferView":84,"componentType":5125,"count":1272,"type":"SCALAR"},{"bufferView":85,"componentType":5126,"count":180,"type":"VEC3","min":[13.229303359985352,-0.0367826372385025,57.36000061035156],"max":[15.770696640014648,2.5212435722351074,57.87023162841797]},{"bufferView":86,"componentType":5126,"count":180,"type":"VEC3"},{"bufferView":87,"componentType":5126,"count":180,"type":"VEC2"},{"bufferView":88,"componentType":5126,"count":180,"type":"VEC3"},{"bufferView":89,"componentType":5126,"count":180,"type":"VEC3"},{"bufferView":90,"componentType":5126,"count":180,"type":"VEC3"},{"bufferView":91,"componentType":5126,"count":180,"type":"VEC3"},{"bufferView":92,"componentType":5126,"count":180,"type":"SCALAR"},{"bufferView":93,"componentType":5125,"count":180,"type":"SCALAR"},{"bufferView":94,"componentType":5126,"count":1426,"type":"VEC3","min":[-0.42584478855133057,-0.05243159085512161,-0.4541466534137726],"max":[0.4164137542247772,0.8784963488578796,0.4541466534137726]},{"bufferView":95,"componentType":5126,"count":1426,"type":"VEC3"},{"bufferView":96,"componentType":5126,"count":1426,"type":"VEC2"},{"bufferView":97,"componentType":5126,"count":1426,"type":"VEC3"},{"bufferView":98,"componentType":5126,"count":1426,"type":"VEC3"},{"bufferView":99,"componentType":5126,"count":1426,"type":"VEC3"},{"bufferView":100,"componentType":5126,"count":1426,"type":"VEC3"},{"bufferView":101,"componentType":5126,"count":1426,"type":"SCALAR"},{"bufferView":102,"componentType":5125,"count":984,"type":"SCALAR"},{"bufferView":103,"componentType":5125,"count":3744,"type":"SCALAR"},{"bufferView":104,"componentType":5126,"count":96,"type":"VEC3","min":[10.175000190734863,0.009999999776482582,11.699999809265137],"max":[10.824999809265137,0.375,13.300000190734863]},{"bufferView":105,"componentType":5126,"count":96,"type":"VEC3"},{"bufferView":106,"componentType":5126,"count":96,"type":"VEC2"},{"bufferView":107,"componentType":5126,"count":96,"type":"VEC3"},{"bufferView":108,"componentType":5126,"count":96,"type":"VEC3"},{"bufferView":109,"componentType":5126,"count":96,"type":"VEC3"},{"bufferView":110,"componentType":5126,"count":96,"type":"VEC3"},{"bufferView":111,"componentType":5126,"count":96,"type":"SCALAR"},{"bufferView":112,"componentType":5125,"count":96,"type":"SCALAR"},{"bufferView":113,"componentType":5126,"count":96,"type":"VEC3","min":[10.175000190734863,0.009999999776482582,18.700000762939453],"max":[10.824999809265137,0.375,20.299999237060547]},{"bufferView":114,"componentType":5126,"count":96,"type":"VEC3"},{"bufferView":115,"componentType":5126,"count":96,"type":"VEC2"},{"bufferView":116,"componentType":5126,"count":96,"type":"VEC3"},{"bufferView":117,"componentType":5126,"count":96,"type":"VEC3"},{"bufferView":118,"componentType":5126,"count":96,"type":"VEC3"},{"bufferView":119,"componentType":5126,"count":96,"type":"VEC3"},{"bufferView":120,"componentType":5126,"count":96,"type":"SCALAR"},{"bufferView":121,"componentType":5125,"count":96,"type":"SCALAR"},{"bufferView":122,"componentType":5126,"count":207,"type":"VEC3","min":[-0.5464262962341309,0.014999999664723873,-0.42896828055381775],"max":[0.5409427285194397,0.5899999737739563,0.42896828055381775]},{"bufferView":123,"componentType":5126,"count":207,"type":"VEC3"},{"bufferView":124,"componentType":5126,"count":207,"type":"VEC2"},{"bufferView":125,"componentType":5126,"count":207,"type":"VEC3"},{"bufferView":126,"componentType":5126,"count":207,"type":"VEC3"},{"bufferView":127,"componentType":5126,"count":207,"type":"VEC3"},{"bufferView":128,"componentType":5126,"count":207,"type":"VEC3"},{"bufferView":129,"componentType":5126,"count":207,"type":"SCALAR"},{"bufferView":130,"componentType":5125,"count":207,"type":"SCALAR"},{"bufferView":131,"componentType":5126,"count":147,"type":"VEC3","min":[-0.4955166280269623,0.014999999664723873,-0.4209120273590088],"max":[0.5684067010879517,0.41999998688697815,0.4396880567073822]},{"bufferView":132,"componentType":5126,"count":147,"type":"VEC3"},{"bufferView":133,"componentType":5126,"count":147,"type":"VEC2"},{"bufferView":134,"componentType":5126,"count":147,"type":"VEC3"},{"bufferView":135,"componentType":5126,"count":147,"type":"VEC3"},{"bufferView":136,"componentType":5126,"count":147,"type":"VEC3"},{"bufferView":137,"componentType":5126,"count":147,"type":"VEC3"},{"bufferView":138,"componentType":5126,"count":147,"type":"SCALAR"},{"bufferView":139,"componentType":5125,"count":147,"type":"SCALAR"},{"bufferView":140,"componentType":5126,"count":147,"type":"VEC3","min":[-0.5247570872306824,0.014999999664723873,-0.38042259216308594],"max":[0.4000000059604645,0.7900000214576721,0.4397660195827484]},{"bufferView":141,"componentType":5126,"count":147,"type":"VEC3"},{"bufferView":142,"componentType":5126,"count":147,"type":"VEC2"},{"bufferView":143,"componentType":5126,"count":147,"type":"VEC3"},{"bufferView":144,"componentType":5126,"count":147,"type":"VEC3"},{"bufferView":145,"componentType":5126,"count":147,"type":"VEC3"},{"bufferView":146,"componentType":5126,"count":147,"type":"VEC3"},{"bufferView":147,"componentType":5126,"count":147,"type":"SCALAR"},{"bufferView":148,"componentType":5125,"count":147,"type":"SCALAR"}],"meshes":[{"name":"87518852959993e1050fc7f2474bd1a5f55b7770b81ad0bc7ad85c610949f148","primitives":[{"attributes":{"POSITION":0,"NORMAL":1,"TEXCOORD_0":2,"COLOR_0":3,"_VELDREN_NORMAL":4,"_VELDREN_COLOR":5,"_VELDREN_FALLBACK":6,"_VELDREN_MATERIAL":7},"indices":8,"material":0,"extras":{"mixedAtlasFallback":false}}]},{"name":"8c4654b75a5b0dd366624e9b3ae860c1198466904b9672745d0dc93f6a1a18ba","primitives":[{"attributes":{"POSITION":9,"NORMAL":10,"TEXCOORD_0":11,"COLOR_0":12,"_VELDREN_NORMAL":13,"_VELDREN_COLOR":14,"_VELDREN_FALLBACK":15,"_VELDREN_MATERIAL":16},"indices":17,"material":1,"extras":{"mixedAtlasFallback":false}}]},{"name":"c463c67bfe50d2ca556fa04c1e31199b15b95a54b1d9495e9722f97c21788fc0","primitives":[{"attributes":{"POSITION":18,"NORMAL":19,"TEXCOORD_0":20,"COLOR_0":21,"_VELDREN_NORMAL":22,"_VELDREN_COLOR":23,"_VELDREN_FALLBACK":24,"_VELDREN_MATERIAL":25},"indices":26,"material":2,"extras":{"mixedAtlasFallback":false}},{"attributes":{"POSITION":18,"NORMAL":19,"TEXCOORD_0":20,"COLOR_0":21,"_VELDREN_NORMAL":22,"_VELDREN_COLOR":23,"_VELDREN_FALLBACK":24,"_VELDREN_MATERIAL":25},"indices":27,"material":3,"extras":{"mixedAtlasFallback":false}}]},{"name":"a868b19bc2858dd2a7d2e71e8a588c8494b46154ad3cad9397d8dab7dbddc978","primitives":[{"attributes":{"POSITION":28,"NORMAL":29,"TEXCOORD_0":30,"COLOR_0":31,"_VELDREN_NORMAL":32,"_VELDREN_COLOR":33,"_VELDREN_FALLBACK":34,"_VELDREN_MATERIAL":35},"indices":36,"material":4,"extras":{"mixedAtlasFallback":false}}]},{"name":"12a004dcc8bd2a26f8b76c3348a51e2cffabe21222c1584be8738c2e218d70d8","primitives":[{"attributes":{"POSITION":37,"NORMAL":38,"TEXCOORD_0":39,"COLOR_0":40,"_VELDREN_NORMAL":41,"_VELDREN_COLOR":42,"_VELDREN_FALLBACK":43,"_VELDREN_MATERIAL":44},"indices":45,"material":5,"extras":{"mixedAtlasFallback":false}}]},{"name":"d3a49cf40a43bca59e27ca2096fab65e613b5d5993f180ce0def51f1fdd95647","primitives":[{"attributes":{"POSITION":46,"NORMAL":47,"TEXCOORD_0":48,"COLOR_0":49,"_VELDREN_NORMAL":50,"_VELDREN_COLOR":51,"_VELDREN_FALLBACK":52,"_VELDREN_MATERIAL":53},"indices":54,"material":6,"extras":{"mixedAtlasFallback":false}}]},{"name":"1baadcfcbf00e0b06154296be4bff518d0f1d751a7aae25922816476adf85ce8","primitives":[{"attributes":{"POSITION":55,"NORMAL":56,"TEXCOORD_0":57,"COLOR_0":58,"_VELDREN_NORMAL":59,"_VELDREN_COLOR":60,"_VELDREN_FALLBACK":61,"_VELDREN_MATERIAL":62},"indices":63,"material":7,"extras":{"mixedAtlasFallback":false}},{"attributes":{"POSITION":55,"NORMAL":56,"TEXCOORD_0":57,"COLOR_0":58,"_VELDREN_NORMAL":59,"_VELDREN_COLOR":60,"_VELDREN_FALLBACK":61,"_VELDREN_MATERIAL":62},"indices":64,"material":8,"extras":{"mixedAtlasFallback":false}}]},{"name":"8c606c767d7974315c7bb6356ec371eba10870d54f739fa0df01dc9a7e966490","primitives":[{"attributes":{"POSITION":65,"NORMAL":66,"TEXCOORD_0":67,"COLOR_0":68,"_VELDREN_NORMAL":69,"_VELDREN_COLOR":70,"_VELDREN_FALLBACK":71,"_VELDREN_MATERIAL":72},"indices":73,"material":9,"extras":{"mixedAtlasFallback":false}}]},{"name":"f8547e62fd3990b0a17590b45c34f3b8f1488b0c85139cc3a570a7849054fe57","primitives":[{"attributes":{"POSITION":74,"NORMAL":75,"TEXCOORD_0":76,"COLOR_0":77,"_VELDREN_NORMAL":78,"_VELDREN_COLOR":79,"_VELDREN_FALLBACK":80,"_VELDREN_MATERIAL":81},"indices":82,"material":10,"extras":{"mixedAtlasFallback":false}},{"attributes":{"POSITION":74,"NORMAL":75,"TEXCOORD_0":76,"COLOR_0":77,"_VELDREN_NORMAL":78,"_VELDREN_COLOR":79,"_VELDREN_FALLBACK":80,"_VELDREN_MATERIAL":81},"indices":83,"material":11,"extras":{"mixedAtlasFallback":false}},{"attributes":{"POSITION":74,"NORMAL":75,"TEXCOORD_0":76,"COLOR_0":77,"_VELDREN_NORMAL":78,"_VELDREN_COLOR":79,"_VELDREN_FALLBACK":80,"_VELDREN_MATERIAL":81},"indices":84,"material":12,"extras":{"mixedAtlasFallback":false}}]},{"name":"3ae7c610f198789b985dc6529f0db24a238cd99fbf20a2f232d9a6c663c9abf6","primitives":[{"attributes":{"POSITION":85,"NORMAL":86,"TEXCOORD_0":87,"COLOR_0":88,"_VELDREN_NORMAL":89,"_VELDREN_COLOR":90,"_VELDREN_FALLBACK":91,"_VELDREN_MATERIAL":92},"indices":93,"material":13,"extras":{"mixedAtlasFallback":false}}]},{"name":"74009865807e4ce8cc332a7a091d5f55106ae6e43d3a0e6f2ddc38f44b9fec6a","primitives":[{"attributes":{"POSITION":94,"NORMAL":95,"TEXCOORD_0":96,"COLOR_0":97,"_VELDREN_NORMAL":98,"_VELDREN_COLOR":99,"_VELDREN_FALLBACK":100,"_VELDREN_MATERIAL":101},"indices":102,"material":14,"extras":{"mixedAtlasFallback":false}},{"attributes":{"POSITION":94,"NORMAL":95,"TEXCOORD_0":96,"COLOR_0":97,"_VELDREN_NORMAL":98,"_VELDREN_COLOR":99,"_VELDREN_FALLBACK":100,"_VELDREN_MATERIAL":101},"indices":103,"material":15,"extras":{"mixedAtlasFallback":false}}]},{"name":"0d5f7b2e5d8f98f17642b87239fe4d5f072b4215179f18cd0cd75006086b0b14","primitives":[{"attributes":{"POSITION":104,"NORMAL":105,"TEXCOORD_0":106,"COLOR_0":107,"_VELDREN_NORMAL":108,"_VELDREN_COLOR":109,"_VELDREN_FALLBACK":110,"_VELDREN_MATERIAL":111},"indices":112,"material":16,"extras":{"mixedAtlasFallback":false}}]},{"name":"56cb13edb371f1213dad7329544c19adf87e33acdb3701f75e541f9931ee3545","primitives":[{"attributes":{"POSITION":113,"NORMAL":114,"TEXCOORD_0":115,"COLOR_0":116,"_VELDREN_NORMAL":117,"_VELDREN_COLOR":118,"_VELDREN_FALLBACK":119,"_VELDREN_MATERIAL":120},"indices":121,"material":17,"extras":{"mixedAtlasFallback":false}}]},{"name":"190836a5a05cd2db9b1c8844f8432f41f0403d878d66602a954f80a27c694e5e","primitives":[{"attributes":{"POSITION":122,"NORMAL":123,"TEXCOORD_0":124,"COLOR_0":125,"_VELDREN_NORMAL":126,"_VELDREN_COLOR":127,"_VELDREN_FALLBACK":128,"_VELDREN_MATERIAL":129},"indices":130,"material":18,"extras":{"mixedAtlasFallback":false}}]},{"name":"3cce8cbb5507a2461b5cef9058fc382eb0223360f3ac806ab4c9e0a3cd439a7d","primitives":[{"attributes":{"POSITION":131,"NORMAL":132,"TEXCOORD_0":133,"COLOR_0":134,"_VELDREN_NORMAL":135,"_VELDREN_COLOR":136,"_VELDREN_FALLBACK":137,"_VELDREN_MATERIAL":138},"indices":139,"material":19,"extras":{"mixedAtlasFallback":false}}]},{"name":"0ebd686c038365e5ed11b51921b90ade9f303127887d4c318d91c7da438733d9","primitives":[{"attributes":{"POSITION":140,"NORMAL":141,"TEXCOORD_0":142,"COLOR_0":143,"_VELDREN_NORMAL":144,"_VELDREN_COLOR":145,"_VELDREN_FALLBACK":146,"_VELDREN_MATERIAL":147},"indices":148,"material":20,"extras":{"mixedAtlasFallback":false}}]}],"materials":[{"name":"legacy-material-33","pbrMetallicRoughness":{"baseColorFactor":[1,1,1,1],"metallicFactor":0,"roughnessFactor":1,"baseColorTexture":{"index":0}},"doubleSided":true,"extras":{"legacyMaterial":33,"legacyShader":"dist/renderer-gl.js"}},{"name":"legacy-material-33","pbrMetallicRoughness":{"baseColorFactor":[1,1,1,1],"metallicFactor":0,"roughnessFactor":1,"baseColorTexture":{"index":1}},"doubleSided":true,"extras":{"legacyMaterial":33,"legacyShader":"dist/renderer-gl.js"}},{"name":"legacy-material-7","pbrMetallicRoughness":{"baseColorFactor":[1,1,1,1],"metallicFactor":0,"roughnessFactor":1},"doubleSided":true,"extras":{"legacyMaterial":7,"legacyShader":"dist/renderer-gl.js","limitation":"Browser procedural material not implemented by this glTF export; source/base attributes retained."}},{"name":"legacy-material-20","pbrMetallicRoughness":{"baseColorFactor":[1,1,1,1],"metallicFactor":0,"roughnessFactor":1,"baseColorTexture":{"index":2}},"doubleSided":true,"extras":{"legacyMaterial":20,"legacyShader":"dist/renderer-gl.js"}},{"name":"legacy-material-20","pbrMetallicRoughness":{"baseColorFactor":[1,1,1,1],"metallicFactor":0,"roughnessFactor":1,"baseColorTexture":{"index":3}},"doubleSided":true,"extras":{"legacyMaterial":20,"legacyShader":"dist/renderer-gl.js"}},{"name":"legacy-material-20","pbrMetallicRoughness":{"baseColorFactor":[1,1,1,1],"metallicFactor":0,"roughnessFactor":1,"baseColorTexture":{"index":4}},"doubleSided":true,"extras":{"legacyMaterial":20,"legacyShader":"dist/renderer-gl.js"}},{"name":"legacy-material-33","pbrMetallicRoughness":{"baseColorFactor":[1,1,1,1],"metallicFactor":0,"roughnessFactor":1,"baseColorTexture":{"index":5}},"doubleSided":true,"extras":{"legacyMaterial":33,"legacyShader":"dist/renderer-gl.js"}},{"name":"legacy-material-43","pbrMetallicRoughness":{"baseColorFactor":[1,1,1,1],"metallicFactor":0,"roughnessFactor":1,"baseColorTexture":{"index":6}},"doubleSided":true,"extras":{"legacyMaterial":43,"legacyShader":"dist/renderer-gl.js"}},{"name":"legacy-material-42","pbrMetallicRoughness":{"baseColorFactor":[1,1,1,1],"metallicFactor":0,"roughnessFactor":1,"baseColorTexture":{"index":7}},"doubleSided":true,"extras":{"legacyMaterial":42,"legacyShader":"dist/renderer-gl.js"}},{"name":"legacy-material-43","pbrMetallicRoughness":{"baseColorFactor":[1,1,1,1],"metallicFactor":0,"roughnessFactor":1,"baseColorTexture":{"index":8}},"doubleSided":true,"extras":{"legacyMaterial":43,"legacyShader":"dist/renderer-gl.js"}},{"name":"legacy-material-42","pbrMetallicRoughness":{"baseColorFactor":[1,1,1,1],"metallicFactor":0,"roughnessFactor":1,"baseColorTexture":{"index":9}},"doubleSided":true,"extras":{"legacyMaterial":42,"legacyShader":"dist/renderer-gl.js"}},{"name":"legacy-material-43","pbrMetallicRoughness":{"baseColorFactor":[1,1,1,1],"metallicFactor":0,"roughnessFactor":1,"baseColorTexture":{"index":10}},"doubleSided":true,"extras":{"legacyMaterial":43,"legacyShader":"dist/renderer-gl.js"}},{"name":"legacy-material-45","pbrMetallicRoughness":{"baseColorFactor":[1,1,1,1],"metallicFactor":0,"roughnessFactor":1,"baseColorTexture":{"index":11}},"doubleSided":true,"extras":{"legacyMaterial":45,"legacyShader":"dist/renderer-gl.js"}},{"name":"legacy-material-20","pbrMetallicRoughness":{"baseColorFactor":[1,1,1,1],"metallicFactor":0,"roughnessFactor":1,"baseColorTexture":{"index":12}},"doubleSided":true,"extras":{"legacyMaterial":20,"legacyShader":"dist/renderer-gl.js"}},{"name":"legacy-material-43","pbrMetallicRoughness":{"baseColorFactor":[1,1,1,1],"metallicFactor":0,"roughnessFactor":1,"baseColorTexture":{"index":13}},"doubleSided":true,"extras":{"legacyMaterial":43,"legacyShader":"dist/renderer-gl.js"}},{"name":"legacy-material-42","pbrMetallicRoughness":{"baseColorFactor":[1,1,1,1],"metallicFactor":0,"roughnessFactor":1,"baseColorTexture":{"index":14}},"doubleSided":true,"extras":{"legacyMaterial":42,"legacyShader":"dist/renderer-gl.js"}},{"name":"legacy-material-20","pbrMetallicRoughness":{"baseColorFactor":[1,1,1,1],"metallicFactor":0,"roughnessFactor":1,"baseColorTexture":{"index":15}},"doubleSided":true,"extras":{"legacyMaterial":20,"legacyShader":"dist/renderer-gl.js"}},{"name":"legacy-material-20","pbrMetallicRoughness":{"baseColorFactor":[1,1,1,1],"metallicFactor":0,"roughnessFactor":1,"baseColorTexture":{"index":16}},"doubleSided":true,"extras":{"legacyMaterial":20,"legacyShader":"dist/renderer-gl.js"}},{"name":"legacy-material-12","pbrMetallicRoughness":{"baseColorFactor":[1,1,1,1],"metallicFactor":0,"roughnessFactor":1},"doubleSided":true,"extras":{"legacyMaterial":12,"legacyShader":"dist/renderer-gl.js","limitation":"Browser procedural material not implemented by this glTF export; source/base attributes retained."}},{"name":"legacy-material-12","pbrMetallicRoughness":{"baseColorFactor":[1,1,1,1],"metallicFactor":0,"roughnessFactor":1},"doubleSided":true,"extras":{"legacyMaterial":12,"legacyShader":"dist/renderer-gl.js","limitation":"Browser procedural material not implemented by this glTF export; source/base attributes retained."}},{"name":"legacy-material-12","pbrMetallicRoughness":{"baseColorFactor":[1,1,1,1],"metallicFactor":0,"roughnessFactor":1},"doubleSided":true,"extras":{"legacyMaterial":12,"legacyShader":"dist/renderer-gl.js","limitation":"Browser procedural material not implemented by this glTF export; source/base attributes retained."}}],"images":[{"name":"atlas-13","uri":"../../textures/atlas/tile-13.png"},{"name":"atlas-13","uri":"../../textures/atlas/tile-13.png"},{"name":"atlas-00","uri":"../../textures/atlas/tile-00.png"},{"name":"atlas-00","uri":"../../textures/atlas/tile-00.png"},{"name":"atlas-00","uri":"../../textures/atlas/tile-00.png"},{"name":"atlas-13","uri":"../../textures/atlas/tile-13.png"},{"name":"atlas-23","uri":"../../textures/atlas/tile-23.png"},{"name":"atlas-22","uri":"../../textures/atlas/tile-22.png"},{"name":"atlas-23","uri":"../../textures/atlas/tile-23.png"},{"name":"atlas-22","uri":"../../textures/atlas/tile-22.png"},{"name":"atlas-23","uri":"../../textures/atlas/tile-23.png"},{"name":"atlas-25","uri":"../../textures/atlas/tile-25.png"},{"name":"atlas-00","uri":"../../textures/atlas/tile-00.png"},{"name":"atlas-23","uri":"../../textures/atlas/tile-23.png"},{"name":"atlas-22","uri":"../../textures/atlas/tile-22.png"},{"name":"atlas-00","uri":"../../textures/atlas/tile-00.png"},{"name":"atlas-00","uri":"../../textures/atlas/tile-00.png"}],"textures":[{"source":0,"sampler":0},{"source":1,"sampler":1},{"source":2,"sampler":2},{"source":3,"sampler":3},{"source":4,"sampler":4},{"source":5,"sampler":5},{"source":6,"sampler":6},{"source":7,"sampler":6},{"source":8,"sampler":7},{"source":9,"sampler":8},{"source":10,"sampler":8},{"source":11,"sampler":8},{"source":12,"sampler":9},{"source":13,"sampler":10},{"source":14,"sampler":10},{"source":15,"sampler":11},{"source":16,"sampler":12}],"samplers":[{"magFilter":9729,"minFilter":9729,"wrapS":10497,"wrapT":10497},{"magFilter":9729,"minFilter":9729,"wrapS":10497,"wrapT":10497},{"magFilter":9729,"minFilter":9729,"wrapS":10497,"wrapT":10497},{"magFilter":9729,"minFilter":9729,"wrapS":10497,"wrapT":10497},{"magFilter":9729,"minFilter":9729,"wrapS":10497,"wrapT":10497},{"magFilter":9729,"minFilter":9729,"wrapS":10497,"wrapT":10497},{"magFilter":9729,"minFilter":9729,"wrapS":10497,"wrapT":10497},{"magFilter":9729,"minFilter":9729,"wrapS":10497,"wrapT":10497},{"magFilter":9729,"minFilter":9729,"wrapS":10497,"wrapT":10497},{"magFilter":9729,"minFilter":9729,"wrapS":10497,"wrapT":10497},{"magFilter":9729,"minFilter":9729,"wrapS":10497,"wrapT":10497},{"magFilter":9729,"minFilter":9729,"wrapS":10497,"wrapT":10497},{"magFilter":9729,"minFilter":9729,"wrapS":10497,"wrapT":10497}]}
