# File produced by Open Asset Import Library (http://www.assimp.sf.net)
# (assimp v5.3.0)

mtllib flower_yellowA.mtl

# 33 vertex positions
v 0.00912499987 -0.0500000007 -0.0158049632
v -0.0182499997 -0.0500000007 0
v -0.0182499997 -0.0500000007 -0.0316099264
v -0.0182499997 -0.0500000007 0.0316099264
v 0.00912499987 -0.0500000007 0.0158049632
v 0.0364999995 -0.0500000007 0
v 0.0545630194 0.0124397874 0.031286072
v -0.000186978548 0.0124397874 0.0628959984
v 0.0522672497 0.0372966789 0.0905295312
v 0.0545630194 0.0124397874 -0.031286072
v -0.000186978548 0.0124397874 -0.0628959984
v -0.0543760397 0.0124397874 0.0316099264
v -0.0543760397 0.0124397874 -0.0316099264
v 0.0522672497 0.0372966789 -0.0905295312
v -0.104534499 0.0372966789 -4.71028438e-10
v -0.00456249993 0.0324999951 -0.0158049632
v 0.0228125006 0.0324999951 -2.88764564e-15
v 0.00912499987 0.0324999951 -0.00790248159
v -0.00456249993 0.0324999951 0.0158049632
v 0.00912499987 0.0324999951 0.00790248159
v -0.00456249993 0.0324999951 -1.44382282e-15
v 0.0295624994 0.0324999951 -0.0250000004
v 0.0295624994 0.142499998 0.0250000004
v 0.0295624994 0.0324999951 0.0250000004
v 0.0295624994 0.142499998 -0.0250000004
v 0.0455624983 0.132500008 -0.0409999974
v 0.0455624983 0.132500008 0.0409999974
v -0.0204374995 0.142499998 -0.0250000004
v -0.0204374995 0.142499998 0.0250000004
v -0.0364374965 0.132500008 -0.0409999974
v -0.0204374995 0.0324999951 -0.0250000004
v -0.0204374995 0.0324999951 0.0250000004
v -0.0364374965 0.132500008 0.0409999974

# 76 UV coordinates
vt -0.359251976 0.622242689 0
vt 0.718503952 0 0
vt 0.718503952 1.24448538 0
vt 0.718503952 -1.24448538 0
vt -0.359251976 -0.622242689 0
vt -1.4370079 0 0
vt -1.24448538 3.00971818 0
vt 1.24448538 3.00971818 0
vt 1.85435649e-08 5.21364689 0
vt 1.24448538 3.19988155 0
vt -1.64201985e-13 0.359822631 0
vt 1.24448538 0.359822631 0
vt -1.24448538 0.359822631 0
vt -1.24448538 3.19988155 0
vt 1.56041846e-13 0.359822631 0
vt -6.45983515e-18 0.359822631 0
vt 1.85436093e-08 5.21364689 0
vt 1.85444211e-08 5.21364689 0
vt 0.466681987 3.19978881 0
vt 9.07052211e-14 -0.059399128 0
vt 1.24448538 -0.059399128 0
vt -1.24448538 -0.059399128 0
vt -0.777803302 3.19978881 0
vt -0.155560672 3.19978881 0
vt 0.777803302 3.19978881 0
vt -1.30451205e-13 -0.059399128 0
vt -0.466681987 3.19978881 0
vt 0.155560672 3.19978881 0
vt 0.622242689 3.17483163 0
vt -7.49181617e-19 -0.117598772 0
vt 1.24448538 -0.117598772 0
vt -5.68436086e-14 3.17483163 0
vt -1.24448538 -0.117598772 0
vt -0.622242689 3.17483163 0
vt 0.984251976 3.24803138 0
vt -0.984251976 7.57874012 0
vt -0.984251976 3.24803138 0
vt 0.984251976 7.57874012 0
vt -0.984251976 3.39111996 0
vt 1.61417317 7.37820292 0
vt -1.61417317 7.37820292 0
vt 0.984251976 3.39111996 0
vt 1.16387796 -0.984251976 0
vt -0.804625988 0.984251976 0
vt -0.804625988 -0.984251976 0
vt 1.16387796 0.984251976 0
vt 1.43454719 7.34982395 0
vt -1.16387796 3.36274076 0
vt 0.804625988 3.36274076 0
vt -1.79379916 7.34982395 0
vt 0.804625988 7.57874012 0
vt -1.16387796 3.24803138 0
vt 0.804625988 3.24803138 0
vt -1.16387796 7.57874012 0
vt 0.804625988 0.984251976 0
vt 0.179625988 0.622242689 0
vt 0.804625988 -0.984251976 0
vt -1.16387796 0.984251976 0
vt -0.359251976 0.311121345 0
vt -0.89812994 0 0
vt 0.179625988 -0.622242689 0
vt -1.16387796 -0.984251976 0
vt 0.179625988 0 0
vt -0.359251976 -0.311121345 0
vt -1.61417317 7.32144451 0
vt 0.984251976 3.33436155 0
vt 1.61417317 7.32144451 0
vt -0.984251976 3.33436155 0
vt 1.79379916 7.34982395 0
vt -0.804625988 3.36274076 0
vt 1.16387796 3.36274076 0
vt -1.43454719 7.34982395 0
vt 1.16387796 7.57874012 0
vt -0.804625988 3.24803138 0
vt 1.16387796 3.24803138 0
vt -0.804625988 7.57874012 0

# 29 vertex normals
vn 0 -1 0
vn -0.222016707 0.89601022 -0.384544253
vn 0.222016707 -0.89601022 0.384544253
vn -0.432783186 0.500794291 0.749602497
vn 0.432783186 -0.500794291 -0.749602497
vn -0.432783186 0.500794291 -0.749602497
vn 0.432783186 -0.500794291 0.749602497
vn 0.865566373 0.500794232 0
vn -0.865566373 -0.500794232 -0
vn -0.222016707 0.89601022 0.384544253
vn 0.222016707 -0.89601022 -0.384544253
vn 0.444033414 0.89601022 0
vn -0.444033414 -0.89601022 -0
vn 0.498288453 0.0826705843 -0.863060951
vn 0.498288453 0.0826705843 0.863060951
vn -0.986514866 0.163671777 0
vn 1 0 0
vn 0.987440705 -0.157990515 0
vn -0.987440705 0.157990515 0
vn 0 1 0
vn 0 -0.157990515 -0.987440705
vn 0 0.157990515 0.987440705
vn 0 0 -1
vn -1 0 0
vn -0.987440705 -0.157990515 -0
vn 0.987440705 0.157990515 0
vn 0 -0.157990515 0.987440705
vn 0 0.157990515 -0.987440705
vn 0 0 1

# Mesh 'Mesh flower_yellowA-0' with 40 faces
g Mesh flower_yellowA-0
usemtl grass
f  1/1/1 2/2/1 3/3/1
f  2/2/1 1/1/1 4/4/1
f  4/4/1 1/1/1 5/5/1
f  5/5/1 1/1/1 6/6/1
f  7/7/2 8/8/2 9/9/2
f  9/9/3 8/8/3 7/7/3
f  10/10/4 1/11/4 6/12/4
f  1/11/4 10/10/4 3/13/4
f  3/13/4 10/10/4 11/14/4
f  6/12/5 1/11/5 10/10/5
f  3/13/5 10/10/5 1/11/5
f  11/14/5 10/10/5 3/13/5
f  8/10/6 5/15/6 4/12/6
f  5/15/6 8/10/6 6/13/6
f  6/13/6 8/10/6 7/14/6
f  4/12/7 5/15/7 8/10/7
f  6/13/7 8/10/7 5/15/7
f  7/14/7 8/10/7 6/13/7
f  2/16/8 12/14/8 4/13/8
f  12/14/8 2/16/8 13/10/8
f  13/10/8 2/16/8 3/12/8
f  4/13/9 12/14/9 2/16/9
f  13/10/9 2/16/9 12/14/9
f  3/12/9 2/16/9 13/10/9
f  10/8/10 14/17/10 11/7/10
f  11/7/11 14/17/11 10/8/11
f  13/8/12 15/18/12 12/7/12
f  12/7/13 15/18/13 13/8/13
f  16/19/14 1/20/14 3/21/14
f  1/20/14 16/19/14 6/22/14
f  6/22/14 16/19/14 17/23/14
f  17/23/14 16/19/14 18/24/14
f  17/25/15 5/26/15 6/21/15
f  5/26/15 17/25/15 4/22/15
f  4/22/15 17/25/15 19/27/15
f  19/27/15 17/25/15 20/28/15
f  19/29/16 2/30/16 4/31/16
f  2/30/16 19/29/16 21/32/16
f  2/30/16 21/32/16 3/33/16
f  3/33/16 21/32/16 16/34/16

# Mesh 'Mesh flower_yellowA-1' with 36 faces
g Mesh flower_yellowA-1
usemtl colorYellow
f  22/35/17 23/36/17 24/37/17
f  23/36/17 22/35/17 25/38/17
f  24/39/18 26/40/18 27/41/18
f  26/40/18 24/39/18 22/42/18
f  27/41/19 26/40/19 24/39/19
f  22/42/19 24/39/19 26/40/19
f  23/43/20 28/44/20 29/45/20
f  28/44/20 23/43/20 25/46/20
f  30/47/21 22/48/21 31/49/21
f  22/48/21 30/47/21 26/50/21
f  31/49/22 22/48/22 30/47/22
f  26/50/22 30/47/22 22/48/22
f  28/51/23 22/52/23 31/53/23
f  22/52/23 28/51/23 25/54/23
f  28/36/24 32/35/24 29/38/24
f  32/35/24 28/36/24 31/37/24
f  31/55/1 16/56/1 32/57/1
f  16/56/1 31/55/1 22/58/1
f  16/56/1 22/58/1 18/59/1
f  18/59/1 22/58/1 17/60/1
f  19/61/1 32/57/1 16/56/1
f  32/57/1 19/61/1 24/62/1
f  24/62/1 17/60/1 22/58/1
f  19/61/1 16/56/1 21/63/1
f  24/62/1 19/61/1 20/64/1
f  24/62/1 20/64/1 17/60/1
f  30/65/25 32/66/25 33/67/25
f  32/66/25 30/65/25 31/68/25
f  33/67/26 32/66/26 30/65/26
f  31/68/26 30/65/26 32/66/26
f  27/69/27 32/70/27 24/71/27
f  32/70/27 27/69/27 33/72/27
f  24/71/28 32/70/28 27/69/28
f  33/72/28 27/69/28 32/70/28
f  23/73/29 32/74/29 24/75/29
f  32/74/29 23/73/29 29/76/29

