# File produced by Open Asset Import Library (http://www.assimp.sf.net)
# (assimp v5.3.0)

mtllib flower_redA.mtl

# 33 vertex positions
v 0.00912499987 -0.0500000007 -0.0158049632
v -0.0182499997 -0.0500000007 0
v -0.0182499997 -0.0500000007 -0.0316099264
v -0.0182499997 -0.0500000007 0.0316099264
v 0.00912499987 -0.0500000007 0.0158049632
v 0.0364999995 -0.0500000007 0
v -0.00456249993 0.132500008 -0.0158049632
v 0.0228125006 0.132500008 -2.88764564e-15
v 0.00912499987 0.132500008 -0.00790248159
v 0.0545630194 0.0124397874 0.031286072
v -0.000186978548 0.0124397874 0.0628959984
v 0.0522672497 0.0372966789 0.0905295312
v 0.0545630194 0.0124397874 -0.031286072
v -0.000186978548 0.0124397874 -0.0628959984
v -0.00456249993 0.132500008 0.0158049632
v -0.00456249993 0.132500008 -1.44382282e-15
v -0.0543760397 0.0124397874 0.0316099264
v -0.0543760397 0.0124397874 -0.0316099264
v 0.00912499987 0.132500008 0.00790248159
v 0.0522672497 0.0372966789 -0.0905295312
v -0.104534499 0.0372966789 -4.71028438e-10
v 0.0295624994 0.132500008 -0.0250000004
v 0.0295624994 0.242499992 0.0250000004
v 0.0295624994 0.132500008 0.0250000004
v 0.0295624994 0.242499992 -0.0250000004
v 0.0455624983 0.232500002 -0.0409999974
v 0.0455624983 0.232500002 0.0409999974
v -0.0204374995 0.242499992 -0.0250000004
v -0.0204374995 0.242499992 0.0250000004
v -0.0364374965 0.232500002 -0.0409999974
v -0.0204374995 0.132500008 -0.0250000004
v -0.0204374995 0.132500008 0.0250000004
v -0.0364374965 0.232500002 0.0409999974

# 76 UV coordinates
vt -0.359251976 0.622242689 0
vt 0.718503952 0 0
vt 0.718503952 1.24448538 0
vt 0.718503952 -1.24448538 0
vt -0.359251976 -0.622242689 0
vt -1.4370079 0 0
vt 0.466681987 7.16316462 0
vt 1.03750342e-13 -0.0269249678 0
vt 1.24448538 -0.0269249678 0
vt -1.24448538 -0.0269249678 0
vt -0.777803302 7.16316462 0
vt -0.155560672 7.16316462 0
vt -1.24448538 3.00971818 0
vt 1.24448538 3.00971818 0
vt 1.85436146e-08 5.21364689 0
vt 1.24448538 3.19988155 0
vt -1.64201985e-13 0.359822631 0
vt 1.24448538 0.359822631 0
vt -1.24448538 0.359822631 0
vt -1.24448538 3.19988155 0
vt 1.56041846e-13 0.359822631 0
vt 0.622242689 7.15148211 0
vt 0 -0.0537369251 0
vt 1.24448538 -0.0537369251 0
vt -5.68434189e-14 7.15148211 0
vt -1.24448538 -0.0537369251 0
vt -0.622242689 7.15148211 0
vt -6.45983515e-18 0.359822631 0
vt 0.777803302 7.16316462 0
vt -1.43551837e-13 -0.0269249678 0
vt -0.466681987 7.16316462 0
vt 0.155560672 7.16316462 0
vt 1.85436573e-08 5.21364689 0
vt 1.85444211e-08 5.21364689 0
vt 0.984251976 7.18503952 0
vt -0.984251976 11.515748 0
vt -0.984251976 7.18503952 0
vt 0.984251976 11.515748 0
vt -0.984251976 7.27868128 0
vt 1.61417317 11.2657642 0
vt -1.61417317 11.2657642 0
vt 0.984251976 7.27868128 0
vt 1.16387796 -0.984251976 0
vt -0.804625988 0.984251976 0
vt -0.804625988 -0.984251976 0
vt 1.16387796 0.984251976 0
vt 1.43454719 11.2373857 0
vt -1.16387796 7.25030231 0
vt 0.804625988 7.25030231 0
vt -1.79379916 11.2373857 0
vt 0.804625988 11.515748 0
vt -1.16387796 7.18503952 0
vt 0.804625988 7.18503952 0
vt -1.16387796 11.515748 0
vt 0.804625988 0.984251976 0
vt 0.179625988 0.622242689 0
vt 0.804625988 -0.984251976 0
vt -1.16387796 0.984251976 0
vt -0.359251976 0.311121345 0
vt -0.89812994 0 0
vt 0.179625988 -0.622242689 0
vt -1.16387796 -0.984251976 0
vt 0.179625988 0 0
vt -0.359251976 -0.311121345 0
vt -1.61417317 11.2090063 0
vt 0.984251976 7.22192287 0
vt 1.61417317 11.2090063 0
vt -0.984251976 7.22192287 0
vt 1.79379916 11.2373857 0
vt -0.804625988 7.25030231 0
vt 1.16387796 7.25030231 0
vt -1.43454719 11.2373857 0
vt 1.16387796 11.515748 0
vt -0.804625988 7.18503952 0
vt 1.16387796 7.18503952 0
vt -0.804625988 11.515748 0

# 29 vertex normals
vn 0 -1 0
vn 0.499648839 0.0374736637 -0.865417182
vn -0.222016707 0.89601022 -0.384544253
vn 0.222016707 -0.89601022 0.384544253
vn -0.432783186 0.500794291 0.749602497
vn 0.432783186 -0.500794291 -0.749602497
vn -0.432783186 0.500794291 -0.749602497
vn 0.432783186 -0.500794291 0.749602497
vn -0.997199297 0.0747899488 0
vn 0.865566373 0.500794232 0
vn -0.865566373 -0.500794232 -0
vn 0.499648839 0.0374736637 0.865417182
vn -0.222016707 0.89601022 0.384544253
vn 0.222016707 -0.89601022 -0.384544253
vn 0.444033414 0.89601022 0
vn -0.444033414 -0.89601022 -0
vn 1 0 0
vn 0.987440705 -0.157990515 0
vn -0.987440705 0.157990515 0
vn 0 1 0
vn 0 -0.157990515 -0.987440705
vn 0 0.157990515 0.987440705
vn 0 0 -1
vn -1 0 0
vn -0.987440705 -0.157990515 -0
vn 0.987440705 0.157990515 0
vn 0 -0.157990515 0.987440705
vn 0 0.157990515 -0.987440705
vn 0 0 1

# Mesh 'Mesh flower_redA-0' with 40 faces
g Mesh flower_redA-0
usemtl grass
f  1/1/1 2/2/1 3/3/1
f  2/2/1 1/1/1 4/4/1
f  4/4/1 1/1/1 5/5/1
f  5/5/1 1/1/1 6/6/1
f  7/7/2 1/8/2 3/9/2
f  1/8/2 7/7/2 6/10/2
f  6/10/2 7/7/2 8/11/2
f  8/11/2 7/7/2 9/12/2
f  10/13/3 11/14/3 12/15/3
f  12/15/4 11/14/4 10/13/4
f  13/16/5 1/17/5 6/18/5
f  1/17/5 13/16/5 3/19/5
f  3/19/5 13/16/5 14/20/5
f  6/18/6 1/17/6 13/16/6
f  3/19/6 13/16/6 1/17/6
f  14/20/6 13/16/6 3/19/6
f  11/16/7 5/21/7 4/18/7
f  5/21/7 11/16/7 6/19/7
f  6/19/7 11/16/7 10/20/7
f  4/18/8 5/21/8 11/16/8
f  6/19/8 11/16/8 5/21/8
f  10/20/8 11/16/8 6/19/8
f  15/22/9 2/23/9 4/24/9
f  2/23/9 15/22/9 16/25/9
f  2/23/9 16/25/9 3/26/9
f  3/26/9 16/25/9 7/27/9
f  2/28/10 17/20/10 4/19/10
f  17/20/10 2/28/10 18/16/10
f  18/16/10 2/28/10 3/18/10
f  4/19/11 17/20/11 2/28/11
f  18/16/11 2/28/11 17/20/11
f  3/18/11 2/28/11 18/16/11
f  8/29/12 5/30/12 6/9/12
f  5/30/12 8/29/12 4/10/12
f  4/10/12 8/29/12 15/31/12
f  15/31/12 8/29/12 19/32/12
f  13/14/13 20/33/13 14/13/13
f  14/13/14 20/33/14 13/14/14
f  18/14/15 21/34/15 17/13/15
f  17/13/16 21/34/16 18/14/16

# Mesh 'Mesh flower_redA-1' with 36 faces
g Mesh flower_redA-1
usemtl colorRed
f  22/35/17 23/36/17 24/37/17
f  23/36/17 22/35/17 25/38/17
f  24/39/18 26/40/18 27/41/18
f  26/40/18 24/39/18 22/42/18
f  27/41/19 26/40/19 24/39/19
f  22/42/19 24/39/19 26/40/19
f  23/43/20 28/44/20 29/45/20
f  28/44/20 23/43/20 25/46/20
f  30/47/21 22/48/21 31/49/21
f  22/48/21 30/47/21 26/50/21
f  31/49/22 22/48/22 30/47/22
f  26/50/22 30/47/22 22/48/22
f  28/51/23 22/52/23 31/53/23
f  22/52/23 28/51/23 25/54/23
f  28/36/24 32/35/24 29/38/24
f  32/35/24 28/36/24 31/37/24
f  31/55/1 7/56/1 32/57/1
f  7/56/1 31/55/1 22/58/1
f  7/56/1 22/58/1 9/59/1
f  9/59/1 22/58/1 8/60/1
f  15/61/1 32/57/1 7/56/1
f  32/57/1 15/61/1 24/62/1
f  24/62/1 8/60/1 22/58/1
f  15/61/1 7/56/1 16/63/1
f  24/62/1 15/61/1 19/64/1
f  24/62/1 19/64/1 8/60/1
f  30/65/25 32/66/25 33/67/25
f  32/66/25 30/65/25 31/68/25
f  33/67/26 32/66/26 30/65/26
f  31/68/26 30/65/26 32/66/26
f  27/69/27 32/70/27 24/71/27
f  32/70/27 27/69/27 33/72/27
f  24/71/28 32/70/28 27/69/28
f  33/72/28 27/69/28 32/70/28
f  23/73/29 32/74/29 24/75/29
f  32/74/29 23/73/29 29/76/29

