# File produced by Open Asset Import Library (http://www.assimp.sf.net)
# (assimp v5.3.0)

mtllib grass_large.mtl

# 144 vertex positions
v 0.0643701628 0.027837757 0.113287896
v 0.0862719044 -0.00367968157 0.153287902
v 0.0643701628 0.027837757 0.153287902
v 0.0862719044 -0.00367968157 0.113287896
v 0.0443701483 0.0364863984 0.153287902
v 0.0443701483 0.0364863984 0.113287896
v -0.0836558715 -0.0500000007 -0.169589892
v -0.0755576342 -0.0171125717 -0.129589885
v -0.0836558715 -0.0500000007 -0.129589885
v -0.0755576342 -0.0171125717 -0.169589892
v -0.0432746001 0.0456735678 0.00970788859
v -0.0832745954 -0.0500000007 0.00160964881
v -0.0432746001 -0.0500000007 0.00160965032
v -0.0832745954 0.0456735678 0.00970788859
v -0.140734255 0.0484059937 -0.0590773113
v -0.118832462 0.00856022537 -0.0190773103
v -0.140734255 0.0484059937 -0.0190773103
v -0.118832462 0.00856022537 -0.0590773113
v -0.0202707723 0.0484059937 0.137386009
v -0.0602707677 0.0593399964 0.157386005
v -0.0602707677 0.0484059937 0.137386009
v -0.0202707723 0.0593399964 0.157386005
v 0.181497633 -0.00367968157 -0.0885113701
v 0.141497642 -0.0500000007 -0.0966096148
v 0.181497633 -0.0500000007 -0.0966096148
v 0.141497642 -0.00367968157 -0.0885113701
v 0.148686036 0.0701200068 -0.212095484
v 0.128686041 0.0581079982 -0.172095492
v 0.128686041 0.0581079982 -0.212095484
v 0.148686036 0.0701200068 -0.172095492
v 0.181497633 0.027837757 -0.0666096061
v 0.141497642 0.027837757 -0.0666096061
v 0.0539888665 0.178599998 -0.0479116328
v 0.0939888805 0.0860370994 -0.0260098707
v 0.0539888665 0.0860370994 -0.0260098707
v 0.0939888805 0.178599998 -0.0479116328
v -0.0197019111 0.129999995 -0.0962283313
v 0.00219984865 0.0571158044 -0.0562283322
v -0.0197019111 0.129999995 -0.0562283322
v 0.00219984865 0.0571158044 -0.0962283313
v 0.030985048 0.0886000097 -0.153687984
v 0.0709850416 0.0324791856 -0.131786183
v 0.030985048 0.0324791856 -0.131786183
v 0.0709850416 0.0886000097 -0.153687984
v 0.141497642 0.0364863984 -0.0466096103
v 0.181497633 0.0364863984 -0.0466096103
v -0.0432746001 0.110772103 0.0316096507
v -0.0832745954 0.128635705 0.0516096503
v -0.0832745954 0.110772103 0.0316096507
v -0.0432746001 0.128635705 0.0516096503
v 0.0986860469 -0.0500000007 -0.212095484
v 0.106784239 0.0143337734 -0.172095492
v 0.098686032 -0.0500000007 -0.172095492
v 0.106784239 0.0143337734 -0.212095484
v 0.0709850416 0.104000002 -0.173687994
v 0.030985048 0.104000002 -0.173687994
v 0.0102980901 -0.0500000007 -0.0562283322
v 0.0102980901 -0.0500000007 -0.0962283313
v 0.121448532 -0.0500000007 0.0027753287
v 0.129546747 0.0324791856 0.0427753292
v 0.121448532 -0.0500000007 0.0427753292
v 0.129546747 0.0324791856 0.0027753287
v -0.0336558707 0.0114053413 -0.169589892
v -0.0536558814 0.00526481122 -0.129589885
v -0.0536558814 0.00526481122 -0.169589892
v -0.0336558707 0.0114053413 -0.129589885
v 0.0709850416 -0.0500000007 -0.12368799
v 0.030985048 -0.0500000007 -0.12368799
v -0.117971756 0.0267566778 0.155793503
v -0.0960699618 -0.0043230243 0.195793495
v -0.117971756 0.0267566778 0.195793495
v -0.0960699618 -0.0043230243 0.155793503
v 0.0943701491 -0.0500000007 0.153287902
v 0.0943701491 -0.0500000007 0.113287896
v -0.199141771 0.0267566778 -0.116778284
v -0.159141764 -0.0043230243 -0.0948765576
v -0.199141771 -0.0043230243 -0.0948765576
v -0.159141764 0.0267566778 -0.116778284
v 0.00851442665 0.0465863533 0.0399263464
v 0.0304161869 0.112305999 0.0799263492
v 0.00851442572 0.0465863533 0.0799263492
v 0.0304161869 0.112305999 0.0399263464
v 0.151448548 0.0886000097 0.0427753292
v 0.151448548 0.0886000097 0.0027753287
v -0.0202707723 0.00856022537 0.115484208
v -0.0602707677 -0.0500000007 0.107386008
v -0.0202707723 -0.0500000007 0.107386008
v -0.0602707677 0.00856022537 0.115484208
v 0.209856063 0.0143337734 0.078574568
v 0.169856042 -0.0500000007 0.0704763234
v 0.209856063 -0.0500000007 0.0704763234
v 0.169856042 0.0143337734 0.078574568
v 0.209856063 0.0581079982 0.100476302
v 0.169856042 0.0581079982 0.100476302
v -0.170783356 -0.0171125717 0.0722093955
v -0.130783349 -0.0500000007 0.0803076252
v -0.170783356 -0.0500000007 0.0803076252
v -0.130783349 -0.0171125717 0.0722093955
v 0.0939888805 -0.0500000007 -0.0179116298
v 0.0539888665 -0.0500000007 -0.0179116298
v 0.171448529 0.104000002 0.0027753287
v 0.171448529 0.104000002 0.0427753292
v -0.0951553658 -0.0157720521 -0.169589892
v -0.0951553658 -0.0157720521 -0.129589885
v 0.000416185707 -0.0500000007 0.0399263464
v 0.000416185707 -0.0500000007 0.0799263492
v 0.0539888665 0.204000011 -0.0679116324
v 0.0939888805 0.204000011 -0.0679116324
v 0.169856042 0.0701200068 0.120476305
v 0.209856063 0.0701200068 0.120476305
v -0.159141764 0.0352852009 -0.136778295
v -0.199141771 0.0352852009 -0.136778295
v 0.0939888805 0.0660094023 0.042088367
v 0.0539888665 0.0190357976 -0.00171514973
v 0.0939888805 0.0190357976 -0.00171514973
v 0.0539888665 0.0660094023 0.042088367
v -0.130783349 0.0114053413 0.0303076282
v -0.170783356 0.00526481122 0.0503076315
v -0.170783356 0.0114053413 0.0303076282
v -0.130783349 0.00526481122 0.0503076315
v 0.102468379 -0.0124805532 0.113287896
v 0.124370135 0.013048593 0.153287902
v 0.102468379 -0.0124805532 0.153287902
v 0.124370135 0.013048593 0.113287896
v 0.0504161865 0.13034001 0.0399263464
v 0.0504161865 0.13034001 0.0799263492
v -0.110734254 -0.0500000007 -0.0190773103
v -0.110734254 -0.0500000007 -0.0590773113
v -0.0879717767 -0.0500000007 0.195793495
v -0.0879717767 -0.0500000007 0.155793503
v -0.0432746001 0.0277262889 -0.0583903491
v -0.0832745954 -0.00374602526 -0.0145868324
v -0.0832745954 0.0277262889 -0.0583903491
v -0.0432746001 -0.00374602526 -0.0145868324
v -0.137971759 0.0352852009 0.195793495
v -0.137971759 0.0352852009 0.155793503
v -0.160734251 0.0593399964 -0.0190773103
v -0.160734251 0.0593399964 -0.0590773113
v -0.0397019088 0.150000006 -0.0962283313
v -0.0397019088 0.150000006 -0.0562283322
v -0.159141764 -0.0500000007 -0.0867783055
v -0.199141771 -0.0500000007 -0.0867783055
v -0.126255855 0.00751746073 -0.129589885
v -0.126255855 0.00751746073 -0.169589892

# 224 UV coordinates
vt 4.46015358 1.07034063 0
vt 6.03495693 -0.440688729 0
vt 6.03495693 1.07034063 0
vt 4.46015358 -0.440688729 0
vt 4.46015358 -1.10976315 0
vt 6.03495693 -0.251893401 0
vt 4.46015358 -0.251893401 0
vt 6.03495693 -1.10976315 0
vt 6.67676735 -0.787481666 0
vt 5.101964 0.545975685 0
vt 5.101964 -0.787481666 0
vt 6.67676735 0.545975685 0
vt -1.70372438 3.78549027 0
vt -3.2785275 0.00534498692 0
vt -1.70372438 0.00534498692 0
vt -3.2785275 3.78549027 0
vt -2.32587838 6.06408739 0
vt -0.751075208 4.27399302 0
vt -0.751075208 6.06408739 0
vt -2.32587838 4.27399302 0
vt -0.798061907 6.60441637 0
vt -2.37286496 7.50180578 0
vt -2.37286496 6.60441637 0
vt -0.798061907 7.50180578 0
vt 7.14557648 1.19625545 0
vt 5.57077312 -0.655039907 0
vt 7.14557648 -0.655039907 0
vt 5.57077312 1.19625545 0
vt 8.35021591 7.45315504 0
vt 6.77541304 6.53465128 0
vt 8.35021591 6.53465128 0
vt 6.77541304 7.45315504 0
vt 7.14557648 1.02002668 0
vt 5.57077312 -0.491003036 0
vt 7.14557648 -0.491003036 0
vt 5.57077312 1.02002668 0
vt -2.12554598 9.19249916 0
vt -3.70034957 5.44766617 0
vt -2.12554598 5.44766617 0
vt -3.70034957 9.19249916 0
vt -3.788517 7.01003599 0
vt -2.21371388 4.01382256 0
vt -2.21371388 7.01003599 0
vt -3.788517 4.01382256 0
vt -1.2198838 7.28307867 0
vt -2.79468679 4.91130209 0
vt -1.2198838 4.91130209 0
vt -2.79468679 7.28307867 0
vt 7.14557648 -1.19068766 0
vt 5.57077312 -0.332818151 0
vt 5.57077312 -1.19068766 0
vt 7.14557648 -0.332818151 0
vt -1.70372438 5.14462042 0
vt -3.2785275 6.20037603 0
vt -3.2785275 5.14462042 0
vt -1.70372438 6.20037603 0
vt 8.35021687 0.485240936 0
vt 6.77541351 3.03805447 0
vt 6.77541351 0.485240936 0
vt 8.35021687 3.03805447 0
vt -2.79468679 9.11702728 0
vt -1.2198838 8.12324715 0
vt -1.2198838 9.11702728 0
vt -2.79468679 8.12324715 0
vt 8.35021591 4.14626551 0
vt 6.77541304 6.07333803 0
vt 6.77541304 4.14626551 0
vt 8.35021591 6.07333803 0
vt -1.70372438 6.39601421 0
vt -3.2785275 3.69191575 0
vt -1.70372438 3.69191575 0
vt -3.2785275 6.39601421 0
vt -3.788517 4.19862795 0
vt -2.21371388 -0.0305649042 0
vt -2.21371388 4.19862795 0
vt -3.788517 -0.0305649042 0
vt -0.10926491 0.46721828 0
vt -1.68406808 3.73004484 0
vt -1.68406808 0.46721828 0
vt -0.10926491 3.73004484 0
vt 6.67676735 -0.557120681 0
vt 5.101964 -1.38079929 0
vt 6.67676735 -1.38079929 0
vt 5.101964 -0.557120681 0
vt -1.2198838 3.73865962 0
vt -2.79468679 0.47583288 0
vt -1.2198838 0.47583288 0
vt -2.79468679 3.73865962 0
vt 6.13360262 5.14562225 0
vt 7.70840549 3.64871192 0
vt 7.70840549 5.14562225 0
vt 6.13360262 3.64871192 0
vt 4.46015358 1.21143973 0
vt 6.03495693 -0.639855742 0
vt 6.03495693 1.21143973 0
vt 4.46015358 -0.639855742 0
vt 7.84022713 5.11855316 0
vt 6.26542377 3.62164426 0
vt 7.84022713 3.62164426 0
vt 6.26542377 5.11855316 0
vt -1.57190347 3.7135365 0
vt -3.14670682 6.44082308 0
vt -3.14670682 3.7135365 0
vt -1.57190347 6.44082308 0
vt -0.10926491 4.87924814 0
vt -1.68406808 7.25102472 0
vt -1.68406808 4.87924814 0
vt -0.10926491 7.25102472 0
vt -0.798061907 2.90660477 0
vt -2.37286496 0.579143405 0
vt -0.798061907 0.579143405 0
vt -2.37286496 2.90660477 0
vt 6.67676735 -1.1553936 0
vt 5.101964 0.0773575902 0
vt 5.101964 -1.1553936 0
vt 6.67676735 0.0773575902 0
vt 8.26204967 2.89934897 0
vt 6.68724585 0.346535444 0
vt 8.26204967 0.346535444 0
vt 6.68724585 2.89934897 0
vt 8.26204967 5.5763855 0
vt 6.68724585 3.64931417 0
vt 8.26204967 3.64931417 0
vt 6.68724585 5.5763855 0
vt 6.72375441 0.577493846 0
vt 5.14895105 -0.755963564 0
vt 6.72375441 -0.755963564 0
vt 5.14895105 0.577493846 0
vt -0.798061907 6.00058985 0
vt -2.37286496 4.21049595 0
vt -0.798061907 4.21049595 0
vt -2.37286496 6.00058985 0
vt -2.12554598 5.40717793 0
vt -3.70034957 0.0419050455 0
vt -2.12554598 0.0419050455 0
vt -3.70034957 5.40717793 0
vt -0.10926491 9.04716969 0
vt -1.68406808 8.05338955 0
vt -0.10926491 8.05338955 0
vt -1.68406808 9.04716969 0
vt -6.67676735 2.47048473 0
vt -5.101964 1.04890823 0
vt -5.101964 2.47048473 0
vt -6.67676735 1.04890823 0
vt -1.57190347 0.00136899948 0
vt -3.14670682 3.81732392 0
vt -3.14670682 0.00136899948 0
vt -1.57190347 3.81732392 0
vt -2.12554598 9.51078987 0
vt -3.70034957 8.23799706 0
vt -2.12554598 8.23799706 0
vt -3.70034957 9.51078987 0
vt 8.26204967 5.58255529 0
vt 6.68724585 6.50105858 0
vt 6.68724585 5.58255529 0
vt 8.26204967 6.50105858 0
vt 6.26542377 6.27046633 0
vt 7.84022713 5.41446304 0
vt 7.84022713 6.27046633 0
vt 6.26542377 5.41446304 0
vt 3.70034957 4.47039938 0
vt 2.12554598 1.94172835 0
vt 3.70034957 1.94172835 0
vt 2.12554598 4.47039938 0
vt 5.14895105 -0.431105375 0
vt 6.72375441 -1.25478363 0
vt 6.72375441 -0.431105375 0
vt 5.14895105 -1.25478363 0
vt -4.46015358 3.74787712 0
vt -6.03495693 5.07215405 0
vt -6.03495693 3.74787712 0
vt -4.46015358 5.07215405 0
vt -1.57190347 6.22871065 0
vt -3.14670682 5.1684742 0
vt -1.57190347 5.1684742 0
vt -3.14670682 6.22871065 0
vt -2.32587838 2.92466307 0
vt -0.751075208 0.597201705 0
vt -0.751075208 2.92466307 0
vt -2.32587838 0.597201705 0
vt 6.13360262 2.43096662 0
vt 7.70840549 0.604616284 0
vt 7.70840549 2.43096662 0
vt 6.13360262 0.604616284 0
vt -4.46015358 0.783875883 0
vt -6.03495693 2.29503608 0
vt -6.03495693 0.783875883 0
vt -4.46015358 2.29503608 0
vt 1.70372438 3.65246916 0
vt 3.2785275 1.52894521 0
vt 3.2785275 3.65246916 0
vt 1.70372438 1.52894521 0
vt 6.13360262 5.45768452 0
vt 7.70840549 6.3136878 0
vt 6.13360262 6.3136878 0
vt 7.70840549 5.45768452 0
vt -2.32587838 6.72008133 0
vt -0.751075208 7.61747026 0
vt -2.32587838 7.61747026 0
vt -0.751075208 6.72008133 0
vt 3.2785275 1.908494 0
vt 1.70372438 -0.0209437609 0
vt 3.2785275 -0.0209437609 0
vt 1.7037245 1.90849411 0
vt 3.70034957 2.63067389 0
vt 2.12554598 -0.161069393 0
vt 3.70034957 -0.161069393 0
vt 2.12554598 2.63067389 0
vt 6.72375441 0.169561744 0
vt 5.14895105 -1.06318998 0
vt 6.72375441 -1.06318998 0
vt 5.14895105 0.169561744 0
vt -3.788517 6.67302608 0
vt -2.21371388 5.55947208 0
vt -2.21371388 6.67302608 0
vt -3.788517 5.55947208 0
vt 7.84022713 2.42276835 0
vt 6.26542377 0.596417606 0
vt 7.84022713 0.596417606 0
vt 6.26542377 2.42276835 0
vt -6.67676735 3.80641627 0
vt -5.101964 5.33610582 0
vt -6.67676735 5.33610582 0
vt -5.101964 3.80641627 0

# 112 vertex normals
vn -0.821191251 -0.5706532 -0
vn 0.821191251 0.5706532 0
vn -0.396910638 -0.91785717 -0
vn 0.396910638 0.91785717 0
vn 0.970995188 -0.239098981 0
vn -0.970995188 0.239098981 0
vn 0 -0.084342882 0.996436834
vn 0 0.084342882 -0.996436834
vn -0.876340091 -0.48169288 -0
vn 0.876340091 0.48169288 0
vn 0 -0.877435744 0.479694128
vn 0 0.877435744 -0.479694128
vn 0 -0.172219023 0.985058665
vn 0 0.172219023 -0.985058665
vn 0.514873981 -0.85726589 0
vn -0.514873981 0.85726589 0
vn 0 -0.570653319 0.821191072
vn 0 0.570653319 -0.821191072
vn 0 -0.230257019 -0.973129869
vn 0 0.230257019 0.973129869
vn -0.957694173 -0.287787914 -0
vn 0.957694173 0.287787914 0
vn 0 -0.363556832 -0.93157208
vn 0 0.363556832 0.93157208
vn 0 -0.91785717 0.396910787
vn 0 0.91785717 -0.396910787
vn 0 -0.74581784 0.666149855
vn 0 0.74581784 -0.666149855
vn 0.992170393 -0.124892272 0
vn -0.992170393 0.124892272 0
vn 0 -0.79232949 -0.610093296
vn 0 0.79232949 0.610093296
vn 0.894307137 -0.447453618 0
vn -0.894307137 0.447453618 0
vn 0 -0.318876714 0.947796226
vn 0 0.318876714 -0.947796226
vn -0.997154355 -0.0753875375 -0
vn 0.997154355 0.0753875375 0
vn 0.995214462 -0.0977150053 0
vn -0.995214462 0.0977150053 0
vn 0.293504208 -0.95595777 0
vn -0.293504208 0.95595777 0
vn 0 -0.0977148712 -0.995214462
vn 0 0.0977148712 0.995214462
vn -0.817423761 -0.576036751 -0
vn 0.817423761 0.576036751 0
vn -0.985058665 -0.172219023 -0
vn 0.985058665 0.172219023 0
vn 0 -0.576035619 -0.817424595
vn 0 0.576035619 0.817424595
vn 0.948704004 -0.316165596 0
vn -0.948704004 0.316165596 0
vn 0.93157208 -0.363556832 0
vn -0.93157208 0.363556832 0
vn 0 -0.136984721 0.990573108
vn 0 0.136984721 -0.990573108
vn 0.714661062 -0.699470818 0
vn -0.714661062 0.699470818 0
vn 0 -0.12489298 0.992170274
vn 0 0.12489298 -0.992170274
vn 0 -0.447452515 0.894307673
vn 0 0.447452515 -0.894307673
vn 0 -0.239098981 -0.970995188
vn 0 0.239098981 0.970995188
vn 0 -0.48169288 0.876340091
vn 0 0.48169288 -0.876340091
vn 0 -0.0594244413 -0.998232841
vn 0 0.0594244413 0.998232841
vn 0.610093534 -0.792329431 0
vn -0.610093534 0.792329431 0
vn -0.947931409 -0.318474621 -0
vn 0.947931409 0.318474621 0
vn 0.996503472 -0.083551392 0
vn -0.996503472 0.083551392 0
vn 0 -0.618640959 -0.785673797
vn 0 0.618640959 0.785673797
vn 0 -0.85726589 0.514873981
vn 0 0.85726589 -0.514873981
vn 0 -0.919858098 -0.392251253
vn 0 0.919858098 0.392251253
vn 0 -0.681997716 0.731354296
vn 0 0.681997716 -0.731354296
vn 0 -0.95595777 -0.293504357
vn 0 0.95595777 0.293504357
vn 0.758968174 -0.651127756 0
vn -0.758968174 0.651127756 0
vn 0.669662118 -0.742665946 0
vn -0.669662118 0.742665946 0
vn -0.990573108 -0.136984929 -0
vn 0.990573108 0.136984929 0
vn -0.984644711 -0.174570218 -0
vn 0.984644711 0.174570218 0
vn 0.977489889 -0.210982502 0
vn -0.977489889 0.210982502 0
vn 0 -0.812116086 -0.583495915
vn 0 0.812116086 0.583495915
vn -0.392251253 -0.919858098 -0
vn 0.392251253 0.919858098 0
vn -0.479694307 -0.877435684 -0
vn 0.479694307 0.877435684 0
vn 0 -0.330488384 -0.943810046
vn 0 0.330488384 0.943810046
vn 0 -0.228408098 0.973565459
vn 0 0.228408098 -0.973565459
vn 0 -0.699471116 -0.714660883
vn 0 0.699471116 0.714660883
vn -0.707106888 -0.70710665 -0
vn 0.707106888 0.70710665 0
vn 0 -0.17457135 -0.984644532
vn 0 0.17457135 0.984644532
vn -0.599409163 -0.800442815 -0
vn 0.599409163 0.800442815 0

# Mesh 'Mesh grass_large' with 224 faces
g Mesh grass_large
usemtl grass
f  1/1/1 2/2/1 3/3/1
f  2/2/1 1/1/1 4/4/1
f  3/3/2 2/2/2 1/1/2
f  4/4/2 1/1/2 2/2/2
f  1/5/3 5/6/3 6/7/3
f  5/6/3 1/5/3 3/8/3
f  6/7/4 5/6/4 1/5/4
f  3/8/4 1/5/4 5/6/4
f  7/9/5 8/10/5 9/11/5
f  8/10/5 7/9/5 10/12/5
f  9/11/6 8/10/6 7/9/6
f  10/12/6 7/9/6 8/10/6
f  11/13/7 12/14/7 13/15/7
f  12/14/7 11/13/7 14/16/7
f  13/15/8 12/14/8 11/13/8
f  14/16/8 11/13/8 12/14/8
f  15/17/9 16/18/9 17/19/9
f  16/18/9 15/17/9 18/20/9
f  17/19/10 16/18/10 15/17/10
f  18/20/10 15/17/10 16/18/10
f  19/21/11 20/22/11 21/23/11
f  20/22/11 19/21/11 22/24/11
f  21/23/12 20/22/12 19/21/12
f  22/24/12 19/21/12 20/22/12
f  23/25/13 24/26/13 25/27/13
f  24/26/13 23/25/13 26/28/13
f  25/27/14 24/26/14 23/25/14
f  26/28/14 23/25/14 24/26/14
f  27/29/15 28/30/15 29/31/15
f  28/30/15 27/29/15 30/32/15
f  29/31/16 28/30/16 27/29/16
f  30/32/16 27/29/16 28/30/16
f  31/33/17 26/34/17 23/35/17
f  26/34/17 31/33/17 32/36/17
f  23/35/18 26/34/18 31/33/18
f  32/36/18 31/33/18 26/34/18
f  33/37/19 34/38/19 35/39/19
f  34/38/19 33/37/19 36/40/19
f  35/39/20 34/38/20 33/37/20
f  36/40/20 33/37/20 34/38/20
f  37/41/21 38/42/21 39/43/21
f  38/42/21 37/41/21 40/44/21
f  39/43/22 38/42/22 37/41/22
f  40/44/22 37/41/22 38/42/22
f  41/45/23 42/46/23 43/47/23
f  42/46/23 41/45/23 44/48/23
f  43/47/24 42/46/24 41/45/24
f  44/48/24 41/45/24 42/46/24
f  31/49/25 45/50/25 32/51/25
f  45/50/25 31/49/25 46/52/25
f  32/51/26 45/50/26 31/49/26
f  46/52/26 31/49/26 45/50/26
f  47/53/27 48/54/27 49/55/27
f  48/54/27 47/53/27 50/56/27
f  49/55/28 48/54/28 47/53/28
f  50/56/28 47/53/28 48/54/28
f  51/57/29 52/58/29 53/59/29
f  52/58/29 51/57/29 54/60/29
f  53/59/30 52/58/30 51/57/30
f  54/60/30 51/57/30 52/58/30
f  55/61/31 41/62/31 56/63/31
f  41/62/31 55/61/31 44/64/31
f  56/63/32 41/62/32 55/61/32
f  44/64/32 55/61/32 41/62/32
f  54/65/33 28/66/33 52/67/33
f  28/66/33 54/65/33 29/68/33
f  52/67/34 28/66/34 54/65/34
f  29/68/34 54/65/34 28/66/34
f  47/69/35 14/70/35 11/71/35
f  14/70/35 47/69/35 49/72/35
f  11/71/36 14/70/36 47/69/36
f  49/72/36 47/69/36 14/70/36
f  40/73/37 57/74/37 38/75/37
f  57/74/37 40/73/37 58/76/37
f  38/75/38 57/74/38 40/73/38
f  58/76/38 40/73/38 57/74/38
f  59/77/39 60/78/39 61/79/39
f  60/78/39 59/77/39 62/80/39
f  61/79/40 60/78/40 59/77/40
f  62/80/40 59/77/40 60/78/40
f  63/81/41 64/82/41 65/83/41
f  64/82/41 63/81/41 66/84/41
f  65/83/42 64/82/42 63/81/42
f  66/84/42 63/81/42 64/82/42
f  43/85/43 67/86/43 68/87/43
f  67/86/43 43/85/43 42/88/43
f  68/87/44 67/86/44 43/85/44
f  42/88/44 43/85/44 67/86/44
f  69/89/45 70/90/45 71/91/45
f  70/90/45 69/89/45 72/92/45
f  71/91/46 70/90/46 69/89/46
f  72/92/46 69/89/46 70/90/46
f  4/93/47 73/94/47 2/95/47
f  73/94/47 4/93/47 74/96/47
f  2/95/48 73/94/48 4/93/48
f  74/96/48 4/93/48 73/94/48
f  75/97/49 76/98/49 77/99/49
f  76/98/49 75/97/49 78/100/49
f  77/99/50 76/98/50 75/97/50
f  78/100/50 75/97/50 76/98/50
f  79/101/51 80/102/51 81/103/51
f  80/102/51 79/101/51 82/104/51
f  81/103/52 80/102/52 79/101/52
f  82/104/52 79/101/52 80/102/52
f  62/105/53 83/106/53 60/107/53
f  83/106/53 62/105/53 84/108/53
f  60/107/54 83/106/54 62/105/54
f  84/108/54 62/105/54 83/106/54
f  85/109/55 86/110/55 87/111/55
f  86/110/55 85/109/55 88/112/55
f  87/111/56 86/110/56 85/109/56
f  88/112/56 85/109/56 86/110/56
f  10/113/57 64/114/57 8/115/57
f  64/114/57 10/113/57 65/116/57
f  8/115/58 64/114/58 10/113/58
f  65/116/58 10/113/58 64/114/58
f  89/117/59 90/118/59 91/119/59
f  90/118/59 89/117/59 92/120/59
f  91/119/60 90/118/60 89/117/60
f  92/120/60 89/117/60 90/118/60
f  93/121/61 92/122/61 89/123/61
f  92/122/61 93/121/61 94/124/61
f  89/123/62 92/122/62 93/121/62
f  94/124/62 93/121/62 92/122/62
f  95/125/63 96/126/63 97/127/63
f  96/126/63 95/125/63 98/128/63
f  97/127/64 96/126/64 95/125/64
f  98/128/64 95/125/64 96/126/64
f  19/129/65 88/130/65 85/131/65
f  88/130/65 19/129/65 21/132/65
f  85/131/66 88/130/66 19/129/66
f  21/132/66 19/129/66 88/130/66
f  35/133/67 99/134/67 100/135/67
f  99/134/67 35/133/67 34/136/67
f  100/135/68 99/134/68 35/133/68
f  34/136/68 35/133/68 99/134/68
f  101/137/69 83/138/69 84/139/69
f  83/138/69 101/137/69 102/140/69
f  84/139/70 83/138/70 101/137/70
f  102/140/70 101/137/70 83/138/70
f  103/141/71 9/142/71 104/143/71
f  9/142/71 103/141/71 7/144/71
f  104/143/72 9/142/72 103/141/72
f  7/144/72 103/141/72 9/142/72
f  105/145/73 81/146/73 106/147/73
f  81/146/73 105/145/73 79/148/73
f  106/147/74 81/146/74 105/145/74
f  79/148/74 105/145/74 81/146/74
f  107/149/75 36/150/75 33/151/75
f  36/150/75 107/149/75 108/152/75
f  33/151/76 36/150/76 107/149/76
f  108/152/76 107/149/76 36/150/76
f  93/153/77 109/154/77 94/155/77
f  109/154/77 93/153/77 110/156/77
f  94/155/78 109/154/78 93/153/78
f  110/156/78 93/153/78 109/154/78
f  111/157/79 75/158/79 112/159/79
f  75/158/79 111/157/79 78/160/79
f  112/159/80 75/158/80 111/157/80
f  78/160/80 111/157/80 75/158/80
f  113/161/81 114/162/81 115/163/81
f  114/162/81 113/161/81 116/164/81
f  115/163/82 114/162/82 113/161/82
f  116/164/82 113/161/82 114/162/82
f  117/165/83 118/166/83 119/167/83
f  118/166/83 117/165/83 120/168/83
f  119/167/84 118/166/84 117/165/84
f  120/168/84 117/165/84 118/166/84
f  121/169/85 122/170/85 123/171/85
f  122/170/85 121/169/85 124/172/85
f  123/171/86 122/170/86 121/169/86
f  124/172/86 121/169/86 122/170/86
f  125/173/87 80/174/87 82/175/87
f  80/174/87 125/173/87 126/176/87
f  82/175/88 80/174/88 125/173/88
f  126/176/88 125/173/88 80/174/88
f  18/177/89 127/178/89 16/179/89
f  127/178/89 18/177/89 128/180/89
f  16/179/90 127/178/90 18/177/90
f  128/180/90 18/177/90 127/178/90
f  72/181/91 129/182/91 70/183/91
f  129/182/91 72/181/91 130/184/91
f  70/183/92 129/182/92 72/181/92
f  130/184/92 72/181/92 129/182/92
f  74/185/93 123/186/93 73/187/93
f  123/186/93 74/185/93 121/188/93
f  73/187/94 123/186/94 74/185/94
f  121/188/94 74/185/94 123/186/94
f  131/189/95 132/190/95 133/191/95
f  132/190/95 131/189/95 134/192/95
f  133/191/96 132/190/96 131/189/96
f  134/192/96 131/189/96 132/190/96
f  69/193/97 135/194/97 136/195/97
f  135/194/97 69/193/97 71/196/97
f  136/195/98 135/194/98 69/193/98
f  71/196/98 69/193/98 135/194/98
f  15/197/99 137/198/99 138/199/99
f  137/198/99 15/197/99 17/200/99
f  138/199/100 137/198/100 15/197/100
f  17/200/100 15/197/100 137/198/100
f  132/201/101 13/202/101 12/203/101
f  13/202/101 132/201/101 134/204/101
f  12/203/102 13/202/102 132/201/102
f  134/204/102 132/201/102 13/202/102
f  115/205/103 100/206/103 99/207/103
f  100/206/103 115/205/103 114/208/103
f  99/207/104 100/206/104 115/205/104
f  114/208/104 115/205/104 100/206/104
f  118/209/105 98/210/105 95/211/105
f  98/210/105 118/209/105 120/212/105
f  95/211/106 98/210/106 118/209/106
f  120/212/106 118/209/106 98/210/106
f  139/213/107 39/214/107 140/215/107
f  39/214/107 139/213/107 37/216/107
f  140/215/108 39/214/108 139/213/108
f  37/216/108 139/213/108 39/214/108
f  77/217/109 141/218/109 142/219/109
f  141/218/109 77/217/109 76/220/109
f  142/219/110 141/218/110 77/217/110
f  76/220/110 77/217/110 141/218/110
f  103/221/111 143/222/111 144/223/111
f  143/222/111 103/221/111 104/224/111
f  144/223/112 143/222/112 103/221/112
f  104/224/112 103/221/112 143/222/112

