# File produced by Open Asset Import Library (http://www.assimp.sf.net)
# (assimp v5.3.0)

mtllib grass_leafsLarge.mtl

# 120 vertex positions
v -0.00712426519 0.0174999945 -0.143688038
v -0.10715019 -0.0500000007 -0.0964380503
v -0.0162175316 -0.0500000007 -0.148938045
v -0.10715019 0.0174999945 -0.0859380513
v 0.0340569504 -0.00679999962 0.0794831067
v 0.0970569476 -0.0500000007 0.170415774
v 0.0918069482 -0.00679999962 0.179509044
v 0.044556953 -0.0500000007 0.0794831067
v 0.141945481 0.0174999945 0.199911118
v 0.0316954777 -0.0500000007 0.190817863
v 0.136695489 -0.0500000007 0.190817863
v 0.0264454782 0.0174999945 0.199911118
v 0.196736082 -0.00679999962 0.132808954
v 0.188651085 0.0411999933 0.194825023
v 0.138986096 -0.00679999962 0.232834861
v 0.0313134827 0.0174999945 -0.183595374
v 0.0313134827 0.0174999945 -0.0680953786
v 0.0073072589 0.0925000012 -0.125845388
v 0.0841954798 0.0925000012 0.223917335
v 0.194865882 0.0925000012 -0.084023051
v 0.132849798 0.0174999945 -0.075938046
v 0.232875735 0.0174999945 -0.133688048
v -0.153441951 -0.00679999962 -0.0130622555
v -0.211191952 -0.00679999962 0.0869636759
v -0.203106955 0.0411999933 0.0249476004
v -0.136046812 0.0174999945 0.244245991
v -0.226979479 -0.0500000007 0.181245998
v -0.136046812 -0.0500000007 0.233746007
v -0.236072749 0.0174999945 0.186496004
v -0.198062897 0.0925000012 0.236160994
v 0.123602808 -0.0500000007 0.0983748063
v 0.0763528049 0.0174999945 -0.0016511284
v 0.134102806 0.0174999945 0.0983748063
v 0.0711028054 -0.0500000007 0.00744213816
v 0.0421419479 0.0411999933 0.141499192
v -0.0984599516 0.0411999933 0.179082662
v -0.160476029 -0.00679999962 0.187167659
v -0.0604500994 -0.00679999962 0.129417658
v 0.134260923 -0.00679999962 0.0287671871
v 0.22519359 -0.0500000007 0.0917671844
v 0.134260923 -0.0500000007 0.0392671898
v 0.23428686 -0.00679999962 0.086517185
v 0.127312273 0.0174999945 -0.233062252
v 0.21824494 -0.0500000007 -0.170062259
v 0.127312273 -0.0500000007 -0.222562253
v 0.22733821 0.0174999945 -0.175312251
v -0.112687722 0.0174999945 -0.243062243
v -0.0217550546 -0.0500000007 -0.180062249
v -0.112687722 -0.0500000007 -0.232562259
v -0.0126617886 0.0174999945 -0.185312256
v 0.0363995843 0.0411999933 -0.0213897675
v -0.0016102707 -0.00679999962 -0.0710547641
v 0.0984156579 -0.00679999962 -0.0133047681
v -0.188284442 -0.00679999962 -0.12823391
v -0.0882585049 -0.0500000007 -0.175483912
v -0.179191172 -0.0500000007 -0.122983903
v -0.0882585049 -0.00679999962 -0.185983911
v -0.0506716445 0.0925000012 -0.234977245
v -0.100542575 -0.0500000007 0.00515273726
v -0.0375425816 -0.00679999962 -0.0857799351
v -0.0952925757 -0.00679999962 0.0142460037
v -0.0480425805 -0.0500000007 -0.0857799351
v 0.202457413 -0.00679999962 -0.0757799298
v 0.194372416 0.0411999933 -0.0137638506
v 0.144707426 -0.00679999962 0.0242460035
v 0.132849798 -0.0500000007 -0.0864380524
v 0.223782465 -0.0500000007 -0.138938054
v -0.0400480181 0.0174999945 0.0792791247
v -0.0160417948 0.0925000012 0.137029126
v -0.0400480181 0.0174999945 0.194779128
v -0.208686516 0.0174999945 -0.19359538
v -0.199593246 -0.0500000007 -0.083345376
v -0.208686516 0.0174999945 -0.0780953765
v -0.199593246 -0.0500000007 -0.188345373
v 0.0897254124 0.0411999933 -0.167898908
v 0.151741505 -0.00679999962 -0.175983906
v 0.051715564 -0.00679999962 -0.118233904
v 0.0447286032 0.0174999945 0.00388639397
v -0.0130213983 0.0174999945 0.103912324
v -0.00493639661 0.0925000012 0.0418962501
v -0.200691953 -0.0500000007 0.0869636759
v -0.148191959 -0.0500000007 -0.00396898808
v 0.196277007 0.0411999933 0.0368521884
v -0.0451341197 0.0411999933 0.0325735174
v -0.00712426519 -0.00679999962 0.0822385177
v -0.10715019 -0.00679999962 0.0244885162
v 0.133736089 -0.0500000007 0.223741591
v 0.186236084 -0.0500000007 0.132808954
v -0.0162175316 -0.0500000007 0.0874885172
v -0.10715019 -0.0500000007 0.0349885151
v -0.0456275791 0.0411999933 -0.0237638522
v 0.0404067524 -0.0500000007 -0.073345378
v 0.0404067524 -0.0500000007 -0.178345367
v 0.13945742 -0.0500000007 0.0151527375
v 0.191957414 -0.0500000007 -0.0757799298
v -0.241610274 0.0174999945 0.144871801
v -0.141584337 -0.0500000007 0.0976217985
v -0.232517004 -0.0500000007 0.150121793
v -0.141584337 0.0174999945 0.0871217996
v 0.0499786027 -0.0500000007 0.0129796611
v -0.00252139755 -0.0500000007 0.103912324
v -0.203600407 0.0925000012 0.0952067971
v -0.232692748 0.0925000012 -0.135845378
v 0.126017809 0.0925000012 0.0363587253
v -0.160476029 -0.0500000007 0.17666766
v -0.0695433617 -0.0500000007 0.124167651
v 0.151741505 -0.0500000007 -0.165483907
v 0.06080883 -0.0500000007 -0.112983912
v -0.0451341197 0.0925000012 -0.0940230489
v -0.0491412841 -0.0500000007 0.189529121
v -0.0491412841 -0.0500000007 0.0845291242
v 0.00748299621 -0.0500000007 -0.0763047636
v 0.0984156579 -0.0500000007 -0.0238047671
v -0.203600407 0.0411999933 -0.0313897692
v -0.241610274 -0.00679999962 -0.081054762
v -0.141584337 -0.00679999962 -0.0233047679
v -0.15027459 0.0411999933 -0.177898899
v 0.189328358 0.0925000012 -0.224977255
v -0.232517004 -0.0500000007 -0.0863047689
v -0.141584337 -0.0500000007 -0.0338047668

# 168 UV coordinates
vt 2.58559966 1.96088994 0
vt -1.7549516 -0.720596075 0
vt 2.37890673 -0.720596075 0
vt -1.96164453 1.96088994 0
vt 3.38042784 1.7474165 0
vt 7.72097921 0.00935906172 0
vt 7.92767191 1.7474165 0
vt 3.58712077 0.00935906172 0
vt 5.58840466 3.68447447 0
vt 1.24785364 1.00298858 0
vt 5.38171196 1.00298858 0
vt 1.0411607 3.68447447 0
vt -0.655428052 5.69101429 0
vt -2.92904997 7.80394411 0
vt -5.202672 5.69101429 0
vt -7.22816467 2.1551671 0
vt -2.68092036 2.1551671 0
vt -4.95454264 5.25549507 0
vt 3.31478286 8.03062153 0
vt 1.0411607 4.93029404 0
vt 5.58840466 4.93029404 0
vt 8.2980442 5.63924408 0
vt 6.02442217 2.53891611 0
vt 10.5716667 2.53891611 0
vt 2.57514691 3.976331 0
vt 7.12239122 3.976331 0
vt 4.84876919 6.08926058 0
vt 0.169409677 4.10305977 0
vt -4.17114162 1.42157364 0
vt -0.0372832417 1.42157364 0
vt -4.37783432 4.10305977 0
vt -2.10421228 8.98639679 0
vt -4.37783432 5.8860693 0
vt 0.169409677 5.8860693 0
vt -5.78726339 0.304105043 0
vt -1.44671202 2.98559117 0
vt -5.99395609 2.98559117 0
vt -1.65340495 0.304105043 0
vt 3.38042784 1.70161271 0
vt 7.92767191 1.70161271 0
vt 5.65404987 3.81454253 0
vt -6.88228941 5.07556868 0
vt -9.15591145 2.96263909 0
vt -4.60866737 2.96263909 0
vt -5.14397526 2.00667357 0
vt -9.48452663 0.268616199 0
vt -5.35066795 0.268616199 0
vt -9.69121933 2.00667357 0
vt 0.247065395 4.02919531 0
vt -4.09348583 1.34770918 0
vt 0.0403724834 1.34770918 0
vt -4.30017853 4.02919531 0
vt 8.62683296 3.44396448 0
vt 4.28628159 0.762478292 0
vt 8.42014027 0.762478292 0
vt 4.07958889 3.44396448 0
vt 0.820003152 2.56459475 0
vt -1.45361888 0.451664925 0
vt 3.09362531 0.451664925 0
vt 3.89536023 3.32833195 0
vt -0.445190847 1.59027457 0
vt 3.68866754 1.59027457 0
vt -0.651883781 3.32833195 0
vt 6.35321093 7.4814539 0
vt 4.07958889 4.38112593 0
vt 8.62683296 4.38112593 0
vt -2.15486979 -0.685211778 0
vt 2.18568158 1.0528456 0
vt -2.36156273 1.0528456 0
vt 1.97898853 -0.685211778 0
vt 6.56913614 3.94159508 0
vt 4.29551411 6.0545249 0
vt 2.02189183 3.94159508 0
vt 10.5716667 2.63716197 0
vt 6.23111534 -0.0443241596 0
vt 10.3649731 -0.0443241596 0
vt 6.02442217 2.63716197 0
vt -3.12122536 2.05033636 0
vt -5.39484739 5.15066433 0
vt -7.66846943 2.05033636 0
vt -7.62186527 3.73060036 0
vt -3.28131413 1.04911435 0
vt -3.0746212 3.73060036 0
vt -7.4151721 1.04911435 0
vt -6.36432838 4.98191357 0
vt -8.6379509 2.86898398 0
vt -4.09070635 2.86898398 0
vt -0.747975826 2.0427599 0
vt 3.79926825 2.0427599 0
vt 1.52564621 5.14308786 0
vt 2.57514691 2.79489374 0
vt 6.91569805 1.05683637 0
vt 7.12239122 2.79489374 0
vt 2.78183985 1.05683637 0
vt -7.41759729 4.37754917 0
vt -9.69121933 2.26461959 0
vt -5.14397526 2.26461959 0
vt 0.897658885 2.31712008 0
vt -1.37596309 0.204190433 0
vt 3.17128086 0.204190433 0
vt -4.99597931 1.84642506 0
vt -0.655428052 3.58448243 0
vt -5.202672 3.58448243 0
vt -0.862120926 1.84642506 0
vt 3.17128086 1.05787361 0
vt -1.16927028 -0.680183887 0
vt 2.96458793 -0.680183887 0
vt -1.37596309 1.05787361 0
vt 2.18568158 0.193271637 0
vt -0.0879405662 2.30620146 0
vt -2.36156273 0.193271637 0
vt -7.22816467 2.46909761 0
vt -2.8876133 -0.212388396 0
vt -2.68092036 2.46909761 0
vt -7.0214715 -0.212388396 0
vt 2.22858477 1.04084098 0
vt 6.56913614 2.77889848 0
vt 2.02189183 2.77889848 0
vt 6.36244297 1.04084098 0
vt 11.0896273 2.60920835 0
vt 6.74907589 -0.0722777843 0
vt 10.8829346 -0.0722777843 0
vt 6.54238319 2.60920835 0
vt 3.79926825 2.41986847 0
vt -0.541282952 -0.261617661 0
vt 3.59257531 -0.261617661 0
vt -0.747975826 2.41986847 0
vt 8.81600475 5.57541609 0
vt 6.54238319 2.47508836 0
vt 11.0896273 2.47508836 0
vt -7.62186527 5.03561544 0
vt -3.0746212 5.03561544 0
vt -5.34824324 8.13594341 0
vt -1.44671202 3.33450079 0
vt -3.72033405 6.43482876 0
vt -5.99395609 3.33450079 0
vt -4.60866737 2.32810235 0
vt -8.94921875 0.590044856 0
vt -4.81536007 0.590044856 0
vt -9.15591145 2.32810235 0
vt -4.09070635 2.28497529 0
vt -8.43125725 0.546917915 0
vt -4.29739952 0.546917915 0
vt -8.6379509 2.28497529 0
vt 0.311977565 4.09508085 0
vt -1.96164453 0.994752824 0
vt 2.58559966 0.994752824 0
vt -7.46177673 -0.25829947 0
vt -3.12122536 2.42318654 0
vt -7.66846943 2.42318654 0
vt -3.32791829 -0.25829947 0
vt 3.09362531 1.17183232 0
vt -1.24692595 -0.566225171 0
vt 2.88693237 -0.566225171 0
vt -1.45361888 1.17183232 0
vt -7.55976439 4.52534199 0
vt -9.83338642 2.41241217 0
vt -5.28614235 2.41241217 0
vt 1.62173831 7.24768353 0
vt -0.651883781 5.1347537 0
vt 3.89536023 5.1347537 0
vt -2.02655673 8.81773853 0
vt -4.30017853 5.71741104 0
vt 0.247065395 5.71741104 0
vt -5.28614235 2.07473016 0
vt -9.62669373 0.336672664 0
vt -5.49283552 0.336672664 0
vt -9.83338642 2.07473016 0

# 102 vertex normals
vn 0.489864051 -0.200331405 0.848469436
vn 0.49552381 -0.13350904 0.858272433
vn -0.49552381 0.13350904 -0.858272433
vn -0.489864051 0.200331405 -0.848469436
vn -0.828755379 -0.290205985 0.478482127
vn -0.847454727 -0.205978572 0.489278197
vn 0.828755379 0.290205985 -0.478482127
vn 0.847454727 0.205978572 -0.489278197
vn 0 -0.200331435 0.979728162
vn 0 -0.133509025 0.991047561
vn 0 0.133509025 -0.991047561
vn 0 0.200331435 -0.979728162
vn 0.828755319 -0.290205956 0.478482157
vn 0.774556458 -0.447306395 0.447190404
vn -0.828755319 0.290205956 -0.478482157
vn -0.774556458 0.447306395 -0.447190404
vn -0.979728162 -0.200331435 -0
vn -0.952401221 -0.304847389 -0
vn 0.952401221 0.304847389 0
vn 0.979728162 0.200331435 0
vn 0 -0.304847389 0.952401221
vn 0 0.304847389 -0.952401221
vn 0.47620061 -0.304847419 0.824803591
vn -0.47620061 0.304847419 -0.824803591
vn -0.828755379 -0.290205985 -0.478482127
vn -0.774556518 -0.447306365 -0.447190404
vn 0.774556518 0.447306365 0.447190404
vn 0.828755379 0.290205985 0.478482127
vn -0.489864051 -0.200331405 0.848469436
vn -0.49552381 -0.13350904 0.858272433
vn 0.49552381 0.13350904 -0.858272433
vn 0.489864051 0.200331405 -0.848469436
vn -0.47620061 -0.304847419 0.824803591
vn 0.47620061 0.304847419 -0.824803591
vn 0.858272433 -0.133509055 -0.49552381
vn 0.848469436 -0.200331405 -0.489864051
vn -0.848469436 0.200331405 0.489864051
vn -0.858272433 0.133509055 0.49552381
vn -0.774556518 -0.447306365 0.447190404
vn 0.774556518 0.447306365 -0.447190404
vn 0.447190404 -0.447306365 0.774556518
vn 0.478482127 -0.290205985 0.828755379
vn -0.478482127 0.290205985 -0.828755379
vn -0.447190404 0.447306365 -0.774556518
vn 0.478482127 -0.290205985 -0.828755379
vn 0.489278257 -0.205978572 -0.847454727
vn -0.489278257 0.205978572 0.847454727
vn -0.478482127 0.290205985 0.828755379
vn 0.489864051 -0.200331405 -0.848469436
vn 0.49552381 -0.13350904 -0.858272433
vn -0.49552381 0.13350904 0.858272433
vn -0.489864051 0.200331405 0.848469436
vn -0.447190404 -0.447306365 0.774556518
vn -0.478482127 -0.290205985 0.828755379
vn 0.478482127 0.290205985 -0.828755379
vn 0.447190404 0.447306365 -0.774556518
vn -0.478482127 -0.290205985 -0.828755379
vn -0.489278257 -0.205978572 -0.847454727
vn 0.489278257 0.205978572 0.847454727
vn 0.478482127 0.290205985 0.828755379
vn 0.47620061 -0.304847419 -0.824803591
vn -0.47620061 0.304847419 0.824803591
vn 0.847454727 -0.205978572 0.489278197
vn 0.828755379 -0.290205985 0.478482127
vn -0.828755379 0.290205985 -0.478482127
vn -0.847454727 0.205978572 -0.489278197
vn 0.774556518 -0.447306365 0.447190404
vn -0.774556518 0.447306365 -0.447190404
vn 0.979728162 -0.200331435 0
vn 0.952401221 -0.304847389 0
vn -0.979728162 0.200331435 0
vn -0.952401221 0.304847389 0
vn -0.991047561 -0.133509025 -0
vn 0.991047561 0.133509025 0
vn -0.447190404 -0.447306365 -0.774556518
vn 0.447190404 0.447306365 0.774556518
vn -0.848469436 -0.200331405 -0.489864051
vn -0.824803591 -0.304847419 -0.47620061
vn 0.824803591 0.304847419 0.47620061
vn 0.848469436 0.200331405 0.489864051
vn -0.847454727 -0.205978572 -0.489278197
vn 0.847454727 0.205978572 0.489278197
vn 0.447190404 -0.447306365 -0.774556518
vn -0.447190404 0.447306365 0.774556518
vn 0.847454727 -0.205978572 0.489278257
vn -0.847454727 0.205978572 -0.489278257
vn -0.489864051 -0.200331405 -0.848469436
vn -0.49552381 -0.13350904 -0.858272433
vn 0.49552381 0.13350904 0.858272433
vn 0.489864051 0.200331405 0.848469436
vn -0.858272433 -0.133509055 -0.49552381
vn 0.858272433 0.133509055 0.49552381
vn -0.47620061 -0.304847419 -0.824803591
vn 0.47620061 0.304847419 0.824803591
vn 0.82480365 -0.304847419 -0.47620061
vn -0.82480365 0.304847419 0.47620061
vn 0.489278257 -0.205978572 0.847454727
vn -0.489278257 0.205978572 -0.847454727
vn 0.991047561 -0.133509025 0
vn -0.991047561 0.133509025 0
vn -0.489278257 -0.205978572 0.847454727
vn 0.489278257 0.205978572 -0.847454727

# Mesh 'Mesh grass_leafsLarge' with 144 faces
g Mesh grass_leafsLarge
usemtl grass
f  1/1/1 2/2/2 3/3/2
f  2/2/2 1/1/1 4/4/1
f  3/3/3 2/2/3 1/1/4
f  4/4/4 1/1/4 2/2/3
f  5/5/5 6/6/6 7/7/5
f  6/6/6 5/5/5 8/8/6
f  7/7/7 6/6/8 5/5/7
f  8/8/8 5/5/7 6/6/8
f  9/9/9 10/10/10 11/11/10
f  10/10/10 9/9/9 12/12/9
f  11/11/11 10/10/11 9/9/12
f  12/12/12 9/9/12 10/10/11
f  13/13/13 14/14/14 15/15/13
f  15/15/15 14/14/16 13/13/15
f  16/16/17 17/17/17 18/18/18
f  18/18/19 17/17/20 16/16/20
f  19/19/21 12/20/9 9/21/9
f  9/21/12 12/20/12 19/19/22
f  20/22/23 21/23/1 22/24/1
f  22/24/4 21/23/4 20/22/24
f  23/25/25 24/26/25 25/27/26
f  25/27/27 24/26/28 23/25/28
f  26/28/29 27/29/30 28/30/30
f  27/29/30 26/28/29 29/31/29
f  28/30/31 27/29/31 26/28/32
f  29/31/32 26/28/32 27/29/31
f  30/32/33 29/33/29 26/34/29
f  26/34/32 29/33/32 30/32/34
f  31/35/35 32/36/36 33/37/36
f  32/36/36 31/35/35 34/38/35
f  33/37/37 32/36/37 31/35/38
f  34/38/38 31/35/38 32/36/37
f  5/39/5 7/40/5 35/41/39
f  35/41/40 7/40/7 5/39/7
f  36/42/41 37/43/42 38/44/42
f  38/44/43 37/43/43 36/42/44
f  39/45/45 40/46/46 41/47/46
f  40/46/46 39/45/45 42/48/45
f  41/47/47 40/46/47 39/45/48
f  42/48/48 39/45/48 40/46/47
f  43/49/49 44/50/50 45/51/50
f  44/50/50 43/49/49 46/52/49
f  45/51/51 44/50/51 43/49/52
f  46/52/52 43/49/52 44/50/51
f  47/53/49 48/54/50 49/55/50
f  48/54/50 47/53/49 50/56/49
f  49/55/51 48/54/51 47/53/52
f  50/56/52 47/53/52 48/54/51
f  51/57/53 52/58/54 53/59/54
f  53/59/55 52/58/55 51/57/56
f  54/60/57 55/61/58 56/62/58
f  55/61/58 54/60/57 57/63/57
f  56/62/59 55/61/59 54/60/60
f  57/63/60 54/60/60 55/61/59
f  58/64/61 50/65/49 47/66/49
f  47/66/52 50/65/52 58/64/62
f  59/67/63 60/68/64 61/69/64
f  60/68/64 59/67/63 62/70/63
f  61/69/65 60/68/65 59/67/66
f  62/70/66 59/67/66 60/68/65
f  63/71/64 64/72/67 65/73/64
f  65/73/65 64/72/68 63/71/65
f  22/74/1 66/75/2 67/76/2
f  66/75/2 22/74/1 21/77/1
f  67/76/3 66/75/3 22/74/4
f  21/77/4 22/74/4 66/75/3
f  68/78/69 69/79/70 70/80/69
f  70/80/71 69/79/72 68/78/71
f  71/81/17 72/82/73 73/83/17
f  72/82/73 71/81/17 74/84/73
f  73/83/20 72/82/74 71/81/20
f  74/84/74 71/81/20 72/82/74
f  75/85/75 76/86/57 77/87/57
f  77/87/60 76/86/60 75/85/76
f  78/88/77 79/89/77 80/90/78
f  80/90/79 79/89/80 78/88/80
f  23/91/25 81/92/81 24/93/25
f  81/92/81 23/91/25 82/94/81
f  24/93/28 81/92/82 23/91/28
f  82/94/82 23/91/28 81/92/82
f  83/95/83 42/96/45 39/97/45
f  39/97/48 42/96/48 83/95/84
f  84/98/83 85/99/45 86/100/45
f  86/100/48 85/99/48 84/98/84
f  87/101/85 13/102/13 15/103/13
f  13/102/13 87/101/85 88/104/85
f  15/103/15 13/102/15 87/101/86
f  88/104/86 87/101/86 13/102/15
f  86/105/45 89/106/46 90/107/46
f  89/106/46 86/105/45 85/108/45
f  90/107/47 89/106/47 86/105/48
f  85/108/48 86/105/48 89/106/47
f  60/109/64 91/110/67 61/111/64
f  61/111/65 91/110/68 60/109/65
f  16/112/17 92/113/73 17/114/17
f  92/113/73 16/112/17 93/115/73
f  17/114/20 92/113/74 16/112/20
f  93/115/74 16/112/20 92/113/74
f  94/116/63 63/117/64 65/118/64
f  63/117/64 94/116/63 95/119/63
f  65/118/65 63/117/65 94/116/66
f  95/119/66 94/116/66 63/117/65
f  96/120/87 97/121/88 98/122/88
f  97/121/88 96/120/87 99/123/87
f  98/122/89 97/121/89 96/120/90
f  99/123/90 96/120/90 97/121/89
f  79/124/77 100/125/91 101/126/91
f  100/125/91 79/124/77 78/127/77
f  101/126/92 100/125/92 79/124/80
f  78/127/80 79/124/80 100/125/92
f  102/128/93 99/129/87 96/130/87
f  96/130/90 99/129/90 102/128/94
f  71/131/17 73/132/17 103/133/18
f  103/133/19 73/132/20 71/131/20
f  32/134/36 104/135/95 33/136/36
f  33/136/37 104/135/96 32/134/37
f  38/137/42 105/138/97 106/139/97
f  105/138/97 38/137/42 37/140/42
f  106/139/98 105/138/98 38/137/43
f  37/140/43 38/137/43 105/138/98
f  77/141/57 107/142/58 108/143/58
f  107/142/58 77/141/57 76/144/57
f  108/143/59 107/142/59 77/141/60
f  76/144/60 77/141/60 107/142/59
f  109/145/23 4/146/1 1/147/1
f  1/147/4 4/146/4 109/145/24
f  110/148/99 68/149/69 70/150/69
f  68/149/69 110/148/99 111/151/99
f  70/150/71 68/149/71 110/148/100
f  111/151/100 110/148/100 68/149/71
f  53/152/54 112/153/101 113/154/101
f  112/153/101 53/152/54 52/155/54
f  113/154/102 112/153/102 53/152/55
f  52/155/55 53/152/55 112/153/102
f  114/156/53 115/157/54 116/158/54
f  116/158/55 115/157/55 114/156/56
f  117/159/75 57/160/57 54/161/57
f  54/161/60 57/160/60 117/159/76
f  118/162/61 46/163/49 43/164/49
f  43/164/52 46/163/52 118/162/62
f  116/165/54 119/166/101 120/167/101
f  119/166/101 116/165/54 115/168/54
f  120/167/102 119/166/102 116/165/55
f  115/168/55 116/165/55 119/166/102

