# File produced by Open Asset Import Library (http://www.assimp.sf.net)
# (assimp v5.3.0)

mtllib hanging_moss.mtl

# 28 vertex positions
v -0.0799167976 0.33719027 0.484999985
v -0.0580727682 0.281845152 0.5
v -0.0799167976 0.33719027 0.5
v -0.0580727682 0.281845152 0.484999985
v 0.0799167976 0.263408452 0.484999985
v 0.0799167976 0.428480089 0.5
v 0.0799167976 0.263408452 0.5
v 0.0799167976 0.428480089 0.484999985
v -0.0799167976 0.428480089 0.484999985
v -0.0799167976 0.428480089 0.5
v -0.0580727682 0.428480089 0.465000004
v -0.0580727682 0.428480089 0.484999985
v -0.0580727682 0.00534518063 0.465000004
v -0.0580727682 0.00534518063 0.5
v 0.0375940241 0.246704236 0.5
v 0.0375940241 0.246704236 0.484999985
v -0.00472876942 -0.0500000007 0.465000004
v -0.00472876942 0.104000002 0.5
v -0.00472876942 -0.0500000007 0.5
v -0.00472876942 0.104000002 0.474999964
v -0.00472876942 0.428480089 0.474999964
v -0.00472876942 0.428480089 0.465000004
v -0.036228776 -0.0500000007 0.5
v -0.036228776 -0.0500000007 0.465000004
v 0.0375940241 0.120704234 0.474999964
v 0.0375940241 0.120704234 0.5
v 0.0375940241 0.428480089 0.484999985
v 0.0375940241 0.428480089 0.474999964

# 76 UV coordinates
vt 19.0944881 15.3343601 0
vt 19.6850395 12.9918423 0
vt 19.6850395 15.3343601 0
vt 19.0944881 12.9918423 0
vt -19.0944881 12.3389158 0
vt -19.6850395 18.8377991 0
vt -19.6850395 12.3389158 0
vt -19.0944881 18.8377991 0
vt 19.0944881 18.8377991 0
vt 19.6850395 15.2437124 0
vt 19.6850395 18.8377991 0
vt 19.0944881 15.2437124 0
vt 18.3070869 18.8377991 0
vt 19.0944881 13.0647707 0
vt 18.3070869 2.17894411 0
vt 19.6850395 2.17894411 0
vt 19.6850395 13.0647707 0
vt 3.1463306 15.2437124 0
vt 2.28632951 18.8377991 0
vt 2.28632951 13.0647707 0
vt 3.1463306 18.8377991 0
vt -19.0944881 7.45656204 0
vt -19.6850395 5.66522408 0
vt -19.0944881 5.66522408 0
vt -19.6850395 7.45656204 0
vt -18.3070869 0 0
vt -19.6850395 6.0629921 0
vt -19.6850395 0 0
vt -18.7007866 6.0629921 0
vt -18.7007866 18.8377991 0
vt -18.3070869 18.8377991 0
vt 18.3070869 2.86616206 0
vt 19.6850395 0.523642719 0
vt 19.6850395 2.86616206 0
vt 18.3070869 0.523642719 0
vt -18.7007866 6.72063923 0
vt -19.6850395 11.6812696 0
vt -19.6850395 6.72063923 0
vt -19.0944881 11.6812696 0
vt -0.186172053 6.0629921 0
vt -1.42632985 0 0
vt -0.186172053 0 0
vt -2.28632951 2.17894411 0
vt -2.28632951 13.0647707 0
vt 1.48007977 6.72063923 0
vt 1.48007977 11.6812696 0
vt 3.1463306 12.3389158 0
vt -3.1463306 15.2437124 0
vt -3.1463306 18.8377991 0
vt 2.28632951 2.17894411 0
vt 0.186172053 0 0
vt 1.42632985 0 0
vt 0.186172053 18.8377991 0
vt -1.48007977 6.72063923 0
vt 0.186172053 6.0629921 0
vt -1.48007977 18.8377991 0
vt -3.1463306 -19.6850395 0
vt -2.28632951 -19.0944881 0
vt -3.1463306 -19.0944881 0
vt 3.1463306 -19.6850395 0
vt -0.186172023 -18.7007866 0
vt -0.186172023 -18.3070869 0
vt 1.48007977 -19.0944881 0
vt 1.48007977 -18.7007866 0
vt 3.1463306 -19.0944881 0
vt -2.28632951 -18.3070869 0
vt -18.7007866 3.84404922 0
vt -19.6850395 2.05271053 0
vt -18.7007866 2.05271053 0
vt -19.6850395 3.84404922 0
vt 0.186172023 -18.3070869 0
vt 1.42632985 -19.6850395 0
vt 1.42632985 -18.3070869 0
vt 0.186172023 -19.6850395 0
vt -3.1463306 12.3389158 0
vt -1.48007977 11.6812696 0

# 10 vertex normals
vn -0.930170953 -0.367126822 -0
vn 1 0 0
vn -1 0 0
vn 0 0 -1
vn 0.367125928 -0.930171251 0
vn -0.930171251 -0.367125928 -0
vn 0 0 1
vn 0 1 0
vn 0.367126048 -0.930171251 0
vn 0 -1 0

# Mesh 'Mesh hanging_moss' with 52 faces
g Mesh hanging_moss
usemtl grass
f  1/1/1 2/2/1 3/3/1
f  2/2/1 1/1/1 4/4/1
f  5/5/2 6/6/2 7/7/2
f  6/6/2 5/5/2 8/8/2
f  9/9/3 3/10/3 10/11/3
f  3/10/3 9/9/3 1/12/3
f  11/13/3 4/14/3 12/9/3
f  13/15/3 4/14/3 11/13/3
f  14/16/3 4/14/3 13/15/3
f  4/14/3 14/16/3 2/17/3
f  1/18/4 12/19/4 4/20/4
f  12/19/4 1/18/4 9/21/4
f  5/22/5 15/23/5 16/24/5
f  15/23/5 5/22/5 7/25/5
f  17/26/2 18/27/2 19/28/2
f  18/27/2 17/26/2 20/29/2
f  20/29/2 17/26/2 21/30/2
f  21/30/2 17/26/2 22/31/2
f  13/32/6 23/33/6 14/34/6
f  23/33/6 13/32/6 24/35/6
f  25/36/2 15/37/2 26/38/2
f  15/37/2 25/36/2 16/39/2
f  16/39/2 25/36/2 27/8/2
f  27/8/2 25/36/2 28/30/2
f  18/40/7 23/41/7 19/42/7
f  23/41/7 18/40/7 14/43/7
f  14/43/7 18/40/7 2/44/7
f  2/44/7 18/40/7 26/45/7
f  2/44/7 26/45/7 15/46/7
f  2/44/7 15/46/7 7/47/7
f  2/44/7 7/47/7 6/21/7
f  2/44/7 6/21/7 3/48/7
f  3/48/7 6/21/7 10/49/7
f  13/50/4 17/51/4 24/52/4
f  17/51/4 13/50/4 22/53/4
f  22/53/4 13/50/4 11/19/4
f  21/53/4 25/54/4 20/55/4
f  25/54/4 21/53/4 28/56/4
f  10/57/8 12/58/8 9/59/8
f  12/58/8 10/57/8 6/60/8
f  12/58/8 6/60/8 21/61/8
f  12/58/8 21/61/8 22/62/8
f  21/61/8 6/60/8 27/63/8
f  21/61/8 27/63/8 28/64/8
f  27/63/8 6/60/8 8/65/8
f  22/62/8 11/66/8 12/58/8
f  25/67/9 18/68/9 20/69/9
f  18/68/9 25/67/9 26/70/9
f  17/71/10 23/72/10 24/73/10
f  23/72/10 17/71/10 19/74/10
f  27/56/4 5/75/4 16/76/4
f  5/75/4 27/56/4 8/49/4

