# File produced by Open Asset Import Library (http://www.assimp.sf.net)
# (assimp v5.3.0)

mtllib log_stackLarge.mtl

# 152 vertex positions
v -0.186804429 0.232662901 -0.198604792
v -0.209243864 0.253796697 -0.158469796
v -0.209243864 0.253796697 -0.191522196
v -0.186804429 0.232662901 -0.151387081
v -0.163195565 0.273554713 -0.198604792
v -0.192717642 0.282420903 -0.191522196
v -0.163195565 0.273554713 -0.151387081
v -0.192717642 0.282420903 -0.158469796
v 0 0.209807619 -0.335000008
v -0.0500000007 0.296410114 0.335000008
v 0 0.209807619 0.335000008
v -0.0500000007 0.296410114 -0.335000008
v -0.0669917166 0.152635515 0.335000008
v -0.0500000082 0.123205036 0.335000008
v -0.0339834504 0.20980753 0.335000008
v -0.0669917166 0.266979486 0.335000008
v -0.133008301 0.266979486 0.335000008
v -0.133008301 0.152635515 0.335000008
v -0.150000006 0.123205021 0.335000008
v -0.200000003 0.20980753 0.335000008
v -0.166016594 0.20980753 0.335000008
v -0.150000006 0.296410114 0.335000008
v -0.150000006 0.123205021 -0.335000008
v -0.132761791 0.153062418 -0.335000008
v -0.0500000082 0.123205036 -0.335000008
v -0.200000003 0.20980753 -0.335000008
v -0.165523604 0.20980753 -0.335000008
v -0.150000006 0.296410114 -0.335000008
v -0.132761791 0.266552597 -0.335000008
v -0.0672382116 0.266552597 -0.335000008
v -0.0672382116 0.153062418 -0.335000008
v -0.0344764106 0.20980753 -0.335000008
v 0.22471714 0.266996264 0.170078903
v 0.185517848 0.23489137 0.203946397
v 0.185517848 0.23489137 0.161874995
v 0.22471714 0.266996264 0.195742488
v -0.0500000007 0.123205096 -0.354999989
v -0.100000001 0.0366025083 -0.335000008
v -0.100000001 0.0366024189 -0.354999989
v 0.0500000007 -0.0500000007 -0.354999989
v -0.0500000007 -0.0500000007 0.354999989
v -0.0500000007 -0.0500000007 -0.354999989
v 0.0500000007 -0.0500000007 0.354999989
v 0.0330082774 -0.0205695052 0.354999989
v 0.100000001 0.0366025083 0.354999989
v 0.0660165474 0.0366025083 0.354999989
v 0.0500000007 0.123205096 0.354999989
v 0.0330082774 0.0937744975 0.354999989
v -0.0330082998 0.0937744975 0.354999989
v -0.0330082998 -0.0205695052 0.354999989
v -0.100000001 0.0366024189 0.354999989
v -0.0660165995 0.0366025083 0.354999989
v -0.0500000007 0.123205096 0.354999989
v 0.150000006 0.123205096 0.354999989
v 0.133008286 0.152635604 0.354999989
v 0.200000003 0.209807619 0.354999989
v 0.166016549 0.209807619 0.354999989
v 0.150000006 0.296410173 0.354999989
v 0.133008286 0.266979605 0.354999989
v 0.0669916943 0.266979605 0.354999989
v 0.0669916943 0.152635604 0.354999989
v 0 0.209807619 0.354999989
v 0.0339833982 0.209807619 0.354999989
v 0.0500000007 0.296410173 0.354999989
v -0.166991726 -0.0205695871 0.354999989
v -0.150000006 -0.0500000827 0.354999989
v -0.25 -0.0500000827 0.354999989
v -0.23300831 -0.0205695871 0.354999989
v -0.300000012 0.0366024189 0.354999989
v -0.266016603 0.0366024189 0.354999989
v -0.23300831 0.0937744081 0.354999989
v -0.25 0.123205021 0.354999989
v -0.150000006 0.123205021 0.354999989
v -0.166991726 0.0937744081 0.354999989
v -0.133983448 0.0366024189 0.354999989
v 0.100000001 0.0366025083 0.335000008
v 0.100000001 0.0366025083 -0.335000008
v 0.100000001 0.0366025083 -0.354999989
v -0.100000001 0.0366025083 0.335000008
v 0.0499999896 0.123205081 0.335000008
v -0.0327617973 -0.0201425906 -0.354999989
v -0.0655235946 0.0366025083 -0.354999989
v -0.0327617973 0.093347609 -0.354999989
v 0.0327617861 0.093347609 -0.354999989
v 0.0327617861 -0.0201425906 -0.354999989
v 0.0655235872 0.0366025083 -0.354999989
v 0.0500000007 0.123205096 -0.354999989
v 0.0672381967 0.153062508 -0.354999989
v 0.150000006 0.123205096 -0.354999989
v 0 0.209807619 -0.354999989
v 0.0344763994 0.209807619 -0.354999989
v 0.0500000007 0.296410173 -0.354999989
v 0.0672381967 0.266552716 -0.354999989
v 0.132761776 0.266552716 -0.354999989
v 0.132761776 0.153062508 -0.354999989
v 0.200000003 0.209807619 -0.354999989
v 0.165523589 0.209807619 -0.354999989
v 0.150000006 0.296410173 -0.354999989
v 0.164482117 0.271326363 0.161874995
v 0.164482117 0.271326363 0.203946397
v 0.150000006 0.123205096 0.335000008
v 0.150000006 0.123205096 -0.335000008
v 0.211885348 0.289221555 0.170078903
v 0.211885348 0.289221555 0.195742488
v 0.0499999896 0.123205081 -0.335000008
v 0.309243858 0.0805917084 -0.191522196
v 0.286804438 0.0594579019 -0.151387081
v 0.286804438 0.0594579019 -0.198604792
v 0.309243858 0.0805917084 -0.158469796
v 0.292717636 0.1092159 -0.158469796
v 0.292717636 0.1092159 -0.191522196
v -0.150000006 -0.0500000827 -0.354999989
v -0.25 -0.0500000827 -0.354999989
v 0.263195574 0.100349709 -0.198604792
v -0.25 0.123205021 -0.354999989
v -0.150000006 0.123205021 -0.354999989
v -0.264482141 0.0981212109 0.203946397
v -0.264482141 0.0981212109 0.161874995
v -0.285517871 0.0616862141 0.161874995
v -0.285517871 0.0616862141 0.203946397
v -0.300000012 0.0366024189 -0.354999989
v 0.263195574 0.100349709 -0.151387081
v 0.25 0.123205096 0.335000008
v 0.25 0.123205096 -0.335000008
v 0.150000006 -0.0500000007 -0.335000008
v 0.167238206 -0.0201425906 -0.335000008
v 0.25 -0.0500000007 -0.335000008
v 0.134476393 0.0366025083 -0.335000008
v 0.167238206 0.093347609 -0.335000008
v 0.232761785 0.093347609 -0.335000008
v 0.232761785 -0.0201425906 -0.335000008
v 0.300000012 0.0366025083 -0.335000008
v 0.265523583 0.0366025083 -0.335000008
v 0.25 -0.0500000007 0.335000008
v 0.23300828 -0.0205695052 0.335000008
v 0.150000006 -0.0500000007 0.335000008
v 0.300000012 0.0366025083 0.335000008
v 0.266016543 0.0366025083 0.335000008
v 0.23300828 0.0937744975 0.335000008
v 0.166991696 0.0937744975 0.335000008
v 0.166991696 -0.0205695052 0.335000008
v 0.133983389 0.0366025083 0.335000008
v -0.324717134 0.0937911123 0.195742488
v -0.311885357 0.116016418 0.195742488
v -0.324717134 0.0937911123 0.170078903
v -0.311885357 0.116016418 0.170078903
v -0.2327618 -0.0201426763 -0.354999989
v -0.265523583 0.0366024189 -0.354999989
v -0.2327618 0.0933475196 -0.354999989
v -0.167238221 0.0933475196 -0.354999989
v -0.167238221 -0.0201426763 -0.354999989
v -0.134476408 0.0366024189 -0.354999989

# 334 UV coordinates
vt -7.81908655 12.9836426 0
vt -6.23896837 14.1972151 0
vt -7.5402441 14.1972151 0
vt -5.96012163 12.9836426 0
vt 6.56057119 10.8430252 0
vt 4.72853518 11.6260843 0
vt 5.63917875 10.0054398 0
vt 5.92312002 11.9774742 0
vt -7.48870325 13.1770258 0
vt -9.32073975 12.3939667 0
vt -8.39934635 11.5563812 0
vt -8.68328953 13.5284157 0
vt -7.5402441 7.5403924 0
vt -6.23896837 6.23911715 0
vt -6.23896837 7.5403924 0
vt -7.5402441 6.23911715 0
vt 13.1889763 8.85826683 0
vt -13.1889763 12.7952738 0
vt -13.1889763 8.85826683 0
vt 13.1889763 12.7952738 0
vt 0 10.2286463 0
vt -2.63746929 7.97777605 0
vt -1.96850431 6.81909609 0
vt -1.33793116 10.2286425 0
vt -2.63746929 12.4795084 0
vt -1.96850395 13.6381941 0
vt -5.23654747 12.4795084 0
vt -5.23654747 7.97777605 0
vt -5.90551186 6.81909513 0
vt -7.87401581 10.2286425 0
vt -6.53608656 10.2286425 0
vt -5.90551186 13.6381941 0
vt 5.90551186 6.81909513 0
vt 5.2268424 7.99458361 0
vt 1.96850431 6.81909609 0
vt 7.87401581 10.2286425 0
vt 6.51667738 10.2286425 0
vt 5.90551186 13.6381941 0
vt 5.2268424 12.4627018 0
vt 2.64717364 12.4627018 0
vt 2.64717364 7.99458361 0
vt 6.34751515e-14 10.2286463 0
vt 1.35733902 10.2286425 0
vt 1.96850395 13.6381941 0
vt 13.1889763 8.85826969 0
vt -5.96012163 7.81924772 0
vt 13.1889763 4.92125988 0
vt -13.1889763 8.85826969 0
vt -7.81908655 7.81924772 0
vt -7.81908655 5.9602809 0
vt -5.96012163 5.9602809 0
vt -13.1889763 4.92125988 0
vt -1.96850395 -13.1889763 0
vt -5.90551186 13.1889763 0
vt -5.90551186 -13.1889763 0
vt -1.96850395 13.1889763 0
vt 5.96012163 9.81748295 0
vt 7.5402441 11.0310535 0
vt 6.23896837 11.0310535 0
vt 7.81908655 9.81748295 0
vt -6.69601965 14.752244 0
vt -8.02938557 12.7574167 0
vt -6.37303162 12.7574167 0
vt -7.70639753 14.752244 0
vt -13.9763765 4.92125797 0
vt -13.1889734 0.984248817 0
vt -13.1889753 4.92125654 0
vt -13.9763756 0.984245718 0
vt -1.96850395 13.9763775 0
vt 1.96850395 -13.9763775 0
vt 1.96850395 13.9763775 0
vt -1.96850395 -13.9763775 0
vt 1.96850395 0 0
vt 1.29953849 1.15868092 0
vt -1.96850395 0 0
vt 3.9370079 3.40954757 0
vt 2.59907675 3.40954757 0
vt 1.96850395 6.81909847 0
vt 1.29953849 5.66041327 0
vt -1.29953945 5.66041327 0
vt -1.29953945 1.15868092 0
vt -3.9370079 3.40954423 0
vt -2.59907889 3.40954757 0
vt -1.96850395 6.81909847 0
vt 5.90551186 6.81909847 0
vt 5.23654652 7.97777939 0
vt 7.87401581 10.2286463 0
vt 6.53608465 10.2286463 0
vt 5.90551186 13.6381969 0
vt 5.23654652 12.4795122 0
vt 2.63746834 12.4795122 0
vt 2.63746834 7.97777939 0
vt 1.33792901 10.2286463 0
vt 1.96850395 13.6381969 0
vt -6.5744772 1.1586777 0
vt -5.90551186 -3.33786011e-06 0
vt -9.84251976 -3.33786011e-06 0
vt -9.17355537 1.1586777 0
vt -11.8110237 3.40954423 0
vt -10.4730949 3.40954423 0
vt -9.17355537 5.66040993 0
vt -9.84251976 6.81909513 0
vt -6.5744772 5.66040993 0
vt -5.27493906 3.40954423 0
vt 13.9763775 0.984252214 0
vt -13.9763775 4.92125893 0
vt -13.9763775 0.984252214 0
vt -13.1889763 4.92125893 0
vt 13.1889763 4.92125893 0
vt 13.9763775 4.92125893 0
vt 13.1889763 4.9212594 0
vt 13.9763775 0.984252572 0
vt 13.9763775 4.92125654 0
vt -13.9763775 0.984252572 0
vt -13.1889763 4.9212594 0
vt -13.9763775 4.92125654 0
vt -1.968503 -13.9763918 0
vt 1.96850455 -13.1889906 0
vt -1.96850336 -13.1889906 0
vt 1.96850491 -13.9763918 0
vt 1.28983462 1.17548859 0
vt 3.9370079 3.40954423 0
vt 2.57966924 3.40954757 0
vt 1.28983462 5.64360666 0
vt -1.28983414 5.64360666 0
vt -1.28983414 1.17548859 0
vt -3.9370079 3.40954757 0
vt -2.57966876 3.40954757 0
vt -2.64717317 7.99458694 0
vt -5.90551186 6.81909847 0
vt -1.35733855 10.2286463 0
vt -1.96850395 13.6381969 0
vt -2.64717317 12.4627056 0
vt -5.22684193 12.4627056 0
vt -5.22684193 7.99458694 0
vt -7.87401581 10.2286463 0
vt -6.5166769 10.2286463 0
vt -5.90551186 13.6381969 0
vt -13.9763775 4.92126274 0
vt -8.02938557 6.06158733 0
vt -13.9763775 8.85827255 0
vt 13.9763775 4.92126274 0
vt -6.37303162 6.06158733 0
vt -6.37303162 7.71794558 0
vt -8.02938557 7.71794558 0
vt 13.9763775 8.85827255 0
vt -13.1889763 8.85826874 0
vt -13.9763775 12.7952757 0
vt -13.9763775 8.85826874 0
vt 13.9763775 12.7952757 0
vt 13.1889763 8.85826874 0
vt 13.9763775 8.85826874 0
vt -13.9763775 12.7952785 0
vt 13.9763775 12.7952785 0
vt -7.30784655 13.046175 0
vt -9.70115757 12.8751373 0
vt -8.12778854 11.6070023 0
vt -9.20099258 13.7530308 0
vt 7.70639753 12.5211468 0
vt 6.37303162 10.5263224 0
vt 8.02938557 10.5263224 0
vt 6.69601965 12.5211468 0
vt 7.6749897 11.7207642 0
vt 5.2816782 11.8918018 0
vt 6.10161972 10.4526291 0
vt 7.17482471 12.5986576 0
vt 5.90551186 -13.9763775 0
vt 5.90551186 13.9763775 0
vt -6.69601965 6.3845644 0
vt -7.70639753 7.39494133 0
vt -7.70639753 6.3845644 0
vt -6.69601965 7.39494133 0
vt 13.9763803 0.98425591 0
vt 13.1889772 4.92126465 0
vt 13.1889782 0.984255672 0
vt 13.9763794 4.9212656 0
vt 7.5402441 12.3879805 0
vt 5.96012163 11.174407 0
vt 7.81908655 11.174407 0
vt 6.23896837 12.3879805 0
vt -13.1889811 4.92125082 0
vt -13.9763851 8.85825729 0
vt -13.9763823 4.92124748 0
vt -13.188983 8.85825729 0
vt 7.5402441 -1.63489676 0
vt 6.23896837 -0.333621383 0
vt 6.23896837 -1.63489676 0
vt 7.5402441 -0.333621383 0
vt 9.84251976 -13.9763775 0
vt 9.84251976 13.9763775 0
vt -8.58574772 4.76153708 0
vt -10.4177837 3.97847843 0
vt -9.4963913 3.14089322 0
vt -9.78033257 5.11292696 0
vt -5.90551186 -13.9763775 0
vt -9.84251976 13.9763775 0
vt -9.84251976 -13.9763775 0
vt -5.90551186 13.9763775 0
vt 13.9763775 0.98425293 0
vt 8.02938557 -0.156072974 0
vt 13.9763775 -2.95275664 0
vt -13.9763775 0.98425293 0
vt 6.37303162 -0.156072974 0
vt 6.37303162 -1.8124311 0
vt 8.02938557 -1.8124311 0
vt -13.9763775 -2.95275664 0
vt -1.96850491 13.9763823 0
vt -5.90551281 13.1889811 0
vt -1.96850455 13.1889811 0
vt -5.90551281 13.9763823 0
vt 13.1889763 8.85827065 0
vt 13.9763794 4.92126465 0
vt 13.9763775 8.8582716 0
vt 13.1889772 4.92126369 0
vt 13.1779499 5.52941847 0
vt 11.3459139 6.31247759 0
vt 12.2565565 4.69183302 0
vt 12.5404997 6.663867 0
vt 9.84251976 -13.1889763 0
vt 5.90551186 13.1889763 0
vt 5.90551186 -13.1889763 0
vt 9.84251976 13.1889763 0
vt -5.90551186 0 0
vt -6.58418131 1.17548859 0
vt -9.84251976 0 0
vt -5.29434633 3.40954757 0
vt -6.58418131 5.64360666 0
vt -9.16384983 5.64360666 0
vt -9.84251976 6.81909847 0
vt -9.16384983 1.17548859 0
vt -11.8110237 3.40954757 0
vt -10.4536848 3.40954757 0
vt 9.84251976 0 0
vt 9.17355442 1.15868092 0
vt 5.90551186 0 0
vt 11.8110237 3.40954757 0
vt 10.4730921 3.40954757 0
vt 9.84251976 6.81909847 0
vt 9.17355442 5.66041327 0
vt 6.57447624 5.66041327 0
vt 6.57447624 1.15868092 0
vt 5.27493668 3.40954757 0
vt 13.1889763 4.92126131 0
vt -13.1889763 8.85826778 0
vt -13.1889763 4.92126131 0
vt 13.1889763 8.85826778 0
vt -9.84251976 13.1889763 0
vt -9.84251976 -13.1889763 0
vt -13.1889763 -2.95275378 0
vt 5.96012163 -1.91373301 0
vt -13.1889763 0.984255791 0
vt 13.1889763 -2.95275378 0
vt 7.81908655 -1.91373301 0
vt 7.81908655 -0.0547657013 0
vt 5.96012163 -0.0547657013 0
vt 13.1889763 0.984255791 0
vt 13.1889763 0.984250069 0
vt -13.1889763 -2.95275664 0
vt 13.1889763 -2.95275664 0
vt -13.1889763 0.984250069 0
vt -6.23896837 12.8402901 0
vt -7.81908655 11.6267185 0
vt -5.96012163 11.6267185 0
vt -7.5402441 12.8402901 0
vt -13.1889782 0.984255672 0
vt -13.9763794 4.9212656 0
vt -13.9763803 0.98425591 0
vt -13.1889772 4.92126465 0
vt 1.96850455 13.1889906 0
vt -1.968503 13.9763918 0
vt -1.96850336 13.1889906 0
vt 1.96850491 13.9763918 0
vt -5.90551281 -13.1889811 0
vt -1.96850491 -13.9763823 0
vt -1.96850455 -13.1889811 0
vt -5.90551281 -13.9763823 0
vt -13.9763775 8.8582716 0
vt -13.1889772 4.92126369 0
vt -13.1889763 8.85827065 0
vt -13.9763794 4.92126465 0
vt 13.9763765 4.92125797 0
vt 13.1889734 0.984248817 0
vt 13.9763756 0.984245718 0
vt 13.1889753 4.92125654 0
vt 13.9763775 -2.95275855 0
vt -13.9763775 0.98424834 0
vt -13.9763775 -2.95275855 0
vt -13.1889763 0.984251142 0
vt 13.1889763 0.984251142 0
vt 13.9763775 0.98424834 0
vt -9.1795311 5.05024481 0
vt -11.5728436 4.87920713 0
vt -9.99947357 3.6110723 0
vt -11.0726786 5.75710058 0
vt 13.5990114 6.0335803 0
vt 11.2056999 6.20461798 0
vt 12.0256414 4.76544523 0
vt 13.0988464 6.91147327 0
vt 9.84251976 -3.33786011e-06 0
vt 9.16385078 1.17548525 0
vt 5.90551186 -3.33786011e-06 0
vt 11.8110237 3.40954423 0
vt 10.4536848 3.40954423 0
vt 9.84251976 6.81909513 0
vt 9.16385078 5.64360332 0
vt 6.58418179 5.64360332 0
vt 6.58418179 1.17548525 0
vt 5.29434681 3.40954423 0
vt 13.9763823 4.92124748 0
vt 13.188983 8.85825729 0
vt 13.1889811 4.92125082 0
vt 13.9763851 8.85825729 0
vt 6.69601965 -0.479076982 0
vt 7.70639753 -1.48945403 0
vt 7.70639753 -0.479076982 0
vt 6.69601965 -1.48945403 0
vt -8.02938557 11.8012285 0
vt -6.69601965 13.7960539 0
vt -7.70639753 13.7960539 0
vt -6.37303162 11.8012285 0
vt 6.37303162 11.4824934 0
vt 7.70639753 13.4773207 0
vt 6.69601965 13.4773207 0
vt 8.02938557 11.4824934 0
vt -13.1889763 12.7952728 0
vt 13.1889763 8.85826588 0
vt 13.1889763 12.7952728 0
vt -13.1889763 8.85826588 0
vt -13.9763775 8.85826492 0
vt 13.9763775 4.92125845 0
vt 13.9763775 8.85826492 0
vt -13.9763775 4.92125845 0
vt -1.96850359 6.81909752 0
vt 1.96850359 6.81909752 0

# 43 vertex normals
vn -0.685611486 -0.72796768 -0
vn -0.198986694 0.114884965 -0.973245025
vn -0.198989555 0.114886597 0.973244131
vn -0.86602515 0.500000536 0
vn 0.866025329 0.500000119 0
vn 0 0 1
vn 0 0 -1
vn -0.866025507 0.499999791 0
vn 0 1 0
vn 0.287632972 0.957740664 0
vn 0.633624792 -0.773640454 0
vn -0.866025627 0.499999702 -5.21540471e-07
vn 0 -1 0
vn 0.866025329 -0.500000119 0
vn -0.866025269 -0.500000358 -0
vn 0 1 -2.08616257e-06
vn 0.866025507 0.499999791 0
vn 0.140220746 0.080956459 -0.986804962
vn -0.353181481 0.935554802 0
vn 0.140220746 0.080956459 0.986804962
vn 0.866024971 0.500000775 0
vn 0.866025507 0.499999851 5.21540528e-07
vn 0.685611486 -0.72796768 0
vn 0.866025448 0.49999997 1.04308117e-06
vn 0.86602515 0.500000536 0
vn 0.198986694 0.114884965 -0.973245025
vn 0 -1 -6.95387541e-07
vn -0.866025448 -0.50000006 5.21540642e-07
vn 0.198989555 0.114886597 0.973244131
vn -0.866025329 -0.500000119 -0
vn -0.287632972 0.957740664 0
vn 0.866025507 0.499999851 -5.21540528e-07
vn 0 1 2.08616257e-06
vn 0 -1 6.95387541e-07
vn -0.866025448 -0.50000006 -5.21540642e-07
vn -0.866025627 0.499999702 5.21540471e-07
vn 0.866025448 -0.49999997 0
vn -0.140220746 0.080956459 0.986804962
vn -0.140220746 0.080956459 -0.986804962
vn 0.866025448 0.49999997 -1.04308117e-06
vn -0.866024971 0.500000775 0
vn 0.353181481 0.935554802 0
vn -0.633624792 -0.773640454 -0

# Mesh 'Mesh log_stackLarge-0' with 262 faces
g Mesh log_stackLarge-0
usemtl woodBark
f  1/1/1 2/2/1 3/3/1
f  2/2/1 1/1/1 4/4/1
f  3/5/2 5/6/2 1/7/2
f  5/6/2 3/5/2 6/8/2
f  7/9/3 2/10/3 4/11/3
f  2/10/3 7/9/3 8/12/3
f  6/13/4 2/14/4 8/15/4
f  2/14/4 6/13/4 3/16/4
f  9/17/5 10/18/5 11/19/5
f  10/18/5 9/17/5 12/20/5
f  11/21/6 13/22/6 14/23/6
f  13/22/6 11/21/6 15/24/6
f  15/24/6 11/21/6 16/25/6
f  16/25/6 11/21/6 10/26/6
f  16/25/6 10/26/6 17/27/6
f  18/28/6 14/23/6 13/22/6
f  18/28/6 19/29/6 14/23/6
f  19/29/6 18/28/6 20/30/6
f  20/30/6 18/28/6 21/31/6
f  20/30/6 21/31/6 17/27/6
f  20/30/6 17/27/6 22/32/6
f  22/32/6 17/27/6 10/26/6
f  23/33/7 24/34/7 25/35/7
f  24/34/7 23/33/7 26/36/7
f  24/34/7 26/36/7 27/37/7
f  27/37/7 26/36/7 28/38/7
f  27/37/7 28/38/7 29/39/7
f  29/39/7 28/38/7 30/40/7
f  31/41/7 25/35/7 24/34/7
f  25/35/7 31/41/7 9/42/7
f  9/42/7 31/41/7 32/43/7
f  9/42/7 32/43/7 30/40/7
f  9/42/7 30/40/7 12/44/7
f  12/44/7 30/40/7 28/38/7
f  22/45/8 7/46/8 20/47/8
f  7/46/8 22/45/8 28/48/8
f  7/46/8 28/48/8 5/49/8
f  5/49/8 28/48/8 1/50/8
f  4/51/8 20/47/8 7/46/8
f  20/47/8 4/51/8 26/52/8
f  26/52/8 4/51/8 1/50/8
f  26/52/8 1/50/8 28/48/8
f  10/53/9 28/54/9 22/55/9
f  28/54/9 10/53/9 12/56/9
f  7/57/10 6/58/10 8/59/10
f  6/58/10 7/57/10 5/60/10
f  33/61/11 34/62/11 35/63/11
f  34/62/11 33/61/11 36/64/11
f  37/65/12 38/66/12 25/67/12
f  38/66/12 37/65/12 39/68/12
f  40/69/13 41/70/13 42/71/13
f  41/70/13 40/69/13 43/72/13
f  43/73/6 44/74/6 41/75/6
f  44/74/6 43/73/6 45/76/6
f  44/74/6 45/76/6 46/77/6
f  46/77/6 45/76/6 47/78/6
f  46/77/6 47/78/6 48/79/6
f  48/79/6 47/78/6 49/80/6
f  50/81/6 41/75/6 44/74/6
f  41/75/6 50/81/6 51/82/6
f  51/82/6 50/81/6 52/83/6
f  51/82/6 52/83/6 53/84/6
f  53/84/6 52/83/6 49/80/6
f  53/84/6 49/80/6 47/78/6
f  54/85/6 55/86/6 47/78/6
f  55/86/6 54/85/6 56/87/6
f  55/86/6 56/87/6 57/88/6
f  57/88/6 56/87/6 58/89/6
f  57/88/6 58/89/6 59/90/6
f  59/90/6 58/89/6 60/91/6
f  61/92/6 47/78/6 55/86/6
f  47/78/6 61/92/6 62/21/6
f  62/21/6 61/92/6 63/93/6
f  62/21/6 63/93/6 60/91/6
f  62/21/6 60/91/6 64/94/6
f  64/94/6 60/91/6 58/89/6
f  65/95/6 66/96/6 51/82/6
f  66/96/6 65/95/6 67/97/6
f  68/98/6 67/97/6 65/95/6
f  67/97/6 68/98/6 69/99/6
f  69/99/6 68/98/6 70/100/6
f  69/99/6 70/100/6 71/101/6
f  69/99/6 71/101/6 72/102/6
f  72/102/6 71/101/6 73/29/6
f  74/103/6 73/29/6 71/101/6
f  75/104/6 73/29/6 74/103/6
f  65/95/6 51/82/6 75/104/6
f  75/104/6 51/82/6 73/29/6
f  40/105/14 45/106/14 43/107/14
f  45/106/14 40/105/14 76/108/14
f  76/108/14 40/105/14 77/109/14
f  77/109/14 40/105/14 78/110/14
f  79/111/15 41/112/15 51/113/15
f  41/112/15 79/111/15 42/114/15
f  42/114/15 79/111/15 38/115/15
f  42/114/15 38/115/15 39/116/15
f  53/117/16 80/118/16 14/119/16
f  80/118/16 53/117/16 47/120/16
f  42/73/7 81/121/7 40/75/7
f  81/121/7 42/73/7 39/122/7
f  81/121/7 39/122/7 82/123/7
f  82/123/7 39/122/7 37/78/7
f  82/123/7 37/78/7 83/124/7
f  83/124/7 37/78/7 84/125/7
f  85/126/7 40/75/7 81/121/7
f  40/75/7 85/126/7 78/127/7
f  78/127/7 85/126/7 86/128/7
f  78/127/7 86/128/7 84/125/7
f  78/127/7 84/125/7 87/84/7
f  87/84/7 84/125/7 37/78/7
f  87/84/7 88/129/7 89/130/7
f  88/129/7 87/84/7 90/21/7
f  88/129/7 90/21/7 91/131/7
f  91/131/7 90/21/7 92/132/7
f  91/131/7 92/132/7 93/133/7
f  93/133/7 92/132/7 94/134/7
f  95/135/7 89/130/7 88/129/7
f  89/130/7 95/135/7 96/136/7
f  96/136/7 95/135/7 97/137/7
f  96/136/7 97/137/7 94/134/7
f  96/136/7 94/134/7 98/138/7
f  98/138/7 94/134/7 92/132/7
f  56/139/17 34/140/17 58/141/17
f  34/140/17 56/139/17 96/142/17
f  34/140/17 96/142/17 35/143/17
f  35/143/17 96/142/17 99/144/17
f  100/145/17 58/141/17 34/140/17
f  58/141/17 100/145/17 98/146/17
f  98/146/17 100/145/17 99/144/17
f  98/146/17 99/144/17 96/142/17
f  101/147/14 56/148/14 54/149/14
f  56/148/14 101/147/14 96/150/14
f  96/150/14 101/147/14 102/151/14
f  96/150/14 102/151/14 89/152/14
f  92/153/8 62/152/8 64/154/8
f  62/152/8 92/153/8 11/151/8
f  11/151/8 92/153/8 9/147/8
f  9/147/8 92/153/8 90/149/8
f  99/155/18 33/156/18 35/157/18
f  33/156/18 99/155/18 103/158/18
f  104/159/19 99/160/19 100/161/19
f  99/160/19 104/159/19 103/162/19
f  36/163/20 100/164/20 34/165/20
f  100/164/20 36/163/20 104/166/20
f  58/167/9 92/71/9 64/70/9
f  92/71/9 58/167/9 98/168/9
f  33/169/21 104/170/21 36/171/21
f  104/170/21 33/169/21 103/172/21
f  78/173/22 105/174/22 77/175/22
f  105/174/22 78/173/22 87/176/22
f  106/177/23 107/178/23 108/179/23
f  107/178/23 106/177/23 109/180/23
f  79/181/24 73/182/24 51/183/24
f  73/182/24 79/181/24 19/184/24
f  106/185/25 110/186/25 109/187/25
f  110/186/25 106/185/25 111/188/25
f  112/168/13 67/189/13 113/190/13
f  67/189/13 112/168/13 66/167/13
f  114/191/26 106/192/26 108/193/26
f  106/192/26 114/191/26 111/194/26
f  73/195/9 115/196/9 72/197/9
f  115/196/9 73/195/9 116/198/9
f  116/198/9 73/195/9 19/55/9
f  116/198/9 19/55/9 23/54/9
f  72/199/8 117/200/8 69/201/8
f  117/200/8 72/199/8 115/202/8
f  117/200/8 115/202/8 118/203/8
f  118/203/8 115/202/8 119/204/8
f  120/205/8 69/201/8 117/200/8
f  69/201/8 120/205/8 121/206/8
f  121/206/8 120/205/8 119/204/8
f  121/206/8 119/204/8 115/202/8
f  87/207/27 102/208/27 105/209/27
f  102/208/27 87/207/27 89/210/27
f  11/211/28 47/212/28 62/213/28
f  47/212/28 11/211/28 80/214/28
f  109/215/29 122/216/29 107/217/29
f  122/216/29 109/215/29 110/218/29
f  123/219/9 102/220/9 101/221/9
f  102/220/9 123/219/9 124/222/9
f  125/223/7 126/224/7 127/225/7
f  126/224/7 125/223/7 77/127/7
f  126/224/7 77/127/7 128/226/7
f  128/226/7 77/127/7 129/227/7
f  129/227/7 77/127/7 102/130/7
f  129/227/7 102/130/7 130/228/7
f  130/228/7 102/130/7 124/229/7
f  131/230/7 127/225/7 126/224/7
f  127/225/7 131/230/7 132/231/7
f  132/231/7 130/228/7 124/229/7
f  132/231/7 131/230/7 133/232/7
f  132/231/7 133/232/7 130/228/7
f  134/233/6 135/234/6 136/235/6
f  135/234/6 134/233/6 137/236/6
f  135/234/6 137/236/6 138/237/6
f  138/237/6 137/236/6 123/238/6
f  138/237/6 123/238/6 139/239/6
f  139/239/6 123/238/6 140/240/6
f  141/241/6 136/235/6 135/234/6
f  136/235/6 141/241/6 76/76/6
f  76/76/6 141/241/6 142/242/6
f  76/76/6 142/242/6 140/240/6
f  76/76/6 140/240/6 101/85/6
f  101/85/6 140/240/6 123/238/6
f  127/243/14 137/244/14 134/245/14
f  137/244/14 127/243/14 132/246/14
f  127/247/13 136/55/13 125/54/13
f  136/55/13 127/247/13 134/248/13
f  137/249/17 107/250/17 123/251/17
f  107/250/17 137/249/17 132/252/17
f  107/250/17 132/252/17 108/253/17
f  108/253/17 132/252/17 114/254/17
f  122/255/17 123/251/17 107/250/17
f  123/251/17 122/255/17 124/256/17
f  124/256/17 122/255/17 114/254/17
f  124/256/17 114/254/17 132/252/17
f  76/257/30 125/258/30 136/259/30
f  125/258/30 76/257/30 77/260/30
f  110/261/31 114/262/31 122/263/31
f  114/262/31 110/261/31 111/264/31
f  76/265/32 47/266/32 45/267/32
f  47/266/32 76/265/32 80/268/32
f  105/269/33 37/270/33 25/271/33
f  37/270/33 105/269/33 87/272/33
f  101/273/34 47/274/34 80/275/34
f  47/274/34 101/273/34 54/276/34
f  90/277/35 105/278/35 9/279/35
f  105/278/35 90/277/35 87/280/35
f  53/281/36 79/282/36 51/283/36
f  79/282/36 53/281/36 14/284/36
f  112/285/37 51/286/37 66/287/37
f  51/286/37 112/285/37 79/288/37
f  79/288/37 112/285/37 38/289/37
f  38/289/37 112/285/37 39/290/37
f  117/291/38 143/292/38 120/293/38
f  143/292/38 117/291/38 144/294/38
f  145/295/39 118/296/39 119/297/39
f  118/296/39 145/295/39 146/298/39
f  113/299/7 147/300/7 112/301/7
f  147/300/7 113/299/7 121/302/7
f  147/300/7 121/302/7 148/303/7
f  148/303/7 121/302/7 115/304/7
f  148/303/7 115/304/7 149/305/7
f  149/305/7 115/304/7 150/306/7
f  151/307/7 112/301/7 147/300/7
f  112/301/7 151/307/7 39/122/7
f  39/122/7 151/307/7 152/308/7
f  39/122/7 152/308/7 150/306/7
f  39/122/7 150/306/7 116/33/7
f  116/33/7 150/306/7 115/304/7
f  39/309/40 23/310/40 38/311/40
f  23/310/40 39/309/40 116/312/40
f  146/313/41 143/314/41 144/315/41
f  143/314/41 146/313/41 145/316/41
f  117/317/42 146/318/42 144/319/42
f  146/318/42 117/317/42 118/320/42
f  119/321/43 143/322/43 145/323/43
f  143/322/43 119/321/43 120/324/43
f  26/325/30 19/326/30 20/327/30
f  19/326/30 26/325/30 23/328/30
f  121/329/30 67/330/30 69/331/30
f  67/330/30 121/329/30 113/332/30

# Mesh 'Mesh log_stackLarge-1' with 40 faces
g Mesh log_stackLarge-1
usemtl woodInner
f  15/24/6 18/28/6 13/22/6
f  18/28/6 15/24/6 21/31/6
f  21/31/6 15/24/6 16/25/6
f  21/31/6 16/25/6 17/27/6
f  27/37/7 31/41/7 24/34/7
f  31/41/7 27/37/7 32/43/7
f  32/43/7 27/37/7 29/39/7
f  32/43/7 29/39/7 30/40/7
f  57/88/6 61/92/6 55/86/6
f  61/92/6 57/88/6 63/93/6
f  63/93/6 57/88/6 59/90/6
f  63/93/6 59/90/6 60/91/6
f  82/123/7 85/126/7 81/121/7
f  85/126/7 82/123/7 86/128/7
f  86/128/7 82/123/7 83/124/7
f  86/128/7 83/124/7 84/125/7
f  46/77/6 50/81/6 44/74/6
f  50/81/6 46/77/6 52/83/6
f  52/83/6 46/77/6 48/79/6
f  52/83/6 48/79/6 49/80/6
f  138/237/6 141/241/6 135/234/6
f  141/241/6 138/237/6 142/242/6
f  142/242/6 138/237/6 139/239/6
f  142/242/6 139/239/6 140/240/6
f  91/131/7 95/135/7 88/129/7
f  95/135/7 91/131/7 97/137/7
f  97/137/7 91/131/7 93/133/7
f  97/137/7 93/133/7 94/134/7
f  128/226/7 131/230/7 126/224/7
f  131/230/7 128/226/7 133/232/7
f  133/232/7 128/226/7 129/227/7
f  133/232/7 129/227/7 130/228/7
f  148/303/7 151/307/7 147/300/7
f  151/307/7 148/303/7 152/308/7
f  152/308/7 148/303/7 149/305/7
f  152/308/7 149/305/7 150/306/7
f  75/104/6 68/98/6 65/95/6
f  68/98/6 75/104/6 70/100/6
f  70/100/6 75/104/6 74/103/6
f  70/100/6 74/103/6 71/101/6

# Mesh 'Mesh log_stackLarge-2' with 8 faces
g Mesh log_stackLarge-2
usemtl woodDark
f  102/130/7 77/127/7 105/333/7
f  9/42/7 105/333/7 25/35/7
f  25/35/7 38/76/7 23/33/7
f  11/21/6 14/23/6 80/334/6
f  101/85/6 80/334/6 76/76/6
f  14/23/6 19/29/6 79/127/6
f  23/328/30 79/111/15 19/326/30
f  79/111/15 23/328/30 38/115/15

