# File produced by Open Asset Import Library (http://www.assimp.sf.net)
# (assimp v5.3.0)

mtllib mushroom_redGroup.mtl

# 78 vertex positions
v 0.0177655853 -0.00643478334 0.0373613127
v 0.0400903635 -0.00643478334 0.0356320404
v 0.0177655853 -0.00643478334 0.0945367813
v 0.0672809929 -0.00643478334 0.00877357367
v 0.0930867568 -0.00643478334 0.0356320404
v 0.116796456 -0.00643478334 0.0373613127
v 0.0930867568 -0.00643478334 0.0886284336
v 0.0400903635 -0.00643478334 0.0886284336
v 0.0672809929 -0.00643478334 0.123124488
v 0.116796456 -0.00643478334 0.0945367813
v -0.0611106269 0.146215603 -0.0763574168
v -0.0456710383 0.126335606 -0.0139590707
v -0.0611106269 0.146215603 -0.00504501956
v -0.0456710383 0.126335606 -0.0674433708
v -0.0252078958 0.0218028016 0.0853874981
v -0.00933338609 0.042242799 0.0212314576
v -0.00933338609 0.042242799 0.0945526436
v -0.0252078958 0.0218028016 0.0303966124
v 0.0342353135 -0.0500000007 0.0300612003
v 0.0342353135 -0.0500000007 0.0948936045
v -0.0183427539 0.126335606 -0.0626162514
v 0.00064772967 0.126335606 -0.0941855088
v 0.0183427539 0.126335606 -0.0626162514
v 0.0469664931 0.126335606 -0.0674433708
v 0.0183427539 0.126335606 -0.0259307306
v -0.0183427539 0.126335606 -0.0259307306
v 0.00064772967 0.126335606 0.0127830766
v 0.0469664931 0.126335606 -0.0139590707
v 0.024349736 -0.0500000007 -0.0686232299
v -0.024349736 -0.0500000007 -0.0686232299
v 0.133301556 0.0103542954 0.0278320611
v 0.133301556 0.0103542954 0.104066029
v -0.136329442 0.042242799 0.0212314576
v -0.120454937 0.0218028016 0.0853874981
v -0.136329442 0.042242799 0.0945526436
v -0.120454937 0.0218028016 0.0303966124
v -0.0989831239 0.0218028016 0.0287334118
v -0.0392019749 -0.0500000007 0.0199237615
v -0.107792743 -0.0500000007 0.0199237615
v -0.0480116345 0.0218028016 0.0287334118
v -0.0728313997 0.0218028016 0.112882949
v -0.0728313997 0.042242799 0.131213278
v -0.024349736 -0.0500000007 -0.0199237615
v -0.0728313997 0.042242799 -0.0154291373
v -0.0728313997 0.0218028016 0.00290116062
v 0.024349736 -0.0500000007 -0.0199237615
v 0.00064772967 0.146215603 -0.112013608
v 0.0624060854 0.146215603 -0.0763574168
v -0.0480116345 0.0218028016 0.0797049105
v -0.107792743 -0.0500000007 0.088514559
v -0.0392019749 -0.0500000007 0.088514559
v -0.0989831239 0.0218028016 0.0797049105
v 0.0672809929 0.0103542954 -0.0102849202
v 0.00126044673 0.0103542954 0.0278320611
v 0.099067755 -0.0500000007 0.0948936045
v 0.00126044673 0.0103542954 0.104066029
v 0.099067755 -0.0500000007 0.0300612003
v 0.0672809929 0.0103542954 0.142182991
v 0.0624060854 0.146215603 -0.00504501956
v 0.00064772967 0.146215603 0.0306111798
v 0.0515054725 0.0561885051 0.0750570446
v 0.0515054725 0.0561885051 0.0568410493
v 0.0672809929 0.0561885051 0.0477330387
v -0.0728313997 0.098044008 0.0754120424
v -0.0880041793 0.098044008 0.0491320603
v -0.0880041793 0.098044008 0.0666520447
v -0.0728313997 0.098044008 0.0403720587
v -0.0576586463 0.098044008 0.0666520447
v -0.0576586463 0.098044008 0.0491320603
v 0.0672809929 0.0561885051 0.0841650441
v 0.0830565169 0.0561885051 0.0750570446
v 0.0830565169 0.0561885051 0.0568410493
v 0.0154048055 0.200488016 -0.0492212176
v 0.00064772967 0.200488016 -0.0577412173
v -0.0141093452 0.200488016 -0.0492212176
v 0.00064772967 0.200488016 -0.0236612186
v -0.0141093452 0.200488016 -0.032181222
v 0.0154048055 0.200488016 -0.032181222

# 91 UV coordinates
vt 0 0 0
vt -2.49643755 2.32077742 0
vt -0.63718605 4.99833012 0
vt -1.35435164 4.99832964 0
vt -2.867378 -1.58945131 0
vt -2.27002549 -2.62409639 0
vt -2.27002549 -1.93433309 0
vt -2.2378366 0.401682854 0
vt -4.09708786 -2.27586985 0
vt -1.09575045 -2.27586985 0
vt -1.68849599 1.78411067 0
vt 0.0997183174 -1.12211227 0
vt -0.998731911 1.7841109 0
vt 3.23360491 1.67589176 0
vt 5.09285498 -1.00166035 0
vt 3.95077014 1.67589176 0
vt 0.637187779 -0.281059027 0
vt 2.49643993 -2.95861125 0
vt 1.35435307 -0.281059027 0
vt -2.62409639 5.89201546 0
vt -0.835884154 2.98579288 0
vt -1.93433309 5.89201546 0
vt 2.17949939 1.46227694 0
vt 3.96771193 4.36849928 0
vt 3.2779479 4.36849928 0
vt 0.0255011674 2.27327633 0
vt 0.606488407 1.26697719 0
vt 0.606488407 1.9378432 0
vt -1.11455357 7.99125099 0
vt 0.624666929 5.16465139 0
vt -0.44368735 7.99125099 0
vt 1.26697719 7.05772781 0
vt 3.00619745 4.23112822 0
vt 1.9378432 7.05772781 0
vt 0.487856656 7.97455692 0
vt 2.22707748 5.14795732 0
vt 1.15872288 7.97455692 0
vt 2.95500183 4.31558704 0
vt 1.09575045 1.63803458 0
vt 4.09708786 1.63803458 0
vt 2.2378366 4.31558704 0
vt 0.504899681 2.32077742 0
vt -2.867378 -2.96897817 0
vt -3.46473145 -1.93433309 0
vt -3.46473145 -2.62409639 0
vt 2.64885807 -3.31358433 0
vt 2.02777457 -2.2378366 0
vt 2.02777457 -2.95500183 0
vt 2.64885807 -1.87925339 0
vt 3.26994157 -2.95500183 0
vt 3.26994157 -2.2378366 0
vt -2.17950058 0.755029678 0
vt -3.96771193 3.66125274 0
vt -5.06616259 0.755029619 0
vt -3.27794862 3.6612525 0
vt -2.95500183 0.401682854 0
vt -2.78694463 -1.12211227 0
vt 2.0915184 -1.00166035 0
vt -0.504897058 -2.95861125 0
vt -3.95077085 3.04137826 0
vt -2.09151936 0.363825679 0
vt -3.23360515 3.04137802 0
vt -5.09285688 0.36382556 0
vt 0.998733163 6.24563885 0
vt 2.78694534 3.3394165 0
vt 1.68849671 6.24563885 0
vt -0.0997157171 3.33941627 0
vt 2.62409639 2.13773489 0
vt 0.835884154 -0.76848793 0
vt 3.72254515 -0.76848793 0
vt 1.93433309 2.13773489 0
vt -3.72254515 2.98579288 0
vt 0.443686903 6.1575942 0
vt 2.18290687 3.33099484 0
vt 1.11455321 6.1575942 0
vt -0.624667943 3.33099484 0
vt -0.487856269 6.17428875 0
vt -2.22707629 3.34768939 0
vt 0.580498517 3.34768939 0
vt -1.15872252 6.17428875 0
vt 5.06616163 1.46227694 0
vt 0.0255011674 0.931544065 0
vt -0.555486023 1.9378432 0
vt -0.555486023 1.26697719 0
vt -2.18290806 5.16465139 0
vt -1.26697719 7.09111691 0
vt -3.00619745 4.26451731 0
vt -0.198622823 4.26451731 0
vt -1.9378432 7.09111691 0
vt 0.198622823 4.23112822 0
vt -0.580497563 5.14795732 0

# 49 vertex normals
vn 0 -1 0
vn -0.789787889 -0.613380134 -0
vn 0.78978771 -0.613380253 0
vn -0.991089225 0.133199766 0
vn 0 0.0340458639 -0.999420285
vn 0.713112056 -0.701050043 0
vn -0.789787829 -0.613380134 -0
vn 0 0.121779099 -0.992557168
vn 0.394893944 -0.613380551 0.683975816
vn -0.999420285 0.0340458639 0
vn 0.394893885 -0.613380194 -0.683976233
vn 0.999420285 0.0340458639 0
vn 0 0.0340457968 0.999420285
vn 0.394893855 -0.613379955 -0.683976531
vn -0.394893765 -0.613380611 0.683975875
vn 0 0.121779099 0.992557168
vn -0.356555581 -0.701050997 -0.617572367
vn 0 0.142346814 0.989816785
vn -0.713111222 -0.701050997 -0
vn 0 0.126840726 -0.991923034
vn -0.394893914 -0.613379955 -0.683976531
vn 0.356555283 -0.701050818 0.617572665
vn 0.990707159 0.136012584 0
vn 0.356555551 -0.701050758 -0.617572665
vn -0.992557287 0.121778704 0
vn 0.394893885 -0.613380075 0.683976352
vn 0.992557168 0.12177927 0
vn -0.394893765 -0.613380194 -0.683976352
vn 0.789787829 -0.613380134 0
vn -0.356555313 -0.701051056 0.617572427
vn -0.394893885 -0.613380015 0.683976352
vn -0.673934937 0.738790691 0
vn -0.336967468 0.738790691 -0.583644748
vn 0 1 0
vn 0.377964735 0.654653788 0.654653311
vn 0.673934877 0.738790751 0
vn -0.377964616 0.654653788 0.65465337
vn -0.336967319 0.738790631 0.583644927
vn 0.336967289 0.738790691 0.583644927
vn 0.336967409 0.738790691 -0.583644688
vn 0.377964467 0.654653668 -0.654653668
vn -0.755928814 0.654653788 0
vn 0.755928874 0.654653668 0
vn 0.377964318 0.654653668 -0.654653609
vn -0.377964318 0.654653668 -0.654653609
vn -0.377964318 0.654653609 -0.654653668
vn -0.377964348 0.654653668 0.654653609
vn 0.755928814 0.654653788 0
vn 0.377964348 0.654653668 0.654653609

# Mesh 'Mesh mushroom_redGroup-0' with 96 faces
g Mesh mushroom_redGroup-0
usemtl _defaultMat
f  1/1/1 2/1/1 3/1/1
f  2/1/1 1/1/1 4/1/1
f  2/1/1 4/1/1 5/1/1
f  5/1/1 4/1/1 6/1/1
f  5/1/1 6/1/1 7/1/1
f  8/1/1 3/1/1 2/1/1
f  3/1/1 8/1/1 9/1/1
f  9/1/1 8/1/1 7/1/1
f  9/1/1 7/1/1 10/1/1
f  10/1/1 7/1/1 6/1/1
f  11/1/2 12/1/2 13/1/2
f  12/1/2 11/1/2 14/1/2
f  15/1/3 16/1/3 17/1/3
f  16/1/3 15/1/3 18/1/3
f  8/2/4 19/3/4 20/4/4
f  19/2/4 8/3/4 2/4/4
f  14/5/1 21/6/1 12/7/1
f  21/5/1 14/6/1 22/7/1
f  21/5/1 22/6/1 23/7/1
f  23/5/1 22/6/1 24/7/1
f  23/5/1 24/6/1 25/7/1
f  12/5/1 26/6/1 27/7/1
f  26/5/1 12/6/1 21/7/1
f  27/5/1 26/6/1 25/7/1
f  27/5/1 25/6/1 28/7/1
f  28/5/1 25/6/1 24/7/1
f  21/8/5 29/9/5 30/10/5
f  29/8/5 21/9/5 23/10/5
f  10/8/6 31/9/6 32/10/6
f  31/8/6 10/9/6 6/10/6
f  33/11/7 34/12/7 35/13/7
f  34/11/7 33/12/7 36/13/7
f  37/11/8 38/12/8 39/13/8
f  38/11/8 37/12/8 40/13/8
f  17/14/9 41/15/9 15/16/9
f  41/14/9 17/15/9 42/16/9
f  26/14/10 30/15/10 43/16/10
f  30/14/10 26/15/10 21/16/10
f  44/14/11 18/15/11 45/16/11
f  18/14/11 44/15/11 16/16/11
f  29/17/12 25/18/12 46/19/12
f  25/17/12 29/18/12 23/19/12
f  25/17/13 43/18/13 46/19/13
f  43/17/13 25/18/13 26/19/13
f  47/17/14 24/18/14 22/19/14
f  24/17/14 47/18/14 48/19/14
f  42/17/15 34/18/15 41/19/15
f  34/17/15 42/18/15 35/19/15
f  49/17/16 50/18/16 51/19/16
f  50/17/16 49/18/16 52/19/16
f  53/17/17 1/18/17 54/19/17
f  1/17/17 53/18/17 4/19/17
f  7/20/18 20/21/18 55/22/18
f  20/20/18 7/21/18 8/22/18
f  54/20/19 3/21/19 56/22/19
f  3/20/19 54/21/19 1/22/19
f  2/23/20 57/24/20 19/25/20
f  57/23/20 2/24/20 5/25/20
f  11/23/21 22/24/21 14/25/21
f  22/23/21 11/24/21 47/25/21
f  10/23/22 58/24/22 9/25/22
f  58/23/22 10/24/22 32/25/22
f  57/23/23 7/24/23 55/25/23
f  7/23/23 57/24/23 5/25/23
f  31/23/24 4/24/24 53/25/24
f  4/23/24 31/24/24 6/25/24
f  52/23/25 39/24/25 50/25/25
f  39/23/25 52/24/25 37/25/25
f  59/26/26 27/27/26 28/28/26
f  27/26/26 59/27/26 60/28/26
f  38/26/27 49/27/27 51/28/27
f  49/26/27 38/27/27 40/28/27
f  33/29/28 45/30/28 36/31/28
f  45/29/28 33/30/28 44/31/28
f  28/29/29 48/30/29 59/31/29
f  48/29/29 28/30/29 24/31/29
f  3/29/30 58/30/30 56/31/30
f  58/29/30 3/30/30 9/31/30
f  38/32/1 50/33/1 39/34/1
f  50/32/1 38/33/1 51/34/1
f  57/32/1 20/33/1 19/34/1
f  20/32/1 57/33/1 55/34/1
f  60/32/31 12/33/31 27/34/31
f  12/32/31 60/33/31 13/34/31
f  36/32/1 37/33/1 34/34/1
f  37/32/1 36/33/1 45/34/1
f  37/32/1 45/33/1 40/34/1
f  40/32/1 45/33/1 18/34/1
f  40/32/1 18/33/1 49/34/1
f  34/32/1 52/33/1 41/34/1
f  52/32/1 34/33/1 37/34/1
f  41/32/1 52/33/1 49/34/1
f  41/32/1 49/33/1 15/34/1
f  15/32/1 49/33/1 18/34/1
f  29/35/1 43/36/1 30/37/1
f  43/35/1 29/36/1 46/37/1

# Mesh 'Mesh mushroom_redGroup-1' with 48 faces
g Mesh mushroom_redGroup-1
usemtl colorRed
f  61/38/32 54/39/32 56/40/32
f  54/39/32 61/38/32 62/41/32
f  62/3/33 53/2/33 54/42/33
f  53/2/33 62/3/33 63/4/33
f  64/43/34 65/44/34 66/45/34
f  65/44/34 64/43/34 67/5/34
f  67/5/34 64/43/34 68/6/34
f  67/5/34 68/6/34 69/7/34
f  70/46/34 62/47/34 61/48/34
f  62/47/34 70/46/34 63/49/34
f  63/49/34 70/46/34 71/50/34
f  63/49/34 71/50/34 72/51/34
f  17/52/35 64/53/35 42/54/35
f  64/53/35 17/52/35 68/55/35
f  32/9/36 72/8/36 71/56/36
f  72/8/36 32/9/36 31/10/36
f  42/12/37 66/11/37 35/57/37
f  66/11/37 42/12/37 64/13/37
f  58/15/38 61/14/38 56/58/38
f  61/14/38 58/15/38 70/16/38
f  32/18/39 70/17/39 58/59/39
f  70/17/39 32/18/39 71/19/39
f  72/60/40 53/61/40 63/62/40
f  53/61/40 72/60/40 31/63/40
f  69/64/41 44/65/41 67/66/41
f  44/65/41 69/64/41 16/67/41
f  66/68/42 33/69/42 35/70/42
f  33/69/42 66/68/42 65/71/42
f  16/21/43 68/20/43 17/72/43
f  68/20/43 16/21/43 69/22/43
f  73/73/44 47/74/44 74/75/44
f  47/74/44 73/73/44 48/76/44
f  75/77/45 47/78/45 11/79/45
f  47/78/45 75/77/45 74/80/45
f  65/24/46 44/23/46 33/81/46
f  44/23/46 65/24/46 67/25/46
f  76/82/34 75/83/34 77/84/34
f  75/83/34 76/82/34 74/26/34
f  74/26/34 76/82/34 78/27/34
f  74/26/34 78/27/34 73/28/34
f  60/30/47 77/29/47 13/85/47
f  77/29/47 60/30/47 76/31/47
f  77/86/42 11/87/42 13/88/42
f  11/87/42 77/86/42 75/89/42
f  48/33/48 78/32/48 59/90/48
f  78/32/48 48/33/48 73/34/48
f  59/36/49 76/35/49 60/91/49
f  76/35/49 59/36/49 78/37/49

