# File produced by Open Asset Import Library (http://www.assimp.sf.net)
# (assimp v5.3.0)

mtllib plant_bushDetailed.mtl

# 56 vertex positions
v 0.0640499964 0.186438009 -0.136701554
v 1.21281118e-13 0.245536968 -0.235137552
v -0.0640499964 0.186438009 -0.136701554
v 0.0518500023 -0.00128406286 -0.109038107
v -0.0213500001 -0.0500000007 -0.0213500001
v -0.0518500023 -0.00128406286 -0.109038107
v 0.0213500001 -0.0500000007 -0.0213500001
v 0.235137552 0.310410917 8.66293714e-15
v 0.136701554 0.238339081 -0.0640499964
v 0.136701554 0.238339081 0.0640499964
v -0.0884499997 0.109773964 0.0607257932
v 0.0213500001 -0.0500000007 0.0213500001
v -0.0213500001 -0.0500000007 0.0213500001
v 0.0884499997 0.109773964 0.0607257932
v -0.198537558 0.062131729 -0.0640499964
v -0.301271856 0.0350274183 0.01286346
v -0.198537558 0.062131729 0.0640499964
v 0.0607257932 0.142969549 -0.0884499997
v 0.0607257932 0.142969549 0.0884499997
v -0.0884499997 0.108235046 -0.0607257932
v 0.0884499997 0.108235046 -0.0607257932
v -0.0884499997 0.0667951703 0.10994377
v 0.0884499997 0.0667951703 0.10994377
v 0.0640499964 0.112881213 0.198537558
v -0.0640499964 0.112881213 0.198537558
v 0.01286346 0.0735097975 0.301271856
v -0.109038107 -0.0161364749 0.0518500023
v -0.20367308 -0.039079614 0.0230803564
v -0.109038107 -0.0161364749 -0.0518500023
v -0.10994377 0.0304048918 0.0884499997
v -0.10994377 0.0304048918 -0.0884499997
v 0.198537558 0.146722376 0.0640499964
v 0.10994377 0.0910611749 -0.0884499997
v 0.10994377 0.0910611749 0.0884499997
v 0.198537558 0.146722376 -0.0640499964
v -0.0640499964 0.188737541 0.136701554
v 0.0640499964 0.188737541 0.136701554
v 0.0640499964 0.111312315 -0.198537558
v -0.01286346 0.0723201931 -0.301271856
v -0.0640499964 0.111312315 -0.198537558
v 1.61708158e-13 0.248411343 0.235137552
v -0.136701554 0.114353225 -0.0640499964
v -0.235137552 0.155434221 1.93472259e-13
v -0.136701554 0.114353225 0.0640499964
v 0.0518500023 -0.00081025809 0.109038107
v 0.0230803564 -0.0341371819 0.20367308
v -0.0518500023 -0.00081025809 0.109038107
v 0.0884499997 0.0656701475 -0.10994377
v -0.0884499997 0.0656701475 -0.10994377
v -0.0607257932 0.0599926449 0.0884499997
v -0.0607257932 0.0599926449 -0.0884499997
v -0.0230803564 -0.0342899747 -0.20367308
v 0.109038107 0.00940968469 -0.0518500023
v 0.109038107 0.00940968469 0.0518500023
v 0.20367308 -0.0308414325 -0.0230803564
v 0.301271856 0.0991709977 -0.01286346

# 116 UV coordinates
vt 2.52165341 9.4056654 0
vt 4.77521972e-12 13.9259148 0
vt -2.52165341 9.4056654 0
vt -2.04133868 4.68405437 0
vt 0.840551198 0.734772801 0
vt 2.04133868 4.68405437 0
vt -0.840551198 0.734772801 0
vt 3.40602899e-13 15.851779 0
vt -2.52165341 11.0486288 0
vt 2.52165341 11.0486288 0
vt 3.48228359 6.67965508 0
vt -0.840551198 0.201133251 0
vt 0.840551198 0.201133251 0
vt -3.48228359 6.67965508 0
vt -2.52165341 -6.43165445 0
vt 0.506435454 -10.6147099 0
vt 2.52165341 -6.43165445 0
vt 2.52165341 12.2323399 0
vt -3.48228359 7.43182707 0
vt 3.48228359 7.43182707 0
vt -2.52165341 12.2323399 0
vt 2.52165341 10.4267979 0
vt -3.48228359 6.13419151 0
vt 3.48228359 6.13419151 0
vt -2.52165341 10.4267979 0
vt 3.48228359 6.27942371 0
vt -0.840551198 0.507983327 0
vt 0.840551198 0.507983327 0
vt -3.48228359 6.27942371 0
vt 2.52165341 -5.00400352 0
vt -2.52165341 -5.00400352 0
vt 0.506435454 -9.33550739 0
vt -2.04133868 -3.85786152 0
vt -0.908675492 -7.69157791 0
vt 2.04133868 -3.85786152 0
vt 2.52165341 9.8936882 0
vt -3.48228359 5.96204185 0
vt 3.48228359 5.96204185 0
vt -2.52165341 9.8936882 0
vt -3.48228359 5.14232779 0
vt 2.52165341 8.84718609 0
vt -2.52165341 8.84718609 0
vt 3.48228359 5.14232779 0
vt 2.52165341 10.7388287 0
vt -3.48228359 6.61961365 0
vt 3.48228359 6.61961365 0
vt -2.52165341 10.7388287 0
vt 2.52165341 10.5046158 0
vt -3.48228359 6.19048119 0
vt 3.48228359 6.19048119 0
vt -2.52165341 10.5046158 0
vt -2.52165341 -5.05421162 0
vt 0.506435454 -9.38039398 0
vt 2.52165341 -5.05421162 0
vt 3.48228359 6.62268734 0
vt -0.840551198 0.20297581 0
vt 0.840551198 0.20297581 0
vt -3.48228359 6.62268734 0
vt -2.52165341 9.47482014 0
vt 2.52165341 9.47482014 0
vt -6.36646985e-12 14.0067606 0
vt 2.52165341 7.4588747 0
vt -7.61682557e-12 11.6582603 0
vt -2.52165341 7.4588747 0
vt -2.04133868 -3.40581751 0
vt -0.908675492 -7.35588646 0
vt 2.04133868 -3.40581751 0
vt 3.48228359 5.93348455 0
vt -2.52165341 9.85709667 0
vt -3.48228359 5.93348455 0
vt 2.52165341 9.85709667 0
vt -0.840551198 0.622429013 0
vt 3.48228359 5.33267736 0
vt -3.48228359 5.33267736 0
vt 0.840551198 0.622429013 0
vt -3.48228359 4.46417427 0
vt 2.52165341 8.14214611 0
vt -2.52165341 8.14214611 0
vt 3.48228359 4.46417427 0
vt -0.840551198 0.283299446 0
vt 3.48228359 4.88283587 0
vt -3.48228359 4.88283587 0
vt 0.840551198 0.283299446 0
vt -0.840551198 0.733084977 0
vt 2.04133868 4.69145918 0
vt -2.04133868 4.69145918 0
vt 0.840551198 0.733084977 0
vt 3.48228359 6.24731684 0
vt -0.840551198 0.511102855 0
vt 0.840551198 0.511102855 0
vt -3.48228359 6.24731684 0
vt -3.48228359 7.00510883 0
vt 0.840551198 0.447052479 0
vt 3.48228359 7.00510883 0
vt -0.840551198 0.447052479 0
vt 2.04133868 -3.42177105 0
vt -2.04133868 -3.42177105 0
vt -0.908675492 -7.36766052 0
vt 2.04133868 4.86589575 0
vt -0.840551198 0.695878327 0
vt 0.840551198 0.695878327 0
vt -2.04133868 4.86589575 0
vt -0.908675492 -7.08368969 0
vt 2.04133868 -3.03489685 0
vt -2.04133868 -3.03489685 0
vt 0.506435454 -8.29711151 0
vt 2.52165341 -3.84020472 0
vt -2.52165341 -3.84020472 0
vt -3.48228359 7.9218297 0
vt 0.840551198 0.168053091 0
vt 3.48228359 7.9218297 0
vt -0.840551198 0.168053091 0
vt -0.840551198 0.784112573 0
vt 2.04133868 4.48488808 0
vt -2.04133868 4.48488808 0
vt 0.840551198 0.784112573 0

# 64 vertex normals
vn 0 0.857349396 0.514734864
vn 0 -0.857349396 -0.514734864
vn 0 -0.874155998 -0.485645384
vn 0 0.874155998 0.485645384
vn -0.590753138 0.8068524 0
vn 0.590753138 -0.8068524 0
vn 0 0.239287302 -0.970948756
vn 0 -0.239287302 0.970948756
vn -0.25510034 0.966914594 0
vn 0.25510034 -0.966914594 0
vn -0.782146871 0.623094141 0
vn 0.782146871 -0.623094141 0
vn 0 0.696819425 0.717246532
vn 0 -0.696819425 -0.717246532
vn 0 0.604345441 -0.796722293
vn 0 -0.604345441 0.796722293
vn 0 0.933776677 0.357856184
vn 0 -0.933776677 -0.357856184
vn 0.235612899 -0.971846998 0
vn -0.235612899 0.971846998 0
vn 0 0.887146056 -0.461488903
vn 0 -0.887146056 0.461488903
vn 0.337148637 0.94145143 0
vn -0.337148637 -0.94145143 -0
vn -0.531991303 0.846749783 0
vn 0.531991303 -0.846749783 0
vn 0 0.693342149 -0.720608532
vn 0 -0.693342149 0.720608532
vn 0 0.934925318 -0.35484466
vn 0 -0.934925318 0.35484466
vn 0 0.241479412 0.970405936
vn 0 -0.241479412 -0.970405936
vn 0 0.855137587 -0.518401086
vn 0 -0.855137587 0.518401086
vn 0.385142565 0.922857106 0
vn -0.385142565 -0.922857106 -0
vn 0 -0.943220496 -0.332167268
vn 0 0.943220496 0.332167268
vn 0 0.888962567 0.457979798
vn 0 -0.888962567 -0.457979798
vn 0.672055244 0.740501106 0
vn -0.672055244 -0.740501106 -0
vn 0.581891358 0.813266516 0
vn -0.581891358 -0.813266516 -0
vn 0.941490293 0.337040067 0
vn -0.941490293 -0.337040067 -0
vn 0 -0.872147918 0.489242285
vn 0 0.872147918 -0.489242285
vn 0 0.608056724 0.793893456
vn 0 -0.608056724 -0.793893456
vn -0.8468346 0.531856298 0
vn 0.8468346 -0.531856298 0
vn 0 -0.944219649 0.329316199
vn 0 0.944219649 -0.329316199
vn 0.560900331 -0.827883422 0
vn -0.560900331 0.827883422 0
vn -0.391397953 -0.920221448 -0
vn 0.391397953 0.920221448 0
vn 0.420045108 0.907503247 0
vn -0.420045108 -0.907503247 -0
vn -0.979809761 0.199932009 0
vn 0.979809761 -0.199932009 0
vn -0.360251397 -0.932855308 -0
vn 0.360251397 0.932855308 0

# Mesh 'Mesh plant_bushDetailed' with 104 faces
g Mesh plant_bushDetailed
usemtl grass
f  1/1/1 2/2/1 3/3/1
f  3/3/2 2/2/2 1/1/2
f  4/4/3 5/5/3 6/6/3
f  5/5/3 4/4/3 7/7/3
f  6/6/4 5/5/4 4/4/4
f  7/7/4 4/4/4 5/5/4
f  8/8/5 9/9/5 10/10/5
f  10/10/6 9/9/6 8/8/6
f  11/11/7 12/12/7 13/13/7
f  12/12/7 11/11/7 14/14/7
f  13/13/8 12/12/8 11/11/8
f  14/14/8 11/11/8 12/12/8
f  15/15/9 16/16/9 17/17/9
f  17/17/10 16/16/10 15/15/10
f  10/18/11 18/19/11 19/20/11
f  18/19/11 10/18/11 9/21/11
f  19/20/12 18/19/12 10/18/12
f  9/21/12 10/18/12 18/19/12
f  1/22/13 20/23/13 21/24/13
f  20/23/13 1/22/13 3/25/13
f  21/24/14 20/23/14 1/22/14
f  3/25/14 1/22/14 20/23/14
f  22/26/15 12/27/15 13/28/15
f  12/27/15 22/26/15 23/29/15
f  13/28/16 12/27/16 22/26/16
f  23/29/16 22/26/16 12/27/16
f  24/30/17 25/31/17 26/32/17
f  26/32/18 25/31/18 24/30/18
f  27/33/19 28/34/19 29/35/19
f  29/35/20 28/34/20 27/33/20
f  25/36/21 23/37/21 22/38/21
f  23/37/21 25/36/21 24/39/21
f  22/38/22 23/37/22 25/36/22
f  24/39/22 25/36/22 23/37/22
f  30/40/23 15/41/23 17/42/23
f  15/41/23 30/40/23 31/43/23
f  17/42/24 15/41/24 30/40/24
f  31/43/24 30/40/24 15/41/24
f  32/44/25 33/45/25 34/46/25
f  33/45/25 32/44/25 35/47/25
f  34/46/26 33/45/26 32/44/26
f  35/47/26 32/44/26 33/45/26
f  36/48/27 14/49/27 11/50/27
f  14/49/27 36/48/27 37/51/27
f  11/50/28 14/49/28 36/48/28
f  37/51/28 36/48/28 14/49/28
f  38/52/29 39/53/29 40/54/29
f  40/54/30 39/53/30 38/52/30
f  21/55/31 5/56/31 7/57/31
f  5/56/31 21/55/31 20/58/31
f  7/57/32 5/56/32 21/55/32
f  20/58/32 21/55/32 5/56/32
f  37/59/33 36/60/33 41/61/33
f  41/61/34 36/60/34 37/59/34
f  42/62/35 43/63/35 44/64/35
f  44/64/36 43/63/36 42/62/36
f  45/65/37 46/66/37 47/67/37
f  47/67/38 46/66/38 45/65/38
f  48/68/39 40/69/39 49/70/39
f  40/69/39 48/68/39 38/71/39
f  49/70/40 40/69/40 48/68/40
f  38/71/40 48/68/40 40/69/40
f  13/72/41 31/73/41 30/74/41
f  31/73/41 13/72/41 5/75/41
f  30/74/42 31/73/42 13/72/42
f  5/75/42 13/72/42 31/73/42
f  50/76/43 42/77/43 44/78/43
f  42/77/43 50/76/43 51/79/43
f  44/78/44 42/77/44 50/76/44
f  51/79/44 50/76/44 42/77/44
f  13/80/45 51/81/45 50/82/45
f  51/81/45 13/80/45 5/83/45
f  50/82/46 51/81/46 13/80/46
f  5/83/46 13/80/46 51/81/46
f  13/84/47 45/85/47 47/86/47
f  45/85/47 13/84/47 12/87/47
f  47/86/48 45/85/48 13/84/48
f  12/87/48 13/84/48 45/85/48
f  48/88/49 5/89/49 7/90/49
f  5/89/49 48/88/49 49/91/49
f  7/90/50 5/89/50 48/88/50
f  49/91/50 48/88/50 5/89/50
f  33/92/51 12/93/51 34/94/51
f  12/93/51 33/92/51 7/95/51
f  34/94/52 12/93/52 33/92/52
f  7/95/52 33/92/52 12/93/52
f  4/96/53 6/97/53 52/98/53
f  52/98/54 6/97/54 4/96/54
f  53/99/55 12/100/55 7/101/55
f  12/100/55 53/99/55 54/102/55
f  7/101/56 12/100/56 53/99/56
f  54/102/56 53/99/56 12/100/56
f  55/103/57 54/104/57 53/105/57
f  53/105/58 54/104/58 55/103/58
f  56/106/59 35/107/59 32/108/59
f  32/108/60 35/107/60 56/106/60
f  18/109/61 12/110/61 19/111/61
f  12/110/61 18/109/61 7/112/61
f  19/111/62 12/110/62 18/109/62
f  7/112/62 18/109/62 12/110/62
f  5/113/63 27/114/63 29/115/63
f  27/114/63 5/113/63 13/116/63
f  29/115/64 27/114/64 5/113/64
f  13/116/64 5/113/64 27/114/64

