# File produced by Open Asset Import Library (http://www.assimp.sf.net)
# (assimp v5.3.0)

mtllib rock_largeA.mtl

# 42 vertex positions
v 0.0532782152 0.209775969 0.286233693
v -0.33425504 0.0943199992 -0.0688293427
v 0.0772147775 0.0943199992 0.414831609
v -0.230635986 0.209775969 -0.0474922471
v -0.182456806 0.152048007 -0.429032326
v 0.209426746 0.0943199992 -0.449259818
v -0.215925232 0.0943199992 -0.507730722
v -0.00224197656 0.209775969 -0.330161691
v 0.144504443 0.209775969 -0.309989274
v -0.33425504 0.0257679932 -0.0688293427
v -0.30611369 -0.0500000007 -0.225074098
v -0.260718942 -0.0500000007 -0.0536868945
v -0.392453343 0.0257679932 -0.288556546
v -0.168421641 -0.0500000007 -0.396029979
v 0.0602275133 -0.0500000007 0.323568523
v 0.163352847 -0.0500000007 -0.35042268
v 0.173208281 -0.0500000007 0.396029979
v 0.234280095 -0.0500000007 0.0242839195
v 0.30611369 -0.0500000007 -0.137809277
v 0.234280095 -0.0500000007 0.263141632
v 0.28579849 -0.0500000007 0.360054433
v 0.209426746 0.0257679932 -0.449259818
v -0.215925232 0.0257679932 -0.507730722
v -0.392453343 0.0943199992 -0.288556546
v 0.392453343 0.0257679932 -0.176678598
v 0.30035913 0.0943199992 0.0311332308
v 0.30035913 0.0257679932 0.0311332308
v 0.392453343 0.0943199992 -0.176678598
v 0.0772147775 0.0257679932 0.414831609
v 0.222061858 0.0257679932 0.507730722
v -0.209890619 0.209775969 -0.274719059
v -0.270792842 0.209775969 -0.199104011
v 0.366408288 0.0257679932 0.461608201
v 0.270792842 0.209775969 -0.121908218
v 0.30035913 0.0943199992 0.337361097
v 0.252821714 0.209775969 0.318509728
v 0.366408288 0.0943199992 0.461608201
v 0.207247794 0.209775969 0.23277913
v 0.222061858 0.0943199992 0.507730722
v 0.153222695 0.209775969 0.350334138
v 0.30035913 0.0257679932 0.337361097
v 0.207247794 0.209775969 0.0214819275

# 146 UV coordinates
vt 9.94236279 6.1072588 0
vt -10.591094 0.889026642 0
vt 14.4092264 0.889025748 0
vt -7.30785513 6.10725737 0
vt 9.41670227 -7.46737194 0
vt -5.75959492 -11.1440296 0
vt 11.1440287 -11.1440325 0
vt 1.85762954 -3.79071903 0
vt -3.9741199 -3.79071856 0
vt -5.98885202 10.2126188 0
vt -11.6515055 6.22520828 0
vt -4.6713047 6.22520733 0
vt -14.9378262 10.2126179 0
vt 6.63077354 15.5917311 0
vt 10.2645254 2.11365724 0
vt 12.0517197 8.86118507 0
vt -2.37116194 -12.7389183 0
vt -6.43121433 13.7961683 0
vt -6.81922388 -15.591732 0
vt -9.22362614 -0.956059813 0
vt -12.0517197 5.42556238 0
vt -9.22362614 -10.3599072 0
vt -11.2519093 -14.1753712 0
vt 11.1440315 5.68188953 0
vt -5.75959158 2.98299193 0
vt 11.1440315 2.98299193 0
vt -5.75959158 5.68188953 0
vt -14.9378242 5.68188953 0
vt -5.98885012 2.98299193 0
vt -5.98885012 5.68188953 0
vt -14.9378242 2.98299193 0
vt 12.6194353 2.98299193 0
vt 3.67046046 5.68188953 0
vt 3.67046046 2.98299193 0
vt 12.6194353 5.68188953 0
vt 10.0879936 14.8501682 0
vt -2.21387982 10.1168098 0
vt 7.86863613 10.1168079 0
vt -2.838305 14.8501673 0
vt 14.1575317 6.28910971 0
vt 11.375946 10.2880907 0
vt 8.87323475 6.28910875 0
vt 18.1506805 10.2880898 0
vt -3.26788044 -7.80380249 0
vt 2.58291173 -13.8391638 0
vt 5.1936512 -7.80380249 0
vt 0.582541406 -4.28248453 0
vt -10.2354259 -11.7616539 0
vt 0.844261587 -11.761652 0
vt -3.23994946 -4.28248405 0
vt -8.64893055 -8.02206612 0
vt -10.591094 5.68188953 0
vt 14.4092264 2.98299193 0
vt 14.4092264 5.68188953 0
vt -10.591094 2.98299193 0
vt 2.86296034 5.64894772 0
vt 12.6194382 9.5331316 0
vt 3.67046261 9.53313255 0
vt 9.84316158 5.64894915 0
vt 6.40355301 14.3558998 0
vt 2.24369597 19.98559 0
vt 1.75008416 14.3558998 0
vt 8.20968246 19.98559 0
vt -1.95843124 -1.91595316 0
vt 10.0879946 -8.80646992 0
vt 6.96071577 -1.91595197 0
vt -2.83830452 -8.80646896 0
vt -17.2784519 4.30126905 0
vt -15.7446232 9.03017807 0
vt -22.8182907 4.30126905 0
vt -11.9221315 9.03017807 0
vt -5.75959158 16.8341618 0
vt 8.69234371 11.7622128 0
vt 11.1440315 16.8341618 0
vt -4.49248028 11.7622128 0
vt 2.2437017 -14.8012409 0
vt 5.66468477 -6.68198299 0
vt 1.54815567 -6.68198061 0
vt 8.20968819 -14.801239 0
vt -10.591094 6.85075998 0
vt 11.239192 3.3570087 0
vt 14.4092264 6.85076094 0
vt -8.26105309 3.35700941 0
vt -17.2784519 2.98299193 0
vt -22.8182907 5.68188953 0
vt -22.8182907 2.98299193 0
vt -17.2784519 5.68188953 0
vt -17.7982693 0.972437561 0
vt -17.2784538 4.09571886 0
vt -22.8182926 4.09571886 0
vt -13.4771929 0.972437263 0
vt 18.1506786 5.68188953 0
vt 11.3759432 2.98299193 0
vt 18.1506786 2.98299193 0
vt 11.3759432 5.68188953 0
vt -1.22571778 -3.0005312 0
vt -9.16453266 2.83897018 0
vt -13.2819328 -3.0005312 0
vt -0.845745206 2.83897018 0
vt 12.6194372 -2.40601468 0
vt 2.53261828 3.33414721 0
vt 3.67046189 -2.4060154 0
vt 8.70741177 3.33414626 0
vt 8.20968056 5.68188953 0
vt 2.24369407 2.98299193 0
vt 8.20968056 2.98299193 0
vt 2.24369407 5.68188953 0
vt 10.0879955 2.98299193 0
vt -2.83830309 5.68188953 0
vt -2.83830309 2.98299193 0
vt 10.0879955 5.68188953 0
vt -10.3599072 6.06246662 0
vt -1.22571778 10.0205269 0
vt -13.2819328 10.0205269 0
vt -0.956059813 6.06246662 0
vt -10.2354307 5.68188953 0
vt 0.844256938 2.98299193 0
vt 0.844256938 5.68188953 0
vt -10.2354307 2.98299193 0
vt -1.22571778 2.98299193 0
vt -13.2819328 5.68188953 0
vt -13.2819328 2.98299193 0
vt -1.22571778 5.68188953 0
vt -10.3070993 2.64457083 0
vt -5.98885107 -3.23444557 0
vt -4.13230753 2.6445713 0
vt -14.9378252 -3.23444462 0
vt 12.5239687 2.56831217 0
vt 11.3759451 -3.32628632 0
vt 18.1506805 -3.32628584 0
vt 7.84940004 2.56831312 0
vt -10.2354279 17.3623219 0
vt 0.658524036 12.1985197 0
vt 0.844259679 17.3623199 0
vt -7.983634 12.1985178 0
vt 9.95361137 -12.539753 0
vt 8.15936184 -9.16453266 0
vt 6.03238964 -13.7926826 0
vt 8.15936184 -0.845745206 0
vt 5.68915129 12.2043018 0
vt 2.09756756 -11.269043 0
vt -0.0882667974 12.9984922 0
vt -8.26341057 10.815711 0
vt -9.08015728 1.86977351 0
vt -10.6611357 7.83874083 0
vt 10.6611357 4.79953623 0

# 36 vertex normals
vn -0.663469672 0.491136372 0.564440429
vn 0.0841831937 0.786053538 -0.61239928
vn -0.72316587 -0.6635831 0.191542193
vn 0 -1 0
vn 0.136184037 0 -0.990683556
vn -0.966666937 0 0.256037265
vn 0.91424638 0 0.405158788
vn 0.523203671 -0.776427805 -0.351308763
vn -0.402706444 -0.666015327 0.627894163
vn -0.097142823 0.926386833 -0.363827795
vn -0.473322898 0.79412359 -0.381225675
vn -0.761661053 0 0.647975743
vn 0.702126801 -0.640468657 0.311155707
vn 0.161274031 -0.848080277 0.504728198
vn 0.547670066 0.751549721 -0.367736965
vn 0.870324671 0.168762043 -0.462660074
vn 0.848745286 0.275790304 -0.451188654
vn 0.880447626 0.0758232549 -0.46804145
vn 0.0800946131 -0.80876261 -0.582655787
vn 0.170397401 0.828598499 0.533281505
vn -0.650312006 -0.520588517 0.553246737
vn 0.86813736 -0.182640985 -0.461497486
vn 0.880284905 -0.0782098323 -0.467954934
vn 0.84332788 -0.296339363 -0.448308915
vn -0.539865673 0 0.841751218
vn 0.778407395 0.627759337 0
vn 0.723972082 0.610678494 0.320836663
vn 0.304366618 0 0.952554882
vn 0.830210149 0 -0.557450414
vn 0.75365001 -0.657275796 0
vn -0.778804123 0 -0.627267301
vn 1 0 0
vn -0.747403204 0.63419205 0.197961777
vn -0.416307569 0.636675775 0.6491009
vn -0.449894458 -0.816267908 -0.362355739
vn 0 1 0

# Mesh 'Mesh rock_largeA-0' with 71 faces
g Mesh rock_largeA-0
usemtl dirt
f  1/1/1 2/2/1 3/3/1
f  2/2/1 1/1/1 4/4/1
f  5/5/2 6/6/2 7/7/2
f  6/6/2 5/5/2 8/8/2
f  6/6/2 8/8/2 9/9/2
f  10/10/3 11/11/3 12/12/3
f  11/11/3 10/10/3 13/13/3
f  14/14/4 12/15/4 11/16/4
f  12/15/4 14/14/4 15/17/4
f  15/17/4 14/14/4 16/18/4
f  15/17/4 16/18/4 17/19/4
f  17/19/4 16/18/4 18/20/4
f  18/20/4 16/18/4 19/21/4
f  20/22/4 17/19/4 18/20/4
f  17/19/4 20/22/4 21/23/4
f  7/24/5 22/25/5 23/26/5
f  22/25/5 7/24/5 6/27/5
f  24/28/6 10/29/6 2/30/6
f  10/29/6 24/28/6 13/31/6
f  25/32/7 26/33/7 27/34/7
f  26/33/7 25/32/7 28/35/7
f  22/36/8 19/37/8 16/38/8
f  19/37/8 22/36/8 25/39/8
f  17/40/9 29/41/9 15/42/9
f  29/41/9 17/40/9 30/43/9
f  8/44/10 5/45/10 31/46/10
f  32/47/11 7/48/11 24/49/11
f  7/48/11 32/47/11 31/50/11
f  7/48/11 31/50/11 5/51/11
f  2/52/12 29/53/12 3/54/12
f  29/53/12 2/52/12 10/55/12
f  18/56/13 25/57/13 27/58/13
f  25/57/13 18/56/13 19/59/13
f  21/60/14 30/61/14 17/62/14
f  30/61/14 21/60/14 33/63/14
f  34/64/15 6/65/15 9/66/15
f  6/65/15 34/64/15 28/67/15
f  35/68/16 36/69/17 37/70/18
f  36/69/17 35/68/16 38/71/17
f  22/72/19 14/73/19 23/74/19
f  14/73/19 22/72/19 16/75/19
f  39/76/20 36/77/20 40/78/20
f  36/77/20 39/76/20 37/79/20
f  10/80/21 15/81/21 29/82/21
f  15/81/21 10/80/21 12/83/21
f  41/84/22 37/85/18 33/86/23
f  37/85/18 41/84/22 35/87/16
f  21/88/24 41/89/22 33/90/23
f  41/89/22 21/88/24 20/91/24
f  39/92/25 29/93/25 30/94/25
f  29/93/25 39/92/25 3/95/25
f  26/96/26 38/97/26 35/98/26
f  38/97/26 26/96/26 42/99/26
f  28/100/27 42/101/27 26/102/27
f  42/101/27 28/100/27 34/103/27
f  37/104/28 30/105/28 33/106/28
f  30/105/28 37/104/28 39/107/28
f  22/108/29 28/109/29 25/110/29
f  28/109/29 22/108/29 6/111/29
f  20/112/30 27/113/30 41/114/30
f  27/113/30 20/112/30 18/115/30
f  7/116/31 13/117/31 24/118/31
f  13/117/31 7/116/31 23/119/31
f  27/120/32 35/121/32 41/122/32
f  35/121/32 27/120/32 26/123/32
f  32/124/33 2/125/33 4/126/33
f  2/125/33 32/124/33 24/127/33
f  40/128/34 3/129/34 39/130/34
f  3/129/34 40/128/34 1/131/34
f  23/132/35 11/133/35 13/134/35
f  11/133/35 23/132/35 14/135/35

# Mesh 'Mesh rock_largeA-1' with 9 faces
g Mesh rock_largeA-1
usemtl grass
f  36/136/36 38/137/36 40/138/36
f  42/139/36 40/138/36 38/137/36
f  9/140/36 40/138/36 42/139/36
f  9/140/36 1/141/36 40/138/36
f  8/142/36 1/141/36 9/140/36
f  31/143/36 1/141/36 8/142/36
f  31/143/36 4/144/36 1/141/36
f  4/144/36 31/143/36 32/145/36
f  9/140/36 42/139/36 34/146/36

